<svg width="140" height="53" viewBox="0 0 140 53" fill="none" xmlns="http://www.w3.org/2000/svg">
<path d="M117.799 32.7038L126.821 31.8937V33.7897C126.821 38.3517 122.464 41.7559 117.951 41.7559C114.343 41.7559 111.186 40.7246 111.186 37.3405C111.186 34.6171 112.841 33.1462 117.799 32.7038Z" fill="white"/>
<path d="M136.048 24.999V21.7355C136.048 13.0511 129.226 9.5204 119.682 9.5204C106.148 9.5204 101.941 16.9523 101.565 22.7668L110.52 22.1721C113.222 22.1721 110.54 17.1735 119.23 17.1735C123.966 17.1735 126.82 19.3827 126.82 23.87V25.6367L116.825 26.2256C101.715 27.1105 100.363 33.8069 100.363 37.8547C100.363 46.4673 107.803 49.409 113.891 49.409C118.403 49.409 124.359 48.4237 130.171 44.0771C134.123 40.6269 135.948 36.9268 136.039 31.3277C137.297 31.2588 138.536 31.1984 139.645 31.1553C139.574 31.5432 139.495 31.9281 139.407 32.3102C139.401 32.3447 139.392 32.382 139.383 32.4165C136.637 44.2035 125.876 53 113.005 53C98.0565 53 85.9395 41.1354 85.9395 26.5014C85.9395 11.8675 98.0565 0 113.005 0C127.953 0 139.07 10.9194 140 24.726H139.964L136.048 24.999Z" fill="white"/>
<path d="M126.821 31.8937V33.7897C126.821 38.3517 122.464 41.7559 117.951 41.7559C114.343 41.7559 111.186 40.7246 111.186 37.3405C111.186 34.6171 112.841 33.1462 117.799 32.7038L126.821 31.8937Z" fill="white"/>
<path d="M8.24428 23.8758C5.58617 23.8758 2.89284 24.7347 1.04155 26.4469L3.73487 29.1502C4.81162 27.9637 6.19349 27.2369 7.84234 27.2369C9.59095 27.2369 11.0726 28.3573 11.0726 30.1068C6.86534 30.1068 0 30.2045 0 35.7404C0 38.9694 2.75788 40.6844 5.82088 40.6844C7.87461 40.6844 9.89313 39.9921 11.0051 38.277H11.0726V40.288H15.7169V32.1494C15.7169 26.8089 14.1356 23.8758 8.24428 23.8758ZM11.0726 34.3241C11.0726 36.3006 9.22127 37.3233 7.23502 37.3233C6.126 37.3233 4.84388 36.7631 4.84388 35.5766C4.84388 33.4019 8.27948 33.2698 9.82564 33.2698H11.0726V34.3241Z" fill="white"/>
<path d="M31.3312 28.228C31.3312 28.228 31.3312 28.2194 31.3283 28.2165C30.5332 25.3869 28.5264 23.8758 24.2986 23.8758C21.6376 23.8758 18.9442 24.7347 17.0959 26.4469L19.7863 29.1502C20.863 27.9637 22.2449 27.2369 23.8937 27.2369C25.6423 27.2369 27.124 28.3573 27.124 30.1068C22.9167 30.1068 16.0514 30.2045 16.0514 35.7404C16.0514 38.9694 18.8093 40.6844 21.8723 40.6844C23.926 40.6844 25.9445 39.9921 27.0565 38.277H27.124V40.288H31.7683V32.1494C31.7683 30.6469 31.6422 29.3369 31.3312 28.228ZM27.124 34.3241C27.124 36.3006 25.2727 37.3233 23.2864 37.3233C22.1774 37.3233 20.8982 36.7631 20.8982 35.5766C20.8982 33.4019 24.3309 33.2698 25.88 33.2698H27.124V34.3241Z" fill="white"/>
<path d="M44.0497 28.228H39.6077V33.5657C39.6077 35.2807 39.8102 36.5304 41.9959 36.5304C42.5358 36.5304 43.6125 36.4643 44.0497 36.0707V40.1903C42.9377 40.5867 41.6937 40.6844 40.5173 40.6844C37.1521 40.6844 34.5585 39.3342 34.5585 35.8409V28.228H31.3283V24.2722H34.5585V19.5264H39.6077V24.2722H44.0497V28.228Z" fill="white"/>
<path d="M44.5895 24.2722H49.6388V26.8434H49.7063C50.783 24.8985 52.1971 23.8758 54.4181 23.8758C54.9902 23.8758 55.6298 23.9102 56.0992 24.0395V28.5555C55.3922 28.3573 54.6851 28.2252 53.9457 28.2252C50.1082 28.2252 49.6388 30.3999 49.6388 33.5973V40.288H44.5895V24.2722Z" fill="white"/>
<path d="M63.7039 23.8758C61.0428 23.8758 58.3524 24.7347 56.5011 26.4469L59.1944 29.1502C60.2712 27.9637 61.6501 27.2369 63.299 27.2369C65.0505 27.2369 66.5292 28.3573 66.5292 30.1068C62.3249 30.1068 55.4566 30.2045 55.4566 35.7404C55.4566 38.9694 58.2174 40.6844 61.2804 40.6844C63.3342 40.6844 65.3527 39.9921 66.4617 38.277H66.5292V40.288H71.1765V32.1494C71.1765 26.8089 69.5922 23.8758 63.7039 23.8758ZM66.5292 34.3241C66.5292 36.3006 64.6779 37.3233 62.6946 37.3233C61.5826 37.3233 60.3035 36.7631 60.3035 35.5766C60.3035 33.4019 63.7361 33.2698 65.2852 33.2698H66.5292V34.3241Z" fill="white"/>
<path d="M77.4346 15.3752H72.3854V40.2909H77.4346V15.3752Z" fill="white"/>
</svg>
