<svg width="810" height="305" viewBox="0 0 810 305" fill="none" xmlns="http://www.w3.org/2000/svg">
<path d="M47.6991 137.173C32.32 137.173 16.7372 142.108 6.02611 151.945L21.6089 167.476C27.8386 160.659 35.8337 156.483 45.3735 156.483C55.4905 156.483 64.0626 162.92 64.0626 172.972C39.7209 172.972 0 173.533 0 205.338C0 223.89 15.9563 233.743 33.6779 233.743C45.5602 233.743 57.2388 229.765 63.6722 219.912H64.0626V231.465H90.9337V184.707C90.9337 154.024 81.7843 137.173 47.6991 137.173ZM64.0626 197.201C64.0626 208.557 53.3517 214.432 41.8598 214.432C35.4433 214.432 28.0253 211.214 28.0253 204.397C28.0253 191.903 47.9027 191.144 56.8484 191.144H64.0626V197.201Z" fill="#4A494A"/>
<path d="M181.273 162.178C181.273 162.178 181.273 162.128 181.256 162.112C176.656 145.854 165.045 137.173 140.585 137.173C125.189 137.173 109.606 142.108 98.9119 151.945L114.478 167.476C120.707 160.659 128.702 156.483 138.242 156.483C148.359 156.483 156.931 162.92 156.931 172.972C132.59 172.972 92.8689 173.533 92.8689 205.338C92.8689 223.89 108.825 233.743 126.547 233.743C138.429 233.743 150.108 229.765 156.541 219.912H156.931V231.465H183.803V184.707C183.803 176.075 183.073 168.549 181.273 162.178ZM156.931 197.201C156.931 208.557 146.22 214.432 134.729 214.432C128.312 214.432 120.911 211.214 120.911 204.397C120.911 191.903 140.772 191.144 149.734 191.144H156.931V197.201Z" fill="#4A494A"/>
<path d="M254.859 162.178H229.159V192.844C229.159 202.697 230.33 209.877 242.977 209.877C246.1 209.877 252.33 209.497 254.859 207.236V230.904C248.425 233.182 241.228 233.743 234.421 233.743C214.951 233.743 199.946 225.986 199.946 205.916V162.178H181.256V139.45H199.946V112.184H229.159V139.45H254.859V162.178Z" fill="#4A494A"/>
<path d="M257.982 139.45H287.196V154.222H287.586C293.816 143.048 301.998 137.173 314.848 137.173C318.158 137.173 321.858 137.371 324.574 138.113V164.059C320.483 162.92 316.392 162.161 312.115 162.161C289.912 162.161 287.196 174.655 287.196 193.025V231.465H257.982V139.45Z" fill="#4A494A"/>
<path d="M368.572 137.173C353.176 137.173 337.61 142.108 326.899 151.945L342.482 167.476C348.712 160.659 356.69 156.483 366.23 156.483C376.364 156.483 384.919 162.92 384.919 172.972C360.594 172.972 320.856 173.533 320.856 205.338C320.856 223.89 336.83 233.743 354.551 233.743C366.433 233.743 378.112 229.765 384.529 219.912H384.919V231.465H411.807V184.707C411.807 154.024 402.641 137.173 368.572 137.173ZM384.919 197.201C384.919 208.557 374.208 214.432 362.733 214.432C356.3 214.432 348.899 211.214 348.899 204.397C348.899 191.903 368.759 191.144 377.722 191.144H384.919V197.201Z" fill="#4A494A"/>
<path d="M448.014 88.3347H418.801V231.482H448.014V88.3347Z" fill="#4A494A"/>
<path d="M681.553 187.893L733.75 183.238V194.131C733.75 220.341 708.543 239.9 682.436 239.9C661.557 239.9 643.292 233.974 643.292 214.531C643.292 198.885 652.865 190.434 681.553 187.893Z" fill="white"/>
<path d="M787.135 143.626V124.876C787.135 74.982 747.669 54.6974 692.45 54.6974C614.146 54.6974 589.804 97.3958 587.631 130.802L639.438 127.385C655.072 127.385 639.557 98.6667 689.836 98.6667C717.233 98.6667 733.749 111.359 733.749 137.14V147.29L675.917 150.674C588.497 155.757 580.671 194.23 580.671 217.486C580.671 266.968 623.719 283.869 658.942 283.869C685.049 283.869 719.508 278.208 753.135 253.236C776 233.413 786.558 212.155 787.084 179.987C794.366 179.59 801.529 179.244 807.946 178.996C807.539 181.224 807.08 183.436 806.571 185.631C806.537 185.829 806.622 185.433 806.571 185.631C790.683 253.351 728.284 304.5 653.815 304.5C567.329 304.5 497.224 236.335 497.224 152.258C497.224 68.182 567.329 0 653.815 0C740.302 0 804.619 62.7353 810 142.058L787.135 143.626Z" fill="#FCB01A"/>
<path d="M733.75 183.238V194.131C733.75 220.341 708.543 239.9 682.436 239.9C661.557 239.9 643.292 233.974 643.292 214.531C643.292 198.885 652.865 190.434 681.553 187.893L733.75 183.238Z" fill="#FCB01A"/>
</svg>
