<svg width="35" height="39" viewBox="0 0 35 39" fill="none" xmlns="http://www.w3.org/2000/svg">
<path d="M19.0836 5.86533C18.9948 5.77021 18.8902 5.6955 18.7755 5.64546C18.6609 5.59542 18.5385 5.57103 18.4154 5.57368C18.1668 5.57904 17.9303 5.69422 17.7579 5.89388C17.5855 6.09355 17.4914 6.36134 17.4962 6.63836C17.501 6.91537 17.6044 7.17891 17.7836 7.371L28.1273 18.4581L4.68606 18.4581C4.43742 18.4581 4.19896 18.5682 4.02314 18.7641C3.84733 18.96 3.74856 19.2257 3.74856 19.5028C3.74856 19.7798 3.84733 20.0456 4.02314 20.2415C4.19896 20.4374 4.43742 20.5474 4.68606 20.5474L28.1248 20.5474L17.7823 31.6318C17.6936 31.7269 17.6225 31.8406 17.5732 31.9663C17.5239 32.092 17.4973 32.2273 17.4949 32.3644C17.4926 32.5016 17.5145 32.6379 17.5594 32.7657C17.6043 32.8934 17.6713 33.01 17.7567 33.1089C17.842 33.2078 17.944 33.2869 18.0569 33.3419C18.1697 33.3968 18.2911 33.4265 18.4142 33.4291C18.5373 33.4318 18.6596 33.4074 18.7743 33.3573C18.8889 33.3073 18.9936 33.2326 19.0823 33.1375L30.8673 20.5056C30.9885 20.3757 31.0849 20.2198 31.1507 20.0474C31.2166 19.875 31.2505 19.6895 31.2505 19.5021C31.2505 19.3147 31.2166 19.1292 31.1507 18.9568C31.0849 18.7843 30.9885 18.6285 30.8673 18.4985L19.0836 5.86533Z" fill="#FBAF1A"/>
</svg>
