<svg width="200" height="201" viewBox="0 0 200 201" fill="none" xmlns="http://www.w3.org/2000/svg">
<g clip-path="url(#clip0_576_135)">
<rect y="0.5" width="200" height="200" rx="100" fill="#FCB01A"/>
<path d="M37.5 217.5H162.5V186.25C162.483 174.652 157.869 163.533 149.668 155.332C141.467 147.131 130.348 142.517 118.75 142.5H81.25C69.6519 142.517 58.5335 147.131 50.3323 155.332C42.1312 163.533 37.5165 174.652 37.5 186.25V217.5ZM56.25 86.25C56.25 94.9029 58.8159 103.362 63.6232 110.556C68.4305 117.751 75.2633 123.358 83.2576 126.67C91.2519 129.981 100.049 130.847 108.535 129.159C117.022 127.471 124.817 123.304 130.936 117.186C137.054 111.067 141.221 103.272 142.909 94.7852C144.597 86.2985 143.731 77.5019 140.42 69.5076C137.108 61.5133 131.501 54.6805 124.306 49.8732C117.112 45.0659 108.653 42.5 100 42.5C88.3968 42.5 77.2688 47.1094 69.0641 55.3141C60.8594 63.5188 56.25 74.6468 56.25 86.25Z" fill="#1E1E1E"/>
</g>
<defs>
<clipPath id="clip0_576_135">
<rect y="0.5" width="200" height="200" rx="100" fill="white"/>
</clipPath>
</defs>
</svg>
