<svg width="54" height="59" viewBox="0 0 54 59" fill="none" xmlns="http://www.w3.org/2000/svg">
<path d="M24.556 50.1269C24.6929 50.2707 24.8544 50.3838 25.0313 50.4595C25.2081 50.5352 25.3969 50.5721 25.5868 50.5681C25.9704 50.56 26.3353 50.3857 26.6013 50.0837C26.8672 49.7816 27.0125 49.3765 27.0051 48.9574C26.9977 48.5383 26.8382 48.1396 26.5617 47.849L10.6028 31.0762L46.7693 31.0762C47.1529 31.0762 47.5208 30.9097 47.7921 30.6133C48.0633 30.3169 48.2157 29.915 48.2157 29.4958C48.2157 29.0767 48.0633 28.6747 47.7921 28.3783C47.5208 28.082 47.1529 27.9155 46.7693 27.9155L10.6067 27.9155L26.5637 11.1468C26.7005 11.0029 26.8102 10.831 26.8862 10.6408C26.9623 10.4506 27.0033 10.246 27.007 10.0385C27.0107 9.83095 26.9769 9.62469 26.9076 9.43145C26.8383 9.2382 26.7349 9.06176 26.6032 8.9122C26.4715 8.76263 26.3141 8.64287 26.1401 8.55976C25.966 8.47665 25.7787 8.4318 25.5888 8.42779C25.3988 8.42378 25.2101 8.46068 25.0332 8.53638C24.8563 8.61209 24.6948 8.72511 24.5579 8.869L6.37537 27.9787C6.18842 28.1753 6.0397 28.4111 5.93812 28.6719C5.83654 28.9328 5.78418 29.2134 5.78418 29.4969C5.78418 29.7804 5.83654 30.061 5.93812 30.3218C6.0397 30.5827 6.18842 30.8185 6.37537 31.0151L24.556 50.1269Z" fill="#1E1E1E"/>
</svg>
