<svg width="54" height="59" viewBox="0 0 54 59" fill="none" xmlns="http://www.w3.org/2000/svg">
<path d="M29.444 8.87314C29.3071 8.72925 29.1456 8.61623 28.9687 8.54053C28.7919 8.46482 28.6031 8.42792 28.4132 8.43193C28.0296 8.44004 27.6647 8.61428 27.3987 8.91634C27.1328 9.2184 26.9875 9.62352 26.9949 10.0426C27.0023 10.4617 27.1618 10.8604 27.4383 11.151L43.3972 27.9238L7.2307 27.9238C6.84708 27.9238 6.47917 28.0903 6.20792 28.3867C5.93666 28.6831 5.78427 29.085 5.78427 29.5042C5.78427 29.9233 5.93666 30.3253 6.20792 30.6217C6.47917 30.918 6.84708 31.0845 7.2307 31.0845L43.3933 31.0845L27.4363 47.8532C27.2995 47.9971 27.1898 48.169 27.1138 48.3592C27.0377 48.5494 26.9967 48.754 26.993 48.9615C26.9893 49.169 27.0231 49.3753 27.0924 49.5686C27.1617 49.7618 27.2651 49.9382 27.3968 50.0878C27.5285 50.2374 27.6859 50.3571 27.8599 50.4402C28.034 50.5234 28.2213 50.5682 28.4112 50.5722C28.6012 50.5762 28.7899 50.5393 28.9668 50.4636C29.1437 50.3879 29.3052 50.2749 29.4421 50.131L47.6246 31.0213C47.8116 30.8247 47.9603 30.5889 48.0619 30.3281C48.1635 30.0672 48.2158 29.7866 48.2158 29.5031C48.2158 29.2196 48.1635 28.939 48.0619 28.6782C47.9603 28.4173 47.8116 28.1815 47.6246 27.9849L29.444 8.87314Z" fill="#1E1E1E"/>
</svg>
