<svg width="163" height="163" viewBox="0 0 163 163" fill="none" xmlns="http://www.w3.org/2000/svg">
<mask id="mask0_627_8496" style="mask-type:luminance" maskUnits="userSpaceOnUse" x="0" y="0" width="163" height="163">
<path d="M93.9805 1.42001C94.3005 1.47001 94.6105 1.51998 94.9305 1.57998C95.4305 1.66998 95.9305 1.75 96.4305 1.85C104.941 3.46 111.491 6.18 113.301 6.97C115.031 7.73 117.351 8.73999 118.991 9.67999C122.241 11.55 126.641 14 129.571 16.35C132.501 18.7 136.331 21.86 138.951 24.51C141.561 27.16 144.79 30.96 146.97 33.98C149.15 37 151.781 41.25 153.48 44.57C155.191 47.9 157.021 52.57 158.331 56.08C159.641 59.59 160.611 64.62 161.381 68.32C161.771 70.2 161.971 72.75 162.181 74.65C162.701 79.27 162.59 87.85 161.48 94.23C161.07 96.58 160.481 99.72 159.751 101.99C158.701 105.28 157.091 109.62 155.571 112.72C151.631 120.77 143.771 132.31 128.751 142.98C121.791 147.93 115.621 150.96 113.591 151.96C106.151 155.62 99.8605 157.58 97.7905 158.23C94.8805 159.14 89.0105 160.78 82.4605 161.55C79.6505 161.88 75.8705 161.98 73.0405 162.01C71.7305 162.02 69.9905 161.78 68.6805 161.68C24.4205 154.7 -5.80948 113.17 1.16052 68.93C1.67052 66.06 2.50051 62.26 3.24051 59.44C3.73051 57.55 4.55053 55.08 5.26053 53.27C8.57053 44.86 10.2105 42.25 13.9805 36.33C16.0005 33.16 19.1105 29.18 21.7605 26.53C23.0805 25.21 24.7505 23.34 26.1705 22.13C29.0005 19.7 32.8905 16.6 35.9005 14.41C38.9105 12.22 43.3705 9.97 46.6705 8.25C48.3205 7.39 50.6705 6.53001 52.3805 5.79001C55.8205 4.31001 60.6805 3.02999 64.3405 2.20999C71.2205 0.669988 78.1405 0.469998 78.2105 0.469998C81.1205 0.389998 83.5705 0.409995 85.5105 0.529995C87.2005 0.629995 90.0305 0.80001 93.9605 1.42001H93.9805Z" fill="white"/>
</mask>
<g mask="url(#mask0_627_8496)">
<path d="M93.9807 1.41996C62.4307 -3.46004 40.0807 11.3899 35.9207 14.4099C31.4807 17.6399 21.0907 25.1999 14.0007 36.3399C7.83073 46.0299 3.75072 54.4699 1.18072 68.9399C-5.79928 113.18 24.4307 154.71 68.7007 161.69C73.8207 162.07 80.8407 162.6 92.5907 159.68C104.481 156.73 112.411 152.59 118.781 149.26C132.191 142.26 146.501 129.01 152.821 117.76C156.861 110.56 159.001 106.09 161.131 96.3099C162.231 91.2599 162.951 81.54 162.201 74.64C161.491 68.09 159.311 48.1599 143.151 29.0799C130.611 14.2699 113.151 4.43994 93.9907 1.39994" fill="#DE991F"/>
<path d="M110.551 5.85001C106.191 4.29001 105.741 4.12 102.371 3.19L100.911 2.82001C100.461 2.71001 99.8712 2.57 99.4212 2.47L98.6212 2.29001L97.8412 2.12L97.3212 2.01001L96.8212 1.91L96.4412 1.84L96.0712 1.76999L95.7612 1.70999L95.4612 1.66L95.2012 1.60999L94.9412 1.57001L94.7012 1.53L94.4612 1.48999L94.2312 1.45001L94.0012 1.41L93.7612 1.37L93.5312 1.32999L93.2912 1.29001L93.0512 1.25L92.7912 1.20999L92.5212 1.17001L92.2212 1.13L91.9112 1.09L91.5412 1.04001L91.1512 0.98999L90.6412 0.929993L90.1112 0.869995L89.3312 0.790009C89.0812 0.770009 88.7612 0.729991 88.5112 0.709991L87.0512 0.589996C86.5812 0.559996 85.9512 0.51999 85.4812 0.48999L81.8912 0.380005C80.3912 0.400005 78.3812 0.43 76.8812 0.5L70.5812 1.10001C15.6612 10.73 3.59123 55.43 1.20123 68.91C-5.77877 113.15 24.4512 154.68 68.7212 161.66C-4.38879 148.23 -23.7888 54.34 38.2012 13.92C57.4912 1.34001 99.9412 -11.07 136.661 22.23L131.961 18.15C125.691 13.5 120.741 9.82999 110.571 5.82999" fill="#DE991F"/>
<path d="M148.701 36.46C102.111 -26.56 14.1009 3.27001 2.34085 68.65C-6.42915 117.42 31.2909 156.93 70.6309 161.88L75.1009 162.04C103.491 160.76 152.041 141.21 161.481 94.23L162.251 87.63C162.541 79.42 163.291 57.63 148.691 36.46" fill="#DE991F"/>
<path d="M161.49 94.2101C161.82 91.3601 162.26 87.5601 162.42 84.7001V78.2001C161.77 70.4201 161.42 66.1301 158.54 56.7201L156.391 50.9501C122.48 -22.2799 27.6505 -7.88994 6.28049 56.6801C-11.3695 110.01 28.2205 157.91 72.7605 162.01L77.3505 161.99C112.62 159.14 154.06 134.69 161.36 94.9801L161.48 94.2301" fill="#DE991F"/>
<path d="M161.471 94.14C169.941 19.87 89.9106 -25.07 31.7206 21.28C-26.8294 67.92 7.99058 154.48 71.4006 161.72C72.9406 161.9 73.3506 161.92 75.0706 162.03L79.7706 161.82C113.461 157.9 152.081 134.85 160.691 98.3599L161.461 94.13" fill="#DE991F"/>
<path d="M161.401 94.06C170.501 27.54 96.7505 -26.53 33.3905 20.96C-25.8595 65.37 8.04053 153.52 71.0105 161.49C73.5505 161.81 76.2505 161.91 77.5605 161.96L82.3705 161.56C119.471 155.92 151.331 131.29 159.861 101.66L161.23 95.16C161.281 94.83 161.36 94.39 161.41 94.05" fill="#DF9A1F"/>
<path d="M161.301 93.98C171.661 22.5201 89.1206 -24.11 33.2906 21.66C-28.0794 71.98 15.6606 155.43 72.4106 161.43C75.3506 161.74 76.6806 161.75 80.2306 161.79L85.1406 161.19C98.2506 158.72 142.301 147.38 158.841 104.87L160.461 98.49C160.711 97.14 161.091 95.34 161.281 93.98" fill="#DF9A1F"/>
<path d="M161.151 93.89C170.541 22.95 89.7609 -22.91 34.0409 21.7299C-23.3191 67.6899 9.95092 153.64 71.6509 161.1C76.0009 161.63 79.5509 161.56 82.9909 161.5L87.9909 160.7C103.481 157.24 141.281 145.19 157.711 107.98L159.571 101.72C160.061 99.3799 160.841 96.2799 161.151 93.9099" fill="#DF9A1F"/>
<path d="M160.95 93.79C170.72 23.85 90.5604 -21.9 34.8204 21.79C-23.9896 67.89 9.31041 153.63 72.1604 160.85C76.4204 161.34 80.0804 161.27 85.1504 161.17L90.2204 160.22C111.87 154.81 140.92 141.88 156.42 110.96L158.51 104.82C159.34 101.53 160.49 97.15 160.96 93.79" fill="#E09A1F"/>
<path d="M160.721 93.69C170.421 24.0201 90.9308 -21.62 35.6408 21.88C-21.8292 67.09 11.4208 153.91 72.6708 160.6C76.8408 161.06 80.7107 161.04 87.2707 160.83L92.3908 159.73C121.191 151.81 142.181 136.51 154.801 114.26L155.861 111.8C157.501 107.13 159.741 100.74 160.721 93.7001" fill="#E09B1F"/>
<path d="M160.44 93.58C169.88 23.85 92.2705 -20.99 36.4905 21.96C-20.5395 65.88 10.0705 150.05 70.6705 159.97C77.2705 161.05 86.1105 160.57 89.4405 160.39L94.6005 159.15C120.73 151.3 140.33 137.35 152.85 117.69L155.531 111.88C157.291 106.85 159.48 100.6 160.43 93.58" fill="#E09B1F"/>
<path d="M160.121 93.46C169.101 25.57 92.3612 -19.23 37.5712 21.91C-20.5588 65.56 9.66119 149.56 70.9112 159.6C74.5112 160.19 84.4612 161.01 92.1912 159.77L97.4012 158.35C106.131 155.45 132.691 146.63 150.641 121.14L153.601 115.5C155.141 112.04 158.741 103.93 160.131 93.46" fill="#E19B1F"/>
<path d="M159.771 93.34C169.601 26.5 92.4108 -18.75 38.3008 22.15C-19.3492 65.73 10.4808 149.33 71.1508 159.22C79.1008 160.52 87.1508 160.45 95.0908 159.02L100.341 157.41C108.071 154.59 131.581 146 148.151 124.59L151.381 119.14C154.451 112.9 157.941 105.82 159.771 93.35" fill="#E19B1F"/>
<path d="M159.531 93.27C168.001 31.56 99.8309 -19.7 39.1809 22.25C-15.4291 60.02 5.2809 148.18 71.3109 158.96C77.4909 159.97 85.4909 160.66 98.0209 158.17L103.291 156.38C110.861 153.36 130.971 145.34 146.281 126.93L149.661 121.6C152.471 116.31 157.711 106.47 159.531 93.27Z" fill="#E19B1F"/>
<path d="M159.291 93.19C167.631 31.66 100.001 -19.48 39.9112 22.32C-18.4688 62.94 11.2212 148.83 71.4712 158.67C81.3312 160.28 91.5312 159.69 101.761 156.92L107.041 154.91C121.091 148.7 131.651 142.55 144.031 129.51L145.771 127.22C150.531 119.82 157.051 109.69 159.281 93.1799" fill="#E29C1F"/>
<path d="M159.041 93.12C167.771 27.87 94.7509 -15.74 40.6609 22.41C-18.4491 64.1 10.6609 148.41 71.631 158.38C87.561 160.98 99.631 157.24 106.841 155L112.101 152.69C118.841 149.3 130.121 143.62 141.331 132.38L145.251 127.52C150.131 120.02 156.811 109.75 159.041 93.12Z" fill="#E29C1F"/>
<path d="M158.771 93.0401C166.591 33.8101 98.9006 -17.5399 41.4206 22.5001C-18.1494 63.9901 10.6306 148.07 71.7906 158.07C89.4506 160.96 103.781 155.76 111.471 152.97L116.681 150.39C124.511 145.99 129.861 142.78 138.171 135.39L142.331 130.75C145.731 126.45 156.091 113.35 158.771 93.0301" fill="#E29C1F"/>
<path d="M158.5 92.9599C166.84 28.9099 95.1104 -14.5001 42.2104 22.5899C-16.8996 64.0299 11.4004 147.84 71.9604 157.75C90.5404 160.79 105.81 154.85 114.93 151.3L120.08 148.52C126.82 144.4 128.44 143.29 134.51 138.58L138.9 134.2C143.9 128.47 155.62 115.04 158.5 92.9599Z" fill="#E39C1F"/>
<path d="M158.21 92.88C166.26 30.15 95.4104 -13.28 43.3504 22.47C-16.7196 63.72 11.0704 147.42 72.1204 157.42C108.16 163.32 152.38 138.27 158.21 92.88Z" fill="#E39C1F"/>
<path d="M157.9 92.7901C165.83 30.0301 95.4603 -13.1599 43.8103 22.7801C-15.3397 63.9401 12.1103 147.21 72.2803 157.08C108.19 162.97 152.19 138.02 157.9 92.8" fill="#E39D20"/>
<path d="M157.591 92.71C165.321 30.56 95.6606 -12.51 44.6506 22.88C-14.4594 63.9 12.5506 146.89 72.4506 156.72C108.221 162.59 151.991 137.74 157.591 92.71Z" fill="#E39D20"/>
<path d="M157.261 92.62C165.181 27.86 91.1806 -14.0901 40.8206 26.6099C-19.4194 75.2999 23.4206 153.7 78.6106 157.02C118.011 159.39 152.561 131.11 157.261 92.62Z" fill="#E49D20"/>
<path d="M156.92 92.53C164.54 29.14 91.2904 -12.72 41.6704 26.66C-13.0296 70.07 14.5804 146.4 72.7904 155.96C108.28 161.79 151.56 137.17 156.92 92.53Z" fill="#E49D20"/>
<path d="M156.561 92.4401C164.071 28.8101 92.6607 -12.3399 42.5307 26.7201C-11.5493 68.8601 15.8607 146.18 72.9607 155.57C108.301 161.38 151.321 136.88 156.571 92.4401" fill="#E49E20"/>
<path d="M156.201 92.3499C163.541 28.8999 92.2408 -11.6801 42.3308 27.5399C-10.8192 69.2999 16.7108 145.88 73.1308 155.17C108.311 160.96 151.081 136.58 156.201 92.3499Z" fill="#E59E20"/>
<path d="M155.821 92.26C163.101 28.2 91.4608 -11.49 41.4108 28.88C-9.77915 70.16 18.1708 145.68 73.3008 154.75C108.321 160.51 150.821 136.27 155.821 92.26Z" fill="#E59E20"/>
<path d="M155.43 92.16C162.53 29.0601 89.5005 -10.2999 40.5205 30.2301C-12.3995 74.0201 22.5405 152.75 80.5405 155.02C122.81 156.68 151.81 124.36 155.43 92.16Z" fill="#E59E20"/>
<path d="M155.03 92.0601C161.86 30.6601 93.5504 -8.95994 44.2804 27.8301C-9.19963 67.7601 17.7504 144.66 73.6504 153.87C108.25 159.57 150.18 135.59 155.03 92.0601Z" fill="#E69E20"/>
<path d="M154.621 91.96C161.691 35.83 96.401 -11.13 43.411 29.17C-4.739 65.79 14.311 143.59 73.841 153.42C108.401 159.13 149.111 135.79 154.631 91.96" fill="#E69F20"/>
<path d="M154.26 91.88C160.8 34.79 96.3604 -10.91 42.8004 30.36C-8.59959 69.95 19.8904 145.72 74.5004 153.01C114.02 158.29 149.8 130.87 154.27 91.89" fill="#E69F20"/>
<path d="M153.911 91.7999C160.321 35.11 94.3111 -10.2 41.6911 31.93C-4.08888 68.59 15.9311 143.01 74.1511 152.57C112.941 158.94 149.471 131.11 153.911 91.79" fill="#E79F20"/>
<path d="M153.551 91.71C159.881 34.96 93.5811 -9.46001 40.8611 33.34C0.881144 65.8 14.1512 142.29 74.2912 152.18C112.231 158.42 149.261 130.16 153.551 91.71Z" fill="#E79F20"/>
<path d="M153.19 91.63C158.93 39.37 96.4902 -12.29 40.0602 34.79C-1.41976 69.4 18.6903 150.39 82.5403 152.61C113.18 153.68 148.9 130.66 153.19 91.63Z" fill="#E7A020"/>
<path d="M152.821 91.55C158.471 39.39 95.7607 -11.36 39.2707 36.26C-1.3793 70.53 19.5707 150.28 82.8407 152.22C113.231 153.15 148.631 130.22 152.821 91.55Z" fill="#E8A020"/>
<path d="M152.44 91.46C158.65 33.28 90.9703 -9.68002 39.3503 36.93C-2.95971 75.13 25.6903 150.29 83.1403 151.81C113.28 152.61 148.35 129.76 152.43 91.47" fill="#E8A020"/>
<path d="M152.05 91.37C157.94 35.28 89.7603 -7.78996 40.0503 37.01C-2.39968 75.27 25.9903 150.1 83.4403 151.39C113.33 152.06 148.06 129.3 152.04 91.37" fill="#E8A020"/>
<path d="M151.66 91.28C157.46 35.25 89.9404 -7.70004 40.7704 37.1C-2.42961 76.47 25.2904 149.89 83.7604 150.96C113.39 151.5 147.78 128.84 151.66 91.28Z" fill="#E8A020"/>
<path d="M151.261 91.2C156.921 35.56 90.0707 -7.21003 41.4907 37.2C-1.63928 76.62 25.8207 149.71 84.0607 150.54C113.431 150.96 147.471 128.39 151.261 91.2Z" fill="#E9A120"/>
<path d="M150.851 91.1099C156.321 36.4999 90.1411 -5.99005 42.2111 37.29C-0.338881 75.72 27.2411 149.52 84.3611 150.1C113.471 150.39 147.161 127.92 150.851 91.1099Z" fill="#E9A120"/>
<path d="M150.431 91.01C155.761 36.81 90.2706 -5.48997 42.9406 37.38C-0.679405 76.9 26.2206 149.29 84.6606 149.65C118.281 149.85 147.171 124.1 150.431 91.01Z" fill="#E9A121"/>
<path d="M150.011 90.92C155.661 32.5 87.101 -1.95998 43.691 37.48C0.160967 77.04 26.771 149.08 84.971 149.2C118.281 149.27 146.851 123.67 150.011 90.93" fill="#EAA121"/>
<path d="M149.581 90.8299C155.081 32.8699 87.2808 -1.47005 44.4408 37.58C1.00078 77.17 27.3308 148.85 85.2708 148.74C117.711 148.67 146.561 122.7 149.581 90.8299Z" fill="#EAA121"/>
<path d="M149.14 90.74C154.44 33.87 87.4105 -0.340046 45.1905 37.68C2.35048 76.27 28.7605 148.61 85.5605 148.27C121.54 148.05 146.57 118.24 149.13 90.74" fill="#EAA221"/>
<path d="M148.701 90.64C153.841 34.47 87.5806 0.379969 45.9606 37.78C-0.299377 79.34 33.6006 148.32 85.8706 147.79C121.481 147.43 146.211 117.84 148.701 90.64Z" fill="#EBA221"/>
<path d="M148.25 90.55C153.28 35.03 87.8103 1.07007 46.7303 37.8901C0.48028 79.3401 34.0503 147.94 86.1703 147.32C117.6 146.95 145.45 121.48 148.25 90.5601" fill="#EBA221"/>
<path d="M147.79 90.45C152.59 37.02 86.9804 2.7 47.5104 37.99C1.31041 79.29 34.5504 147.5 86.4704 146.82C121.26 146.36 145.39 117.2 147.79 90.45Z" fill="#EBA221"/>
<path d="M147.331 90.35C152.121 36.6 88.2608 2.90002 48.3008 38.09C1.56078 79.25 34.5508 147.07 86.7708 146.32C121.141 145.83 144.961 116.88 147.331 90.35Z" fill="#ECA321"/>
<path d="M146.861 90.2501C151.721 38.2901 87.7606 4.23008 49.0906 38.2001C2.4106 79.2001 35.0506 146.62 87.0706 145.82C117.221 145.35 144.041 120.43 146.861 90.2501Z" fill="#ECA321"/>
<path d="M146.38 90.15C147.04 83.69 148.58 50.49 113.46 31.62C88.2003 18.05 61.0603 28.52 49.8903 38.31C3.28032 79.14 35.5703 146.17 87.3703 145.31C117.34 144.81 143.26 120.58 146.39 90.16" fill="#ECA321"/>
<path d="M145.911 90.06C149.781 43.54 94.6309 5.28996 51.0109 38.19C10.8109 68.51 27.3009 135.82 76.9609 144.09C109.641 149.54 143.151 123.28 145.911 90.06Z" fill="#EDA321"/>
<path d="M145.431 89.9599C149.931 34.75 84.5609 8.28995 50.4909 39.4299C0.990906 84.67 40.7009 146.05 87.9609 144.28C121.271 143.03 143.341 115.68 145.441 89.97" fill="#EDA321"/>
<path d="M144.941 89.86C149.281 35.51 83.9008 9.89005 49.9408 40.74C5.09081 81.49 37.6808 145.81 88.2408 143.74C121.141 142.4 142.911 115.29 144.941 89.8501" fill="#EDA421"/>
<path d="M144.451 89.7601C148.751 34.8501 83.3407 10.2901 49.4107 42.0801C6.47066 82.3101 39.3507 145.43 88.5307 143.22C121.031 141.76 142.481 114.89 144.451 89.7601Z" fill="#EDA421"/>
<path d="M143.961 89.66C147.901 38.32 85.7106 8.07998 48.9006 43.43C7.57056 83.12 40.7606 145.03 88.8306 142.68C120.921 141.11 142.061 114.49 143.961 89.66Z" fill="#EEA421"/>
<path d="M143.461 89.56C147.301 38.39 85.1106 9.09996 48.3906 44.8C8.1006 83.97 41.6906 144.65 89.1106 142.13C121.981 140.38 141.641 113.74 143.451 89.56" fill="#EEA421"/>
<path d="M142.951 89.4501C146.331 43.3501 93.1409 8.39006 51.5109 43.0601C15.6509 72.9201 31.9109 133.3 77.8609 140.95C112.521 146.72 140.811 118.52 142.941 89.4601" fill="#EEA521"/>
<path d="M142.43 89.35C145.92 40.67 89.5903 11.76 52.4603 43.19C16.4403 73.68 31.9703 132.73 78.0103 140.4C112.37 146.12 140.36 118.17 142.43 89.35Z" fill="#EFA521"/>
<path d="M141.911 89.2499C144.901 46.6499 93.791 7.62992 48.751 47.3699C19.261 73.3899 31.641 132.11 78.171 139.86C112.231 145.53 139.911 117.82 141.911 89.2499Z" fill="#EFA521"/>
<path d="M139.391 69.93C127.451 26.8 68.0808 17.2 43.1408 54.37C16.2208 94.48 49.7308 153.32 103.771 137.29C130.961 129.22 147.271 98.38 139.391 69.93Z" fill="#EFA521"/>
<path d="M138.791 69.8099C134.531 54.4899 119.401 36.2899 96.2506 32.5499C69.3706 28.1999 50.2206 44.9799 43.8606 54.4599C17.3106 93.9999 49.9806 147.33 95.2606 138.38C135.741 130.38 145.161 92.7299 138.791 69.8099Z" fill="#F0A522"/>
<path d="M138.191 69.7001C135.211 58.9401 122.601 37.4701 96.201 33.2001C68.571 28.7301 49.571 47.1001 44.581 54.5601C19.111 92.6201 46.341 142.18 90.831 138.73C117.361 136.67 149.001 108.75 138.191 69.7001Z" fill="#F0A622"/>
<path d="M137.581 69.58C127.341 32.46 73.2309 17.92 45.3209 54.66C33.4209 70.33 33.1409 95.86 40.3409 108.98C56.5709 138.56 83.3109 138.78 91.1209 138.14C117.191 136.01 148.251 108.24 137.591 69.58" fill="#F0A622"/>
<path d="M136.961 69.46C121.981 25.58 61.3108 21.76 41.5008 63.45C18.1908 112.5 71.7408 150.05 105.531 134.39C146.091 115.59 139.851 79.94 136.971 69.45" fill="#F1A622"/>
<path d="M136.821 71.6601C136.761 71.3601 129.831 41.4701 96.0511 35.1601C91.2311 34.2601 66.2411 30.9901 46.9511 54.8801C21.9511 85.8601 44.9011 140.96 91.6711 136.94C103.041 135.96 146.801 121.27 136.821 71.6601Z" fill="#F1A622"/>
<path d="M136.73 74.4501C129.53 36.5101 76.9104 19 47.7804 55C22.2305 86.57 44.3405 140.5 91.9505 136.33C110.73 134.69 144.29 114.25 136.73 74.44" fill="#F1A622"/>
<path d="M136.58 77.25C129.68 34.35 76.2504 20.9 48.6204 55.1099C23.3104 86.45 45.1304 139.9 92.2304 135.71C110.13 134.12 142.61 114.77 136.58 77.24" fill="#F2A722"/>
<path d="M136.351 80.08C129.621 33.17 75.1908 23.93 49.5308 55.16C23.9208 86.33 45.3108 139.36 92.5008 135.1C113.331 133.22 140.761 110.85 136.351 80.08Z" fill="#F2A722"/>
<path d="M136.061 82.93C130.681 34.84 75.9812 23.88 50.3012 55.35C25.1012 86.25 46.2612 138.74 92.7812 134.47C112.111 132.7 139.231 111.24 136.061 82.92" fill="#F2A722"/>
<path d="M135.691 85.8C130.701 33.01 74.7209 26.57 51.1509 55.47C26.1509 86.12 47.0009 138.11 93.0509 133.84C113.671 131.93 137.881 108.92 135.691 85.79" fill="#F2A722"/>
<path d="M131.831 68.5C115.101 26.72 55.9209 29.54 42.6509 72.75C31.7009 108.39 69.5009 147.43 108.961 128.04C117.211 123.99 145.251 102.01 131.831 68.5Z" fill="#F3A822"/>
<path d="M131.071 68.36C114.661 27.69 56.5209 30.66 43.4509 72.84C37.5109 92.01 46.6809 111.71 53.4809 117.35C65.3009 127.16 81.5009 140.59 109.021 127.24C116.621 123.55 144.431 101.48 131.071 68.36Z" fill="#F3A822"/>
<path d="M130.291 68.22C115.481 31.78 58.0908 28.65 44.2508 72.93C33.1908 108.32 70.5708 146.07 109.891 126.13C115.881 123.09 143.541 100.81 130.291 68.22Z" fill="#F3A822"/>
<path d="M129.511 68.07C115.001 32.63 58.6805 29.81 45.0605 73.01C33.9405 108.27 71.1005 145.37 110.35 125.16C110.7 124.98 144.041 103.55 129.511 68.07Z" fill="#F4A822"/>
<path d="M128.73 67.93C124.11 56.73 110.16 47.01 110.03 46.94C98.6903 41.01 91.0703 41.49 79.5303 42.21C79.2903 42.23 53.9303 47.77 45.8703 73.1C41.3003 87.45 44.2303 94.65 50.6403 110.43C51.4003 112.3 51.9003 113.54 67.1703 125.55C67.3303 125.68 84.7103 137.81 110.79 124.17C119.46 119.64 140.7 96.99 128.71 67.92" fill="#F4A822"/>
<path d="M127.931 67.78C124.061 58.47 110.151 47.82 110.031 47.75C98.3006 41.78 92.3606 42.18 79.3506 43.04C79.2606 43.04 66.8106 46.57 56.4206 56.16C55.5706 56.94 47.2106 71.5699 46.7006 73.1799C42.2106 87.1499 44.7606 93.5199 51.5506 110.55C52.6606 113.34 65.7606 123.54 67.2506 124.69C67.4206 124.82 84.6906 137.23 111.251 123.17C119.591 118.76 139.881 96.5499 127.931 67.7699" fill="#F4A922"/>
<path d="M127.131 67.64C123.681 59.38 110.141 48.79 110.031 48.74C97.7409 42.69 95.2709 42.86 79.1509 44C79.0609 44 66.1609 48.11 57.2609 56.34C56.4609 57.08 47.9909 71.8 47.5209 73.28C43.1209 86.87 45.2109 92.21 52.1209 109.88C53.4009 113.14 67.1809 123.75 67.3209 123.85C67.4909 123.98 84.6709 136.67 111.691 122.18C118.581 118.49 139.141 96.39 127.131 67.63" fill="#F5A922"/>
<path d="M126.321 67.4899C123.711 61.2399 110.131 49.7699 110.021 49.7099C101.428 45.6233 91.0709 44.0366 78.951 44.95C78.861 44.95 63.4309 51.57 58.1609 56.47C57.3509 57.22 48.8309 71.9099 48.3509 73.3699C44.0209 86.6299 47.3009 95.1899 50.7809 104.25C53.9109 112.41 54.171 113.08 67.391 122.99C68.101 123.52 85.0809 135.85 112.131 121.18C118.451 117.75 138.081 95.6 126.331 67.5" fill="#F5A922"/>
<path d="M125.51 67.35C123.74 63.13 110.11 50.76 110.01 50.71C100.87 46.5233 90.4505 44.9267 78.7505 45.92C78.6605 45.92 61.5005 54.31 59.0605 56.6C58.2405 57.37 49.3905 72.53 48.9805 73.86C38.2505 108.83 74.2505 142.49 112.21 120.33C112.32 120.27 123.4 112.63 126.86 98.87C129.24 89.38 131.3 81.18 125.51 67.35Z" fill="#F5A922"/>
<path d="M124.681 67.2C123.831 65.16 110.081 51.7499 109.981 51.7099C100.361 47.4766 89.8807 45.8733 78.5407 46.8999C78.2007 46.9299 60.3307 56.38 59.9807 56.72C59.1507 57.5 50.2007 72.6699 49.8007 73.9899C38.5707 110.33 77.4606 139.65 110.981 120.12C118.681 115.63 136.231 94.7599 124.681 67.2099" fill="#F6A922"/>
<path d="M123.98 67.45C123.53 66.2 110.07 52.7499 109.96 52.7099C100.08 48.4699 89.5436 46.8599 78.3502 47.8799C78.1502 47.8999 57.2703 53.0499 50.6403 74.0999C46.6703 86.6999 49.4302 94.2099 53.2402 104.61C54.8002 108.85 56.1402 111.48 67.6202 120.37C67.8002 120.51 87.2102 133.08 109.74 119.89C110.86 119.24 136.98 103.44 123.98 67.45Z" fill="#F6AA23"/>
<path d="M123.871 69.74C119.641 57.42 99.711 47.38 94.871 47.68C82.351 48.4533 71.5811 51.6 62.5611 57.12C59.2811 59.12 51.9111 72.83 51.4811 74.22C44.8111 95.61 56.5011 110.53 67.4811 119.28C70.3911 121.6 89.2111 130.98 108.501 119.67C109.611 119.02 135.451 103.4 123.881 69.74" fill="#F6AA23"/>
<path d="M123.721 72.05C117.361 53.17 94.9706 48.61 94.7606 48.62C84.4006 48.95 60.1306 49.73 52.3106 74.34C51.4006 77.21 48.7406 87.46 52.7706 98.99C56.3406 109.18 61.1406 113.13 67.7806 118.59C69.9006 120.33 89.2206 129.94 107.211 119.45C119.731 112.15 131.571 95.35 123.721 72.06" fill="#F7AA23"/>
<path d="M123.541 74.3801C116.661 52.5701 94.8708 49.5601 94.6608 49.5601C78.4108 49.5801 77.9108 49.8801 65.2008 57.5001C62.9508 58.8501 54.3908 70.5501 53.1608 74.4501C52.8008 75.5801 51.3708 92.4801 51.5708 93.0901C56.7208 108.22 62.1408 112.81 67.8708 117.68C70.8008 120.16 90.0508 128.49 105.931 119.22C125.701 107.68 127.991 88.4901 123.541 74.3801Z" fill="#F7AA23"/>
<path d="M123.321 76.7299C120.281 66.7499 118.941 65.0999 109.811 56.7899C109.691 56.6799 94.7107 50.5299 94.5507 50.5199C79.4307 50.0499 77.4607 51.2199 66.5307 57.7099C64.3607 58.9999 55.2707 70.5299 54.0007 74.5899C53.6507 75.7099 52.2307 92.4299 52.4207 93.2299C53.9607 99.8699 62.6707 112.17 62.7407 112.23C77.4307 125.12 94.7507 124.77 104.631 119C129.491 104.47 125.221 82.9799 123.321 76.7299Z" fill="#F7AB23"/>
<path d="M123.061 79.09C119.601 67.32 119.231 66.96 109.761 57.82C109.651 57.71 94.6208 51.49 94.4408 51.48C80.3708 50.57 76.1908 53.03 67.8708 57.91C67.0108 58.41 56.2508 70.3 54.8508 74.71C54.5308 75.73 53.1008 92.63 53.2708 93.35C54.2208 97.22 64.0408 112.37 64.1208 112.44C75.6408 122.91 94.0208 124.19 103.311 118.78C103.441 118.71 117.431 108.63 119.691 104.09C120.811 101.83 126.261 90.01 123.061 79.1" fill="#F7AB23"/>
<path d="M122.761 81.47C119.281 68.63 115.281 64.54 112.061 61.26C106.561 55.64 94.4311 52.45 94.3311 52.44C94.2011 52.42 77.3411 53.86 77.1511 53.9C74.5211 54.49 71.5911 56.81 69.2211 58.1C68.6911 58.39 57.8411 71.28 56.7411 72.93C53.9811 77.08 54.1111 93.34 54.1411 93.46C54.2411 93.93 64.9811 112.03 65.5111 112.64C65.6211 112.76 77.9011 124.49 98.2511 120.05C104.211 118.75 117.751 105.75 118.901 103.93C118.971 103.82 124.951 89.56 122.761 81.46" fill="#F8AB23"/>
<path d="M122.431 83.87C121.801 81.44 115.661 66.16 115.051 65.51C105.501 55.2 94.3309 53.44 94.2209 53.42C94.1009 53.4 81.7009 51.95 70.5909 58.32C69.8809 58.73 56.9809 74.13 56.6509 74.97C56.3709 75.68 55.1909 92.97 55.3809 93.65C55.4909 94.05 66.6109 112.54 66.9309 112.86C72.8809 118.72 93.0209 122.77 100.671 118.31C102.141 117.45 117.611 104.56 118.101 103.79C118.171 103.68 123.461 87.76 122.451 83.87" fill="#F8AB23"/>
<path d="M113.751 65.2801C108.991 58.3101 95.6212 54.7701 94.1112 54.3901C94.0512 54.3701 77.0212 55.9201 76.7612 55.9701C70.1312 57.1401 57.9512 74.9701 57.8812 75.1401C57.6312 75.7601 56.4512 93.2301 56.6212 93.8301C56.7212 94.2001 67.9912 112.72 68.3312 113.07L83.2812 119.01C83.3912 119.03 98.5812 118.5 99.3012 118.08C100.681 117.28 115.501 105.09 116.921 103.58C118.251 102.18 118.331 99.2901 118.841 97.4301C119.811 93.8701 122.401 89.1401 121.831 85.4901C121.521 83.5601 114.881 66.9401 113.751 65.2801Z" fill="#F8AB23"/>
<path d="M112.431 65.0501C108.701 59.6101 94.1212 55.4001 93.9812 55.3701C93.9012 55.3501 76.8112 56.9601 76.5612 57.0101C71.6012 57.9701 59.1912 75.1601 59.1312 75.3201C58.8912 75.9201 57.7212 93.3901 57.8812 94.0101C57.9412 94.2601 68.2612 111.28 68.5012 111.52C74.1112 117.33 91.6412 120.42 99.2612 116.93C100.041 116.57 115.151 104.15 115.761 103.36C118.141 100.27 118.431 94.6501 119.391 90.8701C119.811 89.2001 121.131 86.9301 120.681 85.2701C119.871 82.2401 113.481 66.5501 112.441 65.0401" fill="#F9AC23"/>
<path d="M111.11 64.83C108.57 61.14 93.9903 56.3901 93.8603 56.3701C93.7703 56.3501 76.6003 58.0201 76.3603 58.0701C73.6303 58.6401 60.4403 75.36 60.3803 75.52C60.1503 76.1 58.9903 93.57 59.1403 94.21C59.1903 94.44 68.4403 109.75 68.6603 109.96C74.8703 116.26 89.7802 120.02 99.7202 115.43C100.36 115.13 114.24 103.67 114.57 103.17C114.58 103.15 117.02 96.15 119.51 85.08C119.66 84.4 112.21 66.42 111.12 64.83" fill="#F9AC23"/>
<path d="M109.77 64.6001C109.11 63.6401 93.8603 57.38 93.7303 57.36C93.6203 57.34 76.3803 59.07 76.1603 59.12C75.7603 59.21 61.9203 75.0201 61.6403 75.7001C61.4103 76.2601 60.2703 93.7301 60.4103 94.3901C60.4403 94.5201 68.7003 108.24 68.8303 108.37C70.2703 109.8 81.5903 116.02 83.8303 116.42C85.7603 116.76 98.1303 114.85 100.17 113.9C100.67 113.67 113.13 103.33 113.36 102.95C113.67 102.46 117.15 90.83 118.31 84.86C118.44 84.17 110.86 66.17 109.76 64.59" fill="#F9AC23"/>
<path d="M109.201 65.85C107.291 63.53 93.731 58.38 93.621 58.36L79.841 59.73C78.591 60 76.731 60.21 75.811 61.09C74.351 62.49 63.161 75.33 62.941 75.86C62.721 76.39 61.571 93.88 61.711 94.58C61.731 94.7 68.911 106.66 69.021 106.77L84.021 115.54C84.091 115.55 100.541 112.39 100.631 112.35C101.011 112.17 112.001 103.01 112.171 102.74C112.771 101.74 116.481 88.21 117.141 84.65C117.261 84.02 109.991 66.8 109.211 65.84" fill="#FAAC23"/>
<path d="M109.01 67.9C105.48 63.55 93.6004 59.4 93.4904 59.36C90.6704 58.52 86.6204 59.8 83.7304 60.33C81.1504 60.8 77.4904 61.48 75.4504 63.12C74.8704 63.59 64.3704 75.69 64.2104 76.07C64.0404 76.5 62.9004 94.15 63.0104 94.77C63.6304 98.35 66.5704 102.66 69.2204 105.15L84.3404 114.09C84.4104 114.1 100.99 110.83 101.08 110.79C101.35 110.66 110.85 102.71 110.95 102.52C111.56 101.43 115.29 87.91 115.93 84.43C116.02 83.94 109.62 68.64 109.01 67.89" fill="#FAAD23"/>
<path d="M108.801 69.9799C107.421 68.2599 103.581 64.7399 93.361 60.3799C91.771 59.6999 89.3411 60.7099 87.6311 60.9599C83.7711 61.5199 78.5211 62.8899 75.3211 65.1099C74.6311 65.5899 65.721 75.7099 65.491 76.2699C65.331 76.6699 64.211 94.3199 64.301 94.9699C64.721 97.9299 67.191 101.51 69.401 103.53L84.6311 112.63C84.7011 112.64 101.411 109.26 101.501 109.21C104.401 107.81 108.211 105.15 109.711 102.31C110.351 101.1 114.091 87.58 114.711 84.2299C114.781 83.8599 109.251 70.5399 108.801 69.9699" fill="#FAAD23"/>
<path d="M108.571 72.07C108.481 71.96 96.9707 61 91.4907 61.58C91.3207 61.6 74.8607 67.19 74.7207 67.28C71.6007 69.16 68.1707 73.11 66.7907 76.48C66.6207 76.89 65.5207 94.37 65.6107 95.18C65.8707 97.51 67.8507 100.34 69.6007 101.9L84.9307 111.17C85.0007 111.18 101.831 107.68 101.931 107.64C109.701 103.85 111.121 96.72 113.491 84.04C114.201 80.23 110.971 75.13 108.571 72.09" fill="#FBAD23"/>
<path d="M108.321 74.17C108.021 73.79 93.3011 62.98 93.0211 62.94C92.9211 62.93 74.8111 69.16 74.5711 69.29C71.9911 70.71 69.6411 74.16 68.0911 76.66C67.9611 76.86 66.8711 94.5199 66.9311 95.3699C67.0511 97.0599 68.6211 99.0299 69.8111 100.24L85.2411 109.67C85.3411 109.69 102.131 106.11 102.351 106.02C104.111 105.34 106.381 103.67 107.151 101.95C108.021 99.99 112.311 84.7399 112.251 83.8099C112.041 80.6999 110.241 76.64 108.321 74.17Z" fill="#FBAD23"/>
<path d="M108.05 76.2901C107.75 75.9001 93.0304 64.95 92.7604 64.91C92.6704 64.9 74.2704 71.35 74.0104 71.49C72.1204 72.46 70.5904 75.1 69.4104 76.86C69.2904 77.04 68.2304 94.35 68.2604 95.57C68.2904 96.6101 69.3004 97.82 70.0304 98.57L85.5504 108.16C85.6804 108.18 102.42 104.52 102.77 104.39C103.95 103.96 105.5 102.84 105.97 101.67C106.87 99.3901 111.07 84.36 111.02 83.59C110.86 81.23 109.51 78.1601 108.07 76.2901" fill="#FBAD23"/>
<path d="M107.761 78.4299C107.391 77.9399 92.8306 66.9499 92.4806 66.8999C92.3506 66.8799 74.2306 73.36 73.6506 73.63C72.4206 74.2 71.5206 75.98 70.7106 77.07C70.6206 77.19 68.6106 95.2399 70.2306 96.8999L85.8306 106.65C85.9406 106.67 102.771 102.89 103.151 102.76C106.401 101.65 109.751 83.55 109.741 83.38C109.631 81.78 108.721 79.7099 107.751 78.4299" fill="#FCAE23"/>
<path d="M107.451 80.5799C107.081 80.0899 92.5507 68.96 92.2107 68.91C92.0807 68.89 74.5907 75.25 73.3107 75.79C72.7707 76.01 72.4007 76.8099 72.0507 77.2699C71.1407 78.4899 71.0007 94.71 71.8907 96.13L86.1507 105.11C86.2407 105.13 103.121 101.25 103.191 101.2C104.121 100.46 108.461 83.33 108.491 83.16C108.661 82.34 107.961 81.2499 107.461 80.5799" fill="#FCAE23"/>
<path d="M107.121 82.74C106.751 82.24 92.2908 71 91.9408 70.95C91.8208 70.93 73.9808 77.48 73.9308 77.56C73.8808 77.64 75.5108 96.6 75.5708 96.71C77.5808 99.97 82.5708 102.9 86.3508 103.51C86.5708 103.55 99.3408 100.69 99.4908 100.58C99.6208 100.48 107.681 83.52 107.111 82.74" fill="#FCAE24"/>
<path d="M91.6105 72.96L77.6105 78.13C77.5605 78.21 79.2605 97.19 79.3205 97.3C80.6905 99.54 84.1305 101.55 86.7205 102C89.4505 102.48 93.5705 101.68 95.7305 99.95C96.0205 99.72 103.8 82.62 103.74 82.36C103.7 82.21 91.7905 72.99 91.6005 72.97" fill="#FCAE24"/>
<path d="M91.3108 75.02C88.1508 74.56 83.0408 76.02 81.3408 78.72L83.0708 97.9C83.8008 99.11 85.6408 100.2 87.0308 100.44C88.5108 100.7 90.7408 100.27 91.9208 99.33C92.2108 99.1 100.101 82.01 100.031 81.75C99.2209 78.55 94.5708 75.51 91.3108 75.03" fill="#FDAE24"/>
<path d="M90.9903 77.09C89.1103 76.82 86.0703 77.7 85.0703 79.31L86.7603 98.49C86.8603 98.66 87.1203 98.82 87.3203 98.85C87.5303 98.89 87.8503 98.83 88.0203 98.69C88.2203 98.53 96.2803 81.29 96.2303 81.11C95.7503 79.21 92.9903 77.44 91.0503 77.14C91.0203 77.14 91.0103 77.09 90.9803 77.09" fill="#FDAF24"/>
<path d="M90.6711 79.1701C90.0611 79.0801 89.0811 79.3701 88.7611 79.8901C87.6211 81.7201 89.2211 84.9 89.4011 87.05C90.3011 85.08 92.9311 82.5801 92.3911 80.4801C92.2311 79.8501 91.3111 79.2601 90.6711 79.1701Z" fill="#FDAF24"/>
</g>
<mask id="mask1_627_8496" style="mask-type:luminance" maskUnits="userSpaceOnUse" x="0" y="68" width="162" height="95">
<path d="M161.49 94.2299C160.79 97.65 159.93 102.27 158.63 105.51C157.99 107.11 157.25 109.31 156.47 110.85C154.91 113.93 152.71 117.99 150.83 120.88C148.95 123.77 146.05 127.49 143.62 129.98C142.39 131.24 140.82 132.99 139.51 134.16C136.87 136.52 133.34 139.66 130.48 141.74C126.93 144.32 122.56 147.38 115.47 151.03C110.59 153.55 104.69 156.02 99.6903 157.64C98.1303 158.14 96.0503 158.82 94.4503 159.21C91.4103 159.94 87.3503 160.93 84.2503 161.33C81.4003 161.7 77.5603 161.98 74.6803 162.05C72.8803 162.09 70.4803 161.89 68.6903 161.7C24.4303 154.72 -5.79971 113.19 1.17029 68.95C0.940289 70.93 0.470269 73.5499 0.400269 75.5399C0.260269 79.4299 0.000276446 84.6499 0.470276 88.5199C0.930276 92.2999 1.64027 97.3499 2.56027 101.05C3.47027 104.7 4.97027 109.52 6.53027 112.95C8.08027 116.35 10.2803 120.84 12.2303 124.02C14.1803 127.19 17.1103 131.23 19.5203 134.07C21.9303 136.91 25.4303 140.47 28.2403 142.91C31.0503 145.35 35.0103 148.47 38.2403 150.35C39.8703 151.3 41.9903 152.64 43.6703 153.48C46.1603 154.73 49.5103 156.34 52.1103 157.31C53.7303 157.91 56.7403 159.03 60.2903 159.97C65.3303 161.3 69.1303 161.82 69.1403 161.82C69.2103 161.82 69.3103 161.85 69.3803 161.86C69.5503 161.89 69.7103 161.91 69.8803 161.93C70.5603 162.03 72.1903 162.23 73.3403 162.35C75.5103 162.57 77.1803 162.64 77.1903 162.64C79.3603 162.71 82.2503 162.73 84.4203 162.69C86.7303 162.65 89.7903 162.25 92.0903 162.03C95.8303 161.67 100.73 160.45 104.34 159.39C111.15 157.38 121.42 153.26 131.73 145.08C134.65 142.76 138.22 139.27 140.86 136.63C142.19 135.31 143.71 133.31 144.93 131.89C147.39 129.03 150.06 124.72 151.97 121.46C153.9 118.15 156.1 113.5 157.36 109.89C158 108.05 158.89 105.6 159.38 103.72C160.12 100.9 160.95 97.0999 161.46 94.2399L161.49 94.2299Z" fill="white"/>
</mask>
<g mask="url(#mask1_627_8496)">
<path d="M161.49 94.2299C159.83 102.3 158.4 109.27 150.83 120.87C147.19 126.45 139.93 134.86 130.49 141.73C110.89 155.98 87.2199 163.62 68.6999 161.69C24.4399 154.71 -5.79016 113.18 1.17984 68.9399C0.46984 75.0099 -0.330142 81.8799 0.479858 88.5099C1.12986 93.8199 2.32986 103.69 6.53986 112.94C8.94986 118.23 12.2498 125.47 19.5298 134.06C28.4198 144.55 37.8498 150.11 38.2498 150.34C45.2498 154.42 61.6499 163.98 85.8199 162.62C107.02 161.42 122.5 152.42 131.76 145.07C143.76 135.55 149.75 125.31 152 121.46C158.69 110.02 160.73 98.5499 161.49 94.2299Z" fill="#DE991F"/>
<path d="M1.17954 68.9399C-4.37046 116.58 23.8595 145.82 52.1195 157.31L55.5495 158.54C56.9695 158.98 58.8695 159.57 60.3095 159.97L61.7695 160.34C62.2195 160.45 62.8096 160.59 63.2596 160.69L64.0595 160.87C64.2895 160.92 64.6095 160.99 64.8395 161.04L65.3595 161.15L65.8595 161.25L66.2395 161.32L66.6095 161.39L66.9196 161.45L67.2195 161.5L67.4796 161.55L67.7395 161.59L67.9796 161.63L68.2195 161.67L68.4496 161.71L68.6795 161.75L68.9196 161.79L69.1495 161.83L69.3896 161.87L69.6295 161.91L69.8896 161.95L70.1595 161.99L70.4595 162.03L70.7695 162.07L71.1396 162.12L71.5295 162.17L72.0396 162.23L72.5695 162.29L73.3495 162.37C73.5995 162.39 73.9196 162.43 74.1696 162.45L75.6295 162.57C76.0995 162.6 76.7296 162.64 77.1996 162.67L80.7896 162.78C82.2896 162.76 84.2995 162.73 85.7995 162.66L92.0995 162.06C100.25 160.63 100.41 160.6 104.67 159.32L98.7495 160.89C91.0195 162.29 83.0195 163.74 68.6795 161.73C24.4195 154.75 -5.81045 113.22 1.15955 68.9799" fill="#DE991F"/>
<path d="M161.49 94.23C150.64 147.06 94.5499 162.81 70.6299 161.88L71.0399 161.93C95.1499 164.6 115.83 158.41 134.26 143.01L138.82 138.78C152.01 124.52 157.73 113.28 161.49 94.24" fill="#DE991F"/>
<path d="M156.46 112.29C157.78 109.03 159.59 104.56 161.37 94.96L160.13 100.67C145.27 147.74 93.9095 162.49 72.7695 161.99L73.5595 162.06C115.33 165.99 145.3 139.89 156.47 112.28" fill="#DE991F"/>
<path d="M156.47 112.2C157.32 110.1 159.08 105.74 160.7 98.3599L159.16 103.96C141.63 150.66 91.3203 161.81 75.0703 162.03L76.2403 162.11C111.29 164.35 143.53 144.3 156.48 112.2" fill="#DE991F"/>
<path d="M159.85 101.67C144.3 148.3 93.9598 161.15 77.5498 161.97L79.0898 162.02C119.02 161.71 149.21 139.15 159.85 101.66" fill="#DF9A1F"/>
<path d="M158.849 104.87C140.259 152.25 90.0995 160.6 80.2295 161.79H81.9195C126.309 160.24 150.769 131.37 158.849 104.87Z" fill="#DF9A1F"/>
<path d="M157.699 107.97C138.759 149.89 95.7195 159.53 82.9795 161.49H83.6495C108.769 161.16 143.239 146.96 157.689 107.97" fill="#DF9A1F"/>
<path d="M156.419 110.97C137.439 148.06 100.259 158.44 85.1494 161.19L86.0794 161.17C133.579 156.65 151.099 124.56 156.419 110.97Z" fill="#E09A1F"/>
<path d="M87.2803 160.82C92.0203 160.66 134.23 157.99 154.8 114.25L151.91 119.23C133 146.48 106.32 156.89 87.2803 160.82Z" fill="#E09B1F"/>
<path d="M89.4395 160.4C102.449 158.44 132.929 153.87 152.849 117.7L149.679 122.52C134.639 141.94 114.369 154.68 89.4395 160.4Z" fill="#E09B1F"/>
<path d="M92.1895 159.77C102.069 158.04 132.149 152.78 150.639 121.14L147.189 125.8C141.739 132.13 125.139 151.39 92.1895 159.77Z" fill="#E19B1F"/>
<path d="M95.0898 159.02C109.88 156.09 131.47 149.34 148.14 124.59L144.43 129.07C139.22 134.53 123.35 151.14 95.0898 159.02Z" fill="#E19B1F"/>
<path d="M98.0195 158.16C125.22 152.31 139.93 136.08 146.28 126.92L142.39 131.27C137.01 136.53 122.71 150.5 98.0195 158.15" fill="#E19B1F"/>
<path d="M101.76 156.93C112.22 153.84 128.04 149.16 144.03 129.52L139.96 133.73C129.57 143.14 119.55 150.3 101.76 156.94" fill="#E29C1F"/>
<path d="M106.83 155C121.73 149.91 130.43 144.2 141.32 132.38L137.05 136.41C131.21 141.26 122.4 148.59 106.83 155Z" fill="#E29C1F"/>
<path d="M111.47 152.98C121.82 148.9 130.8 142.98 138.17 135.4L133.7 139.24C127.5 143.94 122.61 147.65 111.47 152.98Z" fill="#E29C1F"/>
<path d="M114.93 151.3C120.72 148.87 129.32 143.29 134.51 138.58L129.84 142.2C125.006 145.513 120.036 148.547 114.93 151.3Z" fill="#E39C1F"/>
</g>
<mask id="mask2_627_8496" style="mask-type:luminance" maskUnits="userSpaceOnUse" x="0" y="0" width="163" height="163">
<path d="M1.18062 68.9399C1.57062 66.9899 1.93064 64.3399 2.48064 62.4299C3.55064 58.6799 4.90064 53.6299 6.54064 50.0999C8.18063 46.5699 10.3806 42.0599 12.3906 38.8199C14.4006 35.5799 17.2906 31.4999 19.8306 28.7199C22.3706 25.9399 25.8206 22.3699 28.6606 19.9399C31.4906 17.5199 35.5206 14.5799 38.6906 12.6199C41.8606 10.6599 46.2806 8.34995 49.7106 6.88995C53.1506 5.41995 57.8606 3.68995 61.5106 2.88995C63.3506 2.48995 65.7806 1.86993 67.6406 1.57993C70.3906 1.15993 74.0806 0.649948 76.8606 0.539948C77.9506 0.489948 79.4106 0.429932 80.5006 0.429932C81.9906 0.429932 83.9806 0.449948 85.4606 0.539948C90.6606 0.819948 94.4306 1.49995 94.4506 1.50995C94.9906 1.59995 95.5206 1.68995 96.0606 1.78995C96.9106 1.95995 97.7606 2.11993 98.6106 2.29993C100.741 2.75993 102.351 3.19993 102.361 3.20993C104.441 3.80993 107.201 4.67994 109.251 5.37994C111.441 6.12994 114.231 7.44993 116.351 8.36993C119.801 9.85993 124.091 12.5299 127.191 14.6599C133.051 18.6699 141.561 25.7499 148.851 36.7099C150.921 39.8199 153.371 44.1699 154.941 47.5599C156.521 50.9699 158.161 55.7099 159.331 59.2799C160.681 63.3999 162.321 72.5099 162.411 78.0799C162.471 81.9999 162.301 87.24 161.921 91.14C161.631 94.05 160.931 97.9099 160.191 100.75C159.201 104.52 157.641 109.49 156.131 113.08C154.651 116.59 152.411 121.2 150.281 124.36C148.181 127.48 145.301 131.61 142.841 134.46C140.401 137.29 136.851 140.81 134.011 143.24C124.701 151.2 115.871 155.03 112.971 156.29C109.541 157.78 104.791 159.37 101.171 160.29C97.5206 161.22 92.5406 162.04 88.7906 162.43C88.2306 162.49 83.1806 162.98 77.2206 162.66C73.2106 162.44 69.2206 161.94 65.3606 161.17C60.6106 160.22 56.9006 159 56.8606 158.99C55.4306 158.51 53.5306 157.89 52.1306 157.34C50.3606 156.64 48.0106 155.71 46.3206 154.83C42.9806 153.1 38.5806 150.67 35.4806 148.54C32.4006 146.42 28.4506 143.35 25.8106 140.71C23.1706 138.08 19.7506 134.46 17.4606 131.53C15.1706 128.59 12.4006 124.44 10.5806 121.19C8.76061 117.92 6.63063 113.39 5.32063 109.88C4.01063 106.37 2.57062 101.5 1.84062 97.7899C1.11062 94.0799 0.430615 88.9499 0.270615 85.1199C0.110615 81.2899 0.390636 75.9599 0.760636 72.0599C1.02064 69.3799 1.65062 65.8199 2.37062 63.2299C3.29062 59.8899 4.81062 55.5099 6.21062 52.3499C7.61062 49.1899 9.93063 45.1899 11.8506 42.3199C13.7906 39.4299 16.7306 35.8099 19.0606 33.2199C21.3906 30.6299 24.8606 27.3899 27.5606 25.1199C30.2706 22.8399 34.0906 20.0299 37.0506 18.0799C44.2106 13.3699 50.4006 10.5799 52.4406 9.65994C54.0006 8.94994 56.1006 8.02993 57.7106 7.45993C60.8406 6.33993 65.0406 4.92995 68.2306 4.00995C71.2306 3.13995 75.3506 2.42995 78.4306 1.88995C79.8806 1.62995 81.8506 1.48995 83.3106 1.34995C84.7106 1.20995 86.5906 1.14995 88.0006 1.16995C89.8006 1.19995 92.2006 1.32993 93.9906 1.51993C49.7306 -5.46007 8.18064 24.7399 1.20064 68.9899L1.18062 68.9399Z" fill="white"/>
</mask>
<g mask="url(#mask2_627_8496)">
<path d="M1.18066 68.94C2.38066 62.95 3.73068 56.16 6.54068 50.1C8.79068 45.25 12.9707 36.22 19.8307 28.72C23.7507 24.43 29.1207 18.55 38.6907 12.62C50.3807 5.37997 61.0607 2.98999 61.5107 2.88999C69.4307 1.15999 87.9706 -2.89002 110.551 5.84998C130.351 13.51 142.311 26.85 148.861 36.69C161.111 55.11 162.331 73.01 162.411 78.06C162.481 82.4 162.631 91.43 160.191 100.73C156.881 113.35 152.561 120.94 150.281 124.34C145.441 131.55 135.381 146.55 112.961 156.26C104.451 159.95 86.9507 165.48 65.3507 161.13C33.5907 154.73 8.06067 129.26 1.82067 97.75C-6.36933 56.37 16.4507 31.56 37.0307 18.03C51.3307 8.62997 73.7907 -0.660012 93.9707 1.44999C49.7107 -5.53001 8.16066 24.67 1.18066 68.92" fill="#DE991F"/>
<path d="M11.0802 122.03C55.1502 190.92 147.99 162.68 160.4 94.5099C169.28 45.7499 131.5 6.2399 92.0502 1.2699C92.6302 1.3299 93.4002 1.4099 93.9802 1.4599C72.5002 -1.9301 51.6702 3.43992 35.1102 14.9199C29.1902 19.3599 24.0702 23.1899 17.2402 31.8299C9.10017 42.2999 3.4102 54.9099 1.2002 68.9299C1.5902 66.9799 2.11018 64.3699 2.50018 62.4199C17.7702 8.92992 63.2902 1.52991 76.8802 0.529907L80.5202 0.419922C82.0102 0.439922 84.0002 0.459907 85.4802 0.529907L86.9802 0.619904C87.4402 0.659904 88.0502 0.699899 88.5102 0.739899L89.3202 0.819916L90.1102 0.899902L90.6402 0.9599L91.1502 1.0199L91.5402 1.06992L91.9102 1.1199L92.2202 1.15991L92.5202 1.19992L92.7902 1.2399L93.0502 1.27991L93.2902 1.31992L93.5302 1.35989L93.7602 1.3999L94.0002 1.43991L94.2302 1.47992L94.4602 1.5199L94.7002 1.55991L94.9402 1.59991L95.2002 1.63992L95.4602 1.68991L95.7602 1.7399L96.0702 1.7999L96.4402 1.8699L96.8202 1.93991L97.3202 2.03992L97.8402 2.1499L98.6102 2.30991L99.4102 2.4899L100.84 2.8299C101.3 2.94989 101.91 3.09991 102.36 3.21991L105.81 4.21991C107.23 4.69991 109.13 5.3499 110.54 5.8699L116.35 8.37991C165.64 34.4499 163.35 80.6999 161.48 94.2499L160.18 100.76C144.91 154.25 99.3902 161.65 85.8102 162.64L82.1702 162.75C80.6802 162.73 78.6902 162.71 77.2102 162.64L75.7102 162.55C75.2502 162.51 74.6402 162.47 74.1802 162.43L73.3702 162.35L72.5802 162.27L72.0502 162.21L71.5402 162.15L71.1502 162.1L70.7802 162.05L70.4702 162.01L70.1702 161.97L69.9002 161.93L69.6402 161.89L69.4002 161.85L69.1602 161.81L68.9302 161.77L68.6902 161.73L68.4602 161.69L68.2302 161.65L67.9902 161.61L67.7502 161.57L67.4902 161.53L67.2302 161.48L66.9302 161.43L66.6202 161.37L66.2502 161.3L65.8702 161.23L65.3702 161.13L64.8502 161.02L64.0802 160.86L63.2802 160.68L61.8502 160.34C61.3902 160.22 60.7802 160.07 60.3302 159.95L56.8802 158.95C55.4602 158.47 53.5602 157.82 52.1502 157.3L46.3402 154.79C34.2402 148.39 20.3302 139.67 8.50018 117.17L11.1002 122.03" fill="#DE991F"/>
<path d="M1.56042 66.8099C0.840425 71.0199 -0.359573 78.0699 0.500427 88.6599L0.19043 82.2199C0.47043 73.5999 0.48042 73.4399 1.18042 68.9299C1.29042 68.2899 1.44042 67.4399 1.55042 66.8099" fill="#DE991F"/>
<path d="M34.8805 147.92C92.8705 188.5 172.1 139.27 161.41 69.2899C157.4 43.0599 137.341 9.56994 93.9805 1.46994C91.2705 1.03994 88.5705 0.749945 85.8805 0.599945C84.1705 0.559945 81.8905 0.49993 80.1905 0.45993C73.2205 0.72993 63.6805 1.10995 49.6605 6.91995L55.4705 4.68994C62.8905 2.47994 66.9805 1.26995 76.8605 0.539948L80.5005 0.429932C81.9905 0.449932 83.9805 0.469948 85.4605 0.539948L86.9605 0.629944C87.4205 0.669944 88.0305 0.709939 88.4905 0.749939L89.3005 0.829926L90.0905 0.909943L90.6205 0.96994L91.1305 1.02994L91.5205 1.07993L91.8905 1.12994L92.2005 1.16995L92.5005 1.20993L92.7705 1.24994L93.0305 1.28995L93.2705 1.32993L93.5105 1.36993L93.7405 1.40994L93.9805 1.44995L94.2105 1.48993L94.4405 1.52994L94.6805 1.56995L94.9205 1.60992L95.1805 1.64993L95.4405 1.69995L95.7405 1.74994L96.0505 1.80994L96.4205 1.87994L96.8005 1.94995L97.3005 2.04993L97.8205 2.15994L98.5905 2.31995C98.8305 2.36995 99.1505 2.43994 99.3905 2.49994L100.821 2.83994C101.281 2.95994 101.891 3.10995 102.341 3.22995L105.79 4.22995C107.21 4.70995 109.111 5.35994 110.521 5.87994L116.331 8.38995C165.621 34.46 163.331 80.7099 161.461 94.2599L160.16 100.77C144.89 154.26 99.3705 161.66 85.7905 162.65L82.1505 162.76C80.6605 162.74 78.6705 162.72 77.1905 162.65L75.6905 162.56C75.2305 162.52 74.6205 162.48 74.1605 162.44L73.3505 162.36L72.5605 162.28L72.0305 162.22L71.5205 162.16L71.1305 162.11L70.7605 162.06L70.4505 162.02L70.1505 161.98L69.8805 161.94L69.6205 161.9L69.3805 161.86L69.1405 161.82L68.9105 161.78L68.6705 161.74L68.4405 161.7L68.2105 161.66L67.9705 161.62L67.7305 161.58L67.4705 161.54L67.2105 161.49L66.9105 161.44L66.6005 161.38L66.2305 161.31L65.8505 161.24L65.3505 161.14L64.8305 161.03L64.0605 160.87C63.8205 160.82 63.5005 160.75 63.2605 160.69L61.8305 160.35C61.3705 160.23 60.7605 160.08 60.3105 159.96L56.8605 158.96C55.4405 158.48 53.5405 157.83 52.1305 157.31L46.3205 154.8C38.1705 150.49 32.6205 147.29 24.2705 139.19L28.3805 142.92C30.3105 144.45 32.8705 146.51 34.8905 147.92" fill="#DE991F"/>
<path d="M89.9102 1.1499C158.06 7.4199 185.49 98.0699 132.44 141.72C76.0002 188.16 -5.35979 146.85 0.530212 74.7599C0.800212 71.4699 1.58022 67.1299 2.19022 63.8899L3.81021 58.3199C21.8802 12.1999 73.2402 0.279899 89.9102 1.1499Z" fill="#DE991F"/>
<path d="M87.6108 1.11986C151.761 5.29986 190.081 94.1698 131.371 141.55C75.6408 186.52 -5.01921 145.37 0.600785 74.8399C0.740785 73.0699 1.12079 68.3699 2.95079 61.0399L4.82079 55.5699C25.1208 9.88987 76.0808 0.899863 87.6108 1.11986Z" fill="#DE991F"/>
<path d="M85.1209 1.17993C148.271 3.54993 189.261 86.6299 135.031 137.22C79.641 188.9 0.510938 145.46 0.460938 81.4799C0.460938 71.6799 1.98094 65.1599 3.84094 58.2499L5.95096 52.89C29.821 4.92995 84.591 1.18993 85.131 1.17993" fill="#DF9A1F"/>
<path d="M82.4407 1.36987C145.641 1.94987 188.781 83.5399 135.861 135.47C84.3107 186.05 0.890715 152.82 0.620715 81.5899C0.570715 68.4599 3.67071 59.0799 4.83071 55.5499L7.17073 50.2899C31.7607 5.69989 81.9507 1.38987 82.4407 1.36987Z" fill="#DF9A1F"/>
<path d="M79.6904 1.6599C144.02 0.619898 188.35 79.9799 135.76 134.72C87.0804 185.39 1.32044 151.68 0.82044 81.6799C0.72044 67.8799 4.25043 57.7599 5.94043 52.8999L8.50043 47.7499C33.6104 6.33989 79.2404 1.6999 79.6904 1.6599Z" fill="#DF9A1F"/>
<path d="M7.21033 50.1999C27.7903 13.0199 66.2303 3.88987 77.5203 1.96987L79.6404 1.92986C142.27 0.609859 186.94 78.6399 136.76 132.85C88.0704 185.44 1.82035 152.99 1.04035 81.7899C0.850352 64.1499 7.14036 50.3299 7.20036 50.1999" fill="#E09A1F"/>
<path d="M8.76037 47.28C28.9404 14.56 62.0904 4.94995 75.4004 2.33995L77.6604 2.26994C145.6 0.499943 182.76 83.43 136.15 132.75C86.8204 184.94 2.40037 153.1 1.32037 81.91C1.02037 62.22 8.45037 47.88 8.76037 47.28Z" fill="#E09B1F"/>
<path d="M10.5105 44.34C28.9405 17.39 54.8004 6.84998 73.2404 2.75998L75.7404 2.62997C141.29 -0.480029 180.72 76.9 139.67 128.07C95.9904 182.52 8.51047 157.36 2.01047 88.48C-0.399531 62.95 10.0605 45.1 10.5105 44.35" fill="#E09B1F"/>
<path d="M12.4506 41.4C26.9706 22.18 46.5006 9.37997 70.4806 3.37997L71.4206 3.22998C145.831 -2.35002 178.941 79.16 139.051 128.01C94.8506 182.14 9.2106 157.44 2.2906 88.56C-0.359405 62.16 11.1406 43.45 12.4606 41.4" fill="#E19B1F"/>
<path d="M14.6208 38.4499C28.6808 21.5399 46.5008 9.9899 67.5908 4.1299L69.7208 3.7499C144.921 -3.4901 179.141 78.9799 138.411 127.95C94.6108 180.62 9.54079 156 2.55079 88.6399C0.150788 65.5099 9.0108 46.2099 14.6208 38.4499Z" fill="#E19B1F"/>
<path d="M16.4005 36.2299C21.3705 30.6599 36.4905 13.7199 64.6605 4.98992L68.0205 4.31994C143.841 -4.59006 179.211 78.7899 137.741 127.88C93.3205 180.47 10.0905 156.31 2.81052 88.7199C0.230517 64.7399 10.1305 44.4399 16.3905 36.2299" fill="#E19B1F"/>
<path d="M16.9007 35.9299L18.6407 33.6499L22.7107 29.4399C33.1007 20.0299 43.1207 12.8599 60.9207 6.22993L63.1007 5.63993C130.951 -8.84007 180.221 65.7299 140.631 122.99C102.831 177.65 17.3307 159.98 4.08069 94.7599C2.15069 85.2699 -0.459286 60.5499 16.8907 35.9299" fill="#E29C1F"/>
<path d="M17.1504 35.9999C18.3304 34.3699 20.0304 32.2999 21.3404 30.7799L25.6104 26.7398C31.4504 21.8898 40.2604 14.5498 55.8304 8.14985L60.4505 6.73984C121.33 -10.1602 174.47 54.7998 146.6 112.05C117.15 172.55 31.5804 169.42 7.87044 106.97C-1.18956 83.0999 2.27046 56.5699 17.1405 35.9999" fill="#E29C1F"/>
<path d="M17.4305 36.08C19.3505 33.43 22.2905 30.18 24.5005 27.76L28.9705 23.92C36.5105 18.2 41.1605 14.98 51.2105 10.18L55.9105 8.50998C123.301 -12.94 172.701 57.99 146.051 111.99C117.111 170.62 32.1605 167.59 8.33051 107.08C-0.879491 83.7 2.61052 56.5 17.4305 36.08Z" fill="#E29C1F"/>
<path d="M17.7103 36.1598C21.4103 31.0898 26.4903 26.1798 28.1703 24.5698L32.8403 20.9498C38.8203 16.8398 40.3403 15.8398 47.7503 11.8498L52.4603 10.0198C125.64 -15.6402 170.44 62.0498 145.46 111.94C114.55 173.68 26.4103 166.9 6.78031 101.27C-3.08969 68.2798 12.6503 43.0998 17.7103 36.1598Z" fill="#E39C1F"/>
<path d="M18.011 36.2499C58.371 -18.7901 142.131 2.21993 151.781 69.7999C160.811 133.1 85.111 178.01 34.381 139.45C-2.60904 111.33 -2.98904 64.8899 18.011 36.2499Z" fill="#E39C1F"/>
<path d="M18.3205 36.3299C58.3504 -17.9601 141.58 2.95991 151.24 69.7399C160.3 132.36 85.5804 177.44 35.3604 139.64C-3.56957 110.33 -2.47955 64.5399 18.3205 36.3299Z" fill="#E39D20"/>
<path d="M18.6509 36.4199C58.3309 -17.1001 141.021 3.72992 150.711 69.6799C159.871 132.09 86.1509 177.33 36.3809 139.84C-2.95908 110.2 -2.11909 64.4399 18.6509 36.4199Z" fill="#E39D20"/>
<path d="M18.9912 36.5099C59.3012 -17.5401 140.211 2.88992 150.151 69.6199C159.071 129.5 87.7012 174.44 37.8412 140.34C2.68116 116.29 -5.77885 69.7199 18.9912 36.5099Z" fill="#E49D20"/>
<path d="M19.3503 36.6C59.2903 -16.62 139.63 3.70997 149.59 69.55C158.84 130.72 87.4803 175.14 37.3003 139.45C3.09027 115.12 -4.95972 68.98 19.3503 36.6Z" fill="#E49D20"/>
<path d="M19.7203 36.6898C59.2503 -15.8801 139.01 4.34986 149.02 69.4799C157.5 124.68 89.6203 176.72 36.8003 138.6C3.30028 114.43 -4.3597 68.7099 19.7303 36.6898" fill="#E49E20"/>
<path d="M20.1004 36.7899C59.2104 -15.1301 138.37 4.98986 148.42 69.4099C157.16 125.41 89.3804 177.09 36.2904 137.74C-0.759556 110.27 -1.03957 64.8399 20.0904 36.7899" fill="#E59E20"/>
<path d="M20.5003 36.8899C59.1803 -14.3701 137.72 5.64989 147.83 69.3399C156.74 125.49 89.0503 176.7 35.8203 136.87C-0.00971794 110.06 -0.0297232 64.0999 20.5003 36.8899Z" fill="#E59E20"/>
<path d="M20.9105 36.9799C58.1005 -13.2801 135.79 5.32986 146.87 67.1499C157.01 123.74 88.7105 176.52 35.3405 135.98C3.87048 112.07 -2.46951 68.5799 20.9105 36.9799Z" fill="#E59E20"/>
<path d="M19.2102 40.16C53.4702 -11.89 132.54 2.39994 145.5 62.9899C159.35 127.76 86.9802 174.93 34.8802 135.08C5.25023 112.42 -1.48978 71.61 19.2102 40.16Z" fill="#E69E20"/>
<path d="M15.4504 47.2799C48.2604 -12.2301 125.26 2.2799 143.44 56.7899C162.83 114.92 99.8804 169.44 45.8204 141.34C7.59039 121.47 -0.74961 76.6599 15.4504 47.2699" fill="#E69F20"/>
<path d="M22.0304 37.2499C59.8504 -12.1801 136.06 7.46994 145.58 69.0999C154.32 125.7 86.8703 174.91 33.9903 133.25C1.07035 107.32 2.15036 63.2299 22.0304 37.2499Z" fill="#E69F20"/>
<path d="M22.4011 37.3299C59.8511 -11.2901 135.501 8.24987 145.051 69.0199C153.791 124.64 85.261 173.78 33.5511 132.3C1.36105 106.49 2.70105 62.8999 22.4011 37.3199" fill="#E79F20"/>
<path d="M22.7909 37.4199C61.7309 -12.8001 141.841 11.4999 145.251 74.5599C148.211 129.34 82.8009 171.87 33.1609 131.38C5.05094 108.45 0.400949 66.2999 22.7909 37.4199Z" fill="#E79F20"/>
<path d="M23.1805 37.5099C61.7905 -11.9401 141.301 12.2699 144.731 74.4999C147.761 129.52 82.4706 171.6 32.8205 130.47C5.75055 108.05 1.34053 65.4799 23.1805 37.4999" fill="#E7A020"/>
<path d="M23.5911 37.5999C62.8911 -12.3901 140.671 11.3699 144.201 74.4399C147.291 129.59 82.1311 171.19 32.5011 129.56C5.97105 107.31 1.89105 65.1899 23.5911 37.5899" fill="#E8A020"/>
<path d="M24.0003 37.6899C62.9503 -11.4901 140.12 12.1699 143.67 74.3799C146.81 129.47 81.8003 170.56 32.2003 128.65C8.99028 109.04 0.160276 67.8099 24.0103 37.6899" fill="#E8A020"/>
<path d="M24.421 37.7899C63.011 -10.5901 139.561 12.9699 143.121 74.3199C146.301 128.96 81.431 169.47 31.891 127.73C9.48099 108.85 0.900977 67.2599 24.411 37.7799" fill="#E8A020"/>
<path d="M24.8503 37.8799C63.0703 -9.74008 138.99 13.7199 142.58 74.2599C146.12 133.98 74.5603 167.89 31.6203 126.84C3.93027 100.38 6.44026 60.8299 24.8603 37.8899" fill="#E8A020"/>
<path d="M25.2903 37.9799C63.1303 -9.06007 138.41 14.2899 142.03 74.1999C145.3 128.4 81.4103 168.43 32.4303 126.92C10.3003 108.17 1.93033 67.0299 25.2903 37.9899" fill="#E9A120"/>
<path d="M25.7408 38.0698C63.2008 -8.39016 137.821 14.8598 141.471 74.1198C144.701 126.71 80.6408 167.2 33.3908 127.08C7.84083 105.38 4.34081 64.6198 25.7408 38.0598" fill="#E9A120"/>
<path d="M26.1902 38.17C63.2502 -7.71 137.22 15.43 140.9 74.06C144.14 125.7 81.2802 166.41 34.8402 127.65C8.19017 105.4 4.30017 65.26 26.1902 38.17Z" fill="#E9A121"/>
<path d="M26.6505 38.2698C63.3205 -7.03017 136.62 16.0098 140.32 73.9898C143.61 125.58 81.4105 166.2 35.3405 127.45C8.80047 105.13 4.91047 65.1198 26.6505 38.2698Z" fill="#EAA121"/>
<path d="M27.1303 38.3699C63.4003 -6.34009 136.02 16.5899 139.75 73.9199C143.27 128.1 77.5703 162.24 36.3603 127.64C9.13027 104.77 5.08029 65.5599 27.1303 38.3699Z" fill="#EAA121"/>
<path d="M27.6104 38.4699C63.4504 -5.93011 135.39 16.8899 139.17 73.8499C142.73 127.62 78.0504 161.92 37.3804 127.83C5.65045 101.23 8.67043 61.9399 27.6104 38.4699Z" fill="#EAA221"/>
<path d="M28.0911 38.57C63.7311 -5.92005 134.971 16.7799 138.571 73.7799C141.911 126.66 78.2511 161.13 38.4111 128.02C6.45114 101.46 9.24113 62.1099 28.0911 38.5799" fill="#EBA221"/>
<path d="M28.3906 38.9399C67.4006 -7.20007 134.571 22.5599 137.981 73.6999C141.391 124.93 77.8606 160.07 39.4706 128.2C17.6706 110.1 1.68064 75.8599 28.3906 38.9299" fill="#EBA221"/>
<path d="M26.4911 42.3698C53.9111 2.83985 125.881 4.88984 137.091 71.7998C143.921 112.6 91.0511 161.13 41.7511 129.34C20.6911 115.76 1.28107 78.7299 26.4911 42.3799" fill="#EBA221"/>
<path d="M24.7203 45.8999C52.9403 1.55992 122.93 6.97993 135.76 67.6999C146.72 119.56 85.1403 159.4 41.6303 128.59C14.3003 109.24 7.03033 73.6899 24.7203 45.8899" fill="#ECA321"/>
<path d="M23.091 49.5399C53.221 -2.79012 121.411 12.5499 133.711 61.4599C147.491 116.29 92.521 157.24 43.221 128.87C19.841 115.42 5.82098 79.5299 23.091 49.5399Z" fill="#ECA321"/>
<path d="M21.5907 53.29C51.6307 -2.60003 114.611 14.44 131.401 55.39C150.961 103.12 101.591 153.01 53.7107 133.91C20.2507 120.56 8.09066 78.42 21.5907 53.2999" fill="#ECA321"/>
<path d="M31.1509 39.1999C68.8109 -3.13013 131.451 25.3298 134.961 73.3298C138.581 122.87 79.7609 155.96 41.0309 126.18C10.0409 102.35 10.9009 61.9699 31.1609 39.1999" fill="#EDA321"/>
<path d="M31.6805 39.2999C66.2405 0.709898 130.521 21.9699 134.351 73.2399C138.041 122.71 79.4905 155.35 40.8505 125.36C10.8705 102.09 11.9505 61.3299 31.6805 39.2999Z" fill="#EDA321"/>
<path d="M32.2202 39.4099C67.1702 0.489912 129.79 21.3099 133.74 73.1699C137.17 118.2 82.2702 156.57 40.9302 124.7C11.2202 101.8 12.5002 61.3699 32.2202 39.4099Z" fill="#EDA421"/>
<path d="M32.7704 39.5199C67.2504 1.22994 129.15 21.9399 133.12 73.09C136.64 118.39 81.8804 156.27 40.5304 123.73C14.4704 103.22 10.8404 63.8699 32.7704 39.5199Z" fill="#EDA421"/>
<path d="M33.3307 39.6299C67.3307 1.9799 128.511 22.5699 132.511 73.0099C136.081 118.04 81.6107 155.43 40.3807 122.91C14.7907 102.72 11.5007 63.8099 33.3307 39.6299Z" fill="#EEA421"/>
<path d="M33.8904 39.7399C67.4104 2.71986 127.85 23.1899 131.88 72.9299C135.52 117.9 81.3504 154.83 40.2304 122.07C15.2004 102.12 12.2304 63.6499 33.8904 39.7399Z" fill="#EEA421"/>
<path d="M34.4609 39.8499C67.5009 3.45988 127.201 23.8099 131.251 72.8399C134.961 117.76 81.0909 154.23 40.0909 121.23C15.6209 101.53 12.9809 63.4999 34.4609 39.8499Z" fill="#EEA521"/>
<path d="M35.0408 39.9599C67.5908 4.19994 126.551 24.43 130.621 72.76C134.401 117.62 80.8408 153.63 39.9708 120.38C16.0508 100.93 13.7508 63.3499 35.0508 39.9599" fill="#EFA521"/>
<path d="M35.6203 40.0799C67.6903 4.94986 125.88 25.0599 129.97 72.6799C133.82 117.49 80.5803 153.02 39.8303 119.54C16.4703 100.35 14.5003 63.2199 35.6203 40.0799Z" fill="#EFA521"/>
<path d="M25.7805 55.8499C44.6905 13.5499 106.551 12.6899 124.571 54.4799C144.681 101.11 98.5605 148.04 53.0505 127.24C22.7005 113.37 15.2605 79.3799 25.7805 55.8499Z" fill="#EFA521"/>
<path d="M26.3112 55.9599C46.6112 10.7399 107.641 16.2199 123.851 54.3899C143.521 100.73 97.8312 147.26 53.0012 126.55C23.1312 112.75 15.8912 79.1699 26.3112 55.9599Z" fill="#F0A522"/>
<path d="M26.8504 56.0599C37.4404 32.5899 61.7404 24.6099 71.8504 24.4199C109.75 23.7199 123 53.9699 123.13 54.2799C144.19 103.99 93.9004 144.96 52.9504 125.83C23.5804 112.11 16.5304 78.9299 26.8504 56.0499" fill="#F0A622"/>
<path d="M27.3903 56.1699C37.3403 34.2099 61.0703 25.0399 71.5603 25.0199C111.94 24.9199 122.91 55.6199 123.02 55.9299C141.36 109.57 88.9303 142.13 52.9103 125.13C24.0303 111.5 17.1803 78.7199 27.3903 56.1699Z" fill="#F0A622"/>
<path d="M27.9407 56.2699C38.0707 33.9499 62.7107 25.4099 71.2807 25.5999C108.671 26.4499 120.031 48.8499 123.171 58.4399C139.121 107.05 91.3606 142.77 52.8606 124.4C24.5006 110.87 17.8406 78.4999 27.9306 56.2599" fill="#F1A622"/>
<path d="M28.5006 56.3799C43.2806 23.7999 97.3406 11.0099 120.691 53.9499C138.891 87.3999 111.131 134.94 66.6306 127.99C31.7406 122.54 16.2406 83.4099 28.5006 56.3899" fill="#F1A622"/>
<path d="M29.0607 56.4899C46.1207 18.8599 105.481 14.4099 121.991 59.6199C137.311 101.56 92.6907 142.4 52.8007 122.96C28.4707 111.1 17.8207 81.2799 29.0607 56.4899Z" fill="#F1A622"/>
<path d="M29.6207 56.5999C45.3307 21.9299 97.8007 14.7199 119.001 53.7099C136.871 86.5899 110.091 133.41 66.7307 126.64C35.4807 121.76 16.4007 85.7499 29.6207 56.5899" fill="#F2A722"/>
<path d="M30.2011 56.7099C45.7211 22.4399 97.371 15.1599 118.161 53.5899C137.701 89.6999 107.461 132.31 66.801 125.97C35.361 121.06 16.8911 86.1099 30.2011 56.7099Z" fill="#F2A722"/>
<path d="M30.7705 56.8199C45.6405 23.5699 97.2505 16.2399 117.301 53.4699C136.561 89.2399 106.861 131.53 66.8505 125.28C35.9605 120.46 17.7605 85.9099 30.7705 56.8099" fill="#F2A722"/>
<path d="M31.3607 56.93C45.7007 24.39 96.3108 16.9 116.271 53.12C135.911 88.74 106.851 130.83 66.9208 124.6C36.6208 119.87 18.6707 85.72 31.3607 56.93Z" fill="#F2A722"/>
<path d="M31.9909 57.0499C48.5109 23.4699 103.691 15.6199 119.711 64.9199C132.121 103.1 89.521 137.63 52.671 119.25C33.191 109.53 19.901 81.5999 31.981 57.0399" fill="#F3A822"/>
<path d="M32.6803 57.1799C36.0903 50.2899 49.7603 28.0199 82.5003 30.8999C88.5903 31.4399 109.21 35.4599 118.88 64.7699C131.4 102.72 89.3203 136.86 52.6703 118.5C33.6303 108.96 21.0403 80.7099 32.6803 57.1799Z" fill="#F3A822"/>
<path d="M33.3711 57.31C37.6811 48.66 51.0711 28.82 82.3411 31.53C88.2811 32.04 108.431 35.95 118.041 64.63C130.671 102.32 89.1211 136.07 52.6611 117.74C36.1711 109.45 20.8611 82.45 33.3711 57.31Z" fill="#F3A822"/>
<path d="M34.071 57.4399C43.031 39.5399 60.571 30.3199 82.191 32.1499C93.191 33.0799 102.471 41.6599 109.251 47.9199C112.621 51.0299 113.231 52.8199 117.191 64.4699C129.911 101.86 88.891 135.23 52.651 116.97C36.521 108.84 21.641 82.2599 34.071 57.4399Z" fill="#F4A822"/>
<path d="M34.7709 57.5799C46.591 34.0999 70.841 31.1299 82.021 32.8399C87.8709 33.7299 97.051 36.3799 109.271 48.9999C111.581 51.3899 112.541 52.3799 118.341 70.3499C120.751 77.8299 116.791 101.45 101.241 112.31C85.561 123.26 69.211 124.57 52.661 116.21C51.281 115.51 36.641 104.01 33.971 95.2299C31.751 87.9499 27.131 72.7899 34.791 57.5799" fill="#F4A822"/>
<path d="M35.4908 57.7099C47.0808 34.8199 70.8708 31.9299 81.8408 33.5999C93.5808 35.3899 101.971 42.5799 109.281 50.0799C110.541 51.3699 111.731 52.5999 117.511 70.1899C119.031 74.8299 117.511 100.02 101.581 111.12C77.0108 128.24 57.9208 118.72 52.6508 115.39C30.6608 101.5 26.6608 75.1499 35.4908 57.7099Z" fill="#F4A922"/>
<path d="M36.2108 57.8399C47.6808 35.3199 70.9508 32.6399 81.6508 34.3699C90.3208 35.7699 113.571 45.0699 116.961 70.8999C121.931 108.81 79.6308 131.54 52.6608 114.42C31.2508 100.83 27.4908 74.9799 36.2208 57.85" fill="#F5A922"/>
<path d="M36.9302 57.9799C48.1702 36.0399 70.9702 33.4498 81.4602 35.1498C94.7102 37.2898 102.79 45.5998 109.28 52.2698C109.66 52.6598 116 69.7898 116.13 70.7898C121.14 108.34 79.3702 130.56 52.6502 113.44C31.0702 99.6098 28.4402 74.5398 36.9302 57.9799Z" fill="#F5A922"/>
<path d="M37.6608 58.1099C48.6508 36.7599 70.9908 34.2699 81.2708 35.9299C89.5908 37.2799 111.931 46.1399 115.311 70.6599C118.221 91.8399 102.571 107.52 102.411 107.63C95.4508 112.27 74.2608 126.41 52.6708 112.44C29.1908 97.2399 31.0008 71.0499 37.6608 58.1099Z" fill="#F5A922"/>
<path d="M38.4002 58.2499C47.2702 41.0199 66.5802 34.3799 81.0802 36.7299C95.3702 39.0399 111.93 51.6799 114.47 70.5499C117.2 90.7499 102.86 106.32 102.71 106.42C94.1302 112.1 74.0402 125.4 52.6802 111.44C52.5502 111.36 38.3902 97.4899 37.9802 95.9499C33.7802 80.3099 31.4702 71.6999 38.3902 58.2399" fill="#F6A922"/>
<path d="M39.1511 58.3899C56.4911 24.6899 108.701 33.1399 113.641 70.4299C116.451 91.6699 101.581 106.13 101.421 106.24C93.8711 111.2 73.8011 124.38 52.7111 110.45C28.1311 94.2099 34.8511 66.7399 39.1511 58.3899Z" fill="#F6AA23"/>
<path d="M39.9009 58.5199C40.0309 58.2699 53.3909 33.9099 80.7009 38.3299C107.851 42.7199 112.761 70.0399 112.791 70.3099C117.651 106.11 78.1109 126.3 52.7309 109.44C31.5409 95.3599 33.6109 70.7399 39.8909 58.5299" fill="#F6AA23"/>
<path d="M40.6604 58.6599C40.7804 58.4199 53.7404 34.8099 80.5204 39.1399C106.78 43.3899 111.92 69.9199 111.96 70.1899C114.99 92.9399 98.9704 105.74 98.8004 105.85C90.9338 110.93 80.6371 113.827 67.9104 114.54C67.7604 114.54 53.0504 108.6 52.7804 108.42C35.2104 96.6799 32.8304 73.8999 40.6604 58.6599Z" fill="#F7AA23"/>
<path d="M41.4303 58.7999C41.5503 58.5699 54.5202 35.7899 80.3302 39.9599C106.13 44.1299 111.07 69.8099 111.1 70.0699C114.15 93.3899 97.6403 105.55 97.4703 105.66C89.9503 110.48 80.1303 113.127 68.0103 113.6C67.8503 113.6 53.0803 107.59 52.8103 107.41C39.5203 98.4699 31.6303 77.8499 41.4203 58.8099" fill="#F7AA23"/>
<path d="M42.2006 58.94C42.3206 58.72 54.8706 36.7 80.1506 40.78C81.2906 40.96 91.5606 42.82 99.9406 50.93C100.031 51.02 109.571 64.76 110.261 69.94C110.411 71.07 108.991 87.79 108.681 88.58C105.561 96.42 96.2306 105.4 96.1506 105.45C85.6106 112.14 85.4106 112.27 68.1306 112.63C67.9706 112.63 53.1406 106.54 52.8706 106.36C42.0706 99.05 31.6306 79.51 42.2106 58.93" fill="#F7AB23"/>
<path d="M42.9805 59.0799C45.3205 54.4999 59.2405 44.4399 59.3505 44.3899C68.5205 40.0599 78.1205 41.3199 79.9605 41.6199C80.0705 41.6399 90.9805 43.4699 98.5505 50.7299C98.6505 50.8199 109.011 66.8899 109.391 69.8199C109.541 70.9699 108.131 87.6999 107.811 88.4599C105.341 94.4499 94.8705 105.2 94.7905 105.25C75.7905 117.2 60.3905 110.43 52.9105 105.33C47.9705 101.97 30.6805 83.1599 42.9705 59.0699" fill="#F7AB23"/>
<path d="M43.7703 59.2199C44.9403 56.8999 60.5604 44.6699 60.6904 44.6199C67.8904 41.2699 79.6703 42.4399 79.7803 42.4599C79.8903 42.4799 91.9004 45.5399 97.1704 50.5199C97.5004 50.8299 108.41 69.1899 108.51 69.5899C108.7 70.4099 107.29 87.5799 106.97 88.3399C105.64 91.4799 93.5403 105 93.4603 105.06C87.5203 108.77 83.9403 111.01 68.3603 110.72C68.1903 110.72 53.2503 104.48 52.9903 104.3C52.7503 104.14 30.2903 85.8599 43.7803 59.2299" fill="#F8AB23"/>
<path d="M43.8702 61.5599C45.7502 55.4799 61.8602 44.9299 62.0202 44.8499C66.2702 42.6799 79.4702 43.2899 79.5902 43.2999C79.6902 43.3099 92.7402 47.4399 95.7702 50.3099C96.1002 50.6199 107.22 69.1199 107.32 69.5199C107.5 70.2699 106.32 87.5599 106.04 88.2099C105.65 89.1299 92.8702 104.37 92.0902 104.86C89.0002 106.78 83.2402 110.36 68.4602 109.76C68.2802 109.76 53.2903 103.44 53.0403 103.27C44.4103 97.3199 40.2902 79.4899 40.2502 79.3099C39.6102 76.4199 41.8702 68.0699 43.8802 61.5699" fill="#F8AB23"/>
<path d="M45.7504 59.5799C46.2004 58.8899 62.5004 45.4799 63.3704 45.0799C64.3304 44.6399 79.2904 44.1299 79.4004 44.1499L94.3504 50.0799C94.6004 50.3199 105.99 69.0299 106.06 69.3299C106.22 69.9899 105.04 87.4499 104.8 88.0199C104.45 88.8299 91.4304 104.2 90.7304 104.64C83.4104 109.19 72.8004 109.04 68.5804 108.77C68.3904 108.76 53.3604 102.38 53.1104 102.2C45.6804 97.0499 40.8904 77.8599 40.8504 77.6799C40.7004 76.8199 45.1004 60.5799 45.7604 59.5799" fill="#F8AB23"/>
<path d="M46.9206 59.7799C47.3406 59.1399 62.6106 46.5799 63.4206 46.2099C65.5906 45.2199 79.1106 44.9799 79.2106 44.9999C81.6606 45.3999 92.5406 50.0799 94.1806 51.6199C94.4106 51.8399 104.731 68.8599 104.801 69.1399C104.961 69.7999 103.791 87.2699 103.551 87.8299C103.201 88.6299 90.0606 103.98 89.3506 104.42C83.3506 108.14 68.8306 107.78 68.7006 107.77C68.5106 107.75 53.4306 101.3 53.1806 101.13C47.4206 97.1199 42.0306 78.0399 42.0106 77.8699C41.8806 76.9799 46.2906 60.7499 46.9306 59.7699" fill="#F9AC23"/>
<path d="M48.1111 59.9898C48.4511 59.4798 62.3311 48.0099 62.9611 47.7199C65.3211 46.6399 76.1311 45.3898 79.0311 45.8598C81.7911 46.3098 92.0211 51.3099 94.0211 53.1899C94.2211 53.3799 103.471 68.6999 103.541 68.9499C103.681 69.5199 102.511 87.1599 102.301 87.6399C101.951 88.4299 88.6911 103.76 87.9711 104.21C84.1611 106.57 68.9511 106.8 68.8211 106.78C68.5511 106.75 53.5711 100.29 53.2611 100.07C49.9111 97.7299 43.2011 78.2398 43.1811 78.0798C43.0611 77.1698 47.4911 60.9299 48.1211 59.9799" fill="#F9AC23"/>
<path d="M49.3008 60.1999C49.5608 59.7999 62.0208 49.4699 62.5008 49.2499C64.5408 48.3199 76.4708 46.3499 78.8408 46.7299C81.6608 47.1899 93.4108 54.3799 93.8408 54.7799C93.9608 54.8899 102.221 68.6199 102.261 68.7699C102.401 69.3399 101.241 86.9899 101.031 87.4699C100.721 88.1599 87.2208 103.62 86.5808 104.01C86.4708 104.08 69.1708 105.84 68.9508 105.8C68.6708 105.76 53.6508 99.2299 53.3508 99.0099C51.9908 98.0599 44.3808 78.4499 44.3708 78.2999C44.2708 77.3599 48.7108 61.1299 49.3208 60.2099" fill="#F9AC23"/>
<path d="M50.511 60.4199C50.701 60.1299 61.701 50.9599 62.051 50.7999C62.141 50.7599 78.5711 47.5999 78.6411 47.6099L93.661 56.3799C93.761 56.4799 100.941 68.4499 100.971 68.5799C101.111 69.1399 99.961 86.7899 99.751 87.2799C99.521 87.8399 87.491 101.64 86.881 102.05C83.531 104.31 69.181 104.81 69.061 104.8C68.911 104.79 56.201 99.2699 55.861 99.0699C50.131 95.7399 45.571 78.6699 45.541 78.5199C45.431 77.6999 49.931 61.2999 50.511 60.4299" fill="#FAAC23"/>
<path d="M51.7302 60.6298C51.8702 60.4198 61.3802 52.4598 61.6102 52.3598C61.7002 52.3198 78.2902 49.0398 78.3502 49.0498L93.4702 57.9898C96.1602 60.4298 98.8002 64.8498 99.6802 68.3798C99.8102 68.9198 98.6802 86.5698 98.4802 87.0798C98.3302 87.4698 87.8202 99.5598 87.2402 100.02C87.1902 100.06 79.0102 103.9 69.1902 103.79C66.1002 103.76 62.4202 101.25 59.7402 99.7098C57.7802 98.5798 54.8602 97.1698 53.6702 95.2498C52.8302 93.8898 47.0102 79.9898 46.7502 78.7198C46.6102 78.0398 51.1702 61.4798 51.7302 60.6298Z" fill="#FAAD23"/>
<path d="M52.9608 60.8398C54.7308 58.1498 58.2008 55.1598 61.1708 53.9298C61.3708 53.8498 77.9308 50.4899 78.0408 50.5099L93.2708 59.6198C95.5308 61.5798 97.6508 65.2798 98.3708 68.1798C98.4808 68.6098 97.3408 86.4398 97.1808 86.8798C97.0808 87.1598 88.3008 97.2999 87.5908 97.9499C87.5508 97.9799 83.5908 101.33 69.3108 102.76C67.4808 102.94 65.2908 101.25 63.6908 100.35C53.6308 94.6599 50.9908 90.0698 47.9508 78.9098C47.8008 78.3498 52.4208 61.6199 52.9508 60.8199" fill="#FAAD23"/>
<path d="M54.2003 61.0599C55.6203 58.9199 58.3503 56.4599 60.7403 55.5299C60.9503 55.4499 77.6303 51.9799 77.7403 51.9899L93.0703 61.2599C94.8803 62.7599 96.5003 65.7099 97.0603 67.9799C97.1603 68.3799 96.0403 86.2099 95.8803 86.6899C94.7503 90.1499 90.3703 93.1599 87.9503 95.8799C87.8503 95.9899 71.9603 103.39 67.7203 101.02C66.9803 100.6 54.3803 91.4199 54.1003 91.0899C51.5903 88.1299 50.4203 82.8099 49.1803 79.1399C49.0303 78.6899 53.7103 61.7799 54.2003 61.0499" fill="#FBAD23"/>
<path d="M55.4607 61.2698C56.5007 59.6898 58.4808 57.8299 60.2608 57.1999C60.8508 56.9899 77.2308 53.4498 77.4408 53.4898L92.8708 62.9199C94.2108 63.9599 95.3408 66.1399 95.7508 67.7899C95.8408 68.1599 94.7108 86.3398 94.5908 86.4998C92.7908 88.7498 90.8508 92.3999 88.3208 93.7899C88.0808 93.9199 69.9707 100.16 69.8607 100.15C69.2707 100.07 55.3607 90.0698 54.3607 88.9998C52.2307 86.7198 51.5107 82.2898 50.4307 79.3698C50.2707 78.9298 54.9707 62.0299 55.4607 61.2899" fill="#FBAD23"/>
<path d="M56.7205 61.4898C57.4105 60.4398 58.7205 59.1498 59.9205 58.7598C60.4305 58.5998 77.0105 54.9698 77.1405 54.9898L92.6605 64.5798C93.5005 65.1998 94.1805 66.5698 94.4305 67.5798C94.5205 67.9498 93.4005 86.1398 93.2805 86.2898C91.9605 87.9498 90.5705 90.6898 88.6805 91.6598C88.4205 91.7998 70.0105 98.2498 69.9305 98.2398C69.6105 98.1898 55.3205 87.5598 54.6405 86.8598C52.9905 85.1698 52.4805 81.7898 51.6905 79.5598C51.5305 79.1198 56.2505 62.2198 56.7405 61.4798" fill="#FBAD23"/>
<path d="M57.9905 61.7099C59.8205 58.9299 76.6905 56.4999 76.8305 56.5199C76.9705 56.5399 92.6006 65.3999 93.0906 67.3899C93.1806 67.7599 92.0706 85.9499 91.9506 86.0999C91.1106 87.1599 90.2405 88.9599 89.0205 89.5299C88.4405 89.7999 70.3206 96.2699 70.1906 96.2599C69.8706 96.2099 55.8806 85.6599 54.9106 84.7399C53.7506 83.6399 53.4606 81.2999 52.9206 79.7899C52.7906 79.4099 57.5705 62.3399 57.9905 61.7099Z" fill="#FCAE23"/>
<path d="M58.8408 63.2799C59.0008 62.8699 59.1408 62.2399 59.4908 61.9599C59.5608 61.9099 76.4408 58.0299 76.5308 58.0499L90.8008 67.0299C91.7408 68.5499 91.6008 84.5999 90.6308 85.8999C90.2808 86.3699 89.9108 87.1599 89.3708 87.3799C88.0908 87.9099 70.6008 94.2699 70.4708 94.2599C70.1508 94.2099 57.0408 84.1799 55.2308 82.5999C54.6008 82.0499 54.4908 80.7999 54.2008 80.0099C54.0808 79.6999 58.1708 64.9999 58.8508 63.2799" fill="#FCAE23"/>
<path d="M55.801 78.8799C56.371 77.1599 62.8511 62.8399 63.1711 62.5799C63.2211 62.5399 76.161 59.5799 76.241 59.5899C80.001 60.2499 84.9911 63.1499 87.0111 66.3899C87.1411 66.5999 88.8311 85.4399 88.7311 85.5899C88.6811 85.6699 70.8811 92.2399 70.7611 92.2199C70.4311 92.1699 57.381 82.0399 55.581 80.4399C55.231 80.1199 55.651 79.3199 55.801 78.8699" fill="#FCAE24"/>
<path d="M66.9307 63.2099C69.1007 61.4799 73.2107 60.6799 75.9407 61.1599C78.5307 61.6099 81.9707 63.6299 83.3507 65.8699C83.4107 65.9699 85.1107 84.9599 85.0607 85.0399L71.0607 90.1999C70.8707 90.1699 58.9607 80.9599 58.9207 80.8099C58.8307 80.4599 66.5407 63.5199 66.9207 63.2099" fill="#FCAE24"/>
<path d="M70.7503 63.8399C71.9303 62.8999 74.1604 62.4699 75.6404 62.7299C77.0304 62.9699 78.8703 64.0599 79.6003 65.2699L81.3203 84.4499C79.6203 87.1499 74.5103 88.6099 71.3503 88.1399C68.0803 87.6599 63.4303 84.6299 62.6303 81.4199C62.5603 81.1599 70.4403 64.0699 70.7403 63.8299" fill="#FDAE24"/>
<path d="M74.6405 64.4699C74.8105 64.3299 75.1305 64.2699 75.3505 64.3099C75.5505 64.3499 75.8105 64.4999 75.9205 64.6799L77.6105 83.8599C76.6005 85.4699 73.5605 86.3599 71.6905 86.0799C69.7505 85.7899 67.0005 83.9999 66.5105 82.1099C66.4205 81.7599 74.2605 64.7899 74.6505 64.4799" fill="#FDAF24"/>
<path d="M73.281 76.1099C73.471 78.2599 75.061 81.4399 73.921 83.2699C73.591 83.7899 72.611 84.0799 72.011 83.9899C71.371 83.8999 70.451 83.3099 70.291 82.6799C69.761 80.5799 72.371 78.0699 73.281 76.1099Z" fill="#FDAF24"/>
</g>
<mask id="mask3_627_8496" style="mask-type:luminance" maskUnits="userSpaceOnUse" x="1" y="0" width="93" height="69">
<path d="M93.9807 1.46998C92.6707 1.36998 90.9307 1.12999 89.6207 1.13999C86.7907 1.16999 83.0107 1.26998 80.2007 1.59998C73.6507 2.37998 67.7907 4.01999 64.8707 4.91999C61.6507 5.91999 57.4607 7.53999 54.3207 8.78999C52.7107 9.42999 50.6207 10.43 49.0707 11.19C41.2207 15.06 35.8607 18.76 33.9107 20.17C31.0507 22.25 27.4007 25.26 24.7107 27.56C23.3707 28.7 21.7607 30.42 20.5007 31.65C18.0007 34.09 14.9807 37.68 13.0407 40.57C11.1007 43.46 8.75067 47.4 7.09067 50.44C6.26067 51.95 5.43066 54.11 4.77066 55.7C4.10066 57.3 3.37068 59.5 2.91068 61.17C2.29068 63.47 1.59066 66.58 1.18066 68.93C8.16066 24.68 49.7107 -5.52003 93.9707 1.45997L93.9807 1.46998Z" fill="white"/>
</mask>
<g mask="url(#mask3_627_8496)">
<path d="M93.9802 1.46998C88.9002 1.08998 79.4602 0.37997 64.8802 4.92997C49.1202 9.83997 37.9802 17.23 33.9302 20.18C15.0102 33.94 4.6102 49.43 1.2002 68.94C8.1802 24.69 49.7302 -5.51002 93.9902 1.46998" fill="#DE991F"/>
<path d="M93.9806 1.4699C93.2806 1.3999 92.3406 1.30991 91.6406 1.22991C77.5106 -0.510091 56.2406 0.449891 35.1006 14.9299C51.6606 3.44989 72.5006 -1.9101 93.9706 1.4699" fill="#DE991F"/>
<path d="M17.2304 31.8298C8.59044 43.5198 4.48042 52.6698 1.56042 66.8098C1.45042 67.4498 1.30043 68.2998 1.19043 68.9298C3.40043 54.9098 9.09044 42.2898 17.2304 31.8298Z" fill="#DE991F"/>
<path d="M26.7104 21.66C38.8004 10.74 59.5804 -1.68002 89.9104 1.14998L85.3204 1.17C58.0904 3.37 13.4804 21.88 2.19043 63.88L3.87042 57.52C6.63042 49.69 11.7804 35.13 26.7004 21.65" fill="#DE991F"/>
<path d="M26.76 21.73C36.26 13.17 56.8 -0.890025 87.61 1.11997L82.91 1.32997C51.41 4.98997 14.47 24.87 2.95996 61.04L4.85995 54.79C6.92995 49.28 12.44 34.65 26.77 21.74" fill="#DE991F"/>
<path d="M26.8501 21.8C48.0301 2.78997 72.4501 0.719971 85.1201 1.17997L80.3101 1.57997C44.5001 7.01997 14.4801 29.26 3.83008 58.25L5.93008 52.11C10.6301 40.24 17.6601 30.04 26.8401 21.8" fill="#DF9A1F"/>
<path d="M15.1201 35.25C22.3601 25.04 43.4001 1.28995 82.4401 1.36995L77.5301 1.96996C43.7801 8.31996 15.9201 28.85 4.83008 55.54L6.44009 51.17C8.62009 46.37 11.0901 40.9299 15.1201 35.2399" fill="#DF9A1F"/>
<path d="M15.2604 35.3199C30.0804 14.4399 53.5704 2.17991 79.6904 1.65991L74.6904 2.4599C43.0204 9.5299 17.3204 28.3799 5.94043 52.8999L6.58041 51.2499C8.77041 46.4299 11.2504 40.9799 15.2604 35.3199Z" fill="#DF9A1F"/>
<path d="M15.43 35.41C37.7 4.36997 71.07 2.10997 77.53 1.96997L72.46 2.91998C42.37 10.43 19.2 27.22 7.20996 50.19L9.94998 44.41C11.52 41.67 13.58 37.97 15.43 35.4" fill="#E09A1F"/>
<path d="M15.6307 35.49C35.3107 8.70996 61.5307 3.21996 75.4007 2.32996L70.2807 3.42996C34.9407 13.15 17.3207 32.64 8.76074 47.28L11.7207 41.64C12.8807 39.79 14.3407 37.26 15.6307 35.5" fill="#E09B1F"/>
<path d="M15.8607 35.58C37.5507 5.60999 69.6407 2.96001 73.2307 2.76001L68.0707 4C42.2207 11.77 22.8607 25.34 10.5107 44.34L13.6907 38.85C14.3407 37.87 15.1807 36.53 15.8707 35.58" fill="#E09B1F"/>
<path d="M16.1202 35.68C35.7502 9.19999 60.0902 5.13 70.4802 3.38L65.2702 4.79999C56.6002 7.67999 30.2102 16.45 12.4502 41.4L15.8402 36.07C15.9202 35.95 16.0302 35.79 16.1102 35.68" fill="#E19B1F"/>
<path d="M16.4204 35.77C29.3904 18.38 45.6504 8.33 67.5804 4.13L62.3304 5.73999C54.6104 8.55999 31.1304 17.14 14.6104 38.46L16.4104 35.78" fill="#E19B1F"/>
<path d="M16.6604 35.85C22.9604 27.86 36.0604 11.23 64.6604 4.98999L59.3904 6.78C51.8204 9.8 31.7104 17.82 16.4004 36.23L16.6604 35.85Z" fill="#E19B1F"/>
<path d="M29.0306 22.59C42.1806 11.51 53.4606 8.32997 60.9206 6.21997L55.6406 8.22998C41.5906 14.44 31.0306 20.59 18.6406 33.63L22.6806 28.87C24.5606 26.96 26.9806 24.31 29.0306 22.58" fill="#E29C1F"/>
<path d="M29.3506 22.6799C40.4006 13.3299 50.8306 9.8299 55.8406 8.1499L50.5806 10.4599C43.8406 13.8499 32.5606 19.5299 21.3506 30.7699L25.6006 26.2099C26.7306 25.1499 28.1706 23.6699 29.3606 22.6699" fill="#E29C1F"/>
<path d="M29.69 22.7799C36.44 17.2499 43.68 13.0199 51.21 10.1799L46 12.7599C38.97 16.7099 33.42 19.8399 24.5 27.7599L28.95 23.4399C29.17 23.2399 29.46 22.9699 29.69 22.7799Z" fill="#E29C1F"/>
<path d="M30.0409 22.87C34.9909 19.19 41.1509 14.61 47.7509 11.85L42.6009 14.63C35.0709 19.22 34.9409 19.32 28.1709 24.57L30.0509 22.87" fill="#E39C1F"/>
<path d="M93.9809 1.46997C90.3809 0.989971 89.7309 0.899976 85.8809 0.599976C88.5609 0.749976 91.2709 1.03997 93.9809 1.46997Z" fill="#DE991F"/>
</g>
<path d="M144.5 74.36C140.78 74.21 137.05 74.07 133.32 73.94C133.56 70.94 133.77 67.95 133.95 64.96C135.07 41.6 115.38 27.61 90.5905 24.57C55.6105 21.35 39.9405 44.08 36.4105 59.39C44.8305 59.14 53.2705 59.02 61.7205 59.01C69.2905 59.63 63.5505 44.44 87.5605 46.5C100.62 47.8 108.33 55.19 107.36 68.01C107.23 69.7 107.09 71.39 106.94 73.08C97.4105 72.71 87.8604 72.38 78.3304 72.11C35.1004 71.36 29.2805 89.49 28.9005 100.06C28.1605 122.67 49.6404 135.19 65.4604 137.79C77.5205 139.75 92.8905 138.54 110.37 126.65C122.46 117.2 129.47 106.93 131.57 91.44C135.11 91.49 138.6 91.55 141.72 91.62C143.01 87.56 143.87 83.4 144.27 79.13C144.42 77.53 144.5 75.94 144.51 74.36H144.5ZM104.7 96.54C103.21 109.65 90.0405 118.72 77.6505 117.34C67.6905 116.25 58.9705 112.11 59.5605 102.52C60.0705 94.78 65.1505 91.08 79.3805 91.14C88.0105 91.17 96.6405 91.14 105.26 91.08C105.07 92.9 104.89 94.72 104.69 96.54H104.7Z" fill="white"/>
</svg>
