<svg width="200" height="199" viewBox="0 0 200 199" fill="none" xmlns="http://www.w3.org/2000/svg">
<path d="M99.6296 199.01C154.576 199.01 199.12 154.467 199.12 99.5199C199.12 44.5731 154.576 0.0299072 99.6296 0.0299072C44.6828 0.0299072 0.139648 44.5731 0.139648 99.5199C0.139648 154.467 44.6828 199.01 99.6296 199.01Z" fill="white"/>
<path opacity="0.4" d="M99.6296 199.01C154.576 199.01 199.12 154.467 199.12 99.5199C199.12 44.5731 154.576 0.0299072 99.6296 0.0299072C44.6828 0.0299072 0.139648 44.5731 0.139648 99.5199C0.139648 154.467 44.6828 199.01 99.6296 199.01Z" fill="#EDA32B"/>
<path d="M99.6302 189.66C149.413 189.66 189.77 149.303 189.77 99.52C189.77 49.737 149.413 9.38 99.6302 9.38C49.8473 9.38 9.49023 49.737 9.49023 99.52C9.49023 149.303 49.8473 189.66 99.6302 189.66Z" fill="white"/>
<path opacity="0.6" d="M99.6302 189.66C149.413 189.66 189.77 149.303 189.77 99.52C189.77 49.737 149.413 9.38 99.6302 9.38C49.8473 9.38 9.49023 49.737 9.49023 99.52C9.49023 149.303 49.8473 189.66 99.6302 189.66Z" fill="#FBAF1A"/>
<mask id="mask0_1083_94" style="mask-type:luminance" maskUnits="userSpaceOnUse" x="18" y="18" width="163" height="163">
<path d="M111.981 19.42C112.301 19.47 112.611 19.52 112.931 19.58C113.431 19.67 113.931 19.75 114.431 19.85C122.941 21.46 129.491 24.18 131.301 24.97C133.031 25.73 135.351 26.74 136.991 27.68C140.241 29.55 144.641 32 147.571 34.35C150.501 36.7 154.331 39.86 156.951 42.51C159.561 45.16 162.79 48.96 164.97 51.98C167.15 55 169.781 59.25 171.48 62.57C173.191 65.9 175.021 70.57 176.331 74.08C177.641 77.59 178.611 82.62 179.381 86.32C179.771 88.2 179.971 90.75 180.181 92.65C180.701 97.27 180.59 105.85 179.48 112.23C179.07 114.58 178.481 117.72 177.751 119.99C176.701 123.28 175.091 127.62 173.571 130.72C169.631 138.77 161.771 150.31 146.751 160.98C139.791 165.93 133.621 168.96 131.591 169.96C124.151 173.62 117.861 175.58 115.791 176.23C112.881 177.14 107.011 178.78 100.461 179.55C97.6505 179.88 93.8705 179.98 91.0405 180.01C89.7305 180.02 87.9905 179.78 86.6805 179.68C42.4205 172.7 12.1905 131.17 19.1605 86.93C19.6705 84.06 20.5005 80.26 21.2405 77.44C21.7305 75.55 22.5505 73.08 23.2605 71.27C26.5705 62.86 28.2105 60.25 31.9805 54.33C34.0005 51.16 37.1105 47.18 39.7605 44.53C41.0805 43.21 42.7505 41.34 44.1705 40.13C47.0005 37.7 50.8905 34.6 53.9005 32.41C56.9105 30.22 61.3705 27.97 64.6705 26.25C66.3205 25.39 68.6705 24.53 70.3805 23.79C73.8205 22.31 78.6805 21.03 82.3405 20.21C89.2205 18.67 96.1405 18.47 96.2105 18.47C99.1205 18.39 101.571 18.41 103.511 18.53C105.201 18.63 108.031 18.8 111.961 19.42H111.981Z" fill="white"/>
</mask>
<g mask="url(#mask0_1083_94)">
<path d="M111.981 19.42C80.4307 14.54 58.0807 29.3899 53.9207 32.4099C49.4807 35.6399 39.0907 43.1999 32.0007 54.3399C25.8307 64.0299 21.7507 72.4699 19.1807 86.9399C12.2007 131.18 42.4307 172.71 86.7007 179.69C91.8207 180.07 98.8407 180.6 110.591 177.68C122.481 174.73 130.411 170.59 136.781 167.26C150.191 160.26 164.501 147.01 170.821 135.76C174.861 128.56 177.001 124.09 179.131 114.31C180.231 109.26 180.951 99.54 180.201 92.64C179.491 86.09 177.311 66.1599 161.151 47.0799C148.611 32.2699 131.151 22.4399 111.991 19.3999" fill="#DE991F"/>
<path d="M128.551 23.85C124.191 22.29 123.741 22.12 120.371 21.19L118.911 20.82C118.461 20.71 117.871 20.57 117.421 20.47L116.621 20.29L115.841 20.12L115.321 20.01L114.821 19.91L114.441 19.84L114.071 19.77L113.761 19.71L113.461 19.66L113.201 19.61L112.941 19.57L112.701 19.53L112.461 19.49L112.231 19.45L112.001 19.41L111.761 19.37L111.531 19.33L111.291 19.29L111.051 19.25L110.791 19.21L110.521 19.17L110.221 19.13L109.911 19.09L109.541 19.04L109.151 18.99L108.641 18.93L108.111 18.87L107.331 18.79C107.081 18.77 106.761 18.73 106.511 18.71L105.051 18.59C104.581 18.56 103.951 18.52 103.481 18.49L99.8912 18.38C98.3912 18.4 96.3812 18.43 94.8812 18.5L88.5812 19.1C33.6612 28.73 21.5912 73.43 19.2012 86.91C12.2212 131.15 42.4512 172.68 86.7212 179.66C13.6112 166.23 -5.78877 72.34 56.2012 31.92C75.4912 19.34 117.941 6.93001 154.661 40.23L149.961 36.15C143.691 31.5 138.741 27.83 128.571 23.83" fill="#DE991F"/>
<path d="M166.701 54.46C120.111 -8.55999 32.1009 21.27 20.3409 86.65C11.5709 135.42 49.2909 174.93 88.6309 179.88L93.1009 180.04C121.491 178.76 170.041 159.21 179.481 112.23L180.251 105.63C180.541 97.42 181.291 75.63 166.691 54.46" fill="#DE991F"/>
<path d="M179.49 112.21C179.82 109.36 180.26 105.56 180.42 102.7V96.2001C179.77 88.4201 179.42 84.1301 176.54 74.7201L174.391 68.9501C140.48 -4.27992 45.6505 10.1101 24.2805 74.6801C6.63049 128.01 46.2205 175.91 90.7605 180.01L95.3505 179.99C130.62 177.14 172.06 152.69 179.36 112.98L179.48 112.23" fill="#DE991F"/>
<path d="M179.471 112.14C187.941 37.87 107.911 -7.07004 49.7206 39.28C-8.82941 85.92 25.9906 172.48 89.4006 179.72C90.9406 179.9 91.3506 179.92 93.0706 180.03L97.7706 179.82C131.461 175.9 170.081 152.85 178.691 116.36L179.461 112.13" fill="#DE991F"/>
<path d="M179.401 112.06C188.501 45.54 114.751 -8.53 51.3905 38.96C-7.85946 83.37 26.0405 171.52 89.0105 179.49C91.5505 179.81 94.2505 179.91 95.5605 179.96L100.371 179.56C137.471 173.92 169.331 149.29 177.861 119.66L179.23 113.16C179.281 112.83 179.36 112.39 179.41 112.05" fill="#DF9A1F"/>
<path d="M179.301 111.98C189.661 40.5201 107.121 -6.10996 51.2906 39.66C-10.0794 89.98 33.6606 173.43 90.4106 179.43C93.3506 179.74 94.6806 179.75 98.2306 179.79L103.141 179.19C116.251 176.72 160.301 165.38 176.841 122.87L178.461 116.49C178.711 115.14 179.091 113.34 179.281 111.98" fill="#DF9A1F"/>
<path d="M179.151 111.89C188.541 40.95 107.761 -4.91005 52.0409 39.7299C-5.31907 85.6899 27.9509 171.64 89.6509 179.1C94.0009 179.63 97.5509 179.56 100.991 179.5L105.991 178.7C121.481 175.24 159.281 163.19 175.711 125.98L177.571 119.72C178.061 117.38 178.841 114.28 179.151 111.91" fill="#DF9A1F"/>
<path d="M178.95 111.79C188.72 41.85 108.56 -3.89995 52.8204 39.79C-5.98959 85.89 27.3104 171.63 90.1604 178.85C94.4204 179.34 98.0804 179.27 103.15 179.17L108.22 178.22C129.87 172.81 158.92 159.88 174.42 128.96L176.51 122.82C177.34 119.53 178.49 115.15 178.96 111.79" fill="#E09A1F"/>
<path d="M178.721 111.69C188.421 42.0201 108.931 -3.61995 53.6408 39.88C-3.82924 85.09 29.4208 171.91 90.6708 178.6C94.8408 179.06 98.7107 179.04 105.271 178.83L110.391 177.73C139.191 169.81 160.181 154.51 172.801 132.26L173.861 129.8C175.501 125.13 177.741 118.74 178.721 111.7" fill="#E09B1F"/>
<path d="M178.44 111.58C187.88 41.85 110.27 -2.98998 54.4905 39.96C-2.53951 83.88 28.0705 168.05 88.6705 177.97C95.2705 179.05 104.11 178.57 107.44 178.39L112.601 177.15C138.73 169.3 158.33 155.35 170.85 135.69L173.531 129.88C175.291 124.85 177.48 118.6 178.43 111.58" fill="#E09B1F"/>
<path d="M178.121 111.46C187.101 43.57 110.361 -1.22997 55.5712 39.91C-2.55881 83.56 27.6612 167.56 88.9112 177.6C92.5112 178.19 102.461 179.01 110.191 177.77L115.401 176.35C124.131 173.45 150.691 164.63 168.641 139.14L171.601 133.5C173.141 130.04 176.741 121.93 178.131 111.46" fill="#E19B1F"/>
<path d="M177.771 111.34C187.601 44.5 110.411 -0.750008 56.3008 40.15C-1.34922 83.73 28.4808 167.33 89.1508 177.22C97.1008 178.52 105.151 178.45 113.091 177.02L118.341 175.41C126.071 172.59 149.581 164 166.151 142.59L169.381 137.14C172.451 130.9 175.941 123.82 177.771 111.35" fill="#E19B1F"/>
<path d="M177.531 111.27C186.001 49.56 117.831 -1.69997 57.1809 40.25C2.57089 78.02 23.2809 166.18 89.3109 176.96C95.4909 177.97 103.491 178.66 116.021 176.17L121.291 174.38C128.861 171.36 148.971 163.34 164.281 144.93L167.661 139.6C170.471 134.31 175.711 124.47 177.531 111.27Z" fill="#E19B1F"/>
<path d="M177.291 111.19C185.631 49.66 118.001 -1.48004 57.9112 40.32C-0.468819 80.94 29.2212 166.83 89.4712 176.67C99.3312 178.28 109.531 177.69 119.761 174.92L125.041 172.91C139.091 166.7 149.651 160.55 162.031 147.51L163.771 145.22C168.531 137.82 175.051 127.69 177.281 111.18" fill="#E29C1F"/>
<path d="M177.041 111.12C185.771 45.87 112.751 2.26004 58.6609 40.41C-0.449051 82.1 28.6609 166.41 89.631 176.38C105.561 178.98 117.631 175.24 124.841 173L130.101 170.69C136.841 167.3 148.121 161.62 159.331 150.38L163.251 145.52C168.131 138.02 174.811 127.75 177.041 111.12Z" fill="#E29C1F"/>
<path d="M176.771 111.04C184.591 51.8101 116.901 0.46006 59.4206 40.5001C-0.149406 81.9901 28.6306 166.07 89.7906 176.07C107.451 178.96 121.781 173.76 129.471 170.97L134.681 168.39C142.511 163.99 147.861 160.78 156.171 153.39L160.331 148.75C163.731 144.45 174.091 131.35 176.771 111.03" fill="#E29C1F"/>
<path d="M176.5 110.96C184.84 46.9099 113.11 3.49994 60.2104 40.5899C1.1004 82.0299 29.4004 165.84 89.9604 175.75C108.54 178.79 123.81 172.85 132.93 169.3L138.08 166.52C144.82 162.4 146.44 161.29 152.51 156.58L156.9 152.2C161.9 146.47 173.62 133.04 176.5 110.96Z" fill="#E39C1F"/>
<path d="M176.21 110.88C184.26 48.15 113.41 4.71998 61.3504 40.47C1.2804 81.72 29.0704 165.42 90.1204 175.42C126.16 181.32 170.38 156.27 176.21 110.88Z" fill="#E39C1F"/>
<path d="M175.9 110.79C183.83 48.0301 113.46 4.84006 61.8103 40.7801C2.66032 81.9401 30.1103 165.21 90.2803 175.08C126.19 180.97 170.19 156.02 175.9 110.8" fill="#E39D20"/>
<path d="M175.591 110.71C183.321 48.56 113.661 5.48999 62.6506 40.88C3.54056 81.9 30.5506 164.89 90.4506 174.72C126.221 180.59 169.991 155.74 175.591 110.71Z" fill="#E39D20"/>
<path d="M175.261 110.62C183.181 45.86 109.181 3.90995 58.8206 44.6099C-1.4194 93.2999 41.4206 171.7 96.6106 175.02C136.011 177.39 170.561 149.11 175.261 110.62Z" fill="#E49D20"/>
<path d="M174.92 110.53C182.54 47.14 109.29 5.27998 59.6704 44.66C4.97043 88.07 32.5804 164.4 90.7904 173.96C126.28 179.79 169.56 155.17 174.92 110.53Z" fill="#E49D20"/>
<path d="M174.561 110.44C182.071 46.8101 110.661 5.66006 60.5307 44.7201C6.4507 86.8601 33.8607 164.18 90.9607 173.57C126.301 179.38 169.321 154.88 174.571 110.44" fill="#E49E20"/>
<path d="M174.201 110.35C181.541 46.8999 110.241 6.31993 60.3308 45.5399C7.18083 87.2999 34.7108 163.88 91.1308 173.17C126.311 178.96 169.081 154.58 174.201 110.35Z" fill="#E59E20"/>
<path d="M173.821 110.26C181.101 46.2 109.461 6.50996 59.4108 46.88C8.22085 88.16 36.1708 163.68 91.3008 172.75C126.321 178.51 168.821 154.27 173.821 110.26Z" fill="#E59E20"/>
<path d="M173.43 110.16C180.53 47.0601 107.5 7.70006 58.5205 48.2301C5.60047 92.0201 40.5405 170.75 98.5405 173.02C140.81 174.68 169.81 142.36 173.43 110.16Z" fill="#E59E20"/>
<path d="M173.03 110.06C179.86 48.6601 111.55 9.04006 62.2804 45.8301C8.80037 85.7601 35.7504 162.66 91.6504 171.87C126.25 177.57 168.18 153.59 173.03 110.06Z" fill="#E69E20"/>
<path d="M172.621 109.96C179.691 53.83 114.401 6.86998 61.411 47.17C13.261 83.79 32.311 161.59 91.841 171.42C126.401 177.13 167.111 153.79 172.631 109.96" fill="#E69F20"/>
<path d="M172.26 109.88C178.8 52.79 114.36 7.09 60.8004 48.36C9.40041 87.95 37.8904 163.72 92.5004 171.01C132.02 176.29 167.8 148.87 172.27 109.89" fill="#E69F20"/>
<path d="M171.911 109.8C178.321 53.11 112.311 7.79995 59.6911 49.93C13.9111 86.59 33.9311 161.01 92.1511 170.57C130.941 176.94 167.471 149.11 171.911 109.79" fill="#E79F20"/>
<path d="M171.551 109.71C177.881 52.96 111.581 8.53999 58.8611 51.34C18.8811 83.8 32.1512 160.29 92.2912 170.18C130.231 176.42 167.261 148.16 171.551 109.71Z" fill="#E79F20"/>
<path d="M171.19 109.63C176.93 57.37 114.49 5.70997 58.0602 52.79C16.5802 87.4 36.6903 168.39 100.54 170.61C131.18 171.68 166.9 148.66 171.19 109.63Z" fill="#E7A020"/>
<path d="M170.821 109.55C176.471 57.39 113.761 6.64005 57.2707 54.26C16.6207 88.53 37.5707 168.28 100.841 170.22C131.231 171.15 166.631 148.22 170.821 109.55Z" fill="#E8A020"/>
<path d="M170.44 109.46C176.65 51.28 108.97 8.31998 57.3503 54.93C15.0403 93.13 43.6903 168.29 101.14 169.81C131.28 170.61 166.35 147.76 170.43 109.47" fill="#E8A020"/>
<path d="M170.05 109.37C175.94 53.28 107.76 10.21 58.0503 55.01C15.6003 93.27 43.9903 168.1 101.44 169.39C131.33 170.06 166.06 147.3 170.04 109.37" fill="#E8A020"/>
<path d="M169.66 109.28C175.46 53.25 107.94 10.3 58.7704 55.1C15.5704 94.47 43.2904 167.89 101.76 168.96C131.39 169.5 165.78 146.84 169.66 109.28Z" fill="#E8A020"/>
<path d="M169.261 109.2C174.921 53.56 108.071 10.79 59.4907 55.2C16.3607 94.62 43.8207 167.71 102.061 168.54C131.431 168.96 165.471 146.39 169.261 109.2Z" fill="#E9A120"/>
<path d="M168.851 109.11C174.321 54.4999 108.141 12.01 60.2111 55.29C17.6611 93.72 45.2411 167.52 102.361 168.1C131.471 168.39 165.161 145.92 168.851 109.11Z" fill="#E9A120"/>
<path d="M168.431 109.01C173.761 54.81 108.271 12.51 60.9406 55.38C17.3206 94.9 44.2206 167.29 102.661 167.65C136.281 167.85 165.171 142.1 168.431 109.01Z" fill="#E9A121"/>
<path d="M168.011 108.92C173.661 50.5 105.101 16.04 61.691 55.48C18.161 95.04 44.771 167.08 102.971 167.2C136.281 167.27 164.851 141.67 168.011 108.93" fill="#EAA121"/>
<path d="M167.581 108.83C173.081 50.8699 105.281 16.53 62.4408 55.58C19.0008 95.17 45.3308 166.85 103.271 166.74C135.711 166.67 164.561 140.7 167.581 108.83Z" fill="#EAA121"/>
<path d="M167.14 108.74C172.44 51.87 105.41 17.66 63.1905 55.68C20.3505 94.27 46.7605 166.61 103.56 166.27C139.54 166.05 164.57 136.24 167.13 108.74" fill="#EAA221"/>
<path d="M166.701 108.64C171.841 52.47 105.581 18.38 63.9606 55.78C17.7006 97.34 51.6006 166.32 103.871 165.79C139.481 165.43 164.211 135.84 166.701 108.64Z" fill="#EBA221"/>
<path d="M166.25 108.55C171.28 53.03 105.81 19.0701 64.7303 55.8901C18.4803 97.3401 52.0503 165.94 104.17 165.32C135.6 164.95 163.45 139.48 166.25 108.56" fill="#EBA221"/>
<path d="M165.79 108.45C170.59 55.02 104.98 20.7 65.5104 55.99C19.3104 97.29 52.5504 165.5 104.47 164.82C139.26 164.36 163.39 135.2 165.79 108.45Z" fill="#EBA221"/>
<path d="M165.331 108.35C170.121 54.6 106.261 20.9 66.3008 56.09C19.5608 97.25 52.5508 165.07 104.771 164.32C139.141 163.83 162.961 134.88 165.331 108.35Z" fill="#ECA321"/>
<path d="M164.861 108.25C169.721 56.2901 105.761 22.2301 67.0906 56.2001C20.4106 97.2001 53.0506 164.62 105.071 163.82C135.221 163.35 162.041 138.43 164.861 108.25Z" fill="#ECA321"/>
<path d="M164.38 108.15C165.04 101.69 166.58 68.49 131.46 49.62C106.2 36.05 79.0603 46.52 67.8903 56.31C21.2803 97.14 53.5703 164.17 105.37 163.31C135.34 162.81 161.26 138.58 164.39 108.16" fill="#ECA321"/>
<path d="M163.911 108.06C167.781 61.54 112.631 23.29 69.0109 56.19C28.8109 86.51 45.3009 153.82 94.9609 162.09C127.641 167.54 161.151 141.28 163.911 108.06Z" fill="#EDA321"/>
<path d="M163.431 107.96C167.931 52.75 102.561 26.29 68.4909 57.4299C18.9909 102.67 58.7009 164.05 105.961 162.28C139.271 161.03 161.341 133.68 163.441 107.97" fill="#EDA321"/>
<path d="M162.941 107.86C167.281 53.51 101.901 27.89 67.9408 58.74C23.0908 99.49 55.6808 163.81 106.241 161.74C139.141 160.4 160.911 133.29 162.941 107.85" fill="#EDA421"/>
<path d="M162.451 107.76C166.751 52.8501 101.341 28.2901 67.4107 60.0801C24.4707 100.31 57.3507 163.43 106.531 161.22C139.031 159.76 160.481 132.89 162.451 107.76Z" fill="#EDA421"/>
<path d="M161.961 107.66C165.901 56.32 103.711 26.08 66.9006 61.43C25.5706 101.12 58.7606 163.03 106.831 160.68C138.921 159.11 160.061 132.49 161.961 107.66Z" fill="#EEA421"/>
<path d="M161.461 107.56C165.301 56.39 103.111 27.1 66.3906 62.8C26.1006 101.97 59.6906 162.65 107.111 160.13C139.981 158.38 159.641 131.74 161.451 107.56" fill="#EEA421"/>
<path d="M160.951 107.45C164.331 61.3501 111.141 26.3901 69.5109 61.0601C33.6509 90.9201 49.9109 151.3 95.8609 158.95C130.521 164.72 158.811 136.52 160.941 107.46" fill="#EEA521"/>
<path d="M160.43 107.35C163.92 58.67 107.59 29.76 70.4603 61.19C34.4403 91.68 49.9703 150.73 96.0103 158.4C130.37 164.12 158.36 136.17 160.43 107.35Z" fill="#EFA521"/>
<path d="M159.911 107.25C162.901 64.6499 111.791 25.6299 66.751 65.3699C37.261 91.3899 49.641 150.11 96.171 157.86C130.231 163.53 157.911 135.82 159.911 107.25Z" fill="#EFA521"/>
<path d="M157.391 87.93C145.451 44.8 86.0808 35.2 61.1408 72.37C34.2208 112.48 67.7308 171.32 121.771 155.29C148.961 147.22 165.271 116.38 157.391 87.93Z" fill="#EFA521"/>
<path d="M156.791 87.8099C152.531 72.4899 137.401 54.2899 114.251 50.5499C87.3706 46.1999 68.2206 62.9799 61.8606 72.4599C35.3106 112 67.9806 165.33 113.261 156.38C153.741 148.38 163.161 110.73 156.791 87.8099Z" fill="#F0A522"/>
<path d="M156.191 87.7001C153.211 76.9401 140.601 55.4701 114.201 51.2001C86.571 46.7301 67.571 65.1001 62.581 72.5601C37.111 110.62 64.341 160.18 108.831 156.73C135.361 154.67 167.001 126.75 156.191 87.7001Z" fill="#F0A622"/>
<path d="M155.581 87.58C145.341 50.46 91.2309 35.92 63.3209 72.66C51.4209 88.33 51.1409 113.86 58.3409 126.98C74.5709 156.56 101.311 156.78 109.121 156.14C135.191 154.01 166.251 126.24 155.591 87.58" fill="#F0A622"/>
<path d="M154.961 87.46C139.981 43.58 79.3108 39.76 59.5008 81.45C36.1908 130.5 89.7408 168.05 123.531 152.39C164.091 133.59 157.851 97.94 154.971 87.45" fill="#F1A622"/>
<path d="M154.821 89.6601C154.761 89.3601 147.831 59.4701 114.051 53.1601C109.231 52.2601 84.2411 48.9901 64.9511 72.8801C39.9511 103.86 62.9011 158.96 109.671 154.94C121.041 153.96 164.801 139.27 154.821 89.6601Z" fill="#F1A622"/>
<path d="M154.73 92.4501C147.53 54.5101 94.9104 37 65.7804 73C40.2305 104.57 62.3405 158.5 109.95 154.33C128.73 152.69 162.29 132.25 154.73 92.44" fill="#F1A622"/>
<path d="M154.58 95.25C147.68 52.35 94.2504 38.9 66.6204 73.1099C41.3104 104.45 63.1304 157.9 110.23 153.71C128.13 152.12 160.61 132.77 154.58 95.24" fill="#F2A722"/>
<path d="M154.351 98.08C147.621 51.17 93.1908 41.93 67.5308 73.16C41.9208 104.33 63.3108 157.36 110.501 153.1C131.331 151.22 158.761 128.85 154.351 98.08Z" fill="#F2A722"/>
<path d="M154.061 100.93C148.681 52.84 93.9812 41.88 68.3012 73.35C43.1012 104.25 64.2612 156.74 110.781 152.47C130.111 150.7 157.231 129.24 154.061 100.92" fill="#F2A722"/>
<path d="M153.691 103.8C148.701 51.01 92.7209 44.57 69.1509 73.47C44.1509 104.12 65.0009 156.11 111.051 151.84C131.671 149.93 155.881 126.92 153.691 103.79" fill="#F2A722"/>
<path d="M149.831 86.5C133.101 44.72 73.9209 47.54 60.6509 90.75C49.7009 126.39 87.5009 165.43 126.961 146.04C135.211 141.99 163.251 120.01 149.831 86.5Z" fill="#F3A822"/>
<path d="M149.071 86.36C132.661 45.69 74.5209 48.66 61.4509 90.84C55.5109 110.01 64.6809 129.71 71.4809 135.35C83.3009 145.16 99.5009 158.59 127.021 145.24C134.621 141.55 162.431 119.48 149.071 86.36Z" fill="#F3A822"/>
<path d="M148.291 86.22C133.481 49.78 76.0908 46.65 62.2508 90.93C51.1908 126.32 88.5708 164.07 127.891 144.13C133.881 141.09 161.541 118.81 148.291 86.22Z" fill="#F3A822"/>
<path d="M147.511 86.07C133.001 50.63 76.6805 47.81 63.0605 91.01C51.9405 126.27 89.1005 163.37 128.35 143.16C128.7 142.98 162.041 121.55 147.511 86.07Z" fill="#F4A822"/>
<path d="M146.73 85.93C142.11 74.73 128.16 65.01 128.03 64.94C116.69 59.01 109.07 59.49 97.5303 60.21C97.2903 60.23 71.9303 65.77 63.8703 91.1C59.3003 105.45 62.2303 112.65 68.6403 128.43C69.4003 130.3 69.9003 131.54 85.1703 143.55C85.3303 143.68 102.71 155.81 128.79 142.17C137.46 137.64 158.7 114.99 146.71 85.92" fill="#F4A822"/>
<path d="M145.931 85.78C142.061 76.47 128.151 65.82 128.031 65.75C116.301 59.78 110.361 60.18 97.3506 61.04C97.2606 61.04 84.8106 64.57 74.4206 74.16C73.5706 74.94 65.2106 89.5699 64.7006 91.1799C60.2106 105.15 62.7606 111.52 69.5506 128.55C70.6606 131.34 83.7606 141.54 85.2506 142.69C85.4206 142.82 102.691 155.23 129.251 141.17C137.591 136.76 157.881 114.55 145.931 85.7699" fill="#F4A922"/>
<path d="M145.131 85.64C141.681 77.38 128.141 66.79 128.031 66.74C115.741 60.69 113.271 60.86 97.1509 62C97.0609 62 84.1609 66.11 75.2609 74.34C74.4609 75.08 65.9909 89.8 65.5209 91.28C61.1209 104.87 63.2109 110.21 70.1209 127.88C71.4009 131.14 85.1809 141.75 85.3209 141.85C85.4909 141.98 102.671 154.67 129.691 140.18C136.581 136.49 157.141 114.39 145.131 85.63" fill="#F5A922"/>
<path d="M144.321 85.4899C141.711 79.2399 128.131 67.7699 128.021 67.7099C119.428 63.6233 109.071 62.0366 96.951 62.95C96.861 62.95 81.4309 69.57 76.1609 74.47C75.3509 75.22 66.8309 89.9099 66.3509 91.3699C62.0209 104.63 65.3009 113.19 68.7809 122.25C71.9109 130.41 72.171 131.08 85.391 140.99C86.101 141.52 103.081 153.85 130.131 139.18C136.451 135.75 156.081 113.6 144.331 85.5" fill="#F5A922"/>
<path d="M143.51 85.35C141.74 81.13 128.11 68.76 128.01 68.71C118.87 64.5233 108.45 62.9267 96.7505 63.92C96.6605 63.92 79.5005 72.31 77.0605 74.6C76.2405 75.37 67.3905 90.53 66.9805 91.86C56.2505 126.83 92.2505 160.49 130.21 138.33C130.32 138.27 141.4 130.63 144.86 116.87C147.24 107.38 149.3 99.18 143.51 85.35Z" fill="#F5A922"/>
<path d="M142.681 85.2C141.831 83.16 128.081 69.7499 127.981 69.7099C118.361 65.4766 107.881 63.8733 96.5407 64.8999C96.2007 64.9299 78.3307 74.38 77.9807 74.72C77.1507 75.5 68.2007 90.6699 67.8007 91.9899C56.5707 128.33 95.4606 157.65 128.981 138.12C136.681 133.63 154.231 112.76 142.681 85.2099" fill="#F6A922"/>
<path d="M141.98 85.45C141.53 84.2 128.07 70.7499 127.96 70.7099C118.08 66.4699 107.544 64.8599 96.3502 65.8799C96.1502 65.8999 75.2703 71.0499 68.6403 92.0999C64.6703 104.7 67.4302 112.21 71.2402 122.61C72.8002 126.85 74.1402 129.48 85.6202 138.37C85.8002 138.51 105.21 151.08 127.74 137.89C128.86 137.24 154.98 121.44 141.98 85.45Z" fill="#F6AA23"/>
<path d="M141.871 87.74C137.641 75.42 117.711 65.38 112.871 65.68C100.351 66.4533 89.5811 69.6 80.5611 75.12C77.2811 77.12 69.9111 90.83 69.4811 92.22C62.8111 113.61 74.5011 128.53 85.4811 137.28C88.3911 139.6 107.211 148.98 126.501 137.67C127.611 137.02 153.451 121.4 141.881 87.74" fill="#F6AA23"/>
<path d="M141.721 90.05C135.361 71.17 112.971 66.61 112.761 66.62C102.401 66.95 78.1306 67.73 70.3106 92.34C69.4006 95.21 66.7406 105.46 70.7706 116.99C74.3406 127.18 79.1406 131.13 85.7806 136.59C87.9006 138.33 107.221 147.94 125.211 137.45C137.731 130.15 149.571 113.35 141.721 90.06" fill="#F7AA23"/>
<path d="M141.541 92.3801C134.661 70.5701 112.871 67.5601 112.661 67.5601C96.4108 67.5801 95.9108 67.8801 83.2008 75.5001C80.9508 76.8501 72.3908 88.5501 71.1608 92.4501C70.8008 93.5801 69.3708 110.48 69.5708 111.09C74.7208 126.22 80.1408 130.81 85.8708 135.68C88.8008 138.16 108.051 146.49 123.931 137.22C143.701 125.68 145.991 106.49 141.541 92.3801Z" fill="#F7AA23"/>
<path d="M141.321 94.7299C138.281 84.7499 136.941 83.0999 127.811 74.7899C127.691 74.6799 112.711 68.5299 112.551 68.5199C97.4307 68.0499 95.4607 69.2199 84.5307 75.7099C82.3607 76.9999 73.2707 88.5299 72.0007 92.5899C71.6507 93.7099 70.2307 110.43 70.4207 111.23C71.9607 117.87 80.6707 130.17 80.7407 130.23C95.4307 143.12 112.751 142.77 122.631 137C147.491 122.47 143.221 100.98 141.321 94.7299Z" fill="#F7AB23"/>
<path d="M141.061 97.09C137.601 85.32 137.231 84.96 127.761 75.82C127.651 75.71 112.621 69.49 112.441 69.48C98.3708 68.57 94.1908 71.03 85.8708 75.91C85.0108 76.41 74.2508 88.3 72.8508 92.71C72.5308 93.73 71.1008 110.63 71.2708 111.35C72.2208 115.22 82.0408 130.37 82.1208 130.44C93.6408 140.91 112.021 142.19 121.311 136.78C121.441 136.71 135.431 126.63 137.691 122.09C138.811 119.83 144.261 108.01 141.061 97.1" fill="#F7AB23"/>
<path d="M140.761 99.47C137.281 86.63 133.281 82.54 130.061 79.26C124.561 73.64 112.431 70.45 112.331 70.44C112.201 70.42 95.3411 71.86 95.1511 71.9C92.5211 72.49 89.5911 74.81 87.2211 76.1C86.6911 76.39 75.8411 89.28 74.7411 90.93C71.9811 95.08 72.1111 111.34 72.1411 111.46C72.2411 111.93 82.9811 130.03 83.5111 130.64C83.6211 130.76 95.9011 142.49 116.251 138.05C122.211 136.75 135.751 123.75 136.901 121.93C136.971 121.82 142.951 107.56 140.761 99.46" fill="#F8AB23"/>
<path d="M140.431 101.87C139.801 99.44 133.661 84.16 133.051 83.51C123.501 73.2 112.331 71.44 112.221 71.42C112.101 71.4 99.7009 69.95 88.5909 76.32C87.8809 76.73 74.9809 92.13 74.6509 92.97C74.3709 93.68 73.1909 110.97 73.3809 111.65C73.4909 112.05 84.6109 130.54 84.9309 130.86C90.8809 136.72 111.021 140.77 118.671 136.31C120.141 135.45 135.611 122.56 136.101 121.79C136.171 121.68 141.461 105.76 140.451 101.87" fill="#F8AB23"/>
<path d="M131.751 83.2801C126.991 76.3101 113.621 72.7701 112.111 72.3901C112.051 72.3701 95.0212 73.9201 94.7612 73.9701C88.1312 75.1401 75.9512 92.9701 75.8812 93.1401C75.6312 93.7601 74.4512 111.23 74.6212 111.83C74.7212 112.2 85.9912 130.72 86.3312 131.07L101.281 137.01C101.391 137.03 116.581 136.5 117.301 136.08C118.681 135.28 133.501 123.09 134.921 121.58C136.251 120.18 136.331 117.29 136.841 115.43C137.811 111.87 140.401 107.14 139.831 103.49C139.521 101.56 132.881 84.9401 131.751 83.2801Z" fill="#F8AB23"/>
<path d="M130.431 83.0501C126.701 77.6101 112.121 73.4001 111.981 73.3701C111.901 73.3501 94.8112 74.9601 94.5612 75.0101C89.6012 75.9701 77.1912 93.1601 77.1312 93.3201C76.8912 93.9201 75.7212 111.39 75.8812 112.01C75.9412 112.26 86.2612 129.28 86.5012 129.52C92.1112 135.33 109.641 138.42 117.261 134.93C118.041 134.57 133.151 122.15 133.761 121.36C136.141 118.27 136.431 112.65 137.391 108.87C137.811 107.2 139.131 104.93 138.681 103.27C137.871 100.24 131.481 84.5501 130.441 83.0401" fill="#F9AC23"/>
<path d="M129.11 82.83C126.57 79.14 111.99 74.3901 111.86 74.3701C111.77 74.3501 94.6003 76.0201 94.3603 76.0701C91.6303 76.6401 78.4403 93.36 78.3803 93.52C78.1503 94.1 76.9903 111.57 77.1403 112.21C77.1903 112.44 86.4403 127.75 86.6603 127.96C92.8703 134.26 107.78 138.02 117.72 133.43C118.36 133.13 132.24 121.67 132.57 121.17C132.58 121.15 135.02 114.15 137.51 103.08C137.66 102.4 130.21 84.42 129.12 82.83" fill="#F9AC23"/>
<path d="M127.77 82.6001C127.11 81.6401 111.86 75.38 111.73 75.36C111.62 75.34 94.3803 77.07 94.1603 77.12C93.7603 77.21 79.9203 93.0201 79.6403 93.7001C79.4103 94.2601 78.2703 111.73 78.4103 112.39C78.4403 112.52 86.7003 126.24 86.8303 126.37C88.2703 127.8 99.5903 134.02 101.83 134.42C103.76 134.76 116.13 132.85 118.17 131.9C118.67 131.67 131.13 121.33 131.36 120.95C131.67 120.46 135.15 108.83 136.31 102.86C136.44 102.17 128.86 84.17 127.76 82.59" fill="#F9AC23"/>
<path d="M127.201 83.85C125.291 81.53 111.731 76.38 111.621 76.36L97.841 77.73C96.591 78 94.731 78.21 93.811 79.09C92.351 80.49 81.161 93.33 80.941 93.86C80.721 94.39 79.571 111.88 79.711 112.58C79.731 112.7 86.911 124.66 87.021 124.77L102.021 133.54C102.091 133.55 118.541 130.39 118.631 130.35C119.011 130.17 130.001 121.01 130.171 120.74C130.771 119.74 134.481 106.21 135.141 102.65C135.261 102.02 127.991 84.8 127.211 83.84" fill="#FAAC23"/>
<path d="M127.01 85.9C123.48 81.55 111.6 77.4 111.49 77.36C108.67 76.52 104.62 77.8 101.73 78.33C99.1504 78.8 95.4904 79.48 93.4504 81.12C92.8704 81.59 82.3704 93.69 82.2104 94.07C82.0404 94.5 80.9004 112.15 81.0104 112.77C81.6304 116.35 84.5704 120.66 87.2204 123.15L102.34 132.09C102.41 132.1 118.99 128.83 119.08 128.79C119.35 128.66 128.85 120.71 128.95 120.52C129.56 119.43 133.29 105.91 133.93 102.43C134.02 101.94 127.62 86.64 127.01 85.89" fill="#FAAD23"/>
<path d="M126.801 87.9799C125.421 86.2599 121.581 82.7399 111.361 78.3799C109.771 77.6999 107.341 78.7099 105.631 78.9599C101.771 79.5199 96.5211 80.8899 93.3211 83.1099C92.6311 83.5899 83.721 93.7099 83.491 94.2699C83.331 94.6699 82.211 112.32 82.301 112.97C82.721 115.93 85.191 119.51 87.401 121.53L102.631 130.63C102.701 130.64 119.411 127.26 119.501 127.21C122.401 125.81 126.211 123.15 127.711 120.31C128.351 119.1 132.091 105.58 132.711 102.23C132.781 101.86 127.251 88.5399 126.801 87.9699" fill="#FAAD23"/>
<path d="M126.571 90.07C126.481 89.96 114.971 79 109.491 79.58C109.321 79.6 92.8607 85.19 92.7207 85.28C89.6007 87.16 86.1707 91.11 84.7907 94.48C84.6207 94.89 83.5207 112.37 83.6107 113.18C83.8707 115.51 85.8507 118.34 87.6007 119.9L102.931 129.17C103.001 129.18 119.831 125.68 119.931 125.64C127.701 121.85 129.121 114.72 131.491 102.04C132.201 98.23 128.971 93.13 126.571 90.09" fill="#FBAD23"/>
<path d="M126.321 92.17C126.021 91.79 111.301 80.98 111.021 80.94C110.921 80.93 92.8111 87.16 92.5711 87.29C89.9911 88.71 87.6411 92.16 86.0911 94.66C85.9611 94.86 84.8711 112.52 84.9311 113.37C85.0511 115.06 86.6211 117.03 87.8111 118.24L103.241 127.67C103.341 127.69 120.131 124.11 120.351 124.02C122.111 123.34 124.381 121.67 125.151 119.95C126.021 117.99 130.311 102.74 130.251 101.81C130.041 98.6999 128.241 94.64 126.321 92.17Z" fill="#FBAD23"/>
<path d="M126.05 94.2901C125.75 93.9001 111.03 82.95 110.76 82.91C110.67 82.9 92.2704 89.35 92.0104 89.49C90.1204 90.46 88.5904 93.1 87.4104 94.86C87.2904 95.04 86.2304 112.35 86.2604 113.57C86.2904 114.61 87.3004 115.82 88.0304 116.57L103.55 126.16C103.68 126.18 120.42 122.52 120.77 122.39C121.95 121.96 123.5 120.84 123.97 119.67C124.87 117.39 129.07 102.36 129.02 101.59C128.86 99.23 127.51 96.1601 126.07 94.2901" fill="#FBAD23"/>
<path d="M125.761 96.4299C125.391 95.9399 110.831 84.9499 110.481 84.8999C110.351 84.8799 92.2306 91.36 91.6506 91.63C90.4206 92.2 89.5206 93.98 88.7106 95.07C88.6206 95.19 86.6106 113.24 88.2306 114.9L103.831 124.65C103.941 124.67 120.771 120.89 121.151 120.76C124.401 119.65 127.751 101.55 127.741 101.38C127.631 99.78 126.721 97.7099 125.751 96.4299" fill="#FCAE23"/>
<path d="M125.451 98.5799C125.081 98.0899 110.551 86.96 110.211 86.91C110.081 86.89 92.5907 93.25 91.3107 93.79C90.7707 94.01 90.4007 94.8099 90.0507 95.2699C89.1407 96.4899 89.0007 112.71 89.8907 114.13L104.151 123.11C104.241 123.13 121.121 119.25 121.191 119.2C122.121 118.46 126.461 101.33 126.491 101.16C126.661 100.34 125.961 99.2499 125.461 98.5799" fill="#FCAE23"/>
<path d="M125.121 100.74C124.751 100.24 110.291 89 109.941 88.95C109.821 88.93 91.9808 95.48 91.9308 95.56C91.8808 95.64 93.5108 114.6 93.5708 114.71C95.5808 117.97 100.571 120.9 104.351 121.51C104.571 121.55 117.341 118.69 117.491 118.58C117.621 118.48 125.681 101.52 125.111 100.74" fill="#FCAE24"/>
<path d="M109.61 90.96L95.6105 96.13C95.5605 96.21 97.2605 115.19 97.3205 115.3C98.6905 117.54 102.13 119.55 104.72 120C107.45 120.48 111.57 119.68 113.73 117.95C114.02 117.72 121.8 100.62 121.74 100.36C121.7 100.21 109.79 90.99 109.6 90.97" fill="#FCAE24"/>
<path d="M109.311 93.02C106.151 92.56 101.041 94.02 99.3408 96.72L101.071 115.9C101.801 117.11 103.641 118.2 105.031 118.44C106.511 118.7 108.741 118.27 109.921 117.33C110.211 117.1 118.101 100.01 118.031 99.75C117.221 96.55 112.571 93.51 109.311 93.03" fill="#FDAE24"/>
<path d="M108.99 95.09C107.11 94.82 104.07 95.7 103.07 97.31L104.76 116.49C104.86 116.66 105.12 116.82 105.32 116.85C105.53 116.89 105.85 116.83 106.02 116.69C106.22 116.53 114.28 99.29 114.23 99.11C113.75 97.21 110.99 95.44 109.05 95.14C109.02 95.14 109.01 95.09 108.98 95.09" fill="#FDAF24"/>
<path d="M108.671 97.1701C108.061 97.0801 107.081 97.3701 106.761 97.8901C105.621 99.7201 107.221 102.9 107.401 105.05C108.301 103.08 110.931 100.58 110.391 98.4801C110.231 97.8501 109.311 97.2601 108.671 97.1701Z" fill="#FDAF24"/>
</g>
<mask id="mask1_1083_94" style="mask-type:luminance" maskUnits="userSpaceOnUse" x="18" y="86" width="162" height="95">
<path d="M179.49 112.23C178.79 115.65 177.93 120.27 176.63 123.51C175.99 125.11 175.25 127.31 174.47 128.85C172.91 131.93 170.71 135.99 168.83 138.88C166.95 141.77 164.05 145.49 161.62 147.98C160.39 149.24 158.82 150.99 157.51 152.16C154.87 154.52 151.34 157.66 148.48 159.74C144.93 162.32 140.56 165.38 133.47 169.03C128.59 171.55 122.69 174.02 117.69 175.64C116.13 176.14 114.05 176.82 112.45 177.21C109.41 177.94 105.35 178.93 102.25 179.33C99.4003 179.7 95.5603 179.98 92.6803 180.05C90.8803 180.09 88.4803 179.89 86.6903 179.7C42.4303 172.72 12.2003 131.19 19.1703 86.95C18.9403 88.93 18.4703 91.5499 18.4003 93.5399C18.2603 97.4299 18.0003 102.65 18.4703 106.52C18.9303 110.3 19.6403 115.35 20.5603 119.05C21.4703 122.7 22.9703 127.52 24.5303 130.95C26.0803 134.35 28.2803 138.84 30.2303 142.02C32.1803 145.19 35.1103 149.23 37.5203 152.07C39.9303 154.91 43.4303 158.47 46.2403 160.91C49.0503 163.35 53.0103 166.47 56.2403 168.35C57.8703 169.3 59.9903 170.64 61.6703 171.48C64.1603 172.73 67.5103 174.34 70.1103 175.31C71.7303 175.91 74.7403 177.03 78.2903 177.97C83.3303 179.3 87.1303 179.82 87.1403 179.82C87.2103 179.82 87.3103 179.85 87.3803 179.86C87.5503 179.89 87.7103 179.91 87.8803 179.93C88.5603 180.03 90.1903 180.23 91.3403 180.35C93.5103 180.57 95.1803 180.64 95.1903 180.64C97.3603 180.71 100.25 180.73 102.42 180.69C104.73 180.65 107.79 180.25 110.09 180.03C113.83 179.67 118.73 178.45 122.34 177.39C129.15 175.38 139.42 171.26 149.73 163.08C152.65 160.76 156.22 157.27 158.86 154.63C160.19 153.31 161.71 151.31 162.93 149.89C165.39 147.03 168.06 142.72 169.97 139.46C171.9 136.15 174.1 131.5 175.36 127.89C176 126.05 176.89 123.6 177.38 121.72C178.12 118.9 178.95 115.1 179.46 112.24L179.49 112.23Z" fill="white"/>
</mask>
<g mask="url(#mask1_1083_94)">
<path d="M179.49 112.23C177.83 120.3 176.4 127.27 168.83 138.87C165.19 144.45 157.93 152.86 148.49 159.73C128.89 173.98 105.22 181.62 86.6999 179.69C42.4399 172.71 12.2098 131.18 19.1798 86.9399C18.4698 93.0099 17.6699 99.8799 18.4799 106.51C19.1299 111.82 20.3299 121.69 24.5399 130.94C26.9499 136.23 30.2498 143.47 37.5298 152.06C46.4198 162.55 55.8498 168.11 56.2498 168.34C63.2498 172.42 79.6499 181.98 103.82 180.62C125.02 179.42 140.5 170.42 149.76 163.07C161.76 153.55 167.75 143.31 170 139.46C176.69 128.02 178.73 116.55 179.49 112.23Z" fill="#DE991F"/>
<path d="M19.1795 86.9399C13.6295 134.58 41.8595 163.82 70.1195 175.31L73.5495 176.54C74.9695 176.98 76.8695 177.57 78.3095 177.97L79.7695 178.34C80.2195 178.45 80.8096 178.59 81.2596 178.69L82.0595 178.87C82.2895 178.92 82.6095 178.99 82.8395 179.04L83.3595 179.15L83.8595 179.25L84.2395 179.32L84.6095 179.39L84.9196 179.45L85.2195 179.5L85.4796 179.55L85.7395 179.59L85.9796 179.63L86.2195 179.67L86.4496 179.71L86.6795 179.75L86.9196 179.79L87.1495 179.83L87.3896 179.87L87.6295 179.91L87.8896 179.95L88.1595 179.99L88.4595 180.03L88.7695 180.07L89.1396 180.12L89.5295 180.17L90.0396 180.23L90.5695 180.29L91.3495 180.37C91.5995 180.39 91.9196 180.43 92.1696 180.45L93.6295 180.57C94.0995 180.6 94.7296 180.64 95.1996 180.67L98.7896 180.78C100.29 180.76 102.3 180.73 103.8 180.66L110.1 180.06C118.25 178.63 118.41 178.6 122.67 177.32L116.75 178.89C109.02 180.29 101.02 181.74 86.6795 179.73C42.4195 172.75 12.1895 131.22 19.1595 86.9799" fill="#DE991F"/>
<path d="M179.49 112.23C168.64 165.06 112.55 180.81 88.6299 179.88L89.0399 179.93C113.15 182.6 133.83 176.41 152.26 161.01L156.82 156.78C170.01 142.52 175.73 131.28 179.49 112.24" fill="#DE991F"/>
<path d="M174.46 130.29C175.78 127.03 177.59 122.56 179.37 112.96L178.13 118.67C163.27 165.74 111.91 180.49 90.7695 179.99L91.5595 180.06C133.33 183.99 163.3 157.89 174.47 130.28" fill="#DE991F"/>
<path d="M174.47 130.2C175.32 128.1 177.08 123.74 178.7 116.36L177.16 121.96C159.63 168.66 109.32 179.81 93.0703 180.03L94.2403 180.11C129.29 182.35 161.53 162.3 174.48 130.2" fill="#DE991F"/>
<path d="M177.85 119.67C162.3 166.3 111.96 179.15 95.5498 179.97L97.0898 180.02C137.02 179.71 167.21 157.15 177.85 119.66" fill="#DF9A1F"/>
<path d="M176.849 122.87C158.259 170.25 108.099 178.6 98.2295 179.79H99.9195C144.309 178.24 168.769 149.37 176.849 122.87Z" fill="#DF9A1F"/>
<path d="M175.699 125.97C156.759 167.89 113.719 177.53 100.979 179.49H101.649C126.769 179.16 161.239 164.96 175.689 125.97" fill="#DF9A1F"/>
<path d="M174.419 128.97C155.439 166.06 118.259 176.44 103.149 179.19L104.079 179.17C151.579 174.65 169.099 142.56 174.419 128.97Z" fill="#E09A1F"/>
<path d="M105.28 178.82C110.02 178.66 152.23 175.99 172.8 132.25L169.91 137.23C151 164.48 124.32 174.89 105.28 178.82Z" fill="#E09B1F"/>
<path d="M107.439 178.4C120.449 176.44 150.929 171.87 170.849 135.7L167.679 140.52C152.639 159.94 132.369 172.68 107.439 178.4Z" fill="#E09B1F"/>
<path d="M110.189 177.77C120.069 176.04 150.149 170.78 168.639 139.14L165.189 143.8C159.739 150.13 143.139 169.39 110.189 177.77Z" fill="#E19B1F"/>
<path d="M113.09 177.02C127.88 174.09 149.47 167.34 166.14 142.59L162.43 147.07C157.22 152.53 141.35 169.14 113.09 177.02Z" fill="#E19B1F"/>
<path d="M116.02 176.16C143.22 170.31 157.93 154.08 164.28 144.92L160.39 149.27C155.01 154.53 140.71 168.5 116.02 176.15" fill="#E19B1F"/>
<path d="M119.76 174.93C130.22 171.84 146.04 167.16 162.03 147.52L157.96 151.73C147.57 161.14 137.55 168.3 119.76 174.94" fill="#E29C1F"/>
<path d="M124.83 173C139.73 167.91 148.43 162.2 159.32 150.38L155.05 154.41C149.21 159.26 140.4 166.59 124.83 173Z" fill="#E29C1F"/>
<path d="M129.47 170.98C139.82 166.9 148.8 160.98 156.17 153.4L151.7 157.24C145.5 161.94 140.61 165.65 129.47 170.98Z" fill="#E29C1F"/>
<path d="M132.93 169.3C138.72 166.87 147.32 161.29 152.51 156.58L147.84 160.2C143.006 163.513 138.036 166.547 132.93 169.3Z" fill="#E39C1F"/>
</g>
<mask id="mask2_1083_94" style="mask-type:luminance" maskUnits="userSpaceOnUse" x="18" y="18" width="163" height="163">
<path d="M19.1806 86.9399C19.5706 84.9899 19.9306 82.3399 20.4806 80.4299C21.5506 76.6799 22.9006 71.6299 24.5406 68.0999C26.1806 64.5699 28.3806 60.0599 30.3906 56.8199C32.4006 53.5799 35.2906 49.4999 37.8306 46.7199C40.3706 43.9399 43.8206 40.3699 46.6606 37.9399C49.4906 35.5199 53.5206 32.5799 56.6906 30.6199C59.8606 28.6599 64.2806 26.35 67.7106 24.89C71.1506 23.42 75.8606 21.69 79.5106 20.89C81.3506 20.49 83.7806 19.8699 85.6406 19.5799C88.3906 19.1599 92.0806 18.6499 94.8606 18.5399C95.9506 18.4899 97.4106 18.4299 98.5006 18.4299C99.9906 18.4299 101.981 18.4499 103.461 18.5399C108.661 18.8199 112.431 19.4999 112.451 19.5099C112.991 19.5999 113.521 19.6899 114.061 19.7899C114.911 19.9599 115.761 20.1199 116.611 20.2999C118.741 20.7599 120.351 21.1999 120.361 21.2099C122.441 21.8099 125.201 22.6799 127.251 23.3799C129.441 24.1299 132.231 25.4499 134.351 26.3699C137.801 27.8599 142.091 30.5299 145.191 32.6599C151.051 36.6699 159.561 43.7499 166.851 54.7099C168.921 57.8199 171.371 62.1699 172.941 65.5599C174.521 68.9699 176.161 73.7099 177.331 77.2799C178.681 81.3999 180.321 90.5099 180.411 96.0799C180.471 99.9999 180.301 105.24 179.921 109.14C179.631 112.05 178.931 115.91 178.191 118.75C177.201 122.52 175.641 127.49 174.131 131.08C172.651 134.59 170.411 139.2 168.281 142.36C166.181 145.48 163.301 149.61 160.841 152.46C158.401 155.29 154.851 158.81 152.011 161.24C142.701 169.2 133.871 173.03 130.971 174.29C127.541 175.78 122.791 177.37 119.171 178.29C115.521 179.22 110.541 180.04 106.791 180.43C106.231 180.49 101.181 180.98 95.2206 180.66C91.2106 180.44 87.2206 179.94 83.3606 179.17C78.6106 178.22 74.9006 177 74.8606 176.99C73.4306 176.51 71.5306 175.89 70.1306 175.34C68.3606 174.64 66.0106 173.71 64.3206 172.83C60.9806 171.1 56.5806 168.67 53.4806 166.54C50.4006 164.42 46.4506 161.35 43.8106 158.71C41.1706 156.08 37.7506 152.46 35.4606 149.53C33.1706 146.59 30.4006 142.44 28.5806 139.19C26.7606 135.92 24.6306 131.39 23.3206 127.88C22.0106 124.37 20.5706 119.5 19.8406 115.79C19.1106 112.08 18.4306 106.95 18.2706 103.12C18.1106 99.2899 18.3906 93.9599 18.7606 90.0599C19.0206 87.3799 19.6506 83.8199 20.3706 81.2299C21.2906 77.8899 22.8106 73.5099 24.2106 70.3499C25.6106 67.1899 27.9306 63.1899 29.8506 60.3199C31.7906 57.4299 34.7306 53.8099 37.0606 51.2199C39.3906 48.6299 42.8606 45.3899 45.5606 43.1199C48.2706 40.8399 52.0906 38.0299 55.0506 36.0799C62.2106 31.3699 68.4006 28.5799 70.4406 27.6599C72.0006 26.9499 74.1006 26.0299 75.7106 25.4599C78.8406 24.3399 83.0406 22.9299 86.2306 22.0099C89.2306 21.1399 93.3506 20.43 96.4306 19.89C97.8806 19.63 99.8506 19.4899 101.311 19.3499C102.711 19.2099 104.591 19.15 106.001 19.17C107.801 19.2 110.201 19.3299 111.991 19.5199C67.7306 12.5399 26.1806 42.7399 19.2006 86.9899L19.1806 86.9399Z" fill="white"/>
</mask>
<g mask="url(#mask2_1083_94)">
<path d="M19.1807 86.94C20.3807 80.95 21.7307 74.16 24.5407 68.1C26.7907 63.25 30.9707 54.22 37.8307 46.72C41.7507 42.43 47.1207 36.55 56.6907 30.62C68.3807 23.38 79.0607 20.99 79.5107 20.89C87.4307 19.16 105.971 15.11 128.551 23.85C148.351 31.51 160.311 44.85 166.861 54.69C179.111 73.11 180.331 91.01 180.411 96.06C180.481 100.4 180.631 109.43 178.191 118.73C174.881 131.35 170.561 138.94 168.281 142.34C163.441 149.55 153.381 164.55 130.961 174.26C122.451 177.95 104.951 183.48 83.3507 179.13C51.5907 172.73 26.0607 147.26 19.8207 115.75C11.6307 74.37 34.4507 49.56 55.0307 36.03C69.3307 26.63 91.7907 17.34 111.971 19.45C67.7107 12.47 26.1607 42.67 19.1807 86.92" fill="#DE991F"/>
<path d="M29.0802 140.03C73.1502 208.92 165.99 180.68 178.4 112.51C187.28 63.7499 149.5 24.2399 110.05 19.2699C110.63 19.3299 111.4 19.4099 111.98 19.4599C90.5002 16.0699 69.6702 21.4399 53.1102 32.9199C47.1902 37.3599 42.0702 41.1899 35.2402 49.8299C27.1002 60.2999 21.4102 72.9099 19.2002 86.9299C19.5902 84.9799 20.1102 82.3699 20.5002 80.4199C35.7702 26.9299 81.2902 19.5299 94.8802 18.5299L98.5202 18.4199C100.01 18.4399 102 18.4599 103.48 18.5299L104.98 18.6199C105.44 18.6599 106.05 18.6999 106.51 18.7399L107.32 18.8199L108.11 18.8999L108.64 18.9599L109.15 19.0199L109.54 19.0699L109.91 19.1199L110.22 19.1599L110.52 19.1999L110.79 19.2399L111.05 19.2799L111.29 19.3199L111.53 19.3599L111.76 19.3999L112 19.4399L112.23 19.4799L112.46 19.5199L112.7 19.5599L112.94 19.5999L113.2 19.6399L113.46 19.6899L113.76 19.7399L114.07 19.7999L114.44 19.8699L114.82 19.9399L115.32 20.0399L115.84 20.1499L116.61 20.3099L117.41 20.4899L118.84 20.8299C119.3 20.9499 119.91 21.0999 120.36 21.2199L123.81 22.2199C125.23 22.6999 127.13 23.3499 128.54 23.8699L134.35 26.3799C183.64 52.4499 181.35 98.6999 179.48 112.25L178.18 118.76C162.91 172.25 117.39 179.65 103.81 180.64L100.17 180.75C98.6802 180.73 96.6902 180.71 95.2102 180.64L93.7102 180.55C93.2502 180.51 92.6402 180.47 92.1802 180.43L91.3702 180.35L90.5802 180.27L90.0502 180.21L89.5402 180.15L89.1502 180.1L88.7802 180.05L88.4702 180.01L88.1702 179.97L87.9002 179.93L87.6402 179.89L87.4002 179.85L87.1602 179.81L86.9302 179.77L86.6902 179.73L86.4602 179.69L86.2302 179.65L85.9902 179.61L85.7502 179.57L85.4902 179.53L85.2302 179.48L84.9302 179.43L84.6202 179.37L84.2502 179.3L83.8702 179.23L83.3702 179.13L82.8502 179.02L82.0802 178.86L81.2802 178.68L79.8502 178.34C79.3902 178.22 78.7802 178.07 78.3302 177.95L74.8802 176.95C73.4602 176.47 71.5602 175.82 70.1502 175.3L64.3402 172.79C52.2402 166.39 38.3302 157.67 26.5002 135.17L29.1002 140.03" fill="#DE991F"/>
<path d="M19.5604 84.8099C18.8404 89.0199 17.6404 96.0699 18.5004 106.66L18.1904 100.22C18.4704 91.5999 18.4804 91.4399 19.1804 86.9299C19.2904 86.2899 19.4404 85.4399 19.5504 84.8099" fill="#DE991F"/>
<path d="M52.8805 165.92C110.871 206.5 190.1 157.27 179.41 87.2899C175.4 61.0599 155.341 27.5699 111.981 19.4699C109.271 19.0399 106.571 18.7499 103.881 18.5999C102.171 18.5599 99.8905 18.4999 98.1905 18.4599C91.2205 18.7299 81.6805 19.11 67.6605 24.92L73.4705 22.6899C80.8905 20.4799 84.9805 19.2699 94.8605 18.5399L98.5005 18.4299C99.9905 18.4499 101.981 18.4699 103.461 18.5399L104.961 18.6299C105.421 18.6699 106.031 18.7099 106.491 18.7499L107.301 18.8299L108.091 18.9099L108.621 18.9699L109.131 19.0299L109.521 19.0799L109.891 19.1299L110.201 19.17L110.501 19.2099L110.771 19.2499L111.031 19.2899L111.271 19.3299L111.511 19.3699L111.741 19.4099L111.981 19.45L112.211 19.4899L112.441 19.5299L112.681 19.5699L112.921 19.6099L113.181 19.6499L113.441 19.7L113.741 19.7499L114.051 19.8099L114.421 19.8799L114.801 19.95L115.301 20.0499L115.821 20.1599L116.591 20.3199C116.831 20.3699 117.151 20.4399 117.391 20.4999L118.821 20.8399C119.281 20.9599 119.891 21.11 120.341 21.2299L123.79 22.2299C125.21 22.7099 127.111 23.3599 128.521 23.8799L134.331 26.39C183.621 52.46 181.331 98.7099 179.461 112.26L178.16 118.77C162.89 172.26 117.371 179.66 103.791 180.65L100.151 180.76C98.6605 180.74 96.6705 180.72 95.1905 180.65L93.6905 180.56C93.2305 180.52 92.6205 180.48 92.1605 180.44L91.3505 180.36L90.5605 180.28L90.0305 180.22L89.5205 180.16L89.1305 180.11L88.7605 180.06L88.4505 180.02L88.1505 179.98L87.8805 179.94L87.6205 179.9L87.3805 179.86L87.1405 179.82L86.9105 179.78L86.6705 179.74L86.4405 179.7L86.2105 179.66L85.9705 179.62L85.7305 179.58L85.4705 179.54L85.2105 179.49L84.9105 179.44L84.6005 179.38L84.2305 179.31L83.8505 179.24L83.3505 179.14L82.8305 179.03L82.0605 178.87C81.8205 178.82 81.5005 178.75 81.2605 178.69L79.8305 178.35C79.3705 178.23 78.7605 178.08 78.3105 177.96L74.8605 176.96C73.4405 176.48 71.5405 175.83 70.1305 175.31L64.3205 172.8C56.1705 168.49 50.6205 165.29 42.2705 157.19L46.3805 160.92C48.3105 162.45 50.8705 164.51 52.8905 165.92" fill="#DE991F"/>
<path d="M107.91 19.1499C176.06 25.4199 203.49 116.07 150.44 159.72C94.0002 206.16 12.6402 164.85 18.5302 92.7599C18.8002 89.4699 19.5802 85.1299 20.1902 81.8899L21.8102 76.3199C39.8802 30.1999 91.2402 18.2799 107.91 19.1499Z" fill="#DE991F"/>
<path d="M105.611 19.1199C169.761 23.2999 208.081 112.17 149.371 159.55C93.6408 204.52 12.9808 163.37 18.6008 92.8399C18.7408 91.0699 19.1208 86.3699 20.9508 79.0399L22.8208 73.5699C43.1208 27.8899 94.0808 18.8999 105.611 19.1199Z" fill="#DE991F"/>
<path d="M103.121 19.1799C166.271 21.5499 207.261 104.63 153.031 155.22C97.641 206.9 18.5109 163.46 18.4609 99.4799C18.4609 89.6799 19.9809 83.1599 21.8409 76.2499L23.951 70.89C47.821 22.93 102.591 19.1899 103.131 19.1799" fill="#DF9A1F"/>
<path d="M100.441 19.3699C163.641 19.9499 206.781 101.54 153.861 153.47C102.311 204.05 18.8907 170.82 18.6207 99.5899C18.5707 86.4599 21.6707 77.0799 22.8307 73.5499L25.1707 68.2899C49.7607 23.6999 99.9507 19.3899 100.441 19.3699Z" fill="#DF9A1F"/>
<path d="M97.6904 19.6599C162.02 18.6199 206.35 97.9799 153.76 152.72C105.08 203.39 19.3204 169.68 18.8204 99.6799C18.7204 85.8799 22.2504 75.7599 23.9404 70.8999L26.5004 65.7499C51.6104 24.3399 97.2404 19.6999 97.6904 19.6599Z" fill="#DF9A1F"/>
<path d="M25.2103 68.1999C45.7903 31.0199 84.2303 21.8899 95.5203 19.9699L97.6404 19.9299C160.27 18.6099 204.94 96.6399 154.76 150.85C106.07 203.44 19.8204 170.99 19.0404 99.7899C18.8504 82.1499 25.1404 68.3299 25.2004 68.1999" fill="#E09A1F"/>
<path d="M26.7604 65.28C46.9404 32.56 80.0904 22.95 93.4004 20.34L95.6604 20.2699C163.6 18.4999 200.76 101.43 154.15 150.75C104.82 202.94 20.4004 171.1 19.3204 99.91C19.0204 80.22 26.4504 65.88 26.7604 65.28Z" fill="#E09B1F"/>
<path d="M28.5105 62.34C46.9405 35.39 72.8004 24.85 91.2404 20.76L93.7404 20.63C159.29 17.52 198.72 94.9 157.67 146.07C113.99 200.52 26.5105 175.36 20.0105 106.48C17.6005 80.95 28.0605 63.1 28.5105 62.35" fill="#E09B1F"/>
<path d="M30.4506 59.4C44.9706 40.18 64.5006 27.38 88.4806 21.38L89.4206 21.23C163.831 15.65 196.941 97.16 157.051 146.01C112.851 200.14 27.2106 175.44 20.2906 106.56C17.6406 80.16 29.1406 61.45 30.4606 59.4" fill="#E19B1F"/>
<path d="M32.6208 56.4499C46.6808 39.5399 64.5008 27.9899 85.5908 22.1299L87.7208 21.7499C162.921 14.5099 197.141 96.9799 156.411 145.95C112.611 198.62 27.5408 174 20.5508 106.64C18.1508 83.5099 27.0108 64.2099 32.6208 56.4499Z" fill="#E19B1F"/>
<path d="M34.4005 54.2299C39.3705 48.6599 54.4905 31.7199 82.6605 22.9899L86.0205 22.3199C161.841 13.4099 197.211 96.7899 155.741 145.88C111.321 198.47 28.0905 174.31 20.8105 106.72C18.2305 82.7399 28.1305 62.4399 34.3905 54.2299" fill="#E19B1F"/>
<path d="M34.9007 53.9299L36.6407 51.6499L40.7107 47.4399C51.1007 38.0299 61.1207 30.8599 78.9207 24.2299L81.1007 23.6399C148.951 9.15993 198.221 83.7299 158.631 140.99C120.831 195.65 35.3307 177.98 22.0807 112.76C20.1507 103.27 17.5407 78.5499 34.8907 53.9299" fill="#E29C1F"/>
<path d="M35.1504 53.9999C36.3304 52.3699 38.0304 50.2999 39.3404 48.7799L43.6104 44.7398C49.4504 39.8898 58.2604 32.5498 73.8304 26.1498L78.4505 24.7398C139.33 7.83984 192.47 72.7998 164.6 130.05C135.15 190.55 49.5804 187.42 25.8704 124.97C16.8104 101.1 20.2705 74.5699 35.1405 53.9999" fill="#E29C1F"/>
<path d="M35.4305 54.08C37.3505 51.43 40.2905 48.18 42.5005 45.76L46.9705 41.92C54.5105 36.2 59.1605 32.98 69.2105 28.18L73.9105 26.51C141.301 5.05998 190.701 75.99 164.051 129.99C135.111 188.62 50.1605 185.59 26.3305 125.08C17.1205 101.7 20.6105 74.5 35.4305 54.08Z" fill="#E29C1F"/>
<path d="M35.7103 54.1598C39.4103 49.0898 44.4903 44.1798 46.1703 42.5698L50.8403 38.9498C56.8203 34.8398 58.3403 33.8398 65.7503 29.8498L70.4603 28.0198C143.64 2.35983 188.44 80.0498 163.46 129.94C132.55 191.68 44.4103 184.9 24.7803 119.27C14.9103 86.2798 30.6503 61.0998 35.7103 54.1598Z" fill="#E39C1F"/>
<path d="M36.011 54.2499C76.371 -0.790056 160.131 20.2199 169.781 87.7999C178.811 151.1 103.111 196.01 52.381 157.45C15.391 129.33 15.011 82.8899 36.011 54.2499Z" fill="#E39C1F"/>
<path d="M36.3205 54.3299C76.3504 0.0399017 159.58 20.9599 169.24 87.7399C178.3 150.36 103.58 195.44 53.3604 157.64C14.4304 128.33 15.5205 82.5399 36.3205 54.3299Z" fill="#E39D20"/>
<path d="M36.6509 54.4199C76.3309 0.899935 159.021 21.7299 168.711 87.6799C177.871 150.09 104.151 195.33 54.3809 157.84C15.0409 128.2 15.8809 82.4399 36.6509 54.4199Z" fill="#E39D20"/>
<path d="M36.9912 54.5099C77.3012 0.459932 158.211 20.8899 168.151 87.6199C177.071 147.5 105.701 192.44 55.8412 158.34C20.6812 134.29 12.2212 87.7199 36.9912 54.5099Z" fill="#E49D20"/>
<path d="M37.3503 54.6C77.2903 1.37999 157.63 21.71 167.59 87.55C176.84 148.72 105.48 193.14 55.3003 157.45C21.0903 133.12 13.0403 86.98 37.3503 54.6Z" fill="#E49D20"/>
<path d="M37.7203 54.6898C77.2503 2.11985 157.01 22.3499 167.02 87.4799C175.5 142.68 107.62 194.72 54.8003 156.6C21.3003 132.43 13.6403 86.7099 37.7303 54.6898" fill="#E49E20"/>
<path d="M38.1004 54.7899C77.2104 2.86987 156.37 22.9899 166.42 87.4099C175.16 143.41 107.38 195.09 54.2904 155.74C17.2404 128.27 16.9604 82.8399 38.0904 54.7899" fill="#E59E20"/>
<path d="M38.5003 54.8899C77.1803 3.62991 155.72 23.6499 165.83 87.3399C174.74 143.49 107.05 194.7 53.8203 154.87C17.9903 128.06 17.9703 82.0999 38.5003 54.8899Z" fill="#E59E20"/>
<path d="M38.9105 54.9799C76.1005 4.71988 153.79 23.3299 164.87 85.1499C175.01 141.74 106.71 194.52 53.3405 153.98C21.8705 130.07 15.5305 86.5799 38.9105 54.9799Z" fill="#E59E20"/>
<path d="M37.2102 58.16C71.4702 6.10995 150.54 20.3999 163.5 80.9899C177.35 145.76 104.98 192.93 52.8802 153.08C23.2502 130.42 16.5102 89.61 37.2102 58.16Z" fill="#E69E20"/>
<path d="M33.4504 65.2799C66.2604 5.76989 143.26 20.2799 161.44 74.7899C180.83 132.92 117.88 187.44 63.8204 159.34C25.5904 139.47 17.2504 94.6599 33.4504 65.2699" fill="#E69F20"/>
<path d="M40.0304 55.2499C77.8504 5.81994 154.06 25.4699 163.58 87.0999C172.32 143.7 104.87 192.91 51.9903 151.25C19.0704 125.32 20.1504 81.2299 40.0304 55.2499Z" fill="#E69F20"/>
<path d="M40.4011 55.3299C77.8511 6.70987 153.501 26.2499 163.051 87.0199C171.791 142.64 103.261 191.78 51.5511 150.3C19.3611 124.49 20.7011 80.8999 40.4011 55.3199" fill="#E79F20"/>
<path d="M40.7909 55.4199C79.7309 5.19993 159.841 29.4999 163.251 92.5599C166.211 147.34 100.801 189.87 51.1609 149.38C23.0509 126.45 18.4009 84.2999 40.7909 55.4199Z" fill="#E79F20"/>
<path d="M41.1805 55.5099C79.7905 6.05991 159.301 30.2699 162.731 92.4999C165.761 147.52 100.471 189.6 50.8205 148.47C23.7505 126.05 19.3405 83.4799 41.1805 55.4999" fill="#E7A020"/>
<path d="M41.5911 55.5999C80.8911 5.60987 158.671 29.3699 162.201 92.4399C165.291 147.59 100.131 189.19 50.5011 147.56C23.9711 125.31 19.8911 83.1899 41.5911 55.5899" fill="#E8A020"/>
<path d="M42.0003 55.6899C80.9503 6.50988 158.12 30.1699 161.67 92.3799C164.81 147.47 99.8003 188.56 50.2003 146.65C26.9903 127.04 18.1603 85.8099 42.0103 55.6899" fill="#E8A020"/>
<path d="M42.421 55.7899C81.011 7.40994 157.561 30.9699 161.121 92.3199C164.301 146.96 99.431 187.47 49.891 145.73C27.481 126.85 18.901 85.2599 42.411 55.7799" fill="#E8A020"/>
<path d="M42.8503 55.8799C81.0703 8.25992 156.99 31.7199 160.58 92.2599C164.12 151.98 92.5603 185.89 49.6203 144.84C21.9303 118.38 24.4403 78.8299 42.8603 55.8899" fill="#E8A020"/>
<path d="M43.2903 55.9799C81.1303 8.93993 156.41 32.2899 160.03 92.1999C163.3 146.4 99.4103 186.43 50.4303 144.92C28.3003 126.17 19.9303 85.0299 43.2903 55.9899" fill="#E9A120"/>
<path d="M43.7408 56.0698C81.2008 9.60984 155.821 32.8598 159.471 92.1198C162.701 144.71 98.6408 185.2 51.3908 145.08C25.8408 123.38 22.3408 82.6198 43.7408 56.0598" fill="#E9A120"/>
<path d="M44.1902 56.17C81.2502 10.29 155.22 33.43 158.9 92.06C162.14 143.7 99.2802 184.41 52.8402 145.65C26.1902 123.4 22.3002 83.26 44.1902 56.17Z" fill="#E9A121"/>
<path d="M44.6505 56.2698C81.3205 10.9698 154.62 34.0098 158.32 91.9898C161.61 143.58 99.4105 184.2 53.3405 145.45C26.8005 123.13 22.9105 83.1198 44.6505 56.2698Z" fill="#EAA121"/>
<path d="M45.1303 56.3699C81.4003 11.6599 154.02 34.5899 157.75 91.9199C161.27 146.1 95.5703 180.24 54.3603 145.64C27.1303 122.77 23.0803 83.5599 45.1303 56.3699Z" fill="#EAA121"/>
<path d="M45.6104 56.4699C81.4504 12.0699 153.39 34.8899 157.17 91.8499C160.73 145.62 96.0504 179.92 55.3804 145.83C23.6504 119.23 26.6704 79.9399 45.6104 56.4699Z" fill="#EAA221"/>
<path d="M46.0911 56.57C81.7311 12.0799 152.971 34.7799 156.571 91.7799C159.911 144.66 96.2511 179.13 56.4111 146.02C24.4511 119.46 27.2411 80.1099 46.0911 56.5799" fill="#EBA221"/>
<path d="M46.3906 56.9399C85.4006 10.7999 152.571 40.5599 155.981 91.6999C159.391 142.93 95.8606 178.07 57.4706 146.2C35.6706 128.1 19.6806 93.8599 46.3906 56.9299" fill="#EBA221"/>
<path d="M44.4911 60.3698C71.9111 20.8398 143.881 22.8898 155.091 89.7998C161.921 130.6 109.051 179.13 59.7511 147.34C38.6911 133.76 19.2811 96.7299 44.4911 60.3799" fill="#EBA221"/>
<path d="M42.7203 63.8999C70.9403 19.5599 140.93 24.9799 153.76 85.6999C164.72 137.56 103.14 177.4 59.6303 146.59C32.3003 127.24 25.0303 91.6899 42.7203 63.8899" fill="#ECA321"/>
<path d="M41.091 67.5399C71.221 15.2099 139.411 30.5499 151.711 79.4599C165.491 134.29 110.521 175.24 61.221 146.87C37.841 133.42 23.821 97.5299 41.091 67.5399Z" fill="#ECA321"/>
<path d="M39.5907 71.29C69.6307 15.4 132.611 32.44 149.401 73.39C168.961 121.12 119.591 171.01 71.7107 151.91C38.2507 138.56 26.0907 96.42 39.5907 71.2999" fill="#ECA321"/>
<path d="M49.1509 57.1999C86.8109 14.8699 149.451 43.3298 152.961 91.3298C156.581 140.87 97.7609 173.96 59.0309 144.18C28.0409 120.35 28.9009 79.9699 49.1609 57.1999" fill="#EDA321"/>
<path d="M49.6805 57.2999C84.2405 18.7099 148.521 39.9699 152.351 91.2399C156.041 140.71 97.4905 173.35 58.8505 143.36C28.8705 120.09 29.9505 79.3299 49.6805 57.2999Z" fill="#EDA321"/>
<path d="M50.2202 57.4099C85.1702 18.4899 147.79 39.3099 151.74 91.1699C155.17 136.2 100.27 174.57 58.9302 142.7C29.2202 119.8 30.5002 79.3699 50.2202 57.4099Z" fill="#EDA421"/>
<path d="M50.7704 57.5199C85.2504 19.2299 147.15 39.9399 151.12 91.09C154.64 136.39 99.8804 174.27 58.5304 141.73C32.4704 121.22 28.8404 81.8699 50.7704 57.5199Z" fill="#EDA421"/>
<path d="M51.3307 57.6299C85.3307 19.9799 146.511 40.5699 150.511 91.0099C154.081 136.04 99.6107 173.43 58.3807 140.91C32.7907 120.72 29.5007 81.8099 51.3307 57.6299Z" fill="#EEA421"/>
<path d="M51.8904 57.7399C85.4104 20.7199 145.85 41.1899 149.88 90.9299C153.52 135.9 99.3504 172.83 58.2304 140.07C33.2004 120.12 30.2304 81.6499 51.8904 57.7399Z" fill="#EEA421"/>
<path d="M52.4609 57.8499C85.5009 21.4599 145.201 41.8099 149.251 90.8399C152.961 135.76 99.0909 172.23 58.0909 139.23C33.6209 119.53 30.9809 81.4999 52.4609 57.8499Z" fill="#EEA521"/>
<path d="M53.0408 57.9599C85.5908 22.1999 144.551 42.43 148.621 90.76C152.401 135.62 98.8408 171.63 57.9708 138.38C34.0508 118.93 31.7508 81.3499 53.0508 57.9599" fill="#EFA521"/>
<path d="M53.6203 58.0799C85.6903 22.9499 143.88 43.0599 147.97 90.6799C151.82 135.49 98.5803 171.02 57.8303 137.54C34.4703 118.35 32.5003 81.2199 53.6203 58.0799Z" fill="#EFA521"/>
<path d="M43.7805 73.8499C62.6905 31.5499 124.551 30.6899 142.571 72.4799C162.681 119.11 116.561 166.04 71.0505 145.24C40.7005 131.37 33.2605 97.3799 43.7805 73.8499Z" fill="#EFA521"/>
<path d="M44.3112 73.9599C64.6112 28.7399 125.641 34.2199 141.851 72.3899C161.521 118.73 115.831 165.26 71.0012 144.55C41.1312 130.75 33.8912 97.1699 44.3112 73.9599Z" fill="#F0A522"/>
<path d="M44.8504 74.0599C55.4404 50.5899 79.7404 42.6099 89.8504 42.4199C127.75 41.7199 141 71.9699 141.13 72.2799C162.19 121.99 111.9 162.96 70.9504 143.83C41.5804 130.11 34.5304 96.9299 44.8504 74.0499" fill="#F0A622"/>
<path d="M45.3903 74.1699C55.3403 52.2099 79.0703 43.0399 89.5603 43.0199C129.94 42.9199 140.91 73.6199 141.02 73.9299C159.36 127.57 106.93 160.13 70.9103 143.13C42.0303 129.5 35.1803 96.7199 45.3903 74.1699Z" fill="#F0A622"/>
<path d="M45.9407 74.2699C56.0707 51.9499 80.7107 43.4099 89.2807 43.5999C126.671 44.4499 138.031 66.8499 141.171 76.4399C157.121 125.05 109.361 160.77 70.8606 142.4C42.5006 128.87 35.8406 96.4999 45.9306 74.2599" fill="#F1A622"/>
<path d="M46.5006 74.3799C61.2806 41.7999 115.341 29.0099 138.691 71.9499C156.891 105.4 129.131 152.94 84.6306 145.99C49.7406 140.54 34.2406 101.41 46.5006 74.3899" fill="#F1A622"/>
<path d="M47.0607 74.4899C64.1207 36.8599 123.481 32.4099 139.991 77.6199C155.311 119.56 110.691 160.4 70.8007 140.96C46.4707 129.1 35.8207 99.2799 47.0607 74.4899Z" fill="#F1A622"/>
<path d="M47.6207 74.5999C63.3307 39.9299 115.801 32.7199 137.001 71.7099C154.871 104.59 128.091 151.41 84.7307 144.64C53.4807 139.76 34.4007 103.75 47.6207 74.5899" fill="#F2A722"/>
<path d="M48.2011 74.7099C63.7211 40.4399 115.371 33.1599 136.161 71.5899C155.701 107.7 125.461 150.31 84.801 143.97C53.361 139.06 34.8911 104.11 48.2011 74.7099Z" fill="#F2A722"/>
<path d="M48.7705 74.8199C63.6405 41.5699 115.251 34.2399 135.301 71.4699C154.561 107.24 124.861 149.53 84.8505 143.28C53.9605 138.46 35.7605 103.91 48.7705 74.8099" fill="#F2A722"/>
<path d="M49.3607 74.93C63.7007 42.39 114.311 34.9 134.271 71.12C153.911 106.74 124.851 148.83 84.9208 142.6C54.6208 137.87 36.6707 103.72 49.3607 74.93Z" fill="#F2A722"/>
<path d="M49.9909 75.0499C66.5109 41.4699 121.691 33.6199 137.711 82.9199C150.121 121.1 107.521 155.63 70.671 137.25C51.191 127.53 37.901 99.5999 49.981 75.0399" fill="#F3A822"/>
<path d="M50.6803 75.1799C54.0903 68.2899 67.7603 46.0199 100.5 48.8999C106.59 49.4399 127.21 53.4599 136.88 82.7699C149.4 120.72 107.32 154.86 70.6703 136.5C51.6303 126.96 39.0403 98.7099 50.6803 75.1799Z" fill="#F3A822"/>
<path d="M51.3711 75.31C55.6811 66.66 69.0711 46.82 100.341 49.53C106.281 50.04 126.431 53.95 136.041 82.63C148.671 120.32 107.121 154.07 70.6611 135.74C54.1711 127.45 38.8611 100.45 51.3711 75.31Z" fill="#F3A822"/>
<path d="M52.071 75.4399C61.031 57.5399 78.571 48.3199 100.191 50.1499C111.191 51.0799 120.471 59.6599 127.251 65.9199C130.621 69.0299 131.231 70.8199 135.191 82.4699C147.911 119.86 106.891 153.23 70.651 134.97C54.521 126.84 39.641 100.26 52.071 75.4399Z" fill="#F4A822"/>
<path d="M52.7709 75.5799C64.591 52.0999 88.841 49.1299 100.021 50.8399C105.871 51.7299 115.051 54.3799 127.271 66.9999C129.581 69.3899 130.541 70.3799 136.341 88.3499C138.751 95.8299 134.791 119.45 119.241 130.31C103.561 141.26 87.211 142.57 70.661 134.21C69.281 133.51 54.641 122.01 51.971 113.23C49.751 105.95 45.131 90.7899 52.791 75.5799" fill="#F4A822"/>
<path d="M53.4908 75.7099C65.0808 52.8199 88.8708 49.9299 99.8408 51.5999C111.581 53.3899 119.971 60.5799 127.281 68.0799C128.541 69.3699 129.731 70.5999 135.511 88.1899C137.031 92.8299 135.511 118.02 119.581 129.12C95.0108 146.24 75.9208 136.72 70.6508 133.39C48.6608 119.5 44.6608 93.1499 53.4908 75.7099Z" fill="#F4A922"/>
<path d="M54.2108 75.8399C65.6808 53.3199 88.9508 50.6399 99.6508 52.3699C108.321 53.7699 131.571 63.0699 134.961 88.8999C139.931 126.81 97.6308 149.54 70.6608 132.42C49.2508 118.83 45.4908 92.9799 54.2208 75.85" fill="#F5A922"/>
<path d="M54.9302 75.9799C66.1702 54.0399 88.9702 51.4498 99.4602 53.1498C112.71 55.2898 120.79 63.5998 127.28 70.2698C127.66 70.6598 134 87.7898 134.13 88.7898C139.14 126.34 97.3702 148.56 70.6502 131.44C49.0702 117.61 46.4402 92.5398 54.9302 75.9799Z" fill="#F5A922"/>
<path d="M55.6608 76.1099C66.6508 54.7599 88.9908 52.2699 99.2708 53.9299C107.591 55.2799 129.931 64.1399 133.311 88.6599C136.221 109.84 120.571 125.52 120.411 125.63C113.451 130.27 92.2608 144.41 70.6708 130.44C47.1908 115.24 49.0008 89.0499 55.6608 76.1099Z" fill="#F5A922"/>
<path d="M56.4002 76.2499C65.2702 59.0199 84.5802 52.3799 99.0802 54.7299C113.37 57.0399 129.93 69.6799 132.47 88.5499C135.2 108.75 120.86 124.32 120.71 124.42C112.13 130.1 92.0402 143.4 70.6802 129.44C70.5502 129.36 56.3902 115.49 55.9802 113.95C51.7802 98.3099 49.4702 89.6999 56.3902 76.2399" fill="#F6A922"/>
<path d="M57.1511 76.3899C74.4911 42.6899 126.701 51.1399 131.641 88.4299C134.451 109.67 119.581 124.13 119.421 124.24C111.871 129.2 91.8011 142.38 70.7111 128.45C46.1311 112.21 52.8511 84.7399 57.1511 76.3899Z" fill="#F6AA23"/>
<path d="M57.9009 76.5199C58.0309 76.2699 71.3909 51.9099 98.7009 56.3299C125.851 60.7199 130.761 88.0399 130.791 88.3099C135.651 124.11 96.1109 144.3 70.7309 127.44C49.5409 113.36 51.6109 88.7399 57.8909 76.5299" fill="#F6AA23"/>
<path d="M58.6604 76.6599C58.7804 76.4199 71.7404 52.8099 98.5204 57.1399C124.78 61.3899 129.92 87.9199 129.96 88.1899C132.99 110.94 116.97 123.74 116.8 123.85C108.934 128.93 98.6371 131.827 85.9104 132.54C85.7604 132.54 71.0504 126.6 70.7804 126.42C53.2104 114.68 50.8304 91.8999 58.6604 76.6599Z" fill="#F7AA23"/>
<path d="M59.4303 76.7999C59.5503 76.5699 72.5202 53.7899 98.3302 57.9599C124.13 62.1299 129.07 87.8099 129.1 88.0699C132.15 111.39 115.64 123.55 115.47 123.66C107.95 128.48 98.1303 131.127 86.0103 131.6C85.8503 131.6 71.0803 125.59 70.8103 125.41C57.5203 116.47 49.6303 95.8499 59.4203 76.8099" fill="#F7AA23"/>
<path d="M60.2006 76.94C60.3206 76.72 72.8706 54.7 98.1506 58.78C99.2906 58.96 109.561 60.82 117.941 68.93C118.031 69.02 127.571 82.76 128.261 87.94C128.411 89.07 126.991 105.79 126.681 106.58C123.561 114.42 114.231 123.4 114.151 123.45C103.611 130.14 103.411 130.27 86.1306 130.63C85.9706 130.63 71.1406 124.54 70.8706 124.36C60.0706 117.05 49.6306 97.51 60.2106 76.93" fill="#F7AB23"/>
<path d="M60.9805 77.0799C63.3205 72.4999 77.2405 62.4399 77.3505 62.3899C86.5205 58.0599 96.1205 59.3199 97.9605 59.6199C98.0705 59.6399 108.981 61.4699 116.551 68.7299C116.651 68.8199 127.011 84.8899 127.391 87.8199C127.541 88.9699 126.131 105.7 125.811 106.46C123.341 112.45 112.871 123.2 112.791 123.25C93.7905 135.2 78.3905 128.43 70.9105 123.33C65.9705 119.97 48.6805 101.16 60.9705 77.0699" fill="#F7AB23"/>
<path d="M61.7703 77.2199C62.9403 74.8999 78.5604 62.6699 78.6904 62.6199C85.8904 59.2699 97.6703 60.4399 97.7803 60.4599C97.8903 60.4799 109.9 63.5399 115.17 68.5199C115.5 68.8299 126.41 87.1899 126.51 87.5899C126.7 88.4099 125.29 105.58 124.97 106.34C123.64 109.48 111.54 123 111.46 123.06C105.52 126.77 101.94 129.01 86.3603 128.72C86.1903 128.72 71.2503 122.48 70.9903 122.3C70.7503 122.14 48.2903 103.86 61.7803 77.2299" fill="#F8AB23"/>
<path d="M61.8702 79.5599C63.7502 73.4799 79.8602 62.9299 80.0202 62.8499C84.2702 60.6799 97.4702 61.2899 97.5902 61.2999C97.6902 61.3099 110.74 65.4399 113.77 68.3099C114.1 68.6199 125.22 87.1199 125.32 87.5199C125.5 88.2699 124.32 105.56 124.04 106.21C123.65 107.13 110.87 122.37 110.09 122.86C107 124.78 101.24 128.36 86.4602 127.76C86.2802 127.76 71.2903 121.44 71.0403 121.27C62.4103 115.32 58.2902 97.4899 58.2502 97.3099C57.6102 94.4199 59.8702 86.0699 61.8802 79.5699" fill="#F8AB23"/>
<path d="M63.7504 77.5799C64.2004 76.8899 80.5004 63.4799 81.3704 63.0799C82.3304 62.6399 97.2904 62.1299 97.4004 62.1499L112.35 68.0799C112.6 68.3199 123.99 87.0299 124.06 87.3299C124.22 87.9899 123.04 105.45 122.8 106.02C122.45 106.83 109.43 122.2 108.73 122.64C101.41 127.19 90.8004 127.04 86.5804 126.77C86.3904 126.76 71.3604 120.38 71.1104 120.2C63.6804 115.05 58.8904 95.8599 58.8504 95.6799C58.7004 94.8199 63.1004 78.5799 63.7604 77.5799" fill="#F8AB23"/>
<path d="M64.9206 77.7799C65.3406 77.1399 80.6106 64.5799 81.4206 64.2099C83.5906 63.2199 97.1106 62.9799 97.2106 62.9999C99.6606 63.3999 110.541 68.0799 112.181 69.6199C112.411 69.8399 122.731 86.8599 122.801 87.1399C122.961 87.7999 121.791 105.27 121.551 105.83C121.201 106.63 108.061 121.98 107.351 122.42C101.351 126.14 86.8306 125.78 86.7006 125.77C86.5106 125.75 71.4306 119.3 71.1806 119.13C65.4206 115.12 60.0306 96.0399 60.0106 95.8699C59.8806 94.9799 64.2906 78.7499 64.9306 77.7699" fill="#F9AC23"/>
<path d="M66.1111 77.9898C66.4511 77.4798 80.3311 66.0099 80.9611 65.7199C83.3211 64.6399 94.1311 63.3898 97.0311 63.8598C99.7911 64.3098 110.021 69.3099 112.021 71.1899C112.221 71.3799 121.471 86.6999 121.541 86.9499C121.681 87.5199 120.511 105.16 120.301 105.64C119.951 106.43 106.691 121.76 105.971 122.21C102.161 124.57 86.9511 124.8 86.8211 124.78C86.5511 124.75 71.5711 118.29 71.2611 118.07C67.9111 115.73 61.2011 96.2398 61.1811 96.0798C61.0611 95.1698 65.4911 78.9299 66.1211 77.9799" fill="#F9AC23"/>
<path d="M67.3008 78.1999C67.5608 77.7999 80.0208 67.4699 80.5008 67.2499C82.5408 66.3199 94.4708 64.3499 96.8408 64.7299C99.6608 65.1899 111.411 72.3799 111.841 72.7799C111.961 72.8899 120.221 86.6199 120.261 86.7699C120.401 87.3399 119.241 104.99 119.031 105.47C118.721 106.16 105.221 121.62 104.581 122.01C104.471 122.08 87.1708 123.84 86.9508 123.8C86.6708 123.76 71.6508 117.23 71.3508 117.01C69.9908 116.06 62.3808 96.4499 62.3708 96.2999C62.2708 95.3599 66.7108 79.1299 67.3208 78.2099" fill="#F9AC23"/>
<path d="M68.511 78.4199C68.701 78.1299 79.701 68.9599 80.051 68.7999C80.141 68.7599 96.5711 65.5999 96.6411 65.6099L111.661 74.3799C111.761 74.4799 118.941 86.4499 118.971 86.5799C119.111 87.1399 117.961 104.79 117.751 105.28C117.521 105.84 105.491 119.64 104.881 120.05C101.531 122.31 87.181 122.81 87.061 122.8C86.911 122.79 74.201 117.27 73.861 117.07C68.131 113.74 63.571 96.6699 63.541 96.5199C63.431 95.6999 67.931 79.2999 68.511 78.4299" fill="#FAAC23"/>
<path d="M69.7302 78.6298C69.8702 78.4198 79.3802 70.4598 79.6102 70.3598C79.7002 70.3198 96.2902 67.0398 96.3502 67.0498L111.47 75.9898C114.16 78.4298 116.8 82.8498 117.68 86.3798C117.81 86.9198 116.68 104.57 116.48 105.08C116.33 105.47 105.82 117.56 105.24 118.02C105.19 118.06 97.0102 121.9 87.1902 121.79C84.1002 121.76 80.4202 119.25 77.7402 117.71C75.7802 116.58 72.8602 115.17 71.6702 113.25C70.8302 111.89 65.0102 97.9898 64.7502 96.7198C64.6102 96.0398 69.1702 79.4798 69.7302 78.6298Z" fill="#FAAD23"/>
<path d="M70.9608 78.8398C72.7308 76.1498 76.2008 73.1598 79.1708 71.9298C79.3708 71.8498 95.9308 68.4899 96.0408 68.5099L111.271 77.6198C113.531 79.5798 115.651 83.2798 116.371 86.1798C116.481 86.6098 115.341 104.44 115.181 104.88C115.081 105.16 106.301 115.3 105.591 115.95C105.551 115.98 101.591 119.33 87.3108 120.76C85.4808 120.94 83.2908 119.25 81.6908 118.35C71.6308 112.66 68.9908 108.07 65.9508 96.9098C65.8008 96.3498 70.4208 79.6199 70.9508 78.8199" fill="#FAAD23"/>
<path d="M72.2003 79.0599C73.6203 76.9199 76.3503 74.4599 78.7403 73.5299C78.9503 73.4499 95.6303 69.9799 95.7403 69.9899L111.07 79.2599C112.88 80.7599 114.5 83.7099 115.06 85.9799C115.16 86.3799 114.04 104.21 113.88 104.69C112.75 108.15 108.37 111.16 105.95 113.88C105.85 113.99 89.9603 121.39 85.7203 119.02C84.9803 118.6 72.3803 109.42 72.1003 109.09C69.5903 106.13 68.4203 100.81 67.1803 97.1399C67.0303 96.6899 71.7103 79.7799 72.2003 79.0499" fill="#FBAD23"/>
<path d="M73.4607 79.2698C74.5007 77.6898 76.4808 75.8299 78.2608 75.1999C78.8508 74.9899 95.2308 71.4498 95.4408 71.4898L110.871 80.9199C112.211 81.9599 113.341 84.1399 113.751 85.7899C113.841 86.1599 112.711 104.34 112.591 104.5C110.791 106.75 108.851 110.4 106.321 111.79C106.081 111.92 87.9707 118.16 87.8607 118.15C87.2707 118.07 73.3607 108.07 72.3607 107C70.2307 104.72 69.5107 100.29 68.4307 97.3698C68.2707 96.9298 72.9707 80.0299 73.4607 79.2899" fill="#FBAD23"/>
<path d="M74.7205 79.4898C75.4105 78.4398 76.7205 77.1498 77.9205 76.7598C78.4305 76.5998 95.0105 72.9698 95.1405 72.9898L110.66 82.5798C111.5 83.1998 112.18 84.5698 112.43 85.5798C112.52 85.9498 111.4 104.14 111.28 104.29C109.96 105.95 108.57 108.69 106.68 109.66C106.42 109.8 88.0105 116.25 87.9305 116.24C87.6105 116.19 73.3205 105.56 72.6405 104.86C70.9905 103.17 70.4805 99.7898 69.6905 97.5598C69.5305 97.1198 74.2505 80.2198 74.7405 79.4798" fill="#FBAD23"/>
<path d="M75.9905 79.7099C77.8205 76.9299 94.6905 74.4999 94.8305 74.5199C94.9705 74.5399 110.601 83.3999 111.091 85.3899C111.181 85.7599 110.071 103.95 109.951 104.1C109.111 105.16 108.241 106.96 107.021 107.53C106.441 107.8 88.3206 114.27 88.1906 114.26C87.8706 114.21 73.8806 103.66 72.9106 102.74C71.7506 101.64 71.4606 99.2999 70.9206 97.7899C70.7906 97.4099 75.5705 80.3399 75.9905 79.7099Z" fill="#FCAE23"/>
<path d="M76.8408 81.2799C77.0008 80.8699 77.1408 80.2399 77.4908 79.9599C77.5608 79.9099 94.4408 76.0299 94.5308 76.0499L108.801 85.0299C109.741 86.5499 109.601 102.6 108.631 103.9C108.281 104.37 107.911 105.16 107.371 105.38C106.091 105.91 88.6008 112.27 88.4708 112.26C88.1508 112.21 75.0408 102.18 73.2308 100.6C72.6008 100.05 72.4908 98.7999 72.2008 98.0099C72.0808 97.6999 76.1708 82.9999 76.8508 81.2799" fill="#FCAE23"/>
<path d="M73.801 96.8799C74.371 95.1599 80.8511 80.8399 81.1711 80.5799C81.2211 80.5399 94.161 77.5799 94.241 77.5899C98.001 78.2499 102.991 81.1499 105.011 84.3899C105.141 84.5999 106.831 103.44 106.731 103.59C106.681 103.67 88.8811 110.24 88.7611 110.22C88.4311 110.17 75.381 100.04 73.581 98.4399C73.231 98.1199 73.651 97.3199 73.801 96.8699" fill="#FCAE24"/>
<path d="M84.9307 81.2099C87.1007 79.4799 91.2107 78.6799 93.9407 79.1599C96.5307 79.6099 99.9707 81.6299 101.351 83.8699C101.411 83.9699 103.111 102.96 103.061 103.04L89.0607 108.2C88.8707 108.17 76.9607 98.9599 76.9207 98.8099C76.8307 98.4599 84.5407 81.5199 84.9207 81.2099" fill="#FCAE24"/>
<path d="M88.7503 81.8399C89.9303 80.8999 92.1604 80.4699 93.6404 80.7299C95.0304 80.9699 96.8703 82.0599 97.6003 83.2699L99.3203 102.45C97.6203 105.15 92.5103 106.61 89.3503 106.14C86.0803 105.66 81.4303 102.63 80.6303 99.4199C80.5603 99.1599 88.4403 82.0699 88.7403 81.8299" fill="#FDAE24"/>
<path d="M92.6405 82.4699C92.8105 82.3299 93.1305 82.2699 93.3505 82.3099C93.5505 82.3499 93.8105 82.4999 93.9205 82.6799L95.6105 101.86C94.6005 103.47 91.5605 104.36 89.6905 104.08C87.7505 103.79 85.0005 102 84.5105 100.11C84.4205 99.7599 92.2605 82.7899 92.6505 82.4799" fill="#FDAF24"/>
<path d="M91.281 94.1099C91.471 96.2599 93.061 99.4399 91.921 101.27C91.591 101.79 90.611 102.08 90.011 101.99C89.371 101.9 88.451 101.31 88.291 100.68C87.761 98.5799 90.371 96.0699 91.281 94.1099Z" fill="#FDAF24"/>
</g>
<mask id="mask3_1083_94" style="mask-type:luminance" maskUnits="userSpaceOnUse" x="19" y="18" width="93" height="69">
<path d="M111.981 19.47C110.671 19.37 108.931 19.13 107.621 19.14C104.791 19.17 101.011 19.27 98.2007 19.6C91.6507 20.38 85.7907 22.02 82.8707 22.92C79.6507 23.92 75.4607 25.54 72.3207 26.79C70.7107 27.43 68.6207 28.43 67.0707 29.19C59.2207 33.06 53.8607 36.76 51.9107 38.17C49.0507 40.25 45.4007 43.26 42.7107 45.56C41.3707 46.7 39.7607 48.42 38.5007 49.65C36.0007 52.09 32.9807 55.68 31.0407 58.57C29.1007 61.46 26.7507 65.4 25.0907 68.44C24.2607 69.95 23.4307 72.11 22.7707 73.7C22.1007 75.3 21.3707 77.5 20.9107 79.17C20.2907 81.47 19.5907 84.58 19.1807 86.93C26.1607 42.68 67.7107 12.48 111.971 19.46L111.981 19.47Z" fill="white"/>
</mask>
<g mask="url(#mask3_1083_94)">
<path d="M111.98 19.47C106.9 19.09 97.4602 18.38 82.8802 22.93C67.1202 27.84 55.9802 35.23 51.9302 38.18C33.0102 51.94 22.6102 67.43 19.2002 86.94C26.1802 42.69 67.7302 12.49 111.99 19.47" fill="#DE991F"/>
<path d="M111.981 19.4699C111.281 19.3999 110.341 19.3099 109.641 19.2299C95.5106 17.4899 74.2406 18.4499 53.1006 32.9299C69.6606 21.4499 90.5006 16.0899 111.971 19.4699" fill="#DE991F"/>
<path d="M35.2304 49.8298C26.5904 61.5198 22.4804 70.6698 19.5604 84.8098C19.4504 85.4498 19.3004 86.2998 19.1904 86.9298C21.4004 72.9098 27.0904 60.2898 35.2304 49.8298Z" fill="#DE991F"/>
<path d="M44.7104 39.66C56.8004 28.74 77.5804 16.32 107.91 19.15L103.32 19.17C76.0904 21.37 31.4804 39.88 20.1904 81.88L21.8704 75.52C24.6304 67.69 29.7804 53.13 44.7004 39.65" fill="#DE991F"/>
<path d="M44.76 39.73C54.26 31.17 74.8 17.11 105.61 19.12L100.91 19.33C69.41 22.99 32.47 42.87 20.96 79.04L22.86 72.79C24.93 67.28 30.44 52.65 44.77 39.74" fill="#DE991F"/>
<path d="M44.8501 39.8C66.0301 20.79 90.4501 18.72 103.12 19.18L98.3101 19.58C62.5001 25.02 32.4801 47.26 21.8301 76.25L23.9301 70.11C28.6301 58.24 35.6601 48.04 44.8401 39.8" fill="#DF9A1F"/>
<path d="M33.1201 53.25C40.3601 43.04 61.4001 19.29 100.44 19.37L95.5301 19.97C61.7801 26.32 33.9201 46.85 22.8301 73.54L24.4401 69.17C26.6201 64.37 29.0901 58.9299 33.1201 53.2399" fill="#DF9A1F"/>
<path d="M33.2604 53.3199C48.0804 32.4399 71.5704 20.1799 97.6904 19.6599L92.6904 20.4599C61.0204 27.5299 35.3204 46.3799 23.9404 70.8999L24.5804 69.2499C26.7704 64.4299 29.2504 58.9799 33.2604 53.3199Z" fill="#DF9A1F"/>
<path d="M33.43 53.41C55.7 22.37 89.07 20.11 95.53 19.97L90.46 20.92C60.37 28.43 37.2 45.22 25.21 68.19L27.95 62.41C29.52 59.67 31.58 55.97 33.43 53.4" fill="#E09A1F"/>
<path d="M33.6307 53.49C53.3107 26.71 79.5307 21.22 93.4007 20.33L88.2807 21.43C52.9407 31.15 35.3207 50.64 26.7607 65.28L29.7207 59.64C30.8807 57.79 32.3407 55.26 33.6307 53.5" fill="#E09B1F"/>
<path d="M33.8607 53.58C55.5507 23.61 87.6407 20.96 91.2307 20.76L86.0707 22C60.2207 29.77 40.8607 43.34 28.5107 62.34L31.6907 56.85C32.3407 55.87 33.1807 54.53 33.8707 53.58" fill="#E09B1F"/>
<path d="M34.1202 53.68C53.7502 27.2 78.0902 23.13 88.4802 21.38L83.2702 22.8C74.6002 25.68 48.2102 34.45 30.4502 59.4L33.8402 54.07C33.9202 53.95 34.0302 53.79 34.1102 53.68" fill="#E19B1F"/>
<path d="M34.4204 53.77C47.3904 36.38 63.6504 26.33 85.5804 22.13L80.3304 23.74C72.6104 26.56 49.1304 35.14 32.6104 56.46L34.4104 53.78" fill="#E19B1F"/>
<path d="M34.6604 53.85C40.9604 45.86 54.0604 29.23 82.6604 22.99L77.3904 24.78C69.8204 27.8 49.7104 35.82 34.4004 54.23L34.6604 53.85Z" fill="#E19B1F"/>
<path d="M47.0306 40.59C60.1806 29.51 71.4606 26.33 78.9206 24.22L73.6406 26.23C59.5906 32.44 49.0306 38.59 36.6406 51.63L40.6806 46.87C42.5606 44.96 44.9806 42.31 47.0306 40.58" fill="#E29C1F"/>
<path d="M47.3506 40.6799C58.4006 31.3299 68.8306 27.8299 73.8406 26.1499L68.5806 28.4599C61.8406 31.8499 50.5606 37.5299 39.3506 48.7699L43.6006 44.2099C44.7306 43.1499 46.1706 41.6699 47.3606 40.6699" fill="#E29C1F"/>
<path d="M47.69 40.7799C54.44 35.2499 61.68 31.0199 69.21 28.1799L64 30.7599C56.97 34.7099 51.42 37.8399 42.5 45.7599L46.95 41.4399C47.17 41.2399 47.46 40.9699 47.69 40.7799Z" fill="#E29C1F"/>
<path d="M48.0409 40.87C52.9909 37.19 59.1509 32.61 65.7509 29.85L60.6009 32.63C53.0709 37.22 52.9409 37.32 46.1709 42.57L48.0509 40.87" fill="#E39C1F"/>
<path d="M111.981 19.47C108.381 18.99 107.731 18.9 103.881 18.6C106.561 18.75 109.271 19.04 111.981 19.47Z" fill="#DE991F"/>
</g>
<path d="M162.5 92.36C158.78 92.21 155.05 92.07 151.32 91.94C151.56 88.94 151.77 85.95 151.95 82.96C153.07 59.6 133.38 45.61 108.59 42.57C73.6105 39.35 57.9405 62.08 54.4105 77.39C62.8305 77.14 71.2705 77.02 79.7205 77.01C87.2905 77.63 81.5505 62.44 105.56 64.5C118.62 65.8 126.33 73.19 125.36 86.01C125.23 87.7 125.09 89.39 124.94 91.08C115.41 90.71 105.86 90.38 96.3304 90.11C53.1004 89.36 47.2805 107.49 46.9005 118.06C46.1605 140.67 67.6404 153.19 83.4604 155.79C95.5205 157.75 110.89 156.54 128.37 144.65C140.46 135.2 147.47 124.93 149.57 109.44C153.11 109.49 156.6 109.55 159.72 109.62C161.01 105.56 161.87 101.4 162.27 97.13C162.42 95.53 162.5 93.94 162.51 92.36H162.5ZM122.7 114.54C121.21 127.65 108.04 136.72 95.6505 135.34C85.6905 134.25 76.9705 130.11 77.5605 120.52C78.0705 112.78 83.1505 109.08 97.3805 109.14C106.01 109.17 114.64 109.14 123.26 109.08C123.07 110.9 122.89 112.72 122.69 114.54H122.7Z" fill="white"/>
</svg>
