<svg width="787" height="1150" viewBox="0 0 787 1150" fill="none" xmlns="http://www.w3.org/2000/svg">
<g opacity="0.1">
<path d="M301.18 709.61L498.604 692.032V733.173C498.604 832.159 403.263 906.025 304.519 906.025C225.549 906.025 156.467 883.647 156.467 810.217C156.467 751.125 192.677 719.21 301.18 709.61Z" fill="#FCB01A"/>
<path d="M700.518 542.43V471.619C700.518 283.183 551.248 206.575 342.396 206.575C46.2288 206.575 -45.8385 367.833 -54.0564 493.997L141.891 481.094C201.022 481.094 142.34 372.633 332.509 372.633C436.132 372.633 498.601 420.568 498.601 517.933V556.269L279.863 569.047C-50.7816 588.246 -80.3794 733.546 -80.3794 821.375C-80.3794 1008.25 82.4391 1072.08 215.66 1072.08C314.404 1072.08 444.735 1050.7 571.921 956.391C658.402 881.527 698.336 801.241 700.326 679.752C727.869 678.256 754.963 676.947 779.231 676.012C777.69 684.427 775.957 692.78 774.031 701.071C773.903 701.819 773.71 702.629 773.518 703.377C713.424 959.133 477.928 1150 196.27 1150C-130.843 1150 -396 892.561 -396 575.031C-396 257.502 -130.843 0 196.27 0C523.383 0 766.648 236.931 787 536.509H786.23L700.518 542.43Z" fill="#FCB01A"/>
<path d="M498.604 692.032V733.173C498.604 832.159 403.263 906.025 304.519 906.025C225.549 906.025 156.467 883.647 156.467 810.217C156.467 751.125 192.677 719.21 301.18 709.61L498.604 692.032Z" fill="#FCB01A"/>
</g>
</svg>
