<svg width="60" height="60" viewBox="0 0 60 60" fill="none" xmlns="http://www.w3.org/2000/svg">
<g clip-path="url(#clip0_529_361)">
<path d="M51.5 51.47C51.3899 51.47 51.2829 51.4337 51.1956 51.3667C51.1083 51.2997 51.0455 51.2058 51.017 51.0994C50.9886 50.9931 50.9959 50.8804 51.0381 50.7787C51.0802 50.677 51.1547 50.5921 51.25 50.537L56.434 47.545C56.5326 47.4879 56.6479 47.4663 56.7605 47.4836C56.8732 47.501 56.9766 47.5563 57.0535 47.6405C57.1304 47.7246 57.1763 47.8325 57.1834 47.9463C57.1906 48.0601 57.1587 48.1729 57.093 48.266L56.293 49.402L56.606 49.222C56.6629 49.1859 56.7265 49.1616 56.7931 49.1506C56.8596 49.1397 56.9277 49.1423 56.9932 49.1583C57.0587 49.1744 57.1202 49.2035 57.1742 49.244C57.2281 49.2844 57.2734 49.3354 57.3071 49.3938C57.3408 49.4521 57.3624 49.5168 57.3706 49.5837C57.3787 49.6506 57.3732 49.7185 57.3544 49.7833C57.3356 49.8481 57.3039 49.9084 57.2612 49.9606C57.2185 50.0128 57.1657 50.0558 57.106 50.087L54.826 51.4C54.7274 51.4567 54.6125 51.4781 54.5001 51.4607C54.3877 51.4433 54.2847 51.3881 54.2079 51.3042C54.1311 51.2203 54.0852 51.1128 54.0778 50.9993C54.0703 50.8858 54.1018 50.7732 54.167 50.68L54.967 49.543L51.75 51.4C51.6743 51.445 51.588 51.4691 51.5 51.47Z" fill="#F7D97C"/>
<path d="M55.5 47.4699C55.3899 47.4699 55.2829 47.4336 55.1956 47.3666C55.1083 47.2996 55.0455 47.2057 55.017 47.0994C54.9886 46.993 54.9959 46.8803 55.0381 46.7786C55.0802 46.6769 55.1547 46.592 55.25 46.5369L58.714 44.5369C58.8282 44.4772 58.9612 44.4638 59.085 44.4998C59.2089 44.5357 59.3141 44.6181 59.3786 44.7298C59.4432 44.8414 59.4621 44.9737 59.4314 45.0989C59.4007 45.2242 59.3228 45.3328 59.214 45.4019L55.75 47.4019C55.6741 47.4462 55.5878 47.4696 55.5 47.4699Z" fill="#F7D97C"/>
<path d="M39.2615 34.5299C39.1724 34.5299 39.085 34.5061 39.0083 34.4609C38.9315 34.4158 38.8682 34.351 38.8249 34.2732C38.7816 34.1954 38.7598 34.1075 38.7618 34.0185C38.7639 33.9295 38.7896 33.8426 38.8365 33.7669L39.4845 32.7219C39.4648 32.698 39.4471 32.6726 39.4315 32.6459C39.3987 32.589 39.3774 32.5262 39.3689 32.461C39.3604 32.3959 39.3649 32.3297 39.382 32.2663C39.399 32.2029 39.4285 32.1434 39.4685 32.0914C39.5086 32.0393 39.5585 31.9957 39.6155 31.9629L40.2535 31.5959C40.3503 31.5394 40.4633 31.5171 40.5743 31.5325C40.6853 31.548 40.7879 31.6002 40.8656 31.681C40.9434 31.7617 40.9917 31.8662 41.0029 31.9777C41.0142 32.0893 40.9876 32.2013 40.9275 32.2959L40.7355 32.6049L42.4875 31.5939C42.5444 31.5577 42.608 31.5334 42.6746 31.5225C42.7411 31.5116 42.8092 31.5142 42.8747 31.5302C42.9402 31.5463 43.0017 31.5754 43.0557 31.6159C43.1096 31.6563 43.1549 31.7073 43.1886 31.7656C43.2223 31.824 43.2439 31.8886 43.2521 31.9556C43.2602 32.0225 43.2547 32.0904 43.2359 32.1552C43.2171 32.2199 43.1854 32.2802 43.1427 32.3324C43.1 32.3846 43.0472 32.4277 42.9875 32.4589L39.5115 34.4659C39.4354 34.5092 39.349 34.5313 39.2615 34.5299Z" fill="#F7D97C"/>
<path d="M35.886 36.656C35.7762 36.6556 35.6696 36.6191 35.5827 36.5522C35.4957 36.4852 35.4332 36.3915 35.4048 36.2855C35.3763 36.1795 35.3836 36.0671 35.4253 35.9656C35.4671 35.8642 35.5411 35.7793 35.636 35.724L37.961 34.382C38.0179 34.3458 38.0815 34.3215 38.148 34.3106C38.2146 34.2996 38.2827 34.3023 38.3481 34.3183C38.4136 34.3344 38.4752 34.3635 38.5292 34.4039C38.5831 34.4444 38.6283 34.4954 38.6621 34.5537C38.6958 34.6121 38.7174 34.6767 38.7255 34.7437C38.7337 34.8106 38.7282 34.8785 38.7094 34.9433C38.6906 35.008 38.6589 35.0683 38.6162 35.1205C38.5735 35.1727 38.5207 35.2157 38.461 35.247L36.136 36.589C36.0601 36.6332 35.9738 36.6563 35.886 36.656Z" fill="#F7D97C"/>
<path d="M39.7372 55.4701C39.6294 55.4699 39.5247 55.4349 39.4384 55.3704C39.3522 55.3059 39.2891 55.2153 39.2585 55.112C39.228 55.0087 39.2316 54.8983 39.2688 54.7973C39.306 54.6962 39.3749 54.6098 39.4652 54.5511L41.4222 53.2801L37.9002 55.3141C37.7876 55.3761 37.6555 55.3923 37.5313 55.3595C37.4071 55.3267 37.3002 55.2474 37.233 55.1379C37.1657 55.0284 37.1431 54.8973 37.17 54.7716C37.1968 54.646 37.271 54.5355 37.3771 54.4631L40.3722 52.5061L36.4572 54.7661C36.3443 54.8317 36.2103 54.8506 36.0837 54.8187C35.9571 54.7868 35.848 54.7067 35.7797 54.5954C35.7114 54.4842 35.6893 54.3506 35.7182 54.2233C35.747 54.096 35.8245 53.985 35.9341 53.9141L41.1831 50.4931L35.2692 53.9071C35.1563 53.9727 35.0223 53.9916 34.8957 53.9597C34.7691 53.9278 34.66 53.8477 34.5917 53.7364C34.5234 53.6252 34.5013 53.4916 34.5302 53.3643C34.559 53.237 34.6365 53.126 34.7461 53.0551L39.9461 49.6791L34.0931 53.0601C33.9806 53.1253 33.847 53.1442 33.7208 53.1125C33.5946 53.0809 33.4857 53.0013 33.4172 52.8906C33.3487 52.78 33.3261 52.647 33.3541 52.5199C33.3821 52.3928 33.4585 52.2817 33.5672 52.2101L40.1481 47.8691L32.2482 52.4321C32.136 52.496 32.0035 52.514 31.8784 52.4825C31.7533 52.451 31.6452 52.3723 31.5767 52.2629C31.5083 52.1535 31.4848 52.0219 31.5111 51.8955C31.5375 51.7692 31.6117 51.658 31.7182 51.5851L40.2122 45.8231L28.8001 52.4101C28.6874 52.4731 28.5547 52.49 28.4298 52.4573C28.3048 52.4246 28.1974 52.3449 28.1299 52.2348C28.0625 52.1247 28.0402 51.9927 28.0678 51.8666C28.0955 51.7405 28.1708 51.6299 28.2781 51.5581L35.0272 47.1861L25.9671 52.4171C25.8544 52.4846 25.7195 52.505 25.5918 52.4739C25.4641 52.4427 25.3538 52.3625 25.2847 52.2506C25.2157 52.1387 25.1935 52.0042 25.223 51.8761C25.2524 51.7479 25.3312 51.6366 25.4421 51.5661L36.7321 44.1451L22.3901 52.4251C22.3342 52.4595 22.272 52.4825 22.2072 52.4929C22.1423 52.5033 22.0761 52.5008 22.0122 52.4856C21.9483 52.4703 21.888 52.4427 21.8348 52.4042C21.7816 52.3656 21.7366 52.317 21.7021 52.2611C21.6677 52.2051 21.6447 52.143 21.6343 52.0781C21.6239 52.0133 21.6264 51.947 21.6417 51.8831C21.6569 51.8192 21.6846 51.759 21.7231 51.7058C21.7616 51.6526 21.8102 51.6075 21.8661 51.5731L35.7002 42.5311L19.2801 52.0131C19.167 52.0794 19.0323 52.0986 18.9052 52.0665C18.778 52.0345 18.6685 51.9537 18.6003 51.8417C18.5321 51.7297 18.5106 51.5954 18.5405 51.4677C18.5704 51.34 18.6493 51.2292 18.7601 51.1591L31.7422 42.8001L19.2801 50.0001C19.1668 50.0625 19.0336 50.0786 18.9087 50.0448C18.7837 50.0111 18.6767 49.9303 18.6101 49.8193C18.5436 49.7083 18.5226 49.5758 18.5517 49.4497C18.5808 49.3236 18.6577 49.2137 18.7661 49.1431L21.7091 47.3101L19.2801 48.7101C19.1699 48.7732 19.0398 48.7921 18.9162 48.7628C18.7927 48.7334 18.6848 48.6582 18.6147 48.5523C18.5446 48.4464 18.5174 48.3178 18.5386 48.1926C18.5599 48.0673 18.628 47.9549 18.7291 47.8781L24.4831 43.5401L19.2831 46.5401C19.1748 46.6014 19.0474 46.62 18.926 46.5924C18.8046 46.5647 18.6979 46.4928 18.6267 46.3906C18.5556 46.2884 18.5251 46.1634 18.5413 46.0399C18.5574 45.9165 18.6191 45.8035 18.7141 45.7231L22.7211 42.3891L19.2801 44.3761C19.1701 44.4375 19.041 44.4551 18.9185 44.4254C18.7961 44.3956 18.6894 44.3208 18.6198 44.2158C18.5501 44.1108 18.5227 43.9833 18.543 43.859C18.5633 43.7346 18.6298 43.6225 18.7291 43.5451L19.0801 43.2791C18.9946 43.2858 18.9087 43.271 18.8302 43.2361C18.7518 43.2012 18.6834 43.1472 18.6311 43.0791C18.5579 42.9816 18.5227 42.8608 18.5323 42.7392C18.5418 42.6177 18.5955 42.5038 18.6831 42.4191L19.6461 41.4861L19.2801 41.6971C19.1961 41.7456 19.0996 41.7687 19.0027 41.7633C18.9057 41.758 18.8124 41.7245 18.7342 41.6671C18.6559 41.6096 18.5961 41.5306 18.562 41.4396C18.5279 41.3487 18.521 41.2498 18.5421 41.1551L18.8501 39.7811C18.7433 39.7406 18.6538 39.6643 18.5971 39.5651C18.5308 39.4502 18.5129 39.3138 18.5472 39.1857C18.5815 39.0576 18.6653 38.9484 18.7801 38.8821L19.2801 38.5941C19.3643 38.5451 19.461 38.5218 19.5583 38.527C19.6555 38.5322 19.7492 38.5657 19.8276 38.6233C19.9061 38.681 19.9661 38.7603 20.0001 38.8516C20.0341 38.9429 20.0407 39.0421 20.0191 39.1371L19.7671 40.2631L22.6561 38.6001C22.7618 38.5374 22.8868 38.5159 23.0074 38.5395C23.1279 38.5631 23.2355 38.6303 23.3097 38.7282C23.3839 38.8261 23.4194 38.9479 23.4096 39.0704C23.3997 39.1928 23.3451 39.3073 23.2561 39.3921L22.2941 40.3221L25.2761 38.6001C25.3862 38.5374 25.516 38.5189 25.6392 38.5482C25.7624 38.5775 25.8699 38.6525 25.94 38.758C26.0101 38.8635 26.0375 38.9916 26.0167 39.1166C25.996 39.2415 25.9286 39.3539 25.8281 39.4311L25.7621 39.4811L27.2891 38.6001C27.3975 38.5388 27.5249 38.5201 27.6463 38.5478C27.7677 38.5754 27.8744 38.6474 27.9456 38.7496C28.0167 38.8517 28.0472 38.9768 28.031 39.1002C28.0149 39.2237 27.9532 39.3367 27.8581 39.4171L23.8492 42.7541L31.0492 38.6001C31.1594 38.5369 31.2895 38.5181 31.4131 38.5474C31.5366 38.5767 31.6445 38.6519 31.7146 38.7578C31.7847 38.8637 31.8119 38.9924 31.7907 39.1176C31.7694 39.2428 31.7013 39.3552 31.6002 39.4321L25.8502 43.7671L46.9502 31.5801C47.0065 31.5463 47.0689 31.5239 47.1339 31.5142C47.1989 31.5045 47.2652 31.5077 47.3289 31.5236C47.3927 31.5396 47.4527 31.5679 47.5055 31.607C47.5583 31.6461 47.6028 31.6952 47.6367 31.7516C47.6705 31.8079 47.6929 31.8704 47.7025 31.9353C47.7122 32.0003 47.709 32.0666 47.6931 32.1303C47.6772 32.1941 47.6488 32.2541 47.6097 32.3069C47.5706 32.3597 47.5215 32.4043 47.4652 32.4381L44.5102 34.2781L49.1922 31.5781C49.3054 31.509 49.4415 31.4877 49.5704 31.5189C49.6993 31.5502 49.8106 31.6313 49.8797 31.7446C49.9487 31.8578 49.97 31.9939 49.9388 32.1228C49.9076 32.2517 49.8264 32.363 49.7132 32.4321L36.7292 40.7851L50.8742 32.6181C50.987 32.5524 51.121 32.5336 51.2476 32.5655C51.3742 32.5973 51.4833 32.6775 51.5516 32.7887C51.6199 32.9 51.642 33.0335 51.6131 33.1609C51.5843 33.2882 51.5068 33.3992 51.3972 33.4701L37.5602 42.5131L51.1722 34.6541C51.2848 34.59 51.4179 34.5722 51.5434 34.6044C51.669 34.6366 51.7771 34.7162 51.845 34.8266C51.913 34.9369 51.9354 35.0693 51.9076 35.1959C51.8799 35.3225 51.8041 35.4333 51.6962 35.5051L40.4152 42.9211L51.4502 36.5501C51.5629 36.4871 51.6956 36.4702 51.8205 36.5028C51.9455 36.5355 52.0529 36.6152 52.1204 36.7254C52.1878 36.8355 52.2101 36.9674 52.1825 37.0935C52.1548 37.2197 52.0795 37.3302 51.9722 37.4021L45.2242 41.7731L51.6702 38.0521C51.782 37.9907 51.9131 37.9745 52.0365 38.0067C52.16 38.0388 52.2665 38.117 52.3342 38.2251C52.402 38.3332 52.4258 38.4631 52.4009 38.5882C52.3759 38.7133 52.3041 38.8242 52.2002 38.8981L43.7002 44.6661L54.2092 38.6001C54.3214 38.5396 54.4524 38.5243 54.5755 38.5573C54.6986 38.5902 54.8045 38.6689 54.8715 38.7773C54.9385 38.8857 54.9616 39.0156 54.9361 39.1404C54.9106 39.2653 54.8383 39.3757 54.7342 39.4491L48.1512 43.7911L56.1422 39.1791C56.2549 39.1161 56.3876 39.0992 56.5125 39.1318C56.6375 39.1645 56.7449 39.2442 56.8124 39.3544C56.8798 39.4645 56.9021 39.5964 56.8745 39.7225C56.8468 39.8487 56.7715 39.9592 56.6642 40.0311L51.4742 43.4001L56.7042 40.3801C56.8171 40.3106 56.9531 40.2888 57.0821 40.3196C57.2111 40.3503 57.3227 40.4311 57.3922 40.5441C57.4616 40.6571 57.4834 40.793 57.4526 40.922C57.4219 41.0511 57.3411 41.1626 57.2282 41.2321L51.9672 44.6601L55.5332 42.6001C55.6458 42.536 55.7789 42.5182 55.9044 42.5504C56.03 42.5826 56.1381 42.6622 56.206 42.7726C56.274 42.8829 56.2964 43.0153 56.2686 43.1419C56.2409 43.2685 56.1651 43.3793 56.0572 43.4511L53.0722 45.4001L57.5722 42.8051C57.6847 42.7431 57.8168 42.7268 57.941 42.7596C58.0652 42.7924 58.1721 42.8718 58.2393 42.9812C58.3066 43.0907 58.3292 43.2219 58.3023 43.3475C58.2755 43.4732 58.2013 43.5837 58.0952 43.6561L56.1302 44.9291L58.4502 43.5891C58.5614 43.5256 58.6927 43.5073 58.817 43.5378C58.9413 43.5683 59.0493 43.6453 59.1185 43.753C59.1877 43.8607 59.213 43.9908 59.1891 44.1166C59.1652 44.2424 59.094 44.3542 58.9902 44.4291L52.2412 49.2231L56.0062 47.0501C56.1171 46.9864 56.2483 46.9677 56.3726 46.9978C56.497 47.0279 56.6051 47.1045 56.6746 47.2118C56.7442 47.3192 56.77 47.4492 56.7466 47.575C56.7233 47.7008 56.6526 47.8128 56.5492 47.8881L52.3342 50.9361C52.405 50.9713 52.4665 51.0229 52.5136 51.0866C52.5606 51.1503 52.5919 51.2242 52.6047 51.3023C52.6176 51.3804 52.6118 51.4605 52.5877 51.5359C52.5636 51.6113 52.5219 51.6799 52.4662 51.7361L51.5782 52.6201L52.6332 52.0121C52.7329 51.955 52.8493 51.9341 52.9627 51.9528C53.0761 51.9714 53.1796 52.0286 53.2557 52.1147C53.3319 52.2007 53.3761 52.3104 53.3809 52.4252C53.3858 52.54 53.3509 52.653 53.2822 52.7451L52.7372 53.4701C52.844 53.4771 52.9459 53.5182 53.0276 53.5874C53.1093 53.6566 53.1667 53.7502 53.1912 53.8545C53.2158 53.9588 53.2062 54.0682 53.1638 54.1666C53.1215 54.265 53.0487 54.3472 52.9562 54.4011L51.2402 55.4001C51.1403 55.4576 51.0236 55.4788 50.9099 55.4602C50.7962 55.4416 50.6924 55.3843 50.616 55.298C50.5397 55.2117 50.4955 55.1016 50.491 54.9865C50.4865 54.8713 50.5218 54.7581 50.5912 54.6661L51.0092 54.1101L48.7622 55.4101C48.6571 55.4684 48.5346 55.487 48.417 55.4625C48.2993 55.4379 48.1945 55.3717 48.1216 55.2762C48.0488 55.1806 48.0128 55.062 48.0202 54.9421C48.0277 54.8221 48.078 54.7089 48.1622 54.6231L49.0502 53.7391L46.1502 55.4101C46.0392 55.4738 45.908 55.4925 45.7837 55.4624C45.6593 55.4323 45.5512 55.3557 45.4817 55.2483C45.4121 55.1409 45.3863 55.011 45.4097 54.8852C45.433 54.7594 45.5037 54.6473 45.6072 54.5721L48.0592 52.8001L43.5382 55.4001C43.4272 55.4614 43.297 55.4783 43.174 55.4473C43.0511 55.4163 42.9445 55.3397 42.8758 55.2331C42.8072 55.1264 42.7817 54.9977 42.8044 54.8729C42.8271 54.7482 42.8963 54.6367 42.9982 54.5611L49.7492 49.7611L39.9872 55.4001C39.9114 55.445 39.8252 55.4692 39.7372 55.4701Z" fill="#F7D97C"/>
<path d="M19.0235 57.4699C18.9291 57.4699 18.8367 57.4432 18.7569 57.3928C18.6771 57.3425 18.6131 57.2706 18.5725 57.1855C18.5318 57.1004 18.516 57.0055 18.527 56.9117C18.538 56.818 18.5752 56.7293 18.6345 56.6559L18.8965 56.3309L17.9345 56.8869C17.8304 56.9478 17.7078 56.9691 17.5893 56.9467C17.4708 56.9244 17.3644 56.86 17.2897 56.7654C17.2149 56.6708 17.1768 56.5523 17.1825 56.4319C17.1882 56.3114 17.2372 56.1971 17.3205 56.1099L18.2505 55.1279L17.2995 55.6769C17.2426 55.7131 17.1789 55.7374 17.1124 55.7483C17.0459 55.7593 16.9778 55.7566 16.9123 55.7406C16.8468 55.7245 16.7852 55.6954 16.7313 55.655C16.6773 55.6145 16.6321 55.5636 16.5984 55.5052C16.5646 55.4468 16.543 55.3822 16.5349 55.3152C16.5268 55.2483 16.5323 55.1804 16.551 55.1156C16.5698 55.0509 16.6015 54.9906 16.6442 54.9384C16.6869 54.8862 16.7397 54.8432 16.7995 54.8119L20.7205 52.5479C20.8244 52.4885 20.9463 52.4683 21.0638 52.4911C21.1814 52.5138 21.2868 52.578 21.3611 52.672C21.4353 52.766 21.4733 52.8834 21.4683 53.0031C21.4632 53.1227 21.4154 53.2366 21.3335 53.3239L20.4045 54.3059L20.7205 54.1239C20.8215 54.0661 20.9394 54.0454 21.0541 54.0652C21.1687 54.0851 21.2728 54.1443 21.3485 54.2326C21.4242 54.321 21.4667 54.433 21.4687 54.5493C21.4707 54.6656 21.4321 54.779 21.3595 54.8699L20.8245 55.5329C20.9181 55.5607 21.0016 55.6154 21.0645 55.6901C21.1274 55.7649 21.167 55.8564 21.1785 55.9534C21.19 56.0504 21.1728 56.1486 21.1291 56.236C21.0854 56.3233 21.017 56.396 20.9325 56.4449L19.2735 57.4019C19.1978 57.4466 19.1114 57.4701 19.0235 57.4699Z" fill="#FCB01A"/>
<path d="M14.8787 59.4611C14.7858 59.4611 14.6948 59.4352 14.6158 59.3864C14.5368 59.3376 14.473 59.2677 14.4315 59.1847C14.39 59.1016 14.3724 59.0087 14.3807 58.9162C14.389 58.8237 14.423 58.7354 14.4787 58.6611L15.1787 57.7031L13.6617 58.5781C13.553 58.6391 13.4254 58.6574 13.3039 58.6292C13.1824 58.601 13.0759 58.5285 13.0051 58.4258C12.9344 58.3231 12.9046 58.1977 12.9215 58.0742C12.9384 57.9507 13.0009 57.8379 13.0967 57.7581L15.7967 55.5581L13.2837 57.0091C13.1732 57.0734 13.0423 57.0929 12.9178 57.0637C12.7934 57.0344 12.6849 56.9586 12.6146 56.8518C12.5443 56.7451 12.5176 56.6154 12.5399 56.4896C12.5623 56.3637 12.632 56.2512 12.7347 56.1751L13.8107 55.3751L13.2837 55.6751C13.1689 55.7403 13.033 55.7576 12.9056 55.723C12.7781 55.6884 12.6696 55.6048 12.6036 55.4904C12.5375 55.3761 12.5194 55.2403 12.5532 55.1126C12.5869 54.985 12.6698 54.8759 12.7837 54.8091L20.7247 50.2241C20.8352 50.1598 20.9661 50.1403 21.0905 50.1695C21.215 50.1988 21.3235 50.2746 21.3938 50.3813C21.4641 50.4881 21.4908 50.6177 21.4685 50.7436C21.4461 50.8695 21.3764 50.982 21.2737 51.0581L20.1977 51.8581L20.7247 51.5581C20.8336 51.4957 20.9619 51.4765 21.0843 51.5043C21.2067 51.5322 21.3141 51.605 21.3853 51.7084C21.4564 51.8118 21.4861 51.9381 21.4684 52.0624C21.4507 52.1866 21.3869 52.2997 21.2897 52.3791L17.2477 55.6671C17.2844 55.6911 17.318 55.7197 17.3477 55.7521C17.4243 55.8374 17.4693 55.9464 17.4752 56.0609C17.481 56.1754 17.4473 56.2885 17.3797 56.3811L16.6377 57.3981C16.7534 57.3775 16.8727 57.3984 16.9746 57.457C17.0765 57.5157 17.1545 57.6084 17.1948 57.7188C17.2351 57.8292 17.2353 57.9503 17.1952 58.0608C17.1552 58.1713 17.0774 58.2642 16.9757 58.3231L15.1347 59.3861C15.0577 59.4338 14.9692 59.4597 14.8787 59.4611Z" fill="#FCB01A"/>
<path d="M11.0304 57.4699C10.9246 57.4701 10.8216 57.4367 10.736 57.3747C10.6504 57.3126 10.5867 57.225 10.554 57.1244C10.5214 57.0238 10.5214 56.9155 10.5542 56.815C10.5869 56.7145 10.6507 56.6269 10.7364 56.5649L13.0274 54.8999L9.81836 56.7499C9.70691 56.8131 9.57543 56.8312 9.45107 56.8003C9.32672 56.7694 9.21897 56.6919 9.15006 56.5839C9.08116 56.4759 9.05637 56.3455 9.0808 56.2197C9.10523 56.0939 9.17702 55.9823 9.28136 55.9079L11.5064 54.3439L9.30036 55.6149C9.18945 55.6771 9.05903 55.6947 8.93562 55.6641C8.81221 55.6335 8.70509 55.5571 8.63604 55.4503C8.567 55.3435 8.54121 55.2145 8.56393 55.0894C8.58665 54.9643 8.65618 54.8526 8.75836 54.7769L12.6214 51.9999L9.27936 53.9259C9.16942 53.9881 9.04002 54.0064 8.91715 53.9771C8.79428 53.9478 8.68706 53.8731 8.61702 53.768C8.54698 53.6629 8.51933 53.5351 8.53961 53.4105C8.55989 53.2858 8.62661 53.1734 8.72636 53.0959L14.5404 48.6469L9.27936 51.6849C9.16458 51.7502 9.02864 51.7674 8.90122 51.7328C8.7738 51.6982 8.66524 51.6146 8.59922 51.5003C8.5332 51.3859 8.51509 51.2501 8.54884 51.1225C8.58258 50.9948 8.66545 50.8857 8.77936 50.8189L20.7204 43.9259C20.8303 43.8637 20.9597 43.8454 21.0826 43.8747C21.2054 43.904 21.3127 43.9787 21.3827 44.0839C21.4527 44.189 21.4804 44.3167 21.4601 44.4414C21.4398 44.566 21.3731 44.6784 21.2734 44.7559L15.4624 49.1999L20.7204 46.1649C20.8313 46.1028 20.9617 46.0852 21.0851 46.1158C21.2085 46.1463 21.3156 46.2228 21.3847 46.3295C21.4537 46.4363 21.4795 46.5653 21.4568 46.6904C21.4341 46.8155 21.3645 46.9273 21.2624 47.0029L17.4004 49.7859L20.7204 47.8699C20.8318 47.8067 20.9633 47.7887 21.0876 47.8196C21.212 47.8504 21.3197 47.9279 21.3886 48.0359C21.4576 48.144 21.4823 48.2743 21.4579 48.4001C21.4335 48.5259 21.3617 48.6375 21.2574 48.7119L19.0344 50.2739L20.7204 49.2999C20.8312 49.2369 20.9619 49.2186 21.0858 49.2487C21.2096 49.2788 21.3173 49.3552 21.3868 49.4621C21.4563 49.5689 21.4823 49.6983 21.4595 49.8238C21.4368 49.9492 21.367 50.0612 21.2644 50.1369L13.1874 56.0169C13.1863 56.1037 13.1627 56.1886 13.1189 56.2635C13.075 56.3384 13.0125 56.4005 12.9374 56.4439L11.2804 57.3999C11.2048 57.4452 11.1184 57.4693 11.0304 57.4699Z" fill="#FCB01A"/>
<path d="M23.1544 47.638C23.0555 47.6379 22.9588 47.6086 22.8766 47.5536C22.7943 47.4986 22.7303 47.4204 22.6925 47.329C22.6547 47.2375 22.6448 47.1369 22.6642 47.0399C22.6836 46.9429 22.7314 46.8538 22.8014 46.784L23.1654 46.421L22.7124 46.682C22.606 46.7421 22.4812 46.7611 22.3616 46.7355C22.2421 46.7098 22.1361 46.6412 22.0637 46.5427C21.9912 46.4442 21.9574 46.3226 21.9686 46.2008C21.9798 46.0791 22.0353 45.9656 22.1244 45.882L22.3244 45.703C22.2192 45.7471 22.102 45.7539 21.9924 45.7223C21.8827 45.6906 21.7872 45.6224 21.7217 45.529C21.6561 45.4355 21.6246 45.3225 21.6322 45.2086C21.6398 45.0947 21.6861 44.9869 21.7634 44.903L22.8634 43.778L21.9174 44.324C21.8143 44.3834 21.6933 44.4041 21.5763 44.3823C21.4593 44.3605 21.3539 44.2977 21.279 44.2051C21.2042 44.1125 21.1648 43.9963 21.168 43.8773C21.1712 43.7583 21.2167 43.6444 21.2964 43.556L22.9434 41.738L21.3594 42.653C21.2447 42.7182 21.1087 42.7354 20.9813 42.7008C20.8539 42.6662 20.7453 42.5827 20.6793 42.4683C20.6133 42.354 20.5952 42.2182 20.6289 42.0905C20.6627 41.9629 20.7455 41.8537 20.8594 41.787L25.2004 39.272C25.3037 39.2119 25.425 39.1907 25.5425 39.2124C25.66 39.234 25.7659 39.297 25.8409 39.39C25.916 39.4829 25.9553 39.5997 25.9517 39.7191C25.9481 39.8385 25.9019 39.9527 25.8214 40.041L24.1744 41.859L25.5174 41.085C25.622 41.0254 25.7445 41.0055 25.8626 41.029C25.9806 41.0524 26.0862 41.1177 26.16 41.2128C26.2338 41.3078 26.2708 41.4263 26.2643 41.5465C26.2578 41.6667 26.2081 41.7805 26.1244 41.867L25.0244 42.991L25.7744 42.559C25.8809 42.4996 26.0053 42.4812 26.1244 42.5072C26.2434 42.5331 26.3489 42.6017 26.421 42.6999C26.4931 42.7982 26.5268 42.9193 26.5158 43.0407C26.5049 43.1621 26.45 43.2752 26.3614 43.359L26.1004 43.6C26.206 43.5761 26.3164 43.5872 26.4152 43.6314C26.5139 43.6757 26.5957 43.7508 26.6481 43.8455C26.7005 43.9402 26.7208 44.0493 26.7059 44.1565C26.691 44.2637 26.6417 44.3632 26.5654 44.44L26.1944 44.812C26.3105 44.7604 26.4419 44.755 26.5618 44.7968C26.6818 44.8386 26.7813 44.9245 26.8402 45.037C26.8992 45.1495 26.9131 45.2802 26.8791 45.4026C26.8452 45.525 26.7659 45.6299 26.6574 45.696L23.4004 47.57C23.3259 47.614 23.241 47.6374 23.1544 47.638Z" fill="#FCB01A"/>
<path d="M7.02932 53.4699C6.92312 53.4698 6.81972 53.4359 6.73411 53.373C6.64849 53.3102 6.5851 53.2217 6.55313 53.1205C6.52115 53.0192 6.52226 52.9104 6.55627 52.8098C6.59029 52.7092 6.65545 52.622 6.74232 52.5609L11.4373 49.2609L5.68632 52.5809C5.57437 52.6473 5.44097 52.6674 5.31445 52.6369C5.18793 52.6065 5.07826 52.5279 5.00874 52.4179C4.93922 52.3079 4.91533 52.1751 4.94214 52.0478C4.96895 51.9204 5.04435 51.8086 5.15232 51.7359L14.6053 45.2249L5.27932 50.6129C5.16643 50.6741 5.03433 50.6895 4.91039 50.6559C4.78645 50.6224 4.68017 50.5424 4.61358 50.4326C4.54699 50.3229 4.52519 50.1917 4.55269 50.0662C4.5802 49.9408 4.6549 49.8308 4.76132 49.7589L5.19532 49.4819C5.08139 49.5211 4.95713 49.5179 4.84541 49.4728C4.73369 49.4276 4.64201 49.3437 4.58725 49.2364C4.5325 49.129 4.51833 49.0056 4.54738 48.8886C4.57642 48.7717 4.64671 48.6692 4.74532 48.5999L13.5583 42.4999L5.27932 47.2809C5.16737 47.3415 5.03655 47.357 4.91352 47.3245C4.79049 47.2919 4.68452 47.2136 4.61719 47.1056C4.54987 46.9976 4.52626 46.868 4.55118 46.7432C4.5761 46.6184 4.64768 46.5078 4.75132 46.4339L10.1343 42.8259L5.27932 45.6259C5.16762 45.689 5.03596 45.7067 4.91156 45.6755C4.78716 45.6442 4.67953 45.5663 4.61095 45.4579C4.54237 45.3495 4.51807 45.2189 4.54308 45.0931C4.56809 44.9672 4.64049 44.8559 4.74532 44.7819L11.3453 40.2139L5.27832 43.7139C5.16687 43.7772 5.0354 43.7952 4.91104 43.7643C4.78668 43.7334 4.67893 43.6559 4.61003 43.5479C4.54113 43.4399 4.51633 43.3095 4.54076 43.1837C4.56519 43.0579 4.63699 42.9463 4.74132 42.8719L11.3723 38.2249L5.27932 41.7489C5.16835 41.8126 5.0372 41.8313 4.91284 41.8012C4.78849 41.7712 4.68041 41.6945 4.61083 41.5872C4.54126 41.4798 4.51549 41.3498 4.53884 41.224C4.56218 41.0983 4.63286 40.9862 4.73632 40.9109L12.6853 35.1779L5.27932 39.4519C5.16737 39.5183 5.03397 39.5384 4.90745 39.5079C4.78093 39.4775 4.67126 39.3989 4.60174 39.2889C4.53222 39.1789 4.50833 39.0461 4.53514 38.9188C4.56195 38.7914 4.63735 38.6796 4.74532 38.6069L10.3783 34.7259L5.50532 37.5389C5.3931 37.6054 5.25935 37.6254 5.13259 37.5947C5.00583 37.5639 4.8961 37.4849 4.82682 37.3743C4.75754 37.2638 4.73418 37.1306 4.76174 37.0031C4.78929 36.8756 4.86558 36.764 4.97432 36.6919L9.39232 33.6919L7.10032 35.0139C6.9892 35.0784 6.85755 35.0975 6.73267 35.0675C6.60778 35.0375 6.49924 34.9606 6.42954 34.8527C6.35984 34.7448 6.33434 34.6142 6.35832 34.488C6.38229 34.3619 6.45391 34.2497 6.55832 34.1749L12.5103 29.8999L8.25632 32.3549C8.14429 32.417 8.01272 32.4337 7.88874 32.4016C7.76475 32.3695 7.65782 32.291 7.58998 32.1824C7.52213 32.0738 7.49856 31.9433 7.52411 31.8178C7.54967 31.6923 7.6224 31.5814 7.72732 31.5079L8.73932 30.8249L8.27932 31.0909C8.16811 31.1544 8.03681 31.1727 7.91247 31.1422C7.78812 31.1117 7.68022 31.0347 7.61099 30.927C7.54175 30.8193 7.51647 30.6892 7.54035 30.5634C7.56422 30.4376 7.63544 30.3258 7.73932 30.2509L12.0503 27.1869L8.27932 29.3629C8.16737 29.4235 8.03655 29.439 7.91352 29.4065C7.79049 29.3739 7.68452 29.2956 7.61719 29.1876C7.54987 29.0796 7.52626 28.95 7.55118 28.8252C7.5761 28.7004 7.64768 28.5898 7.75132 28.5159L8.33632 28.1229L8.27932 28.1549C8.16754 28.2171 8.03618 28.2341 7.91227 28.2023C7.78836 28.1706 7.68133 28.0926 7.61318 27.9844C7.54503 27.8761 7.52096 27.7459 7.54591 27.6204C7.57086 27.495 7.64294 27.3839 7.74732 27.3099L9.52132 26.0999L8.27932 26.8159C8.16888 26.8787 8.03868 26.8971 7.91517 26.8674C7.79166 26.8376 7.6841 26.762 7.61434 26.6558C7.54458 26.5497 7.51785 26.4209 7.53957 26.2958C7.5613 26.1706 7.62986 26.0584 7.73132 25.9819L10.7083 23.7709L8.27932 25.1709C8.17283 25.2319 8.04765 25.2516 7.92758 25.2262C7.80752 25.2009 7.70098 25.1323 7.62823 25.0335C7.55547 24.9347 7.5216 24.8125 7.53305 24.6904C7.5445 24.5682 7.60047 24.4545 7.69032 24.3709L10.5833 21.7109L8.28332 23.0409C8.17868 23.0972 8.05742 23.1144 7.94127 23.0894C7.82512 23.0643 7.72168 22.9988 7.64947 22.9044C7.57726 22.8101 7.54101 22.6931 7.54721 22.5745C7.55342 22.4558 7.60167 22.3432 7.68332 22.2569L8.61832 21.3099L8.28832 21.4999C8.20348 21.5487 8.10619 21.5715 8.00851 21.5656C7.91083 21.5596 7.81705 21.5251 7.7388 21.4663C7.66055 21.4075 7.60126 21.3271 7.56829 21.2349C7.53532 21.1428 7.53011 21.043 7.55332 20.9479L7.84132 19.7759C7.74195 19.7343 7.65926 19.6608 7.60632 19.5669C7.54025 19.4523 7.52231 19.3162 7.55642 19.1883C7.59054 19.0605 7.67392 18.9514 7.78832 18.8849L8.28832 18.5949C8.37309 18.546 8.47038 18.5229 8.56812 18.5287C8.66585 18.5346 8.75973 18.5689 8.83811 18.6276C8.91649 18.6863 8.97591 18.7667 9.00902 18.8588C9.04212 18.951 9.04744 19.0508 9.02432 19.1459L8.80232 20.0459L11.3303 18.5859C11.4351 18.5255 11.5582 18.5051 11.6769 18.5285C11.7956 18.552 11.9017 18.6176 11.9757 18.7133C12.0497 18.809 12.0864 18.9283 12.0792 19.049C12.072 19.1697 12.0212 19.2838 11.9363 19.3699L10.9993 20.3179L14.0003 18.5829C14.1068 18.522 14.232 18.5023 14.3521 18.5276C14.4721 18.553 14.5787 18.6216 14.6514 18.7204C14.7242 18.8192 14.758 18.9413 14.7466 19.0635C14.7351 19.1857 14.6792 19.2994 14.5893 19.3829L11.7003 22.0429L17.7083 18.5739C17.8188 18.5111 17.949 18.4928 18.0725 18.5225C18.196 18.5522 18.3035 18.6279 18.3733 18.734C18.4431 18.8402 18.4698 18.9689 18.4481 19.0941C18.4263 19.2193 18.3578 19.3315 18.2563 19.4079L15.2803 21.6189L20.5673 18.5669C20.6795 18.4984 20.8141 18.4769 20.942 18.5068C21.0699 18.5368 21.1809 18.616 21.251 18.7271C21.321 18.8383 21.3445 18.9726 21.3163 19.1009C21.2881 19.2293 21.2105 19.3413 21.1003 19.4129L19.3243 20.6239L20.7243 19.8179C20.8365 19.755 20.9687 19.7378 21.0932 19.7698C21.2178 19.8018 21.3253 19.8806 21.3933 19.9898C21.4613 20.099 21.4845 20.2302 21.4583 20.3561C21.432 20.482 21.3583 20.593 21.2523 20.6659L20.6673 21.0589L20.7243 21.0259C20.8355 20.9625 20.9668 20.9441 21.0912 20.9746C21.2155 21.0051 21.3234 21.0822 21.3927 21.1899C21.4619 21.2976 21.4872 21.4277 21.4633 21.5535C21.4394 21.6793 21.3682 21.7911 21.2643 21.8659L16.9533 24.9309L20.7243 22.7539C20.8366 22.6888 20.9698 22.67 21.0958 22.7013C21.2217 22.7327 21.3306 22.8118 21.3993 22.9219C21.468 23.032 21.4911 23.1645 21.4639 23.2914C21.4367 23.4184 21.3612 23.5297 21.2533 23.6019L20.2413 24.2829L20.7243 24.0049C20.8354 23.9405 20.9671 23.9213 21.092 23.9513C21.2169 23.9814 21.3254 24.0583 21.3951 24.1662C21.4648 24.2741 21.4903 24.4046 21.4663 24.5308C21.4423 24.657 21.3707 24.7691 21.2663 24.8439L15.3103 29.1219L20.7203 25.9999C20.8325 25.9334 20.9663 25.9134 21.0931 25.9442C21.2198 25.9749 21.3295 26.054 21.3988 26.1645C21.4681 26.275 21.4915 26.4082 21.4639 26.5357C21.4363 26.6632 21.3601 26.7749 21.2513 26.8469L16.8373 29.8469L20.7203 27.5999C20.832 27.5369 20.9637 27.5191 21.0881 27.5504C21.2125 27.5817 21.3201 27.6596 21.3887 27.768C21.4573 27.8764 21.4816 28.007 21.4566 28.1328C21.4316 28.2586 21.3591 28.37 21.2543 28.4439L15.6193 32.3269L20.7193 29.3829C20.8303 29.3192 20.9614 29.3005 21.0858 29.3306C21.2101 29.3607 21.3182 29.4373 21.3878 29.5447C21.4574 29.6521 21.4831 29.782 21.4598 29.9078C21.4365 30.0336 21.3658 30.1457 21.2623 30.2209L13.3143 35.9539L20.7613 31.6539C20.8728 31.5907 21.0042 31.5727 21.1286 31.6036C21.253 31.6345 21.3607 31.7119 21.4296 31.82C21.4985 31.928 21.5233 32.0584 21.4989 32.1841C21.4744 32.3099 21.4027 32.4215 21.2983 32.4959L14.6683 37.1419L21.4273 33.2419C21.539 33.1789 21.6707 33.1611 21.7951 33.1924C21.9195 33.2237 22.0271 33.3016 22.0957 33.41C22.1643 33.5184 22.1886 33.649 22.1636 33.7748C22.1386 33.9006 22.0661 34.012 21.9613 34.0859L15.3613 38.6509L22.6033 34.4699C22.7154 34.4079 22.8469 34.3912 22.9709 34.4233C23.0949 34.4554 23.2018 34.5338 23.2697 34.6425C23.3375 34.7511 23.3611 34.8816 23.3355 35.0071C23.31 35.1326 23.2372 35.2435 23.1323 35.3169L17.7453 38.9299L23.6573 35.5169C23.7688 35.4561 23.8992 35.4399 24.0222 35.4717C24.1451 35.5035 24.2514 35.5809 24.3193 35.6882C24.3873 35.7955 24.4119 35.9246 24.3881 36.0494C24.3643 36.1741 24.294 36.2852 24.1913 36.3599L15.3793 42.4599L24.7433 37.0539C24.8563 36.9908 24.9894 36.9739 25.1146 37.0069C25.2398 37.0398 25.3473 37.1201 25.4146 37.2307C25.4818 37.3413 25.5035 37.4737 25.4751 37.6C25.4467 37.7263 25.3704 37.8367 25.2623 37.9079L24.9953 38.0779C25.1078 38.015 25.2402 37.998 25.3649 38.0303C25.4897 38.0627 25.5971 38.1419 25.6648 38.2516C25.7325 38.3612 25.7553 38.4927 25.7284 38.6188C25.7015 38.7448 25.6269 38.8555 25.5203 38.9279L16.0643 45.4399L20.7203 42.7529C20.8318 42.6897 20.9632 42.6717 21.0876 42.7026C21.212 42.7335 21.3197 42.8109 21.3886 42.919C21.4575 43.027 21.4823 43.1574 21.4579 43.2831C21.4334 43.4089 21.3617 43.5205 21.2573 43.5949L9.18432 52.0679C9.17554 52.1457 9.14861 52.2204 9.10571 52.2858C9.06281 52.3513 9.00513 52.4058 8.93732 52.4449L7.27932 53.3999C7.20374 53.4452 7.11741 53.4694 7.02932 53.4699Z" fill="#FCB01A"/>
<path d="M27.9277 21.5079C27.8176 21.5079 27.7107 21.4716 27.6233 21.4046C27.536 21.3376 27.4733 21.2436 27.4448 21.1373C27.4163 21.031 27.4237 20.9183 27.4658 20.8166C27.5079 20.7149 27.5824 20.63 27.6777 20.5749L40.7317 13.0379C40.8406 12.9755 40.969 12.9563 41.0913 12.9841C41.2137 13.012 41.3212 13.0848 41.3923 13.1882C41.4635 13.2916 41.4931 13.418 41.4754 13.5422C41.4577 13.6665 41.3939 13.7795 41.2967 13.8589L36.9687 17.3669L40.7367 15.1909C40.8444 15.129 40.9713 15.1094 41.0927 15.136C41.2141 15.1626 41.3212 15.2334 41.3932 15.3346C41.4653 15.4358 41.497 15.5602 41.4823 15.6836C41.4676 15.807 41.4075 15.9204 41.3137 16.0019L39.0997 17.9149L40.7367 16.9709C40.8395 16.9121 40.9599 16.8917 41.0764 16.9134C41.1928 16.9351 41.2978 16.9974 41.3726 17.0892C41.4474 17.1811 41.4872 17.2965 41.4848 17.4149C41.4825 17.5334 41.4381 17.6471 41.3597 17.7359L40.2497 18.9789L40.7407 18.6959C40.8264 18.6464 40.9249 18.6234 41.0236 18.6299C41.1224 18.6363 41.217 18.672 41.2955 18.7323C41.374 18.7926 41.4328 18.8748 41.4646 18.9685C41.4963 19.0623 41.4995 19.1634 41.4737 19.2589L41.2117 20.2309C41.2935 20.2705 41.3629 20.3317 41.4125 20.4077C41.4621 20.4838 41.4901 20.572 41.4934 20.6628C41.4967 20.7536 41.4752 20.8435 41.4312 20.923C41.3872 21.0025 41.3224 21.0685 41.2437 21.1139L40.7437 21.4019C40.6581 21.451 40.5599 21.4737 40.4615 21.4671C40.363 21.4604 40.2688 21.4249 40.1905 21.3648C40.1122 21.3047 40.0535 21.2228 40.0217 21.1294C39.9899 21.036 39.9864 20.9353 40.0117 20.8399L40.1917 20.1669L38.0577 21.3999C37.9549 21.4587 37.8345 21.4791 37.7181 21.4574C37.6016 21.4358 37.4966 21.3735 37.4218 21.2816C37.347 21.1898 37.3072 21.0743 37.3096 20.9559C37.312 20.8375 37.3563 20.7237 37.4347 20.6349L38.5447 19.3919L35.0637 21.3999C34.9561 21.4607 34.8299 21.4794 34.7093 21.4526C34.5887 21.4258 34.4823 21.3553 34.4106 21.2546C34.339 21.154 34.3071 21.0304 34.3211 20.9077C34.3352 20.7849 34.3942 20.6717 34.4867 20.5899L36.6937 18.6779L31.9787 21.3999C31.8699 21.4613 31.742 21.4796 31.6203 21.4514C31.4986 21.4232 31.3919 21.3504 31.3211 21.2474C31.2504 21.1445 31.2208 21.0187 31.2381 20.895C31.2554 20.7713 31.3184 20.6585 31.4147 20.5789L35.7437 17.0699L28.1777 21.4399C28.1018 21.4842 28.0156 21.5076 27.9277 21.5079Z" fill="#F7D97C"/>
<path d="M13.8229 26.7929C13.7148 26.7928 13.6098 26.7576 13.5234 26.6928C13.437 26.6279 13.3739 26.5368 13.3437 26.4331C13.3134 26.3294 13.3175 26.2187 13.3554 26.1176C13.3933 26.0164 13.4629 25.9302 13.5539 25.8719L22.2709 20.2919L12.9269 25.6919C12.8286 25.7484 12.714 25.7698 12.6019 25.7526C12.4899 25.7355 12.387 25.6807 12.3101 25.5973C12.2333 25.514 12.187 25.407 12.179 25.2939C12.171 25.1808 12.2016 25.0683 12.2659 24.9749L13.1999 23.6199L13.0329 23.7199C12.9186 23.7797 12.7856 23.793 12.6618 23.7571C12.5379 23.7212 12.4328 23.6388 12.3682 23.5271C12.3037 23.4155 12.2848 23.2832 12.3155 23.1579C12.3461 23.0327 12.424 22.9241 12.5329 22.8549L14.6239 21.6479C14.7221 21.5918 14.8364 21.5707 14.9482 21.588C15.0599 21.6052 15.1625 21.6598 15.2393 21.7429C15.316 21.826 15.3622 21.9327 15.3705 22.0455C15.3788 22.1583 15.3486 22.2705 15.2849 22.3639L14.3529 23.7149L40.7219 8.48494C40.8349 8.42178 40.968 8.4049 41.0932 8.43787C41.2184 8.47084 41.3259 8.55108 41.3931 8.66172C41.4603 8.77235 41.482 8.90474 41.4537 9.03105C41.4253 9.15736 41.349 9.26773 41.2409 9.33894L32.5189 14.9219L40.7259 10.1839C40.8386 10.1236 40.9701 10.1087 41.0935 10.1424C41.2168 10.176 41.3226 10.2556 41.389 10.3649C41.4555 10.4741 41.4776 10.6046 41.4507 10.7296C41.4239 10.8546 41.3503 10.9646 41.2449 11.0369L35.6779 14.5999L40.7289 11.6829C40.8407 11.6208 40.972 11.6038 41.0959 11.6355C41.2198 11.6673 41.3269 11.7453 41.395 11.8535C41.4632 11.9618 41.4872 12.092 41.4623 12.2175C41.4373 12.3429 41.3653 12.454 41.2609 12.5279L24.6129 23.8669C24.6087 23.9503 24.5838 24.0314 24.5403 24.1026C24.4968 24.1739 24.4361 24.2331 24.3639 24.2749L22.0429 25.6159C21.9312 25.6766 21.8005 25.6925 21.6776 25.6603C21.5546 25.6281 21.4485 25.5503 21.3808 25.4426C21.3132 25.335 21.2891 25.2056 21.3134 25.0809C21.3378 24.9561 21.4087 24.8453 21.5119 24.7709L29.5889 19.2709L17.0999 26.4799C16.9871 26.542 16.8547 26.5581 16.7303 26.525C16.6058 26.4919 16.499 26.412 16.432 26.3021C16.365 26.1922 16.343 26.0606 16.3705 25.9349C16.398 25.8091 16.473 25.6988 16.5799 25.6269L22.1499 22.0639L14.0759 26.7259C13.999 26.7703 13.9117 26.7935 13.8229 26.7929Z" fill="#F7D97C"/>
<path d="M6.17487 21.47C6.0674 21.47 5.96278 21.4354 5.87652 21.3713C5.79025 21.3072 5.72694 21.217 5.69597 21.1141C5.66499 21.0112 5.668 20.901 5.70455 20.7999C5.7411 20.6989 5.80924 20.6123 5.89887 20.553L12.3989 16.26L4.11587 21.039C4.00357 21.1041 3.87037 21.1229 3.74441 21.0916C3.61846 21.0602 3.50962 20.9811 3.44093 20.871C3.37223 20.7609 3.34905 20.6284 3.37628 20.5015C3.40352 20.3746 3.47904 20.2632 3.58687 20.191L12.6539 14.081L3.28287 19.491C3.17042 19.5513 3.03915 19.5664 2.91594 19.5331C2.79274 19.4998 2.68693 19.4206 2.6202 19.3119C2.55347 19.2031 2.53087 19.0729 2.55702 18.948C2.58317 18.823 2.6561 18.7129 2.76087 18.64L7.62187 15.479L4.28787 17.4C4.17524 17.4611 4.04344 17.4767 3.91968 17.4434C3.79592 17.4102 3.68964 17.3307 3.62278 17.2214C3.55593 17.1121 3.53361 16.9812 3.56042 16.8559C3.58723 16.7306 3.66113 16.6204 3.76687 16.548L5.46687 15.448L2.43787 17.2C2.32592 17.2605 2.1951 17.2761 2.07207 17.2435C1.94904 17.2109 1.84307 17.1327 1.77574 17.0247C1.70842 16.9167 1.68481 16.787 1.70973 16.6622C1.73465 16.5374 1.80623 16.4268 1.90987 16.353L6.95087 12.976L1.42687 16.163C1.32928 16.2194 1.21551 16.2411 1.104 16.2247C0.992501 16.2083 0.889808 16.1547 0.812583 16.0726C0.735358 15.9905 0.688132 15.8848 0.678564 15.7725C0.668995 15.6602 0.697647 15.5479 0.759871 15.454L1.40487 14.48C1.30238 14.5005 1.19604 14.4884 1.10079 14.4453C1.00555 14.4023 0.926189 14.3305 0.873871 14.24C0.807887 14.1252 0.790097 13.989 0.824401 13.8611C0.858706 13.7333 0.942306 13.6243 1.05687 13.558L2.71587 12.6C2.81329 12.5435 2.92691 12.5216 3.03834 12.5377C3.14978 12.5539 3.2525 12.6072 3.32987 12.689C3.40747 12.7711 3.45495 12.8771 3.46457 12.9897C3.4742 13.1023 3.4454 13.2148 3.38287 13.309L2.76887 14.233L19.4619 4.59998C19.5738 4.53944 19.7046 4.52388 19.8277 4.55645C19.9507 4.58903 20.0567 4.66729 20.124 4.77529C20.1913 4.88329 20.2149 5.0129 20.19 5.13771C20.1651 5.26251 20.0935 5.37311 19.9899 5.44698L14.9539 8.81698L22.1109 4.68598C22.2236 4.62299 22.3563 4.60606 22.4813 4.63873C22.6062 4.6714 22.7136 4.75114 22.7811 4.86125C22.8486 4.97136 22.8708 5.1033 22.8432 5.22944C22.8155 5.35559 22.7402 5.46615 22.6329 5.53798L20.9229 6.64398L23.4529 5.18398C23.5654 5.12199 23.6975 5.10572 23.8217 5.13852C23.946 5.17132 24.0528 5.25069 24.1201 5.36015C24.1873 5.46962 24.2099 5.60078 24.183 5.72642C24.1562 5.85207 24.082 5.96256 23.9759 6.03498L19.1119 9.19998L24.6289 6.01598C24.7409 5.95392 24.8725 5.93723 24.9965 5.96933C25.1204 6.00143 25.2274 6.07988 25.2952 6.1885C25.3631 6.29712 25.3866 6.42764 25.3611 6.55313C25.3355 6.67863 25.2628 6.78953 25.1579 6.86298L16.0899 12.973L26.2349 7.11498C26.3474 7.04971 26.481 7.03089 26.6072 7.06253C26.7335 7.09417 26.8424 7.17377 26.9108 7.28442C26.9793 7.39507 27.002 7.52805 26.9739 7.65513C26.9459 7.7822 26.8695 7.89335 26.7609 7.96498L20.2609 12.265L28.3399 7.59998C28.4514 7.53987 28.5816 7.52435 28.7042 7.55657C28.8267 7.58878 28.9325 7.66632 29 7.77352C29.0676 7.88071 29.092 8.00956 29.0682 8.13402C29.0444 8.25848 28.9742 8.36926 28.8719 8.44398L20.6719 14.062L31.8839 7.58798C31.9958 7.52502 32.1277 7.50756 32.2522 7.53921C32.3766 7.57086 32.4842 7.64919 32.5525 7.75798C32.6207 7.86676 32.6445 7.99765 32.6189 8.1235C32.5933 8.24936 32.5202 8.36053 32.4149 8.43398L24.5999 13.745L35.2849 7.57898C35.3969 7.51692 35.5285 7.50023 35.6525 7.53233C35.7764 7.56443 35.8834 7.64288 35.9512 7.7515C36.0191 7.86013 36.0426 7.99064 36.0171 8.11613C35.9915 8.24163 35.9188 8.35253 35.8139 8.42598L28.4459 13.4L38.5399 7.57098C38.6547 7.50572 38.7906 7.48851 38.918 7.5231C39.0454 7.5577 39.154 7.64128 39.22 7.75563C39.286 7.86997 39.3041 8.00579 39.2704 8.13343C39.2366 8.26108 39.1538 8.3702 39.0399 8.43698L16.5839 21.4C16.4721 21.4599 16.3417 21.4751 16.2191 21.4425C16.0965 21.4099 15.9909 21.3319 15.9237 21.2244C15.8564 21.1168 15.8326 20.9878 15.8569 20.8633C15.8813 20.7388 15.952 20.6282 16.0549 20.554L23.4259 15.579L13.3419 21.4C13.2302 21.4607 13.0995 21.4765 12.9766 21.4443C12.8536 21.4121 12.7475 21.3343 12.6798 21.2267C12.6122 21.119 12.5881 20.9897 12.6124 20.8649C12.6368 20.7401 12.7077 20.6293 12.8109 20.555L20.6229 15.242L9.95487 21.4C9.84332 21.4601 9.71311 21.4756 9.59056 21.4434C9.46802 21.4112 9.36227 21.3336 9.2947 21.2264C9.22713 21.1192 9.20278 20.9904 9.22658 20.8659C9.25037 20.7415 9.32053 20.6307 9.42287 20.556L17.6229 14.936L6.42487 21.4C6.34915 21.4449 6.26291 21.4691 6.17487 21.47Z" fill="#F7D97C"/>
<path d="M3.90742 13.131C3.8086 13.131 3.71201 13.1017 3.62983 13.0468C3.54766 12.9919 3.48359 12.9139 3.44571 12.8227C3.40784 12.7314 3.39785 12.631 3.41702 12.534C3.43619 12.4371 3.48365 12.348 3.55342 12.278L4.48942 11.335L3.36542 11.983C3.26566 12.0401 3.14929 12.061 3.0359 12.0423C2.92251 12.0237 2.81902 11.9665 2.74284 11.8804C2.66665 11.7944 2.62244 11.6847 2.61763 11.5699C2.61281 11.4551 2.6477 11.3421 2.71642 11.25L3.26042 10.527C3.1549 10.5185 3.05481 10.4766 2.97459 10.4075C2.89437 10.3385 2.83814 10.2457 2.81401 10.1426C2.78988 10.0395 2.79909 9.93145 2.84032 9.83394C2.88154 9.73643 2.95266 9.65452 3.04342 9.60002L4.75942 8.60002C4.85928 8.5425 4.97594 8.52125 5.08967 8.53985C5.20339 8.55845 5.3072 8.61576 5.38354 8.70209C5.45987 8.78842 5.50404 8.89847 5.50857 9.01362C5.51311 9.12877 5.47773 9.24195 5.40842 9.33401L4.99342 9.88601L7.23242 8.60002C7.33719 8.54308 7.45887 8.52546 7.57549 8.55034C7.69211 8.57522 7.796 8.64096 7.86842 8.7357C7.94083 8.83044 7.977 8.94795 7.9704 9.06701C7.9638 9.18607 7.91486 9.29886 7.83242 9.38502L6.89442 10.329L16.8254 4.60001C16.8823 4.56384 16.946 4.53955 17.0125 4.5286C17.079 4.51766 17.1471 4.52029 17.2126 4.53633C17.2781 4.55237 17.3397 4.5815 17.3936 4.62196C17.4476 4.66241 17.4928 4.71337 17.5265 4.77175C17.5603 4.83013 17.5819 4.89474 17.59 4.96168C17.5981 5.02862 17.5926 5.09652 17.5739 5.16128C17.5551 5.22605 17.5234 5.28634 17.4807 5.33854C17.438 5.39074 17.3852 5.43376 17.3254 5.46501L4.15742 13.065C4.0815 13.109 3.99516 13.1318 3.90742 13.131Z" fill="#F7D97C"/>
<path d="M7.66815 8.94301C7.56946 8.943 7.47297 8.91377 7.39086 8.85901C7.30875 8.80426 7.24467 8.72643 7.20671 8.63532C7.16875 8.54422 7.1586 8.44392 7.17755 8.34706C7.19649 8.2502 7.24367 8.16111 7.31315 8.09101L8.06415 7.33401L7.31215 7.76901C7.21019 7.82808 7.09064 7.84924 6.97461 7.82875C6.85857 7.80827 6.75349 7.74746 6.67791 7.65706C6.60234 7.56665 6.56112 7.45246 6.56153 7.33463C6.56194 7.21679 6.60395 7.10289 6.68015 7.01301L7.11715 6.50001C7.02875 6.46654 6.95165 6.4087 6.89479 6.33319C6.83793 6.25768 6.80364 6.16759 6.79589 6.07339C6.78815 5.97918 6.80726 5.88471 6.85103 5.80092C6.89479 5.71714 6.96141 5.64748 7.04315 5.60001L8.76015 4.60001C8.86211 4.54095 8.98166 4.51979 9.0977 4.54028C9.21374 4.56076 9.31881 4.62157 9.39439 4.71197C9.46997 4.80238 9.51119 4.91657 9.51078 5.0344C9.51037 5.15224 9.46836 5.26614 9.39215 5.35601L9.30215 5.46201L10.8092 4.60001C10.9139 4.54307 11.0356 4.52546 11.1522 4.55034C11.2688 4.57522 11.3727 4.64096 11.4451 4.7357C11.5176 4.83044 11.5537 4.94795 11.5471 5.06701C11.5405 5.18607 11.4916 5.29886 11.4092 5.38501L10.6592 6.14001L13.3322 4.60001C13.3891 4.56384 13.4527 4.53955 13.5192 4.5286C13.5858 4.51766 13.6538 4.52029 13.7193 4.53633C13.7848 4.55237 13.8464 4.5815 13.9004 4.62196C13.9543 4.66241 13.9995 4.71337 14.0333 4.77175C14.067 4.83013 14.0886 4.89474 14.0967 4.96168C14.1049 5.02862 14.0994 5.09652 14.0806 5.16128C14.0618 5.22605 14.0301 5.28634 13.9874 5.33854C13.9447 5.39074 13.8919 5.43376 13.8322 5.46501L7.91815 8.87602C7.84235 8.9204 7.75599 8.94354 7.66815 8.94301Z" fill="#F7D97C"/>
<path d="M42.6845 39.4699C42.5745 39.4699 42.4675 39.4336 42.3802 39.3666C42.2929 39.2996 42.2301 39.2056 42.2016 39.0993C42.1731 38.993 42.1805 38.8803 42.2226 38.7786C42.2647 38.6769 42.3392 38.5919 42.4345 38.5369L43.1205 38.1369C43.1776 38.1039 43.2407 38.0824 43.3061 38.0738C43.3714 38.0653 43.4379 38.0697 43.5015 38.0869L44.7615 38.4289L51.7375 34.4009C51.841 34.3415 51.9623 34.321 52.0795 34.3432C52.1967 34.3653 52.3021 34.4287 52.3767 34.5218C52.4513 34.6148 52.4902 34.7315 52.4863 34.8507C52.4824 34.97 52.436 35.0839 52.3555 35.1719L50.7645 36.9079L51.7435 36.3439C51.8403 36.2893 51.9525 36.2685 52.0624 36.2847C52.1723 36.301 52.2737 36.3534 52.3505 36.4336C52.4273 36.5139 52.4752 36.6174 52.4866 36.728C52.498 36.8385 52.4723 36.9496 52.4136 37.0439L52.0246 37.6439C52.1321 37.6498 52.2348 37.6903 52.3175 37.7593C52.4001 37.8282 52.4583 37.9221 52.4834 38.0268C52.5084 38.1315 52.499 38.2415 52.4565 38.3405C52.414 38.4394 52.3407 38.522 52.2476 38.5759L50.8325 39.3919C50.7358 39.4465 50.6236 39.4673 50.5137 39.4511C50.4038 39.4348 50.3024 39.3824 50.2256 39.3022C50.1488 39.2219 50.1009 39.1184 50.0895 39.0078C50.0781 38.8973 50.1038 38.7862 50.1625 38.6919L50.4535 38.2389L48.4535 39.3949C48.3502 39.4536 48.2294 39.4737 48.1126 39.4514C47.9959 39.4291 47.8909 39.3659 47.8165 39.2732C47.7421 39.1805 47.7031 39.0643 47.7066 38.9455C47.7101 38.8267 47.7558 38.7131 47.8355 38.6249L49.4235 36.8999L45.0805 39.3999C45.0236 39.4333 44.9606 39.455 44.8951 39.4635C44.8297 39.4721 44.7632 39.4675 44.6995 39.4499L43.4395 39.1079L42.9395 39.3999C42.8624 39.4457 42.7743 39.4699 42.6845 39.4699Z" fill="#FCB01A"/>
<path d="M47.3929 37.0198C47.2927 37.0201 47.1948 36.9902 47.1118 36.9342C47.0289 36.8781 46.9646 36.7984 46.9275 36.7055C46.8903 36.6125 46.8819 36.5105 46.9034 36.4126C46.9248 36.3148 46.9752 36.2257 47.0479 36.1569L48.5999 34.6838L47.6669 35.2218C47.5596 35.283 47.4335 35.3023 47.3129 35.276C47.1923 35.2497 47.0857 35.1798 47.0135 35.0796C46.9414 34.9794 46.9089 34.8561 46.9222 34.7333C46.9356 34.6106 46.9939 34.4972 47.0859 34.4149L47.9389 33.6588L46.8619 34.2798C46.7556 34.3355 46.6329 34.3511 46.516 34.3238C46.3992 34.2965 46.2961 34.2281 46.2255 34.1311C46.155 34.0341 46.1216 33.9149 46.1316 33.7954C46.1416 33.6758 46.1942 33.5638 46.2799 33.4798L47.9869 31.9598L44.0699 34.2208C43.9589 34.2845 43.8278 34.3033 43.7034 34.2732C43.5791 34.2431 43.471 34.1665 43.4014 34.0591C43.3318 33.9517 43.3061 33.8218 43.3294 33.696C43.3527 33.5702 43.4234 33.4581 43.5269 33.3828L43.7749 33.2049L41.0749 34.7638C40.9647 34.8257 40.8352 34.8435 40.7125 34.8138C40.5897 34.784 40.4827 34.7089 40.4131 34.6035C40.3434 34.4982 40.3162 34.3703 40.337 34.2457C40.3577 34.1211 40.4248 34.009 40.5249 33.9318L46.9129 29.1258L39.2859 33.5259C39.1736 33.5855 39.0428 33.6002 38.9201 33.5668C38.7974 33.5335 38.692 33.4547 38.6254 33.3464C38.5587 33.2381 38.5359 33.1084 38.5614 32.9839C38.587 32.8593 38.659 32.7492 38.7629 32.6758L39.6129 32.1178L39.2859 32.3068C39.1738 32.3707 39.0413 32.3888 38.9161 32.3573C38.791 32.3258 38.6829 32.2471 38.6145 32.1377C38.546 32.0283 38.5225 31.8966 38.5488 31.7703C38.5752 31.644 38.6494 31.5327 38.7559 31.4598L42.9679 28.6138L39.2799 30.7358C39.1674 30.7962 39.0362 30.8113 38.913 30.778C38.7897 30.7447 38.6839 30.6655 38.6172 30.5567C38.5505 30.4479 38.5279 30.3178 38.554 30.1928C38.5802 30.0679 38.6531 29.9577 38.7579 29.8848L39.1789 29.6098C39.0727 29.6434 38.9584 29.6411 38.8538 29.6031C38.7491 29.5651 38.6598 29.4937 38.5999 29.3998C38.5317 29.2891 38.5093 29.1562 38.5375 29.0292C38.5657 28.9023 38.6422 28.7913 38.7509 28.7198L40.7619 27.3918L39.2209 28.2808C39.1091 28.343 38.9777 28.36 38.8538 28.3282C38.7299 28.2965 38.6229 28.2185 38.5547 28.1103C38.4866 28.002 38.4625 27.8718 38.4875 27.7463C38.5124 27.6209 38.5845 27.5098 38.6889 27.4358L43.3889 24.2408L38.6889 26.9518C38.5764 27.0148 38.444 27.0318 38.3193 26.9995C38.1945 26.9671 38.0871 26.8879 38.0194 26.7782C37.9517 26.6686 37.9289 26.537 37.9558 26.411C37.9827 26.285 38.0573 26.1742 38.1639 26.1018L40.5119 24.5558L37.9059 26.0558C37.7934 26.1188 37.661 26.1358 37.5363 26.1035C37.4115 26.0711 37.3041 25.9919 37.2364 25.8822C37.1687 25.7726 37.1459 25.641 37.1728 25.515C37.1997 25.389 37.2743 25.2782 37.3809 25.2058L40.6689 23.0368L37.0039 25.1518C36.8914 25.2148 36.759 25.2318 36.6343 25.1995C36.5095 25.1671 36.4021 25.0879 36.3344 24.9782C36.2667 24.8686 36.2439 24.737 36.2708 24.611C36.2977 24.485 36.3723 24.3742 36.4789 24.3018L40.1169 21.9128L36.0999 24.2378C35.987 24.3035 35.853 24.3224 35.7264 24.2905C35.5998 24.2586 35.4907 24.1785 35.4224 24.0672C35.3541 23.9559 35.332 23.8224 35.3609 23.6951C35.3898 23.5677 35.4673 23.4568 35.5769 23.3858L38.4459 21.5258L35.3999 23.2828C35.2879 23.3458 35.1561 23.3633 35.0316 23.3316C34.9071 23.3 34.7996 23.2216 34.7313 23.1128C34.663 23.0041 34.6392 22.8732 34.6648 22.7473C34.6904 22.6215 34.7635 22.5103 34.8689 22.4368L43.3779 16.6568L34.9429 21.5258C34.8385 21.5854 34.7162 21.6054 34.5984 21.5821C34.4805 21.5589 34.3749 21.494 34.301 21.3993C34.2271 21.3046 34.1897 21.1864 34.1957 21.0664C34.2018 20.9464 34.2508 20.8326 34.3339 20.7458L35.7879 19.2458L34.6599 19.8998C34.5585 19.9586 34.4397 19.9798 34.3243 19.9599C34.2088 19.94 34.104 19.8802 34.0282 19.7909C33.9523 19.7016 33.9102 19.5885 33.9093 19.4713C33.9083 19.3542 33.9485 19.2404 34.0229 19.1498L35.8689 16.8998L34.2939 17.8098C34.191 17.8693 34.0704 17.8902 33.9535 17.8688C33.8367 17.8474 33.7313 17.7851 33.6562 17.693C33.5811 17.601 33.5412 17.4852 33.5437 17.3664C33.5463 17.2476 33.591 17.1336 33.6699 17.0448L35.0199 15.5258L33.9999 16.1118C33.9048 16.1664 33.7945 16.1882 33.6858 16.1739C33.5771 16.1597 33.4762 16.1101 33.3985 16.0328C33.3207 15.9555 33.2706 15.8549 33.2556 15.7463C33.2407 15.6377 33.2619 15.5272 33.3159 15.4318L34.2309 13.8318L34.1309 13.8878C34.074 13.9212 34.0111 13.943 33.9457 13.9519C33.8804 13.9608 33.814 13.9567 33.7502 13.9399C33.6865 13.923 33.6267 13.8937 33.5743 13.8537C33.5219 13.8136 33.478 13.7636 33.445 13.7065C33.412 13.6494 33.3907 13.5863 33.3822 13.521C33.3737 13.4556 33.3782 13.3891 33.3955 13.3255C33.4128 13.2619 33.4424 13.2023 33.4828 13.1502C33.5232 13.098 33.5736 13.0544 33.6309 13.0218L35.3309 12.0408C35.426 11.986 35.5366 11.964 35.6455 11.9782C35.7544 11.9925 35.8556 12.0422 35.9334 12.1197C36.0112 12.1972 36.0614 12.2981 36.0761 12.407C36.0908 12.5158 36.0693 12.6265 36.0149 12.7218L35.1009 14.3218L37.1939 13.1138C37.2967 13.0544 37.4174 13.0335 37.5342 13.0549C37.6511 13.0763 37.7565 13.1386 37.8316 13.2307C37.9067 13.3227 37.9465 13.4385 37.944 13.5573C37.9415 13.6761 37.8968 13.79 37.8179 13.8788L36.4699 15.3998L37.7469 14.6628C37.8483 14.6041 37.967 14.5829 38.0825 14.6028C38.198 14.6227 38.3027 14.6825 38.3786 14.7718C38.4544 14.8611 38.4965 14.9742 38.4975 15.0914C38.4984 15.2085 38.4582 15.3223 38.3839 15.4128L36.5379 17.6618L38.3919 16.5928C38.4962 16.5333 38.6185 16.5133 38.7364 16.5366C38.8543 16.5598 38.9598 16.6247 39.0338 16.7194C39.1077 16.8141 39.1451 16.9323 39.139 17.0523C39.133 17.1723 39.0839 17.2861 39.0009 17.3728L37.5469 18.8728L54.7199 8.95485C54.8321 8.88836 54.9659 8.86835 55.0926 8.8991C55.2194 8.92985 55.3291 9.00891 55.3984 9.11943C55.4677 9.22994 55.491 9.36315 55.4635 9.49064C55.4359 9.61814 55.3596 9.72981 55.2509 9.80185L46.7429 15.5798L54.7199 10.9798C54.8326 10.9169 54.9653 10.8999 55.0903 10.9326C55.2152 10.9653 55.3226 11.045 55.3901 11.1551C55.4576 11.2652 55.4798 11.3972 55.4522 11.5233C55.4246 11.6495 55.3492 11.76 55.2419 11.8318L52.3749 13.6908L54.7199 12.3368C54.8325 12.2728 54.9656 12.255 55.0912 12.2872C55.2167 12.3194 55.3248 12.399 55.3928 12.5094C55.4607 12.6197 55.4831 12.7521 55.4554 12.8787C55.4276 13.0052 55.3518 13.1161 55.2439 13.1878L51.5999 15.5758L54.7189 13.7758C54.8313 13.7129 54.9638 13.6959 55.0885 13.7282C55.2132 13.7606 55.3206 13.8398 55.3884 13.9495C55.4561 14.0591 55.4788 14.1907 55.4519 14.3167C55.425 14.4427 55.3505 14.5534 55.2439 14.6258L51.9609 16.7918L54.7199 15.1998C54.8327 15.1323 54.9675 15.1119 55.0952 15.143C55.223 15.1742 55.3333 15.2544 55.4023 15.3663C55.4713 15.4782 55.4935 15.6127 55.464 15.7409C55.4346 15.869 55.3558 15.9804 55.2449 16.0508L52.8999 17.5998L54.7229 16.5478C54.8348 16.4849 54.9667 16.4674 55.0912 16.4991C55.2157 16.5307 55.3232 16.6091 55.3915 16.7178C55.4597 16.8266 55.4835 16.9575 55.4579 17.0834C55.4323 17.2092 55.3592 17.3204 55.2539 17.3938L50.5479 20.5938L54.7229 18.1838C54.8351 18.1234 54.9661 18.1081 55.0892 18.1411C55.2123 18.174 55.3182 18.2527 55.3852 18.3611C55.4522 18.4695 55.4753 18.5994 55.4498 18.7242C55.4243 18.8491 55.3521 18.9595 55.2479 19.0328L53.2479 20.3548L54.7199 19.4998C54.8326 19.4369 54.9653 19.4199 55.0903 19.4526C55.2152 19.4853 55.3226 19.565 55.3901 19.6751C55.4576 19.7852 55.4798 19.9172 55.4522 20.0433C55.4246 20.1695 55.3492 20.28 55.2419 20.3518L54.8179 20.6278C54.9326 20.5909 55.0568 20.5967 55.1676 20.6441C55.2784 20.6914 55.3684 20.7772 55.421 20.8857C55.4735 20.9941 55.4852 21.1179 55.4538 21.2342C55.4223 21.3506 55.3499 21.4516 55.2499 21.5188L51.0499 24.3588L54.5299 22.3508C54.6422 22.2897 54.7738 22.274 54.8974 22.3068C55.021 22.3397 55.1274 22.4188 55.1945 22.5277C55.2616 22.6365 55.2845 22.767 55.2583 22.8923C55.2321 23.0175 55.159 23.1279 55.0539 23.2008L53.6999 24.0798C53.8105 24.0615 53.924 24.0808 54.0223 24.1347C54.1206 24.1885 54.1979 24.2739 54.2419 24.377C54.2858 24.4802 54.2939 24.5951 54.2647 24.7033C54.2355 24.8115 54.1707 24.9068 54.0809 24.9738L47.6939 29.7738L51.7709 27.4208C51.8818 27.3572 52.013 27.3384 52.1374 27.3685C52.2617 27.3986 52.3698 27.4752 52.4394 27.5826C52.5089 27.69 52.5347 27.8199 52.5114 27.9457C52.488 28.0715 52.4173 28.1836 52.3139 28.2588L51.8669 28.5818C51.9745 28.5596 52.0865 28.5734 52.1855 28.6212C52.2846 28.669 52.3651 28.7481 52.4146 28.8462C52.4641 28.9444 52.4799 29.0561 52.4595 29.1641C52.4392 29.2722 52.3838 29.3705 52.3019 29.4438L50.5999 30.9688L51.7309 30.3158C51.8381 30.2547 51.9642 30.2354 52.0848 30.2617C52.2055 30.288 52.3121 30.3579 52.3842 30.4581C52.4564 30.5583 52.4889 30.6816 52.4755 30.8044C52.4622 30.9271 52.4039 31.0405 52.3119 31.1228L51.4629 31.8748L51.7339 31.7188C51.84 31.6393 51.9733 31.6051 52.1046 31.6239C52.2359 31.6426 52.3543 31.7128 52.4339 31.8188C52.5134 31.9249 52.5476 32.0583 52.5289 32.1896C52.5101 32.3208 52.44 32.4393 52.3339 32.5188L50.7829 33.9938L51.7439 33.4409C51.8008 33.4047 51.8644 33.3804 51.931 33.3694C51.9975 33.3585 52.0656 33.3611 52.1311 33.3772C52.1966 33.3932 52.2581 33.4223 52.3121 33.4628C52.366 33.5033 52.4113 33.5542 52.445 33.6126C52.4787 33.671 52.5003 33.7356 52.5085 33.8025C52.5166 33.8695 52.5111 33.9374 52.4923 34.0021C52.4735 34.0669 52.4418 34.1272 52.3991 34.1794C52.3564 34.2316 52.3036 34.2746 52.2439 34.3058L47.6519 36.9569C47.573 37.0012 47.4834 37.023 47.3929 37.0198Z" fill="#FCB01A"/>
<path d="M51.3127 8.48793C51.203 8.48755 51.0964 8.45107 51.0094 8.38412C50.9225 8.31717 50.86 8.22347 50.8315 8.11747C50.8031 8.01147 50.8103 7.89906 50.8521 7.79758C50.8939 7.6961 50.9679 7.61118 51.0627 7.55593L52.7197 6.59993C52.834 6.54015 52.9669 6.52684 53.0908 6.56277C53.2146 6.5987 53.3198 6.6811 53.3844 6.79275C53.4489 6.9044 53.4678 7.03667 53.4371 7.16193C53.4064 7.28718 53.3285 7.39574 53.2197 7.46493L51.5627 8.42193C51.4867 8.46573 51.4004 8.48851 51.3127 8.48793Z" fill="#FCB01A"/>
<path d="M47.3127 4.48793C47.203 4.48755 47.0964 4.45107 47.0094 4.38412C46.9225 4.31717 46.86 4.22347 46.8315 4.11747C46.8031 4.01147 46.8103 3.89906 46.8521 3.79758C46.8939 3.6961 46.9679 3.61118 47.0627 3.55593L48.7197 2.59993C48.834 2.54015 48.9669 2.52684 49.0908 2.56277C49.2146 2.5987 49.3198 2.6811 49.3844 2.79275C49.4489 2.9044 49.4678 3.03667 49.4371 3.16193C49.4064 3.28718 49.3285 3.39574 49.2197 3.46493L47.5627 4.42193C47.4867 4.46573 47.4004 4.48851 47.3127 4.48793Z" fill="#FCB01A"/>
<path d="M43.0303 4.06889C42.9374 4.06889 42.8464 4.04304 42.7674 3.99422C42.6884 3.9454 42.6246 3.87555 42.5831 3.7925C42.5415 3.70945 42.524 3.61647 42.5323 3.52399C42.5406 3.43151 42.5746 3.34318 42.6303 3.26889L43.2483 2.46089C43.1493 2.43999 43.059 2.38956 42.9893 2.31628C42.9196 2.24299 42.8738 2.15029 42.8579 2.05042C42.842 1.95054 42.8567 1.84819 42.9001 1.75686C42.9436 1.66554 43.0137 1.58954 43.1013 1.53889L44.7223 0.599893C44.8223 0.543085 44.9389 0.522505 45.0523 0.541622C45.1657 0.560739 45.2691 0.618384 45.345 0.704839C45.4209 0.791293 45.4646 0.901268 45.4689 1.01622C45.4731 1.13118 45.4376 1.24408 45.3683 1.33589L44.9543 1.87689L46.1543 1.18689C46.2691 1.12163 46.405 1.10442 46.5324 1.13902C46.6598 1.17361 46.7684 1.2572 46.8344 1.37155C46.9004 1.48589 46.9185 1.6217 46.8848 1.74935C46.851 1.877 46.7682 1.98612 46.6543 2.05289L43.2803 3.99989C43.2047 4.04498 43.1183 4.06881 43.0303 4.06889Z" fill="#FCB01A"/>
<path d="M39.0302 17.6689C38.9243 17.6688 38.8212 17.6351 38.7356 17.5726C38.6501 17.5101 38.5867 17.422 38.5544 17.3212C38.5222 17.2203 38.5228 17.1118 38.5562 17.0112C38.5896 16.9107 38.654 16.8234 38.7402 16.7619L42.0172 14.4339L39.2802 16.0139C39.1689 16.0764 39.0379 16.094 38.9141 16.063C38.7903 16.0321 38.6829 15.9549 38.6141 15.8474C38.5454 15.7399 38.5203 15.6101 38.5441 15.4847C38.5679 15.3593 38.6388 15.2477 38.7422 15.1729L41.6852 13.0999L39.2802 14.4839C39.1694 14.5469 39.0387 14.5652 38.9148 14.5351C38.7909 14.505 38.6833 14.4287 38.6138 14.3218C38.5443 14.2149 38.5183 14.0855 38.541 13.96C38.5638 13.8346 38.6336 13.7226 38.7362 13.6469L42.9532 10.5839L39.2802 12.6999C39.1699 12.7636 39.0394 12.7827 38.9154 12.7534C38.7914 12.7242 38.6833 12.6487 38.6131 12.5423C38.5429 12.436 38.5159 12.3069 38.5377 12.1814C38.5594 12.0558 38.6283 11.9433 38.7302 11.8669L43.4532 8.33089L39.2802 10.7429C39.1719 10.805 39.0443 10.8243 38.9225 10.797C38.8007 10.7698 38.6935 10.698 38.6219 10.5957C38.5504 10.4935 38.5197 10.3681 38.5358 10.2444C38.552 10.1206 38.6138 10.0074 38.7092 9.92689L42.2292 6.98189L39.2802 8.68189C39.1737 8.74467 39.0477 8.76575 38.9265 8.74106C38.8054 8.71638 38.6977 8.64767 38.6242 8.54822C38.5507 8.44877 38.5167 8.32563 38.5287 8.20257C38.5407 8.0795 38.5979 7.96526 38.6892 7.88189L39.3892 7.22689L39.2792 7.28989C39.1753 7.34933 39.0535 7.36951 38.9359 7.34673C38.8184 7.32396 38.7129 7.25976 38.6386 7.16579C38.5644 7.07183 38.5264 6.95436 38.5314 6.83472C38.5365 6.71509 38.5843 6.60124 38.6662 6.51389L39.5172 5.61389L39.2792 5.75089C39.1779 5.80613 39.0605 5.82459 38.9471 5.80314C38.8336 5.78168 38.7311 5.72164 38.6569 5.63319C38.5827 5.54474 38.5414 5.43335 38.54 5.31791C38.5386 5.20247 38.5772 5.09011 38.6492 4.99989L39.1172 4.44789C39.0192 4.40589 38.9376 4.3328 38.8852 4.23989C38.8192 4.12526 38.8012 3.98912 38.8353 3.86129C38.8694 3.73346 38.9528 3.62436 39.0672 3.55789L40.7272 2.59989C40.8291 2.5426 40.9477 2.52277 41.0626 2.54385C41.1776 2.56494 41.2815 2.6256 41.3563 2.7153C41.4312 2.80501 41.4722 2.9181 41.4724 3.03493C41.4726 3.15176 41.4318 3.26497 41.3572 3.35489L41.2812 3.44589L41.9812 3.04589C42.0852 2.98573 42.2073 2.96501 42.3253 2.98751C42.4433 3.01001 42.5492 3.07423 42.6237 3.16841C42.6983 3.2626 42.7364 3.38047 42.7312 3.50046C42.7259 3.62045 42.6777 3.73455 42.5952 3.82189L41.7432 4.72189L42.6782 4.18289C42.7848 4.12011 42.9108 4.09903 43.0319 4.12371C43.1531 4.1484 43.2608 4.2171 43.3343 4.31655C43.4077 4.416 43.4417 4.53915 43.4297 4.66221C43.4177 4.78527 43.3605 4.89952 43.2692 4.98289L42.5692 5.63689L46.7202 3.23689C46.8287 3.17343 46.957 3.15312 47.0798 3.18001C47.2025 3.2069 47.3106 3.27901 47.3826 3.382C47.4546 3.48498 47.4851 3.61129 47.4682 3.7358C47.4513 3.8603 47.3881 3.97386 47.2912 4.05389L43.7712 6.99989L50.2082 3.27989C50.3186 3.2162 50.4491 3.19704 50.5731 3.22633C50.6971 3.25561 50.8052 3.33112 50.8754 3.43744C50.9456 3.54377 50.9726 3.67288 50.9508 3.79841C50.929 3.92394 50.8601 4.03642 50.7582 4.11289L46.0372 7.64789L50.7202 4.94789C50.8311 4.88485 50.9618 4.86653 51.0856 4.89667C51.2095 4.9268 51.3172 5.00312 51.3867 5.11002C51.4562 5.21692 51.4822 5.34631 51.4594 5.47176C51.4367 5.5972 51.3668 5.70921 51.2642 5.78489L47.0472 8.84589L50.7202 6.72589C50.8313 6.66532 50.9612 6.64912 51.0838 6.68054C51.2063 6.71196 51.3124 6.78866 51.3806 6.8952C51.4489 7.00174 51.4742 7.13018 51.4515 7.25464C51.4288 7.3791 51.3597 7.49032 51.2582 7.56589L48.3152 9.64289L50.7202 8.25489C50.8314 8.19145 50.9627 8.17309 51.0871 8.20359C51.2114 8.23409 51.3193 8.31112 51.3886 8.41881C51.4578 8.52651 51.4831 8.65666 51.4592 8.78244C51.4353 8.90822 51.3641 9.02005 51.2602 9.09489L47.9812 11.4239L54.4742 7.67589C54.5885 7.61611 54.7215 7.6028 54.8453 7.63873C54.9692 7.67466 55.0743 7.75706 55.1389 7.86871C55.2034 7.98036 55.2223 8.11263 55.1916 8.23788C55.161 8.36314 55.0831 8.4717 54.9742 8.54089L39.2802 17.5999C39.2044 17.6445 39.1182 17.6683 39.0302 17.6689Z" fill="#FCB01A"/>
<path d="M0.343689 14.631C-0.199311 16.747 1.62569 17.214 3.29069 17.318C0.210689 20.061 4.60569 22.133 7.27469 21.36C6.76769 25.96 8.71969 31.5 5.55969 35.345C2.98869 39.779 4.77769 45.32 4.27369 50.236C4.16427 50.745 4.20793 51.275 4.39917 51.7593C4.59041 52.2435 4.92067 52.6604 5.34836 52.9573C5.77605 53.2542 6.28204 53.418 6.8026 53.4279C7.32316 53.4378 7.83502 53.2934 8.27369 53.013C7.71469 55.597 9.39469 58.593 12.2457 57.013C12.2127 60.223 17.3067 60.035 17.6837 57.129C20.7327 58.401 22.3997 55.141 21.7447 52.429C26.1057 52.878 31.3447 51.056 34.9117 54.229C39.3777 56.68 44.9117 54.929 49.8277 55.429C52.0387 55.869 55.0017 53.588 53.1707 51.521C55.7527 52.051 59.0527 49.661 57.0457 47.365C60.5977 47.18 60.6327 42.432 56.8827 42.623C59.6177 39.763 55.3527 37.831 52.7237 38.555C53.2297 33.972 51.2877 28.433 54.4177 24.598C57.0967 20.284 55.1747 14.561 55.7247 9.69797C55.8189 9.19567 55.7619 8.6767 55.5608 8.20688C55.3596 7.73705 55.0235 7.33755 54.595 7.05902C54.1665 6.7805 53.6649 6.63551 53.1539 6.64245C52.6429 6.64938 52.1455 6.80792 51.7247 7.09797C52.2797 4.48797 50.6997 1.43897 47.7597 3.10997C47.9297 -0.15603 42.7087 0.0999703 42.3177 2.94197C39.2377 1.76397 37.5937 4.92697 38.2607 7.65097C33.9197 7.21397 28.7217 9.00797 25.1607 5.85097C23.4477 4.15097 2.05069 2.77497 6.90269 8.57397C4.50269 8.10397 0.627689 10.183 2.97769 12.712C2.38954 12.7012 1.81397 12.8829 1.33852 13.2293C0.863066 13.5756 0.513748 14.0678 0.343689 14.631ZM20.2747 55.1C20.3002 55.3432 20.2515 55.5885 20.135 55.8036C20.0185 56.0187 19.8397 56.1934 19.622 56.305C19.4043 56.4165 19.158 56.4596 18.9154 56.4285C18.6728 56.3975 18.4452 56.2938 18.2627 56.131C16.5357 54.972 19.4357 42.952 16.2627 46.053C16.0077 50.024 16.7807 54.29 15.9547 58.108C13.8277 59.408 13.4547 56.399 13.7207 54.908C13.2477 53.345 15.0487 43.538 12.2747 46.194C11.6257 48.594 13.9347 56.48 10.6327 56.414C8.53269 53.714 10.2547 49.144 9.72269 45.807C6.92969 45.098 8.88469 50.122 8.17269 51.725C3.89969 55.77 6.21269 39.655 5.79969 37.588C9.53269 32.5 8.78569 27.394 8.72369 21.348H16.0057C13.4577 21.648 9.69269 24.296 12.9627 26.524C15.3287 27.233 17.8627 25.983 20.2747 25.798C19.1077 38.563 25.4747 32.211 25.6197 46.235C25.0807 47.841 23.5027 46.925 23.0697 45.835C19.2347 33.564 20.3997 51.679 20.2747 55.1ZM21.7997 25.523C27.9167 22.732 25.2697 20.464 33.9287 21.348C36.4287 27.762 39.2947 25.024 38.2787 34.367C32.5227 36.867 34.1837 39.71 26.0537 38.58C23.3837 32.068 20.7587 35.021 21.7197 25.538C21.7467 25.532 21.7737 25.528 21.7997 25.523ZM54.6687 39.43C56.1267 39.573 57.0477 42.049 55.4297 42.514C42.0297 41.614 42.3087 44.493 55.4077 43.414C56.5517 43.382 57.8647 43.399 58.2077 44.695C58.9417 48.603 47.7907 45.628 45.4437 46.966C47.1557 47.966 51.7267 46.966 54.3657 47.306C55.7267 47.426 57.1017 49.127 55.7827 50.3C52.5337 51.3 48.4827 49.791 45.3297 51C46.1807 52.025 49.0427 51.088 50.5397 51.4C51.9007 51.433 52.9807 53.3 51.7827 54.31C47.4007 55.016 42.6217 54.44 38.1217 54.524C32.8897 50.68 27.9217 51.557 21.7217 51.579V46.456C22.4567 48.34 25.2137 48.356 26.4737 46.997C28.0347 44.813 26.2997 41.887 26.2237 39.43C33.0287 39.892 33.0977 39.194 38.0017 35.23C40.3017 34.876 49.7017 32.137 45.9617 37.262C33.6567 40.767 51.0997 39.046 54.6687 39.43ZM39.7247 4.85997C39.684 4.61331 39.7227 4.36011 39.8353 4.13688C39.9478 3.91365 40.1283 3.73192 40.3508 3.6179C40.5733 3.50389 40.8262 3.46347 41.0731 3.50248C41.32 3.54149 41.5482 3.65792 41.7247 3.83497C43.0367 6.87497 41.9087 10.747 42.2667 14.064C44.9407 16.347 43.3157 7.47797 43.7287 6.04997C43.8477 4.61097 42.9997 0.61197 45.6167 1.73197C47.2877 5.25297 45.7867 10.123 46.2707 14.066C48.9517 16.508 47.3467 6.29197 47.7057 4.84197C47.6997 2.97797 49.9997 3.06497 50.2157 4.81497C50.8617 6.30697 48.8957 16.536 51.7247 13.805C51.5877 11.999 51.4057 4.05197 54.2167 8.81497C54.3887 12.553 54.2167 16.315 54.2767 20.064C54.3835 21.1133 54.2585 22.1733 53.9105 23.169C53.5625 24.1646 52.9999 25.0717 52.2627 25.826C50.2157 29.626 51.6957 34.397 51.2757 38.571H44.5377C47.0377 38.321 49.9447 35.565 47.1667 33.519C44.8147 32.536 42.1667 33.951 39.7247 34.107C40.9417 21.239 34.1307 27.818 34.5047 13.421C35.2437 11.989 36.5497 13.269 36.9167 14.128C40.7097 26.011 39.6417 8.39997 39.7247 4.85997ZM4.49969 13.346C5.78169 13.133 15.9247 14.11 14.2897 12.624H5.29969C5.0114 12.5877 4.73633 12.4815 4.49837 12.3148C4.26041 12.1481 4.06675 11.9257 3.93421 11.6672C3.80167 11.4086 3.73426 11.1216 3.73783 10.831C3.7414 10.5405 3.81584 10.2552 3.95469 9.99997C5.01769 8.71397 6.95469 9.58797 8.41569 9.34497C14.9597 10.134 17.8477 8.06797 9.03569 8.56397C3.20969 3.29997 19.0327 5.88797 21.4497 5.35997C28.0047 9.33697 30.8497 8.33397 38.2757 8.34697V13.565C37.5607 11.691 34.8087 11.833 33.5407 13.065C31.9327 15.212 33.7307 18.198 33.7897 20.648C23.7307 19.718 27.2187 22.991 20.6197 25.124C18.3197 25.024 14.9697 27.324 13.3537 25.038C12.1287 22.443 16.6687 21.759 18.2667 21.225C19.7847 19.873 6.93969 21 5.35269 20.651C3.97769 20.481 2.88569 17.934 4.48869 17.413C7.74869 17.269 11.6887 18.101 14.6887 17.056C13.3127 14.939 2.28969 18.62 1.75269 15.145C1.38969 13.21 3.23369 13.329 4.49969 13.346Z" fill="#262626"/>
</g>
<defs>
<clipPath id="clip0_529_361">
<rect width="60" height="60" fill="white"/>
</clipPath>
</defs>
</svg>
