<svg width="1291" height="622" viewBox="0 0 1291 622" fill="none" xmlns="http://www.w3.org/2000/svg">
<path d="M1641.54 817.944C1640.43 814.891 1637.53 813.014 1634.47 813.037L1611.11 643.813C1611.3 643.758 1611.5 643.704 1611.7 643.634C1615.58 642.224 1617.57 637.932 1616.16 634.053C1615.22 631.468 1613 629.723 1610.48 629.263L1619.65 445.965C1620.3 445.91 1620.96 445.778 1621.61 445.544C1625.48 444.134 1627.48 439.843 1626.07 435.964C1624.66 432.085 1620.37 430.091 1616.49 431.501C1615.44 431.883 1614.53 432.483 1613.79 433.23L1510.63 353.28C1511.71 351.426 1511.99 349.12 1511.2 346.947C1509.79 343.069 1505.51 341.075 1501.63 342.484C1500.82 342.78 1500.1 343.201 1499.47 343.715L1434.47 282.138C1435.88 280.198 1436.33 277.612 1435.45 275.182C1434.8 273.399 1433.54 272.02 1431.99 271.179L1477.25 153.85C1478.63 154.193 1480.12 154.139 1481.56 153.609C1485.44 152.199 1487.43 147.908 1486.02 144.029C1484.85 140.789 1481.67 138.873 1478.39 139.145L1458.52 47.0677C1458.52 47.0677 1458.56 47.0599 1458.57 47.0521C1462.45 45.6423 1464.44 41.3508 1463.03 37.4721C1461.62 33.5933 1457.34 31.5994 1453.46 33.0092C1451.37 33.7647 1449.85 35.3613 1449.09 37.2696L1335.72 8.36578C1335.86 7.23639 1335.75 6.06024 1335.33 4.91534C1333.93 1.03656 1329.64 -0.957336 1325.76 0.452454C1321.89 1.86218 1319.89 6.15381 1321.3 10.0326C1321.36 10.1805 1321.42 10.3207 1321.48 10.4609L1118.06 132.79L1117.55 132.26L1117.12 133.358L1113.8 135.352L1116.43 135.111L1065.59 265.322C1064.19 264.971 1062.68 265.026 1061.23 265.556C1058.25 266.638 1056.39 269.427 1056.32 272.417L946.138 284.373C946.075 284.101 945.998 283.836 945.896 283.571C944.488 279.692 940.199 277.698 936.323 279.108C932.79 280.393 930.828 284.069 931.575 287.644L636.788 225.787C636.866 224.751 636.741 223.692 636.368 222.656C634.959 218.777 630.67 216.783 626.794 218.193C622.918 219.602 620.926 223.894 622.335 227.773C622.872 229.253 623.837 230.46 625.028 231.309L508.031 451.573C506.42 450.965 504.599 450.903 502.855 451.541C501.252 452.126 499.983 453.208 499.127 454.54L403.651 409.56C404.141 408.034 404.157 406.344 403.566 404.724C402.157 400.845 397.868 398.851 393.992 400.261C391.284 401.25 389.501 403.633 389.151 406.305L293.091 406.149C293.021 405.612 292.897 405.074 292.702 404.545C291.293 400.666 287.005 398.672 283.129 400.082C279.253 401.491 277.26 405.783 278.669 409.662C278.778 409.958 278.903 410.238 279.043 410.511L136.626 508.586C134.649 506.389 131.466 505.478 128.516 506.553C124.64 507.963 122.648 512.254 124.056 516.133C124.975 518.656 127.115 520.378 129.567 520.884L122.227 619.824C121.395 619.824 120.546 619.964 119.721 620.268C116.157 621.568 114.188 625.307 114.997 628.921L14.6251 655.877C14.5785 655.729 14.5397 655.574 14.4851 655.426C13.0764 651.547 8.78784 649.553 4.91174 650.963C1.03577 652.372 -0.956665 656.664 0.452026 660.543C1.86084 664.422 6.14941 666.415 10.0254 665.006C10.2511 664.92 10.4767 664.827 10.6868 664.725L36.278 714.183C33.5616 716.068 32.3319 719.612 33.5149 722.868C34.9237 726.747 39.2123 728.74 43.0883 727.331C45.5712 726.427 47.2755 724.34 47.8125 721.941L173.752 733.507C173.783 734.263 173.923 735.034 174.196 735.781C175.604 739.66 179.893 741.654 183.769 740.244C186.625 739.201 188.454 736.607 188.657 733.756L209.78 730.586L326.971 712.984C328.45 716.746 332.653 718.662 336.467 717.275C340.343 715.866 342.335 711.574 340.927 707.695C340.514 706.566 339.86 705.608 339.043 704.837L410.889 609.994C412.711 610.991 414.929 611.24 417.03 610.469C417.03 610.469 417.046 610.469 417.054 610.462L448.887 671.455L595.958 595.328C597.841 598.054 601.382 599.277 604.644 598.093C606.348 597.47 607.687 596.294 608.535 594.845L695.598 631.655C695.193 633.103 695.216 634.684 695.769 636.203C697.178 640.082 701.466 642.076 705.342 640.666C707.148 640.012 708.533 638.719 709.374 637.146L853.853 691.472C853.534 692.842 853.588 694.314 854.102 695.732C855.51 699.611 859.799 701.605 863.675 700.195C867.551 698.785 869.543 694.494 868.135 690.615C867.582 689.088 866.578 687.865 865.333 687.016L911.759 595.905C913.339 596.473 915.122 596.504 916.819 595.889C920.212 594.651 922.166 591.208 921.652 587.773L1156.68 520.985L1156.42 520.058C1157.3 522.488 1159.32 524.186 1161.65 524.755L1151.01 620.361C1150.21 620.377 1149.4 620.517 1148.59 620.805C1144.72 622.215 1142.72 626.506 1144.13 630.385C1145.54 634.264 1149.83 636.258 1153.71 634.848C1155.99 634.015 1157.61 632.184 1158.28 630.035L1363.06 665.395C1363.05 666.267 1363.18 667.163 1363.5 668.028C1364.55 670.894 1367.17 672.732 1370.03 672.927L1373.53 760.83C1373.23 760.9 1372.94 760.978 1372.64 761.087C1368.76 762.497 1366.77 766.788 1368.18 770.667C1369.59 774.546 1373.88 776.54 1377.75 775.13C1379.82 774.374 1381.35 772.801 1382.11 770.901L1627.09 820.016C1627.02 821.028 1627.15 822.072 1627.51 823.085C1628.92 826.963 1633.21 828.957 1637.09 827.548C1640.96 826.138 1642.96 821.846 1641.55 817.967L1641.54 817.944ZM1632.57 813.302C1632.37 813.357 1632.17 813.411 1631.97 813.481C1630.6 813.98 1629.47 814.852 1628.64 815.927L1464.02 719.347L1603.17 641.079C1604.59 642.987 1606.85 644.093 1609.21 644.077L1632.57 813.302ZM1377.33 668.487C1377.71 667.646 1377.93 666.735 1377.98 665.792L1601.92 638.454C1601.98 638.688 1602.05 638.921 1602.13 639.155C1602.17 639.233 1602.2 639.311 1602.24 639.389L1462.11 718.21L1377.34 668.479L1377.33 668.487ZM1154.74 621.257L1221.02 451.354C1222.41 451.705 1223.92 451.65 1225.37 451.121C1225.63 451.027 1225.88 450.918 1226.12 450.794L1272.1 519.7L1156.07 622.176C1155.65 621.817 1155.21 621.514 1154.73 621.257H1154.74ZM72.6797 685.186L118.126 633.469C120.04 634.754 122.515 635.144 124.843 634.295C124.858 634.295 124.866 634.287 124.881 634.279L176.165 727.72C175.628 728.211 175.176 728.779 174.811 729.395L72.6797 685.194V685.186ZM361.35 433.838L221.774 544.04C221.432 543.705 221.058 543.409 220.661 543.144L283.323 414.164C284.872 414.685 286.6 414.709 288.25 414.101C290.134 413.416 291.573 412.045 292.391 410.378L361.35 433.838ZM1330.88 14.511C1331.72 14.2073 1332.46 13.7556 1333.1 13.2181L1392.64 68.1827L1292.51 114.315L1326.81 14.8071C1328.12 15.0797 1329.52 15.0095 1330.87 14.5189L1330.88 14.511ZM1369.96 658.004L1329.9 479.215C1330.57 478.973 1331.18 478.638 1331.73 478.241L1437.64 590.421L1375.04 659.507C1373.6 658.416 1371.8 657.863 1369.96 658.004ZM911.713 581.83C911.339 581.963 910.989 582.134 910.654 582.321L902.303 570.973L934.105 474.261L914.647 581.386C913.674 581.34 912.686 581.48 911.713 581.83ZM861.426 685.692L844.863 499.644C845.174 499.574 845.494 499.489 845.805 499.379C846.178 499.247 846.529 499.076 846.863 498.889L900.178 571.323L862.531 685.833C862.173 685.762 861.799 685.716 861.433 685.7L861.426 685.692ZM702.867 626.156L688.32 504.668C688.562 504.606 688.803 504.536 689.044 504.442C689.643 504.224 690.196 503.928 690.702 503.585L756.929 577.811L707.335 627.69C706.058 626.717 704.494 626.171 702.875 626.156H702.867ZM478.72 502.97L502.303 465.327C504.031 466.122 506.054 466.262 507.977 465.561C508.335 465.429 508.661 465.273 508.988 465.094L596.627 585.966C596.526 586.075 596.432 586.184 596.339 586.293L478.712 502.962L478.72 502.97ZM414.509 595.959L401.939 500.587L395.401 450.965C395.611 450.911 395.821 450.848 396.031 450.77C397.191 450.35 398.18 449.664 398.958 448.815L476.12 503.484L417.723 596.691C416.727 596.216 415.629 595.959 414.509 595.959ZM326.94 707.602L196.767 656.298L216.092 556.837C217.089 556.899 218.116 556.766 219.112 556.4C219.462 556.276 219.789 556.112 220.109 555.949L328.022 705.663C327.563 706.255 327.197 706.909 326.932 707.61L326.94 707.602ZM178.671 726.186C178.352 726.303 178.048 726.443 177.753 726.599L126.586 633.368C127.341 632.838 127.971 632.184 128.469 631.444L194.572 657.497L181.309 725.734C180.43 725.726 179.535 725.859 178.663 726.178L178.671 726.186ZM214.209 556.47L194.953 655.589L129.349 629.731C129.894 628.165 129.925 626.405 129.318 624.723C129.224 624.473 129.123 624.232 129.007 623.998L211.516 554.882C212.294 555.598 213.22 556.143 214.217 556.478L214.209 556.47ZM223.58 546.828C223.525 546.688 223.463 546.555 223.409 546.423L280.49 512.34L387.618 448.379C388.482 449.477 389.626 450.295 390.91 450.77L360.003 587.649L223.961 550.411C224.125 549.243 224.016 548.012 223.58 546.828ZM400.071 447.25C400.336 446.751 400.546 446.23 400.693 445.684L497.975 458.536C497.975 459.392 498.108 460.257 498.419 461.114C498.894 462.414 499.695 463.497 500.692 464.315L477.163 501.872L400.079 447.258L400.071 447.25ZM934.852 292.395L871.886 424.826L822.027 398.726C822.65 397.099 822.72 395.253 822.082 393.492C821.879 392.947 821.623 392.441 821.319 391.974L934.004 291.765C934.268 291.998 934.556 292.201 934.852 292.395ZM936.697 422.778L936.417 453.372C935.934 453.442 935.451 453.566 934.977 453.738C933.622 454.229 932.509 455.077 931.677 456.129L873.591 425.722L936.588 293.229C937.008 293.361 937.436 293.47 937.872 293.533L936.697 422.778ZM1472 149.162C1472.55 150.68 1473.55 151.903 1474.78 152.752L1417.53 264.239L1290.64 123.708C1291.35 122.875 1291.87 121.901 1292.15 120.858L1471.56 146.514C1471.55 147.394 1471.68 148.289 1472 149.162ZM1497.17 352.064C1497.52 353.03 1498.06 353.887 1498.72 354.596L1435.33 430.995C1434.31 430.356 1433.15 429.959 1431.95 429.866L1430.65 352.368L1496.82 350.663C1496.89 351.13 1497.01 351.605 1497.18 352.064H1497.17ZM1476.09 625.447C1475.42 625.688 1474.82 626.023 1474.26 626.428L1440.25 590.398L1478.93 547.716C1479.84 548.347 1480.9 548.775 1482.02 548.947L1478.07 625.019C1477.41 625.073 1476.75 625.206 1476.09 625.439V625.447ZM1222.97 436.642L1218.54 346.62C1218.63 346.589 1218.74 346.566 1218.83 346.535C1219.35 346.34 1219.84 346.098 1220.29 345.81L1275.08 411.258L1228.64 439.446C1227.26 437.717 1225.17 436.696 1222.97 436.642ZM599.546 584.027C599.032 584.214 598.549 584.455 598.106 584.736L510.545 463.972C511.409 463.154 512.063 462.142 512.46 461.036L631.052 486.505L602.83 583.622C601.748 583.513 600.635 583.637 599.546 584.027ZM668.411 364.846C668.769 364.9 669.127 364.924 669.493 364.931L678.459 439.041L684.647 490.197C684.405 490.259 684.172 490.329 683.938 490.415C681.759 491.209 680.171 492.915 679.455 494.94L633.472 485.064L668.411 364.846ZM871.061 426.563L843.33 484.893C842.45 484.885 841.563 485.017 840.684 485.336C840.185 485.516 839.726 485.749 839.29 486.014L817.856 402.971C819.202 402.426 820.315 401.53 821.117 400.424L871.061 426.563ZM816.003 403.462L837.671 487.393C837.158 487.969 836.745 488.616 836.434 489.309L767.856 434.624L809.956 401.491C811.559 402.995 813.769 403.75 816.003 403.462ZM835.85 491.303C835.78 491.778 835.757 492.253 835.788 492.736L693.87 496.28C693.8 495.805 693.675 495.337 693.512 494.87C693.348 494.418 693.146 493.997 692.905 493.608L766.308 435.839L835.858 491.303H835.85ZM691.714 492.097C690.344 490.757 688.492 489.979 686.561 489.963L680.249 437.826L671.4 364.705C671.641 364.643 671.875 364.573 672.108 364.487C673.128 364.114 674.007 363.545 674.739 362.836L764.751 434.617L691.706 492.105L691.714 492.097ZM850.008 489.215C849.074 487.198 847.33 485.773 845.315 485.189L872.758 427.459L930.688 457.78C930.174 458.972 929.964 460.288 930.12 461.62L850.008 489.207V489.215ZM1427.6 285.16L1428.69 350.491L1380.47 351.737C1380.39 351.27 1380.27 350.795 1380.11 350.335C1379.71 349.222 1379.06 348.271 1378.26 347.5L1424.83 284.272C1425.68 284.747 1426.62 285.051 1427.6 285.16H1427.6ZM1428.78 430.278C1428.38 430.426 1428.01 430.605 1427.65 430.808L1378.06 358.451C1379.45 357.213 1380.31 355.491 1380.51 353.661L1428.72 352.415L1430.02 429.951C1429.6 430.029 1429.19 430.13 1428.78 430.278ZM1426.11 431.969C1424.57 433.487 1423.74 435.621 1423.89 437.81L1387.52 375.649L1426.12 431.969H1426.11ZM1216.87 332.063L1210.84 226.823C1211.23 226.745 1211.63 226.651 1212.02 226.511C1213.01 226.153 1213.88 225.6 1214.59 224.914L1243.55 248.514L1217.57 332.149C1217.34 332.11 1217.11 332.079 1216.88 332.063H1216.87ZM1223.3 336.954C1222.59 335 1221.15 333.527 1219.4 332.725L1245.15 249.83L1366.75 348.965C1366.3 349.689 1365.98 350.476 1365.8 351.309L1223.74 339.182C1223.71 338.442 1223.56 337.687 1223.3 336.954ZM1367.95 347.469L1245.77 247.852L1283.57 126.185C1284.53 126.372 1285.53 126.364 1286.53 126.154L1369.58 346.309C1368.98 346.628 1368.44 347.017 1367.96 347.469H1367.95ZM1281.22 125.313C1281.39 125.414 1281.56 125.5 1281.74 125.585L1244.16 246.544L1215.81 223.427C1216.97 221.55 1217.3 219.174 1216.48 216.939C1216.08 215.848 1215.45 214.914 1214.67 214.15L1233.28 189.312L1281.23 125.313H1281.22ZM1208.92 226.939L1214.9 332.172C1214.5 332.25 1214.11 332.344 1213.72 332.484C1211.91 333.146 1210.52 334.431 1209.68 336.012L1170.92 318.877L1207.61 226.721C1208.03 226.83 1208.47 226.901 1208.91 226.932L1208.92 226.939ZM1209.01 337.819C1208.69 339.182 1208.76 340.646 1209.27 342.064C1209.56 342.85 1209.96 343.551 1210.45 344.167L1127.71 429.99C1127.45 429.795 1127.17 429.624 1126.89 429.468L1170.21 320.676L1209.01 337.827L1209.01 337.819ZM1130.28 433.433C1130 432.654 1129.59 431.961 1129.11 431.345L1212.17 345.732C1212.52 345.966 1212.89 346.168 1213.28 346.34L1185.56 440.614L1130.73 435.691C1130.7 434.936 1130.56 434.173 1130.29 433.433H1130.28ZM1221.77 344.564C1222.67 343.583 1223.29 342.383 1223.57 341.09L1365.63 353.209C1365.66 353.949 1365.81 354.705 1366.07 355.437C1366.12 355.593 1366.2 355.749 1366.27 355.896L1276.74 410.23L1221.77 344.556V344.564ZM1367.26 357.555C1367.89 358.35 1368.67 358.989 1369.54 359.456L1329.1 464.938C1327.72 464.603 1326.23 464.658 1324.79 465.179C1324.27 465.366 1323.78 465.616 1323.33 465.904L1277.99 411.734L1367.25 357.548L1367.26 357.555ZM1333.72 476.076L1476.09 539.195C1475.56 540.745 1475.55 542.466 1476.15 544.118C1476.47 544.99 1476.93 545.761 1477.5 546.423L1438.93 588.988L1333.12 476.917C1333.34 476.652 1333.54 476.372 1333.72 476.076ZM1476.93 537.466L1334.49 474.316C1334.94 472.836 1334.93 471.208 1334.36 469.642C1333.71 467.851 1332.45 466.472 1330.89 465.631L1371.33 360.149C1372.71 360.484 1374.2 360.43 1375.64 359.908C1375.77 359.861 1375.88 359.806 1375.99 359.76L1478.82 535.488C1478.06 536.033 1477.42 536.703 1476.93 537.458V537.466ZM1427.25 443.542C1429.04 444.719 1431.32 445.108 1433.5 444.446L1468.81 514.567L1427.25 443.542ZM1496.77 348.739L1430.62 350.444L1429.52 285.136C1430.01 285.066 1430.5 284.942 1430.99 284.763C1431.8 284.467 1432.52 284.046 1433.15 283.532L1498.16 345.109C1497.39 346.168 1496.91 347.422 1496.78 348.731L1496.77 348.739ZM1421.42 280.3C1421.82 281.413 1422.47 282.364 1423.27 283.135L1379.41 342.695L1417.97 267.596L1422.76 272.9C1421.07 274.879 1420.46 277.683 1421.42 280.307V280.3ZM1375.62 345.865C1374.29 345.382 1372.83 345.281 1371.38 345.623L1288.51 125.959L1288.74 125.297C1288.9 125.204 1289.06 125.095 1289.21 124.993L1416.59 266.07L1375.62 345.865ZM1202.84 222.928C1203.53 224.26 1204.59 225.319 1205.83 226.013L1169.16 318.106L1070.95 274.692C1071.3 273.5 1071.36 272.223 1071.07 270.953L1202.83 222.928H1202.84ZM1070.18 276.452L1168.46 319.897L1125.12 428.752C1124.01 428.464 1122.82 428.44 1121.64 428.705L1067.24 279.209C1068.48 278.563 1069.49 277.597 1070.19 276.452H1070.18ZM808.049 398.61C808.228 399.108 808.461 399.575 808.726 400.004L766.308 433.386L675.937 361.325C676.14 360.998 676.303 360.648 676.451 360.289L807.652 395.206C807.527 396.32 807.636 397.48 808.049 398.61ZM666.566 364.301L631.589 484.651L512.857 459.159C512.942 458.115 512.818 457.032 512.436 455.989C512.374 455.817 512.296 455.654 512.226 455.483L663.757 362.159C664.519 363.093 665.485 363.825 666.566 364.301ZM604.706 584.05L632.935 486.91L679.058 496.817C678.973 497.861 679.097 498.936 679.479 499.987C679.79 500.852 680.257 501.615 680.817 502.269L606.153 584.782C605.702 584.486 605.212 584.245 604.706 584.05ZM692.134 502.316C693.13 501.163 693.745 499.73 693.909 498.211L788.311 495.851L836.146 494.66C836.177 494.745 836.193 494.831 836.224 494.917C836.496 495.664 836.878 496.334 837.337 496.934L758.283 576.448L692.134 502.316ZM848.404 497.752C850.179 496.054 851.027 493.538 850.584 491.053L930.595 463.497C931.311 465.32 932.665 466.706 934.307 467.493L900.91 569.08L848.404 497.752ZM944.97 460.14L1070.54 443.815L1116.05 437.896C1116.11 438.114 1116.18 438.332 1116.25 438.542C1117.66 442.39 1121.88 444.384 1125.73 443.036L1159.79 510.961C1158.36 511.756 1157.27 512.979 1156.63 514.404L944.994 461.098C945.009 460.779 944.994 460.459 944.97 460.132V460.14ZM1161.58 510.237L1127.45 442.172C1129.05 441.089 1130.14 439.446 1130.55 437.608L1185.01 442.499L1165.11 510.198C1163.97 509.941 1162.77 509.933 1161.59 510.237H1161.58ZM1215.12 346.885C1215.61 346.963 1216.13 346.994 1216.64 346.971L1221.06 436.844C1220.79 436.907 1220.53 436.984 1220.26 437.086C1217.5 438.09 1215.7 440.559 1215.4 443.293L1187.52 440.793L1215.12 346.893L1215.12 346.885ZM1229.83 441.549C1229.77 441.393 1229.7 441.245 1229.63 441.089L1276.33 412.746L1321.86 467.142C1321.26 467.796 1320.79 468.544 1320.45 469.354L1230.2 445.1C1230.36 443.94 1230.25 442.725 1229.82 441.549H1229.83ZM1438.96 591.823L1472.87 627.745C1471.53 629.388 1470.93 631.561 1471.3 633.726L1377.43 662.646C1377.16 661.991 1376.82 661.392 1376.41 660.862L1438.96 591.831V591.823ZM1471.87 635.557C1473.46 639.077 1477.52 640.822 1481.21 639.482C1483.84 638.524 1485.6 636.242 1486.02 633.656L1596.59 637.169L1381.33 663.448L1471.87 635.557ZM1601.78 635.417L1486.07 631.74C1486.01 631.125 1485.88 630.517 1485.67 629.91C1485.25 628.773 1484.59 627.807 1483.77 627.036L1523.01 572.834L1602.66 632.924C1602.22 633.695 1601.92 634.536 1601.78 635.417ZM1482.21 625.907C1481.52 625.533 1480.77 625.268 1479.99 625.12L1483.94 548.986C1484.53 548.923 1485.13 548.799 1485.71 548.581C1486.8 548.183 1487.73 547.56 1488.48 546.781L1521.47 571.666L1482.2 625.899L1482.21 625.907ZM1489.65 545.255C1490.69 543.417 1490.96 541.15 1490.18 539.008C1490.03 538.603 1489.85 538.222 1489.64 537.863L1613.74 443.768C1613.8 443.831 1613.87 443.901 1613.93 443.963L1522.61 570.116L1489.65 545.255ZM1612.03 441.081C1612.18 441.486 1612.37 441.868 1612.57 442.226L1488.48 536.321C1487.5 535.324 1486.27 534.623 1484.92 534.296L1495.39 438.675L1611.64 439.438C1611.71 439.991 1611.83 440.536 1612.03 441.081H1612.03ZM1483.01 534.101C1482.33 534.117 1481.63 534.226 1480.96 534.436L1435.26 443.659C1437.18 442.475 1438.43 440.489 1438.73 438.308L1493.46 438.667L1483.01 534.094V534.101ZM1438.74 436.385C1438.67 435.832 1438.55 435.286 1438.35 434.741C1438 433.775 1437.47 432.919 1436.81 432.21L1500.21 355.811C1500.89 356.247 1501.64 356.566 1502.43 356.761L1493.68 436.743L1438.75 436.385H1438.74ZM1425.88 270.72C1425.26 270.945 1424.7 271.249 1424.19 271.6L1418.91 265.758L1471.61 163.119L1430.2 270.478C1428.82 270.135 1427.32 270.19 1425.88 270.712V270.72ZM1471.83 144.605L1292.43 118.949C1292.43 118.178 1292.33 117.399 1292.08 116.636L1394.18 69.6003L1472.93 142.292C1472.43 142.993 1472.06 143.78 1471.83 144.605ZM1279.7 124.137L1213.13 212.99C1211.29 211.954 1209.05 211.689 1206.9 212.468C1203.63 213.66 1201.71 216.915 1202.04 220.233L1177.52 194.702L1279.43 123.864C1279.51 123.958 1279.6 124.043 1279.69 124.137H1279.7ZM1200.73 221.651L1070.43 269.138L1175.92 195.816L1200.73 221.651ZM1065.42 279.863L1119.83 429.359C1119.2 429.686 1118.62 430.091 1118.12 430.567L1014.96 346.714L1060.46 279.248C1061.96 280.004 1063.7 280.245 1065.42 279.856V279.863ZM1116.92 432.07C1116.2 433.238 1115.8 434.593 1115.8 435.987L1021.81 448.208L994.207 451.798L944.558 458.255C944.558 458.255 944.55 458.224 944.542 458.201C944.036 456.814 943.157 455.669 942.067 454.836L1013.88 348.326L1116.92 432.07ZM940.401 453.87C939.748 453.598 939.055 453.419 938.339 453.341L938.604 424.133L939.787 293.548C940.339 293.478 940.9 293.353 941.444 293.159C942.441 292.793 943.305 292.24 944.028 291.554L1012.38 347.111L940.394 453.87H940.401ZM932.727 290.324L820.074 390.509C818.089 388.718 815.201 388.048 812.516 389.03C811.676 389.333 810.928 389.785 810.275 390.33L752.103 336.814L932.284 289.576C932.416 289.841 932.572 290.09 932.735 290.324H932.727ZM808.967 391.748C808.617 392.246 808.337 392.776 808.119 393.344L676.957 358.443C677.043 357.812 677.043 357.166 676.957 356.52L749.893 337.398L808.975 391.756L808.967 391.748ZM676.467 354.658C675.136 351.379 671.719 349.525 668.325 350.102L632.445 232.01C633.083 231.722 633.659 231.356 634.165 230.927L748.212 335.856L676.467 354.666V354.658ZM630.6 232.563L666.481 350.655C662.955 352.244 661.188 356.317 662.535 360.017C662.597 360.188 662.675 360.352 662.745 360.523L511.214 453.847C510.786 453.317 510.288 452.85 509.743 452.461L626.74 232.197C627.946 232.649 629.277 232.797 630.6 232.571V232.563ZM498.217 456.62L400.935 443.768C400.935 442.912 400.802 442.047 400.491 441.198C399.58 438.698 397.479 436.984 395.058 436.463L396.895 414.732C397.635 414.701 398.382 414.553 399.114 414.288C400.717 413.704 401.993 412.621 402.842 411.29L498.318 456.269C498.279 456.386 498.24 456.511 498.209 456.627L498.217 456.62ZM394.981 414.561L393.144 436.291C392.404 436.322 391.657 436.47 390.926 436.735C389.042 437.421 387.602 438.791 386.785 440.458L365.319 433.152L391.354 412.598C392.358 413.579 393.619 414.257 394.981 414.553V414.561ZM386.162 442.281C385.898 443.581 385.968 444.968 386.458 446.307C386.513 446.448 386.575 446.58 386.629 446.712L228.74 540.979L363.513 434.57L386.162 442.273V442.281ZM218.933 542.303C217.384 541.781 215.656 541.758 214.006 542.365C212.294 542.988 210.955 544.172 210.107 545.636L190.657 537.482L280.265 416.056L218.933 542.303ZM209.368 547.412C208.971 548.853 208.994 550.426 209.547 551.945C209.734 552.467 209.982 552.958 210.271 553.402L128.143 622.191L189.482 539.078L209.368 547.412ZM188.556 731.817C188.478 731.428 188.384 731.038 188.244 730.656C187.388 728.304 185.466 726.645 183.224 726.022L196.393 658.23L326.497 709.51C326.442 710.032 326.45 710.569 326.512 711.099L294.095 715.967L188.556 731.817ZM331.369 703.217C330.645 703.482 329.991 703.848 329.407 704.284L221.681 554.827C222.451 554.103 223.051 553.223 223.448 552.265L359.575 589.526L334 702.773C333.128 702.765 332.233 702.898 331.369 703.217ZM392.786 451.191C393.019 451.214 393.253 451.222 393.494 451.222L400.11 501.412L412.609 596.208C412.384 596.271 412.166 596.333 411.94 596.411C409.854 597.166 408.329 598.763 407.566 600.671L361.855 588.163L392.786 451.199V451.191ZM421.506 600.874C421.046 599.612 420.284 598.56 419.334 597.75L477.692 504.606L595.312 587.937C594.915 588.809 594.681 589.751 594.634 590.725L421.833 602.135C421.755 601.715 421.653 601.294 421.498 600.874H421.506ZM609.119 588.49C608.776 587.547 608.263 586.722 607.624 586.021L682.242 503.554C683.464 504.395 684.911 504.871 686.421 504.886L700.968 626.374C700.727 626.436 700.485 626.506 700.252 626.592C698.547 627.215 697.209 628.391 696.36 629.84L609.298 593.031C609.703 591.582 609.679 590.001 609.127 588.482L609.119 588.49ZM709.81 631.07C709.537 630.323 709.156 629.653 708.697 629.053L758.205 579.252L855.472 688.27C855.106 688.699 854.794 689.158 854.53 689.649L710.059 635.323C710.378 633.952 710.323 632.48 709.81 631.063V631.07ZM759.567 577.889L838.707 498.289C839.921 499.216 841.4 499.761 842.941 499.823L859.503 685.872C859.192 685.942 858.873 686.027 858.561 686.136C857.962 686.354 857.41 686.65 856.904 686.993L759.56 577.889H759.567ZM901.571 573.216L909.105 583.458C907.035 585.444 906.21 588.536 907.253 591.41C907.806 592.937 908.81 594.16 910.055 595.009L865.94 681.588L901.571 573.216ZM916.538 581.737L937.156 468.217C938.129 468.264 939.117 468.124 940.09 467.773C942.355 466.947 943.974 465.133 944.651 462.999L1156.08 516.25C1155.93 517.177 1155.95 518.15 1156.17 519.108L921.13 585.904C920.251 583.848 918.546 582.383 916.546 581.737H916.538ZM1166.91 510.868L1186.96 442.67L1215.43 445.225C1215.5 445.708 1215.62 446.183 1215.79 446.658C1216.18 447.725 1216.79 448.644 1217.54 449.392L1167.61 511.288C1167.38 511.133 1167.15 511 1166.91 510.868ZM1227.72 449.727C1228.59 448.963 1229.27 448.005 1229.7 446.954L1319.96 471.208C1319.8 472.368 1319.91 473.583 1320.34 474.759C1320.55 475.344 1320.83 475.881 1321.17 476.38L1273.56 518.423L1227.72 449.734V449.727ZM1322.43 477.82C1323.95 479.145 1325.97 479.822 1328.03 479.627L1368.08 658.393C1368.08 658.393 1368 658.416 1367.96 658.432C1367.7 658.526 1367.46 658.635 1367.21 658.751L1274.63 520.035L1322.43 477.82ZM1608.56 629.17C1607.9 629.225 1607.24 629.357 1606.59 629.591C1605.51 629.988 1604.58 630.611 1603.82 631.39L1524.15 571.277L1615.5 445.092C1616.19 445.466 1616.95 445.739 1617.73 445.879L1608.56 629.178L1608.56 629.17ZM1612.61 434.749C1612.11 435.598 1611.79 436.533 1611.65 437.514L1495.6 436.759L1504.33 356.971C1505.13 356.956 1505.94 356.816 1506.74 356.527C1507.79 356.146 1508.7 355.546 1509.44 354.798L1612.6 434.749H1612.61ZM1476.51 139.566C1476.51 139.566 1476.47 139.574 1476.46 139.582C1475.62 139.885 1474.88 140.337 1474.23 140.875L1396.07 68.7202L1449.69 44.0146C1451.18 46.3824 1453.87 47.7142 1456.64 47.4805L1476.51 139.558L1476.51 139.566ZM1448.61 39.1545C1448.49 40.1747 1448.57 41.234 1448.9 42.27L1394.53 67.3104L1334.41 11.8006C1334.75 11.3177 1335.03 10.7959 1335.25 10.2429L1448.61 39.1467V39.1545ZM1322.48 12.1277C1323.17 13 1324.03 13.6932 1325.01 14.1761L1290.61 113.972C1288.64 111.698 1285.41 110.748 1282.42 111.838C1279.48 112.905 1277.63 115.631 1277.51 118.568L1122 132.689L1322.48 12.1277ZM1277.68 120.476C1277.75 120.788 1277.84 121.099 1277.95 121.403C1278.06 121.707 1278.2 121.995 1278.34 122.275L1176.17 193.292L1119.98 134.792L1277.68 120.468V120.476ZM1174.57 194.414L1069.33 267.565C1068.77 266.942 1068.11 266.436 1067.38 266.039L1118.25 135.773L1174.57 194.414ZM1056.54 274.333C1056.6 274.598 1056.68 274.871 1056.78 275.136C1057.23 276.351 1057.95 277.387 1058.86 278.181L1013.47 345.499L945.243 290.043C945.935 288.922 946.324 287.621 946.356 286.281L1056.54 274.333ZM927.692 288.789L750.414 335.264L635.457 229.502C635.854 228.933 636.181 228.318 636.407 227.656L927.684 288.781L927.692 288.789ZM389.159 408.213C389.229 408.75 389.353 409.288 389.548 409.818C389.711 410.269 389.922 410.698 390.155 411.095L363.147 432.42L293.013 408.556C293.045 408.392 293.076 408.229 293.099 408.057L389.159 408.213ZM280.148 412.076C280.272 412.216 280.397 412.341 280.529 412.466L188.836 536.718L138.284 515.533C138.681 514.092 138.658 512.519 138.105 511C137.996 510.704 137.872 510.424 137.732 510.151L280.148 412.076ZM131.505 521.016C132.221 520.977 132.945 520.837 133.653 520.58C135.365 519.957 136.704 518.773 137.552 517.309L187.661 538.315L126.539 621.14C125.815 620.641 125.006 620.268 124.158 620.042L131.505 521.016ZM115.277 629.824C115.604 630.72 116.086 631.514 116.686 632.192L70.8274 684.376L14.6407 660.06C14.8588 659.32 14.9677 658.549 14.9442 657.762L115.526 630.751L115.277 629.816V629.824ZM13.8702 661.828L69.4885 685.903L44.707 714.098C42.7925 712.813 40.3252 712.423 37.9902 713.272L12.3136 663.65C12.9285 663.129 13.45 662.513 13.8624 661.828H13.8702ZM48.0071 720.009C47.976 719.254 47.8361 718.483 47.5636 717.735C47.2368 716.839 46.7542 716.045 46.1548 715.367L71.3409 686.705L174.048 731.155C174.009 731.295 173.97 731.435 173.939 731.575L47.9993 720.009H48.0071ZM337.502 703.684C336.996 703.412 336.467 703.194 335.914 703.038L361.435 590.032L407.091 602.533C406.951 603.662 407.068 604.838 407.48 605.983C407.893 607.105 408.547 608.07 409.356 608.842L337.502 703.684ZM449.72 668.838L418.774 609.543C420.603 608.265 421.747 606.24 421.934 604.051L594.821 592.633C594.891 592.953 594.977 593.28 595.094 593.599L449.727 668.838H449.72ZM1163.57 524.942C1164.37 524.926 1165.19 524.786 1165.99 524.498C1169.86 523.088 1171.86 518.797 1170.45 514.918C1170.12 514.022 1169.64 513.236 1169.05 512.566L1219.07 450.568C1219.12 450.599 1219.17 450.622 1219.23 450.646L1152.95 620.548C1152.95 620.548 1152.94 620.548 1152.93 620.548L1163.57 524.942ZM1158.61 628.118C1158.65 627.168 1158.51 626.195 1158.17 625.252C1157.96 624.668 1157.67 624.131 1157.33 623.632L1273.18 521.32L1365.61 659.826C1364.5 660.8 1363.71 662.069 1363.32 663.471L1158.61 628.126V628.118ZM1371.95 672.771C1372.32 672.693 1372.7 672.6 1373.08 672.467C1374.41 671.984 1375.5 671.159 1376.33 670.131L1460.16 719.316L1381.24 763.712C1379.89 761.835 1377.74 760.705 1375.45 760.627L1371.95 672.779L1371.95 672.771ZM1382.59 769.016C1382.74 767.879 1382.63 766.687 1382.21 765.526C1382.19 765.48 1382.17 765.441 1382.15 765.394L1462.08 720.438L1627.66 817.586C1627.59 817.757 1627.52 817.929 1627.46 818.1L1382.59 769.008V769.016Z" fill="#FCB01A" fill-opacity="0.2"/>
</svg>
