<svg width="60" height="60" viewBox="0 0 60 60" fill="none" xmlns="http://www.w3.org/2000/svg">
<g clip-path="url(#clip0_529_385)">
<path d="M37.0301 35.894C36.9258 35.8945 36.824 35.8623 36.7389 35.802C36.6538 35.7417 36.5897 35.6564 36.5555 35.5578C36.5213 35.4593 36.5188 35.3526 36.5483 35.2525C36.5779 35.1525 36.6379 35.0642 36.7201 35L37.1001 34.7C37.0216 34.7125 36.9412 34.7058 36.8658 34.6805C36.7904 34.6553 36.7223 34.6122 36.6671 34.555C36.5896 34.4754 36.5408 34.3721 36.5285 34.2617C36.5162 34.1512 36.541 34.0398 36.5991 33.945L37.5151 32.45C37.3983 32.5011 37.2665 32.5057 37.1465 32.4628C37.0264 32.4199 36.9273 32.3328 36.8694 32.2193C36.8114 32.1058 36.799 31.9745 36.8346 31.8521C36.8702 31.7298 36.9512 31.6256 37.0611 31.561L38.7161 30.605C38.8122 30.55 38.924 30.5285 39.0337 30.5438C39.1434 30.5592 39.245 30.6105 39.3223 30.6899C39.3997 30.7692 39.4485 30.8719 39.4611 30.982C39.4738 31.0921 39.4495 31.2032 39.3921 31.298L38.4791 32.789L42.2721 30.6C42.3813 30.5377 42.51 30.5189 42.6325 30.5472C42.755 30.5756 42.8623 30.649 42.9331 30.753C43.0038 30.8569 43.0328 30.9837 43.0143 31.108C42.9958 31.2324 42.9311 31.3452 42.8331 31.424L42.6331 31.585L44.3401 30.6C44.397 30.5638 44.4606 30.5395 44.5272 30.5286C44.5937 30.5177 44.6618 30.5203 44.7273 30.5363C44.7928 30.5524 44.8544 30.5815 44.9083 30.622C44.9622 30.6624 45.0075 30.7134 45.0412 30.7718C45.075 30.8301 45.0965 30.8947 45.1047 30.9617C45.1128 31.0286 45.1073 31.0965 45.0885 31.1613C45.0697 31.226 45.038 31.2863 44.9953 31.3385C44.9526 31.3907 44.8998 31.4338 44.8401 31.465L37.2801 35.826C37.2043 35.8706 37.118 35.894 37.0301 35.894Z" fill="#FCB01A"/>
<path d="M25.0009 42.738C24.9026 42.7378 24.8066 42.7087 24.7248 42.6542C24.6431 42.5997 24.5791 42.5224 24.541 42.4318C24.503 42.3413 24.4924 42.2415 24.5107 42.1449C24.529 42.0484 24.5753 41.9594 24.6439 41.889L27.1909 39.284L25.2789 40.384C25.1813 40.4404 25.0675 40.4621 24.956 40.4457C24.8445 40.4293 24.7418 40.3758 24.6646 40.2937C24.5874 40.2116 24.5402 40.1058 24.5306 39.9935C24.521 39.8812 24.5497 39.769 24.6119 39.675L25.4119 38.475C25.2959 38.4972 25.1757 38.4775 25.0728 38.4195C24.9699 38.3616 24.8908 38.269 24.8496 38.1583C24.8084 38.0476 24.8077 37.9259 24.8476 37.8147C24.8876 37.7036 24.9656 37.6101 25.0679 37.551L26.7229 36.596C26.8203 36.5395 26.9339 36.5176 27.0454 36.5338C27.1568 36.5499 27.2595 36.6032 27.3369 36.685C27.4145 36.7672 27.462 36.8732 27.4716 36.9858C27.4812 37.0984 27.4524 37.2109 27.3899 37.305L26.6269 38.454L29.8499 36.594C29.9545 36.5344 30.077 36.5145 30.195 36.538C30.3131 36.5615 30.4187 36.6267 30.4925 36.7218C30.5663 36.8169 30.6033 36.9354 30.5968 37.0556C30.5902 37.1757 30.5406 37.2895 30.4569 37.376L27.9099 39.976L33.7729 36.6C33.8298 36.5638 33.8935 36.5395 33.96 36.5286C34.0265 36.5177 34.0946 36.5203 34.1601 36.5363C34.2256 36.5524 34.2872 36.5815 34.3411 36.622C34.3951 36.6624 34.4403 36.7134 34.474 36.7718C34.5078 36.8301 34.5294 36.8947 34.5375 36.9617C34.5456 37.0286 34.5401 37.0965 34.5213 37.1613C34.5026 37.226 34.4709 37.2863 34.4282 37.3385C34.3855 37.3907 34.3327 37.4338 34.2729 37.465L25.2529 42.673C25.1763 42.717 25.0892 42.7395 25.0009 42.738Z" fill="#FCB01A"/>
<path d="M13.031 48.4001C12.9332 48.3999 12.8376 48.371 12.756 48.3171C12.6744 48.2631 12.6105 48.1864 12.5721 48.0965C12.5337 48.0066 12.5224 47.9073 12.5398 47.8111C12.5572 47.7149 12.6025 47.6258 12.67 47.5551L14.907 45.2001L13.281 46.1391C13.1818 46.1962 13.0661 46.2176 12.9531 46.1997C12.8401 46.1819 12.7367 46.1258 12.66 46.0408C12.5834 45.9559 12.5382 45.8472 12.532 45.733C12.5258 45.6187 12.559 45.5058 12.626 45.4131L13.299 44.4841C13.1907 44.4799 13.0868 44.4407 13.0027 44.3724C12.9186 44.3041 12.8591 44.2103 12.8329 44.1052C12.8067 44.0001 12.8154 43.8893 12.8576 43.7896C12.8998 43.6898 12.9733 43.6065 13.067 43.5521L14.722 42.5961C14.821 42.5394 14.9364 42.5182 15.0491 42.5362C15.1618 42.5541 15.265 42.6101 15.3415 42.6948C15.418 42.7794 15.4632 42.8877 15.4697 43.0016C15.4761 43.1156 15.4434 43.2283 15.377 43.3211L14.813 44.1001L17.423 42.5941C17.527 42.5353 17.6486 42.5157 17.7658 42.5389C17.8831 42.562 17.9881 42.6264 18.062 42.7203C18.1358 42.8142 18.1736 42.9315 18.1685 43.0509C18.1633 43.1702 18.1156 43.2838 18.034 43.3711L15.801 45.7211L21.211 42.5981C21.2679 42.5619 21.3315 42.5376 21.3981 42.5266C21.4646 42.5157 21.5327 42.5183 21.5982 42.5344C21.6637 42.5504 21.7252 42.5795 21.7792 42.62C21.8331 42.6605 21.8783 42.7114 21.9121 42.7698C21.9458 42.8282 21.9674 42.8928 21.9756 42.9597C21.9837 43.0267 21.9782 43.0946 21.9594 43.1593C21.9406 43.2241 21.9089 43.2844 21.8662 43.3366C21.8235 43.3888 21.7707 43.4318 21.711 43.4631L13.281 48.3271C13.2057 48.3735 13.1194 48.3987 13.031 48.4001Z" fill="#FCB01A"/>
<path d="M13.5845 59.47C13.4758 59.4702 13.37 59.4351 13.2832 59.3698C13.1963 59.3045 13.133 59.2128 13.103 59.1083C13.0729 59.0039 13.0777 58.8926 13.1166 58.7911C13.1555 58.6896 13.2263 58.6036 13.3185 58.546L34.3605 45.365L10.0475 59.4C9.93423 59.4605 9.80206 59.4751 9.67834 59.4408C9.55463 59.4065 9.44884 59.3259 9.3829 59.2158C9.31696 59.1056 9.29592 58.9743 9.32414 58.8491C9.35236 58.7238 9.42767 58.6143 9.53447 58.543L26.6455 47.962L6.82847 59.4C6.71519 59.4635 6.58165 59.4804 6.45611 59.4472C6.33057 59.4139 6.22289 59.3332 6.15585 59.222C6.08881 59.1107 6.06767 58.9778 6.0969 58.8513C6.12613 58.7247 6.20344 58.6146 6.31247 58.544L27.9005 45L2.94647 59.4C2.83303 59.4615 2.7002 59.4768 2.57575 59.4426C2.45131 59.4085 2.3449 59.3275 2.27877 59.2167C2.21264 59.1059 2.19192 58.9738 2.22094 58.848C2.24996 58.7223 2.32647 58.6126 2.43447 58.542L18.3005 48.762L1.30047 58.578C1.18817 58.6431 1.05497 58.662 0.929012 58.6306C0.803057 58.5993 0.694227 58.5202 0.625528 58.4101C0.55683 58.2999 0.533648 58.1674 0.560883 58.0405C0.588119 57.9136 0.663637 57.8023 0.771473 57.73L11.1405 50.756L1.28047 56.446C1.16829 56.5171 1.03246 56.5407 0.902871 56.5116C0.773284 56.4826 0.660551 56.4032 0.589473 56.291C0.518395 56.1788 0.494794 56.043 0.523862 55.9134C0.55293 55.7838 0.632286 55.6711 0.744473 55.6L1.18347 55.3C1.07038 55.3368 0.947851 55.3322 0.837902 55.2868C0.727953 55.2414 0.637782 55.1583 0.583579 55.0524C0.529376 54.9466 0.514693 54.8248 0.542165 54.7091C0.569638 54.5934 0.637467 54.4912 0.733473 54.421L1.37847 53.945L1.28047 54C1.17683 54.0594 1.05535 54.0798 0.938003 54.0574C0.820661 54.035 0.715219 53.9713 0.640768 53.8778C0.566317 53.7844 0.527777 53.6674 0.532126 53.548C0.536474 53.4287 0.583423 53.3148 0.664473 53.227L2.61747 51.127L1.28047 51.9C1.17969 51.9573 1.06211 51.9779 0.94787 51.9581C0.833625 51.9383 0.729812 51.8794 0.654199 51.7915C0.578585 51.7036 0.535871 51.5921 0.533368 51.4762C0.530864 51.3603 0.568725 51.2471 0.640473 51.156L1.18447 50.474C1.08932 50.448 1.00398 50.3945 0.939176 50.3202C0.874375 50.2458 0.833012 50.1539 0.820291 50.0561C0.807571 49.9583 0.824062 49.8589 0.867689 49.7705C0.911316 49.682 0.98013 49.6085 1.06547 49.559L2.72247 48.6C2.82326 48.5427 2.94083 48.5222 3.05508 48.542C3.16932 48.5618 3.27313 48.6207 3.34875 48.7086C3.42436 48.7965 3.46708 48.9079 3.46958 49.0238C3.47208 49.1397 3.43422 49.2529 3.36247 49.344L3.07147 49.709L5.00047 48.6C5.10411 48.5406 5.2256 48.5203 5.34294 48.5427C5.46029 48.5651 5.56573 48.6288 5.64018 48.7222C5.71463 48.8156 5.75317 48.9326 5.74882 49.052C5.74447 49.1714 5.69752 49.2853 5.61647 49.373L3.66247 51.473L8.64247 48.6C8.753 48.5381 8.88292 48.5204 9.00598 48.5506C9.12903 48.5807 9.23605 48.6565 9.30539 48.7626C9.37473 48.8686 9.40122 48.997 9.37952 49.1218C9.35782 49.2467 9.28954 49.3586 9.18847 49.435L8.54747 49.907L10.8125 48.6C10.9239 48.5368 11.0554 48.5188 11.1798 48.5497C11.3041 48.5805 11.4119 48.658 11.4808 48.766C11.5497 48.8741 11.5745 49.0044 11.55 49.1302C11.5256 49.256 11.4538 49.3676 11.3495 49.442L11.0215 49.67L23.2695 42.6C23.3815 42.538 23.5131 42.5213 23.6371 42.5534C23.761 42.5855 23.868 42.6639 23.9358 42.7725C24.0037 42.8812 24.0272 43.0117 24.0017 43.1372C23.9761 43.2627 23.9034 43.3736 23.7985 43.447L13.4275 50.421L47.7645 30.6C47.8779 30.5385 48.0108 30.5232 48.1352 30.5574C48.2596 30.5916 48.3661 30.6725 48.4322 30.7833C48.4983 30.8942 48.519 31.0262 48.49 31.152C48.461 31.2777 48.3845 31.3874 48.2765 31.458L32.4175 41.233L50.8405 30.6C50.9536 30.5387 51.0861 30.5234 51.2102 30.5573C51.3344 30.5912 51.4407 30.6716 51.5071 30.7819C51.5734 30.8922 51.5947 31.0238 51.5665 31.1493C51.5382 31.2749 51.4627 31.3848 51.3555 31.456L29.7705 45L54.7225 30.6C54.8356 30.5411 54.967 30.5276 55.0897 30.5624C55.2124 30.5972 55.3172 30.6775 55.3827 30.787C55.4481 30.8965 55.4692 31.0269 55.4416 31.1515C55.4141 31.276 55.34 31.3853 55.2345 31.457L38.1345 42.036L57.9095 30.615C57.9658 30.5811 58.0281 30.5587 58.0931 30.5489C58.1581 30.5391 58.2243 30.5423 58.288 30.5581C58.3518 30.5739 58.4118 30.6021 58.4646 30.6412C58.5175 30.6802 58.5621 30.7292 58.596 30.7855C58.6299 30.8418 58.6523 30.9042 58.6621 30.9691C58.6719 31.0341 58.6687 31.1003 58.6529 31.1641C58.6371 31.2278 58.6088 31.2878 58.5698 31.3407C58.5308 31.3935 58.4818 31.4381 58.4255 31.472L37.3805 44.654L58.7205 32.334C58.8336 32.2751 58.965 32.2616 59.0877 32.2964C59.2104 32.3312 59.3152 32.4115 59.3807 32.521C59.4461 32.6305 59.4672 32.7609 59.4396 32.8855C59.4121 33.01 59.338 33.1193 59.2325 33.191L44.7435 42.157L58.7205 34.089C58.8341 34.0262 58.9678 34.01 59.0931 34.044C59.2185 34.0779 59.3257 34.1593 59.3921 34.271C59.4585 34.3826 59.4789 34.5156 59.4489 34.642C59.4189 34.7684 59.3409 34.8781 59.2315 34.948L51.7315 39.548L58.7205 35.514C58.8338 35.4543 58.9657 35.4403 59.089 35.475C59.2123 35.5097 59.3176 35.5904 59.3832 35.7005C59.4487 35.8106 59.4695 35.9416 59.4413 36.0665C59.4131 36.1915 59.338 36.3008 59.2315 36.372L52.3815 40.586L58.7205 36.927C58.8336 36.8657 58.9661 36.8504 59.0902 36.8843C59.2144 36.9182 59.3207 36.9986 59.3871 37.1089C59.4534 37.2192 59.4747 37.3508 59.4465 37.4764C59.4182 37.6019 59.3427 37.7118 59.2355 37.783L47.6835 45.033L58.7205 38.661C58.8338 38.5986 58.967 38.5825 59.092 38.6162C59.2169 38.65 59.3239 38.7308 59.3905 38.8418C59.4571 38.9528 59.478 39.0853 59.4489 39.2114C59.4198 39.3375 59.3429 39.4474 59.2345 39.518L52.3005 43.845L58.7235 40.137C58.8366 40.0757 58.9691 40.0604 59.0932 40.0943C59.2174 40.1282 59.3237 40.2086 59.3901 40.3189C59.4564 40.4292 59.4777 40.5608 59.4495 40.6863C59.4212 40.8119 59.3456 40.9218 59.2385 40.993L53.1575 44.806L58.7235 41.593C58.8358 41.5319 58.9674 41.5161 59.091 41.549C59.2146 41.5819 59.321 41.6609 59.3881 41.7698C59.4552 41.8787 59.4781 42.0092 59.4519 42.1344C59.4257 42.2597 59.3526 42.3701 59.2475 42.443L47.8205 49.958L58.7205 43.666C58.8331 43.602 58.9662 43.5842 59.0918 43.6163C59.2173 43.6485 59.3254 43.7282 59.3934 43.8385C59.4613 43.9489 59.4837 44.0813 59.456 44.2078C59.4282 44.3344 59.3524 44.4453 59.2445 44.517L50.9605 49.967L58.7205 45.487C58.8335 45.4238 58.9666 45.407 59.0918 45.4399C59.217 45.4729 59.3245 45.5532 59.3917 45.6638C59.459 45.7744 59.4807 45.9068 59.4523 46.0331C59.4239 46.1594 59.3476 46.2698 59.2395 46.341L57.5265 47.436L58.7205 46.747C58.8323 46.6848 58.9636 46.6679 59.0875 46.6996C59.2114 46.7313 59.3185 46.8094 59.3866 46.9176C59.4548 47.0258 59.4788 47.1561 59.4539 47.2815C59.4289 47.407 59.3569 47.5181 59.2525 47.592L52.7435 52.052L58.7205 48.6C58.8322 48.5393 58.9628 48.5235 59.0858 48.5557C59.2088 48.5879 59.3149 48.6657 59.3825 48.7733C59.4501 48.881 59.4742 49.0103 59.4499 49.1351C59.4256 49.2599 59.3546 49.3707 59.2515 49.445L55.8305 51.775L58.7205 50.107C58.8319 50.0438 58.9634 50.0258 59.0878 50.0567C59.2121 50.0875 59.3199 50.165 59.3888 50.273C59.4577 50.3811 59.4825 50.5114 59.458 50.6372C59.4336 50.763 59.3618 50.8746 59.2575 50.949L56.6005 52.813L58.7245 51.587C58.8359 51.5238 58.9674 51.5058 59.0918 51.5366C59.2161 51.5675 59.3239 51.645 59.3928 51.753C59.4617 51.8611 59.4865 51.9914 59.462 52.1172C59.4376 52.243 59.3658 52.3546 59.2615 52.429L58.6615 52.849L58.7235 52.813C58.8312 52.7511 58.9581 52.7315 59.0795 52.7581C59.2008 52.7847 59.308 52.8555 59.38 52.9567C59.452 53.0579 59.4838 53.1823 59.4691 53.3057C59.4544 53.4291 59.3943 53.5425 59.3005 53.624L56.6605 55.9L58.7205 54.712C58.8241 54.6533 58.9453 54.6335 59.0622 54.6561C59.1792 54.6788 59.2842 54.7425 59.3583 54.8357C59.4325 54.9289 59.4709 55.0455 59.4667 55.1646C59.4626 55.2836 59.416 55.3972 59.3355 55.485L58.0555 56.858L58.7205 56.475C58.8158 56.4186 58.9273 56.3959 59.037 56.4106C59.1468 56.4253 59.2484 56.4765 59.3255 56.556C59.4029 56.6345 59.4523 56.7363 59.4659 56.8458C59.4794 56.9552 59.4564 57.066 59.4005 57.161L59.0205 57.808C59.1191 57.8291 59.2091 57.8796 59.2786 57.9528C59.348 58.026 59.3937 58.1185 59.4096 58.2181C59.4255 58.3178 59.4109 58.4199 59.3677 58.5111C59.3245 58.6023 59.2547 58.6782 59.1675 58.729L58.0075 59.399C57.9119 59.4541 57.8008 59.476 57.6915 59.4613C57.5822 59.4467 57.4808 59.3963 57.403 59.318C57.3253 59.2397 57.2757 59.138 57.2619 59.0285C57.248 58.9191 57.2707 58.8082 57.3265 58.713L57.5755 58.29L55.6535 59.4C55.5499 59.4588 55.4287 59.4786 55.3117 59.4559C55.1948 59.4332 55.0898 59.3696 55.0156 59.2763C54.9415 59.1831 54.903 59.0665 54.9072 58.9475C54.9114 58.8284 54.958 58.7148 55.0385 58.627L56.3205 57.253L52.6005 59.4C52.4929 59.4617 52.3662 59.4812 52.245 59.4547C52.1238 59.4282 52.0168 59.3576 51.9448 59.2567C51.8728 59.1557 51.8408 59.0316 51.8552 58.9084C51.8695 58.7852 51.9291 58.6717 52.0225 58.59L54.6575 56.311L49.3075 59.4C49.1963 59.4611 49.066 59.4776 48.943 59.4462C48.8201 59.4148 48.7136 59.3378 48.6454 59.2309C48.5771 59.1239 48.552 58.995 48.5752 58.8702C48.5985 58.7455 48.6683 58.6342 48.7705 58.559L49.3705 58.137L47.1825 59.4C47.0713 59.4611 46.941 59.4776 46.818 59.4462C46.6951 59.4148 46.5886 59.3378 46.5204 59.2309C46.4521 59.1239 46.427 58.995 46.4502 58.8702C46.4735 58.7455 46.5433 58.6342 46.6455 58.559L49.3095 56.7L44.6185 59.4C44.5068 59.4607 44.3761 59.4766 44.2532 59.4444C44.1302 59.4122 44.0241 59.3343 43.9564 59.2267C43.8888 59.1191 43.8647 58.9897 43.889 58.8649C43.9134 58.7402 43.9843 58.6293 44.0875 58.555L47.5005 56.234L42.0125 59.4C41.9009 59.4615 41.77 59.478 41.6466 59.4463C41.5232 59.4145 41.4165 59.3368 41.3485 59.229C41.2805 59.1213 41.2561 58.9916 41.2805 58.8665C41.3048 58.7414 41.376 58.6304 41.4795 58.556L47.9945 54.092L38.8005 59.4C38.6877 59.4621 38.5553 59.4782 38.4309 59.4451C38.3065 59.4119 38.1996 59.3321 38.1326 59.2222C38.0656 59.1122 38.0436 58.9807 38.0711 58.8549C38.0987 58.7292 38.1736 58.6189 38.2805 58.547L39.9805 57.459L36.6175 59.4C36.5051 59.4612 36.3736 59.4769 36.25 59.444C36.1263 59.4111 36.02 59.3321 35.9529 59.2232C35.8857 59.1143 35.8629 58.9838 35.8891 58.8586C35.9152 58.7334 35.9884 58.6229 36.0935 58.55L44.3805 53.1L33.4625 59.4C33.3501 59.4612 33.2186 59.4769 33.0949 59.444C32.9713 59.4111 32.865 59.3321 32.7979 59.2232C32.7307 59.1143 32.7079 58.9838 32.7341 58.8586C32.7602 58.7334 32.8334 58.6229 32.9385 58.55L44.3575 51.04L29.8725 59.4C29.7592 59.4635 29.6256 59.4804 29.5001 59.4472C29.3746 59.4139 29.2669 59.3332 29.1999 59.222C29.1328 59.1107 29.1117 58.9778 29.1409 58.8513C29.1701 58.7247 29.2474 58.6146 29.3565 58.544L35.4425 54.728L27.3505 59.4C27.2373 59.4613 27.1049 59.4766 26.9807 59.4427C26.8566 59.4089 26.7502 59.3284 26.6839 59.2181C26.6175 59.1079 26.5963 58.9762 26.6245 58.8507C26.6527 58.7251 26.7283 58.6153 26.8355 58.544L33.7815 54.212L24.7935 59.4C24.6802 59.4635 24.5466 59.4804 24.4211 59.4472C24.2956 59.4139 24.1879 59.3332 24.1209 59.222C24.0538 59.1107 24.0327 58.9778 24.0619 58.8513C24.0911 58.7247 24.1684 58.6146 24.2775 58.544L35.8275 51.3L21.7845 59.4C21.671 59.4615 21.5382 59.4768 21.4138 59.4426C21.2893 59.4085 21.1829 59.3275 21.1168 59.2167C21.0506 59.1059 21.0299 58.9738 21.0589 58.848C21.088 58.7223 21.1645 58.6126 21.2725 58.542L28.1325 54.322L19.3325 59.4C19.2186 59.4679 19.0823 59.4878 18.9538 59.4552C18.8252 59.4227 18.7149 59.3404 18.647 59.2265C18.5791 59.1126 18.5592 58.9764 18.5918 58.8478C18.6243 58.7193 18.7066 58.6089 18.8205 58.541L26.3205 53.941L16.8735 59.4C16.7602 59.4605 16.6281 59.4751 16.5043 59.4408C16.3806 59.4065 16.2748 59.3259 16.2089 59.2158C16.143 59.1056 16.1219 58.9743 16.1501 58.8491C16.1784 58.7238 16.2537 58.6143 16.3605 58.543L30.8455 49.58L13.8345 59.4C13.7588 59.445 13.6725 59.4691 13.5845 59.47Z" fill="#FCB01A"/>
<path d="M1.84003 59.32C19.613 59.409 37.399 59.263 55.177 59.32C56.91 59.42 60.029 59.691 59.724 57.131C58.78 53.314 62.124 28.471 57.407 30.68C53.107 31.609 36.725 28.238 36.275 33.22C36.058 34.038 36.727 36.62 35.892 36.68C31.254 37.059 22.764 34.558 24.276 42.168C21.387 44.422 11.259 39.455 12.276 46.943C12.276 47.281 12.395 48.543 12.226 48.68C8.25803 49.38 -0.655969 46.231 0.275031 53.009C0.582031 54.924 -0.984969 59.093 1.84003 59.32ZM2.70303 49.32C5.82503 48.449 12.05 51.113 13.725 47.78C13.861 46.619 13.112 43.704 14.73 43.32C17.966 42.391 23.971 45.229 25.73 41.704C25.862 40.537 25.123 37.661 26.779 37.32C29.963 36.37 36.226 39.32 37.73 35.585C37.778 34.465 37.207 31.633 38.767 31.32C66.545 31.636 56.458 26.138 58.306 58.68C40.459 58.68 22.495 58.68 4.60603 58.68C0.906031 59.651 1.61403 55.988 1.72703 53.561C1.72403 52.518 1.28003 49.658 2.70003 49.32H2.70303Z" fill="#262626"/>
<path d="M1.18165 30.0169C1.12528 29.9151 1.10202 29.7995 1.11488 29.6849C1.12773 29.5703 1.17611 29.462 1.25376 29.3741C1.33141 29.2861 1.43476 29.2225 1.55046 29.1916C1.66616 29.1606 1.78889 29.1636 1.90279 29.2002L6.71966 30.7382L0.104339 26.7492C-0.0226703 26.6715 -0.114562 26.5507 -0.153093 26.4109C-0.191628 26.2711 -0.17399 26.1226 -0.103681 25.9947C-0.033375 25.8668 0.0844688 25.769 0.226458 25.7206C0.36845 25.6722 0.52421 25.6768 0.662838 25.7335L6.40567 28.1263L1.44408 25.1417C1.31633 25.0632 1.22428 24.9412 1.18643 24.8003C1.14858 24.6593 1.16773 24.5098 1.24005 24.3819C1.31236 24.2539 1.43248 24.1569 1.57625 24.1105C1.72002 24.064 1.87679 24.0714 2.01506 24.1313L7.25911 26.4473L3.42811 24.1317C3.29897 24.0527 3.20616 23.9294 3.16863 23.7869C3.13111 23.6445 3.15171 23.4937 3.22622 23.3653C3.30074 23.237 3.42355 23.1408 3.56953 23.0964C3.7155 23.0521 3.87364 23.0629 4.01158 23.1267L6.96437 24.5164L4.99963 23.3321C4.87187 23.2536 4.77982 23.1316 4.74197 22.9906C4.70412 22.8497 4.72328 22.7002 4.79559 22.5722C4.8679 22.4442 4.98802 22.3473 5.13179 22.3008C5.27556 22.2543 5.43233 22.2618 5.57061 22.3217L10.715 24.6022L6.95766 22.3365C6.83145 22.2586 6.74019 22.1382 6.70185 21.999C6.66351 21.8598 6.68088 21.7119 6.75052 21.5844C6.82016 21.4569 6.93705 21.359 7.07815 21.31C7.21925 21.261 7.37435 21.2645 7.51292 21.3197L14.5392 24.21L9.38025 21.104C9.25194 21.0256 9.15943 20.9034 9.12139 20.7621C9.08335 20.6207 9.10263 20.4708 9.17532 20.3426C9.24802 20.2144 9.36871 20.1174 9.51303 20.0713C9.65735 20.0252 9.81454 20.0333 9.95286 20.0941L14.7552 22.2469L11.2666 20.1435C11.1376 20.0641 11.0451 19.9405 11.008 19.7978C10.971 19.6552 10.9921 19.5043 11.0672 19.3762C11.1422 19.248 11.2655 19.1522 11.4117 19.1084C11.558 19.0646 11.7161 19.076 11.8539 19.1404L13.9791 20.1599L12.7234 19.402C12.5956 19.3248 12.5028 19.2041 12.4636 19.0641C12.4243 18.9242 12.4415 18.7751 12.5117 18.6468C12.5819 18.5184 12.7 18.4202 12.8423 18.3716C12.9846 18.323 13.1408 18.3277 13.2797 18.3847L20.2726 21.2711L15.1322 18.1766C15.0032 18.0972 14.9107 17.9736 14.8737 17.8309C14.8366 17.6883 14.8577 17.5374 14.9328 17.4093C15.0078 17.2811 15.1311 17.1853 15.2773 17.1415C15.4236 17.0977 15.5817 17.1091 15.7195 17.1735L17.8474 18.193L16.5901 17.4346C16.4622 17.354 16.3711 17.2295 16.3356 17.0867C16.3001 16.9438 16.3228 16.7934 16.399 16.666C16.4752 16.5387 16.5992 16.444 16.7457 16.4015C16.8922 16.3589 17.0501 16.3716 17.1872 16.437L20.1357 17.9202L18.0756 16.6786C17.9476 16.5998 17.8555 16.4773 17.818 16.3358C17.7804 16.1943 17.8003 16.0445 17.8734 15.9165C17.9466 15.7885 18.0677 15.692 18.2122 15.6464C18.3567 15.6007 18.5139 15.6094 18.652 15.6707L25.5253 18.7937L20.2125 15.591C20.085 15.5129 19.9929 15.3914 19.9546 15.2509C19.9164 15.1104 19.9349 14.9612 20.0063 14.8332C20.0778 14.7052 20.197 14.6078 20.3401 14.5606C20.4832 14.5133 20.6396 14.5195 20.7781 14.5782L27.6152 17.537L22.478 14.4382C22.3497 14.361 22.2565 14.2402 22.2172 14.0999C22.1778 13.9596 22.1951 13.8102 22.2657 13.6817C22.3362 13.5531 22.4548 13.4549 22.5976 13.4066C22.7404 13.3583 22.897 13.3636 23.0359 13.4214L29.131 15.9679L22.6901 12.0834C22.563 12.0052 22.4713 11.8839 22.4332 11.7438C22.3951 11.6036 22.4135 11.4548 22.4846 11.327C22.5557 11.1992 22.6744 11.1018 22.817 11.0542C22.9595 11.0066 23.1156 11.0123 23.254 11.0701L29.41 13.7122L23.4476 10.1168C23.3178 10.0377 23.2246 9.91381 23.1872 9.7707C23.1498 9.62759 23.1711 9.47617 23.2466 9.34763C23.3221 9.2191 23.4461 9.12325 23.593 9.07984C23.74 9.03643 23.8987 9.04877 24.0365 9.11431L26.3918 10.2531L25.6479 9.80523C25.5183 9.72911 25.4236 9.60869 25.3829 9.46824C25.3422 9.32779 25.3585 9.17775 25.4285 9.04836C25.4985 8.91896 25.617 8.81984 25.7601 8.77096C25.9033 8.72208 26.0604 8.72707 26.1999 8.78494L31.8828 11.0739C31.7839 10.9831 31.7203 10.8626 31.7025 10.7324C31.6848 10.6021 31.7139 10.47 31.7851 10.3578C31.8563 10.2457 31.9653 10.1602 32.0941 10.1156C32.2228 10.071 32.3636 10.07 32.4931 10.1126L36.0451 11.2806L36.0661 11.2596C36.1506 11.1301 36.2853 11.0382 36.4404 11.004C36.5956 10.9698 36.7585 10.9962 36.8935 11.0772L38.7225 12.1779C38.8511 12.2515 38.9463 12.3686 38.9896 12.5062C39.0328 12.6438 39.021 12.7919 38.9563 12.9215C38.8916 13.0511 38.7787 13.1529 38.6399 13.2068C38.501 13.2607 38.3462 13.2628 38.2058 13.2129L37.0124 12.8196L38.6551 13.8114C38.7833 13.8882 38.8767 14.0085 38.9165 14.1484C38.9563 14.2883 38.9397 14.4375 38.87 14.5662C38.8002 14.6948 38.6825 14.7935 38.5402 14.8425C38.398 14.8916 38.2417 14.8874 38.1026 14.8307L32.4885 12.5655L37.8279 15.7847C37.9553 15.8647 38.0463 15.9882 38.0824 16.1302C38.1185 16.2722 38.097 16.422 38.0223 16.5494C37.9476 16.6767 37.8252 16.7721 37.68 16.8162C37.5347 16.8602 37.3775 16.8497 37.2401 16.7867L34.8787 15.6418L37.2794 17.09C37.4065 17.1682 37.4982 17.2894 37.5363 17.4296C37.5744 17.5698 37.5561 17.7186 37.485 17.8464C37.4139 17.9742 37.2952 18.0716 37.1526 18.1192C37.01 18.1668 36.8539 18.1611 36.7155 18.1033L30.5634 15.4632L36.4665 19.0273C36.5935 19.1051 36.6854 19.2259 36.7239 19.3657C36.7624 19.5054 36.7448 19.654 36.6745 19.7819C36.6042 19.9097 36.4863 20.0076 36.3443 20.056C36.2024 20.1044 36.0466 20.0998 35.908 20.0431L29.8027 17.5004L35.6354 21.0182C35.7617 21.0969 35.8526 21.2183 35.89 21.3583C35.9274 21.4983 35.9086 21.6466 35.8374 21.7739C35.7662 21.9013 35.6477 21.9983 35.5054 22.0457C35.3631 22.0931 35.2075 22.0875 35.0693 22.03L28.2365 19.0742L34.7952 23.0293C34.9218 23.1088 35.0126 23.2312 35.0492 23.3721C35.0859 23.513 35.0657 23.662 34.9928 23.7893C34.9199 23.9165 34.7996 24.0127 34.656 24.0585C34.5123 24.1043 34.356 24.0963 34.2182 24.0363L27.3534 20.9089L33.8455 24.8222C33.9762 24.9018 34.0699 25.0266 34.1069 25.1708C34.144 25.315 34.1216 25.4673 34.0445 25.596C33.9673 25.7248 33.8414 25.8199 33.6929 25.8617C33.5444 25.9035 33.3848 25.8887 33.2474 25.8203L29.1553 23.7583C29.2041 23.866 29.2175 23.9854 29.1936 24.1006C29.1696 24.2157 29.1096 24.3211 29.0215 24.4027C28.9335 24.4842 28.8215 24.538 28.7007 24.5568C28.5799 24.5756 28.456 24.5585 28.3456 24.5079L26.2118 23.4927L27.4659 24.2501C27.5942 24.3273 27.6873 24.4481 27.7267 24.5884C27.7661 24.7287 27.7487 24.8781 27.6782 25.0067C27.6077 25.1352 27.4891 25.2335 27.3463 25.2817C27.2035 25.33 27.0469 25.3247 26.908 25.2669L19.9189 22.3825L25.0491 25.4757C25.178 25.5551 25.2705 25.6787 25.3076 25.8214C25.3447 25.964 25.3235 26.1149 25.2485 26.243C25.1734 26.3712 25.0502 26.467 24.9039 26.5108C24.7577 26.5546 24.5995 26.5432 24.4618 26.4788L22.3365 25.4593L23.5901 26.2157C23.717 26.2947 23.8082 26.4168 23.8453 26.5576C23.8825 26.6983 23.8629 26.8473 23.7905 26.9748C23.718 27.1023 23.5981 27.1989 23.4547 27.2452C23.3113 27.2915 23.1549 27.2841 23.0169 27.2246L18.2161 25.0696L21.7031 27.1726C21.8293 27.2505 21.9206 27.3709 21.9589 27.5101C21.9972 27.6493 21.9799 27.7972 21.9102 27.9247C21.8406 28.0522 21.7237 28.1501 21.5826 28.1991C21.4415 28.2481 21.2864 28.2446 21.1478 28.1894L14.1216 25.2991L19.2725 28.4053C19.4002 28.4838 19.4923 28.6058 19.5301 28.7467C19.568 28.8877 19.5488 29.0372 19.4765 29.1651C19.4042 29.2931 19.2841 29.3901 19.1403 29.4365C18.9965 29.483 18.8397 29.4756 18.7015 29.4157L13.5555 27.1347L17.3117 29.4009C17.4409 29.4799 17.5337 29.6032 17.5712 29.7456C17.6087 29.8881 17.5881 30.0389 17.5136 30.1672C17.4391 30.2956 17.3163 30.3918 17.1703 30.4362C17.0243 30.4805 16.8662 30.4697 16.7283 30.4059L13.7818 29.0129L15.7428 30.1953C15.8705 30.2738 15.9626 30.3958 16.0004 30.5368C16.0383 30.6777 16.0191 30.8272 15.9468 30.9552C15.8745 31.0831 15.7544 31.1801 15.6106 31.2266C15.4668 31.273 15.3101 31.2656 15.1718 31.2057L9.92613 28.8892L13.7603 31.2007C13.889 31.2778 13.9826 31.3989 14.0221 31.5395C14.0616 31.6801 14.0442 31.8299 13.9733 31.9586C13.9024 32.0874 13.7833 32.1857 13.6399 32.2336C13.4966 32.2815 13.3397 32.2756 13.2007 32.217L7.46054 29.8242L11.5792 32.3068C11.7026 32.3821 11.7932 32.4981 11.8338 32.633C11.8744 32.7678 11.8624 32.9123 11.7998 33.0392C11.7373 33.1661 11.6287 33.2668 11.4943 33.3223C11.3599 33.3778 11.209 33.3843 11.07 33.3406L6.2526 31.8041L9.13897 33.5443C9.25328 33.6125 9.34039 33.7156 9.38631 33.837C9.43223 33.9584 9.43432 34.0911 9.39221 34.2138C9.35011 34.3365 9.26627 34.4421 9.15415 34.5135C9.04203 34.585 8.90813 34.6183 8.77394 34.608L6.24502 34.4267L6.56277 34.6188C6.63312 34.6573 6.69463 34.709 6.7436 34.7709C6.79257 34.8328 6.82798 34.9036 6.84771 34.979C6.86743 35.0543 6.87106 35.1328 6.85838 35.2095C6.8457 35.2863 6.81697 35.3598 6.77391 35.4256C6.73085 35.4914 6.67437 35.5482 6.60785 35.5925C6.54133 35.6369 6.46615 35.6678 6.38684 35.6836C6.30752 35.6993 6.2257 35.6995 6.14631 35.6841C6.06692 35.6687 5.9916 35.6381 5.92487 35.594L3.56161 34.1647C3.44781 34.0962 3.36122 33.9931 3.31568 33.8719C3.27013 33.7507 3.26826 33.6183 3.31036 33.4959C3.35247 33.3735 3.43611 33.2682 3.54793 33.1968C3.65975 33.1254 3.79329 33.092 3.9272 33.102L6.45612 33.2833L1.39629 30.2339C1.30571 30.1814 1.23156 30.1065 1.18165 30.0169Z" fill="#F7D97C"/>
<path d="M29.6281 24.462C33.4391 30.332 36.1208 22.4377 37.2267 19.1382C37.7817 17.127 39.6144 15.1665 39.0303 13.0408C36.1399 9.23405 29.7603 10.1909 25.4382 8.62872C22.0782 7.97208 21.7621 10.9544 23.3068 13.0114C19.7044 14.0405 15.3282 17.0732 11.482 18.7474C8.37428 21.3206 -1.4229 22.6237 0.0336784 27.4874C2.06384 30.2184 2.94896 36.2322 7.39677 35.6946C14.8523 32.0544 22.2072 28.1772 29.6281 24.462ZM5.39532 34.4806C3.06803 33.5753 2.66288 29.9889 1.17509 28.1365C-0.585375 23.784 21.6815 17.1856 24.4758 13.7129C22.6522 11.4063 24.2209 8.97884 27.2056 10.0813C29.4897 11.2953 40.2426 10.8123 37.4329 14.4519C35.4081 17.2006 34.999 25.5927 30.8414 25.175C30.3874 24.7848 29.8791 22.8435 28.9121 22.9377C21.0073 26.5515 13.4757 31.5234 5.39108 34.4828L5.39532 34.4806Z" fill="#262626"/>
</g>
<defs>
<clipPath id="clip0_529_385">
<rect width="60" height="60" fill="white"/>
</clipPath>
</defs>
</svg>
