<svg width="925" height="547" viewBox="0 0 925 547" fill="none" xmlns="http://www.w3.org/2000/svg">
<g opacity="0.3">
<path opacity="0.07" d="M462.382 324.514L434.02 314.328V288.455H429.824V312.821L402.818 303.121V336.603L391.309 332.469V548.015H473.021V361.816L462.382 357.996V324.514Z" fill="#FCB01A"/>
<path opacity="0.07" d="M584.457 258.831H572.432V241.291H563.568V226.577H557.853V210.803H545.065V177.549H541.145V210.803H528.358V226.577H522.642V241.291H513.778V258.831H501.753V277.885H489.268V523.07H596.942V277.885H584.457V258.831Z" fill="#FCB01A"/>
<path opacity="0.07" d="M105.097 444.124H132.3V422.884H160.535V361.211H168.504V341.28H188.585V328.594H212.287V341.28H232.367V361.211H242.006V409.366H251.959V305.922L300.069 334.636V422.884H306.669V271.191L367.536 238.061V550.333H306.669H105.097V444.124Z" fill="#FCB01A"/>
<path d="M257.217 551.519C257.915 449.599 272.574 326.737 329.119 296.021V551.519H257.217Z" fill="white"/>
<path d="M331.187 553.588H255.133L255.147 551.505C255.558 491.438 260.766 437.875 270.207 396.607C282.505 342.855 301.993 308.401 328.13 294.203L331.187 292.543L331.187 553.588ZM259.301 549.45H327.049V299.617C303.524 314.234 285.769 347.144 274.242 397.53C264.975 438.031 259.815 490.528 259.301 549.45Z" fill="#FCB01A"/>
<path d="M329.117 350.497H304.685V354.635H329.117V350.497Z" fill="#FCB01A"/>
<path d="M329.117 365.854H304.685V369.992H329.117V365.854Z" fill="#FCB01A"/>
<path d="M329.117 381.212H304.685V385.35H329.117V381.212Z" fill="#FCB01A"/>
<path d="M329.117 396.57H304.685V400.708H329.117V396.57Z" fill="#FCB01A"/>
<path d="M329.117 411.928H304.685V416.066H329.117V411.928Z" fill="#FCB01A"/>
<path d="M329.117 427.286H304.685V431.424H329.117V427.286Z" fill="#FCB01A"/>
<path d="M329.117 442.643H304.685V446.781H329.117V442.643Z" fill="#FCB01A"/>
<path d="M329.117 458.001H304.685V462.139H329.117V458.001Z" fill="#FCB01A"/>
<path d="M329.117 473.359H304.685V477.497H329.117V473.359Z" fill="#FCB01A"/>
<path d="M329.117 488.717H304.685V492.855H329.117V488.717Z" fill="#FCB01A"/>
<path d="M329.117 504.075H304.685V508.213H329.117V504.075Z" fill="#FCB01A"/>
<path d="M329.117 519.432H304.685V523.57H329.117V519.432Z" fill="#FCB01A"/>
<path d="M329.117 534.79H304.685V538.928H329.117V534.79Z" fill="#FCB01A"/>
<path d="M737.878 114.447C737.878 98.5673 722.081 97.1065 712.529 102.255C717.336 89.0886 701.772 80.1852 693.612 89.4582C695.096 78.7015 685.452 66.6467 669.132 69.7994C653.185 72.8799 650.738 86.6338 653.182 99.6585C640.92 87.125 614.05 90.2001 614.695 114.447H737.878Z" fill="white"/>
<path d="M473.501 263.121C473.501 252.082 462.519 251.066 455.878 254.645C459.22 245.492 448.4 239.302 442.727 245.749C443.758 238.27 437.054 229.89 425.708 232.082C414.621 234.223 412.92 243.785 414.619 252.84C406.095 244.126 387.414 246.265 387.862 263.121H473.501Z" fill="white"/>
<path d="M475.464 265.084H385.95L385.899 263.173C385.699 255.639 389.103 249.828 395.24 247.23C400.555 244.98 407.038 245.567 412.114 248.466C411.623 238.477 416.288 231.901 425.334 230.154C431.206 229.021 436.52 230.367 440.299 233.948C442.605 236.134 444.098 238.959 444.604 241.942C447.381 240.68 450.625 240.839 453.5 242.546C456.304 244.211 458.561 247.44 458.469 251.505C462.177 250.46 466.566 250.472 470.121 252.594C472.558 254.05 475.464 257.057 475.464 263.122L475.464 265.084ZM389.869 261.157H471.391C471.016 258.787 469.916 257.045 468.108 255.965C465.163 254.207 460.517 254.375 456.81 256.373L452.262 258.825L454.034 253.972C455.483 250.003 453.572 247.155 451.496 245.922C449.585 244.788 446.528 244.401 444.201 247.046L439.89 251.945L440.782 245.48C441.214 242.343 440.024 239.098 437.598 236.798C434.764 234.113 430.673 233.122 426.08 234.009C420.358 235.115 414.06 239.216 416.549 252.477L417.743 258.841L413.216 254.213C409.142 250.05 402.072 248.603 396.771 250.846C392.649 252.591 390.242 256.216 389.869 261.157Z" fill="#FCB01A"/>
<path d="M460.14 149.61C460.14 140.762 473.783 137.793 479.829 142.817C480.074 131.311 493.229 128.261 498.948 135.696C500.474 114.534 537.269 117.966 534.6 141.225C544.124 134.241 556.715 141.797 555.822 149.61H460.14Z" fill="white"/>
<path d="M578.977 193.891H479.579V191.927C479.579 187.81 482.01 184.308 486.248 182.319C490.546 180.302 495.719 180.225 499.663 181.918C500.702 177.479 503.717 174.052 508.003 172.645C511.811 171.395 515.886 172.009 519.043 174.131C520.34 169.585 523.392 166.033 527.887 163.929C534.835 160.68 544.129 161.605 550.488 166.181C555.161 169.543 557.783 174.397 558.077 180.092C563.428 177.77 568.897 178.912 572.607 181.065C577.14 183.696 579.657 187.944 579.176 192.151L578.977 193.891ZM483.833 189.963H575.17C574.703 187.907 573.062 185.87 570.636 184.461C567.245 182.493 561.926 181.634 557.165 185.125L553.54 187.783L554.053 183.318C554.906 175.886 551.338 171.63 548.194 169.368C542.937 165.584 535.271 164.81 529.552 167.486C526.496 168.915 522.759 171.926 522.31 178.154L521.94 183.298L518.795 179.211C516.6 176.357 512.756 175.218 509.228 176.376C505.542 177.586 503.287 180.876 503.196 185.176L503.109 189.246L499.978 186.644C497.204 184.34 491.906 184.001 487.917 185.874C486.614 186.485 484.613 187.747 483.833 189.963Z" fill="#FCB01A"/>
<path d="M766.03 20.8527C766.03 14.3244 776.096 12.1341 780.557 15.8405C780.738 7.35175 790.444 5.10112 794.663 10.587C795.789 -5.0264 822.936 -2.49468 820.967 14.6661C827.994 9.51358 837.284 15.0883 836.625 20.8527H766.03Z" fill="white"/>
<path d="M794.889 63.5557H720.579V61.5921C720.579 58.3463 722.48 55.5925 725.795 54.037C728.896 52.5815 732.597 52.4452 735.559 53.518C736.481 50.3456 738.751 47.912 741.904 46.8768C744.639 45.9791 747.551 46.3171 749.917 47.6734C751.007 44.4845 753.273 41.9862 756.518 40.4688C761.805 37.9955 768.875 38.6988 773.711 42.1785C777.096 44.6142 779.076 48.069 779.471 52.1206C783.374 50.6939 787.287 51.5653 789.988 53.1331C793.513 55.1789 795.466 58.5057 795.088 61.8157L794.889 63.5557ZM775.042 59.6282H790.923C790.455 58.4679 789.431 57.3498 788.017 56.529C785.657 55.1586 781.954 54.5601 778.641 56.9893L775.042 59.6282ZM738.969 59.6282H775.019L775.529 55.1817C776.13 49.9463 773.625 46.954 771.417 45.3653C767.683 42.6782 762.24 42.1279 758.182 44.0255C756.052 45.022 753.448 47.1213 753.134 51.4671L752.763 56.6106L749.619 52.5233C747.902 50.2918 745.122 49.9535 743.129 50.6076C740.627 51.429 739.096 53.6771 739.033 56.6216L738.969 59.6282ZM725.035 59.6282H737.666L735.815 58.0902C733.91 56.5068 730.241 56.2882 727.464 57.5918C726.596 57.9992 725.62 58.6449 725.035 59.6282Z" fill="#FCB01A"/>
<path d="M941.867 87.6629C941.867 80.6777 931.097 78.3342 926.323 82.2999C926.13 73.217 915.745 70.8088 911.23 76.6786C910.025 59.9724 880.978 62.6814 883.085 81.0432C875.566 75.5299 865.626 81.4947 866.331 87.6629H941.867Z" fill="white"/>
<path d="M943.831 89.6266H864.58L864.381 87.8863C863.982 84.3999 866.047 80.8914 869.77 78.7302C872.669 77.0474 876.887 76.1235 881.074 77.72C881.453 73.3475 883.56 69.6195 887.197 67.0021C892.333 63.3066 899.842 62.56 905.456 65.1858C908.945 66.818 911.366 69.521 912.5 72.9742C915.023 71.4712 918.163 71.0819 921.107 72.0481C924.483 73.1562 926.899 75.7836 927.847 79.2033C931.004 78.0123 934.993 78.1383 938.328 79.7036C941.825 81.3445 943.831 84.2458 943.831 87.6633V89.6266ZM925.305 85.6991H939.425C938.75 84.4209 937.505 83.6545 936.66 83.258C933.644 81.8423 929.655 82.0846 927.578 83.8102L925.305 85.6991ZM868.503 85.6991H924.432L924.36 82.3419C924.292 79.1304 922.618 76.6772 919.883 75.7792C917.704 75.0641 914.664 75.4349 912.786 77.876L909.642 81.9633L909.271 76.8198C908.931 72.1034 906.104 69.8243 903.792 68.7428C899.406 66.6913 893.526 67.286 889.491 70.1895C887.1 71.9105 884.385 75.1517 885.036 80.8195L885.548 85.2842L881.924 82.6268C878.326 79.9884 874.305 80.6388 871.742 82.1262C870.127 83.0639 868.978 84.3615 868.503 85.6991Z" fill="#FCB01A"/>
<path d="M681.812 222.978C681.786 222.978 681.76 222.978 681.734 222.976C681.106 222.951 680.528 222.628 680.179 222.105C676.069 215.951 671.6 215.012 671.412 214.975C670.344 214.788 669.639 213.772 669.826 212.704C670.013 211.636 671.04 210.924 672.109 211.11C672.336 211.15 677.235 212.071 681.944 217.883C686.355 213.305 691.285 211.458 691.519 211.372C692.536 210.999 693.665 211.522 694.039 212.54C694.412 213.558 693.889 214.686 692.871 215.059C692.821 215.078 687.372 217.147 683.353 222.232C682.979 222.704 682.411 222.978 681.812 222.978Z" fill="#FCB01A"/>
<path d="M531.536 319.464C531.51 319.464 531.484 319.464 531.457 319.462C530.83 319.437 530.252 319.113 529.903 318.591C525.792 312.437 521.324 311.498 521.135 311.461C520.067 311.274 519.363 310.258 519.55 309.19C519.737 308.122 520.764 307.41 521.832 307.596C522.06 307.636 526.959 308.557 531.668 314.369C536.079 309.791 541.009 307.944 541.243 307.858C542.261 307.486 543.389 308.008 543.763 309.026C544.136 310.044 543.614 311.171 542.596 311.545C542.545 311.564 537.096 313.633 533.076 318.718C532.703 319.19 532.135 319.464 531.536 319.464Z" fill="#FCB01A"/>
<path d="M389.579 333.383C388.982 333.383 388.416 333.111 388.043 332.642C385.801 329.825 382.379 328.913 382.345 328.904C381.298 328.633 380.664 327.566 380.93 326.518C381.197 325.47 382.256 324.835 383.305 325.096C383.463 325.136 386.586 325.941 389.411 328.415C392.002 325.465 394.786 324.247 394.925 324.187C395.922 323.76 397.076 324.221 397.503 325.218C397.93 326.215 397.469 327.369 396.472 327.797C396.451 327.806 393.42 329.169 391.217 332.501C390.87 333.026 390.294 333.353 389.666 333.38C389.637 333.382 389.608 333.383 389.579 333.383Z" fill="#FCB01A"/>
<path d="M819.448 126.559C818.852 126.559 818.286 126.287 817.912 125.818C815.67 123.002 812.248 122.09 812.214 122.081C811.167 121.81 810.532 120.743 810.799 119.695C811.066 118.647 812.126 118.012 813.174 118.273C813.332 118.313 816.455 119.118 819.279 121.591C821.871 118.642 824.655 117.424 824.794 117.364C825.791 116.937 826.945 117.399 827.372 118.395C827.799 119.392 827.338 120.546 826.341 120.974C826.32 120.983 823.289 122.346 821.086 125.678C820.739 126.203 820.163 126.53 819.535 126.557C819.506 126.558 819.477 126.559 819.448 126.559Z" fill="#FCB01A"/>
<path opacity="0.07" d="M954.721 338.066V318.699H923.234V306.372H886.067V318.699H854.58V338.066H839.466V363.784L822.811 285.987V260.838H811.181V235.278L790.841 167.495L770.557 235.278V260.838H759.86V285.987H752.044V279.269H681.414V315.043H670.754V405.2L643.224 417.911V339.414H652.627V311.765H564.697V339.414H574.1V554.562H643.224V502.004H751.615H762.704H839.466H969.834V338.066H954.721Z" fill="#FCB01A"/>
<path d="M604.645 184.078H600.508V212.803H604.645V184.078Z" fill="#FCB01A"/>
<path d="M616.571 212.066H588.583V220.905H616.571V212.066Z" fill="white"/>
<path d="M618.64 220.905H614.502V214.136H590.652V220.905H586.514V209.997H618.64V220.905Z" fill="#FCB01A"/>
<path d="M627.337 551.61H561.608C581.583 441.129 584.53 331.385 572.097 220.905H618.322L627.337 551.61Z" fill="white"/>
<path d="M629.463 553.679H559.132L559.572 551.242C569.415 496.803 575.257 441.273 576.937 386.194C578.59 332.02 576.27 276.486 570.041 221.136L569.782 218.836H620.335L629.463 553.679ZM564.082 549.541H625.211L616.308 222.974H574.409C580.467 277.757 582.709 332.7 581.073 386.32C579.412 440.78 573.696 495.683 564.082 549.541Z" fill="#FCB01A"/>
<path d="M634.527 220.905C623.39 331.14 626.395 441.375 643.542 551.61H581.496C598.643 441.375 601.648 331.14 590.511 220.905H634.527Z" fill="white"/>
<path d="M645.957 553.679H579.08L579.452 551.292C587.971 496.518 593.048 440.974 594.541 386.201C596.034 331.429 593.986 275.885 588.453 221.113L588.223 218.836H636.815L636.585 221.113C631.051 275.885 629.003 331.429 630.496 386.201C631.989 440.974 637.066 496.518 645.586 551.292L645.957 553.679ZM583.909 549.541H641.128C632.804 495.368 627.836 440.466 626.36 386.314C624.882 332.124 626.861 277.184 632.24 222.974H592.797C598.177 277.184 600.155 332.124 598.677 386.314C597.201 440.466 592.234 495.368 583.909 549.541Z" fill="#FCB01A"/>
<path d="M632.405 243.141H612.519V247.279H632.405V243.141Z" fill="#FCB01A"/>
<path d="M614.729 267.447H606.627V271.585H614.729V267.447Z" fill="#FCB01A"/>
<path d="M628.723 299.118H609.573V303.256H628.723V299.118Z" fill="#FCB01A"/>
<path d="M607.363 330.79H597.788V334.927H607.363V330.79Z" fill="#FCB01A"/>
<path d="M627.25 359.514H609.573V363.652H627.25V359.514Z" fill="#FCB01A"/>
<path d="M585.267 253.453H576.429V257.591H585.267V253.453Z" fill="#FCB01A"/>
<path d="M594.105 281.441H584.53V285.579H594.105V281.441Z" fill="#FCB01A"/>
<path d="M615.463 422.856H597.05V426.994H615.463V422.856Z" fill="#FCB01A"/>
<path d="M618.41 392.659H607.362V396.797H618.41V392.659Z" fill="#FCB01A"/>
<path d="M627.985 405.916H619.883V410.054H627.985V405.916Z" fill="#FCB01A"/>
<path d="M590.423 368.353H580.111V372.49H590.423V368.353Z" fill="#FCB01A"/>
<path d="M596.314 399.287H583.793V403.425H596.314V399.287Z" fill="#FCB01A"/>
<path d="M631.669 448.635H611.046V452.773H631.669V448.635Z" fill="#FCB01A"/>
<path d="M610.309 469.995H590.422V474.133H610.309V469.995Z" fill="#FCB01A"/>
<path d="M584.529 456.737H574.218V460.875H584.529V456.737Z" fill="#FCB01A"/>
<path d="M636.824 509.031H605.89V513.169H636.824V509.031Z" fill="#FCB01A"/>
<path d="M627.985 322.688H615.464V326.825H627.985V322.688Z" fill="#FCB01A"/>
<path d="M578.638 523.025H566.854V527.163H578.638V523.025Z" fill="#FCB01A"/>
<path d="M617.674 489.145H607.362V493.283H617.674V489.145Z" fill="#FCB01A"/>
<path d="M227.878 404.423V396.229H191.822V404.423H176.405V550.297H243.295V404.423H227.878Z" fill="white"/>
<path d="M245.364 552.366H174.336V402.354H189.753V394.161H229.946V402.354H245.364V552.366ZM178.474 548.228H241.226V406.492H225.809V398.299H193.891V406.492H178.474V548.228Z" fill="#FCB01A"/>
<path d="M199.159 421.281H191.821V429.19H199.159V421.281Z" fill="white"/>
<path d="M199.16 421.281H191.821V429.19H199.16V421.281Z" fill="#FCB01A"/>
<path d="M213.519 421.281H206.181V429.19H213.519V421.281Z" fill="white"/>
<path d="M213.519 421.281H206.181V429.19H213.519V421.281Z" fill="#FCB01A"/>
<path d="M227.876 421.281H220.538V429.19H227.876V421.281Z" fill="white"/>
<path d="M227.877 421.281H220.538V429.19H227.877V421.281Z" fill="#FCB01A"/>
<path d="M199.159 435.777H191.821V443.685H199.159V435.777Z" fill="white"/>
<path d="M199.16 435.777H191.821V443.685H199.16V435.777Z" fill="#FCB01A"/>
<path d="M213.519 435.777H206.181V443.685H213.519V435.777Z" fill="white"/>
<path d="M213.519 435.777H206.181V443.685H213.519V435.777Z" fill="#FCB01A"/>
<path d="M227.876 435.777H220.538V443.685H227.876V435.777Z" fill="white"/>
<path d="M227.877 435.777H220.538V443.685H227.877V435.777Z" fill="#FCB01A"/>
<path d="M199.159 450.272H191.821V458.181H199.159V450.272Z" fill="white"/>
<path d="M199.16 450.272H191.821V458.18H199.16V450.272Z" fill="#FCB01A"/>
<path d="M213.519 450.272H206.181V458.181H213.519V450.272Z" fill="white"/>
<path d="M213.519 450.272H206.181V458.18H213.519V450.272Z" fill="#FCB01A"/>
<path d="M227.876 450.272H220.538V458.181H227.876V450.272Z" fill="white"/>
<path d="M227.877 450.272H220.538V458.18H227.877V450.272Z" fill="#FCB01A"/>
<path d="M199.159 464.767H191.821V472.676H199.159V464.767Z" fill="white"/>
<path d="M199.16 464.767H191.821V472.676H199.16V464.767Z" fill="#FCB01A"/>
<path d="M213.519 464.767H206.181V472.676H213.519V464.767Z" fill="white"/>
<path d="M213.519 464.767H206.181V472.676H213.519V464.767Z" fill="#FCB01A"/>
<path d="M227.876 464.767H220.538V472.676H227.876V464.767Z" fill="white"/>
<path d="M227.877 464.767H220.538V472.676H227.877V464.767Z" fill="#FCB01A"/>
<path d="M199.159 479.263H191.821V487.172H199.159V479.263Z" fill="white"/>
<path d="M199.16 479.263H191.821V487.172H199.16V479.263Z" fill="#FCB01A"/>
<path d="M213.519 479.263H206.181V487.172H213.519V479.263Z" fill="white"/>
<path d="M213.519 479.263H206.181V487.172H213.519V479.263Z" fill="#FCB01A"/>
<path d="M227.876 479.263H220.538V487.172H227.876V479.263Z" fill="white"/>
<path d="M227.877 479.263H220.538V487.172H227.877V479.263Z" fill="#FCB01A"/>
<path d="M199.159 493.758H191.821V501.667H199.159V493.758Z" fill="white"/>
<path d="M199.16 493.758H191.821V501.667H199.16V493.758Z" fill="#FCB01A"/>
<path d="M213.519 493.759H206.181V501.667H213.519V493.759Z" fill="white"/>
<path d="M213.519 493.759H206.181V501.667H213.519V493.759Z" fill="#FCB01A"/>
<path d="M227.876 493.759H220.538V501.667H227.876V493.759Z" fill="white"/>
<path d="M227.877 493.759H220.538V501.667H227.877V493.759Z" fill="#FCB01A"/>
<path d="M811.187 321.004V312.066H850.518V321.004H867.335V480.129H794.369V321.004H811.187Z" fill="white"/>
<path d="M869.591 482.386H792.111V318.747H808.929V309.81H852.774V318.747H869.591L869.591 482.386ZM796.625 477.872H865.077V323.261H848.26V314.324H813.443V323.261H796.625L796.625 477.872Z" fill="#FCB01A"/>
<path d="M842.512 348.021H850.517V339.394H842.512V348.021Z" fill="white"/>
<path d="M850.517 339.394H842.512V348.021H850.517V339.394Z" fill="#FCB01A"/>
<path d="M826.848 348.021H834.853V339.394H826.848V348.021Z" fill="white"/>
<path d="M834.852 339.394H826.848V348.021H834.852V339.394Z" fill="#FCB01A"/>
<path d="M811.186 348.021H819.19V339.394H811.186V348.021Z" fill="white"/>
<path d="M819.191 339.394H811.186V348.021H819.191V339.394Z" fill="#FCB01A"/>
<path d="M842.512 363.833H850.517V355.205H842.512V363.833Z" fill="white"/>
<path d="M850.517 355.206H842.512V363.833H850.517V355.206Z" fill="#FCB01A"/>
<path d="M826.848 363.833H834.853V355.206H826.848V363.833Z" fill="white"/>
<path d="M834.852 355.206H826.848V363.833H834.852V355.206Z" fill="#FCB01A"/>
<path d="M811.186 363.833H819.19V355.205H811.186V363.833Z" fill="white"/>
<path d="M819.191 355.206H811.186V363.833H819.191V355.206Z" fill="#FCB01A"/>
<path d="M842.512 379.645H850.517V371.018H842.512V379.645Z" fill="white"/>
<path d="M850.517 371.018H842.512V379.645H850.517V371.018Z" fill="#FCB01A"/>
<path d="M826.848 379.645H834.853V371.018H826.848V379.645Z" fill="white"/>
<path d="M834.852 371.018H826.848V379.645H834.852V371.018Z" fill="#FCB01A"/>
<path d="M811.186 379.645H819.19V371.018H811.186V379.645Z" fill="white"/>
<path d="M819.191 371.018H811.186V379.645H819.191V371.018Z" fill="#FCB01A"/>
<path d="M842.512 395.457H850.517V386.83H842.512V395.457Z" fill="white"/>
<path d="M850.517 386.83H842.512V395.458H850.517V386.83Z" fill="#FCB01A"/>
<path d="M826.848 395.458H834.853V386.83H826.848V395.458Z" fill="white"/>
<path d="M834.852 386.83H826.848V395.458H834.852V386.83Z" fill="#FCB01A"/>
<path d="M811.186 395.457H819.19V386.83H811.186V395.457Z" fill="white"/>
<path d="M819.191 386.83H811.186V395.458H819.191V386.83Z" fill="#FCB01A"/>
<path d="M842.512 411.27H850.517V402.642H842.512V411.27Z" fill="white"/>
<path d="M850.517 402.642H842.512V411.269H850.517V402.642Z" fill="#FCB01A"/>
<path d="M826.848 411.27H834.853V402.642H826.848V411.27Z" fill="white"/>
<path d="M834.852 402.642H826.848V411.27H834.852V402.642Z" fill="#FCB01A"/>
<path d="M811.186 411.27H819.19V402.642H811.186V411.27Z" fill="white"/>
<path d="M819.191 402.642H811.186V411.269H819.191V402.642Z" fill="#FCB01A"/>
<path d="M842.512 427.082H850.517V418.455H842.512V427.082Z" fill="white"/>
<path d="M850.517 418.455H842.512V427.082H850.517V418.455Z" fill="#FCB01A"/>
<path d="M826.848 427.082H834.853V418.455H826.848V427.082Z" fill="white"/>
<path d="M834.852 418.455H826.848V427.082H834.852V418.455Z" fill="#FCB01A"/>
<path d="M811.186 427.082H819.19V418.455H811.186V427.082Z" fill="white"/>
<path d="M819.191 418.455H811.186V427.082H819.191V418.455Z" fill="#FCB01A"/>
<path d="M877.882 168.813H873.611V196.57H877.882V168.813Z" fill="#FCB01A"/>
<path d="M886.067 195.859H865.427V214.364H886.067V195.859Z" fill="white"/>
<path d="M888.202 214.364H883.932V197.994H867.563V214.364H863.292V193.723H888.202V214.364Z" fill="#FCB01A"/>
<path d="M923.624 241.048H898.604V215.147H892.908H858.09H853.193V241.048H827.952V554.192H923.624V241.048Z" fill="white"/>
<path d="M925.759 556.327H825.817V238.913H851.057V213.012H900.74V238.913H925.759V556.327ZM830.088 552.056H921.489V243.183H896.47V217.282H855.328V243.183H830.088V552.056Z" fill="#FCB01A"/>
<path d="M866.138 254.932H861.868V502.145H866.138V254.932Z" fill="#FCB01A"/>
<path d="M879.148 254.932H874.878V502.145H879.148V254.932Z" fill="#FCB01A"/>
<path d="M892.159 254.932H887.889V502.145H892.159V254.932Z" fill="#FCB01A"/>
<path d="M916.673 256.355H905.997V260.626H916.673V256.355Z" fill="#FCB01A"/>
<path d="M916.673 269.167H905.997V273.437H916.673V269.167Z" fill="#FCB01A"/>
<path d="M916.673 281.978H905.997V286.248H916.673V281.978Z" fill="#FCB01A"/>
<path d="M916.673 294.789H905.997V299.059H916.673V294.789Z" fill="#FCB01A"/>
<path d="M916.673 307.601H905.997V311.871H916.673V307.601Z" fill="#FCB01A"/>
<path d="M916.673 320.411H905.997V324.682H916.673V320.411Z" fill="#FCB01A"/>
<path d="M916.673 333.222H905.997V337.493H916.673V333.222Z" fill="#FCB01A"/>
<path d="M916.673 346.033H905.997V350.304H916.673V346.033Z" fill="#FCB01A"/>
<path d="M916.673 358.844H905.997V363.115H916.673V358.844Z" fill="#FCB01A"/>
<path d="M916.673 371.656H905.997V375.926H916.673V371.656Z" fill="#FCB01A"/>
<path d="M916.673 384.467H905.997V388.738H916.673V384.467Z" fill="#FCB01A"/>
<path d="M916.673 397.278H905.997V401.548H916.673V397.278Z" fill="#FCB01A"/>
<path d="M916.673 410.089H905.997V414.359H916.673V410.089Z" fill="#FCB01A"/>
<path d="M845.5 256.355H834.824V260.626H845.5V256.355Z" fill="#FCB01A"/>
<path d="M845.5 269.167H834.824V273.437H845.5V269.167Z" fill="#FCB01A"/>
<path d="M845.5 281.978H834.824V286.248H845.5V281.978Z" fill="#FCB01A"/>
<path d="M845.5 294.789H834.824V299.059H845.5V294.789Z" fill="#FCB01A"/>
<path d="M845.5 307.601H834.824V311.871H845.5V307.601Z" fill="#FCB01A"/>
<path d="M845.5 320.411H834.824V324.682H845.5V320.411Z" fill="#FCB01A"/>
<path d="M845.5 333.222H834.824V337.493H845.5V333.222Z" fill="#FCB01A"/>
<path d="M845.5 346.033H834.824V350.304H845.5V346.033Z" fill="#FCB01A"/>
<path d="M845.5 358.844H834.824V363.115H845.5V358.844Z" fill="#FCB01A"/>
<path d="M845.5 371.656H834.824V375.926H845.5V371.656Z" fill="#FCB01A"/>
<path d="M845.5 384.467H834.824V388.738H845.5V384.467Z" fill="#FCB01A"/>
<path d="M845.5 397.278H834.824V401.548H845.5V397.278Z" fill="#FCB01A"/>
<path d="M845.5 410.089H834.824V414.359H845.5V410.089Z" fill="#FCB01A"/>
<path d="M890.337 227.175H861.868V231.445H890.337V227.175Z" fill="#FCB01A"/>
<path d="M402.415 380.723V363.763H387.615V352.969H370.146V363.763H355.347V380.723H348.243V552.948H409.519V380.723H402.415Z" fill="white"/>
<path d="M411.587 555.017H346.174V378.654H353.278V361.694H368.077V350.9H389.684V361.694H404.483V378.654H411.587V555.017ZM350.312 550.879H407.449V382.792H400.346V365.832H385.547V355.038H372.215V365.832H357.415V382.792H350.312V550.879Z" fill="#FCB01A"/>
<path d="M366.947 388.472H360.058V396.007H366.947V388.472Z" fill="white"/>
<path d="M366.946 388.472H360.058V396.007H366.946V388.472Z" fill="#FCB01A"/>
<path d="M382.281 388.472H375.392V396.007H382.281V388.472Z" fill="white"/>
<path d="M382.28 388.472H375.392V396.007H382.28V388.472Z" fill="#FCB01A"/>
<path d="M397.617 388.472H390.728V396.007H397.617V388.472Z" fill="white"/>
<path d="M397.617 388.472H390.728V396.007H397.617V388.472Z" fill="#FCB01A"/>
<path d="M366.947 402.214H360.058V409.749H366.947V402.214Z" fill="white"/>
<path d="M366.946 402.214H360.058V409.749H366.946V402.214Z" fill="#FCB01A"/>
<path d="M382.281 402.214H375.392V409.749H382.281V402.214Z" fill="white"/>
<path d="M382.28 402.214H375.392V409.749H382.28V402.214Z" fill="#FCB01A"/>
<path d="M397.617 402.214H390.728V409.749H397.617V402.214Z" fill="white"/>
<path d="M397.617 402.214H390.728V409.749H397.617V402.214Z" fill="#FCB01A"/>
<path d="M366.947 415.956H360.058V423.491H366.947V415.956Z" fill="white"/>
<path d="M366.946 415.956H360.058V423.491H366.946V415.956Z" fill="#FCB01A"/>
<path d="M382.281 415.956H375.392V423.491H382.281V415.956Z" fill="white"/>
<path d="M382.28 415.956H375.392V423.491H382.28V415.956Z" fill="#FCB01A"/>
<path d="M397.617 415.956H390.728V423.491H397.617V415.956Z" fill="white"/>
<path d="M397.617 415.956H390.728V423.491H397.617V415.956Z" fill="#FCB01A"/>
<path d="M366.947 429.698H360.058V437.233H366.947V429.698Z" fill="white"/>
<path d="M366.946 429.698H360.058V437.233H366.946V429.698Z" fill="#FCB01A"/>
<path d="M382.281 429.698H375.392V437.233H382.281V429.698Z" fill="white"/>
<path d="M382.28 429.698H375.392V437.233H382.28V429.698Z" fill="#FCB01A"/>
<path d="M397.617 429.698H390.728V437.233H397.617V429.698Z" fill="white"/>
<path d="M397.617 429.698H390.728V437.233H397.617V429.698Z" fill="#FCB01A"/>
<path d="M366.947 443.439H360.058V450.974H366.947V443.439Z" fill="white"/>
<path d="M366.946 443.439H360.058V450.974H366.946V443.439Z" fill="#FCB01A"/>
<path d="M382.281 443.439H375.392V450.975H382.281V443.439Z" fill="white"/>
<path d="M382.28 443.439H375.392V450.975H382.28V443.439Z" fill="#FCB01A"/>
<path d="M397.617 443.439H390.728V450.975H397.617V443.439Z" fill="white"/>
<path d="M397.617 443.439H390.728V450.975H397.617V443.439Z" fill="#FCB01A"/>
<path d="M366.947 457.181H360.058V464.716H366.947V457.181Z" fill="white"/>
<path d="M366.946 457.181H360.058V464.716H366.946V457.181Z" fill="#FCB01A"/>
<path d="M382.281 457.181H375.392V464.716H382.281V457.181Z" fill="white"/>
<path d="M382.28 457.181H375.392V464.716H382.28V457.181Z" fill="#FCB01A"/>
<path d="M397.617 457.181H390.728V464.716H397.617V457.181Z" fill="white"/>
<path d="M397.617 457.181H390.728V464.716H397.617V457.181Z" fill="#FCB01A"/>
<path d="M366.947 470.923H360.058V478.458H366.947V470.923Z" fill="white"/>
<path d="M366.946 470.923H360.058V478.458H366.946V470.923Z" fill="#FCB01A"/>
<path d="M382.281 470.923H375.392V478.458H382.281V470.923Z" fill="white"/>
<path d="M382.28 470.923H375.392V478.458H382.28V470.923Z" fill="#FCB01A"/>
<path d="M397.617 470.923H390.728V478.458H397.617V470.923Z" fill="white"/>
<path d="M397.617 470.923H390.728V478.458H397.617V470.923Z" fill="#FCB01A"/>
<path d="M366.947 484.665H360.058V492.2H366.947V484.665Z" fill="white"/>
<path d="M366.946 484.665H360.058V492.2H366.946V484.665Z" fill="#FCB01A"/>
<path d="M382.281 484.665H375.392V492.2H382.281V484.665Z" fill="white"/>
<path d="M382.28 484.665H375.392V492.2H382.28V484.665Z" fill="#FCB01A"/>
<path d="M397.617 484.665H390.728V492.2H397.617V484.665Z" fill="white"/>
<path d="M397.617 484.665H390.728V492.2H397.617V484.665Z" fill="#FCB01A"/>
<path d="M366.947 498.406H360.058V505.942H366.947V498.406Z" fill="white"/>
<path d="M366.946 498.406H360.058V505.942H366.946V498.406Z" fill="#FCB01A"/>
<path d="M382.281 498.406H375.392V505.942H382.281V498.406Z" fill="white"/>
<path d="M382.28 498.406H375.392V505.942H382.28V498.406Z" fill="#FCB01A"/>
<path d="M397.617 498.406H390.728V505.942H397.617V498.406Z" fill="white"/>
<path d="M397.617 498.406H390.728V505.942H397.617V498.406Z" fill="#FCB01A"/>
<path d="M366.947 512.148H360.058V519.684H366.947V512.148Z" fill="white"/>
<path d="M366.946 512.148H360.058V519.684H366.946V512.148Z" fill="#FCB01A"/>
<path d="M382.281 512.148H375.392V519.684H382.281V512.148Z" fill="white"/>
<path d="M382.28 512.148H375.392V519.684H382.28V512.148Z" fill="#FCB01A"/>
<path d="M397.617 512.148H390.728V519.684H397.617V512.148Z" fill="white"/>
<path d="M397.617 512.148H390.728V519.684H397.617V512.148Z" fill="#FCB01A"/>
<path d="M539.001 378.597V356.649H534.508V347.459H531.182V344.77H524.037V347.459H521.69V344.77H514.546V347.459H512.832V344.77H505.295V347.459H502.354V356.649H491.066V347.459H482.38V327.775H479.526V347.459H472.748V327.775H469.892V347.459H458.912V356.649H453.242V378.597H437.438V551.3H553.364V378.597H539.001Z" fill="white"/>
<path d="M555.328 553.264H435.475V376.633H451.278V354.686H456.948V345.495H467.928V325.812H474.711V345.495H477.562V325.812H484.343V345.495H493.029V354.686H500.391V345.495H503.331V342.807H533.145V345.495H536.472V354.686H540.965V376.633H555.328V553.264ZM439.402 549.337H551.401V380.561H537.038V358.613H532.545V349.422H529.218V346.734H526V349.422H519.727V346.734H516.509V349.422H510.869V346.734H507.258V349.422H504.318V358.613H489.102V349.422H460.875V358.613H455.205V380.561H439.402V549.337Z" fill="#FCB01A"/>
<path d="M492.719 397.937H453.346V404.1H492.719V397.937Z" fill="white"/>
<path d="M492.719 397.937H453.346V404.1H492.719V397.937Z" fill="#FCB01A"/>
<path d="M538.645 397.937H499.245V404.1H538.645V397.937Z" fill="white"/>
<path d="M538.645 397.937H499.245V404.1H538.645V397.937Z" fill="#FCB01A"/>
<path d="M492.719 414.152H453.346V420.315H492.719V414.152Z" fill="white"/>
<path d="M492.719 414.152H453.346V420.315H492.719V414.152Z" fill="#FCB01A"/>
<path d="M538.645 414.152H499.245V420.315H538.645V414.152Z" fill="white"/>
<path d="M538.645 414.152H499.245V420.316H538.645V414.152Z" fill="#FCB01A"/>
<path d="M492.719 430.338H453.346V436.531H492.719V430.338Z" fill="white"/>
<path d="M492.719 430.339H453.346V436.531H492.719V430.339Z" fill="#FCB01A"/>
<path d="M538.645 430.339H499.245V436.531H538.645V430.339Z" fill="white"/>
<path d="M538.645 430.339H499.245V436.531H538.645V430.339Z" fill="#FCB01A"/>
<path d="M492.719 446.554H453.346V452.717H492.719V446.554Z" fill="white"/>
<path d="M492.719 446.554H453.346V452.717H492.719V446.554Z" fill="#FCB01A"/>
<path d="M538.645 446.554H499.245V452.717H538.645V446.554Z" fill="white"/>
<path d="M538.645 446.554H499.245V452.717H538.645V446.554Z" fill="#FCB01A"/>
<path d="M492.719 462.769H453.346V468.932H492.719V462.769Z" fill="white"/>
<path d="M492.719 462.769H453.346V468.933H492.719V462.769Z" fill="#FCB01A"/>
<path d="M538.645 462.769H499.245V468.932H538.645V462.769Z" fill="white"/>
<path d="M538.645 462.769H499.245V468.933H538.645V462.769Z" fill="#FCB01A"/>
<path d="M492.719 478.984H453.346V485.148H492.719V478.984Z" fill="white"/>
<path d="M492.719 478.984H453.346V485.148H492.719V478.984Z" fill="#FCB01A"/>
<path d="M538.645 478.984H499.245V485.148H538.645V478.984Z" fill="white"/>
<path d="M538.645 478.984H499.245V485.148H538.645V478.984Z" fill="#FCB01A"/>
<path d="M492.719 495.17H453.346V501.363H492.719V495.17Z" fill="white"/>
<path d="M492.719 495.17H453.346V501.363H492.719V495.17Z" fill="#FCB01A"/>
<path d="M538.645 495.17H499.245V501.363H538.645V495.17Z" fill="white"/>
<path d="M538.645 495.17H499.245V501.363H538.645V495.17Z" fill="#FCB01A"/>
<path d="M457.989 437.828H395.931V449.649H399.871V552.095H455.034V449.649H457.989V437.828Z" fill="white"/>
<path d="M456.997 554.059H397.907V451.613H393.967V435.865H459.952V451.613H456.997V554.059ZM401.834 550.132H453.07V447.685H456.025V439.792H397.894V447.685H401.834V550.132Z" fill="#FCB01A"/>
<path d="M418.195 455.45H411.568V462.077H418.195V455.45Z" fill="white"/>
<path d="M418.194 455.45H411.568V462.076H418.194V455.45Z" fill="#FCB01A"/>
<path d="M431.159 455.45H424.533V462.077H431.159V455.45Z" fill="white"/>
<path d="M431.159 455.45H424.533V462.076H431.159V455.45Z" fill="#FCB01A"/>
<path d="M444.123 455.45H437.497V462.077H444.123V455.45Z" fill="white"/>
<path d="M444.123 455.45H437.497V462.076H444.123V455.45Z" fill="#FCB01A"/>
<path d="M418.195 467.594H411.568V474.221H418.195V467.594Z" fill="white"/>
<path d="M418.194 467.594H411.568V474.221H418.194V467.594Z" fill="#FCB01A"/>
<path d="M431.159 467.594H424.533V474.221H431.159V467.594Z" fill="white"/>
<path d="M431.159 467.594H424.533V474.221H431.159V467.594Z" fill="#FCB01A"/>
<path d="M444.123 467.594H437.497V474.221H444.123V467.594Z" fill="white"/>
<path d="M444.123 467.594H437.497V474.221H444.123V467.594Z" fill="#FCB01A"/>
<path d="M418.195 479.739H411.568V486.365H418.195V479.739Z" fill="white"/>
<path d="M418.194 479.739H411.568V486.365H418.194V479.739Z" fill="#FCB01A"/>
<path d="M431.159 479.739H424.533V486.365H431.159V479.739Z" fill="white"/>
<path d="M431.159 479.739H424.533V486.365H431.159V479.739Z" fill="#FCB01A"/>
<path d="M444.123 479.739H437.497V486.365H444.123V479.739Z" fill="white"/>
<path d="M444.123 479.739H437.497V486.365H444.123V479.739Z" fill="#FCB01A"/>
<path d="M418.195 491.884H411.568V498.51H418.195V491.884Z" fill="white"/>
<path d="M418.194 491.884H411.568V498.51H418.194V491.884Z" fill="#FCB01A"/>
<path d="M431.159 491.884H424.533V498.51H431.159V491.884Z" fill="white"/>
<path d="M431.159 491.884H424.533V498.51H431.159V491.884Z" fill="#FCB01A"/>
<path d="M444.123 491.884H437.497V498.51H444.123V491.884Z" fill="white"/>
<path d="M444.123 491.884H437.497V498.51H444.123V491.884Z" fill="#FCB01A"/>
<path d="M418.195 504.028H411.568V510.654H418.195V504.028Z" fill="white"/>
<path d="M418.194 504.028H411.568V510.654H418.194V504.028Z" fill="#FCB01A"/>
<path d="M431.159 504.028H424.533V510.654H431.159V504.028Z" fill="white"/>
<path d="M431.159 504.028H424.533V510.654H431.159V504.028Z" fill="#FCB01A"/>
<path d="M444.123 504.028H437.497V510.654H444.123V504.028Z" fill="white"/>
<path d="M444.123 504.028H437.497V510.654H444.123V504.028Z" fill="#FCB01A"/>
<path d="M418.195 516.172H411.568V522.799H418.195V516.172Z" fill="white"/>
<path d="M418.194 516.172H411.568V522.799H418.194V516.172Z" fill="#FCB01A"/>
<path d="M431.159 516.172H424.533V522.799H431.159V516.172Z" fill="white"/>
<path d="M431.159 516.172H424.533V522.799H431.159V516.172Z" fill="#FCB01A"/>
<path d="M444.123 516.172H437.497V522.799H444.123V516.172Z" fill="white"/>
<path d="M444.123 516.172H437.497V522.799H444.123V516.172Z" fill="#FCB01A"/>
<path d="M780.043 520.811V239.435L757.401 185.749L734.606 239.435V520.811H780.043Z" fill="white"/>
<path d="M782.111 522.88H732.537V239.014L757.407 180.441L782.111 239.017V522.88ZM736.675 518.742H777.974V239.854L757.394 191.058L736.675 239.856V518.742Z" fill="#FCB01A"/>
<path d="M759.236 243.24H755.099V521.566H759.236V243.24Z" fill="#FCB01A"/>
<path d="M734.604 239.435L749.097 228.731L757.399 243.826L765.701 228.731L780.041 239.435H734.604Z" fill="white"/>
<path d="M757.399 248.119L748.423 231.8L735.833 241.099L733.375 237.771L749.77 225.662L757.399 239.533L765.033 225.651L781.278 237.777L778.803 241.093L766.368 231.811L757.399 248.119Z" fill="#FCB01A"/>
<path d="M743.802 218.165L752.871 210.617L757.4 220.429L761.928 210.617L771.74 218.919L743.802 218.165Z" fill="white"/>
<path d="M757.399 225.366L752.121 213.932L745.124 219.755L742.478 216.574L753.619 207.303L757.399 215.492L761.188 207.282L773.075 217.34L770.402 220.498L762.666 213.953L757.399 225.366Z" fill="#FCB01A"/>
<path d="M735.574 242.316L757.399 249.863L778.531 242.316H735.574Z" fill="white"/>
<path d="M757.41 252.056L734.898 244.271L736.251 240.361L757.388 247.67L777.836 240.368L779.228 244.265L757.41 252.056Z" fill="#FCB01A"/>
<path d="M735.574 252.883L757.399 260.43L778.531 252.883H735.574Z" fill="white"/>
<path d="M757.41 262.623L734.898 254.838L736.251 250.927L757.388 258.237L777.836 250.934L779.228 254.831L757.41 262.623Z" fill="#FCB01A"/>
<path d="M747.589 302.89H736.268V307.028H747.589V302.89Z" fill="#FCB01A"/>
<path d="M747.589 316.475H736.268V320.613H747.589V316.475Z" fill="#FCB01A"/>
<path d="M747.589 330.06H736.268V334.198H747.589V330.06Z" fill="#FCB01A"/>
<path d="M747.589 343.645H736.268V347.783H747.589V343.645Z" fill="#FCB01A"/>
<path d="M747.589 357.23H736.268V361.368H747.589V357.23Z" fill="#FCB01A"/>
<path d="M747.589 370.815H736.268V374.953H747.589V370.815Z" fill="#FCB01A"/>
<path d="M747.589 384.4H736.268V388.538H747.589V384.4Z" fill="#FCB01A"/>
<path d="M747.589 397.985H736.268V402.123H747.589V397.985Z" fill="#FCB01A"/>
<path d="M747.589 411.571H736.268V415.708H747.589V411.571Z" fill="#FCB01A"/>
<path d="M747.589 425.156H736.268V429.294H747.589V425.156Z" fill="#FCB01A"/>
<path d="M747.589 438.741H736.268V442.879H747.589V438.741Z" fill="#FCB01A"/>
<path d="M747.589 452.326H736.268V456.464H747.589V452.326Z" fill="#FCB01A"/>
<path d="M778.532 291.569H767.211V295.707H778.532V291.569Z" fill="#FCB01A"/>
<path d="M778.532 305.154H767.211V309.291H778.532V305.154Z" fill="#FCB01A"/>
<path d="M778.532 318.739H767.211V322.877H778.532V318.739Z" fill="#FCB01A"/>
<path d="M778.532 332.324H767.211V336.462H778.532V332.324Z" fill="#FCB01A"/>
<path d="M778.532 345.909H767.211V350.047H778.532V345.909Z" fill="#FCB01A"/>
<path d="M778.532 359.494H767.211V363.632H778.532V359.494Z" fill="#FCB01A"/>
<path d="M778.532 373.08H767.211V377.218H778.532V373.08Z" fill="#FCB01A"/>
<path d="M778.532 386.665H767.211V390.802H778.532V386.665Z" fill="#FCB01A"/>
<path d="M778.532 400.25H767.211V404.388H778.532V400.25Z" fill="#FCB01A"/>
<path d="M778.532 413.834H767.211V417.972H778.532V413.834Z" fill="#FCB01A"/>
<path d="M778.532 427.42H767.211V431.558H778.532V427.42Z" fill="#FCB01A"/>
<path d="M778.532 441.005H767.211V445.143H778.532V441.005Z" fill="#FCB01A"/>
<path d="M722.625 338.181H708.369V320.394H698.931V302.317L682.423 254.378L665.962 302.317V320.394H657.281V338.181H642.816V534.036H722.625V338.181Z" fill="white"/>
<path d="M724.694 536.105H640.747V336.111H655.212V318.325H663.893V301.971L664.005 301.645L682.42 248.015L700.999 301.971V318.325H710.438V336.111H724.694L724.694 536.105ZM644.885 531.967H720.556V340.249H706.3V322.464H696.862V302.663L682.426 260.74L668.031 302.662V322.464H659.35V340.249H644.885V531.967Z" fill="#FCB01A"/>
<path d="M665.581 347.958H661.443V533.965H665.581V347.958Z" fill="#FCB01A"/>
<path d="M678.386 347.958H674.248V533.965H678.386V347.958Z" fill="#FCB01A"/>
<path d="M691.19 347.958H687.053V533.965H691.19V347.958Z" fill="#FCB01A"/>
<path d="M703.996 347.958H699.858V533.965H703.996V347.958Z" fill="#FCB01A"/>
<path d="M681.425 413.455V398.095H664.87V392.086H661.19V398.095H645.71V413.455H622.518V398.095H605.513V392.086H601.833V398.095H586.074V413.455H565.352V550.981L703.015 551.3V413.455H681.425Z" fill="white"/>
<path d="M704.978 553.269L563.388 552.94V411.491H584.111V396.132H599.869V390.122H607.476V396.132H624.482V411.491H643.747V396.132H659.226V390.122H666.833V396.132H683.388V411.491H704.978V553.269ZM567.315 549.022L701.051 549.332V415.418H679.461V400.059H647.674V415.418H620.555V400.059H588.038V415.418H567.315V549.022Z" fill="#FCB01A"/>
<path d="M598.691 434.072H586.532V443.472H598.691V434.072Z" fill="white"/>
<path d="M600.654 445.436H584.568V432.108H600.654V445.436ZM588.496 441.508H596.727V436.035H588.496V441.508Z" fill="#FCB01A"/>
<path d="M622.48 434.072H610.321V443.472H622.48V434.072Z" fill="white"/>
<path d="M624.443 445.436H608.357V432.108H624.443V445.436ZM612.285 441.508H620.516V436.035H612.285V441.508Z" fill="#FCB01A"/>
<path d="M598.691 451.301H586.532V460.701H598.691V451.301Z" fill="white"/>
<path d="M600.654 462.664H584.568V449.336H600.654V462.664ZM588.496 458.737H596.727V453.264H588.496V458.737Z" fill="#FCB01A"/>
<path d="M622.48 451.301H610.321V460.701H622.48V451.301Z" fill="white"/>
<path d="M624.443 462.664H608.357V449.336H624.443V462.664ZM612.285 458.737H620.516V453.264H612.285V458.737Z" fill="#FCB01A"/>
<path d="M598.691 468.53H586.532V477.93H598.691V468.53Z" fill="white"/>
<path d="M600.654 479.893H584.568V466.566H600.654V479.893ZM588.496 475.966H596.727V470.493H588.496V475.966Z" fill="#FCB01A"/>
<path d="M622.48 468.53H610.321V477.93H622.48V468.53Z" fill="white"/>
<path d="M624.443 479.893H608.357V466.566H624.443V479.893ZM612.285 475.966H620.516V470.493H612.285V475.966Z" fill="#FCB01A"/>
<path d="M598.691 485.758H586.532V495.159H598.691V485.758Z" fill="white"/>
<path d="M600.654 497.122H584.568V483.794H600.654V497.122ZM588.496 493.195H596.727V487.722H588.496V493.195Z" fill="#FCB01A"/>
<path d="M622.48 485.758H610.321V495.158H622.48V485.758Z" fill="white"/>
<path d="M624.443 497.122H608.357V483.794H624.443V497.122ZM612.285 493.195H620.516V487.722H612.285V493.195Z" fill="#FCB01A"/>
<path d="M657.87 434.072H645.712V443.472H657.87V434.072Z" fill="white"/>
<path d="M659.833 445.436H643.748V432.108H659.833V445.436ZM647.675 441.508H655.906V436.035H647.675V441.508Z" fill="#FCB01A"/>
<path d="M681.658 434.072H669.5V443.472H681.658V434.072Z" fill="white"/>
<path d="M683.621 445.436H667.536V432.108H683.621V445.436ZM671.463 441.508H679.694V436.035H671.463V441.508Z" fill="#FCB01A"/>
<path d="M657.87 451.301H645.712V460.701H657.87V451.301Z" fill="white"/>
<path d="M659.833 462.664H643.748V449.336H659.833V462.664ZM647.675 458.737H655.906V453.264H647.675V458.737Z" fill="#FCB01A"/>
<path d="M681.658 451.3H669.5V460.7H681.658V451.3Z" fill="white"/>
<path d="M683.621 462.664H667.536V449.336H683.621V462.664ZM671.463 458.737H679.694V453.264H671.463V458.737Z" fill="#FCB01A"/>
<path d="M657.87 468.53H645.712V477.93H657.87V468.53Z" fill="white"/>
<path d="M659.833 479.893H643.748V466.566H659.833V479.893ZM647.675 475.966H655.906V470.493H647.675V475.966Z" fill="#FCB01A"/>
<path d="M681.658 468.53H669.5V477.93H681.658V468.53Z" fill="white"/>
<path d="M683.621 479.893H667.536V466.566H683.621V479.893ZM671.463 475.966H679.694V470.493H671.463V475.966Z" fill="#FCB01A"/>
<path d="M657.87 485.758H645.712V495.159H657.87V485.758Z" fill="white"/>
<path d="M659.833 497.122H643.748V483.794H659.833V497.122ZM647.675 493.195H655.906V487.722H647.675V493.195Z" fill="#FCB01A"/>
<path d="M681.658 485.758H669.5V495.158H681.658V485.758Z" fill="white"/>
<path d="M683.621 497.122H667.536V483.794H683.621V497.122ZM671.463 493.195H679.694V487.722H671.463V493.195Z" fill="#FCB01A"/>
<path d="M561.966 501.405V491.112H511.983V501.405H458.097V511.936H466.315V551.303H607.636V511.936H615.853V501.405H561.966Z" fill="white"/>
<path d="M609.705 553.372H464.246V514.005H456.027V499.336H509.914V489.043H564.035V499.336H617.921V514.005H609.704L609.705 553.372ZM468.384 549.234H605.567V509.866H613.783V503.474H559.897V493.181H514.051V503.474H460.165V509.866H468.384V549.234Z" fill="#FCB01A"/>
<path d="M496.119 523.998H483.222V544.359H496.119V523.998Z" fill="white"/>
<path d="M491.981 528.135V540.221H487.36V528.135H491.981ZM496.119 523.998H483.222V544.359H496.119V523.998Z" fill="#FCB01A"/>
<path d="M512.201 523.998H499.314V544.359H512.201V523.998Z" fill="white"/>
<path d="M508.063 528.135V540.221H503.452V528.135H508.063ZM512.201 523.998H499.314V544.359H512.201V523.998Z" fill="#FCB01A"/>
<path d="M575.773 523.997H562.876V544.358H575.773V523.997Z" fill="white"/>
<path d="M571.636 528.135V540.22H567.014V528.135H571.636ZM575.773 523.997H562.876V544.358H575.773V523.997Z" fill="#FCB01A"/>
<path d="M591.856 523.997H578.969V544.358H591.856V523.997Z" fill="white"/>
<path d="M587.718 528.135V540.22H583.106V528.135H587.718ZM591.856 523.997H578.969V544.358H591.856V523.997Z" fill="#FCB01A"/>
<path d="M535.952 523.997H523.203V544.358H535.952V523.997Z" fill="white"/>
<path d="M531.815 528.135V540.22H527.341V528.135H531.815ZM535.952 523.997H523.203V544.358H535.952V523.997Z" fill="#FCB01A"/>
<path d="M551.851 523.997H539.112V544.358H551.851V523.997Z" fill="white"/>
<path d="M547.713 528.135V540.22H543.25V528.135H547.713ZM551.851 523.997H539.112V544.358H551.851V523.997Z" fill="#FCB01A"/>
<path d="M321.952 445.734V435.765H305.146V419.609H303.022V435.765H286.608V445.734H233.067V458.415H237.294V551.3H371.459V458.415H375.493V445.734H321.952Z" fill="white"/>
<path d="M373.422 553.264H235.331V460.379H231.104V443.77H284.644V433.801H301.058V417.645H307.109V433.801H323.916V443.77H377.456V460.379H373.422V553.264ZM239.258 549.337H369.495V456.452H373.529V447.698H319.989V437.729H288.571V447.698H235.031V456.452H239.258V549.337Z" fill="#FCB01A"/>
<path d="M262.604 478.145H250.513V466.053H262.604V478.145ZM254.44 474.218H258.677V469.98H254.44V474.218Z" fill="#FCB01A"/>
<path d="M262.604 493.109H250.513V481.017H262.604V493.109ZM254.44 489.182H258.677V484.945H254.44V489.182Z" fill="#FCB01A"/>
<path d="M262.604 508.074H250.513V495.982H262.604V508.074ZM254.44 504.146H258.677V499.909H254.44V504.146Z" fill="#FCB01A"/>
<path d="M281.692 478.145H269.601V466.053H281.692V478.145ZM273.528 474.218H277.766V469.98H273.528V474.218Z" fill="#FCB01A"/>
<path d="M281.692 493.109H269.601V481.017H281.692V493.109ZM273.528 489.182H277.766V484.945H273.528V489.182Z" fill="#FCB01A"/>
<path d="M281.692 508.074H269.601V495.982H281.692V508.074ZM273.528 504.146H277.766V499.909H273.528V504.146Z" fill="#FCB01A"/>
<path d="M338.96 478.145H326.868V466.053H338.96V478.145ZM330.795 474.218H335.033V469.98H330.795V474.218Z" fill="#FCB01A"/>
<path d="M338.96 493.109H326.868V481.017H338.96V493.109ZM330.795 489.182H335.033V484.945H330.795V489.182Z" fill="#FCB01A"/>
<path d="M338.96 508.074H326.868V495.982H338.96V508.074ZM330.795 504.146H335.033V499.909H330.795V504.146Z" fill="#FCB01A"/>
<path d="M300.783 478.145H288.691V466.053H300.783V478.145ZM292.618 474.218H296.856V469.98H292.618V474.218Z" fill="#FCB01A"/>
<path d="M300.783 493.109H288.691V481.017H300.783V493.109ZM292.618 489.182H296.856V484.945H292.618V489.182Z" fill="#FCB01A"/>
<path d="M300.783 508.074H288.691V495.982H300.783V508.074ZM292.618 504.146H296.856V499.909H292.618V504.146Z" fill="#FCB01A"/>
<path d="M319.871 478.145H307.779V466.053H319.871V478.145ZM311.706 474.218H315.944V469.98H311.706V474.218Z" fill="#FCB01A"/>
<path d="M319.871 493.109H307.779V481.017H319.871V493.109ZM311.706 489.182H315.944V484.945H311.706V489.182Z" fill="#FCB01A"/>
<path d="M319.871 508.074H307.779V495.982H319.871V508.074ZM311.706 504.146H315.944V499.909H311.706V504.146Z" fill="#FCB01A"/>
<path d="M358.049 478.145H345.957V466.053H358.049V478.145ZM349.884 474.218H354.122V469.98H349.884V474.218Z" fill="#FCB01A"/>
<path d="M358.049 493.109H345.957V481.017H358.049V493.109ZM349.884 489.182H354.122V484.945H349.884V489.182Z" fill="#FCB01A"/>
<path d="M358.049 508.074H345.957V495.982H358.049V508.074ZM349.884 504.146H354.122V499.909H349.884V504.146Z" fill="#FCB01A"/>
<path d="M126.808 503.862V493.883H175.266V503.862H227.509V514.071H219.541V552.238H82.5314V514.071H74.5654V503.862H126.808Z" fill="white"/>
<path d="M221.611 554.307H80.4634V516.141H72.4971V501.793H124.74V491.814H177.336V501.793H229.578V516.141H221.611V554.307ZM84.6011 550.169H217.473V512.003H225.441V505.931H173.198V495.952H128.878V505.931H76.635V512.003H84.6014L84.6011 550.169Z" fill="#FCB01A"/>
<path d="M203.151 525.765H190.647V545.505H203.151V525.765Z" fill="white"/>
<path d="M199.014 529.903V541.367H194.786V529.903H199.014ZM203.152 525.765H190.647V545.505H203.152V525.765Z" fill="#FCB01A"/>
<path d="M187.55 525.765H175.056V545.505H187.55V525.765Z" fill="white"/>
<path d="M183.412 529.903V541.367H179.193V529.903H183.412ZM187.55 525.765H175.056V545.505H187.55V525.765Z" fill="#FCB01A"/>
<path d="M125.927 525.765H113.423V545.505H125.927V525.765Z" fill="white"/>
<path d="M121.789 529.903V541.368H117.561V529.903H121.789ZM125.927 525.765H113.423V545.505H125.927V525.765Z" fill="#FCB01A"/>
<path d="M110.324 525.765H97.8301V545.505H110.324V525.765Z" fill="white"/>
<path d="M106.186 529.903V541.368H101.968V529.903H106.186ZM110.324 525.765H97.8301V545.505H110.324V525.765Z" fill="#FCB01A"/>
<path d="M164.388 525.765H152.027V545.505H164.388V525.765Z" fill="white"/>
<path d="M160.25 529.903V541.368H156.165V529.903H160.25ZM164.388 525.765H152.027V545.505H164.388V525.765Z" fill="#FCB01A"/>
<path d="M148.964 525.765H136.614V545.505H148.964V525.765Z" fill="white"/>
<path d="M144.827 529.903V541.368H140.752V529.903H144.827ZM148.964 525.765H136.614V545.505H148.964V525.765Z" fill="#FCB01A"/>
<path d="M76.7424 529.309C76.7489 526.02 74.8122 523.2 72.0266 521.878C69.3595 510.131 52.588 510.018 49.7679 521.735C46.4789 523.182 44.869 526.188 44.8527 529.193C44.8121 536.708 51.8428 541.065 60.5767 541.083C69.7578 541.101 76.7264 537.036 76.7424 529.309Z" fill="white"/>
<path d="M60.6409 543.151C60.6181 543.151 60.5952 543.151 60.5721 543.151C54.6604 543.139 49.6241 541.339 46.3914 538.082C44.0125 535.685 42.765 532.607 42.7834 529.181C42.8037 525.422 44.7849 522.102 48.0189 520.297C50.0294 513.834 55.8123 510.938 60.8813 510.938C60.9101 510.938 60.9385 510.938 60.9673 510.939C66.0626 510.971 71.8696 513.944 73.8004 520.484C76.8809 522.336 78.8185 525.701 78.811 529.313C78.8023 533.7 76.8843 537.329 73.2651 539.807C70.0696 541.995 65.7053 543.151 60.6409 543.151ZM60.88 515.076C57.4603 515.076 53.0494 516.943 51.7794 522.219L51.5392 523.216L50.6006 523.629C48.3102 524.636 46.9348 526.72 46.9214 529.203C46.9086 531.539 47.7184 533.545 49.328 535.166C51.7447 537.601 55.846 539.003 60.5805 539.013C60.6008 539.013 60.6215 539.013 60.6418 539.013C64.8679 539.013 68.4233 538.107 70.9278 536.393C73.4073 534.695 74.6674 532.31 74.6734 529.304C74.6784 526.913 73.3242 524.784 71.1389 523.746L70.2316 523.315L70.0092 522.335C68.8007 517.013 64.3686 515.098 60.9407 515.076C60.9204 515.076 60.9001 515.076 60.88 515.076Z" fill="#FCB01A"/>
<path d="M60.8346 554.165C59.6921 554.165 58.7656 553.239 58.7656 552.096V525.364C58.7656 524.221 59.6918 523.295 60.8346 523.295C61.9775 523.295 62.9036 524.221 62.9036 525.364V552.096C62.9036 553.239 61.9772 554.165 60.8346 554.165Z" fill="#FCB01A"/>
<path d="M60.4184 539.193C60.0657 539.193 59.7083 539.103 59.3816 538.913L52.9755 535.193C51.9875 534.62 51.6517 533.354 52.2254 532.366C52.7992 531.377 54.0652 531.042 55.0535 531.615L61.4596 535.335C62.4477 535.909 62.7835 537.175 62.2097 538.163C61.8254 538.824 61.1316 539.193 60.4184 539.193Z" fill="#FCB01A"/>
<path d="M61.456 535.36C60.8582 535.36 60.2651 535.103 59.8561 534.605C59.1307 533.722 59.2586 532.418 60.1416 531.693L65.9276 526.94C66.8106 526.215 68.1144 526.342 68.8395 527.225C69.5649 528.108 69.4371 529.412 68.5541 530.137L62.768 534.89C62.3831 535.206 61.9178 535.36 61.456 535.36Z" fill="#FCB01A"/>
<path d="M476.179 519.305C476.188 514.952 473.624 511.22 469.937 509.469C466.406 493.92 444.206 493.771 440.473 509.28C436.12 511.195 433.989 515.173 433.967 519.151C433.913 529.099 443.22 534.866 454.78 534.889C466.934 534.914 476.158 529.533 476.179 519.305Z" fill="white"/>
<path d="M454.866 536.959C454.835 536.959 454.807 536.959 454.776 536.959C447.13 536.943 440.632 534.631 436.48 530.447C433.459 527.404 431.875 523.494 431.899 519.14C431.925 514.321 434.513 510.075 438.72 507.833C441.208 499.423 448.66 495.659 455.184 495.659C455.221 495.659 455.257 495.659 455.294 495.66C461.85 495.702 469.33 499.563 471.715 508.067C475.723 510.367 478.258 514.678 478.248 519.31C478.226 530.037 469.05 536.959 454.866 536.959ZM455.182 499.797C450.412 499.797 444.257 502.401 442.485 509.765L442.245 510.762L441.306 511.174C438.026 512.617 436.056 515.603 436.036 519.163C436.018 522.438 437.156 525.254 439.417 527.532C442.74 530.88 448.342 532.808 454.785 532.821C454.81 532.821 454.835 532.821 454.86 532.821C464.168 532.821 474.09 529.272 474.111 519.301C474.118 515.875 472.178 512.824 469.05 511.338L468.142 510.907L467.92 509.927C466.234 502.5 460.05 499.828 455.267 499.797C455.239 499.797 455.21 499.797 455.182 499.797Z" fill="#FCB01A"/>
<path d="M455.123 551.538C453.98 551.538 453.054 550.612 453.054 549.469V514.084C453.054 512.941 453.98 512.015 455.123 512.015C456.265 512.015 457.192 512.941 457.192 514.084V549.469C457.192 550.612 456.265 551.538 455.123 551.538Z" fill="#FCB01A"/>
<path d="M454.573 531.72C454.221 531.72 453.863 531.629 453.537 531.439L445.057 526.516C444.069 525.942 443.733 524.676 444.306 523.688C444.88 522.7 446.147 522.364 447.134 522.938L455.614 527.861C456.602 528.435 456.938 529.701 456.364 530.689C455.98 531.35 455.287 531.72 454.573 531.72Z" fill="#FCB01A"/>
<path d="M455.945 526.646C455.347 526.646 454.754 526.389 454.345 525.891C453.62 525.008 453.748 523.704 454.631 522.979L462.29 516.687C463.173 515.962 464.476 516.09 465.202 516.973C465.927 517.856 465.799 519.159 464.916 519.885L457.257 526.176C456.872 526.492 456.407 526.646 455.945 526.646Z" fill="#FCB01A"/>
<path d="M244.746 550.483C244.75 550.417 244.766 548.563 244.766 548.497C244.766 545.56 242.386 543.18 239.449 543.18C239.355 543.18 239.269 543.202 239.177 543.207C237.968 539.979 234.881 537.669 231.231 537.669C230.139 537.669 229.103 537.893 228.143 538.268C226.592 536.706 224.48 535.735 222.143 535.735C218.412 535.735 215.267 538.205 214.073 541.638C214.055 541.638 214.04 541.633 214.022 541.633C210.978 541.633 208.511 544.1 208.511 547.144C208.511 547.685 208.614 549.989 208.758 550.483H244.746Z" fill="white"/>
<path d="M246.722 552.552H207.211L206.774 551.066C206.493 550.11 206.442 547.172 206.442 547.144C206.442 543.432 209.124 540.336 212.651 539.688C214.45 536.037 218.114 533.666 222.143 533.666C224.514 533.666 226.775 534.465 228.634 535.937C229.493 535.713 230.363 535.6 231.231 535.6C235.127 535.6 238.706 537.797 240.529 541.189C244.092 541.714 246.835 544.791 246.835 548.497C246.835 548.513 246.82 550.44 246.813 550.579L246.722 552.552ZM210.629 548.414H242.697C242.656 546.69 241.259 545.293 239.532 545.25C239.442 545.261 239.362 545.269 239.28 545.273L237.77 545.348L237.24 543.932C236.3 541.423 233.886 539.738 231.231 539.738C230.458 539.738 229.673 539.891 228.897 540.195L227.632 540.69L226.675 539.726C225.445 538.486 223.836 537.804 222.143 537.804C219.424 537.804 216.966 539.618 216.028 542.317L215.536 543.732L213.898 543.704C212.057 543.769 210.58 545.287 210.58 547.143C210.58 547.386 210.6 547.892 210.629 548.414ZM213.739 543.681C213.746 543.682 213.753 543.683 213.761 543.684L213.739 543.681ZM214.332 539.586L214.358 539.59C214.35 539.589 214.341 539.587 214.332 539.586Z" fill="#FCB01A"/>
<path d="M340.007 550.326C340.011 550.23 340.036 550.14 340.036 550.043C340.036 545.737 336.546 542.247 332.24 542.247C332.103 542.247 331.977 542.28 331.842 542.287C330.07 537.555 325.544 534.168 320.193 534.168C318.592 534.168 317.073 534.497 315.667 535.047C313.392 532.756 310.297 531.334 306.871 531.334C301.401 531.334 296.79 534.954 295.041 539.987C295.014 539.987 294.992 539.979 294.965 539.979C290.503 539.979 286.887 543.596 286.887 548.058C286.887 548.851 287.037 549.602 287.25 550.326L340.007 550.326Z" fill="white"/>
<path d="M341.983 552.395H285.701L285.264 550.908C284.959 549.87 284.817 548.964 284.817 548.058C284.817 542.923 288.652 538.666 293.608 538.001C296.002 532.723 301.172 529.265 306.871 529.265C310.286 529.265 313.539 530.473 316.163 532.692C317.495 532.298 318.845 532.1 320.193 532.1C325.715 532.1 330.773 535.312 333.201 540.225C338.191 540.709 342.105 544.927 342.105 550.042C342.105 550.232 342.084 550.387 342.071 550.477L341.983 552.395ZM288.96 548.257H337.681C336.936 545.991 334.811 544.345 332.306 544.316H332.305C332.188 544.333 332.07 544.347 331.949 544.353L330.435 544.432L329.904 543.012C328.387 538.96 324.485 536.237 320.193 536.237C318.939 536.237 317.669 536.485 316.42 536.973L315.155 537.468L314.198 536.504C312.212 534.504 309.61 533.402 306.87 533.402C302.473 533.402 298.505 536.321 296.994 540.666L296.505 542.072L295.017 542.055C294.962 542.054 294.912 542.052 294.867 542.049C291.598 542.101 288.955 544.776 288.955 548.058C288.955 548.124 288.957 548.19 288.96 548.257Z" fill="#FCB01A"/>
<path d="M659.679 247.802C659.082 247.802 658.516 247.53 658.143 247.061C655.901 244.245 652.478 243.332 652.444 243.324C651.397 243.053 650.763 241.985 651.03 240.937C651.297 239.89 652.354 239.254 653.405 239.516C653.563 239.555 656.686 240.36 659.51 242.834C662.101 239.884 664.885 238.666 665.024 238.606C666.021 238.178 667.175 238.64 667.603 239.638C668.03 240.634 667.568 241.788 666.571 242.216C666.55 242.225 663.52 243.588 661.317 246.921C660.97 247.445 660.393 247.772 659.765 247.799C659.737 247.801 659.708 247.802 659.679 247.802Z" fill="#FCB01A"/>
<path d="M282.744 516.437C282.744 526.334 277.219 533.196 270.404 533.196C263.589 533.196 258.064 526.335 258.064 516.437C258.064 506.54 263.589 481.909 270.404 481.909C277.219 481.909 282.744 506.541 282.744 516.437Z" fill="white"/>
<path d="M270.404 535.265C262.19 535.265 255.995 527.171 255.995 516.437C255.995 510.955 257.518 502.083 259.698 494.864C262.708 484.895 266.31 479.84 270.403 479.84C274.497 479.84 278.099 484.895 281.11 494.864C283.289 502.083 284.812 510.955 284.812 516.437C284.812 527.171 278.618 535.265 270.404 535.265ZM270.404 483.978C269.333 483.978 266.545 486.503 263.659 496.06C261.344 503.726 260.133 512.113 260.133 516.437C260.133 524.812 264.549 531.127 270.404 531.127C276.259 531.127 280.675 524.812 280.675 516.437C280.675 512.113 279.463 503.726 277.149 496.06C274.263 486.503 271.475 483.978 270.404 483.978Z" fill="#FCB01A"/>
<path d="M270.324 551.539C269.181 551.539 268.255 550.612 268.255 549.47V503.206C268.255 502.063 269.181 501.137 270.324 501.137C271.467 501.137 272.393 502.063 272.393 503.206V549.47C272.393 550.612 271.466 551.539 270.324 551.539Z" fill="#FCB01A"/>
<path d="M694.673 453.762H722.397V436.758H762.745V453.762H788.42V436.758H828.184L827.96 453.762H856.21V553.779L694.673 553.426V453.762Z" fill="white"/>
<path d="M858.173 555.747L692.709 555.385V451.799H720.433V434.795H764.708V451.799H786.457V434.795H830.173L829.949 451.799H858.173V555.747ZM696.636 551.466L854.246 551.811V455.726H825.969L826.194 438.722H790.384V455.726H760.781V438.722H724.36V455.726H696.636L696.636 551.466Z" fill="#FCB01A"/>
<path d="M736.364 464.334H722.903V474.741H736.364V464.334Z" fill="white"/>
<path d="M732.437 468.261V470.814H726.831V468.261H732.437ZM736.365 464.334H722.904V474.741H736.365V464.334Z" fill="#FCB01A"/>
<path d="M762.703 464.334H749.242V474.741H762.703V464.334Z" fill="white"/>
<path d="M758.776 468.261V470.814H753.169V468.261H758.776ZM762.703 464.334H749.242V474.741H762.703V464.334Z" fill="#FCB01A"/>
<path d="M736.364 483.408H722.903V493.816H736.364V483.408Z" fill="white"/>
<path d="M732.437 487.336V489.888H726.831V487.336H732.437ZM736.365 483.408H722.904V493.815H736.365V483.408Z" fill="#FCB01A"/>
<path d="M762.703 483.408H749.242V493.816H762.703V483.408Z" fill="white"/>
<path d="M758.776 487.336V489.888H753.169V487.336H758.776ZM762.703 483.408H749.242V493.815H762.703V483.408Z" fill="#FCB01A"/>
<path d="M736.364 502.482H722.903V512.889H736.364V502.482Z" fill="white"/>
<path d="M732.437 506.41V508.963H726.831V506.41H732.437ZM736.365 502.482H722.904V512.889H736.365V502.482Z" fill="#FCB01A"/>
<path d="M762.703 502.482H749.242V512.889H762.703V502.482Z" fill="white"/>
<path d="M758.776 506.41V508.963H753.169V506.41H758.776ZM762.703 502.482H749.242V512.889H762.703V502.482Z" fill="#FCB01A"/>
<path d="M736.364 521.557H722.903V531.964H736.364V521.557Z" fill="white"/>
<path d="M732.437 525.484V528.037H726.831V525.484H732.437ZM736.365 521.557H722.904V531.964H736.365V521.557Z" fill="#FCB01A"/>
<path d="M762.703 521.557H749.242V531.964H762.703V521.557Z" fill="white"/>
<path d="M758.776 525.484V528.037H753.169V525.484H758.776ZM762.703 521.557H749.242V531.964H762.703V521.557Z" fill="#FCB01A"/>
<path d="M801.882 464.334H788.421V474.741H801.882V464.334Z" fill="white"/>
<path d="M797.954 468.261V470.814H792.348V468.261H797.954ZM801.881 464.334H788.421V474.741H801.881V464.334Z" fill="#FCB01A"/>
<path d="M828.218 464.334H814.758V474.741H828.218V464.334Z" fill="white"/>
<path d="M824.291 468.261V470.814H818.685V468.261H824.291ZM828.218 464.334H814.758V474.741H828.218V464.334Z" fill="#FCB01A"/>
<path d="M801.882 483.408H788.421V493.816H801.882V483.408Z" fill="white"/>
<path d="M797.954 487.336V489.888H792.348V487.336H797.954ZM801.881 483.408H788.421V493.815H801.881V483.408Z" fill="#FCB01A"/>
<path d="M828.218 483.408H814.758V493.816H828.218V483.408Z" fill="white"/>
<path d="M824.291 487.336V489.888H818.685V487.336H824.291ZM828.218 483.408H814.758V493.815H828.218V483.408Z" fill="#FCB01A"/>
<path d="M801.882 502.482H788.421V512.889H801.882V502.482Z" fill="white"/>
<path d="M797.954 506.41V508.963H792.348V506.41H797.954ZM801.881 502.482H788.421V512.889H801.881V502.482Z" fill="#FCB01A"/>
<path d="M828.218 502.482H814.758V512.889H828.218V502.482Z" fill="white"/>
<path d="M824.291 506.41V508.963H818.685V506.41H824.291ZM828.218 502.482H814.758V512.889H828.218V502.482Z" fill="#FCB01A"/>
<path d="M801.882 521.557H788.421V531.964H801.882V521.557Z" fill="white"/>
<path d="M797.954 525.484V528.037H792.348V525.484H797.954ZM801.881 521.557H788.421V531.964H801.881V521.557Z" fill="#FCB01A"/>
<path d="M828.218 521.557H814.758V531.964H828.218V521.557Z" fill="white"/>
<path d="M824.291 525.484V528.037H818.685V525.484H824.291ZM828.218 521.557H814.758V531.964H828.218V521.557Z" fill="#FCB01A"/>
<path d="M648.439 529.309C648.445 526.02 646.509 523.2 643.723 521.878C641.056 510.131 624.284 510.018 621.464 521.735C618.175 523.182 616.566 526.188 616.549 529.193C616.508 536.708 623.539 541.065 632.273 541.083C641.455 541.101 648.423 537.036 648.439 529.309Z" fill="white"/>
<path d="M632.337 543.151C632.314 543.151 632.292 543.151 632.268 543.151C626.356 543.139 621.32 541.339 618.087 538.082C615.709 535.685 614.461 532.607 614.48 529.181C614.5 525.422 616.481 522.102 619.715 520.297C621.726 513.834 627.508 510.938 632.577 510.938C632.606 510.938 632.634 510.938 632.663 510.939C637.759 510.971 643.566 513.944 645.497 520.484C648.577 522.336 650.515 525.701 650.507 529.313C650.499 533.7 648.581 537.329 644.961 539.807C641.766 541.995 637.401 543.151 632.337 543.151ZM632.576 515.076C629.157 515.076 624.746 516.943 623.476 522.219L623.236 523.216L622.297 523.629C620.007 524.636 618.631 526.72 618.618 529.203C618.605 531.539 619.415 533.545 621.025 535.166C623.441 537.601 627.543 539.003 632.277 539.013C632.297 539.013 632.318 539.013 632.338 539.013C636.564 539.013 640.12 538.107 642.624 536.393C645.104 534.695 646.364 532.31 646.37 529.304C646.375 526.913 645.02 524.784 642.836 523.746L641.928 523.315L641.706 522.335C640.497 517.013 636.065 515.098 632.637 515.076C632.617 515.076 632.596 515.076 632.576 515.076Z" fill="#FCB01A"/>
<path d="M632.532 554.165C631.389 554.165 630.463 553.239 630.463 552.096V525.364C630.463 524.221 631.389 523.295 632.532 523.295C633.675 523.295 634.601 524.221 634.601 525.364V552.096C634.601 553.239 633.675 554.165 632.532 554.165Z" fill="#FCB01A"/>
<path d="M632.117 539.193C631.764 539.193 631.407 539.103 631.08 538.913L624.674 535.193C623.686 534.62 623.35 533.354 623.924 532.366C624.497 531.377 625.763 531.042 626.752 531.615L633.158 535.335C634.146 535.909 634.482 537.175 633.908 538.163C633.524 538.824 632.83 539.193 632.117 539.193Z" fill="#FCB01A"/>
<path d="M633.152 535.36C632.554 535.36 631.961 535.103 631.552 534.605C630.827 533.722 630.955 532.418 631.838 531.693L637.624 526.94C638.507 526.215 639.811 526.342 640.536 527.225C641.262 528.108 641.134 529.412 640.251 530.137L634.464 534.89C634.079 535.206 633.614 535.36 633.152 535.36Z" fill="#FCB01A"/>
<path d="M704.195 519.305C704.204 514.952 701.64 511.22 697.952 509.469C694.422 493.92 672.222 493.771 668.489 509.28C664.135 511.195 662.004 515.173 661.983 519.151C661.929 529.099 671.235 534.866 682.796 534.889C694.95 534.914 704.174 529.533 704.195 519.305Z" fill="white"/>
<path d="M682.881 536.959C682.851 536.959 682.823 536.959 682.792 536.959C675.146 536.943 668.648 534.631 664.495 530.447C661.475 527.403 659.891 523.494 659.914 519.14C659.94 514.321 662.529 510.075 666.736 507.833C669.224 499.423 676.676 495.659 683.2 495.659C683.236 495.659 683.273 495.659 683.309 495.66C689.865 495.702 697.345 499.563 699.731 508.067C703.739 510.367 706.273 514.678 706.264 519.31C706.242 530.037 697.066 536.959 682.881 536.959ZM683.198 499.797C678.427 499.797 672.273 502.401 670.501 509.765L670.261 510.762L669.322 511.174C666.041 512.617 664.071 515.603 664.052 519.163C664.034 522.438 665.172 525.254 667.432 527.531C670.756 530.88 676.357 532.808 682.801 532.821C682.825 532.821 682.851 532.821 682.875 532.821C692.183 532.821 702.106 529.272 702.126 519.301C702.133 515.875 700.194 512.824 697.066 511.338L696.158 510.907L695.936 509.927C694.249 502.5 688.066 499.828 683.283 499.797C683.254 499.797 683.226 499.797 683.198 499.797Z" fill="#FCB01A"/>
<path d="M683.138 551.538C681.996 551.538 681.069 550.612 681.069 549.469V514.084C681.069 512.941 681.996 512.015 683.138 512.015C684.281 512.015 685.207 512.941 685.207 514.084V549.469C685.207 550.612 684.281 551.538 683.138 551.538Z" fill="#FCB01A"/>
<path d="M682.59 531.72C682.237 531.72 681.88 531.629 681.553 531.439L673.073 526.516C672.085 525.942 671.749 524.676 672.323 523.688C672.897 522.7 674.163 522.364 675.151 522.938L683.631 527.861C684.619 528.435 684.955 529.701 684.381 530.689C683.997 531.35 683.303 531.72 682.59 531.72Z" fill="#FCB01A"/>
<path d="M683.962 526.646C683.364 526.646 682.771 526.389 682.362 525.891C681.637 525.008 681.764 523.704 682.647 522.979L690.307 516.687C691.19 515.962 692.493 516.09 693.219 516.973C693.944 517.856 693.816 519.159 692.933 519.885L685.274 526.176C684.889 526.492 684.424 526.646 683.962 526.646Z" fill="#FCB01A"/>
<path d="M963.258 355.879V341.898H949.217V333H941.353V322.685H937.853V333H931.273V322.685H927.773V333H921.375V341.898H907.334V355.879H898.894V552.54H971.699V355.879H963.258Z" fill="white"/>
<path d="M973.662 554.503H896.93V353.916H905.37V339.935H919.411V331.036H925.808V320.722H933.235V331.036H935.889V320.722H943.316V331.036H951.18V339.935H965.221V353.916H973.661V554.503H973.662ZM900.857 550.576H969.735V357.843H961.294V343.862H947.254V334.963H923.338V343.862H909.298V357.843H900.857L900.857 550.576Z" fill="#FCB01A"/>
<path d="M955.937 363.482H914.655V369.922H955.937V363.482Z" fill="white"/>
<path d="M957.901 371.886H912.691V361.518H957.901V371.886ZM916.618 367.959H953.973V365.446H916.618V367.959Z" fill="#FCB01A"/>
<path d="M955.937 380.405H914.655V386.845H955.937V380.405Z" fill="white"/>
<path d="M957.901 388.809H912.691V378.441H957.901V388.809ZM916.618 384.882H953.973V382.368H916.618V384.882Z" fill="#FCB01A"/>
<path d="M955.937 397.327H914.655V403.768H955.937V397.327Z" fill="white"/>
<path d="M957.901 405.731H912.691V395.364H957.901V405.731ZM916.618 401.804H953.973V399.291H916.618V401.804Z" fill="#FCB01A"/>
<path d="M955.937 414.25H914.655V420.691H955.937V414.25Z" fill="white"/>
<path d="M957.901 422.655H912.691V412.287H957.901V422.655ZM916.618 418.727H953.973V416.214H916.618V418.727Z" fill="#FCB01A"/>
<path d="M955.937 431.173H914.655V437.614H955.937V431.173Z" fill="white"/>
<path d="M957.901 439.577H912.691V429.209H957.901V439.577ZM916.618 435.65H953.973V433.137H916.618V435.65Z" fill="#FCB01A"/>
<path d="M955.937 448.096H914.655V454.537H955.937V448.096Z" fill="white"/>
<path d="M957.901 456.5H912.691V446.132H957.901V456.5ZM916.618 452.573H953.973V450.06H916.618V452.573Z" fill="#FCB01A"/>
<path d="M955.937 465.019H914.655V471.46H955.937V465.019Z" fill="white"/>
<path d="M957.901 473.424H912.691V463.056H957.901V473.424ZM916.618 469.496H953.973V466.983H916.618V469.496Z" fill="#FCB01A"/>
<path d="M955.937 481.942H914.655V488.383H955.937V481.942Z" fill="white"/>
<path d="M957.901 490.347H912.691V479.979H957.901V490.347ZM916.618 486.419H953.973V483.906H916.618V486.419Z" fill="#FCB01A"/>
<path d="M852.24 527.235C852.24 534.985 847.914 540.359 842.577 540.359C837.24 540.359 832.914 534.985 832.914 527.235C832.914 519.485 837.24 500.197 842.577 500.197C847.914 500.197 852.24 519.485 852.24 527.235Z" fill="white"/>
<path d="M842.577 542.428C835.888 542.428 830.845 535.897 830.845 527.235C830.845 521.266 834.483 498.128 842.577 498.128C850.67 498.128 854.308 521.266 854.308 527.235C854.308 535.897 849.265 542.428 842.577 542.428ZM842.577 502.266C842.135 502.266 840.016 503.818 837.724 511.408C835.924 517.369 834.982 523.883 834.982 527.235C834.982 533.537 838.247 538.29 842.577 538.29C846.906 538.29 850.171 533.537 850.171 527.235C850.171 523.882 849.229 517.369 847.429 511.408C845.137 503.818 843.018 502.266 842.577 502.266Z" fill="#FCB01A"/>
<path d="M842.512 555.876C841.37 555.876 840.443 554.949 840.443 553.807V516.874C840.443 515.732 841.37 514.805 842.512 514.805C843.655 514.805 844.581 515.732 844.581 516.874V553.807C844.581 554.949 843.655 555.876 842.512 555.876Z" fill="#FCB01A"/>
<path d="M832.549 552.775C832.552 552.71 832.569 550.855 832.569 550.789C832.569 547.852 830.188 545.472 827.252 545.472C827.158 545.472 827.072 545.495 826.98 545.499C825.771 542.271 822.684 539.961 819.034 539.961C817.941 539.961 816.905 540.185 815.946 540.561C814.395 538.998 812.283 538.028 809.946 538.028C806.214 538.028 803.069 540.497 801.876 543.93C801.858 543.93 801.843 543.925 801.824 543.925C798.78 543.925 796.313 546.392 796.313 549.436C796.313 549.977 796.416 552.281 796.561 552.775L832.549 552.775Z" fill="white"/>
<path d="M834.525 554.844H795.013L794.577 553.359C794.296 552.402 794.245 549.464 794.245 549.436C794.245 545.725 796.926 542.628 800.453 541.981C802.252 538.33 805.917 535.958 809.946 535.958C812.316 535.958 814.578 536.757 816.437 538.229C817.296 538.005 818.165 537.892 819.034 537.892C822.929 537.892 826.508 540.09 828.332 543.482C831.894 544.006 834.638 547.083 834.638 550.789C834.638 550.806 834.623 552.733 834.616 552.871L834.525 554.844ZM798.432 550.706H830.5C830.458 548.983 829.062 547.586 827.335 547.542C827.248 547.553 827.17 547.561 827.09 547.565L825.574 547.646L825.042 546.225C824.103 543.716 821.688 542.03 819.034 542.03C818.261 542.03 817.476 542.184 816.7 542.487L815.435 542.982L814.478 542.018C813.248 540.779 811.639 540.096 809.946 540.096C807.227 540.096 804.769 541.91 803.831 544.61L803.348 545.999L801.697 545.996C799.858 546.064 798.383 547.581 798.383 549.436C798.383 549.678 798.403 550.184 798.432 550.706ZM801.532 545.972C801.539 545.973 801.547 545.974 801.555 545.976L801.532 545.972ZM802.146 541.88L802.169 541.884C802.162 541.882 802.154 541.881 802.146 541.88Z" fill="#FCB01A"/>
<path d="M39.4186 550.843C39.4218 550.776 39.4387 550.714 39.4387 550.647C39.4387 547.66 37.0176 545.239 34.0313 545.239C33.9362 545.239 33.8483 545.262 33.7548 545.267C32.526 541.984 29.3859 539.635 25.6745 539.635C24.5639 539.635 23.5101 539.863 22.5346 540.244C20.9568 538.655 18.8094 537.669 16.4327 537.669C12.6384 537.669 9.44011 540.18 8.22662 543.671C8.20817 543.671 8.19285 543.666 8.1744 543.666C5.07893 543.666 2.57031 546.175 2.57031 549.27C2.57031 549.82 2.67472 550.341 2.8223 550.843H39.4186Z" fill="white"/>
<path d="M41.2941 552.807H1.35187L0.937898 551.396C0.714962 550.637 0.606445 549.941 0.606445 549.27C0.606445 545.54 3.31856 542.432 6.87398 541.814C8.66935 538.113 12.3658 535.705 16.4325 535.705C18.8338 535.705 21.1251 536.522 23.0011 538.027C23.8851 537.791 24.78 537.671 25.6742 537.671C29.608 537.671 33.22 539.904 35.0388 543.344C38.628 543.837 41.4021 546.924 41.4021 550.646C41.4021 550.796 41.3876 550.921 41.377 550.996L41.2941 552.807ZM4.55396 548.88H36.9858C36.3955 547.896 35.329 547.231 34.1073 547.204C34.017 547.216 33.9376 547.224 33.8563 547.228L32.4195 547.303L31.9152 545.956C30.9396 543.349 28.4314 541.599 25.6739 541.599C24.8697 541.599 24.0542 541.758 23.2497 542.073L22.0491 542.543L21.1407 541.628C19.8635 540.341 18.1912 539.632 16.4325 539.632C13.6071 539.632 11.0548 541.515 10.0808 544.316L9.61431 545.658L8.04964 545.631C6.23018 545.693 4.74532 547.096 4.55396 548.88ZM7.89299 545.608C7.89987 545.609 7.90738 545.611 7.91551 545.612L7.89299 545.608ZM8.48117 541.725L8.50773 541.73C8.49898 541.728 8.49023 541.727 8.48117 541.725Z" fill="#FCB01A"/>
</g>
</svg>
