<svg width="60" height="60" viewBox="0 0 60 60" fill="none" xmlns="http://www.w3.org/2000/svg">
<path d="M18.5999 44.4911C18.4986 44.4911 18.3997 44.4603 18.3163 44.4029C18.2328 44.3454 18.1688 44.2639 18.1327 44.1693C18.0966 44.0746 18.0901 43.9712 18.1141 43.8728C18.138 43.7744 18.1913 43.6856 18.2669 43.6181L20.0069 42.0651L18.0729 43.1821C17.9658 43.244 17.8394 43.2639 17.7184 43.2381C17.5974 43.2122 17.4903 43.1424 17.4178 43.0421C17.3452 42.9419 17.3125 42.8183 17.3258 42.6952C17.3391 42.5722 17.3976 42.4585 17.4899 42.3761L19.1829 40.8651L17.8179 41.6521C17.7145 41.7115 17.5932 41.732 17.476 41.7098C17.3588 41.6876 17.2534 41.6243 17.1788 41.5312C17.1042 41.4382 17.0653 41.3215 17.0692 41.2022C17.073 41.083 17.1194 40.9691 17.1999 40.8811L17.9329 40.0871L17.5899 40.2871C17.5099 40.3332 17.4187 40.3564 17.3264 40.3538C17.2341 40.3513 17.1443 40.3233 17.0669 40.2729C16.9896 40.2224 16.9277 40.1516 16.8882 40.0681C16.8486 39.9847 16.833 39.8919 16.8429 39.8001L16.9549 38.7801C16.8588 38.7552 16.7723 38.7024 16.7064 38.6282C16.6404 38.554 16.5981 38.4619 16.5847 38.3635C16.5713 38.2652 16.5874 38.1651 16.6311 38.076C16.6748 37.9869 16.744 37.9127 16.8299 37.8631L17.2899 37.5981C17.3699 37.5519 17.4611 37.5288 17.5534 37.5313C17.6457 37.5338 17.7355 37.5619 17.8129 37.6123C17.8903 37.6627 17.9521 37.7336 17.9917 37.8171C18.0312 37.9005 18.0469 37.9933 18.0369 38.0851L17.9439 38.9281L20.2719 37.5851C20.3755 37.525 20.4972 37.504 20.6148 37.5261C20.7325 37.5481 20.8384 37.6116 20.9132 37.7051C20.9881 37.7985 21.0269 37.9157 21.0226 38.0354C21.0183 38.1551 20.9712 38.2692 20.8899 38.3571L20.1569 39.1501L22.8889 37.5741C22.9961 37.5122 23.1224 37.4923 23.2434 37.5181C23.3644 37.544 23.4716 37.6138 23.5441 37.714C23.6166 37.8143 23.6494 37.9379 23.636 38.0609C23.6227 38.184 23.5642 38.2977 23.4719 38.3801L21.7799 39.8901L23.7209 38.7701C23.8272 38.7137 23.9503 38.6976 24.0675 38.7247C24.1848 38.7517 24.2883 38.8201 24.3592 38.9174C24.4301 39.0146 24.4635 39.1342 24.4533 39.254C24.4432 39.3739 24.3901 39.4861 24.3039 39.5701L22.5629 41.1231L23.7209 40.4551C23.8266 40.3924 23.9516 40.3709 24.0721 40.3945C24.1927 40.4181 24.3003 40.4853 24.3745 40.5832C24.4487 40.6811 24.4842 40.8029 24.4743 40.9254C24.4644 41.0478 24.4098 41.1623 24.3209 41.2471L23.9049 41.6471C23.9996 41.638 24.0949 41.6566 24.1792 41.7006C24.2636 41.7446 24.3333 41.8122 24.3799 41.8951C24.4462 42.0099 24.4642 42.1464 24.4299 42.2745C24.3955 42.4026 24.3118 42.5118 24.1969 42.5781L21.0319 44.4051C20.9263 44.4677 20.8012 44.4893 20.6807 44.4657C20.5601 44.442 20.4525 44.3749 20.3783 44.2769C20.3042 44.179 20.2686 44.0572 20.2785 43.9348C20.2884 43.8124 20.343 43.6978 20.4319 43.6131L20.7049 43.3491L18.8499 44.4201C18.7745 44.4659 18.6881 44.4904 18.5999 44.4911Z" fill="#FCB01A"/>
<path d="M52.119 34.4829C52.0166 34.4824 51.9168 34.4505 51.8331 34.3914C51.7495 34.3324 51.6859 34.2491 51.6512 34.1528C51.6164 34.0565 51.612 33.9518 51.6386 33.8529C51.6652 33.754 51.7216 33.6657 51.8 33.5999L54.3 31.4939L51.28 33.2379C51.1717 33.2989 51.0446 33.3175 50.9234 33.2899C50.8022 33.2623 50.6957 33.1906 50.6245 33.0887C50.5533 32.9868 50.5227 32.862 50.5385 32.7388C50.5543 32.6155 50.6154 32.5025 50.71 32.4219L54.2 29.5079L51.28 31.1929C51.1701 31.2539 51.0413 31.2713 50.9191 31.2416C50.797 31.2119 50.6906 31.1373 50.621 31.0326C50.5514 30.928 50.5237 30.8009 50.5436 30.6768C50.5634 30.5527 50.6292 30.4406 50.728 30.3629L52.346 29.1299L51.28 29.7439C51.1703 29.8053 51.0416 29.8231 50.9193 29.7939C50.7971 29.7646 50.6903 29.6904 50.6204 29.586C50.5504 29.4816 50.5223 29.3547 50.5417 29.2305C50.5611 29.1063 50.6265 28.994 50.725 28.9159L52.1 27.8509L51.276 28.3259C51.1673 28.3869 51.0397 28.4052 50.9182 28.377C50.7967 28.3488 50.6902 28.2763 50.6194 28.1736C50.5487 28.0709 50.5189 27.9455 50.5358 27.822C50.5527 27.6985 50.6152 27.5857 50.711 27.5059L52.054 26.4139L51.276 26.8619C51.1675 26.9234 51.0399 26.9422 50.9183 26.9145C50.7966 26.8868 50.6898 26.8146 50.6186 26.7122C50.5475 26.6097 50.5172 26.4843 50.5337 26.3607C50.5503 26.237 50.6124 26.124 50.708 26.0439L51.077 25.7379C50.9732 25.7482 50.8687 25.7259 50.7782 25.6739C50.6878 25.6219 50.6158 25.5429 50.5725 25.448C50.5292 25.353 50.5166 25.2469 50.5366 25.1445C50.5566 25.0421 50.6081 24.9485 50.684 24.8769L51 24.5829C50.9019 24.5765 50.8077 24.5418 50.729 24.4829C50.6509 24.4241 50.5917 24.3437 50.5589 24.2516C50.526 24.1595 50.5208 24.0599 50.544 23.9649L50.833 22.7769C50.733 22.735 50.6496 22.6611 50.596 22.5669C50.5297 22.452 50.5117 22.3156 50.546 22.1875C50.5804 22.0594 50.6642 21.9502 50.779 21.8839L51.279 21.5959C51.3638 21.5469 51.4611 21.5239 51.5588 21.5297C51.6565 21.5355 51.7504 21.5699 51.8288 21.6285C51.9072 21.6872 51.9666 21.7676 51.9997 21.8598C52.0328 21.9519 52.0381 22.0517 52.015 22.1469L51.792 23.0649L53.982 21.7999C54.0885 21.7361 54.215 21.7143 54.3367 21.7386C54.4585 21.7629 54.5668 21.8317 54.6407 21.9315C54.7145 22.0313 54.7486 22.155 54.7363 22.2786C54.724 22.4021 54.6661 22.5166 54.574 22.5999L54.526 22.6459L55.538 22.0619C55.6465 22.0003 55.7741 21.9816 55.8957 22.0093C56.0174 22.037 56.1242 22.1091 56.1954 22.2116C56.2665 22.3141 56.2968 22.4394 56.2803 22.5631C56.2637 22.6867 56.2016 22.7997 56.106 22.8799L55.938 23.0189L56.991 22.4109C57.0997 22.3488 57.2278 22.3297 57.35 22.3575C57.4721 22.3853 57.5793 22.4579 57.6505 22.561C57.7216 22.6641 57.7515 22.7901 57.7342 22.9142C57.7169 23.0382 57.6536 23.1512 57.557 23.2309L56.215 24.3219L58.066 23.2539C58.1757 23.1913 58.305 23.1725 58.428 23.2013C58.551 23.2302 58.6585 23.3045 58.7289 23.4094C58.7993 23.5143 58.8275 23.6419 58.8076 23.7667C58.7878 23.8914 58.7215 24.004 58.622 24.0819L57.242 25.1469L58.618 24.3539C58.7279 24.2917 58.8573 24.2734 58.9802 24.3027C59.1031 24.332 59.2103 24.4067 59.2803 24.5118C59.3504 24.6169 59.378 24.7447 59.3577 24.8693C59.3375 24.994 59.2707 25.1064 59.171 25.1839L57.558 26.4139L58.72 25.7429C58.8284 25.6805 58.9562 25.6611 59.0783 25.6884C59.2003 25.7157 59.3077 25.7877 59.3793 25.8902C59.4508 25.9928 59.4814 26.1185 59.4648 26.2424C59.4483 26.3664 59.3859 26.4796 59.29 26.5599L55.8 29.4759L58.721 27.7889C58.8292 27.7271 58.9565 27.7079 59.0781 27.735C59.1997 27.7622 59.3067 27.8338 59.3783 27.9358C59.4499 28.0377 59.4808 28.1628 59.465 28.2863C59.4492 28.4099 59.3879 28.5232 59.293 28.6039L56.787 30.7119L58.72 29.5999C58.8248 29.5377 58.949 29.5166 59.0685 29.5407C59.1879 29.5647 59.2943 29.6321 59.367 29.7299C59.4405 29.8265 59.4763 29.9465 59.4679 30.0675C59.4594 30.1886 59.4072 30.3025 59.321 30.3879L58.5 31.1999C58.6166 31.1366 58.7535 31.1223 58.8806 31.16C59.0078 31.1977 59.1147 31.2843 59.178 31.4009C59.2413 31.5174 59.2556 31.6544 59.2179 31.7815C59.1802 31.9087 59.0936 32.0156 58.977 32.0789L55.63 34.0069C55.5248 34.066 55.4018 34.0851 55.2837 34.0607C55.1655 34.0363 55.0602 33.97 54.9871 33.874C54.914 33.778 54.8781 33.6588 54.886 33.5384C54.8939 33.418 54.945 33.3045 55.03 33.2189L55.853 32.4059L52.371 34.4159C52.2946 34.4605 52.2075 34.4837 52.119 34.4829Z" fill="#FCB01A"/>
<path d="M16.5743 56.4699C16.4769 56.47 16.3817 56.4417 16.3003 56.3884C16.2188 56.3352 16.1547 56.2593 16.1157 56.1701C16.0767 56.0809 16.0646 55.9823 16.0809 55.8864C16.0972 55.7904 16.1411 55.7013 16.2073 55.6299L17.0613 54.7079L14.1613 56.3849C14.0549 56.442 13.9315 56.4587 13.8138 56.4319C13.6962 56.4051 13.5922 56.3366 13.521 56.2392C13.4498 56.1417 13.4163 56.0218 13.4267 55.9015C13.437 55.7813 13.4905 55.6688 13.5773 55.5849L15.5673 53.7989L12.3313 55.6669C12.2211 55.7301 12.0909 55.7489 11.9674 55.7196C11.8438 55.6903 11.736 55.6151 11.6658 55.5092C11.5957 55.4033 11.5685 55.2747 11.5897 55.1494C11.611 55.0242 11.6791 54.9118 11.7803 54.8349L12.4423 54.3349L11.5693 54.8349C11.461 54.895 11.3344 54.9128 11.2138 54.8849C11.0932 54.857 10.9872 54.7853 10.9164 54.6838C10.8456 54.5822 10.815 54.4581 10.8305 54.3352C10.846 54.2124 10.9065 54.0997 11.0003 54.0189L14.2743 51.2939L11.0003 53.1819C10.891 53.2454 10.7617 53.2652 10.6385 53.2373C10.5152 53.2094 10.4071 53.1358 10.3359 53.0314C10.2647 52.927 10.2357 52.7995 10.2547 52.6745C10.2737 52.5496 10.3392 52.4365 10.4383 52.3579L13.4313 49.9579L10.7883 51.4829C10.6801 51.5438 10.5532 51.5622 10.4323 51.5347C10.3113 51.5072 10.2049 51.4356 10.1337 51.334C10.0625 51.2324 10.0316 51.108 10.0471 50.9849C10.0625 50.8618 10.1232 50.7488 10.2173 50.6679L13.9273 47.5559L10.5403 49.5129C10.4323 49.5743 10.3054 49.5933 10.1843 49.5662C10.0631 49.5392 9.95633 49.468 9.88473 49.3666C9.81313 49.2652 9.78181 49.1408 9.79688 49.0176C9.81195 48.8943 9.87233 48.7811 9.96626 48.6999L13.8963 45.3459L10.2803 47.4329C10.1703 47.4951 10.0409 47.5134 9.91805 47.4841C9.79519 47.4548 9.68796 47.3801 9.61792 47.275C9.54789 47.1699 9.52023 47.0422 9.54051 46.9175C9.5608 46.7928 9.62752 46.6804 9.72726 46.6029L11.7163 45.0839L10.1033 46.0149C9.99244 46.078 9.86173 46.0963 9.73785 46.0662C9.61397 46.036 9.50629 45.9597 9.43681 45.8528C9.36733 45.7459 9.34132 45.6165 9.36408 45.4911C9.38684 45.3656 9.45666 45.2536 9.55926 45.1779L10.0903 44.7909L9.95926 44.8659C9.85088 44.9272 9.72353 44.9459 9.60212 44.9182C9.48072 44.8906 9.374 44.8186 9.30284 44.7165C9.23168 44.6143 9.20121 44.4892 9.21737 44.3658C9.23354 44.2423 9.29519 44.1293 9.39026 44.0489L13.1373 40.9349L9.71526 42.9089C9.60757 42.9699 9.4811 42.9887 9.36033 42.9618C9.23955 42.9349 9.13304 42.8642 9.06139 42.7633C8.98974 42.6624 8.95804 42.5385 8.97243 42.4156C8.98681 42.2927 9.04625 42.1795 9.13926 42.0979L11.4543 40.0999L9.50526 41.2289C9.40721 41.2869 9.29212 41.3092 9.1795 41.2921C9.06688 41.275 8.96364 41.2195 8.88726 41.1349C8.81036 41.0512 8.76429 40.9438 8.75666 40.8303C8.74902 40.7169 8.78027 40.6042 8.84526 40.5109L10.1933 38.5739L9.28026 39.0999C9.19328 39.1499 9.09331 39.1725 8.99331 39.1648C8.89332 39.1572 8.79793 39.1197 8.71954 39.0571C8.64115 38.9946 8.58337 38.9099 8.55372 38.8141C8.52407 38.7183 8.52391 38.6158 8.55326 38.5199L8.78726 37.7549C8.70857 37.71 8.64306 37.6451 8.59726 37.5669C8.53096 37.4521 8.51299 37.3156 8.54731 37.1875C8.58163 37.0595 8.66542 36.9502 8.78026 36.8839L9.28026 36.5939C9.3674 36.5438 9.46764 36.521 9.5679 36.5287C9.66815 36.5364 9.76377 36.5741 9.84226 36.6369C9.92056 36.6995 9.97826 36.7841 10.0079 36.8799C10.0375 36.9757 10.0376 37.0781 10.0083 37.1739L9.87826 37.5989L11.6313 36.5869C11.7297 36.5301 11.8446 36.5086 11.957 36.5259C12.0694 36.5432 12.1725 36.5982 12.2494 36.682C12.3263 36.7657 12.3723 36.8732 12.3799 36.9866C12.3875 37.1 12.3563 37.2127 12.2913 37.3059L10.9423 39.2419L15.5653 36.5729C15.6731 36.5098 15.8007 36.4893 15.9229 36.5155C16.0452 36.5418 16.1531 36.6129 16.2255 36.7148C16.2979 36.8167 16.3295 36.942 16.3141 37.066C16.2987 37.1901 16.2374 37.3039 16.1423 37.3849L13.8243 39.3799L17.7173 37.1329C17.8256 37.0716 17.953 37.053 18.0744 37.0806C18.1958 37.1083 18.3025 37.1802 18.3737 37.2824C18.4448 37.3846 18.4753 37.5096 18.4591 37.6331C18.443 37.7566 18.3813 37.8695 18.2863 37.9499L14.5393 41.0649L17.8003 39.1879C17.9109 39.1268 18.0405 39.1098 18.1632 39.1404C18.2858 39.171 18.3923 39.2469 18.4612 39.3528C18.5301 39.4588 18.5564 39.5869 18.5347 39.7114C18.513 39.8359 18.445 39.9476 18.3443 40.0239L17.8133 40.4109L17.9433 40.3359C18.0532 40.2724 18.1833 40.2531 18.307 40.282C18.4307 40.3108 18.5387 40.3857 18.6092 40.4913C18.6797 40.597 18.7074 40.7255 18.6866 40.8508C18.6658 40.9761 18.5981 41.0887 18.4973 41.1659L16.5083 42.6849L18.1213 41.7539C18.229 41.6937 18.3553 41.6755 18.4757 41.7028C18.5961 41.7301 18.7021 41.801 18.7734 41.9018C18.8446 42.0026 18.8761 42.1263 18.8617 42.2489C18.8472 42.3715 18.788 42.4844 18.6953 42.5659L14.7663 45.9209L18.3813 43.8339C18.4894 43.7731 18.6163 43.7547 18.7373 43.7822C18.8582 43.8097 18.9647 43.8812 19.0359 43.9828C19.107 44.0845 19.1379 44.2089 19.1225 44.332C19.107 44.4551 19.0464 44.5681 18.9523 44.6489L15.2413 47.7599L18.6253 45.8069C18.7344 45.745 18.8628 45.7263 18.985 45.7546C19.1072 45.7829 19.2143 45.8562 19.2851 45.9598C19.3558 46.0634 19.385 46.1898 19.3669 46.3139C19.3488 46.4381 19.2847 46.5509 19.1873 46.6299L16.1873 49.0299L18.8373 47.4999C18.9456 47.4386 19.073 47.42 19.1944 47.4476C19.3158 47.4753 19.4225 47.5472 19.4937 47.6494C19.5648 47.7516 19.5953 47.8766 19.5791 48.0001C19.563 48.1236 19.5013 48.2365 19.4063 48.3169L16.1333 51.0419L19.0673 49.3479C19.1775 49.2848 19.3076 49.266 19.4312 49.2953C19.5548 49.3246 19.6626 49.3998 19.7327 49.5057C19.8028 49.6116 19.83 49.7402 19.8088 49.8654C19.7875 49.9907 19.7194 50.1031 19.6183 50.1799L18.9633 50.6719L19.2153 50.5269C19.3216 50.4699 19.445 50.4532 19.5627 50.48C19.6803 50.5068 19.7844 50.5752 19.8555 50.6727C19.9267 50.7702 19.9602 50.8901 19.9498 51.0104C19.9395 51.1306 19.886 51.243 19.7993 51.3269L17.8093 53.1129L19.4233 52.1809C19.5269 52.1208 19.6487 52.0999 19.7665 52.1221C19.8842 52.1442 19.9901 52.2079 20.0649 52.3016C20.1396 52.3952 20.1782 52.5126 20.1737 52.6323C20.1692 52.7521 20.1219 52.8662 20.0403 52.9539L19.1853 53.8779L19.6043 53.6359C19.7018 53.5799 19.8153 53.5584 19.9265 53.5749C20.0377 53.5913 20.1401 53.6448 20.2172 53.7266C20.2943 53.8085 20.3416 53.9139 20.3514 54.0259C20.3612 54.1379 20.333 54.25 20.2713 54.3439L20.0003 54.7649C20.0943 54.7924 20.1782 54.8468 20.2416 54.9215C20.3049 54.9962 20.3449 55.0879 20.3567 55.1851C20.3684 55.2824 20.3513 55.3809 20.3075 55.4685C20.2637 55.5561 20.1951 55.629 20.1103 55.6779L18.8553 56.4019C18.7578 56.4579 18.6442 56.4795 18.533 56.463C18.4218 56.4465 18.3194 56.3931 18.2423 56.3112C18.1652 56.2294 18.1179 56.124 18.1081 56.012C18.0983 55.9 18.1265 55.7879 18.1883 55.6939L18.2713 55.5679L16.8253 56.4019C16.7492 56.4468 16.6625 56.4703 16.5743 56.4699Z" fill="#F7D97C"/>
<path d="M3.42591 36.47C3.32615 36.4702 3.22861 36.4406 3.14584 36.3849C3.06306 36.3292 2.99883 36.2501 2.96141 36.1576C2.92399 36.0651 2.91509 35.9635 2.93585 35.866C2.95661 35.7684 3.00609 35.6793 3.07791 35.61L4.74891 33.989L1.76091 35.714C1.65134 35.7762 1.52231 35.7948 1.39965 35.7659C1.27699 35.7371 1.16974 35.663 1.09935 35.5585C1.02896 35.454 1.00062 35.3268 1.02001 35.2023C1.0394 35.0778 1.10508 34.9652 1.20391 34.887L1.94791 34.308L1.29991 34.682C1.19075 34.7464 1.06119 34.767 0.937452 34.7395C0.813711 34.7121 0.705021 34.6386 0.633367 34.5341C0.561714 34.4295 0.532446 34.3016 0.551484 34.1763C0.570521 34.051 0.636443 33.9376 0.735915 33.859L2.60991 32.353L1.27991 33.12C1.17283 33.1793 1.04774 33.1972 0.928339 33.1704C0.808935 33.1436 0.703509 33.0739 0.632029 32.9746C0.56055 32.8752 0.527982 32.7531 0.540493 32.6314C0.553004 32.5097 0.609726 32.3967 0.699915 32.314L3.99991 29.371L1.27991 30.942C1.17354 30.9998 1.04981 31.0171 0.931687 30.9905C0.813567 30.964 0.70908 30.8955 0.637621 30.7978C0.566162 30.7001 0.532585 30.5798 0.543122 30.4592C0.553658 30.3386 0.607593 30.2259 0.694915 30.142L4.12891 27.042L1.27991 28.685C1.17184 28.7476 1.04424 28.7675 0.922236 28.7408C0.800231 28.714 0.692654 28.6426 0.620675 28.5405C0.548696 28.4384 0.517527 28.3131 0.533302 28.1892C0.549077 28.0653 0.610654 27.9518 0.705915 27.871L3.46591 25.522L1.27991 26.784C1.17202 26.8444 1.04556 26.8627 0.924981 26.8353C0.804397 26.8079 0.698237 26.7368 0.627001 26.6358C0.555766 26.5347 0.52451 26.4108 0.539268 26.288C0.554027 26.1653 0.613754 26.0523 0.706915 25.971L3.42791 23.661L1.27991 24.9C1.17098 24.9606 1.04336 24.9783 0.922049 24.9497C0.800741 24.921 0.694501 24.8481 0.624154 24.7452C0.553807 24.6424 0.524426 24.5169 0.541771 24.3935C0.559115 24.27 0.621935 24.1575 0.717915 24.078L1.20791 23.685C1.11056 23.7209 1.00447 23.7256 0.904333 23.6984C0.804199 23.6713 0.714986 23.6137 0.649057 23.5336C0.583128 23.4535 0.543749 23.3548 0.536378 23.2514C0.529006 23.1479 0.554007 23.0447 0.607915 22.956L1.53091 21.441C1.41457 21.4935 1.28258 21.4994 1.16198 21.4577C1.04139 21.4159 0.941313 21.3297 0.882257 21.2166C0.823202 21.1034 0.809636 20.972 0.844339 20.8492C0.879041 20.7264 0.959386 20.6215 1.06891 20.556L2.72191 19.6C2.81808 19.545 2.92981 19.5235 3.03954 19.5388C3.14927 19.5542 3.25079 19.6056 3.32816 19.6849C3.40552 19.7642 3.45436 19.8669 3.46698 19.977C3.47961 20.0871 3.45531 20.1983 3.39791 20.293L2.47691 21.805L6.33791 19.576C6.44718 19.5125 6.57643 19.4927 6.69969 19.5207C6.82294 19.5486 6.93105 19.6222 7.00226 19.7266C7.07347 19.831 7.1025 19.9585 7.08351 20.0834C7.06452 20.2084 6.99893 20.3215 6.89991 20.4L6.44491 20.767L7.72091 20.03C7.82897 19.9685 7.95608 19.9494 8.07746 19.9765C8.19883 20.0036 8.30574 20.0749 8.37732 20.1766C8.44891 20.2783 8.48003 20.403 8.46461 20.5264C8.44918 20.6499 8.38833 20.7631 8.29391 20.844L5.57291 23.154L7.72491 21.91C7.83299 21.8474 7.96059 21.8275 8.08259 21.8543C8.2046 21.881 8.31217 21.9525 8.38415 22.0545C8.45613 22.1566 8.4873 22.2819 8.47153 22.4058C8.45575 22.5297 8.39418 22.6432 8.29891 22.724L5.54191 25.069L7.72791 23.808C7.83426 23.751 7.95765 23.7343 8.07533 23.7611C8.193 23.7879 8.29702 23.8563 8.36817 23.9538C8.43933 24.0513 8.47283 24.1712 8.46249 24.2914C8.45215 24.4117 8.39867 24.5241 8.31191 24.608L4.87791 27.708L7.73191 26.06C7.83908 25.9981 7.96538 25.9782 8.0864 26.004C8.20742 26.0299 8.31455 26.0997 8.38708 26.2C8.4596 26.3002 8.49237 26.4238 8.47904 26.5469C8.46571 26.6699 8.40723 26.7836 8.31491 26.866L5.01491 29.81L7.74091 28.236C7.85008 28.1716 7.97964 28.1511 8.10338 28.1785C8.22712 28.206 8.33581 28.2794 8.40746 28.384C8.47912 28.4886 8.50838 28.6164 8.48935 28.7417C8.47031 28.8671 8.40439 28.9805 8.30491 29.059L6.42491 30.569L7.73891 29.811C7.84849 29.7488 7.97752 29.7303 8.10018 29.7591C8.22284 29.7879 8.33009 29.862 8.40048 29.9665C8.47087 30.071 8.49921 30.1983 8.47982 30.3228C8.46043 30.4473 8.39475 30.5599 8.29591 30.638L7.55091 31.218L7.74191 31.107C7.84757 31.0444 7.9726 31.0228 8.09314 31.0464C8.21368 31.0701 8.32131 31.1373 8.39548 31.2352C8.46966 31.3331 8.5052 31.4549 8.49532 31.5773C8.48544 31.6998 8.43083 31.8143 8.34191 31.899L6.66891 33.521L7.74491 32.9C7.84707 32.841 7.96679 32.8201 8.08291 32.8408C8.19904 32.8616 8.30408 32.9227 8.37948 33.0134C8.45489 33.1041 8.49578 33.2186 8.49495 33.3366C8.49411 33.4545 8.45159 33.5684 8.37491 33.658L7.93591 34.173C8.05071 34.1582 8.16708 34.1837 8.26518 34.2452C8.36328 34.3066 8.43703 34.4002 8.47384 34.5099C8.51065 34.6196 8.50826 34.7387 8.46706 34.8469C8.42586 34.9551 8.34841 35.0456 8.24791 35.103L5.99091 36.4C5.88876 36.459 5.76904 36.48 5.65292 36.4592C5.53679 36.4385 5.43175 36.3774 5.35635 36.2866C5.28094 36.1959 5.24005 36.0815 5.24088 35.9635C5.24172 35.8455 5.28424 35.7317 5.36091 35.642L5.72391 35.218L3.67591 36.4C3.60039 36.4454 3.51403 36.4696 3.42591 36.47Z" fill="#FCB01A"/>
<path d="M43.2227 13.4769C43.1165 13.4771 43.013 13.4435 42.9272 13.381C42.8414 13.3184 42.7777 13.2302 42.7454 13.129C42.7131 13.0279 42.7138 12.9191 42.7475 12.8184C42.7812 12.7177 42.846 12.6303 42.9327 12.5689L45.3537 10.8499C45.2446 10.8176 45.1496 10.7496 45.0837 10.6569C45.0116 10.5547 44.9805 10.4292 44.9964 10.3052C45.0123 10.1812 45.0741 10.0676 45.1697 9.98692L47.6997 7.84591L47.3627 8.03991C47.2585 8.0994 47.1365 8.11947 47.0187 8.09645C46.901 8.07344 46.7955 8.00889 46.7214 7.91456C46.6474 7.82024 46.6097 7.70243 46.6152 7.58262C46.6208 7.46281 46.6692 7.34899 46.7517 7.26191L48.3167 5.62291C48.2377 5.58112 48.1714 5.51894 48.1246 5.44283C48.0778 5.36671 48.0523 5.27946 48.0506 5.19013C48.049 5.10081 48.0713 5.01267 48.1153 4.9349C48.1593 4.85713 48.2233 4.79256 48.3007 4.74791L50.2657 3.61391C50.3699 3.55369 50.4924 3.53311 50.6106 3.55596C50.7289 3.57881 50.8349 3.64356 50.9092 3.7383C50.9835 3.83304 51.0211 3.95142 51.0151 4.07168C51.0092 4.19194 50.96 4.306 50.8767 4.39291L49.8867 5.42891L52.0057 4.19991C52.1139 4.13704 52.2417 4.11703 52.3639 4.14383C52.4862 4.17063 52.5939 4.24229 52.6659 4.34466C52.7379 4.44703 52.7688 4.57266 52.7527 4.69676C52.7365 4.82085 52.6744 4.93438 52.5787 5.01491L50.0517 7.15891L52.6997 5.62991C52.8109 5.56648 52.9422 5.54812 53.0665 5.57862C53.1909 5.60911 53.2988 5.68615 53.368 5.79384C53.4372 5.90154 53.4625 6.03169 53.4386 6.15747C53.4148 6.28325 53.3435 6.39508 53.2397 6.46991L52.1577 7.23791L52.7177 6.91591C52.8319 6.85614 52.9649 6.84282 53.0887 6.87876C53.2126 6.91469 53.3178 6.99708 53.3823 7.10873C53.4468 7.22038 53.4657 7.35265 53.4351 7.47791C53.4044 7.60317 53.3265 7.71173 53.2177 7.78091L43.4707 13.4089C43.3955 13.4531 43.3099 13.4766 43.2227 13.4769Z" fill="#F7D97C"/>
<path d="M50.5913 52.4569C50.4957 52.4569 50.4021 52.4295 50.3216 52.378C50.2412 52.3264 50.1771 52.2529 50.1371 52.1661C50.0971 52.0793 50.0829 51.9828 50.096 51.8881C50.1092 51.7934 50.1492 51.7045 50.2113 51.6319L50.6993 51.0609L49.3693 51.8279C49.2639 51.8887 49.1399 51.909 49.0206 51.8849C48.9014 51.8608 48.7949 51.7941 48.7213 51.6972C48.6477 51.6003 48.612 51.4798 48.6208 51.3585C48.6297 51.2371 48.6825 51.1231 48.7693 51.0379L49.8003 50.0309L48.4703 50.7999C48.3638 50.867 48.2358 50.8914 48.112 50.8683C47.9883 50.8452 47.8778 50.7763 47.8026 50.6752C47.7275 50.5742 47.6932 50.4485 47.7067 50.3233C47.7202 50.1981 47.7804 50.0826 47.8753 49.9999L49.6003 48.3609L47.7003 49.4609C47.5931 49.522 47.467 49.5413 47.3463 49.515C47.2257 49.4888 47.1191 49.4188 47.047 49.3186C46.9748 49.2184 46.9423 49.0951 46.9557 48.9724C46.969 48.8497 47.0273 48.7362 47.1193 48.6539L48.9363 47.0449L47.0003 48.1549C46.8913 48.2177 46.7626 48.237 46.64 48.2091C46.5173 48.1813 46.4097 48.1082 46.3385 48.0045C46.2674 47.9007 46.2379 47.774 46.256 47.6495C46.2742 47.5251 46.3385 47.412 46.4363 47.3329L47.6113 46.3869L46.3953 47.0869C46.2877 47.1486 46.161 47.1681 46.0398 47.1416C45.9187 47.1151 45.8117 47.0445 45.7396 46.9435C45.6676 46.8426 45.6356 46.7184 45.65 46.5952C45.6643 46.472 45.724 46.3586 45.8173 46.2769L48.7173 43.7569L45.4423 45.6469C45.3318 45.7108 45.2011 45.73 45.0769 45.7006C44.9527 45.6713 44.8445 45.5955 44.7743 45.4889C44.7041 45.3823 44.6774 45.2529 44.6995 45.1272C44.7216 45.0016 44.791 44.8891 44.8933 44.8129L45.7633 44.1669L44.7393 44.7579C44.6302 44.8198 44.5018 44.8385 44.3796 44.8102C44.2574 44.7819 44.1503 44.7087 44.0795 44.6051C44.0088 44.5015 43.9795 44.375 43.9977 44.2509C44.0158 44.1268 44.0799 44.014 44.1773 43.9349L47.4773 41.3029L43.5773 43.5519C43.4667 43.6152 43.3361 43.634 43.2122 43.6042C43.0883 43.5745 42.9804 43.4986 42.9105 43.392C42.8407 43.2854 42.8142 43.1562 42.8365 43.0307C42.8587 42.9052 42.9281 42.793 43.0303 42.7169L45.4933 40.8999L42.4803 42.6399C42.3689 42.7041 42.2371 42.723 42.1122 42.6925C41.9873 42.6621 41.8789 42.5848 41.8096 42.4765C41.7402 42.3683 41.7152 42.2375 41.7397 42.1113C41.7643 41.9851 41.8364 41.8733 41.9413 41.7989L43.7853 40.4989L41.3853 41.8849C41.275 41.9486 41.1445 41.9677 41.0205 41.9384C40.8965 41.9092 40.7883 41.8337 40.7181 41.7273C40.6479 41.621 40.621 41.4919 40.6427 41.3664C40.6645 41.2408 40.7334 41.1283 40.8353 41.0519L45.9243 37.2459L39.5743 40.9099C39.4627 40.9739 39.3307 40.9925 39.2057 40.9617C39.0808 40.9309 38.9725 40.8531 38.9035 40.7445C38.8345 40.6359 38.8099 40.5049 38.835 40.3787C38.8601 40.2525 38.933 40.1408 39.0383 40.0669L43.0133 37.2999L37.9353 40.2299C37.8231 40.2928 37.691 40.31 37.5664 40.278C37.4418 40.246 37.3343 40.1672 37.2664 40.058C37.1984 39.9488 37.1751 39.8176 37.2013 39.6917C37.2276 39.5658 37.3014 39.4548 37.4073 39.3819L39.6073 37.9209L36.4463 39.7449C36.3339 39.8052 36.2026 39.8203 36.0794 39.787C35.9562 39.7537 35.8504 39.6746 35.7836 39.5658C35.7169 39.457 35.6943 39.3268 35.7205 39.2019C35.7466 39.077 35.8195 38.9668 35.9243 38.8939L36.7243 38.3729L34.9963 39.3729C34.8847 39.4369 34.7527 39.4555 34.6277 39.4247C34.5028 39.3939 34.3945 39.3161 34.3255 39.2075C34.2564 39.0989 34.2319 38.9679 34.257 38.8417C34.2821 38.7155 34.355 38.6038 34.4603 38.5299L42.9953 32.5879L32.1503 38.8439C32.0371 38.9086 31.9031 38.9265 31.7768 38.8938C31.6506 38.8611 31.5421 38.7804 31.4746 38.6689C31.407 38.5573 31.3857 38.4238 31.4151 38.2968C31.4446 38.1698 31.5225 38.0593 31.6323 37.9889L32.9553 37.1469L30.3763 38.6369C30.2628 38.7054 30.1267 38.7261 29.9979 38.6943C29.8692 38.6625 29.7584 38.5809 29.6898 38.4674C29.6212 38.3539 29.6006 38.2178 29.6324 38.089C29.6642 37.9603 29.7458 37.8494 29.8593 37.7809L30.4443 37.4129L28.5643 38.4999C28.4519 38.5638 28.3191 38.5817 28.1938 38.5499C28.0685 38.518 27.9605 38.4388 27.8923 38.329C27.8241 38.2191 27.8011 38.0871 27.8281 37.9607C27.8552 37.8343 27.9302 37.7232 28.0373 37.6509L39.8683 29.7569L24.8793 38.4079C24.7665 38.4699 24.6341 38.4861 24.5097 38.4529C24.3853 38.4198 24.2784 38.34 24.2114 38.23C24.1444 38.1201 24.1224 37.9886 24.1499 37.8628C24.1775 37.737 24.2525 37.6267 24.3593 37.5549L34.4093 31.1179L23.2803 37.5429C23.1675 37.6085 23.0334 37.6274 22.9068 37.5955C22.7802 37.5636 22.6711 37.4835 22.6028 37.3722C22.5345 37.261 22.5125 37.1274 22.5413 37.0001C22.5702 36.8728 22.6477 36.7618 22.7573 36.6909L37.1473 27.3149L23.2803 35.3209C23.1673 35.3813 23.0355 35.396 22.912 35.362C22.7885 35.328 22.6827 35.2479 22.6165 35.1383C22.5504 35.0286 22.5288 34.8977 22.5563 34.7726C22.5838 34.6475 22.6582 34.5377 22.7643 34.4659L31.0643 29.2329L23.2843 33.7249C23.1707 33.7889 23.0366 33.806 22.9106 33.7725C22.7846 33.7391 22.6766 33.6577 22.6097 33.5458C22.5428 33.434 22.5223 33.3003 22.5525 33.1735C22.5826 33.0467 22.6612 32.9367 22.7713 32.8669L26.8003 30.3599L23.2803 32.3909C23.1674 32.4552 23.0339 32.473 22.908 32.4405C22.7822 32.408 22.674 32.3279 22.6063 32.217C22.5385 32.1061 22.5166 31.9732 22.5452 31.8464C22.5738 31.7197 22.6506 31.609 22.7593 31.5379L35.7713 23.1379L23.2803 30.3499C23.1669 30.4123 23.0338 30.4284 22.9088 30.3947C22.7839 30.3609 22.6769 30.2801 22.6103 30.1691C22.5437 30.0581 22.5228 29.9256 22.5519 29.7995C22.581 29.6734 22.6578 29.5635 22.7663 29.4929L27.8173 26.3419L23.2803 28.9609C23.1668 29.0263 23.0321 29.0446 22.9052 29.0118C22.7784 28.9789 22.6695 28.8976 22.602 28.7853C22.5345 28.673 22.5138 28.5386 22.5443 28.4112C22.5749 28.2838 22.6542 28.1734 22.7653 28.1039L29.4373 23.9209L23.2803 27.4759C23.1667 27.5399 23.0326 27.557 22.9066 27.5235C22.7806 27.4901 22.6726 27.4087 22.6057 27.2968C22.5388 27.1849 22.5183 27.0513 22.5485 26.9245C22.5786 26.7977 22.6572 26.6877 22.7673 26.6179L26.6053 24.2309L23.2803 26.1509C23.1704 26.2131 23.041 26.2314 22.9181 26.2021C22.7952 26.1728 22.688 26.0981 22.618 25.993C22.5479 25.8878 22.5203 25.7601 22.5406 25.6354C22.5608 25.5108 22.6276 25.3984 22.7273 25.3209L27.7273 21.5079L23.2803 24.0729C23.1738 24.1377 23.0468 24.1603 22.9245 24.1364C22.8021 24.1124 22.6931 24.0436 22.6188 23.9434C22.5446 23.8432 22.5104 23.7189 22.5231 23.5949C22.5358 23.4708 22.5943 23.356 22.6873 23.2729L25.6763 20.4639L23.2763 21.8469C23.1744 21.906 23.055 21.9272 22.939 21.9069C22.823 21.8865 22.7179 21.8259 22.6422 21.7357C22.5666 21.6454 22.5252 21.5313 22.5254 21.4136C22.5256 21.2958 22.5673 21.1819 22.6433 21.0919L23.6693 19.8729L23.2763 20.0999C23.1894 20.15 23.0894 20.1728 22.9894 20.1653C22.8893 20.1579 22.7938 20.1205 22.7153 20.0581C22.6368 19.9956 22.5789 19.911 22.5491 19.8152C22.5193 19.7194 22.519 19.6168 22.5483 19.5209L22.7823 18.7519C22.705 18.7088 22.6406 18.646 22.5955 18.5699C22.5505 18.4938 22.5264 18.4071 22.5258 18.3186C22.5252 18.2302 22.5481 18.1432 22.5921 18.0664C22.6361 17.9897 22.6996 17.926 22.7763 17.8819L23.2763 17.5939C23.3637 17.5448 23.4637 17.5225 23.5636 17.53C23.6636 17.5375 23.7592 17.5743 23.8383 17.6359C23.9168 17.6983 23.9747 17.7829 24.0045 17.8787C24.0342 17.9744 24.0345 18.077 24.0053 18.1729L23.8743 18.5999L25.6333 17.5849C25.7352 17.5258 25.8546 17.5045 25.9706 17.5249C26.0866 17.5452 26.1917 17.6059 26.2674 17.6961C26.343 17.7864 26.3844 17.9004 26.3842 18.0182C26.384 18.136 26.3423 18.2499 26.2663 18.3399L25.2403 19.5589L28.9043 17.4429C29.0108 17.3781 29.1378 17.3555 29.2601 17.3794C29.3825 17.4034 29.4915 17.4722 29.5658 17.5724C29.64 17.6725 29.6742 17.7968 29.6615 17.9209C29.6488 18.0449 29.5903 18.1598 29.4973 18.2429L26.5093 21.0529L33.9653 16.7529C34.0752 16.6907 34.2046 16.6724 34.3275 16.7017C34.4504 16.731 34.5576 16.8057 34.6276 16.9108C34.6977 17.0159 34.7253 17.1437 34.705 17.2683C34.6848 17.393 34.618 17.5054 34.5183 17.5829L29.5183 21.3969L52.7203 7.99989C52.8335 7.9394 52.9657 7.92479 53.0894 7.95909C53.2132 7.99339 53.3189 8.07396 53.3849 8.18411C53.4508 8.29427 53.4719 8.42557 53.4436 8.55081C53.4154 8.67606 53.3401 8.78565 53.2333 8.85689L49.4003 11.2439L52.7253 9.32389C52.8388 9.25843 52.9735 9.24015 53.1004 9.27299C53.2272 9.30584 53.3361 9.38717 53.4036 9.49949C53.4711 9.61182 53.4918 9.74615 53.4613 9.87359C53.4307 10.001 53.3514 10.1114 53.2403 10.1809L46.5673 14.3639L52.7203 10.8099C52.8334 10.7503 52.965 10.7362 53.0881 10.7706C53.2112 10.805 53.3164 10.8852 53.3822 10.9947C53.448 11.1043 53.4694 11.2349 53.4418 11.3598C53.4143 11.4846 53.3401 11.5941 53.2343 11.6659L48.1833 14.8169L52.7203 12.1999C52.8332 12.1356 52.9667 12.1178 53.0926 12.1503C53.2184 12.1827 53.3266 12.2629 53.3944 12.3738C53.4621 12.4847 53.484 12.6176 53.4554 12.7443C53.4268 12.8711 53.3501 12.9818 53.2413 13.0529L40.2293 21.4529L52.7203 14.2389C52.8339 14.1749 52.968 14.1578 53.094 14.1912C53.22 14.2247 53.328 14.306 53.3949 14.4179C53.4618 14.5298 53.4823 14.6634 53.4521 14.7903C53.422 14.9171 53.3434 15.0271 53.2333 15.0969L49.2003 17.5999L52.7173 15.5689C52.8306 15.5054 52.9641 15.4885 53.0897 15.5217C53.2152 15.555 53.3229 15.6357 53.3899 15.747C53.457 15.8582 53.4781 15.9911 53.4489 16.1176C53.4196 16.2442 53.3423 16.3543 53.2333 16.4249L44.9333 21.6569L52.7133 17.1659C52.8259 17.1039 52.9579 17.0876 53.0822 17.1204C53.2064 17.1532 53.3132 17.2326 53.3805 17.3421C53.4478 17.4515 53.4703 17.5827 53.4435 17.7083C53.4166 17.834 53.3424 17.9445 53.2363 18.0169L38.8463 27.3999L52.7203 19.3929C52.833 19.3325 52.9646 19.3177 53.0879 19.3513C53.2112 19.385 53.317 19.4646 53.3834 19.5738C53.4499 19.683 53.472 19.8135 53.4452 19.9385C53.4184 20.0635 53.3447 20.1735 53.2393 20.2459L43.1903 26.6819L52.7203 21.1819C52.8324 21.1207 52.9637 21.1047 53.0872 21.1372C53.2108 21.1698 53.3172 21.2483 53.3846 21.3568C53.452 21.4653 53.4753 21.5955 53.4498 21.7207C53.4243 21.8458 53.3518 21.9565 53.2473 22.0299L41.4213 29.9209L52.7203 23.3999C52.8336 23.3364 52.9671 23.3195 53.0927 23.3527C53.2182 23.386 53.3259 23.4667 53.3929 23.578C53.46 23.6892 53.4811 23.8221 53.4519 23.9486C53.4226 24.0752 53.3453 24.1854 53.2363 24.2559L52.6523 24.6239L52.7203 24.5849C52.8335 24.5202 52.9675 24.5023 53.0938 24.535C53.22 24.5677 53.3285 24.6484 53.396 24.7599C53.4636 24.8714 53.4849 25.005 53.4555 25.132C53.426 25.259 53.3481 25.3695 53.2383 25.4399L51.9003 26.2899L52.7203 25.8169C52.8319 25.7528 52.9639 25.7343 53.0889 25.7651C53.2138 25.7959 53.3221 25.8737 53.3911 25.9823C53.4602 26.0909 53.4847 26.2219 53.4596 26.3481C53.4345 26.4743 53.3617 26.586 53.2563 26.6599L44.7243 32.5999L52.7243 27.9829C52.837 27.9199 52.9698 27.903 53.0947 27.9356C53.2196 27.9683 53.3271 28.0481 53.3945 28.1582C53.462 28.2683 53.4842 28.4002 53.4566 28.5264C53.429 28.6525 53.3536 28.7631 53.2463 28.8349L52.4563 29.3489L52.7243 29.1939C52.8367 29.13 52.9695 29.1121 53.0948 29.1439C53.2201 29.1758 53.3281 29.255 53.3963 29.3648C53.4645 29.4747 53.4875 29.6066 53.4605 29.7331C53.4334 29.8595 53.3585 29.9705 53.2513 30.0429L51.0513 31.5089L52.7263 30.5419C52.8379 30.4778 52.9699 30.4593 53.0949 30.4901C53.2198 30.5209 53.3281 30.5987 53.3971 30.7073C53.4662 30.8159 53.4907 30.9469 53.4656 31.0731C53.4405 31.1993 53.3677 31.311 53.2623 31.3849L49.2833 34.1559L52.7263 32.1689C52.8367 32.1052 52.9672 32.086 53.0911 32.1153C53.2151 32.1446 53.3233 32.2201 53.3935 32.3264C53.4637 32.4328 53.4907 32.5619 53.4689 32.6874C53.4471 32.8129 53.3782 32.9254 53.2763 33.0019L48.1863 36.8079L52.7263 34.1879C52.8374 34.126 52.968 34.1088 53.0914 34.1398C53.2148 34.1708 53.3217 34.2476 53.3904 34.3547C53.4591 34.4618 53.4844 34.591 53.4612 34.7161C53.4379 34.8411 53.3679 34.9527 53.2653 35.0279L51.4303 36.3279L52.7303 35.5799C52.8409 35.5165 52.9715 35.4978 53.0954 35.5275C53.2193 35.5572 53.3272 35.6332 53.3971 35.7398C53.4669 35.8464 53.4934 35.9756 53.4711 36.1011C53.4489 36.2266 53.3795 36.3388 53.2773 36.4149L50.8003 38.2299L52.7203 37.1219C52.8294 37.0599 52.9578 37.0413 53.08 37.0696C53.2022 37.0979 53.3094 37.1711 53.3801 37.2747C53.4508 37.3783 53.4801 37.5047 53.4619 37.6289C53.4438 37.753 53.3797 37.8658 53.2823 37.9449L49.9873 40.5769L52.7203 38.9999C52.8308 38.9356 52.9617 38.9161 53.0862 38.9453C53.2106 38.9746 53.3191 39.0504 53.3894 39.1571C53.4597 39.2639 53.4864 39.3936 53.4641 39.5194C53.4417 39.6453 53.372 39.7578 53.2693 39.8339L52.4033 40.4779L52.7203 40.2949C52.8278 40.2343 52.9538 40.2156 53.0742 40.2424C53.1946 40.2691 53.3009 40.3394 53.3726 40.4398C53.4443 40.5402 53.4764 40.6635 53.4627 40.7861C53.449 40.9087 53.3904 41.0219 53.2983 41.1039L50.3983 43.6249L52.7213 42.2849C52.8303 42.2233 52.9584 42.2048 53.0804 42.233C53.2023 42.2613 53.3092 42.3343 53.38 42.4376C53.4507 42.5409 53.4801 42.6669 53.4624 42.7908C53.4447 42.9148 53.3811 43.0276 53.2843 43.1069L52.1103 44.0519L52.7213 43.6999C52.8286 43.6388 52.9546 43.6195 53.0753 43.6457C53.1959 43.672 53.3025 43.742 53.3747 43.8422C53.4468 43.9423 53.4793 44.0657 53.4659 44.1884C53.4526 44.3111 53.3943 44.4246 53.3023 44.5069L51.4853 46.1159L52.7203 45.3999C52.8269 45.334 52.9543 45.3105 53.0773 45.334C53.2004 45.3576 53.3101 45.4265 53.3848 45.5271C53.4595 45.6276 53.4937 45.7526 53.4806 45.8772C53.4676 46.0018 53.4082 46.117 53.3143 46.1999L51.5923 47.8399L52.7203 47.1889C52.8257 47.1281 52.9497 47.1078 53.069 47.1319C53.1883 47.156 53.2947 47.2227 53.3683 47.3196C53.4419 47.4165 53.4776 47.5369 53.4688 47.6583C53.4599 47.7797 53.4072 47.8937 53.3203 47.9789L52.2943 48.9849L52.7213 48.7389C52.8235 48.6799 52.9432 48.6589 53.0593 48.6797C53.1754 48.7004 53.2805 48.7616 53.3559 48.8523C53.4313 48.943 53.4722 49.0575 53.4713 49.1754C53.4705 49.2934 53.428 49.4072 53.3513 49.4969L52.7333 50.2199C52.8431 50.2203 52.9496 50.2568 53.0366 50.3237C53.1235 50.3907 53.1861 50.4843 53.2145 50.5903C53.2429 50.6963 53.2357 50.8088 53.1939 50.9102C53.1521 51.0117 53.0781 51.0966 52.9833 51.1519L50.8413 52.3899C50.7655 52.4343 50.6791 52.4574 50.5913 52.4569Z" fill="#F7D97C"/>
<path d="M11.0997 39.4701C10.9947 39.4701 10.8925 39.4371 10.8073 39.3757C10.7222 39.3143 10.6585 39.2278 10.6253 39.1282C10.5921 39.0286 10.5911 38.9212 10.6224 38.821C10.6537 38.7208 10.7157 38.633 10.7997 38.5701L17.6597 33.4831L7.93968 39.0921C7.82682 39.1577 7.69278 39.1766 7.56619 39.1447C7.4396 39.1128 7.3305 39.0327 7.2622 38.9214C7.19391 38.8102 7.17183 38.6766 7.2007 38.5493C7.22956 38.422 7.30708 38.311 7.41668 38.2401L9.38468 36.9561L6.98468 38.3431C6.87273 38.406 6.74085 38.4235 6.61637 38.3919C6.4919 38.3602 6.38437 38.2819 6.3161 38.1731C6.24782 38.0643 6.22402 37.9334 6.24963 37.8076C6.27525 37.6817 6.34831 37.5705 6.45368 37.4971L13.5467 32.6681L6.30868 36.8451C6.19575 36.9094 6.06223 36.9272 5.93642 36.8947C5.8106 36.8622 5.70236 36.7821 5.63463 36.6712C5.56689 36.5603 5.54499 36.4274 5.57356 36.3006C5.60213 36.1739 5.67892 36.0632 5.78768 35.9921L7.62368 34.8081L6.27968 35.5831C6.16764 35.6481 6.03475 35.6671 5.90898 35.6361C5.78321 35.6051 5.67439 35.5265 5.60543 35.4168C5.53648 35.3071 5.51277 35.175 5.5393 35.0482C5.56583 34.9214 5.64054 34.8099 5.74768 34.7371L13.7407 29.2801L6.27968 33.5881C6.1673 33.652 6.03452 33.6699 5.90922 33.638C5.78392 33.6062 5.67584 33.527 5.60765 33.4172C5.53947 33.3073 5.51648 33.1753 5.54352 33.0489C5.57056 32.9225 5.64552 32.8114 5.75268 32.7391L11.5787 28.8631L6.27868 31.9221C6.16706 31.9861 6.03506 32.0047 5.91011 31.9739C5.78517 31.9431 5.67691 31.8653 5.60787 31.7567C5.53882 31.6481 5.5143 31.5171 5.53941 31.3909C5.56452 31.2647 5.63733 31.153 5.74268 31.0791L15.0267 24.6111L6.27968 29.6611C6.16823 29.7243 6.03675 29.7423 5.91239 29.7114C5.78804 29.6806 5.68029 29.6031 5.61138 29.4951C5.54248 29.387 5.51769 29.2567 5.54212 29.1309C5.56655 29.0051 5.63834 28.8935 5.74268 28.8191L13.7707 23.2001L6.27968 27.5241C6.16933 27.5878 6.03883 27.6069 5.91483 27.5776C5.79084 27.5484 5.6827 27.4728 5.61249 27.3665C5.54229 27.2602 5.51533 27.1311 5.53711 27.0056C5.55889 26.88 5.62776 26.7675 5.72968 26.6911L12.4417 21.6701L6.27968 25.2281C6.17032 25.2907 6.04134 25.3098 5.91855 25.2814C5.79575 25.253 5.6882 25.1793 5.61742 25.0751C5.54664 24.9708 5.51784 24.8436 5.5368 24.719C5.55577 24.5944 5.62108 24.4816 5.71968 24.4031L10.1857 20.8621L6.27968 23.1161C6.17414 23.1778 6.04965 23.1987 5.92976 23.1748C5.80986 23.1509 5.70286 23.084 5.62898 22.9866C5.5551 22.8892 5.51947 22.7681 5.52881 22.6462C5.53815 22.5243 5.59182 22.4101 5.67968 22.3251L8.61468 19.4721L6.27968 20.8201C6.17908 20.8775 6.06164 20.8983 5.94744 20.8788C5.83324 20.8593 5.72937 20.8007 5.65356 20.7131C5.57776 20.6255 5.53473 20.5142 5.53183 20.3984C5.52893 20.2826 5.56635 20.1694 5.63768 20.0781L6.69968 18.7291C6.59843 18.7464 6.49431 18.7324 6.40122 18.689C6.30814 18.6455 6.2305 18.5748 6.17868 18.4861C6.11261 18.3715 6.09467 18.2353 6.12878 18.1075C6.16289 17.9796 6.24628 17.8706 6.36068 17.8041L8.41068 16.6201C8.51129 16.5621 8.62897 16.5409 8.7435 16.5601C8.85804 16.5794 8.96229 16.638 9.03836 16.7258C9.11442 16.8135 9.15755 16.925 9.16035 17.0412C9.16315 17.1573 9.12543 17.2707 9.05368 17.3621L8.03868 18.6501L11.5997 16.6001C11.7052 16.5384 11.8297 16.5175 11.9496 16.5414C12.0695 16.5652 12.1765 16.6322 12.2504 16.7296C12.3242 16.827 12.3599 16.9481 12.3505 17.0699C12.3412 17.1918 12.2875 17.3061 12.1997 17.3911L9.25868 20.2421L15.5727 16.6001C15.6819 16.5378 15.8106 16.5189 15.9331 16.5473C16.0556 16.5756 16.1629 16.6491 16.2337 16.753C16.3044 16.857 16.3334 16.9837 16.3149 17.1081C16.2964 17.2325 16.2317 17.3453 16.1337 17.4241L11.6687 20.9641L19.2287 16.6001C19.339 16.5364 19.4695 16.5172 19.5935 16.5465C19.7175 16.5758 19.8257 16.6513 19.8959 16.7576C19.9661 16.864 19.993 16.9931 19.9712 17.1186C19.9495 17.2441 19.8806 17.3566 19.7787 17.4331L13.0677 22.4531L23.2067 16.6001C23.3179 16.539 23.4482 16.5225 23.5711 16.5539C23.6941 16.5853 23.8005 16.6623 23.8688 16.7692C23.9371 16.8762 23.9622 17.0051 23.9389 17.1299C23.9157 17.2546 23.8459 17.3659 23.7437 17.4411L15.7157 23.0601L24.7157 17.8601C24.8273 17.796 24.9593 17.7775 25.0842 17.8083C25.2092 17.8391 25.3174 17.9169 25.3865 18.0255C25.4555 18.1341 25.48 18.2651 25.4549 18.3913C25.4298 18.5175 25.357 18.6292 25.2517 18.7031L15.9687 25.1711L24.7157 20.1211C24.8281 20.0572 24.9608 20.0393 25.0861 20.0711C25.2114 20.103 25.3195 20.1822 25.3877 20.292C25.4559 20.4018 25.4789 20.5338 25.4518 20.6603C25.4248 20.7867 25.3498 20.8977 25.2427 20.9701L19.4247 24.8411L24.7157 21.7861C24.8277 21.7211 24.9606 21.7021 25.0864 21.7331C25.2121 21.7641 25.321 21.8427 25.3899 21.9524C25.4589 22.062 25.4826 22.1942 25.4561 22.3209C25.4295 22.4477 25.3548 22.5593 25.2477 22.6321L17.2477 28.0931L24.7147 23.7821C24.8275 23.72 24.9599 23.7039 25.0843 23.737C25.2087 23.7702 25.3155 23.85 25.3826 23.9599C25.4496 24.0699 25.4716 24.2014 25.444 24.3272C25.4165 24.4529 25.3415 24.5632 25.2347 24.6351L23.3997 25.8221L24.7187 25.0621C24.8304 25.0014 24.961 24.9855 25.084 25.0177C25.207 25.0499 25.3131 25.1278 25.3807 25.2354C25.4483 25.343 25.4724 25.4724 25.4481 25.5972C25.4238 25.7219 25.3528 25.8328 25.2497 25.9071L18.1597 30.7351L24.7197 26.9481C24.8325 26.8825 24.9666 26.8636 25.0932 26.8955C25.2198 26.9273 25.3289 27.0075 25.3972 27.1187C25.4654 27.23 25.4875 27.3636 25.4587 27.4909C25.4298 27.6182 25.3523 27.7292 25.2427 27.8001L23.2787 29.0811L24.7197 28.2501C24.8301 28.1873 24.9603 28.1689 25.0838 28.1986C25.2073 28.2284 25.3149 28.304 25.3847 28.4102C25.4544 28.5164 25.4812 28.6451 25.4594 28.7703C25.4377 28.8954 25.3691 29.0076 25.2677 29.0841L18.4077 34.1701L24.7197 30.5261C24.8302 30.4618 24.9611 30.4423 25.0855 30.4715C25.21 30.5008 25.3185 30.5766 25.3888 30.6833C25.4591 30.7901 25.4858 30.9197 25.4634 31.0456C25.4411 31.1715 25.3714 31.284 25.2687 31.3601L21.4077 34.2321L24.7197 32.3201C24.8281 32.2566 24.9565 32.2363 25.0792 32.2632C25.202 32.2901 25.3101 32.3622 25.382 32.4652C25.454 32.5682 25.4846 32.6945 25.4677 32.819C25.4507 32.9435 25.3875 33.0571 25.2907 33.1371L22.2797 35.6551L24.7197 34.2471C24.8262 34.1833 24.9527 34.1615 25.0744 34.1858C25.1962 34.2101 25.3045 34.2789 25.3783 34.3787C25.4522 34.4785 25.4863 34.6022 25.474 34.7258C25.4616 34.8493 25.4038 34.9638 25.3117 35.0471L23.8997 36.3741L24.7237 35.8981C24.8155 35.8467 24.9212 35.8255 25.0258 35.8377C25.1303 35.8499 25.2284 35.8947 25.3059 35.9659C25.3835 36.037 25.4366 36.1308 25.4578 36.2339C25.4789 36.337 25.467 36.4442 25.4237 36.5401L24.8427 37.8061C24.9419 37.7912 25.0433 37.8065 25.1338 37.85C25.2242 37.8935 25.2994 37.9632 25.3497 38.0501C25.4157 38.1648 25.4335 38.3011 25.3991 38.4289C25.3648 38.5568 25.2812 38.6658 25.1667 38.7321L24.0067 39.4021C23.9149 39.4533 23.8094 39.4743 23.705 39.4621C23.6007 39.4499 23.5028 39.4052 23.4253 39.3342C23.3478 39.2633 23.2947 39.1697 23.2734 39.0668C23.2521 38.964 23.2637 38.857 23.3067 38.7611L23.8627 37.5501L20.6487 39.4001C20.5422 39.4629 20.4161 39.4839 20.295 39.4593C20.1738 39.4346 20.0661 39.3659 19.9927 39.2664C19.9192 39.167 19.8852 39.0438 19.8972 38.9208C19.9092 38.7977 19.9664 38.6835 20.0577 38.6001L21.4737 37.2701L17.7887 39.4001C17.6804 39.4622 17.5528 39.4815 17.431 39.4542C17.3092 39.427 17.202 39.3552 17.1304 39.2529C17.0588 39.1507 17.0281 39.0253 17.0443 38.9016C17.0604 38.7778 17.1223 38.6646 17.2177 38.5841L20.2287 36.0651L14.4517 39.4001C14.3412 39.4644 14.2103 39.4839 14.0858 39.4547C13.9614 39.4254 13.8529 39.3496 13.7826 39.2428C13.7123 39.1361 13.6856 39.0064 13.7079 38.8806C13.7302 38.7547 13.7999 38.6422 13.9027 38.5661L17.7627 35.6951L11.3457 39.3951C11.2718 39.4414 11.1869 39.4673 11.0997 39.4701Z" fill="#FCB01A"/>
<path d="M0.322367 34.623C0.794367 36.823 3.46137 36.589 5.32737 36.523C5.41819 37.2706 5.76307 37.9643 6.30427 38.4881C6.84548 39.0118 7.55016 39.3337 8.30037 39.4C9.50037 44.589 8.50037 50.81 11.2194 55.4C12.5914 56.61 14.4424 56.382 16.1324 56.382C24.0194 57.917 19.1454 48.619 19.4104 44.297C23.1244 44.814 25.4204 43.097 24.7234 39.214C25.0798 39.0505 25.3678 38.7675 25.5374 38.414C32.6234 38.519 40.6064 39.752 44.8614 46.022C46.4954 48.43 47.9514 53.93 51.9884 52.075C55.7654 48.915 52.8564 39.236 53.7234 34.351C59.2424 34.38 60.3024 30.844 59.7294 26.032C60.1764 22.504 56.4294 21.814 53.7234 21.59V6.09196C53.0114 1.79196 47.5614 3.81596 46.7084 7.01496C43.2294 15.38 34.0274 17.864 25.6704 17.594C24.4964 15.523 21.0584 16.941 19.0324 16.542C14.7924 17.325 7.22237 14.263 5.37537 19.479C1.66337 18.87 -0.430633 20.831 0.268367 24.535C0.384367 27.888 0.0533672 31.3 0.322367 34.623ZM19.0824 55.57C17.1824 55.611 14.4664 56.092 12.7444 54.995C9.88737 50.678 11.0274 44.474 9.80737 39.466C12.3074 39.48 14.8134 39.524 17.3194 39.541C17.7624 44.847 19.1004 50.343 19.0824 55.57ZM22.3304 43.7H22.3244C22.3244 43.7 22.3274 43.694 22.3304 43.7ZM23.2714 42.159C23.2506 42.4728 23.1539 42.7769 22.9894 43.045C22.825 43.3132 22.5977 43.5372 22.3274 43.698C21.3274 43.738 20.3334 43.69 19.3364 43.706L18.8174 39.55C20.3064 39.55 21.7934 39.53 23.2764 39.473C23.2594 40.362 23.3104 41.261 23.2714 42.154V42.159ZM56.0004 23.028C59.5204 23.861 58.0194 28.543 58.1934 31.186C57.7144 33.298 55.3824 33.078 53.7204 33.418V22.648C54.4854 22.771 55.2464 22.89 56.0004 23.028ZM43.0904 13.652C46.3104 12.652 49.6534 -0.460041 52.2724 6.47896C52.2574 20.928 52.2924 35.379 52.2724 49.816C50.7354 55 47.3504 47.327 46.2924 45.582C41.8354 38.894 33.1844 37.673 25.7244 37.605C25.7554 31.205 25.6954 24.797 25.7444 18.39C31.7314 18.294 38.2864 17.468 43.0944 13.652H43.0904ZM9.12737 17.457C31.0494 17.249 22.7524 14.934 24.2724 38.077C24.2724 38.646 24.2384 38.543 23.7064 38.543H9.26937C5.99437 38.378 6.72837 34.114 6.72837 31.904C7.51137 28.454 4.58937 17.848 9.12737 17.457ZM1.73237 21.982C1.67537 19.967 3.95437 20.587 5.27937 20.505C5.26037 25.505 5.27937 30.499 5.27237 35.495C4.00037 35.405 2.16737 35.925 1.77237 34.235C1.61637 30.192 1.70037 26.052 1.73237 21.982Z" fill="#262626"/>
</svg>
