<svg width="60" height="60" viewBox="0 0 60 60" fill="none" xmlns="http://www.w3.org/2000/svg">
<g clip-path="url(#clip0_529_345)">
<path d="M14.4885 19.4891C14.3787 19.4887 14.2722 19.4523 14.1852 19.3853C14.0983 19.3184 14.0357 19.2247 14.0073 19.1187C13.9789 19.0127 13.9861 18.9003 14.0279 18.7988C14.0697 18.6973 14.1437 18.6124 14.2385 18.5571L16.6855 17.1441C16.7998 17.0843 16.9327 17.071 17.0566 17.107C17.1804 17.1429 17.2856 17.2253 17.3501 17.3369C17.4147 17.4486 17.4336 17.5809 17.4029 17.7061C17.3722 17.8314 17.2943 17.9399 17.1855 18.0091L14.7385 19.4221C14.6626 19.4663 14.5763 19.4894 14.4885 19.4891Z" fill="#F2C32F"/>
<path d="M6.29963 42.4701C6.19705 42.47 6.09699 42.4384 6.01301 42.3795C5.92902 42.3206 5.86518 42.2373 5.83013 42.1409C5.79509 42.0445 5.79054 41.9397 5.8171 41.8406C5.84367 41.7415 5.90006 41.653 5.97863 41.5871L9.27863 38.8221L4.61863 41.5121C4.50742 41.5755 4.37611 41.5939 4.25177 41.5634C4.12743 41.5329 4.01952 41.4558 3.95029 41.3481C3.88106 41.2404 3.85578 41.1103 3.87965 40.9845C3.90353 40.8587 3.97475 40.7469 4.07863 40.6721L5.14663 39.9121L4.28863 40.4061C4.17726 40.4703 4.04545 40.4891 3.92055 40.4587C3.79565 40.4283 3.68726 40.3509 3.6179 40.2427C3.54853 40.1345 3.52352 40.0037 3.54805 39.8775C3.57258 39.7513 3.64477 39.6394 3.74963 39.5651L4.79263 38.8281L4.28663 39.1201C4.17642 39.1832 4.04631 39.202 3.92272 39.1727C3.79913 39.1434 3.69132 39.0682 3.62119 38.9623C3.55106 38.8564 3.52386 38.7278 3.54511 38.6026C3.56637 38.4773 3.63448 38.3649 3.73563 38.2881L7.21363 35.6621L4.28363 37.3531C4.17378 37.4161 4.0441 37.4351 3.92078 37.4063C3.79746 37.3774 3.68969 37.3028 3.61923 37.1976C3.54877 37.0923 3.52087 36.9643 3.54118 36.8393C3.56149 36.7143 3.62848 36.6016 3.72863 36.5241L7.83463 33.3451L4.27263 35.4001C4.16251 35.4641 4.03209 35.4837 3.90801 35.4549C3.78392 35.4261 3.67553 35.3509 3.60495 35.2449C3.53437 35.1388 3.50694 35.0098 3.52825 34.8842C3.54956 34.7586 3.61801 34.6459 3.71963 34.5691L7.51963 31.6691L4.27063 33.5371C4.16004 33.6004 4.02945 33.6191 3.90552 33.5894C3.78159 33.5597 3.67369 33.4838 3.60386 33.3772C3.53402 33.2706 3.50753 33.1413 3.52979 33.0159C3.55205 32.8904 3.62138 32.7781 3.72363 32.7021L6.52863 30.6301L4.26763 31.9361C4.15784 32.0015 4.02715 32.0225 3.9024 31.9946C3.77766 31.9667 3.66833 31.8921 3.5969 31.7861C3.52546 31.6801 3.49734 31.5507 3.5183 31.4246C3.53927 31.2985 3.60773 31.1853 3.70963 31.1081L7.95463 27.8081L4.26563 29.9381C4.15551 30.0021 4.02509 30.0217 3.90101 29.9929C3.77692 29.9641 3.66853 29.8889 3.59795 29.7829C3.52737 29.6768 3.49994 29.5478 3.52125 29.4222C3.54256 29.2966 3.61101 29.1839 3.71263 29.1071L7.35363 26.3421L4.26263 28.1211C4.15382 28.1814 4.02644 28.199 3.90537 28.1704C3.78429 28.1418 3.67822 28.0691 3.60787 27.9665C3.53751 27.8639 3.50793 27.7388 3.5249 27.6156C3.54186 27.4923 3.60416 27.3798 3.69963 27.3001L8.05663 23.8911L4.25963 26.0801C4.14919 26.1429 4.01899 26.1612 3.89548 26.1315C3.77197 26.1018 3.66441 26.0261 3.59465 25.92C3.52488 25.8138 3.49815 25.6851 3.51988 25.5599C3.54161 25.4347 3.61016 25.3225 3.71163 25.2461L9.41162 21.0131L4.25663 23.9871C4.14531 24.0474 4.01527 24.0632 3.89272 24.0314C3.77018 23.9996 3.66428 23.9225 3.59638 23.8156C3.52848 23.7088 3.50365 23.5801 3.5269 23.4557C3.55014 23.3312 3.61973 23.2202 3.72163 23.1451L5.79963 21.7001L4.25963 22.5891C4.14951 22.6531 4.01909 22.6727 3.89501 22.6439C3.77092 22.6151 3.66253 22.5399 3.59195 22.4339C3.52137 22.3278 3.49394 22.1988 3.51525 22.0732C3.53656 21.9476 3.60501 21.8349 3.70663 21.7581L8.16163 18.3731L4.26163 20.6271C4.15218 20.6889 4.02346 20.7072 3.9011 20.6784C3.77874 20.6496 3.67172 20.5758 3.60135 20.4716C3.53098 20.3675 3.50243 20.2406 3.52138 20.1164C3.54034 19.9921 3.6054 19.8795 3.70363 19.8011L7.69963 16.6731L2.97163 19.4001C2.86192 19.4627 2.73257 19.4815 2.60959 19.4526C2.48661 19.4238 2.37911 19.3494 2.30869 19.2446C2.23827 19.1397 2.21015 19.012 2.22999 18.8873C2.24983 18.7625 2.31615 18.6499 2.41563 18.5721L6.35863 15.5241L1.41763 18.3791C1.30695 18.4415 1.17665 18.4595 1.0532 18.4293C0.929754 18.3992 0.822422 18.3231 0.753021 18.2167C0.683621 18.1102 0.65736 17.9813 0.679576 17.8562C0.701793 17.7311 0.770819 17.6191 0.872626 17.5431L3.81763 15.3921L1.59963 16.6701C1.4889 16.734 1.35787 16.7531 1.23348 16.7235C1.1091 16.6938 1.00081 16.6176 0.930883 16.5105C0.860958 16.4035 0.834712 16.2737 0.857542 16.1479C0.880372 16.022 0.950543 15.9097 1.05363 15.8341L3.75363 13.8511C3.65768 13.8453 3.56544 13.8119 3.48795 13.755C3.41046 13.6982 3.35101 13.6202 3.31672 13.5304C3.28242 13.4406 3.27474 13.3428 3.29459 13.2487C3.31444 13.1547 3.36097 13.0684 3.42863 13.0001L7.15263 9.26607C7.10413 9.21006 7.06856 9.14407 7.04842 9.07278C7.02828 9.00149 7.02407 8.92664 7.0361 8.85354C7.04812 8.78044 7.07608 8.71088 7.11799 8.64979C7.15991 8.58871 7.21475 8.53759 7.27863 8.50007L8.83463 7.60007C8.93966 7.5417 9.0622 7.5231 9.17983 7.54769C9.29745 7.57228 9.40228 7.63841 9.47514 7.73397C9.54799 7.82953 9.58399 7.94813 9.57655 8.06806C9.56911 8.188 9.51873 8.30124 9.43463 8.38707L6.80663 11.0281L10.5366 8.87507C10.6474 8.8111 10.7784 8.79199 10.9028 8.82166C11.0272 8.85134 11.1354 8.92754 11.2054 9.0346C11.2753 9.14167 11.3015 9.27146 11.2787 9.39728C11.2559 9.5231 11.1857 9.6354 11.0826 9.71107L8.97163 11.2621L11.3806 9.87107C11.4913 9.80861 11.6216 9.79063 11.745 9.8208C11.8685 9.85096 11.9758 9.92699 12.0452 10.0334C12.1146 10.1399 12.1409 10.2688 12.1187 10.3939C12.0965 10.519 12.0274 10.631 11.9256 10.7071L8.98063 12.8581L12.2936 10.9461C12.4033 10.8835 12.5327 10.8647 12.6557 10.8935C12.7786 10.9224 12.8861 10.9967 12.9566 11.1016C13.027 11.2065 13.0551 11.3341 13.0353 11.4588C13.0154 11.5836 12.9491 11.6962 12.8496 11.7741L8.90563 14.8221L13.3876 12.2351C13.4972 12.1729 13.6262 12.1543 13.7489 12.1831C13.8715 12.212 13.9788 12.2861 14.0492 12.3906C14.1196 12.4951 14.1479 12.6223 14.1285 12.7468C14.1091 12.8713 14.0435 12.9839 13.9446 13.0621L9.93962 16.1911L14.5066 13.5561C14.6167 13.492 14.7472 13.4724 14.8712 13.5012C14.9953 13.5301 15.1037 13.6052 15.1743 13.7113C15.2449 13.8173 15.2723 13.9463 15.251 14.0719C15.2297 14.1975 15.1612 14.3102 15.0596 14.3871L10.6066 17.7701L15.6246 14.8701C15.7362 14.8077 15.8673 14.7905 15.9912 14.8218C16.1151 14.8532 16.2222 14.9308 16.2907 15.0386C16.3591 15.1465 16.3837 15.2765 16.3593 15.4019C16.335 15.5273 16.2635 15.6387 16.1596 15.7131L14.0846 17.1551L16.4066 15.8151C16.5171 15.7523 16.6473 15.7339 16.7708 15.7636C16.8943 15.7934 17.0018 15.869 17.0716 15.9752C17.1414 16.0813 17.1681 16.2101 17.1464 16.3352C17.1246 16.4604 17.0561 16.5726 16.9546 16.6491L11.2546 20.8841L13.7186 19.4621C13.8281 19.4002 13.9568 19.3819 14.0792 19.4107C14.2015 19.4395 14.3085 19.5133 14.3789 19.6175C14.4493 19.7217 14.4778 19.8485 14.4589 19.9728C14.4399 20.097 14.3748 20.2096 14.2766 20.2881L9.92062 23.7001L13.7206 21.5081C13.8307 21.4454 13.9604 21.4269 14.0837 21.4562C14.2069 21.4855 14.3144 21.5605 14.3845 21.666C14.4545 21.7714 14.482 21.8996 14.4612 22.0245C14.4404 22.1495 14.3731 22.2619 14.2726 22.3391L10.6346 25.1001L13.7196 23.3201C13.8292 23.2579 13.9582 23.2393 14.0809 23.2681C14.2035 23.297 14.3108 23.3711 14.3812 23.4756C14.4516 23.5801 14.4799 23.7073 14.4605 23.8318C14.4411 23.9563 14.3755 24.0689 14.2766 24.1471L10.0316 27.4531L13.7196 25.3241C13.8302 25.2607 13.9608 25.242 14.0847 25.2717C14.2087 25.3014 14.3166 25.3773 14.3864 25.4839C14.4562 25.5905 14.4827 25.7198 14.4605 25.8453C14.4382 25.9707 14.3689 26.083 14.2666 26.1591L11.4666 28.2291L13.7226 26.9291C13.8326 26.8669 13.962 26.8486 14.0848 26.8779C14.2077 26.9072 14.3149 26.9819 14.385 27.087C14.455 27.1921 14.4827 27.3198 14.4624 27.4445C14.4421 27.5692 14.3754 27.6816 14.2756 27.7591L10.4756 30.6591L13.7196 28.7861C13.8293 28.7247 13.9581 28.7068 14.0803 28.7361C14.2025 28.7653 14.3093 28.8395 14.3793 28.9439C14.4492 29.0483 14.4773 29.1753 14.4579 29.2995C14.4385 29.4236 14.3731 29.536 14.2746 29.6141L10.1656 32.8001L13.7196 30.7491C13.8298 30.6859 13.9599 30.6671 14.0835 30.6964C14.2071 30.7257 14.3149 30.8009 14.3851 30.9068C14.4552 31.0127 14.4824 31.1413 14.4611 31.2666C14.4399 31.3918 14.3718 31.5042 14.2706 31.5811L10.7916 34.2081L13.7196 32.5191C13.8308 32.4572 13.9613 32.44 14.0847 32.4709C14.2081 32.5019 14.315 32.5788 14.3837 32.6859C14.4524 32.7929 14.4777 32.9222 14.4545 33.0472C14.4313 33.1723 14.3612 33.2838 14.2586 33.3591L13.2246 34.0911L13.7246 33.8051C13.8358 33.7416 13.9671 33.7233 14.0915 33.7538C14.2158 33.7843 14.3237 33.8613 14.393 33.969C14.4622 34.0767 14.4875 34.2068 14.4636 34.3326C14.4397 34.4584 14.3685 34.5702 14.2646 34.6451L13.1916 35.4091L13.7246 35.1021C13.8328 35.0413 13.9597 35.0228 14.0806 35.0503C14.2016 35.0779 14.308 35.1494 14.3792 35.251C14.4504 35.3526 14.4813 35.477 14.4658 35.6001C14.4504 35.7232 14.3897 35.8362 14.2956 35.9171L10.9996 38.6801L13.7246 37.1071C13.8318 37.0461 13.9576 37.0269 14.0781 37.0531C14.1986 37.0792 14.3051 37.149 14.3773 37.2489C14.4494 37.3489 14.4821 37.472 14.4691 37.5945C14.456 37.7171 14.3982 37.8305 14.3066 37.9131L12.9836 39.0921L13.7246 38.6641C13.8226 38.6076 13.9367 38.5861 14.0485 38.6029C14.1603 38.6197 14.2631 38.6738 14.3401 38.7566C14.4171 38.8393 14.4639 38.9457 14.4727 39.0583C14.4815 39.171 14.4519 39.2834 14.3886 39.3771L13.6176 40.5171C13.7159 40.5037 13.8159 40.5199 13.9049 40.5635C13.9939 40.6072 14.068 40.6763 14.1176 40.7621C14.1837 40.8767 14.2016 41.0128 14.1675 41.1407C14.1334 41.2685 14.05 41.3776 13.9356 41.4441L12.2796 42.4001C12.1818 42.4561 12.0679 42.4774 11.9564 42.4606C11.8449 42.4437 11.7424 42.3897 11.6655 42.3072C11.5886 42.2247 11.5418 42.1187 11.5328 42.0063C11.5237 41.8939 11.5529 41.7818 11.6156 41.6881L12.3406 40.6151L9.24263 42.4001C9.13635 42.4557 9.01361 42.4713 8.89678 42.444C8.77996 42.4167 8.67686 42.3483 8.60628 42.2513C8.5357 42.1543 8.50236 42.0351 8.51233 41.9156C8.52231 41.796 8.57494 41.684 8.66063 41.6001L9.98462 40.4211L6.54563 42.4001C6.47121 42.4446 6.38636 42.4688 6.29963 42.4701Z" fill="#F7D97C"/>
<path d="M56.4885 19.4891C56.3787 19.4887 56.2722 19.4523 56.1852 19.3853C56.0983 19.3184 56.0357 19.2247 56.0073 19.1187C55.9789 19.0127 55.9861 18.9003 56.0279 18.7988C56.0697 18.6973 56.1437 18.6124 56.2385 18.5571L58.6855 17.1441C58.7998 17.0843 58.9327 17.071 59.0566 17.107C59.1804 17.1429 59.2856 17.2253 59.3501 17.3369C59.4147 17.4486 59.4336 17.5809 59.4029 17.7061C59.3722 17.8314 59.2943 17.9399 59.1855 18.0091L56.7385 19.4221C56.6626 19.4663 56.5763 19.4894 56.4885 19.4891Z" fill="#F2C32F"/>
<path d="M49.9172 42.4701C49.8172 42.4703 49.7194 42.4405 49.6365 42.3846C49.5535 42.3286 49.4893 42.2491 49.4521 42.1563C49.4148 42.0635 49.4062 41.9617 49.4275 41.8639C49.4487 41.7662 49.4988 41.6771 49.5712 41.6081L52.6252 38.6861L46.9912 41.9381C46.8821 42 46.7537 42.0187 46.6315 41.9904C46.5092 41.9621 46.4021 41.8888 46.3314 41.7852C46.2606 41.6816 46.2314 41.5552 46.2495 41.4311C46.2677 41.3069 46.3318 41.1941 46.4292 41.1151L50.4992 37.8581L46.2792 40.3001C46.1692 40.3623 46.0398 40.3806 45.917 40.3513C45.7941 40.322 45.6869 40.2473 45.6168 40.1421C45.5468 40.037 45.5192 39.9093 45.5394 39.7846C45.5597 39.6599 45.6264 39.5476 45.7262 39.4701L49.5432 36.5491L46.2762 38.4301C46.1654 38.4931 46.0346 38.5114 45.9108 38.4813C45.7869 38.4512 45.6792 38.3748 45.6097 38.2679C45.5402 38.161 45.5142 38.0316 45.537 37.9062C45.5598 37.7808 45.6296 37.6687 45.7322 37.5931L47.9472 35.9831L46.2742 36.9491C46.1642 37.0113 46.0348 37.0296 45.912 37.0003C45.7891 36.971 45.6819 36.8963 45.6118 36.7911C45.5418 36.686 45.5141 36.5583 45.5344 36.4336C45.5547 36.3089 45.6214 36.1966 45.7212 36.1191L49.4722 33.2571L46.2722 35.1041C46.1633 35.1654 46.0355 35.1838 45.9138 35.1555C45.7921 35.1273 45.6853 35.0546 45.6146 34.9516C45.5439 34.8486 45.5142 34.7229 45.5315 34.5991C45.5489 34.4754 45.6119 34.3627 45.7082 34.2831L50.6592 30.2831L46.2692 32.8211C46.1591 32.8837 46.0294 32.9023 45.9061 32.873C45.7829 32.8437 45.6754 32.7687 45.6053 32.6632C45.5353 32.5577 45.5078 32.4295 45.5286 32.3046C45.5494 32.1796 45.6167 32.0672 45.7172 31.9901L49.2372 29.3281L46.2662 31.0431C46.1551 31.1058 46.0243 31.1238 45.9004 31.0932C45.7766 31.0627 45.6691 30.9859 45.6 30.8787C45.5308 30.7715 45.5053 30.642 45.5286 30.5165C45.5518 30.3911 45.6222 30.2793 45.7252 30.2041L47.3342 29.0531L46.2642 29.6701C46.1552 29.7328 46.0265 29.7522 45.9039 29.7243C45.7812 29.6964 45.6736 29.6234 45.6024 29.5196C45.5312 29.4159 45.5018 29.2892 45.5199 29.1647C45.538 29.0403 45.6024 28.9272 45.7002 28.8481L50.6352 24.8711L46.2612 27.4001C46.1501 27.4628 46.0193 27.4808 45.8954 27.4502C45.7716 27.4197 45.6641 27.3429 45.595 27.2357C45.5258 27.1285 45.5003 26.999 45.5236 26.8735C45.5468 26.7481 45.6172 26.6363 45.7202 26.5611L47.3302 25.4081L46.2592 26.0261C46.1476 26.0875 46.0167 26.1041 45.8933 26.0723C45.7699 26.0405 45.6632 25.9628 45.5952 25.8551C45.5272 25.7473 45.5028 25.6177 45.5272 25.4926C45.5515 25.3675 45.6227 25.2564 45.7262 25.1821L48.0112 23.6131L46.2572 24.6261C46.1469 24.6884 46.0171 24.7064 45.8939 24.6767C45.7708 24.647 45.6635 24.5716 45.5938 24.4658C45.5241 24.3601 45.4972 24.2318 45.5184 24.1069C45.5396 23.982 45.6074 23.8699 45.7082 23.7931L50.7782 20.0001L46.2542 22.6121C46.1446 22.6743 46.0156 22.6928 45.8929 22.664C45.7703 22.6352 45.663 22.5611 45.5926 22.4566C45.5222 22.3521 45.4939 22.2248 45.5133 22.1003C45.5327 21.9758 45.5983 21.8632 45.6972 21.7851L50.6272 17.9521L46.2512 20.4771C46.142 20.5402 46.0131 20.5598 45.8901 20.5318C45.7672 20.5039 45.6593 20.4306 45.5882 20.3266C45.517 20.2225 45.4877 20.0954 45.5063 19.9707C45.5248 19.846 45.5898 19.7329 45.6882 19.6541L50.0132 16.2001L44.5272 19.3661C44.4177 19.4279 44.289 19.4462 44.1666 19.4174C44.0443 19.3886 43.9373 19.3148 43.8669 19.2106C43.7965 19.1065 43.768 18.9796 43.7869 18.8554C43.8059 18.7311 43.871 18.6185 43.9692 18.5401L48.3912 15.0801L43.3132 18.0111C43.202 18.0745 43.0707 18.0929 42.9463 18.0624C42.822 18.0319 42.7141 17.9548 42.6448 17.8471C42.5756 17.7394 42.5503 17.6093 42.5742 17.4835C42.5981 17.3577 42.6693 17.2459 42.7732 17.1711L44.5632 15.8991L43.9302 16.2651C43.8214 16.3296 43.6921 16.3505 43.5685 16.3235C43.445 16.2965 43.3362 16.2237 43.2641 16.1197C43.1921 16.0157 43.1622 15.8883 43.1804 15.7631C43.1986 15.6379 43.2635 15.5243 43.3622 15.4451L47.3292 12.1901C47.221 12.226 47.1039 12.224 46.997 12.1842C46.8902 12.1445 46.8002 12.0695 46.7419 11.9716C46.6835 11.8737 46.6604 11.7588 46.6763 11.646C46.6921 11.5331 46.7461 11.4291 46.8292 11.3511L49.1072 9.21007L49.0992 9.18607C49.0328 9.07135 49.0147 8.93497 49.0488 8.80689C49.0829 8.67882 49.1665 8.56954 49.2812 8.50307L50.8372 7.60307C50.9437 7.53827 51.0706 7.51563 51.193 7.53958C51.3154 7.56354 51.4244 7.63235 51.4986 7.73253C51.5729 7.83271 51.6071 7.95702 51.5944 8.08107C51.5817 8.20512 51.5231 8.31997 51.4302 8.40307L50.6642 9.12207L52.0642 8.31507C52.173 8.2518 52.3016 8.23189 52.4244 8.2593C52.5472 8.28671 52.6552 8.35942 52.7268 8.46293C52.7984 8.56643 52.8283 8.69312 52.8105 8.81771C52.7928 8.9423 52.7288 9.05562 52.6312 9.13507L48.7092 12.3491L53.2562 9.72407C53.3672 9.66272 53.4973 9.64585 53.6203 9.67685C53.7433 9.70786 53.8498 9.78443 53.9185 9.89107C53.9871 9.99771 54.0127 10.1264 53.99 10.2512C53.9672 10.376 53.898 10.4874 53.7962 10.5631L51.9992 11.8371L54.0442 10.6571C54.1536 10.5952 54.2823 10.5769 54.4047 10.6057C54.5271 10.6345 54.6341 10.7083 54.7045 10.8125C54.7748 10.9167 54.8034 11.0435 54.7844 11.1678C54.7655 11.292 54.7004 11.4046 54.6022 11.4831L50.1832 14.9411L55.2142 12.0411C55.3233 11.9791 55.4517 11.9605 55.5739 11.9888C55.6961 12.0171 55.8032 12.0903 55.874 12.1939C55.9447 12.2975 55.9739 12.4239 55.9558 12.5481C55.9377 12.6722 55.8736 12.785 55.7762 12.8641L51.4502 16.3271L56.4182 13.4601C56.5277 13.399 56.6562 13.3813 56.7781 13.4106C56.9001 13.4398 57.0066 13.5138 57.0766 13.6178C57.1465 13.7219 57.1748 13.8485 57.1559 13.9724C57.1369 14.0964 57.0721 14.2087 56.9742 14.2871L52.0482 18.1181L57.6342 14.8941C57.7444 14.833 57.8736 14.8159 57.996 14.846C58.1184 14.8762 58.2248 14.9514 58.2941 15.0567C58.3633 15.162 58.3903 15.2895 58.3695 15.4138C58.3488 15.5381 58.2819 15.65 58.1822 15.7271L53.1122 19.5121L58.6402 16.3201C58.752 16.2561 58.8843 16.2378 59.0093 16.269C59.1343 16.3002 59.2425 16.3784 59.3112 16.4874C59.38 16.5964 59.404 16.7277 59.3783 16.8539C59.3525 16.9802 59.2791 17.0917 59.1732 17.1651L55.9992 19.3411C56.1008 19.3488 56.1976 19.3874 56.2766 19.4517C56.3557 19.516 56.4132 19.603 56.4415 19.7008C56.4698 19.7987 56.4675 19.9029 56.4349 19.9995C56.4023 20.096 56.341 20.1803 56.2592 20.2411L54.6502 21.4001L55.7192 20.7841C55.8283 20.7209 55.9573 20.7014 56.0802 20.7293C56.2031 20.7572 56.311 20.8305 56.3822 20.9346C56.4534 21.0386 56.4826 21.1657 56.4641 21.2904C56.4455 21.4151 56.3806 21.5282 56.2822 21.6071L51.3502 25.5821L55.7192 23.0601C55.8302 22.9973 55.9611 22.9794 56.0849 23.0099C56.2088 23.0405 56.3163 23.1172 56.3854 23.2244C56.4545 23.3316 56.4801 23.4612 56.4568 23.5866C56.4335 23.712 56.3632 23.8238 56.2602 23.8991L54.6512 25.0501L55.7192 24.4341C55.8292 24.3727 55.9583 24.3551 56.0808 24.3848C56.2032 24.4145 56.3099 24.4894 56.3796 24.5944C56.4492 24.6994 56.4766 24.8268 56.4563 24.9512C56.436 25.0755 56.3696 25.1876 56.2702 25.2651L52.7492 27.9251L55.7192 26.2111C55.828 26.1497 55.9559 26.1314 56.0776 26.1596C56.1993 26.1878 56.306 26.2606 56.3768 26.3636C56.4475 26.4665 56.4771 26.5923 56.4598 26.716C56.4425 26.8397 56.3795 26.9525 56.2832 27.0321L51.3322 31.0321L55.7192 28.5001C55.8291 28.4379 55.9585 28.4196 56.0814 28.4489C56.2043 28.4782 56.3115 28.5529 56.3815 28.658C56.4515 28.7631 56.4792 28.8909 56.4589 29.0155C56.4386 29.1402 56.3719 29.2526 56.2722 29.3301L52.5202 32.1931L55.7202 30.3471C55.831 30.284 55.9617 30.2657 56.0856 30.2958C56.2095 30.326 56.3171 30.4023 56.3866 30.5092C56.4561 30.6161 56.4821 30.7455 56.4594 30.8709C56.4366 30.9964 56.3668 31.1084 56.2642 31.1841L54.0492 32.7881L55.7192 31.8241C55.8291 31.7619 55.9585 31.7436 56.0814 31.7729C56.2043 31.8022 56.3115 31.8769 56.3815 31.982C56.4515 32.0871 56.4792 32.2148 56.4589 32.3395C56.4386 32.4642 56.3719 32.5766 56.2722 32.6541L52.4542 35.5761L55.7192 33.6911C55.8284 33.6276 55.9577 33.6078 56.0809 33.6357C56.2042 33.6636 56.3123 33.7372 56.3835 33.8416C56.4547 33.946 56.4838 34.0735 56.4648 34.1985C56.4458 34.3234 56.3802 34.4365 56.2812 34.5151L52.2122 37.7701L55.7192 35.7451C55.825 35.6847 55.9492 35.6651 56.0685 35.6899C56.1878 35.7147 56.2939 35.7821 56.3669 35.8796C56.44 35.9771 56.4749 36.0979 56.4652 36.2193C56.4555 36.3407 56.4018 36.4544 56.3142 36.5391L53.2612 39.4621L55.7192 38.0431C55.816 37.9866 55.929 37.9643 56.04 37.9797C56.151 37.9951 56.2536 38.0474 56.3313 38.1281C56.4091 38.2089 56.4574 38.3134 56.4686 38.4249C56.4799 38.5364 56.4533 38.6485 56.3932 38.7431L55.2702 40.5311L55.5412 40.3751C55.5981 40.3389 55.6617 40.3146 55.7283 40.3037C55.7948 40.2927 55.8629 40.2953 55.9284 40.3114C55.9939 40.3274 56.0554 40.3566 56.1094 40.397C56.1633 40.4375 56.2086 40.4884 56.2423 40.5468C56.276 40.6052 56.2976 40.6698 56.3058 40.7367C56.3139 40.8037 56.3084 40.8716 56.2896 40.9363C56.2708 41.0011 56.2391 41.0614 56.1964 41.1136C56.1537 41.1658 56.1009 41.2088 56.0412 41.2401L54.0252 42.4001C53.9284 42.4561 53.8156 42.478 53.7049 42.4624C53.5941 42.4467 53.4918 42.3944 53.4143 42.3138C53.3368 42.2332 53.2886 42.1289 53.2773 42.0177C53.2661 41.9064 53.2924 41.7946 53.3522 41.7001L54.4752 39.9121L50.1672 42.4001C50.0917 42.4455 50.0053 42.4696 49.9172 42.4701Z" fill="#F7D97C"/>
<path d="M35.4885 12.4891C35.3787 12.4887 35.2722 12.4523 35.1852 12.3853C35.0983 12.3184 35.0357 12.2247 35.0073 12.1187C34.9789 12.0127 34.9861 11.9003 35.0279 11.7988C35.0697 11.6973 35.1437 11.6124 35.2385 11.5571L37.6855 10.1441C37.7998 10.0843 37.9327 10.071 38.0566 10.107C38.1804 10.1429 38.2856 10.2253 38.3501 10.3369C38.4147 10.4486 38.4336 10.5809 38.4029 10.7061C38.3722 10.8314 38.2943 10.9399 38.1855 11.0091L35.7385 12.4221C35.6626 12.4663 35.5763 12.4894 35.4885 12.4891Z" fill="#F2C32F"/>
<path d="M26.9517 28.4941C26.8461 28.494 26.7432 28.4605 26.6577 28.3984C26.5723 28.3362 26.5088 28.2486 26.4762 28.1481C26.4437 28.0476 26.4438 27.9394 26.4766 27.8389C26.5094 27.7385 26.5731 27.651 26.6587 27.5891L26.8187 27.4741L25.2797 28.3611C25.17 28.4237 25.0407 28.4425 24.9177 28.4136C24.7947 28.3848 24.6872 28.3104 24.6168 28.2056C24.5464 28.1007 24.5182 27.9731 24.5381 27.8483C24.5579 27.7236 24.6242 27.6109 24.7237 27.5331L28.8617 24.3261L25.2757 26.4001C25.1669 26.4614 25.039 26.4798 24.9173 26.4516C24.7956 26.4233 24.6889 26.3506 24.6181 26.2476C24.5474 26.1446 24.5178 26.0189 24.5351 25.8952C24.5524 25.7714 24.6154 25.6587 24.7117 25.5791L29.7197 21.5261L25.2707 24.0901C25.1606 24.1519 25.0311 24.1697 24.9083 24.14C24.7855 24.1103 24.6786 24.0352 24.6089 23.9298C24.5392 23.8244 24.5121 23.6966 24.5328 23.572C24.5535 23.4474 24.6207 23.3352 24.7207 23.2581L28.0977 20.7181L25.2687 22.3511C25.1588 22.4155 25.0285 22.4356 24.9043 22.4072C24.7801 22.3789 24.6714 22.3041 24.6005 22.1983C24.5295 22.0925 24.5016 21.9636 24.5225 21.8379C24.5433 21.7123 24.6114 21.5993 24.7127 21.5221L28.8077 18.3551L25.2647 20.4001C25.154 20.4625 25.0237 20.4805 24.9003 20.4504C24.7768 20.4202 24.6695 20.3442 24.6001 20.2377C24.5307 20.1312 24.5044 20.0024 24.5267 19.8772C24.5489 19.7521 24.6179 19.6401 24.7197 19.5641L27.1457 17.7931L25.2617 18.8801C25.1496 18.944 25.0171 18.9621 24.892 18.9305C24.7668 18.899 24.6587 18.8203 24.5903 18.7109C24.5218 18.6015 24.4983 18.4699 24.5247 18.3435C24.551 18.2172 24.6252 18.106 24.7317 18.0331L25.7757 17.3281L25.2597 17.6281C25.1474 17.6932 25.0142 17.712 24.8883 17.6807C24.7623 17.6493 24.6535 17.5703 24.5848 17.4601C24.5161 17.35 24.4929 17.2175 24.5201 17.0906C24.5474 16.9637 24.6229 16.8523 24.7307 16.7801L25.1157 16.5221C25.017 16.5431 24.9143 16.5342 24.8208 16.4964C24.7272 16.4586 24.6471 16.3937 24.5907 16.3101C24.5204 16.2041 24.4932 16.0752 24.5145 15.9498C24.5359 15.8244 24.6043 15.7119 24.7057 15.6351L29.5307 11.9801L25.2537 14.4491C25.1421 14.5106 25.0112 14.5271 24.8878 14.4953C24.7644 14.4635 24.6578 14.3858 24.5897 14.2781C24.5217 14.1704 24.4974 14.0407 24.5217 13.9156C24.546 13.7905 24.6172 13.6794 24.7207 13.6051L25.1127 13.3341C25.0006 13.3584 24.8836 13.3434 24.7812 13.2916C24.6789 13.2399 24.5974 13.1545 24.5505 13.0498C24.5036 12.9451 24.4942 12.8275 24.5237 12.7167C24.5532 12.6059 24.62 12.5086 24.7127 12.4411L26.4687 11.1751L24.3347 12.4001C24.2247 12.4636 24.0947 12.4829 23.971 12.4541C23.8473 12.4252 23.7393 12.3503 23.6687 12.2447C23.5982 12.1391 23.5706 12.0106 23.5914 11.8853C23.6122 11.76 23.6799 11.6473 23.7807 11.5701L27.2997 8.88208L22.5447 11.6261C22.435 11.6887 22.3057 11.7075 22.1827 11.6786C22.0597 11.6498 21.9522 11.5754 21.8818 11.4706C21.8114 11.3657 21.7832 11.2381 21.8031 11.1133C21.8229 10.9886 21.8892 10.8759 21.9887 10.7981L26.4097 7.37708L22.7247 9.50508C22.615 9.56903 22.485 9.58881 22.3612 9.5604C22.2374 9.532 22.129 9.45754 22.0581 9.35215C21.9872 9.24676 21.9591 9.11833 21.9795 8.99295C21.9998 8.86757 22.0671 8.75464 22.1677 8.67708L25.5807 6.02908C25.4747 6.05304 25.3637 6.0418 25.2647 5.99704C25.1656 5.95229 25.0838 5.87647 25.0317 5.78106C24.9796 5.68566 24.96 5.57587 24.9759 5.46833C24.9918 5.36078 25.0423 5.26135 25.1197 5.18508L28.1347 2.24208C28.12 2.22487 28.1073 2.20609 28.0967 2.18608C28.0303 2.07136 28.0122 1.93498 28.0463 1.80691C28.0805 1.67884 28.164 1.56955 28.2787 1.50308L29.8347 0.600081C29.9403 0.538388 30.0647 0.517496 30.1846 0.541355C30.3045 0.565214 30.4115 0.632171 30.4854 0.729568C30.5593 0.826966 30.5949 0.948054 30.5856 1.06994C30.5762 1.19183 30.5226 1.30608 30.4347 1.39108L28.6697 3.11608L31.2997 1.60008C31.4094 1.53747 31.5388 1.5187 31.6617 1.54755C31.7847 1.5764 31.8922 1.65073 31.9626 1.7556C32.0331 1.86047 32.0612 1.9881 32.0413 2.11286C32.0215 2.23761 31.9552 2.35023 31.8557 2.42808L28.5737 4.97408L32.3267 2.80708C32.4364 2.74447 32.5658 2.7257 32.6887 2.75455C32.8117 2.7834 32.9192 2.85773 32.9896 2.9626C33.0601 3.06747 33.0882 3.1951 33.0683 3.31986C33.0485 3.44461 32.9822 3.55723 32.8827 3.63508L28.4587 7.05708L33.4757 4.15708C33.5857 4.09488 33.7151 4.07659 33.8379 4.10588C33.9608 4.13518 34.068 4.2099 34.1381 4.31501C34.2081 4.42013 34.2357 4.54786 34.2155 4.67253C34.1952 4.79721 34.1285 4.90958 34.0287 4.98708L30.5127 7.68208L34.5067 5.37608C34.6177 5.3124 34.7488 5.29368 34.8732 5.32377C34.9975 5.35386 35.1056 5.43047 35.1752 5.53785C35.2448 5.64522 35.2705 5.77517 35.2472 5.90097C35.2239 6.02676 35.1532 6.13882 35.0497 6.21408L33.2997 7.47908L35.3107 6.31808C35.4226 6.25414 35.5548 6.23585 35.6798 6.26702C35.8048 6.2982 35.913 6.37643 35.9817 6.48541C36.0505 6.59439 36.0745 6.72571 36.0488 6.85196C36.0231 6.97822 35.9496 7.08967 35.8437 7.16308L35.6787 7.27608L35.9787 7.10408C36.0889 7.04094 36.219 7.02211 36.3426 7.05141C36.4662 7.08071 36.574 7.15595 36.6442 7.26184C36.7143 7.36774 36.7415 7.49636 36.7202 7.62159C36.699 7.74681 36.6309 7.85925 36.5297 7.93608L31.6997 11.5911L37.1227 8.46008C37.2349 8.39718 37.367 8.37995 37.4916 8.41195C37.6162 8.44396 37.7237 8.52275 37.7917 8.63195C37.8596 8.74114 37.8829 8.87234 37.8567 8.99826C37.8304 9.12418 37.7567 9.23515 37.6507 9.30808L37.5507 9.37608L37.6507 9.32108C37.7627 9.25903 37.8943 9.24233 38.0183 9.27443C38.1423 9.30653 38.2492 9.38498 38.3171 9.49361C38.3849 9.60223 38.4085 9.73275 38.3829 9.85824C38.3574 9.98373 38.2846 10.0946 38.1797 10.1681L35.1297 12.2231C35.217 12.252 35.2946 12.3044 35.3541 12.3745C35.4135 12.4447 35.4525 12.5299 35.4666 12.6208C35.4808 12.7116 35.4696 12.8046 35.4343 12.8895C35.3991 12.9744 35.3411 13.048 35.2667 13.1021L32.8407 14.8721L34.7247 13.7851C34.8344 13.7237 34.9632 13.7058 35.0854 13.7351C35.2076 13.7643 35.3144 13.8385 35.3843 13.9429C35.4543 14.0474 35.4824 14.1743 35.463 14.2985C35.4436 14.4227 35.3782 14.535 35.2797 14.6131L31.1867 17.7781L34.7277 15.7351C34.8379 15.6733 34.9674 15.6554 35.0901 15.6852C35.2129 15.7149 35.3199 15.79 35.3895 15.8954C35.4592 16.0008 35.4864 16.1286 35.4656 16.2532C35.4449 16.3778 35.3778 16.49 35.2777 16.5671L31.8997 19.1091L34.7317 17.4751C34.8406 17.4127 34.969 17.3935 35.0913 17.4213C35.2137 17.4491 35.3212 17.522 35.3923 17.6254C35.4635 17.7288 35.4931 17.8551 35.4754 17.9794C35.4577 18.1036 35.3939 18.2167 35.2967 18.2961L30.2897 22.3481L34.7357 19.7811C34.8455 19.7171 34.9754 19.6974 35.0992 19.7258C35.223 19.7542 35.3314 19.8286 35.4023 19.934C35.4732 20.0394 35.5013 20.1678 35.481 20.2932C35.4606 20.4186 35.3933 20.5315 35.2927 20.6091L31.1537 23.8161L34.7397 21.7461C34.8507 21.6824 34.9818 21.6637 35.1062 21.6938C35.2305 21.7239 35.3386 21.8005 35.4082 21.9078C35.4778 22.0152 35.5035 22.1452 35.4802 22.271C35.4569 22.3968 35.3862 22.5088 35.2827 22.5841L34.8997 22.8611C35.0084 22.8407 35.1208 22.8569 35.2194 22.9072C35.3179 22.9575 35.3969 23.039 35.4442 23.1391C35.4914 23.2391 35.5041 23.352 35.4803 23.46C35.4565 23.568 35.3976 23.6651 35.3127 23.7361L34.2257 24.6421L34.7447 24.3421C34.85 24.2821 34.9735 24.2625 35.0922 24.2867C35.2109 24.311 35.3168 24.3775 35.3901 24.4739C35.4634 24.5704 35.4993 24.6902 35.4909 24.811C35.4826 24.9319 35.4306 25.0456 35.3447 25.1311L34.8517 25.6151C34.94 25.5885 35.034 25.5869 35.1232 25.6104C35.2124 25.6339 35.2934 25.6816 35.3571 25.7483C35.4209 25.8149 35.465 25.8979 35.4845 25.9881C35.504 26.0782 35.4982 26.172 35.4677 26.2591L35.1677 27.1191C35.2798 27.1583 35.374 27.2368 35.4327 27.3401C35.4987 27.4548 35.5165 27.5911 35.4822 27.7189C35.4479 27.8468 35.3643 27.9558 35.2497 28.0221L34.5897 28.4031C34.5012 28.4545 34.399 28.4774 34.2969 28.4688C34.1949 28.4603 34.098 28.4206 34.0193 28.3551C33.9405 28.2897 33.8838 28.2017 33.8567 28.1029C33.8296 28.0042 33.8334 27.8995 33.8677 27.8031L34.0797 27.2031L31.9797 28.4131C31.8744 28.473 31.751 28.4927 31.6322 28.4685C31.5135 28.4442 31.4077 28.3777 31.3343 28.2812C31.261 28.1848 31.2252 28.065 31.2335 27.9441C31.2419 27.8233 31.2938 27.7095 31.3797 27.6241L31.8357 27.1771L29.6807 28.4201C29.5724 28.4821 29.4448 28.5015 29.323 28.4742C29.2012 28.447 29.094 28.3752 29.0224 28.2729C28.9509 28.1707 28.9201 28.0453 28.9363 27.9216C28.9524 27.7978 29.0143 27.6846 29.1097 27.6041L30.1937 26.7041L27.1997 28.4271C27.1245 28.471 27.0389 28.4942 26.9517 28.4941Z" fill="#F7D97C"/>
<path d="M37.4563 27.618C37.3465 27.6176 37.24 27.5812 37.153 27.5142C37.066 27.4473 37.0035 27.3536 36.9751 27.2476C36.9466 27.1416 36.9539 27.0292 36.9957 26.9277C37.0374 26.8262 37.1114 26.7413 37.2063 26.686L39.0783 25.6C39.1352 25.5638 39.1988 25.5395 39.2654 25.5286C39.3319 25.5177 39.4 25.5203 39.4655 25.5363C39.531 25.5524 39.5925 25.5815 39.6465 25.622C39.7004 25.6624 39.7456 25.7134 39.7794 25.7718C39.8131 25.8301 39.8347 25.8947 39.8429 25.9617C39.851 26.0286 39.8455 26.0965 39.8267 26.1613C39.8079 26.226 39.7762 26.2863 39.7335 26.3385C39.6908 26.3907 39.638 26.4338 39.5783 26.465L37.7063 27.547C37.6308 27.5927 37.5445 27.6172 37.4563 27.618Z" fill="#FCB01A"/>
<path d="M32.4563 24.618C32.3465 24.6176 32.24 24.5812 32.153 24.5142C32.066 24.4473 32.0035 24.3536 31.9751 24.2476C31.9466 24.1416 31.9539 24.0292 31.9957 23.9277C32.0374 23.8262 32.1114 23.7413 32.2063 23.686L34.0783 22.6C34.1352 22.5638 34.1988 22.5395 34.2654 22.5286C34.3319 22.5177 34.4 22.5203 34.4655 22.5363C34.531 22.5524 34.5925 22.5815 34.6465 22.622C34.7004 22.6624 34.7456 22.7134 34.7794 22.7718C34.8131 22.8301 34.8347 22.8947 34.8429 22.9617C34.851 23.0286 34.8455 23.0965 34.8267 23.1613C34.8079 23.226 34.7762 23.2863 34.7335 23.3385C34.6908 23.3907 34.638 23.4338 34.5783 23.465L32.7063 24.547C32.6308 24.5927 32.5445 24.6172 32.4563 24.618Z" fill="#FCB01A"/>
<path d="M27.2059 59.4699C27.0996 59.47 26.996 59.4362 26.9103 59.3735C26.8245 59.3107 26.7609 59.2223 26.7288 59.1209C26.6967 59.0196 26.6977 58.9107 26.7317 58.81C26.7657 58.7093 26.8309 58.6221 26.9179 58.5609L29.6179 56.6609L24.9179 59.3739C24.8062 59.437 24.6745 59.4547 24.5501 59.4234C24.4257 59.3922 24.3181 59.3143 24.2495 59.2059C24.1809 59.0975 24.1566 58.9669 24.1816 58.841C24.2066 58.7152 24.279 58.6038 24.3839 58.5299L28.8179 55.4629L23.5899 58.4789C23.4774 58.5418 23.345 58.5589 23.2203 58.5265C23.0955 58.4942 22.9881 58.4149 22.9204 58.3053C22.8527 58.1957 22.8299 58.0641 22.8568 57.9381C22.8837 57.8121 22.9583 57.7013 23.0649 57.6289L25.3999 56.0929L23.2799 57.3179C23.1677 57.3808 23.0355 57.3981 22.911 57.3661C22.7864 57.334 22.6789 57.2552 22.6109 57.1461C22.5429 57.0369 22.5196 56.9057 22.5459 56.7797C22.5721 56.6538 22.6459 56.5429 22.7519 56.4699L28.7169 52.4809L23.2799 55.6199C23.1678 55.6838 23.0353 55.7019 22.9101 55.6704C22.785 55.6388 22.6769 55.5601 22.6084 55.4507C22.54 55.3413 22.5165 55.2097 22.5428 55.0834C22.5692 54.9571 22.6434 54.8458 22.7499 54.7729L30.0279 49.8519L23.2799 53.7519C23.1678 53.8169 23.0349 53.8359 22.9092 53.8049C22.7834 53.7739 22.6746 53.6953 22.6056 53.5856C22.5367 53.476 22.513 53.3438 22.5395 53.2171C22.566 53.0903 22.6407 52.9787 22.7479 52.9059L30.9159 47.3169L23.2799 51.7199C23.1683 51.784 23.0363 51.8025 22.9113 51.7717C22.7864 51.7409 22.6781 51.6631 22.6091 51.5545C22.54 51.4459 22.5155 51.3149 22.5406 51.1887C22.5657 51.0625 22.6385 50.9508 22.7439 50.8769L32.1339 44.3219L22.9929 49.5999C22.8801 49.6629 22.7474 49.6798 22.6225 49.6472C22.4976 49.6145 22.3901 49.5348 22.3226 49.4246C22.2552 49.3145 22.2329 49.1826 22.2606 49.0565C22.2882 48.9303 22.3636 48.8198 22.4709 48.7479L25.8709 46.5359L22.4629 48.4999C22.3501 48.5675 22.2152 48.5879 22.0875 48.5567C21.9598 48.5256 21.8495 48.4454 21.7804 48.3335C21.7114 48.2216 21.6892 48.087 21.7187 47.9589C21.7482 47.8308 21.8269 47.7194 21.9379 47.6489L27.2829 44.1359L21.6089 47.4109C21.497 47.4749 21.3648 47.4932 21.2398 47.462C21.1147 47.4308 21.0066 47.3526 20.9378 47.2436C20.8691 47.1346 20.8451 47.0033 20.8708 46.877C20.8965 46.7508 20.97 46.6393 21.0759 46.5659L31.0529 39.7249L20.3529 45.9029C20.2408 45.9641 20.1095 45.9801 19.9859 45.9476C19.8624 45.9151 19.756 45.8365 19.6886 45.728C19.6212 45.6195 19.5978 45.4893 19.6234 45.3642C19.6489 45.239 19.7213 45.1283 19.8259 45.0549L28.4179 39.3469L19.2959 44.6129C19.1829 44.6772 19.0494 44.695 18.9236 44.6625C18.7978 44.6301 18.6895 44.5499 18.6218 44.439C18.5541 44.3281 18.5322 44.1952 18.5608 44.0685C18.5893 43.9417 18.6661 43.831 18.7749 43.7599L24.1659 40.2999L18.6539 43.4819C18.5409 43.5462 18.4074 43.564 18.2816 43.5315C18.1558 43.4991 18.0475 43.4189 17.9798 43.308C17.9121 43.1971 17.8902 43.0642 17.9188 42.9375C17.9473 42.8107 18.0241 42.7 18.1329 42.6289L24.5839 38.4669L18.3099 42.0849C18.1965 42.1537 18.0604 42.1747 17.9316 42.1432C17.8027 42.1117 17.6917 42.0303 17.6229 41.9169C17.554 41.8035 17.5331 41.6675 17.5646 41.5386C17.5961 41.4098 17.6775 41.2987 17.7909 41.2299L21.8259 38.6579L18.2799 40.7049C18.1682 40.768 18.0365 40.7857 17.9121 40.7544C17.7877 40.7232 17.6801 40.6453 17.6115 40.5369C17.5429 40.4285 17.5186 40.2979 17.5436 40.1721C17.5686 40.0462 17.641 39.9349 17.7459 39.8609L26.6689 33.6829L18.2799 38.5249C18.1671 38.5879 18.0344 38.6048 17.9095 38.5722C17.7846 38.5395 17.6771 38.4598 17.6096 38.3496C17.5422 38.2395 17.5199 38.1076 17.5476 37.9815C17.5752 37.8553 17.6506 37.7448 17.7579 37.6729L20.4339 35.9379L18.2799 37.1819C18.1679 37.2449 18.036 37.2623 17.9116 37.2307C17.7871 37.199 17.6796 37.1207 17.6113 37.0119C17.543 36.9031 17.5192 36.7723 17.5448 36.6464C17.5704 36.5205 17.6435 36.4094 17.7489 36.3359L25.0309 31.3839L18.2799 35.2839C18.1815 35.3403 18.0669 35.3616 17.9548 35.3442C17.8427 35.3269 17.7399 35.272 17.6631 35.1885C17.5864 35.105 17.5403 34.9979 17.5325 34.8848C17.5246 34.7717 17.5554 34.6592 17.6199 34.5659L18.9859 32.6099L18.8559 32.6859C18.7411 32.7512 18.6052 32.7684 18.4777 32.7338C18.3503 32.6992 18.2418 32.6156 18.1757 32.5013C18.1097 32.3869 18.0916 32.2511 18.1253 32.1235C18.1591 31.9958 18.242 31.8867 18.3559 31.8199L20.4369 30.6199C20.5359 30.5638 20.6511 30.5431 20.7635 30.5612C20.8758 30.5794 20.9786 30.6354 21.0549 30.7199C21.1318 30.8037 21.1778 30.9111 21.1855 31.0245C21.1931 31.138 21.1619 31.2506 21.0969 31.3439L19.7289 33.2989L36.2839 23.7419C36.3958 23.679 36.5277 23.6615 36.6522 23.6932C36.7767 23.7248 36.8842 23.8031 36.9524 23.9119C37.0207 24.0207 37.0445 24.1516 37.0189 24.2775C36.9933 24.4033 36.9202 24.5145 36.8149 24.5879L29.5359 29.5379L36.7199 25.3919C36.8326 25.3289 36.9653 25.312 37.0903 25.3447C37.2152 25.3774 37.3226 25.4571 37.3901 25.5672C37.4576 25.6773 37.4798 25.8093 37.4522 25.9354C37.4245 26.0615 37.3492 26.1721 37.2419 26.2439L34.5779 27.9709L36.7199 26.7349C36.8313 26.6741 36.9618 26.6579 37.0847 26.6897C37.2077 26.7215 37.3139 26.7989 37.3819 26.9062C37.4499 27.0135 37.4745 27.1426 37.4507 27.2674C37.4269 27.3921 37.3565 27.5032 37.2539 27.5779L28.3279 33.7589L41.0389 26.4209C41.1523 26.3521 41.2883 26.3311 41.4172 26.3626C41.546 26.3941 41.657 26.4755 41.7259 26.5889C41.7947 26.7023 41.8157 26.8384 41.7842 26.9672C41.7526 27.0961 41.6712 27.2071 41.5579 27.2759L37.5289 29.8429L41.6169 27.4839C41.7296 27.4209 41.8623 27.404 41.9873 27.4367C42.1122 27.4694 42.2196 27.5491 42.2871 27.6592C42.3546 27.7693 42.3768 27.9013 42.3492 28.0274C42.3215 28.1535 42.2462 28.2641 42.1389 28.3359L35.6789 32.5039L41.7199 29.0169C41.8327 28.9549 41.9651 28.9387 42.0895 28.9719C42.2139 29.005 42.3207 29.0848 42.3877 29.1948C42.4548 29.3047 42.4768 29.4362 42.4492 29.562C42.4217 29.6878 42.3467 29.7981 42.2399 29.8699L36.8499 33.3369L41.7199 30.5259C41.8319 30.4661 41.9625 30.4512 42.0851 30.4842C42.2077 30.5172 42.3132 30.5956 42.3802 30.7035C42.4471 30.8114 42.4705 30.9407 42.4455 31.0652C42.4206 31.1898 42.3492 31.3001 42.2459 31.3739L33.6519 37.0829L41.7199 32.4259C41.8317 32.362 41.964 32.3437 42.089 32.3749C42.214 32.406 42.3222 32.4843 42.3909 32.5933C42.4596 32.7022 42.4837 32.8335 42.4579 32.9598C42.4322 33.0861 42.3588 33.1975 42.2529 33.2709L32.2769 40.0999L41.7199 34.6499C41.8325 34.5859 41.9656 34.5681 42.0912 34.6003C42.2167 34.6324 42.3248 34.7121 42.3927 34.8224C42.4607 34.9328 42.4831 35.0652 42.4554 35.1917C42.4276 35.3183 42.3518 35.4292 42.2439 35.5009L36.9049 39.0109L41.7199 36.2309C41.8326 36.1679 41.9653 36.151 42.0903 36.1837C42.2152 36.2163 42.3226 36.2961 42.3901 36.4062C42.4576 36.5163 42.4798 36.6482 42.4522 36.7744C42.4245 36.9005 42.3492 37.0111 42.2419 37.0829L38.8359 39.2999L41.7199 37.6359C41.8315 37.5719 41.9635 37.5533 42.0884 37.5841C42.2134 37.6149 42.3216 37.6927 42.3907 37.8013C42.4597 37.9099 42.4842 38.0409 42.4591 38.1671C42.434 38.2934 42.3612 38.405 42.2559 38.4789L32.8689 45.0299L41.7199 39.9209C41.8319 39.8559 41.9648 39.8369 42.0906 39.8679C42.2163 39.8989 42.3252 39.9775 42.3941 40.0872C42.4631 40.1969 42.4868 40.329 42.4602 40.4558C42.4337 40.5826 42.359 40.6941 42.2519 40.7669L34.0839 46.3559L41.7199 41.9479C41.832 41.884 41.9645 41.866 42.0896 41.8975C42.2147 41.929 42.3228 42.0077 42.3913 42.1171C42.4598 42.2265 42.4833 42.3581 42.4569 42.4845C42.4305 42.6108 42.3564 42.722 42.2499 42.7949L34.9689 47.7189L41.3689 44.0189C41.4811 43.956 41.6132 43.9388 41.7378 43.9708C41.8624 44.0028 41.9698 44.0816 42.0378 44.1908C42.1058 44.3 42.1291 44.4312 42.1028 44.5571C42.0766 44.683 42.0028 44.794 41.8969 44.8669L35.9329 48.8549L39.9179 46.5549C40.0302 46.4938 40.1618 46.478 40.2854 46.5109C40.409 46.5438 40.5153 46.6228 40.5825 46.7317C40.6496 46.8406 40.6724 46.9711 40.6463 47.0963C40.6201 47.2216 40.547 47.332 40.4419 47.4049L38.0999 48.9459L38.9329 48.4659C39.0446 48.4029 39.1762 48.3851 39.3006 48.4164C39.425 48.4477 39.5327 48.5256 39.6012 48.634C39.6698 48.7424 39.6941 48.873 39.6691 48.9988C39.6441 49.1246 39.5717 49.236 39.4669 49.3099L35.0329 52.3759L38.7199 50.2499C38.8314 50.1848 38.9638 50.1653 39.0893 50.1956C39.2149 50.2259 39.3239 50.3036 39.3934 50.4125C39.4629 50.5213 39.4877 50.6528 39.4624 50.7795C39.4371 50.9061 39.3638 51.0181 39.2579 51.0919L36.5579 52.9919L38.7169 51.7459C38.8249 51.6833 38.9525 51.6634 39.0746 51.6902C39.1966 51.7169 39.3041 51.7884 39.3761 51.8904C39.4481 51.9925 39.4793 52.1178 39.4635 52.2417C39.4477 52.3656 39.3861 52.4791 39.2909 52.5599L35.4999 55.7899L38.7229 53.9299C38.8292 53.8721 38.953 53.8549 39.0711 53.8814C39.1892 53.9079 39.2937 53.9764 39.3652 54.0741C39.4366 54.1719 39.4702 54.2922 39.4597 54.4128C39.4491 54.5334 39.3952 54.6461 39.3079 54.7299L37.7199 56.1609L38.7199 55.5829C38.8234 55.5235 38.9448 55.5031 39.0621 55.5254C39.1793 55.5477 39.2848 55.6112 39.3593 55.7044C39.4338 55.7977 39.4725 55.9145 39.4684 56.0338C39.4643 56.1531 39.4176 56.267 39.3369 56.3549L38.8029 56.9319C38.9196 56.9044 39.0423 56.9197 39.1487 56.975C39.255 57.0304 39.3379 57.1221 39.3823 57.2335C39.4267 57.3449 39.4295 57.4686 39.3903 57.5819C39.3512 57.6952 39.2726 57.7907 39.1689 57.8509L36.4849 59.3999C36.3813 59.4593 36.26 59.4797 36.1427 59.4575C36.0254 59.4352 35.92 59.3717 35.8454 59.2784C35.7709 59.1852 35.7322 59.0683 35.7363 58.949C35.7404 58.8297 35.7871 58.7158 35.8679 58.6279L36.3539 58.1029L34.1069 59.4029C34.0005 59.4607 33.8768 59.478 33.7586 59.4514C33.6405 59.4249 33.536 59.3564 33.4646 59.2587C33.3931 59.161 33.3595 59.0407 33.3701 58.9201C33.3806 58.7995 33.4345 58.6868 33.5219 58.6029L35.1079 57.1729L31.2399 59.3999C31.132 59.4622 31.0047 59.482 30.883 59.4553C30.7613 59.4287 30.6539 59.3576 30.5819 59.2559C30.5099 59.154 30.4786 59.0289 30.4941 58.9051C30.5097 58.7814 30.5709 58.6679 30.6659 58.5869L34.4659 55.3549L27.4559 59.3999C27.3803 59.4452 27.294 59.4693 27.2059 59.4699Z" fill="#FCB01A"/>
<path d="M27.0298 24.8999C26.9386 24.8998 26.8492 24.8748 26.7713 24.8276C26.6933 24.7804 26.6297 24.7128 26.5874 24.6321C26.5451 24.5514 26.5257 24.4606 26.5312 24.3696C26.5367 24.2787 26.567 24.1909 26.6188 24.1159L27.6868 22.5689C27.5702 22.6087 27.4431 22.6041 27.3297 22.556C27.2164 22.5078 27.1248 22.4195 27.0725 22.308C27.0202 22.1965 27.0109 22.0696 27.0464 21.9517C27.0819 21.8338 27.1596 21.7331 27.2648 21.6689L29.0998 20.5999C29.1981 20.5434 29.3126 20.522 29.4247 20.5392C29.5368 20.5564 29.6397 20.6112 29.7165 20.6945C29.7934 20.7779 29.8396 20.8849 29.8476 20.998C29.8557 21.1111 29.825 21.2235 29.7608 21.3169L28.6998 22.8539L31.1158 21.4589C31.1727 21.4228 31.2363 21.3985 31.3028 21.3875C31.3694 21.3766 31.4375 21.3792 31.503 21.3953C31.5684 21.4113 31.63 21.4404 31.684 21.4809C31.7379 21.5213 31.7831 21.5723 31.8169 21.6307C31.8506 21.6891 31.8722 21.7537 31.8803 21.8206C31.8885 21.8875 31.883 21.9554 31.8642 22.0202C31.8454 22.085 31.8137 22.1453 31.771 22.1975C31.7283 22.2497 31.6755 22.2927 31.6158 22.3239L27.2798 24.8299C27.2043 24.8754 27.1179 24.8996 27.0298 24.8999Z" fill="#FCB01A"/>
<path d="M22.0302 30.393C21.9311 30.393 21.8343 30.3636 21.752 30.3084C21.6697 30.2533 21.6056 30.175 21.5679 30.0834C21.5302 29.9918 21.5206 29.891 21.5402 29.7939C21.5598 29.6969 21.6078 29.6078 21.6782 29.538L23.8492 27.378L22.2802 28.283C22.1751 28.3414 22.0526 28.36 21.935 28.3354C21.8173 28.3108 21.7125 28.2447 21.6397 28.1491C21.5668 28.0536 21.5308 27.935 21.5382 27.815C21.5457 27.6951 21.5961 27.5819 21.6802 27.496L23.1272 26.057L22.2822 26.544C22.1829 26.601 22.067 26.6221 21.954 26.604C21.841 26.5858 21.7376 26.5294 21.6612 26.4442C21.5848 26.359 21.5399 26.2501 21.534 26.1358C21.5282 26.0214 21.5618 25.9086 21.6292 25.816L22.5242 24.59C22.4261 24.6015 22.3268 24.5845 22.2381 24.5411C22.1495 24.4976 22.0752 24.4296 22.0242 24.345C21.9578 24.2303 21.9397 24.0939 21.9738 23.9659C22.0079 23.8378 22.0915 23.7285 22.2062 23.662L24.0292 22.609C24.1285 22.5515 24.2445 22.53 24.3579 22.5479C24.4712 22.5659 24.5749 22.6222 24.6516 22.7076C24.7283 22.793 24.7733 22.9021 24.779 23.0167C24.7848 23.1313 24.7509 23.2444 24.6832 23.337L23.8302 24.5L25.9482 23.277C26.0533 23.2179 26.1763 23.1988 26.2945 23.2232C26.4126 23.2476 26.518 23.3139 26.5911 23.4099C26.6642 23.5059 26.7001 23.6251 26.6922 23.7455C26.6843 23.8659 26.6332 23.9794 26.5482 24.065L25.1002 25.5L26.6672 24.6C26.7722 24.5417 26.8948 24.5231 27.0124 24.5476C27.13 24.5722 27.2348 24.6384 27.3077 24.7339C27.3805 24.8295 27.4165 24.9481 27.4091 25.068C27.4017 25.188 27.3513 25.3012 27.2672 25.387L25.0972 27.547L31.7142 23.727C31.8284 23.6672 31.9614 23.6539 32.0852 23.6899C32.2091 23.7258 32.3143 23.8082 32.3788 23.9198C32.4434 24.0315 32.4623 24.1638 32.4316 24.289C32.4009 24.4143 32.323 24.5228 32.2142 24.592L22.2742 30.33C22.1997 30.3719 22.1156 30.3937 22.0302 30.393Z" fill="#FCB01A"/>
<path d="M3.26613 19.5281C4.28513 24.0001 0.628132 42.4901 5.93413 42.5301C8.79113 42.2071 14.0911 43.9831 14.7341 39.9451C14.7381 33.1404 14.7381 26.3338 14.7341 19.5251C22.5921 19.0291 12.0001 9.43111 9.68713 7.53711C5.89713 7.63011 4.25913 12.7371 1.58713 14.9701C-0.635868 16.7001 0.278132 19.9701 3.26613 19.5281ZM2.02613 16.3001C3.86913 14.9201 7.62213 7.74411 9.64013 9.01011C10.6241 11.0971 18.3641 16.7901 15.4451 18.4711C14.7781 18.6551 13.5101 18.1071 13.2661 19.0551V37.2301C13.2661 38.3241 13.6931 40.9301 12.3831 41.3781C3.84913 42.1421 4.54813 41.5131 4.73513 33.5601C4.13513 28.8601 5.91213 22.2761 4.06613 18.4711C2.67913 18.8121 1.07113 17.8131 2.02613 16.3001Z" fill="#262626"/>
<path d="M56.7244 19.2781C62.7104 18.8531 57.6974 13.6781 55.5964 11.5261C54.2694 10.3021 53.4784 8.15807 51.6204 7.72607C47.5754 8.31007 45.8274 13.3941 42.9474 15.9421C41.1364 18.1491 43.3014 19.5911 45.4804 19.2881C44.8684 22.3571 45.4924 26.8081 45.2804 30.3181C46.0454 33.6491 43.2334 41.3891 47.5314 42.2891C50.4164 41.9021 55.3744 43.6891 56.6924 40.1971C56.8004 33.2331 56.6874 26.2471 56.7244 19.2781ZM54.9824 41.1781C53.3824 42.5241 50.4734 41.3681 48.4734 41.7121C44.4494 41.2431 48.0504 22.1771 46.4734 18.7121C43.9944 19.1191 42.7424 16.9801 44.7494 15.2301C46.5694 14.0411 50.3824 5.93007 52.0814 9.47407C53.4024 12.0791 59.6814 15.7831 57.7434 18.6741C57.2674 18.8501 55.5804 18.4371 55.2764 19.1871C54.9734 26.4711 55.8574 34.0311 54.9824 41.1821V41.1781Z" fill="#262626"/>
<path d="M42.2231 44.788C43.4391 39.558 42.4041 33.939 42.7301 28.572C42.6791 25.772 39.6721 24.944 37.7721 26.099C37.8464 25.3851 37.6871 24.6665 37.3179 24.051C36.9488 23.4355 36.3898 22.9565 35.7251 22.686V12.423C43.5411 11.877 33.0821 2.83297 30.9621 0.687974C27.0621 0.359974 25.3811 5.72597 22.7141 7.92297C20.3981 9.81097 21.0581 12.76 24.2751 12.423V22.6C20.2981 22.862 21.2381 27.729 21.2591 30.559C15.9921 30.566 17.4331 36.707 17.2701 40.244C16.9341 43.203 18.8971 45.398 20.7701 47.429C24.1201 50.589 20.3541 56.257 23.5161 59.169C48.8661 60.674 34.3001 59.093 42.2231 44.788ZM22.7391 9.92997C31.1861 -0.758025 28.1541 -0.818026 36.8731 9.33597C37.8841 10.636 36.8731 12.048 35.2791 11.578C32.9591 12.314 34.8591 20.012 34.2791 22.54C33.721 22.616 33.1885 22.8214 32.7241 23.14C32.4241 19.656 26.9701 19.795 26.3811 23.048C26.176 22.9233 25.9572 22.8226 25.7291 22.748C25.3291 19.242 26.5221 14.51 25.2841 11.581C24.1261 11.578 22.5421 11.606 22.7391 9.92997ZM38.9751 47.846C36.8101 50.634 39.9601 56.821 37.1581 58.522C34.1451 57.963 24.7651 60.013 23.7501 57.13C24.0851 51.23 23.7621 47.788 19.3911 43.472C18.6141 40.966 17.1581 31.164 21.2721 31.489C21.6461 32.861 20.1171 40.329 22.7281 37.924C22.7541 33.653 22.6821 29.371 22.7501 25.108C23.0951 22.594 26.4041 23.427 26.2751 25.697C29.0271 27.423 26.4441 21.016 29.4801 21.523C32.5151 21.341 30.0601 28.044 32.7301 25.433C32.8301 22.571 36.4411 23.277 36.2701 25.868C36.2621 26.995 35.9601 30.405 37.7301 28.432C37.7901 25.608 41.3651 26.226 41.2701 28.8C40.6731 35.144 43.0711 42.408 38.9751 47.846Z" fill="#262626"/>
</g>
<defs>
<clipPath id="clip0_529_345">
<rect width="60" height="60" fill="white"/>
</clipPath>
</defs>
</svg>
