<svg width="911" height="384" viewBox="0 0 911 384" fill="none" xmlns="http://www.w3.org/2000/svg">
<path d="M718.145 79.2476V147.637L905.288 3.38013L718.145 79.2476Z" fill="#FCB01A" stroke="#263238" stroke-width="2" stroke-miterlimit="10" stroke-linecap="round" stroke-linejoin="round"/>
<path d="M718.141 79.2474L909.594 1L648.191 28.1113L718.141 79.2474Z" fill="#FCB01A" stroke="#263238" stroke-width="2" stroke-miterlimit="10" stroke-linecap="round" stroke-linejoin="round"/>
<path d="M740.65 93.4013L830.789 160.091L909.591 1L740.65 93.4013Z" fill="#FCB01A" stroke="#263238" stroke-width="2" stroke-miterlimit="10" stroke-linecap="round" stroke-linejoin="round"/>
<path d="M740.656 93.4011L718.145 147.637L766.09 112.22L740.656 93.4011Z" fill="#FCB01A" stroke="#263238" stroke-width="2" stroke-miterlimit="10" stroke-linecap="round" stroke-linejoin="round"/>
<path d="M8.1543 646.253C48.4788 525.851 41.2349 453.517 106.677 336.883C119.903 313.313 185.54 201.725 279.116 161.947C327.746 141.273 358.711 172.138 346.179 193.957C318.218 242.63 215.525 184.307 318.218 126.742C413.211 73.4948 615.493 177.579 710.317 147.724" stroke="#263238" stroke-width="2" stroke-linecap="round" stroke-linejoin="round" stroke-dasharray="8.66 17.32"/>
<path d="M718.424 144.723C719.759 144.151 721.068 143.54 722.351 142.898" stroke="#263238" stroke-width="2" stroke-linecap="round" stroke-linejoin="round"/>
</svg>
