<svg width="18" height="14" viewBox="0 0 18 14" fill="none" xmlns="http://www.w3.org/2000/svg">
<path d="M1.00066 7.74993C0.801748 7.74993 0.61098 7.67091 0.470329 7.53026C0.329677 7.38961 0.250659 7.19884 0.250659 6.99993C0.250659 6.80102 0.329677 6.61025 0.470329 6.4696C0.61098 6.32895 0.801748 6.24993 1.00066 6.24993L10.2507 6.24993L10.2507 0.999927C10.2508 0.851687 10.2948 0.706811 10.3773 0.583595C10.4597 0.460379 10.5768 0.364351 10.7137 0.30764C10.8507 0.250929 11.0014 0.236079 11.1468 0.264963C11.2922 0.293847 11.4258 0.36517 11.5307 0.469926L17.5307 6.46993C17.6711 6.61055 17.75 6.80118 17.75 6.99993C17.75 7.19868 17.6711 7.3893 17.5307 7.52993L11.5307 13.5299C11.4258 13.6347 11.2922 13.706 11.1468 13.7349C11.0014 13.7638 10.8507 13.7489 10.7137 13.6922C10.5768 13.6355 10.4597 13.5395 10.3773 13.4163C10.2948 13.293 10.2508 13.1482 10.2507 12.9999L10.2507 7.74993L1.00066 7.74993Z" fill="#FCB01A"/>
</svg>
