<svg width="917" height="917" viewBox="0 0 917 917" fill="none" xmlns="http://www.w3.org/2000/svg">
<path d="M838.568 420.52C838.542 420.591 837.797 420.318 836.414 420.039C835.037 419.764 832.981 419.524 830.5 419.884C828.035 420.234 825.126 421.241 822.586 423.348C820.048 425.417 817.878 428.54 817.011 432.232L816.985 432.331L816.646 433.648L816.14 432.399C814.718 428.887 812.193 426.086 809.455 424.3C806.709 422.48 803.753 421.714 801.275 421.523C796.242 421.18 793.299 422.752 793.264 422.543C793.244 422.501 793.933 422.101 795.3 421.659C796.659 421.222 798.731 420.778 801.315 420.9C803.881 421.015 806.995 421.749 809.898 423.616C812.792 425.45 815.465 428.368 816.963 432.069L816.119 432.136L816.145 432.032C817.064 428.124 819.375 424.854 822.071 422.713C824.774 420.531 827.855 419.542 830.419 419.262C833.005 418.972 835.112 419.319 836.495 419.704C837.882 420.094 838.586 420.478 838.568 420.52Z" fill="#E0E0E0"/>
<path d="M155.181 312.495C155.153 312.567 154.411 312.295 153.028 312.015C151.65 311.74 149.594 311.499 147.113 311.859C144.648 312.209 141.739 313.216 139.199 315.323C136.661 317.394 134.491 320.515 133.624 324.207L133.598 324.306L133.259 325.621L132.755 324.372C131.333 320.86 128.808 318.06 126.07 316.273C123.324 314.454 120.368 313.686 117.89 313.497C112.858 313.154 109.914 314.725 109.877 314.515C109.857 314.472 110.547 314.073 111.913 313.631C113.272 313.194 115.345 312.752 117.93 312.871C120.496 312.987 123.61 313.72 126.514 315.587C129.408 317.421 132.08 320.339 133.578 324.04L132.735 324.108L132.762 324.004C133.681 320.095 135.992 316.825 138.688 314.687C141.391 312.505 144.472 311.516 147.036 311.235C149.622 310.946 151.729 311.292 153.112 311.677C154.495 312.07 155.199 312.455 155.181 312.495Z" fill="#E0E0E0"/>
<path d="M629.61 274.621C629.663 274.676 628.919 275.443 627.65 276.884C626.379 278.324 624.646 280.508 622.837 283.417C619.2 289.161 615.562 298.304 615.686 308.789C615.686 308.899 615.685 309.007 615.685 309.108L614.803 309.181C613.284 298.867 607.872 290.65 603.122 285.899C598.344 281.046 594.462 279.162 594.59 278.983C594.605 278.957 594.845 279.067 595.291 279.302C595.727 279.551 596.406 279.868 597.202 280.404C598.836 281.407 601.092 283.06 603.562 285.458C606.036 287.848 608.655 291.063 610.883 295.054C613.117 299.034 614.885 303.822 615.677 309.055L614.795 309.128C614.795 309.025 614.797 308.913 614.797 308.802C614.669 298.1 618.483 288.815 622.304 283.083C624.205 280.178 626.032 278.033 627.391 276.652C628.046 275.938 628.629 275.458 628.998 275.107C629.381 274.766 629.588 274.599 629.61 274.621Z" fill="#E0E0E0"/>
<path d="M693.534 714.097C664.647 720.953 642.599 749.746 643.512 779.421C625.014 759.025 591.164 754.863 568.278 770.17C545.391 785.476 536.311 818.351 548.096 843.235C520.746 821.889 476.27 827.807 455.454 855.561C450.717 838.088 437.279 823.207 420.377 816.715C403.476 810.224 383.532 812.286 368.317 822.096C363.387 791.149 338.412 764.371 307.881 757.301C277.352 750.231 243.146 763.303 225.116 788.933C209.854 774.067 187.514 766.812 166.43 769.875C145.345 772.937 125.992 786.247 115.588 804.84L134.133 810.824C167.958 817.008 197.713 841.98 209.668 874.218C226.688 855.587 253.05 845.953 278.071 849.221C303.092 852.489 326.096 868.569 337.759 890.948L480.534 890.875C516.082 890.579 543.213 892.499 576.074 890.875C589.068 845.16 648.825 804.523 693.749 820.029C702.76 785.396 732.241 756.967 767.133 749.094C754.319 722.721 722.099 707.319 693.534 714.097Z" fill="#EBEBEB"/>
<path d="M768.276 748.833C767.894 748.914 767.514 749.011 767.135 749.097C767.28 749.394 767.434 749.684 767.573 749.983L768.276 748.833Z" fill="#EBEBEB"/>
<path d="M399.26 664.037C400.353 656.09 389.138 649.553 380.712 648.873C376.694 648.548 372.52 649.163 368.713 647.837C360.463 644.961 357.169 634.306 349.12 630.911C343.103 628.373 336.176 630.632 330.342 633.568C324.508 636.505 318.743 640.2 312.225 640.616C306.556 640.979 300.4 638.878 295.441 641.647C291.745 643.71 289.808 647.969 286.403 650.481C283.07 652.939 278.722 653.46 274.588 653.685C270.452 653.911 266.172 653.951 262.407 655.675C258.641 657.399 255.527 661.381 256.309 665.447L399.26 664.037Z" fill="#EBEBEB"/>
<path d="M799.76 217.048C801.06 207.598 787.723 199.824 777.702 199.017C772.923 198.631 767.958 199.361 763.432 197.784C753.622 194.366 749.704 181.693 740.133 177.654C732.976 174.635 724.738 177.322 717.802 180.814C710.864 184.306 704.008 188.7 696.258 189.196C689.516 189.627 682.195 187.127 676.296 190.421C671.9 192.875 669.599 197.94 665.547 200.928C661.584 203.851 656.414 204.469 651.497 204.737C646.58 205.005 641.489 205.054 637.01 207.105C632.532 209.155 628.829 213.89 629.757 218.727L799.76 217.048Z" fill="#EBEBEB"/>
<path d="M277.545 167.697C278.917 157.735 264.857 149.541 254.293 148.69C249.255 148.284 244.023 149.055 239.251 147.391C228.911 143.787 224.781 130.429 214.69 126.172C207.147 122.99 198.463 125.823 191.149 129.502C183.837 133.183 176.609 137.814 168.438 138.337C161.332 138.792 153.614 136.156 147.397 139.628C142.764 142.216 140.336 147.555 136.066 150.703C131.889 153.785 126.438 154.438 121.255 154.72C116.072 155.002 110.704 155.054 105.985 157.216C101.264 159.376 97.3598 164.369 98.3392 169.467L277.545 167.697Z" fill="#EBEBEB"/>
<path d="M833.485 546.895C835.334 533.47 816.385 522.424 802.148 521.278C795.358 520.731 788.305 521.767 781.873 519.526C767.936 514.668 762.37 496.664 748.771 490.929C738.603 486.641 726.901 490.457 717.045 495.418C707.189 500.379 697.448 506.622 686.437 507.326C676.86 507.939 666.457 504.388 658.078 509.067C651.833 512.553 648.563 519.748 642.806 523.994C637.176 528.146 629.831 529.026 622.843 529.406C615.857 529.786 608.624 529.857 602.262 532.77C595.9 535.682 590.638 542.409 591.958 549.279L833.485 546.895Z" fill="#F5F5F5"/>
<path d="M299.85 451.498C301.523 439.344 284.369 429.345 271.48 428.305C265.332 427.81 258.948 428.749 253.125 426.719C240.509 422.321 235.469 406.022 223.158 400.828C213.953 396.946 203.358 400.403 194.435 404.892C185.513 409.384 176.695 415.034 166.725 415.673C158.054 416.228 148.639 413.011 141.051 417.248C135.399 420.404 132.437 426.919 127.227 430.761C122.128 434.521 115.48 435.317 109.154 435.661C102.829 436.006 96.2815 436.069 90.5228 438.706C84.764 441.343 79.9993 447.432 81.195 453.653L299.85 451.498Z" fill="#EBEBEB"/>
<path d="M867.457 783.611C867.457 783.611 866.551 782.619 864.839 780.658C863.981 779.681 862.956 778.428 861.557 777.11C860.876 776.431 860.141 775.701 859.352 774.918C858.586 774.113 857.707 773.313 856.737 772.508C855.783 771.685 854.773 770.812 853.709 769.893C852.656 768.959 851.42 768.138 850.195 767.19C847.769 765.253 844.869 763.496 841.797 761.513C835.507 757.783 827.85 754.15 818.819 751.412C809.809 748.672 799.384 746.841 787.991 747.127C786.57 747.171 785.134 747.215 783.683 747.261C782.238 747.406 780.78 747.551 779.307 747.698C778.57 747.773 777.831 747.848 777.088 747.925C776.353 748.054 775.612 748.184 774.869 748.312C773.383 748.574 771.883 748.84 770.372 749.108C764.391 750.517 758.268 752.356 752.252 755.054C746.271 757.798 740.278 761.071 734.602 765.187C728.946 769.315 723.513 774.098 718.508 779.554C708.618 790.535 700.487 804.319 696.311 820.077L696.201 820.493L695.796 820.354C685.15 816.676 673.192 816.167 661.476 818.327C649.732 820.473 638.17 825.118 627.412 831.576C616.659 838.05 606.634 846.352 598.091 856.293C589.591 866.224 582.484 877.895 578.697 890.952L578.603 891.271L578.273 891.287C560.19 892.202 541.524 892.008 522.476 891.643C512.95 891.474 503.321 891.302 493.607 891.278C483.89 891.289 474.086 891.3 464.211 891.311C421.18 891.328 379.468 891.344 339.936 891.359H339.657L339.527 891.111C333.163 878.974 323.6 868.925 312.587 861.754C301.569 854.567 289.026 850.226 276.496 849.237C263.957 848.23 251.555 850.429 240.518 854.91C229.465 859.39 219.734 866.176 212.134 874.433L211.701 874.902L211.477 874.304C206.013 859.741 197.236 847.317 187.107 837.527C181.986 832.671 176.534 828.456 170.927 824.845C165.313 821.228 159.45 818.419 153.647 816.069C147.821 813.738 141.924 812.234 136.202 811.057C134.757 810.842 133.323 810.63 131.905 810.419C131.195 810.316 130.489 810.213 129.785 810.112C129.077 810.056 128.371 810.001 127.671 809.944C126.268 809.832 124.877 809.722 123.502 809.614C122.121 809.595 120.755 809.579 119.403 809.56C108.571 809.463 98.6915 811.255 90.123 813.813C81.5381 816.377 74.2406 819.739 68.2012 823.154C65.2503 824.977 62.47 826.589 60.1188 828.359C57.6759 830 55.6273 831.711 53.775 833.219C51.8713 834.668 50.4316 836.223 49.0616 837.419C47.6916 838.622 46.6737 839.766 45.8228 840.656C44.1263 842.442 43.2295 843.343 43.2295 843.343C43.2295 843.343 44.0658 842.389 45.7347 840.573C46.5729 839.669 47.5797 838.51 48.9369 837.291C50.2959 836.078 51.7264 834.505 53.6228 833.039C55.4678 831.513 57.5109 829.784 59.9482 828.122C62.2958 826.332 65.0743 824.7 68.027 822.855C74.0682 819.4 81.3785 815.992 89.991 813.384C98.587 810.784 108.509 808.95 119.399 809.016C120.76 809.029 122.134 809.043 123.522 809.056C124.907 809.162 126.304 809.269 127.716 809.377C128.422 809.432 129.132 809.485 129.844 809.54C130.552 809.641 131.263 809.742 131.977 809.843C133.405 810.052 134.847 810.263 136.303 810.474C142.066 811.644 148.002 813.144 153.873 815.477C159.72 817.828 165.627 820.645 171.285 824.273C176.937 827.897 182.434 832.13 187.596 837.01C197.812 846.849 206.676 859.35 212.207 874.029L211.55 873.901C219.22 865.545 229.041 858.679 240.203 854.139C251.346 849.602 263.874 847.365 276.56 848.372C289.24 849.36 301.926 853.74 313.071 860.999C324.211 868.241 333.889 878.396 340.339 890.682L339.93 890.434C379.462 890.409 421.173 890.381 464.202 890.354C474.078 890.343 483.885 890.333 493.603 890.322C503.327 890.346 512.959 890.521 522.485 890.691C541.535 891.062 560.172 891.261 578.22 890.357L577.797 890.695C581.639 877.473 588.823 865.705 597.396 855.7C606.014 845.687 616.114 837.336 626.953 830.822C637.796 824.328 649.455 819.653 661.319 817.498C673.152 815.328 685.26 815.855 696.047 819.598L695.532 819.875C699.765 803.983 707.981 790.105 717.962 779.065C723.013 773.577 728.491 768.772 734.193 764.627C739.915 760.495 745.956 757.209 751.982 754.462C758.046 751.758 764.215 749.921 770.238 748.516C771.762 748.25 773.271 747.986 774.768 747.725C775.516 747.597 776.261 747.469 777.002 747.342C777.75 747.267 778.495 747.193 779.236 747.12C780.718 746.977 782.187 746.834 783.641 746.693C785.101 746.652 786.546 746.61 787.977 746.57C799.435 746.313 809.908 748.187 818.947 750.971C828.007 753.755 835.679 757.434 841.973 761.209C845.047 763.213 847.945 764.994 850.367 766.949C851.589 767.908 852.823 768.741 853.874 769.684C854.934 770.614 855.941 771.494 856.891 772.327C857.857 773.143 858.73 773.95 859.492 774.764C860.273 775.556 861.003 776.297 861.68 776.981C863.068 778.316 864.08 779.584 864.924 780.576C866.615 782.568 867.457 783.611 867.457 783.611Z" fill="#263238"/>
<path d="M454.788 93.2277L464.376 112.653C465.059 114.036 466.379 114.995 467.905 115.217L489.343 118.333C493.187 118.893 494.724 123.617 491.942 126.33L476.428 141.451C475.324 142.527 474.819 144.079 475.08 145.599L478.742 166.951C479.399 170.78 475.38 173.7 471.94 171.892L452.764 161.81C451.397 161.093 449.767 161.093 448.401 161.81L429.226 171.892C425.787 173.7 421.767 170.78 422.424 166.951L426.086 145.599C426.347 144.079 425.842 142.527 424.738 141.451L409.224 126.33C406.442 123.617 407.977 118.893 411.823 118.333L433.263 115.217C434.789 114.995 436.109 114.036 436.791 112.653L446.379 93.2277C448.1 89.7431 453.068 89.7431 454.788 93.2277Z" fill="#FCB01A"/>
<path d="M418.235 106.062C418.054 106.253 405.885 94.9556 391.061 80.8301C376.231 66.701 364.362 55.0955 364.543 54.9047C364.725 54.714 376.89 66.0096 391.719 80.1387C406.544 94.2624 418.417 105.872 418.235 106.062Z" fill="#FCB01A"/>
<path d="M392.798 118.016C392.781 118.28 382.335 117.858 369.468 117.077C356.595 116.296 346.178 115.449 346.192 115.184C346.209 114.92 356.654 115.342 369.525 116.123C382.394 116.905 392.814 117.752 392.798 118.016Z" fill="#FCB01A"/>
<path d="M432.462 83.2068C432.222 83.3132 429.202 77.0574 425.719 69.2336C422.234 61.4079 419.606 54.9779 419.846 54.8715C420.087 54.7633 423.107 61.0191 426.592 68.8447C430.075 76.6704 432.703 83.1004 432.462 83.2068Z" fill="#FCB01A"/>
<path d="M448.689 20.9114C448.953 20.9114 449.166 33.6907 449.166 49.4521C449.166 65.219 448.951 77.9946 448.689 77.9946C448.426 77.9946 448.212 65.2172 448.212 49.4521C448.212 33.6907 448.426 20.9114 448.689 20.9114Z" fill="#FCB01A"/>
<path d="M481.115 55.4015C481.353 55.5152 478.639 61.7141 475.053 69.2445C471.466 76.7786 468.366 82.7923 468.13 82.6786C467.891 82.5649 470.606 76.3678 474.191 68.8337C477.777 61.3033 480.878 55.2878 481.115 55.4015Z" fill="#FCB01A"/>
<path d="M533.504 64.7421C533.654 64.9585 519.666 74.9776 502.263 87.1187C484.855 99.2635 470.623 108.93 470.473 108.714C470.322 108.498 484.309 98.4804 501.717 86.3356C519.12 74.1945 533.353 64.5257 533.504 64.7421Z" fill="#FCB01A"/>
<path d="M534.883 105.301C534.978 105.547 528.057 108.463 519.422 111.816C510.786 115.168 503.711 117.684 503.615 117.439C503.52 117.193 510.441 114.277 519.076 110.924C527.71 107.574 534.788 105.055 534.883 105.301Z" fill="#FCB01A"/>
<path d="M412.929 144.385C413.015 144.635 394.823 151.118 372.302 158.865C349.773 166.615 331.446 172.691 331.36 172.444C331.273 172.194 349.461 165.711 371.992 157.962C394.512 150.216 412.844 144.136 412.929 144.385Z" fill="#FCB01A"/>
<path d="M556.299 164.38C556.227 164.635 540.218 160.363 520.543 154.843C500.862 149.321 484.971 144.64 485.042 144.385C485.114 144.132 501.121 148.4 520.802 153.924C540.475 159.444 556.37 164.127 556.299 164.38Z" fill="#FCB01A"/>
<path d="M397.941 197.529C397.769 197.329 402.623 192.823 408.784 187.466C414.946 182.105 420.081 177.924 420.253 178.122C420.426 178.32 415.573 182.826 409.411 188.187C403.25 193.546 398.115 197.729 397.941 197.529Z" fill="#FCB01A"/>
<path d="M450.212 242.435C449.948 242.433 449.818 226.763 449.921 207.438C450.024 188.108 450.321 172.442 450.585 172.444C450.849 172.446 450.979 188.112 450.876 207.444C450.774 226.767 450.477 242.435 450.212 242.435Z" fill="#FCB01A"/>
<path d="M504.273 201.445C504.091 201.637 499.05 197.172 493.01 191.472C486.971 185.77 482.223 180.994 482.402 180.803C482.582 180.613 487.626 185.076 493.665 190.778C499.704 196.475 504.453 201.252 504.273 201.445Z" fill="#FCB01A"/>
<path d="M543.58 135.351L543.744 138.506C543.755 138.729 543.877 138.935 544.068 139.052L546.759 140.706C547.241 141.003 547.175 141.724 546.645 141.928L543.696 143.058C543.485 143.138 543.329 143.316 543.276 143.536L542.535 146.606C542.401 147.157 541.695 147.316 541.339 146.876L539.353 144.42C539.212 144.246 538.993 144.151 538.77 144.169L535.621 144.413C535.056 144.457 534.685 143.833 534.995 143.358L536.717 140.71C536.84 140.521 536.862 140.285 536.776 140.077L535.571 137.158C535.355 136.633 535.833 136.09 536.38 136.237L539.43 137.057C539.646 137.115 539.879 137.062 540.05 136.917L542.454 134.869C542.887 134.498 543.551 134.786 543.58 135.351Z" fill="#FCB01A"/>
<path d="M563.834 102.093L565.27 103.597C565.373 103.704 565.522 103.755 565.668 103.731L567.722 103.401C568.091 103.342 568.368 103.731 568.19 104.059L567.203 105.892C567.134 106.022 567.132 106.18 567.2 106.31L568.15 108.162C568.32 108.494 568.036 108.877 567.669 108.811L565.622 108.439C565.478 108.413 565.327 108.459 565.223 108.564L563.755 110.038C563.493 110.302 563.04 110.15 562.991 109.782L562.714 107.72C562.694 107.573 562.604 107.445 562.472 107.379L560.616 106.438C560.284 106.269 560.287 105.793 560.625 105.631L562.499 104.731C562.633 104.667 562.727 104.54 562.749 104.395L563.07 102.339C563.121 101.967 563.576 101.824 563.834 102.093Z" fill="#FCB01A"/>
<path d="M331.229 77.1399L332.665 78.6438C332.768 78.7501 332.917 78.8015 333.063 78.7776L335.117 78.4475C335.486 78.3888 335.763 78.7776 335.585 79.1059L334.598 80.9381C334.529 81.0683 334.527 81.2242 334.595 81.3563L335.545 83.2068C335.715 83.5387 335.431 83.922 335.064 83.8542L333.018 83.4819C332.873 83.4562 332.722 83.502 332.618 83.6066L331.151 85.0811C330.888 85.3452 330.435 85.193 330.386 84.8243L330.107 82.7629C330.087 82.6162 329.997 82.4878 329.865 82.4218L328.009 81.481C327.675 81.3122 327.681 80.8354 328.018 80.674L329.892 79.7717C330.026 79.7075 330.12 79.5809 330.142 79.4342L330.463 77.3783C330.516 77.0133 330.973 76.8703 331.229 77.1399Z" fill="#FCB01A"/>
<path d="M148.752 520.539C148.726 520.61 147.982 520.339 146.599 520.058C145.222 519.783 143.166 519.543 140.683 519.902C138.218 520.253 135.309 521.259 132.769 523.367C130.231 525.437 128.061 528.559 127.193 532.251L127.168 532.35L126.829 533.665L126.324 532.416C124.901 528.904 122.377 526.105 119.639 524.317C116.894 522.497 113.937 521.729 111.46 521.54C106.427 521.197 103.484 522.769 103.449 522.558C103.428 522.516 104.118 522.116 105.484 521.674C106.843 521.237 108.916 520.794 111.5 520.915C114.066 521.03 117.18 521.764 120.083 523.631C122.977 525.465 125.649 528.383 127.148 532.084L126.304 532.152L126.331 532.047C127.25 528.137 129.561 524.869 132.257 522.728C134.96 520.546 138.042 519.558 140.606 519.277C143.191 518.987 145.299 519.334 146.682 519.719C148.066 520.113 148.77 520.496 148.752 520.539Z" fill="#263238"/>
<path d="M237.525 513.503C237.599 513.58 236.546 514.666 234.749 516.709C232.949 518.749 230.494 521.843 227.932 525.964C222.78 534.101 217.625 547.053 217.802 561.905C217.802 562.06 217.801 562.214 217.799 562.358L216.55 562.46C214.397 547.851 206.731 536.21 200.004 529.478C193.236 522.602 187.736 519.933 187.917 519.679C187.938 519.64 188.279 519.798 188.91 520.132C189.528 520.486 190.491 520.935 191.618 521.692C193.933 523.114 197.128 525.456 200.629 528.852C204.134 532.238 207.844 536.793 211 542.446C214.164 548.082 216.669 554.866 217.791 562.279L216.543 562.381C216.544 562.237 216.544 562.079 216.546 561.919C216.365 546.758 221.768 533.606 227.182 525.487C229.874 521.371 232.463 518.331 234.387 516.377C235.315 515.369 236.141 514.685 236.663 514.189C237.201 513.709 237.496 513.472 237.525 513.503Z" fill="#263238"/>
<path d="M691.191 404.511C691.16 404.599 689.658 403.981 686.819 403.352C683.997 402.732 679.758 402.183 674.617 402.882C669.515 403.564 663.469 405.617 658.176 409.974C652.894 414.251 648.375 420.723 646.57 428.4C646.552 428.47 646.533 428.54 646.517 428.604L646.18 429.921L645.673 428.672C642.719 421.376 637.472 415.579 631.779 411.894C626.072 408.142 619.931 406.587 614.811 406.237C609.655 405.877 605.474 406.618 602.686 407.346C599.888 408.085 598.409 408.734 598.376 408.652C598.363 408.624 598.727 408.45 599.431 408.144C600.131 407.834 601.193 407.429 602.594 407.016C605.378 406.178 609.602 405.329 614.849 405.613C620.06 405.888 626.356 407.408 632.221 411.21C638.068 414.943 643.463 420.857 646.495 428.342L645.651 428.41C645.668 428.344 645.686 428.272 645.705 428.199C647.561 420.303 652.221 413.684 657.659 409.338C663.113 404.907 669.33 402.873 674.533 402.26C679.777 401.63 684.066 402.286 686.894 403.016C688.317 403.374 689.398 403.744 690.111 404.034C690.834 404.32 691.202 404.483 691.191 404.511Z" fill="#263238"/>
<path d="M813.185 337.569C813.157 337.643 812.323 337.329 810.762 337.006C809.21 336.689 806.89 336.412 804.086 336.812C801.302 337.203 798.016 338.336 795.14 340.715C792.271 343.051 789.818 346.578 788.836 350.752L788.807 350.864L788.47 352.181L787.963 350.932C786.357 346.963 783.503 343.801 780.406 341.784C777.302 339.732 773.961 338.868 771.164 338.659C768.349 338.444 766.058 338.828 764.525 339.204C762.986 339.585 762.163 339.917 762.133 339.845C762.121 339.818 762.315 339.71 762.698 339.528C763.08 339.345 763.661 339.11 764.431 338.87C765.963 338.384 768.294 337.892 771.203 338.034C774.087 338.167 777.587 338.996 780.848 341.098C784.097 343.161 787.1 346.441 788.783 350.6L787.94 350.668L787.969 350.551C789.002 346.16 791.597 342.486 794.623 340.08C797.658 337.626 801.119 336.511 804.002 336.19C806.91 335.858 809.28 336.244 810.837 336.671C811.62 336.88 812.213 337.096 812.601 337.269C812.998 337.439 813.196 337.54 813.185 337.569Z" fill="#263238"/>
<path d="M733.423 310.172C733.478 310.227 732.588 311.129 731.077 312.831C729.564 314.531 727.503 317.113 725.351 320.559C721.027 327.362 716.7 338.204 716.849 350.644C716.847 350.774 716.847 350.903 716.845 351.024L715.963 351.097C715.044 345.029 713.02 339.459 710.463 334.804C707.914 330.136 704.919 326.344 702.087 323.49C699.261 320.627 696.682 318.608 694.826 317.333C692.974 316.051 691.899 315.406 691.94 315.338C691.954 315.312 692.237 315.448 692.761 315.73C693.277 316.029 694.076 316.411 695.017 317.047C696.945 318.243 699.609 320.205 702.527 323.048C705.451 325.882 708.543 329.687 711.175 334.41C713.812 339.118 715.901 344.781 716.838 350.969L715.956 351.042C715.956 350.921 715.958 350.789 715.959 350.657C715.807 338.001 720.31 327.017 724.82 320.226C727.063 316.783 729.219 314.238 730.82 312.598C731.593 311.751 732.278 311.177 732.711 310.758C733.159 310.351 733.401 310.15 733.423 310.172Z" fill="#263238"/>
<path d="M374.698 361.9C414.613 361.9 454.53 361.9 494.445 361.9C505.719 361.9 516.992 361.9 528.268 361.9C534.168 361.9 534.179 352.73 528.268 352.73C488.352 352.73 448.435 352.73 408.52 352.73C397.247 352.73 385.973 352.73 374.698 352.73C368.798 352.73 368.787 361.9 374.698 361.9Z" fill="#455A64"/>
<path d="M380.011 186.602H369.007V890.82H380.011V186.602Z" fill="#455A64"/>
<path d="M379.437 890.822C379.173 890.822 378.96 733.268 378.96 538.96C378.96 344.585 379.175 187.064 379.437 187.064C379.701 187.064 379.914 344.585 379.914 538.96C379.914 733.268 379.699 890.822 379.437 890.822Z" fill="#263238"/>
<path d="M374.698 290.645C414.613 290.645 454.53 290.645 494.445 290.645C505.719 290.645 516.992 290.645 528.268 290.645C534.168 290.645 534.179 281.475 528.268 281.475C488.352 281.475 448.435 281.475 408.52 281.475C397.247 281.475 385.973 281.475 374.698 281.475C368.798 281.475 368.787 290.645 374.698 290.645Z" fill="#455A64"/>
<path d="M533.581 188.047H522.577V890.822H533.581V188.047Z" fill="#455A64"/>
<path d="M522.85 802.289C522.586 802.289 522.373 665.045 522.373 495.787C522.373 326.469 522.588 189.254 522.85 189.254C523.114 189.254 523.327 326.469 523.327 495.787C523.329 665.045 523.114 802.289 522.85 802.289Z" fill="#263238"/>
<path d="M374.508 831.277C414.423 831.277 454.34 831.277 494.255 831.277C505.529 831.277 516.802 831.277 528.078 831.277C533.978 831.277 533.989 822.107 528.078 822.107C488.163 822.107 448.246 822.107 408.331 822.107C397.057 822.107 385.783 822.107 374.508 822.107C368.606 822.107 368.597 831.277 374.508 831.277Z" fill="#455A64"/>
<path d="M377.708 689.122C415.149 689.122 452.592 689.122 490.033 689.122C500.687 689.122 511.342 689.122 521.996 689.122C527.896 689.122 527.907 679.952 521.996 679.952C484.555 679.952 447.112 679.952 409.671 679.952C399.017 679.952 388.361 679.952 377.708 679.952C371.808 679.952 371.799 689.122 377.708 689.122Z" fill="#455A64"/>
<path d="M374.508 589.776C414.423 589.776 454.34 589.776 494.255 589.776C505.529 589.776 516.802 589.776 528.078 589.776C533.978 589.776 533.989 580.606 528.078 580.606C488.163 580.606 448.246 580.606 408.331 580.606C397.057 580.606 385.783 580.606 374.508 580.606C368.606 580.606 368.597 589.776 374.508 589.776Z" fill="#455A64"/>
<path d="M374.508 511.406C414.423 511.406 454.34 511.406 494.255 511.406C505.529 511.406 516.802 511.406 528.078 511.406C533.978 511.406 533.989 502.236 528.078 502.236C488.163 502.236 448.246 502.236 408.331 502.236C397.057 502.236 385.783 502.236 374.508 502.236C368.606 502.236 368.597 511.406 374.508 511.406Z" fill="#455A64"/>
<path d="M374.508 434.897C414.423 434.897 454.34 434.897 494.255 434.897C505.529 434.897 516.802 434.897 528.078 434.897C533.978 434.897 533.989 425.727 528.078 425.727C488.163 425.727 448.246 425.727 408.331 425.727C397.057 425.727 385.783 425.727 374.508 425.727C368.606 425.727 368.597 434.897 374.508 434.897Z" fill="#455A64"/>
<path d="M376.029 762.381C413.89 762.381 451.75 762.381 489.611 762.381C500.406 762.381 511.203 762.381 521.997 762.381C527.897 762.381 527.908 753.211 521.997 753.211C484.136 753.211 446.277 753.211 408.416 753.211C397.621 753.211 386.824 753.211 376.029 753.211C370.128 753.211 370.118 762.381 376.029 762.381Z" fill="#455A64"/>
<path d="M500.928 300.22L491.607 279.474C491.607 279.474 492.093 268.391 490.52 267.452C488.356 266.163 487.829 267.232 487.224 270.933L486.353 276.378C486.353 276.378 482.799 268.633 479.475 268.311C477.227 268.092 476.576 272.021 476.576 272.021C476.576 272.021 472.831 268.511 470.157 269.351C467.648 270.137 468.345 273.838 468.345 273.838C468.345 273.838 465.205 271.959 463.837 275.28C462.271 279.084 469.111 284.835 470.157 287.379C472.345 292.707 467.712 292.879 467.712 292.879C467.712 292.879 455.795 291.351 456.406 294.407C457.016 297.462 460.989 297.462 464.044 297.768C466.592 298.023 476.15 300.402 479.257 301.185C479.906 301.348 480.523 301.62 481.084 301.987L488.2 309.291L500.928 300.22Z" fill="#FFBE9D"/>
<path d="M496.092 776.633L495.686 829.883L466.953 830.239L467.248 776.886L496.092 776.633Z" fill="#FCB01A"/>
<path d="M481.508 828.051C481.268 828.047 481.308 816.387 481.598 802.014C481.888 787.635 482.317 775.986 482.557 775.991C482.798 775.997 482.757 787.654 482.468 802.032C482.178 816.405 481.749 828.057 481.508 828.051Z" fill="#263238"/>
<path d="M467.049 813.188C467.005 813.155 467.256 812.733 467.797 812.033C468.338 811.334 469.195 810.373 470.39 809.324C471.586 808.281 473.136 807.151 475.067 806.265C476.978 805.364 479.304 804.741 481.781 804.792C486.75 804.858 490.9 807.34 492.928 809.79C493.983 810.999 494.629 812.132 494.995 812.939C495.355 813.751 495.487 814.225 495.437 814.245C495.28 814.331 494.608 812.44 492.477 810.206C490.414 807.967 486.476 805.728 481.763 805.66C477.064 805.577 473.163 807.906 470.787 809.794C468.357 811.73 467.168 813.291 467.049 813.188Z" fill="#263238"/>
<path opacity="0.3" d="M466.966 796.154L466.935 802.021H496.092V796.154H466.966Z" fill="black"/>
<path d="M466.953 830.239L466.984 824.682L495.727 824.688L495.686 829.883L466.953 830.239Z" fill="#E0E0E0"/>
<path d="M435.821 638.427L435.433 689.529L407.858 689.87L408.143 638.669L435.821 638.427Z" fill="#FCB01A"/>
<path d="M421.827 687.77C421.596 687.767 421.634 676.577 421.913 662.782C422.19 648.983 422.602 637.805 422.832 637.809C423.063 637.814 423.024 649 422.746 662.799C422.47 676.594 422.058 687.774 421.827 687.77Z" fill="#263238"/>
<path d="M407.95 673.507C407.908 673.476 408.15 673.071 408.669 672.4C409.188 671.728 410.011 670.808 411.158 669.801C412.306 668.8 413.793 667.716 415.645 666.865C417.479 666.001 419.711 665.401 422.088 665.453C426.857 665.517 430.838 667.897 432.786 670.248C433.797 671.409 434.416 672.497 434.769 673.271C435.113 674.05 435.24 674.505 435.192 674.523C435.04 674.606 434.396 672.792 432.351 670.648C430.373 668.499 426.593 666.351 422.068 666.285C417.558 666.206 413.815 668.442 411.534 670.252C409.204 672.106 408.064 673.605 407.95 673.507Z" fill="#263238"/>
<path opacity="0.3" d="M407.871 657.159L407.84 662.79H435.821V657.159H407.871Z" fill="black"/>
<path d="M407.858 689.87L407.89 684.537L435.471 684.543L435.433 689.529L407.858 689.87Z" fill="#E0E0E0"/>
<path d="M441.075 295.87L441.805 295.685C444.008 291.705 448.479 289.222 453.018 288.989C457.556 288.756 462.071 290.619 465.475 293.633C467.839 295.725 469.704 298.337 472.079 300.419C474.454 302.5 477.614 304.065 480.703 303.415C481.08 304.567 478.931 305.249 479.063 306.454C479.127 307.028 479.718 307.406 480.283 307.52C481.113 307.687 481.972 307.476 482.817 307.501C483.665 307.527 484.624 307.92 484.835 308.741C484.937 309.143 484.838 309.568 484.734 309.968C483.791 313.566 482.3 317.119 479.72 319.795C477.139 322.471 473.323 324.145 469.671 323.459C466.755 322.913 464.312 320.994 461.998 319.138C457.6 315.611 453.202 312.086 448.804 308.56C446.774 306.933 444.72 305.28 443.185 303.181C441.649 301.077 440.666 298.44 441.075 295.87Z" fill="#263238"/>
<path d="M443.828 296.604C442.024 295.164 439.951 293.998 437.686 293.558C435.421 293.119 432.947 293.47 431.075 294.821C429.334 296.077 428.271 298.04 427.044 299.802C425.817 301.567 424.19 303.287 422.066 303.597C421.694 303.652 421.281 303.674 421.008 303.934C420.524 304.395 420.874 305.288 421.481 305.563C422.088 305.838 422.794 305.693 423.443 305.545C422.394 306.773 420.903 307.617 419.31 307.879C419.658 309.447 421.49 310.504 423.02 310.02C422.405 312.514 421.789 315.041 421.804 317.61C421.818 320.18 422.532 322.839 424.276 324.723C426.198 326.799 429.323 327.96 430.161 330.665" fill="#263238"/>
<path d="M462.343 387.229L428.005 386.787L431.838 357.513C431.838 357.513 429.492 357.01 429.335 344.275C429.177 331.538 428.594 309.9 428.594 309.9C443.317 303.564 460.313 305.704 473.013 315.492L474.898 316.945L462.343 387.229Z" fill="#FFBE9D"/>
<path d="M470.911 332.605C471.128 332.512 479.65 330.017 479.373 338.725C479.096 347.433 470.423 345.357 470.416 345.108C470.409 344.856 470.911 332.605 470.911 332.605Z" fill="#FFBE9D"/>
<path d="M430.071 330.788C429.855 330.694 422.102 328.601 422.379 337.307C422.656 346.015 431.331 343.939 431.338 343.69C431.344 343.44 430.071 330.788 430.071 330.788Z" fill="#FFBE9D"/>
<path d="M473.731 331.635C472.432 338.931 472.687 342.764 471.486 347.637C469.584 355.349 465.76 361.262 458.821 365.113C451.883 368.964 442.498 368.895 436.537 363.651C432.402 360.013 429.471 355.903 428.857 350.425C428.244 344.946 426.63 334.658 426.592 329.145C426.522 319.203 426.854 310.287 426.854 310.287L455.219 305.147L471.36 314.757L473.731 331.635Z" fill="#263238"/>
<path d="M444.473 369.511C444.429 369.712 446.661 370.266 449.443 369.951C452.227 369.652 454.285 368.625 454.199 368.438C454.118 368.22 452.02 368.878 449.357 369.16C446.696 369.463 444.504 369.28 444.473 369.511Z" fill="#263238"/>
<path d="M472.361 344.038C473.192 336.561 473.731 328.009 474.898 320.128C475.336 317.17 476.389 312.906 476.125 309.928C475.861 306.937 475.046 307.848 473.731 305.15C472.081 301.766 465.779 299.513 462.091 298.77C458.405 298.027 457.946 294.836 455.118 297.317C453.057 294.225 449 292.615 445.382 293.453C441.763 294.291 438.825 297.521 438.33 301.205C436.312 299.283 432.982 298.924 430.601 300.371C428.221 301.818 427.005 304.943 427.779 307.622C425.743 307.962 423.918 309.379 423.086 311.272C422.253 313.163 422.438 315.47 423.564 317.203C424.877 319.23 427.247 320.345 428.696 322.276C430.365 324.501 430.544 327.74 429.132 330.137" fill="#263238"/>
<path d="M435.816 342.481C435.627 342.437 435.231 346.05 436.796 350.135C438.322 354.235 441.005 356.682 441.117 356.522C441.309 356.365 438.993 353.779 437.539 349.854C436.036 345.946 436.064 342.472 435.816 342.481Z" fill="#455A64"/>
<path d="M432.006 336.13C431.83 336.04 430.726 339.145 431.452 343.024C432.138 346.91 434.265 349.427 434.397 349.28C434.608 349.152 432.877 346.564 432.233 342.881C431.538 339.209 432.248 336.176 432.006 336.13Z" fill="#455A64"/>
<path d="M467.726 306.029C465.566 302.63 462.617 299.591 458.879 298.102C455.141 296.613 450.543 296.921 447.484 299.536" fill="#263238"/>
<path d="M467.012 325.302C466.872 325.267 467.013 324.286 467.29 322.733C467.556 321.181 467.967 319.046 467.947 316.699C467.925 314.357 467.34 312.284 466.647 310.927C465.966 309.556 465.277 308.848 465.39 308.732C465.46 308.64 466.36 309.183 467.266 310.573C468.18 311.942 468.935 314.179 468.956 316.688C468.974 319.189 468.429 321.374 467.985 322.898C467.523 324.426 467.142 325.335 467.012 325.302Z" fill="#455A64"/>
<path d="M461.147 328.183C460.896 328.044 461.598 326.322 462.278 324.16C462.972 322.001 463.39 320.187 463.676 320.22C463.944 320.244 463.966 322.197 463.239 324.466C462.522 326.735 461.38 328.319 461.147 328.183Z" fill="#455A64"/>
<path d="M433.907 325.946C433.821 326.014 432.839 324.957 431.955 322.834C431.07 320.739 430.413 317.484 431.106 313.997C431.805 310.509 433.661 307.756 435.284 306.164C436.916 304.545 438.226 303.947 438.281 304.044C438.376 304.18 437.232 304.98 435.809 306.649C434.386 308.295 432.748 310.936 432.097 314.195C431.447 317.454 431.944 320.521 432.627 322.59C433.3 324.679 434.048 325.858 433.907 325.946Z" fill="#455A64"/>
<path d="M464.911 293.55C464.834 293.679 463.798 293.138 462.113 292.371C460.433 291.63 458.025 290.658 455.272 290.691C452.508 290.675 450.232 291.953 449.071 293.308C447.87 294.651 447.648 295.836 447.483 295.79C447.377 295.799 447.336 294.48 448.517 292.857C449.102 292.067 449.986 291.243 451.158 290.643C452.328 290.038 453.763 289.703 455.257 289.682C458.28 289.653 460.8 290.816 462.432 291.735C464.082 292.687 464.977 293.442 464.911 293.55Z" fill="#455A64"/>
<path d="M426.127 301.62C426.017 301.58 426.222 300.606 427.137 299.316C428.03 298.04 429.751 296.499 432.111 295.81C434.473 295.126 436.751 295.503 438.189 296.103C439.652 296.701 440.346 297.413 440.274 297.506C440.188 297.64 439.374 297.163 437.961 296.78C436.566 296.389 434.504 296.167 432.392 296.78C430.282 297.396 428.659 298.687 427.689 299.768C426.704 300.848 426.27 301.688 426.127 301.62Z" fill="#455A64"/>
<path d="M435.48 333.625C435.447 333.504 436.881 333.122 439.17 332.095C441.446 331.07 444.584 329.308 447.564 326.41L449.209 324.811L448.311 326.931C447.773 328.2 447.342 329.592 447.082 331.068C446.941 331.78 446.829 332.686 447.097 332.807C447.289 333.029 448.069 332.638 448.716 332.18C451.029 330.689 452.991 328.882 454.552 327.013L456.063 325.203L455.373 327.448C454.684 329.695 454.04 331.787 453.457 333.682L452.802 333.284C456.786 329.513 458.167 326.15 458.359 326.278C458.423 326.307 458.143 327.153 457.382 328.547C456.619 329.933 455.348 331.868 453.351 333.858L452.287 334.918L452.698 333.46C453.235 331.551 453.827 329.443 454.464 327.182L455.285 327.619C453.695 329.583 451.669 331.479 449.264 333.031C448.91 333.249 448.588 333.486 448.138 333.682C447.737 333.858 447.073 334.032 446.497 333.612C445.941 333.174 445.917 332.532 445.936 332.11C445.969 331.648 446.042 331.292 446.112 330.892C446.4 329.339 446.873 327.883 447.462 326.56L448.208 327.083C445.068 330.025 441.771 331.721 439.388 332.618C436.988 333.513 435.497 333.706 435.48 333.625Z" fill="#455A64"/>
<path d="M452.075 300.044C451.527 298.99 450.472 298.256 449.331 297.926C448.191 297.594 446.971 297.633 445.803 297.842C442.94 298.353 440.273 299.898 438.404 302.128C437.977 302.638 437.598 303.424 438.051 303.909C438.291 304.165 438.674 304.213 439.023 304.242C443.294 304.598 447.609 304.446 451.846 303.788" fill="#263238"/>
<path d="M396.02 555.798C396.588 556.817 403.539 580.076 418.875 584.019C434.211 587.962 481.97 585.334 483.285 584.019C484.6 582.704 498.637 574.965 505.421 558.899C512.205 542.833 463.463 514.789 463.463 514.789L396.02 555.798Z" fill="#263238"/>
<path d="M513.493 562.081L513.926 575.051C513.926 577.048 513.678 587.097 513.463 589.081L507.512 669.612C506.918 669.377 503.452 719.19 503.149 736.59C502.857 753.382 501.454 799.087 501.454 799.087H462.267L459.628 723.427L457.978 641.511L455.544 584.208L513.493 562.081Z" fill="#263238"/>
<path d="M396.02 542.974C396.02 542.974 396.874 544.26 396.676 562.081C396.526 575.706 404.797 659.703 404.797 659.703L438.279 658.69L444.967 574.581L396.02 542.974Z" fill="#263238"/>
<path d="M458.636 585.208C458.642 585.274 457.64 585.411 455.824 585.604C454.009 585.791 451.379 586.037 448.118 586.244C441.62 586.69 432.467 586.818 422.64 584.76C412.736 582.677 404.872 577.045 401.026 571.693C399.055 569.043 397.918 566.591 397.353 564.845C397.023 563.986 396.918 563.271 396.79 562.807C396.683 562.336 396.643 562.088 396.674 562.079C396.918 561.967 397.54 566.167 401.56 571.28C405.446 576.395 413.164 581.787 422.836 583.825C432.542 585.855 441.589 585.839 448.083 585.567C451.208 585.431 453.803 585.318 455.795 585.232C457.622 585.156 458.632 585.142 458.636 585.208Z" fill="#455A64"/>
<path d="M498.325 583.592C498.351 583.715 496.719 584.184 494.03 584.727C491.343 585.272 487.594 585.859 483.422 586.225C479.25 586.59 475.455 586.666 472.713 586.598C469.972 586.532 468.282 586.354 468.286 586.229C468.29 586.09 469.981 586.031 472.708 585.923C475.435 585.816 479.195 585.635 483.338 585.274C487.479 584.909 491.213 584.432 493.916 584.06C496.62 583.691 498.298 583.456 498.325 583.592Z" fill="#455A64"/>
<path d="M497.176 598.343C497.158 598.466 494.992 598.29 491.518 597.771C488.045 597.253 483.271 596.362 478.066 595.082C472.859 593.796 468.219 592.364 464.903 591.207C461.587 590.051 459.586 589.199 459.629 589.083C459.674 588.951 461.752 589.576 465.109 590.565C468.465 591.553 473.114 592.876 478.293 594.156C483.472 595.43 488.202 596.423 491.634 597.107C495.065 597.793 497.196 598.203 497.176 598.343Z" fill="#455A64"/>
<path d="M487.873 316.217C488.046 315.703 483.039 307.657 483.039 307.657C483.039 307.657 493.865 296.189 500.37 296.53L506.545 305.09L487.873 316.217Z" fill="white"/>
<path d="M539.077 352.253C536.717 344.875 507.057 302.097 507.057 302.097C496.136 302.097 485.466 315.355 485.466 315.355L506.533 359.732L484.382 380.135L509.394 409.683C509.394 409.683 525.177 389.932 529.915 382.767C540.456 366.831 541.439 359.631 539.077 352.253Z" fill="#FCB01A"/>
<path opacity="0.3" d="M395.059 553.428C395.059 553.428 397.542 569.91 411.33 574.794C425.118 579.678 456.985 574.794 456.985 574.794L460.69 562.783L464.646 576.964L513.929 570.646L513.227 559.394L460.995 537.698L395.059 553.428Z" fill="black"/>
<path d="M502.548 498.503C501.504 492.662 500.167 489.709 499.903 486.188C499.116 475.688 499.18 450.482 499.897 447.252C500.836 443.027 509.396 409.681 509.396 409.681L506.472 383.854L470.078 377.723L467.529 371.866C467.529 371.866 443.247 365.579 427.885 373.822L425.228 380.097L415.741 382.479C414.316 383.049 406.881 385.111 401.254 386.646C394.989 388.353 389.731 392.674 386.993 398.563C386.145 400.386 385.283 402.526 384.438 405.039C381.933 412.485 367.481 453.642 366.833 466.174C366.076 480.824 379.074 481.346 386.958 479.479C394.622 477.665 403.592 459.857 403.592 459.857L408.575 494.582C408.575 494.582 407.526 501.92 405.107 508.522C400.267 521.735 393.294 547.279 393.294 547.279C396.018 555.796 405.89 569.294 411.055 571.174C416.221 573.052 450.803 571.535 450.803 571.535L460.989 544.469L470.396 572.92L519.461 565.266L502.548 498.503Z" fill="#FCB01A"/>
<path d="M460.992 488.482C461.131 488.706 454.07 493.374 445.221 498.909C436.37 504.444 429.084 508.748 428.942 508.524C428.803 508.301 435.862 503.633 444.715 498.098C453.564 492.565 460.852 488.259 460.992 488.482Z" fill="#263238"/>
<path d="M448.076 502.751C448.217 502.975 440.709 507.967 431.309 513.903C421.906 519.842 414.172 524.473 414.031 524.249C413.89 524.025 421.397 519.033 430.8 513.095C440.199 507.16 447.935 502.529 448.076 502.751Z" fill="#263238"/>
<path d="M486.878 463.874C487.094 463.969 485.011 468.464 480.985 472.994C476.985 477.548 472.78 480.169 472.659 479.965C472.485 479.732 476.358 476.818 480.27 472.363C484.208 467.932 486.625 463.729 486.878 463.874Z" fill="#263238"/>
<path d="M487.864 468.506C487.974 468.563 487.387 469.99 486.214 472.185C485.042 474.381 483.25 477.326 480.994 480.387C478.735 483.446 476.448 486.028 474.696 487.795C472.945 489.564 471.754 490.544 471.668 490.456C471.463 490.25 475.769 485.887 480.226 479.818C484.708 473.774 487.609 468.372 487.864 468.506Z" fill="#263238"/>
<path d="M488.996 513.5C488.864 513.454 489.411 511.6 490.267 508.605C491.126 505.61 492.264 501.463 493.341 496.838C494.414 492.211 495.217 487.985 495.765 484.919C496.316 481.852 496.644 479.949 496.782 479.965C496.904 479.98 496.815 481.915 496.433 485.022C496.053 488.126 495.349 492.4 494.271 497.056C493.189 501.709 491.938 505.854 490.911 508.81C489.884 511.765 489.114 513.542 488.996 513.5Z" fill="#263238"/>
<path d="M507.059 405.628C506.806 405.773 503.547 400.128 498.61 393.831C493.701 387.51 489.018 382.976 489.22 382.767C489.305 382.677 490.585 383.699 492.485 385.538C494.385 387.376 496.877 390.061 499.364 393.245C501.847 396.43 503.844 399.499 505.165 401.789C506.487 404.078 507.166 405.569 507.059 405.628Z" fill="#263238"/>
<path d="M514.933 392.575C514.673 392.74 512.446 388.232 507.676 384.566C502.957 380.83 498.042 379.766 498.141 379.475C498.163 379.365 499.412 379.475 501.336 380.093C503.254 380.704 505.818 381.912 508.265 383.814C510.702 385.723 512.499 387.915 513.558 389.628C514.623 391.343 515.032 392.527 514.933 392.575Z" fill="#263238"/>
<path d="M408.577 494.584C408.317 494.621 405.377 475.644 402.013 452.202C398.65 428.752 396.133 409.719 396.396 409.681C396.656 409.644 399.594 428.617 402.96 452.066C406.323 475.508 408.838 494.547 408.577 494.584Z" fill="#263238"/>
<path d="M470.594 377.861C470.579 378.006 468.02 377.826 463.887 377.668C459.755 377.509 454.042 377.43 447.744 377.742C441.444 378.059 435.768 378.706 431.671 379.277C427.573 379.845 425.046 380.278 425.017 380.135C425.004 380.071 425.62 379.886 426.748 379.609C427.876 379.324 429.521 378.98 431.564 378.609C435.65 377.864 441.356 377.107 447.696 376.788C454.034 376.476 459.786 376.661 463.925 376.995C465.996 377.16 467.666 377.34 468.816 377.511C469.968 377.674 470.599 377.795 470.594 377.861Z" fill="#263238"/>
<g opacity="0.3">
<path d="M403.783 461.17C401.83 446.497 399.156 431.823 397.203 417.149C391.904 431.601 394.832 448.63 403.783 461.17Z" fill="black"/>
</g>
<g opacity="0.3">
<path d="M506.11 359.175C509.518 355.917 513.986 353.786 518.66 353.185C520.892 352.899 523.379 353.029 525.07 354.516C525.443 354.845 525.786 355.296 525.72 355.789C525.653 356.282 525.178 356.64 524.691 356.739C524.203 356.838 523.698 356.737 523.209 356.647C517.582 355.622 511.471 357.286 506.129 359.33" fill="black"/>
</g>
<g opacity="0.3">
<path d="M427.078 380.318C431.724 381.74 436.703 381.457 441.543 381.043C450.106 380.307 458.636 379.194 467.1 377.707C453.494 375.864 439.537 376.652 426.226 380.012" fill="black"/>
</g>
<g opacity="0.3">
<path d="M425.414 517.702C444.708 512.293 462.371 501.208 475.633 486.188C460.388 495.894 440.435 507.031 425.414 517.702Z" fill="black"/>
</g>
<path d="M518.067 356.992C518.009 357.276 515.027 356.489 511.533 357.511C508.017 358.463 505.884 360.689 505.686 360.478C505.6 360.401 506.007 359.73 506.952 358.894C507.889 358.059 509.409 357.12 511.274 356.592C513.141 356.069 514.926 356.077 516.162 356.301C517.402 356.521 518.1 356.882 518.067 356.992Z" fill="#263238"/>
<path d="M338.36 335.769L321.469 336.539C316.154 342.85 309.141 347.796 300.847 350.527C276.998 358.382 251.639 344.981 244.204 320.596C236.769 296.21 250.077 270.073 273.924 262.216C297.774 254.361 323.132 267.762 330.567 292.149C333.672 302.331 333.15 312.816 329.762 322.15L329.777 322.128L338.36 335.769Z" fill="white"/>
<path d="M338.36 335.769C338.36 335.769 338.14 335.455 337.755 334.865C337.35 334.241 336.787 333.375 336.061 332.257C334.571 329.948 332.407 326.593 329.601 322.241L329.953 322.249L329.939 322.269C329.873 322.366 329.742 322.39 329.645 322.326C329.564 322.271 329.535 322.166 329.566 322.078C331.565 316.411 333.15 308.569 331.853 299.472C331.25 294.939 329.801 290.166 327.499 285.475C325.203 280.787 321.955 276.188 317.688 272.237C313.433 268.287 308.167 264.995 302.199 262.911C296.243 260.826 289.585 259.955 282.867 260.716C276.164 261.532 269.446 263.924 263.498 267.828C260.48 269.723 257.798 272.155 255.243 274.733C252.857 277.466 250.532 280.342 248.788 283.617C246.904 286.774 245.631 290.205 244.507 293.624C243.607 297.106 242.869 300.618 242.743 304.149C242.343 311.191 243.554 318.142 246.046 324.36C250.998 336.917 261.387 345.891 272.219 349.738C283.133 353.716 294.244 352.77 302.715 349.517C311.292 346.274 317.368 341.016 321.302 336.402C321.341 336.354 321.401 336.328 321.458 336.325C326.891 336.136 331.076 335.991 333.957 335.892C335.358 335.848 336.44 335.815 337.22 335.791C337.959 335.767 338.36 335.769 338.36 335.769C338.36 335.769 338.027 335.804 337.319 335.848C336.558 335.894 335.498 335.958 334.126 336.04C331.211 336.205 326.975 336.444 321.478 336.754L321.634 336.677C317.724 341.383 311.626 346.766 302.946 350.116C294.379 353.476 283.078 354.509 271.946 350.5C266.413 348.524 261.004 345.33 256.333 340.957C251.667 336.596 247.717 331.063 245.197 324.703C242.642 318.368 241.397 311.281 241.8 304.094C241.929 300.492 242.675 296.908 243.594 293.356C244.737 289.868 246.037 286.368 247.957 283.148C249.738 279.808 252.109 276.872 254.548 274.084C257.155 271.45 259.896 268.971 262.979 267.038C269.055 263.056 275.916 260.624 282.763 259.805C289.624 259.04 296.42 259.946 302.487 262.09C308.569 264.23 313.922 267.605 318.238 271.645C322.566 275.685 325.849 280.378 328.156 285.154C330.471 289.934 331.908 294.783 332.486 299.382C333.735 308.613 332.053 316.53 329.962 322.219L329.59 322.029L329.605 322.007C329.669 321.911 329.799 321.885 329.896 321.95C329.92 321.966 329.944 321.992 329.959 322.014C332.704 326.487 334.819 329.933 336.275 332.306C336.956 333.423 337.48 334.287 337.858 334.909C338.208 335.488 338.36 335.769 338.36 335.769Z" fill="#263238"/>
<path d="M273.056 298.977L286.51 281.906L299.964 298.766L273.056 298.977Z" fill="#FCB01A"/>
<path d="M293.14 330.195L280.885 330.293L280.494 296.213L292.749 296.118L293.14 330.195Z" fill="#FCB01A"/>
</svg>
