<svg width="19" height="15" viewBox="0 0 19 15" fill="none" xmlns="http://www.w3.org/2000/svg">
<path d="M1.49968 8.25017C1.30077 8.25017 1.11 8.17115 0.969352 8.0305C0.8287 7.88985 0.749683 7.69908 0.749683 7.50017C0.749683 7.30126 0.8287 7.1105 0.969352 6.96984C1.11 6.82919 1.30077 6.75017 1.49968 6.75017L10.7497 6.75017L10.7497 1.50017C10.7498 1.35193 10.7939 1.20705 10.8763 1.08384C10.9587 0.960623 11.0758 0.864595 11.2128 0.807884C11.3497 0.751173 11.5004 0.736323 11.6458 0.765207C11.7912 0.794091 11.9248 0.865414 12.0297 0.970171L18.0297 6.97017C18.1701 7.1108 18.249 7.30142 18.249 7.50017C18.249 7.69892 18.1701 7.88955 18.0297 8.03017L12.0297 14.0302C11.9248 14.1349 11.7912 14.2063 11.6458 14.2351C11.5004 14.264 11.3497 14.2492 11.2128 14.1925C11.0758 14.1357 10.9587 14.0397 10.8763 13.9165C10.7939 13.7933 10.7498 13.6484 10.7497 13.5002L10.7497 8.25017L1.49968 8.25017Z" fill="white"/>
</svg>
