<svg width="926" height="870" viewBox="0 0 926 870" fill="none" xmlns="http://www.w3.org/2000/svg">
<path opacity="0.1" d="M464.678 0C331.585 0 223.695 107.893 223.695 240.982C223.695 374.071 331.589 481.964 464.678 481.964C597.766 481.964 705.66 374.071 705.66 240.982C705.66 107.893 597.766 0 464.678 0ZM464.678 423.269C364.004 423.269 282.391 341.656 282.391 240.982C282.391 140.309 364.004 58.6958 464.678 58.6958C565.351 58.6958 646.964 140.309 646.964 240.982C646.964 341.656 565.351 423.269 464.678 423.269Z" fill="#FFB147"/>
<path opacity="0.25" d="M464.678 423.269C565.352 423.269 646.964 341.656 646.964 240.982C646.964 140.308 565.352 58.6958 464.678 58.6958C364.004 58.6958 282.392 140.308 282.392 240.982C282.392 341.656 364.004 423.269 464.678 423.269Z" fill="#FFB147"/>
<path d="M360.695 805.343H838.695L838.695 309.343L360.695 309.343L360.695 805.343Z" fill="#F7D97C"/>
<path d="M682.695 805.343H838.695L838.695 309.343H682.695L682.695 805.343Z" fill="#FCB01A"/>
<path d="M511.505 189.863C496.383 189.863 484.079 175.826 484.079 158.576C484.079 141.325 496.383 127.289 511.505 127.289C526.627 127.289 538.931 141.325 538.931 158.576C538.931 175.826 526.627 189.863 511.505 189.863ZM511.505 131.617C498.768 131.617 488.408 143.711 488.408 158.576C488.408 173.44 498.768 185.534 511.505 185.534C524.242 185.534 534.602 173.44 534.602 158.576C534.602 143.711 524.242 131.617 511.505 131.617Z" fill="#FFB147"/>
<path d="M418.498 189.863C403.376 189.863 391.072 175.826 391.072 158.576C391.072 141.325 403.376 127.289 418.498 127.289C433.62 127.289 445.924 141.325 445.924 158.576C445.924 175.826 433.62 189.863 418.498 189.863ZM418.498 131.617C405.761 131.617 395.401 143.711 395.401 158.576C395.401 173.44 405.761 185.534 418.498 185.534C431.235 185.534 441.596 173.44 441.596 158.576C441.596 143.711 431.235 131.617 418.498 131.617Z" fill="#FFB147"/>
<path d="M454.561 226.306L459.468 256.666H470.781L475.685 226.306H454.561Z" fill="#BF8535"/>
<path d="M444.007 217.233L448.387 225.26C450.078 228.361 453.329 230.292 456.86 230.292H473.385C476.916 230.292 480.168 228.361 481.858 225.26L486.238 217.233H444.003H444.007Z" fill="#BF8535"/>
<path d="M448.777 270.15L452.166 258.992C453.474 254.68 455.993 251.999 458.725 251.999H471.518C474.251 251.999 476.769 254.68 478.077 258.992L481.467 270.15H448.772H448.777Z" fill="#BF8535"/>
<path d="M493.157 267.825H437.087V309.343H493.157V267.825Z" fill="#1B1B43"/>
<path d="M410.463 110L427.207 207.422C428.485 214.873 436.58 220.429 446.151 220.429H484.101C493.667 220.429 501.763 214.869 503.045 207.422L519.789 110H410.471H410.463Z" fill="#FFB147"/>
<path opacity="0.6" d="M488.399 153.745C492.73 153.745 496.241 148.7 496.241 142.475C496.241 136.251 492.73 131.206 488.399 131.206C484.068 131.206 480.557 136.251 480.557 142.475C480.557 148.7 484.068 153.745 488.399 153.745Z" fill="white"/>
<path d="M3.147 773.206C-7.84398 732.816 10.7489 686.227 46.5318 664.506C82.3147 642.786 132.225 647.788 162.988 676.175C170.603 640.59 197.188 609.65 231.221 596.767C265.253 583.88 305.661 589.457 334.936 611.074C343.782 587.634 363.554 568.586 387.304 560.615C411.053 552.645 438.316 555.918 459.509 569.277C456.887 533.889 468.805 493.794 503.451 477.552C544.219 458.441 582.065 469.77 616.385 493.794C671.297 392.55 822.305 407.994 849.761 469.77L885.797 811.254L19.2174 854.154L3.15559 773.202L3.147 773.206Z" fill="#FFF2C8"/>
<path d="M242.494 781.542C224.442 766.253 220.534 736.845 233.966 717.372C247.398 697.9 276.274 691.109 296.977 702.55C303.815 679.994 322.172 661.263 344.583 653.97C366.994 646.673 392.859 651.01 411.666 665.215C412.181 639.273 433.249 615.257 458.903 611.362C484.558 607.471 511.799 624.155 519.989 648.775C534.922 626.283 571.529 622.872 590.358 642.22C586.145 615.785 599.173 587.411 621.97 573.383C644.768 559.35 675.969 560.5 697.668 576.171C732.305 553.473 779.16 550.873 816.102 569.595C853.038 588.316 878.646 627.647 880.821 668.998L925.252 855.871L264.592 869.599L242.494 781.538V781.542Z" fill="#FCB01A"/>
</svg>
