<svg width="60" height="60" viewBox="0 0 60 60" fill="none" xmlns="http://www.w3.org/2000/svg">
<g clip-path="url(#clip0_565_2802)">
<path d="M4.86442 39.4999C4.75572 39.4998 4.65001 39.4643 4.5633 39.3988C4.47659 39.3332 4.4136 39.2412 4.38387 39.1367C4.35415 39.0321 4.3593 38.9207 4.39856 38.8194C4.43781 38.718 4.50903 38.6322 4.60142 38.5749L28.6174 23.6859L4.28042 37.7349C4.16669 37.7968 4.0334 37.8121 3.90859 37.7777C3.78379 37.7432 3.67721 37.6618 3.61126 37.5503C3.54532 37.4389 3.52517 37.3063 3.55504 37.1803C3.58491 37.0543 3.66248 36.9449 3.77142 36.8749L14.9364 30.1129L4.28042 36.2649C4.16683 36.3289 4.03275 36.346 3.90674 36.3126C3.78073 36.2791 3.67277 36.1978 3.60586 36.0859C3.53896 35.974 3.51841 35.8404 3.54859 35.7136C3.57877 35.5867 3.65729 35.4767 3.76742 35.4069L27.3804 20.7249L4.28042 34.0609C4.16676 34.1238 4.03311 34.1399 3.90776 34.106C3.7824 34.072 3.67518 33.9906 3.60878 33.879C3.54238 33.7674 3.52202 33.6343 3.552 33.5079C3.58198 33.3816 3.65996 33.2718 3.76942 33.2019L19.7694 23.3559L4.28042 32.2999C4.16651 32.3678 4.03029 32.3877 3.90174 32.3551C3.77318 32.3226 3.66282 32.2403 3.59492 32.1264C3.52703 32.0125 3.50716 31.8763 3.5397 31.7477C3.57224 31.6192 3.65451 31.5088 3.76842 31.4409L18.0004 22.6639L4.28042 30.5859C4.16713 30.6494 4.03359 30.6663 3.90806 30.6331C3.78252 30.5998 3.67484 30.5191 3.6078 30.4079C3.54076 30.2966 3.51962 30.1637 3.54885 30.0372C3.57808 29.9107 3.65539 29.8005 3.76442 29.7299L21.5074 18.5639L4.28042 28.5099C4.16651 28.5778 4.03029 28.5977 3.90174 28.5651C3.77318 28.5326 3.66282 28.4503 3.59492 28.3364C3.52703 28.2225 3.50716 28.0863 3.5397 27.9577C3.57224 27.8292 3.65451 27.7188 3.76842 27.6509L12.5204 22.2449L4.28042 26.9999C4.16713 27.0634 4.03359 27.0803 3.90806 27.0471C3.78252 27.0138 3.67484 26.9331 3.6078 26.8219C3.54076 26.7106 3.51962 26.5777 3.54885 26.4512C3.57808 26.3246 3.65539 26.2145 3.76442 26.1439L16.6184 18.0249L4.28042 25.1499C4.16698 25.2114 4.03415 25.2267 3.9097 25.1925C3.78526 25.1584 3.67885 25.0774 3.61272 24.9666C3.54659 24.8558 3.52587 24.7237 3.55489 24.5979C3.58391 24.4722 3.66042 24.3626 3.76842 24.2919L6.43842 22.6449L4.28042 23.8909C4.22402 23.9245 4.16155 23.9467 4.09657 23.9562C4.0316 23.9657 3.96539 23.9623 3.90174 23.9461C3.83808 23.93 3.77823 23.9015 3.72558 23.8623C3.67294 23.8231 3.62854 23.7738 3.59492 23.7174C3.5613 23.661 3.53912 23.5985 3.52965 23.5336C3.52017 23.4686 3.52359 23.4024 3.5397 23.3387C3.55581 23.2751 3.5843 23.2152 3.62355 23.1626C3.66279 23.1099 3.71202 23.0655 3.76842 23.0319L4.60042 22.5199L4.28042 22.7029C4.16753 22.7641 4.03543 22.7795 3.91149 22.7459C3.78755 22.7124 3.68128 22.6324 3.61469 22.5226C3.54809 22.4128 3.52629 22.2816 3.55379 22.1562C3.5813 22.0308 3.656 21.9208 3.76242 21.8489L11.1164 17.1739L4.28042 21.1199C4.16726 21.1812 4.03482 21.1965 3.91066 21.1626C3.7865 21.1288 3.68018 21.0483 3.61383 20.938C3.54748 20.8278 3.52621 20.6961 3.55445 20.5706C3.58269 20.445 3.65825 20.3352 3.76542 20.2639L5.35042 19.2709L4.28042 19.8879C4.16721 19.9526 4.03319 19.9705 3.90696 19.9378C3.78073 19.9051 3.67226 19.8244 3.60469 19.7129C3.53712 19.6014 3.5158 19.4679 3.54526 19.3408C3.57473 19.2138 3.65265 19.1033 3.76242 19.0329L7.15442 16.8709L4.28042 18.5299C4.16797 18.5903 4.0367 18.6053 3.91349 18.572C3.79029 18.5387 3.68448 18.4596 3.61775 18.3508C3.55102 18.242 3.52842 18.1118 3.55457 17.9869C3.58072 17.862 3.65366 17.7518 3.75842 17.6789L8.04842 14.8889L4.28042 17.0629C4.16913 17.1254 4.03813 17.143 3.91429 17.1121C3.79044 17.0811 3.68313 17.004 3.61434 16.8964C3.54554 16.7889 3.52049 16.6591 3.5443 16.5337C3.56812 16.4083 3.639 16.2968 3.74242 16.2219L11.1634 10.9929L4.28042 14.9669C4.16913 15.0294 4.03813 15.047 3.91429 15.0161C3.79044 14.9851 3.68313 14.908 3.61434 14.8004C3.54554 14.6929 3.52049 14.5631 3.5443 14.4377C3.56812 14.3123 3.639 14.2008 3.74242 14.1259L8.26842 10.9259L4.28042 13.2259C4.16896 13.2868 4.03851 13.303 3.91555 13.2712C3.7926 13.2393 3.68635 13.1619 3.61839 13.0547C3.55043 12.9474 3.52584 12.8182 3.54962 12.6935C3.5734 12.5687 3.64376 12.4577 3.74642 12.3829L4.83642 11.6299L4.28042 11.9499C4.17204 12.0112 4.04469 12.0299 3.92329 12.0022C3.80188 11.9746 3.69516 11.9026 3.624 11.8004C3.55284 11.6983 3.52237 11.5732 3.53853 11.4498C3.5547 11.3263 3.61635 11.2133 3.71142 11.1329L6.99442 8.41492L4.28042 9.98092C4.17601 10.0391 4.05421 10.0579 3.9371 10.034C3.81999 10.0101 3.71532 9.94508 3.64204 9.85065C3.56877 9.75622 3.53175 9.63866 3.53769 9.51929C3.54363 9.39991 3.59214 9.28661 3.67442 9.19992L5.53942 7.29992L4.28042 8.02892C4.1973 8.07699 4.1021 8.10012 4.00619 8.09553C3.91028 8.09094 3.81772 8.05883 3.73957 8.00304C3.66142 7.94725 3.60099 7.87014 3.56549 7.78092C3.53 7.6917 3.52095 7.59415 3.53942 7.49992L3.87242 5.79192C3.78111 5.76141 3.70055 5.7052 3.64042 5.63003C3.58028 5.55485 3.54312 5.46392 3.5334 5.36814C3.52369 5.27236 3.54183 5.17582 3.58565 5.0901C3.62947 5.00438 3.6971 4.93314 3.78042 4.88492L4.28042 4.59592C4.36346 4.54794 4.45855 4.52486 4.55434 4.52943C4.65013 4.53399 4.74259 4.56601 4.82069 4.62166C4.89879 4.67731 4.95924 4.75425 4.99483 4.8433C5.03042 4.93236 5.03965 5.02977 5.02142 5.12392L4.73042 6.61492L8.23042 4.59992C8.3351 4.53954 8.4581 4.51912 8.57667 4.54243C8.69524 4.56574 8.80136 4.6312 8.87539 4.7267C8.94943 4.8222 8.98638 4.94129 8.97939 5.06193C8.97241 5.18256 8.92198 5.29659 8.83742 5.38292L6.97242 7.27292L11.6144 4.59292C11.7228 4.53058 11.8507 4.51114 11.9727 4.53842C12.0948 4.5657 12.2022 4.63772 12.2737 4.74029C12.3453 4.84285 12.3758 4.9685 12.3593 5.09246C12.3427 5.21642 12.2804 5.32969 12.1844 5.40992L8.90042 8.13392L15.0384 4.59092C15.1501 4.52785 15.2818 4.51012 15.4062 4.5414C15.5306 4.57268 15.6382 4.65057 15.7068 4.75897C15.7754 4.86737 15.7997 4.99798 15.7747 5.12379C15.7497 5.2496 15.6773 5.36099 15.5724 5.43492L14.4804 6.18792L17.2514 4.58792C17.3627 4.52539 17.4937 4.50781 17.6176 4.53876C17.7414 4.56971 17.8487 4.64686 17.9175 4.7544C17.9863 4.86193 18.0114 4.9917 17.9875 5.11712C17.9637 5.24253 17.8928 5.35409 17.7894 5.42892L13.2674 8.62392L20.2584 4.58792C20.3699 4.52278 20.5023 4.50331 20.6279 4.53361C20.7535 4.56391 20.8624 4.64161 20.9319 4.75045C21.0015 4.85928 21.0262 4.9908 21.001 5.11746C20.9757 5.24412 20.9024 5.35609 20.7964 5.42992L13.3754 10.6579L23.8934 4.58592C24.0062 4.52293 24.1389 4.506 24.2638 4.53867C24.3887 4.57135 24.4962 4.65108 24.5637 4.76119C24.6311 4.8713 24.6534 5.00324 24.6257 5.12939C24.5981 5.25553 24.5227 5.36609 24.4154 5.43792L20.1244 8.22892L26.4374 4.58392C26.5503 4.52274 26.6824 4.50733 26.8064 4.5409C26.9303 4.57446 27.0366 4.65442 27.1032 4.76421C27.1698 4.87399 27.1916 5.00519 27.1641 5.13061C27.1365 5.25604 27.0618 5.36607 26.9554 5.43792L23.5574 7.59992L28.7904 4.58292C28.9037 4.51944 29.0373 4.50253 29.1628 4.53576C29.2883 4.569 29.396 4.64977 29.463 4.76098C29.5301 4.8722 29.5512 5.00513 29.522 5.13166C29.4928 5.25819 29.4155 5.36838 29.3064 5.43892L27.7174 6.43892L30.9274 4.58492C31.0406 4.52022 31.1747 4.5023 31.3009 4.535C31.4271 4.5677 31.5356 4.64842 31.6032 4.75994C31.6707 4.87147 31.692 5.00498 31.6626 5.13201C31.6331 5.25904 31.5552 5.36953 31.4454 5.43992L24.1004 10.1059L33.6714 4.57992C33.785 4.51593 33.9191 4.49883 34.0451 4.53228C34.1711 4.56572 34.2791 4.64706 34.346 4.75896C34.4129 4.87086 34.4334 5.00446 34.4033 5.13129C34.3731 5.25812 34.2946 5.36815 34.1844 5.43792L33.3374 5.96092L35.7304 4.57892C35.8443 4.51089 35.9806 4.4909 36.1093 4.52334C36.2379 4.55579 36.3484 4.63801 36.4164 4.75192C36.4845 4.86583 36.5044 5.0021 36.472 5.13075C36.4396 5.2594 36.3573 5.36989 36.2434 5.43792L33.5734 7.08392L37.9144 4.57792C38.0279 4.50936 38.164 4.4887 38.2928 4.52049C38.4215 4.55228 38.5324 4.6339 38.6009 4.74742C38.6695 4.86093 38.6901 4.99703 38.6584 5.12577C38.6266 5.25452 38.5449 5.36536 38.4314 5.43392L25.5784 13.5509L41.1244 4.57592C41.2383 4.50789 41.3746 4.4879 41.5033 4.52034C41.6319 4.55279 41.7424 4.63501 41.8104 4.74892C41.8785 4.86283 41.8984 4.9991 41.866 5.12775C41.8336 5.2564 41.7513 5.36689 41.6374 5.43492L32.8934 10.8349L43.7384 4.57392C43.8519 4.50536 43.988 4.4847 44.1168 4.51649C44.2455 4.54828 44.3564 4.62991 44.4249 4.74342C44.4935 4.85693 44.5141 4.99303 44.4824 5.12177C44.4506 5.25052 44.3689 5.36136 44.2554 5.42992L26.5114 16.5999L47.3384 4.57192C47.4523 4.50389 47.5886 4.4839 47.7173 4.51634C47.8459 4.54879 47.9564 4.63101 48.0244 4.74492C48.0925 4.85883 48.1124 4.9951 48.08 5.12375C48.0476 5.2524 47.9653 5.36289 47.8514 5.43092L33.6154 14.2099L50.3154 4.56992C50.4291 4.50708 50.5627 4.49093 50.6881 4.52489C50.8134 4.55885 50.9207 4.64025 50.9871 4.75187C51.0535 4.86348 51.0738 4.99656 51.0438 5.12292C51.0139 5.24929 50.9359 5.35903 50.8264 5.42892L34.8144 15.2769L53.3634 4.56792C53.4772 4.49976 53.6134 4.47959 53.7421 4.51184C53.8707 4.5441 53.9813 4.62614 54.0494 4.73992C54.1176 4.8537 54.1378 4.98989 54.1055 5.11854C54.0732 5.24719 53.9912 5.35776 53.8774 5.42592L30.2674 20.1069L55.7214 5.40692C55.835 5.34702 55.9673 5.33314 56.0909 5.36813C56.2145 5.40313 56.3198 5.48434 56.3851 5.59491C56.4504 5.70549 56.4707 5.83695 56.4417 5.96206C56.4127 6.08717 56.3367 6.19633 56.2294 6.26692L45.0504 13.0429L55.7224 6.88192C55.8357 6.82143 55.9678 6.80683 56.0916 6.84112C56.2153 6.87542 56.3211 6.95599 56.387 7.06615C56.4529 7.1763 56.474 7.3076 56.4458 7.43285C56.4175 7.55809 56.3422 7.66768 56.2354 7.73892L32.2184 22.6289L55.7244 9.05892C55.8379 8.9974 55.9707 8.98213 56.0951 9.0163C56.2196 9.05047 56.326 9.13142 56.3921 9.24224C56.4583 9.35306 56.479 9.48515 56.45 9.61089C56.4209 9.73663 56.3444 9.84629 56.2364 9.91692L37.7694 21.3049L55.7264 10.9379C55.8399 10.8764 55.9727 10.8611 56.0971 10.8953C56.2216 10.9295 56.328 11.0104 56.3941 11.1212C56.4603 11.2321 56.481 11.3642 56.452 11.4899C56.4229 11.6156 56.3464 11.7253 56.2384 11.7959L40.3004 21.6349L55.7264 12.7289C55.8397 12.6654 55.9733 12.6485 56.0988 12.6818C56.2243 12.715 56.332 12.7958 56.3991 12.907C56.4661 13.0182 56.4872 13.1511 56.458 13.2777C56.4288 13.4042 56.3515 13.5144 56.2424 13.5849L37.2054 25.5769L55.7294 14.8829C55.843 14.8189 55.9771 14.8018 56.1031 14.8353C56.2291 14.8687 56.3371 14.9501 56.404 15.062C56.4709 15.1739 56.4914 15.3075 56.4613 15.4343C56.4311 15.5611 56.3526 15.6711 56.2424 15.7409L46.2814 21.8999L55.7304 16.4449C55.8439 16.3764 55.98 16.3557 56.1088 16.3875C56.2375 16.4193 56.3484 16.5009 56.4169 16.6144C56.4855 16.7279 56.5061 16.864 56.4744 16.9928C56.4426 17.1215 56.3609 17.2324 56.2474 17.3009L42.4274 26.0299L55.7324 18.3489C55.8457 18.2884 55.9778 18.2738 56.1016 18.3081C56.2253 18.3424 56.3311 18.423 56.397 18.5331C56.4629 18.6433 56.484 18.7746 56.4558 18.8998C56.4276 19.0251 56.3522 19.1347 56.2454 19.2059L51.3124 22.2599L55.7334 19.7079C55.8464 19.6436 55.9799 19.6258 56.1057 19.6583C56.2315 19.6908 56.3397 19.7709 56.4075 19.8818C56.4752 19.9927 56.4971 20.1256 56.4685 20.2524C56.44 20.3791 56.3632 20.4898 56.2544 20.5609L44.2544 28.2949L55.7394 21.6639C55.8526 21.5976 55.9873 21.5784 56.1144 21.6105C56.2416 21.6425 56.3511 21.7232 56.4193 21.8353C56.4875 21.9473 56.509 22.0816 56.4791 22.2093C56.4492 22.337 56.3703 22.4478 56.2594 22.5179L48.3904 27.5519L55.7404 23.3079C55.8526 23.244 55.985 23.226 56.1102 23.2575C56.2353 23.289 56.3434 23.3677 56.4119 23.4771C56.4803 23.5865 56.5038 23.7181 56.4775 23.8445C56.4511 23.9708 56.3769 24.082 56.2704 24.1549L45.6804 31.2779L55.7384 25.4719C55.8506 25.409 55.9828 25.3918 56.1073 25.4238C56.2319 25.4558 56.3394 25.5346 56.4074 25.6438C56.4754 25.753 56.4987 25.8842 56.4724 26.0101C56.4462 26.136 56.3724 26.247 56.2664 26.3199L49.4664 30.8589L55.7404 27.2369C55.8515 27.1742 55.9823 27.1562 56.1062 27.1868C56.23 27.2173 56.3375 27.294 56.4067 27.4013C56.4758 27.5085 56.5013 27.638 56.478 27.7635C56.4548 27.8889 56.3844 28.0007 56.2814 28.0759L48.7384 33.4879L55.7384 29.4449C55.8506 29.3784 55.9844 29.3584 56.1112 29.3892C56.2379 29.4199 56.3476 29.499 56.4169 29.6095C56.4862 29.72 56.5096 29.8532 56.482 29.9807C56.4545 30.1082 56.3782 30.2199 56.2694 30.2919L54.2474 31.6639L55.7394 30.8029C55.8491 30.7403 55.9785 30.7215 56.1015 30.7504C56.2244 30.7792 56.3319 30.8536 56.4024 30.9584C56.4728 31.0633 56.5009 31.1909 56.4811 31.3157C56.4612 31.4404 56.3949 31.5531 56.2954 31.6309L52.1924 34.7999L55.7454 32.7489C55.8529 32.6874 55.9794 32.668 56.1004 32.6944C56.2214 32.7209 56.3282 32.7912 56.4003 32.8919C56.4724 32.9926 56.5045 33.1165 56.4905 33.2395C56.4765 33.3626 56.4173 33.476 56.3244 33.5579L53.5454 35.9889L55.7454 34.7189C55.8438 34.662 55.9587 34.6404 56.071 34.6575C56.1834 34.6746 56.2866 34.7295 56.3636 34.8131C56.4405 34.8967 56.4867 35.0041 56.4945 35.1175C56.5023 35.2309 56.4712 35.3436 56.4064 35.4369L55.0274 37.4259L55.7474 37.0109C55.8351 36.9601 55.936 36.9371 56.037 36.945C56.138 36.9529 56.2342 36.9912 56.3129 37.0549C56.3916 37.1187 56.4491 37.2048 56.4778 37.302C56.5064 37.3991 56.5049 37.5027 56.4734 37.5989L56.2584 38.2559C56.3303 38.2995 56.3899 38.3608 56.4314 38.4339C56.4974 38.5487 56.5152 38.6849 56.4809 38.8127C56.4466 38.9406 56.363 39.0496 56.2484 39.1159L55.7484 39.4049C55.6608 39.4557 55.5598 39.4787 55.4589 39.4708C55.3579 39.463 55.2617 39.4246 55.183 39.3609C55.1043 39.2972 55.0468 39.211 55.0181 39.1139C54.9894 39.0167 54.9909 38.9132 55.0224 38.8169L55.1174 38.5289L53.6004 39.3999C53.5021 39.4569 53.3873 39.4787 53.275 39.4618C53.1626 39.4448 53.0594 39.39 52.9823 39.3065C52.9052 39.2231 52.8588 39.1158 52.8509 39.0024C52.8429 38.8891 52.8738 38.7764 52.9384 38.6829L54.3174 36.6929L49.6244 39.4019C49.5171 39.4623 49.3912 39.481 49.271 39.4543C49.1507 39.4276 49.0446 39.3575 48.9728 39.2574C48.9011 39.1573 48.8688 39.0342 48.8822 38.9118C48.8956 38.7893 48.9537 38.6762 49.0454 38.5939L51.8244 36.1619L46.2074 39.4039C46.0977 39.4665 45.9684 39.4853 45.8454 39.4565C45.7224 39.4276 45.6149 39.3533 45.5445 39.2484C45.4741 39.1435 45.446 39.0159 45.4658 38.8911C45.4856 38.7664 45.552 38.6538 45.6514 38.5759L49.7574 35.4099L42.8354 39.4099C42.7232 39.4764 42.5895 39.4964 42.4627 39.4657C42.3359 39.4349 42.2262 39.3559 42.1569 39.2453C42.0876 39.1348 42.0643 39.0016 42.0918 38.8741C42.1194 38.7466 42.1957 38.635 42.3044 38.5629L44.3274 37.1909L40.4804 39.4119C40.3693 39.4763 40.2377 39.4955 40.1128 39.4655C39.9879 39.4355 39.8793 39.3586 39.8096 39.2507C39.7399 39.1428 39.7144 39.0122 39.7384 38.886C39.7624 38.7598 39.834 38.6477 39.9384 38.5729L47.4824 33.1599L36.6484 39.4139C36.536 39.4778 36.4033 39.4958 36.278 39.4639C36.1527 39.432 36.0446 39.3529 35.9764 39.243C35.9082 39.1332 35.8852 39.0012 35.9123 38.8747C35.9393 38.7483 36.0143 38.6373 36.1214 38.5649L42.9214 34.0259L33.5854 39.4159C33.4731 39.481 33.3399 39.4999 33.214 39.4685C33.088 39.4372 32.9792 39.3581 32.9105 39.248C32.8418 39.1378 32.8186 39.0053 32.8458 38.8784C32.8731 38.7515 32.9486 38.6402 33.0564 38.5679L43.6404 31.4459L29.8324 39.4179C29.7193 39.4842 29.5846 39.5034 29.4574 39.4714C29.3303 39.4393 29.2208 39.3586 29.1526 39.2466C29.0844 39.1346 29.0629 39.0002 29.0928 38.8725C29.1227 38.7448 29.2016 38.634 29.3124 38.5639L37.1864 33.5279L26.9804 39.4199C26.8676 39.482 26.7352 39.4981 26.6108 39.465C26.4864 39.4318 26.3796 39.352 26.3125 39.2421C26.2455 39.1321 26.2235 39.0006 26.2511 38.8748C26.2786 38.7491 26.3536 38.6388 26.4604 38.5669L38.4664 30.8319L23.5874 39.4219C23.4738 39.4859 23.3397 39.503 23.2137 39.4696C23.0877 39.4361 22.9798 39.3548 22.9129 39.2429C22.846 39.131 22.8254 38.9974 22.8556 38.8705C22.8858 38.7437 22.9643 38.6337 23.0744 38.5639L28.0214 35.4999L21.2294 39.4209C21.1159 39.4895 20.9798 39.5101 20.8511 39.4783C20.7223 39.4466 20.6115 39.3649 20.5429 39.2514C20.4744 39.1379 20.4537 39.0018 20.4855 38.8731C20.5173 38.7443 20.5989 38.6335 20.7124 38.5649L34.5234 29.8389L17.9234 39.4229C17.8095 39.4909 17.6732 39.5109 17.5446 39.4785C17.4159 39.4461 17.3055 39.3638 17.2374 39.2499C17.1694 39.136 17.1494 38.9997 17.1818 38.8711C17.2143 38.7424 17.2965 38.6319 17.4104 38.5639L27.3764 32.4049L15.2174 39.4249C15.1039 39.4935 14.9678 39.5141 14.8391 39.4823C14.7103 39.4506 14.5995 39.3689 14.5309 39.2554C14.4624 39.1419 14.4417 39.0058 14.4735 38.8771C14.5053 38.7483 14.5869 38.6375 14.7004 38.5689L33.7354 26.5789L11.4824 39.4289C11.3685 39.4968 11.2323 39.5167 11.1037 39.4841C10.9752 39.4516 10.8648 39.3693 10.7969 39.2554C10.729 39.1415 10.7092 39.0053 10.7417 38.8767C10.7742 38.7482 10.8565 38.6378 10.9704 38.5699L26.9084 28.7289L8.37342 39.4309C8.25951 39.4989 8.12324 39.5189 7.99459 39.4865C7.86594 39.4541 7.75545 39.3718 7.68742 39.2579C7.61939 39.144 7.5994 39.0077 7.63185 38.8791C7.66429 38.7504 7.74651 38.6399 7.86042 38.5719L26.3354 27.1809L5.11442 39.4319C5.03862 39.4764 4.95232 39.4999 4.86442 39.4999Z" fill="#E6E9ED"/>
<path d="M16.3334 25.4679C16.2354 25.4679 16.1396 25.4391 16.0578 25.3851C15.976 25.3311 15.9119 25.2543 15.8735 25.1642C15.835 25.074 15.8239 24.9746 15.8415 24.8782C15.8591 24.7818 15.9046 24.6927 15.9724 24.6219L17.5454 22.9749L14.0694 24.9809C13.9639 25.0426 13.8394 25.0635 13.7195 25.0397C13.5996 25.0158 13.4926 24.9488 13.4187 24.8514C13.3448 24.754 13.3092 24.633 13.3185 24.5111C13.3279 24.3892 13.3815 24.2749 13.4694 24.1899L15.7244 21.9899L12.1164 24.0729C12.0099 24.1367 11.8834 24.1585 11.7617 24.1342C11.6399 24.1099 11.5316 24.0411 11.4577 23.9413C11.3839 23.8415 11.3498 23.7178 11.3621 23.5943C11.3744 23.4707 11.4323 23.3562 11.5244 23.2729L13.2534 21.6549L10.7344 23.1089C10.6281 23.1704 10.5029 23.1906 10.3827 23.1657C10.2624 23.1408 10.1555 23.0726 10.0824 22.9739C10.0089 22.8749 9.97464 22.7523 9.98609 22.6296C9.99753 22.5068 10.0539 22.3926 10.1444 22.3089L10.4334 22.0439L10.3864 22.0699C10.3295 22.1061 10.2659 22.1304 10.1993 22.1413C10.1328 22.1523 10.0647 22.1497 9.99921 22.1336C9.93371 22.1176 9.87214 22.0884 9.81819 22.048C9.76424 22.0075 9.71903 21.9566 9.68528 21.8982C9.65153 21.8398 9.62994 21.7752 9.62181 21.7083C9.61368 21.6413 9.61918 21.5734 9.63796 21.5087C9.65675 21.4439 9.68845 21.3836 9.73114 21.3314C9.77384 21.2792 9.82665 21.2362 9.8864 21.2049L13.8104 18.9389C13.9169 18.878 14.0421 18.8583 14.1621 18.8836C14.2822 18.909 14.3887 18.9776 14.4615 19.0764C14.5342 19.1752 14.5681 19.2973 14.5567 19.4195C14.5452 19.5417 14.4892 19.6554 14.3994 19.7389L14.1104 20.0059L16.5214 18.6139C16.6279 18.5502 16.7544 18.5283 16.8761 18.5527C16.9979 18.577 17.1062 18.6457 17.1801 18.7455C17.2539 18.8453 17.288 18.9691 17.2757 19.0926C17.2634 19.2161 17.2055 19.3307 17.1134 19.4139L15.3864 21.0309L18.6864 19.1259C18.7919 19.0642 18.9164 19.0433 19.0363 19.0672C19.1562 19.0911 19.2632 19.158 19.3371 19.2554C19.411 19.3528 19.4466 19.4739 19.4373 19.5958C19.4279 19.7177 19.3743 19.8319 19.2864 19.9169L17.0304 22.1169L20.0674 20.3639C20.1717 20.303 20.2945 20.2818 20.4132 20.3044C20.5318 20.3269 20.6383 20.3917 20.7129 20.4867C20.7876 20.5817 20.8253 20.7005 20.8191 20.8211C20.8129 20.9417 20.7633 21.056 20.6794 21.1429L19.1004 22.7909L20.4814 21.9909C20.5383 21.9547 20.602 21.9305 20.6685 21.9195C20.735 21.9086 20.8031 21.9112 20.8686 21.9272C20.9341 21.9433 20.9957 21.9724 21.0496 22.0129C21.1036 22.0533 21.1488 22.1043 21.1825 22.1627C21.2163 22.221 21.2379 22.2857 21.246 22.3526C21.2541 22.4195 21.2486 22.4874 21.2298 22.5522C21.2111 22.617 21.1794 22.6773 21.1367 22.7295C21.094 22.7816 21.0412 22.8247 20.9814 22.8559L16.5814 25.3969C16.5066 25.4423 16.4209 25.4668 16.3334 25.4679Z" fill="#F2C32F"/>
<path d="M19.2388 54.5061C19.1338 54.5061 19.0316 54.4731 18.9464 54.4117C18.8613 54.3503 18.7976 54.2638 18.7644 54.1642C18.7313 54.0646 18.7302 53.9572 18.7615 53.857C18.7928 53.7568 18.8548 53.669 18.9388 53.6061L18.9868 53.5701L18.4338 53.8901C18.3266 53.951 18.2008 53.9703 18.0803 53.9441C17.9599 53.9179 17.8533 53.8481 17.7812 53.7482C17.709 53.6483 17.6763 53.5252 17.6893 53.4026C17.7024 53.28 17.7602 53.1666 17.8518 53.0841L19.1748 51.9051L18.9518 52.0331C18.8596 52.0854 18.7532 52.1071 18.6479 52.0949C18.5426 52.0828 18.4438 52.0375 18.3659 51.9657C18.288 51.8938 18.235 51.799 18.2145 51.695C18.194 51.591 18.207 51.4832 18.2518 51.3871L19.0188 49.7691C18.9677 49.7295 18.9248 49.6802 18.8928 49.6241C18.8264 49.5094 18.8083 49.373 18.8424 49.2449C18.8765 49.1168 18.9601 49.0076 19.0748 48.9411L19.6748 48.5971C19.767 48.5448 19.8734 48.5231 19.9787 48.5352C20.084 48.5473 20.1828 48.5926 20.2607 48.6645C20.3386 48.7364 20.3916 48.8312 20.4121 48.9352C20.4326 49.0392 20.4196 49.147 20.3748 49.2431L19.8428 50.3661L22.9128 48.5941C23.0191 48.5384 23.1418 48.5228 23.2586 48.5501C23.3755 48.5774 23.4786 48.6458 23.5491 48.7428C23.6197 48.8399 23.6531 48.959 23.6431 49.0786C23.6331 49.1981 23.5805 49.3101 23.4948 49.3941L22.1658 50.5801L25.6118 48.5911C25.722 48.5279 25.8521 48.5091 25.9757 48.5384C26.0993 48.5677 26.2071 48.6429 26.2772 48.7488C26.3474 48.8547 26.3746 48.9834 26.3533 49.1086C26.332 49.2338 26.2639 49.3463 26.1628 49.4231L26.1138 49.4591L27.6228 48.5891C27.7274 48.5294 27.8501 48.5096 27.9682 48.5332C28.0864 48.5568 28.192 48.6222 28.2657 48.7175C28.3395 48.8127 28.3763 48.9314 28.3695 49.0517C28.3627 49.172 28.3128 49.2857 28.2288 49.3721L25.9128 51.7261L31.3538 48.5851C31.4614 48.5224 31.5886 48.5021 31.7103 48.5283C31.8321 48.5544 31.9398 48.6251 32.0122 48.7264C32.0846 48.8277 32.1166 48.9524 32.102 49.0761C32.0873 49.1998 32.0269 49.3135 31.9328 49.3951L30.1138 50.9781L34.2658 48.5781C34.3722 48.5195 34.4963 48.5017 34.6149 48.528C34.7334 48.5542 34.8384 48.6227 34.9102 48.7207C34.9819 48.8187 35.0156 48.9394 35.0049 49.0604C34.9941 49.1814 34.9397 49.2943 34.8518 49.3781L32.8338 51.2051L37.3998 48.5781C37.504 48.5179 37.6263 48.4973 37.7445 48.52C37.8626 48.5427 37.9686 48.6073 38.043 48.7019C38.1173 48.7964 38.1551 48.9146 38.1494 49.0348C38.1437 49.155 38.0948 49.269 38.0118 49.3561L35.6698 51.8001L40.4578 49.0351C40.5596 48.9766 40.6788 48.9558 40.7945 48.9764C40.9101 48.997 41.0148 49.0577 41.0902 49.1477C41.1656 49.2378 41.2068 49.3515 41.2068 49.469C41.2067 49.5864 41.1653 49.7001 41.0898 49.7901L39.1278 52.1121L41.0278 51.0171C41.1272 50.9597 41.2433 50.9382 41.3567 50.9563C41.47 50.9744 41.5737 51.031 41.6503 51.1165C41.7268 51.202 41.7717 51.3112 41.7772 51.4259C41.7828 51.5405 41.7487 51.6536 41.6808 51.7461L41.2408 52.3411L41.3848 52.2591C41.4645 52.2131 41.5554 52.1901 41.6474 52.1925C41.7395 52.1949 41.829 52.2227 41.9063 52.2727C41.9835 52.3228 42.0454 52.3932 42.0852 52.4762C42.125 52.5592 42.1411 52.6515 42.1318 52.7431L42.0798 53.2431C42.1724 53.2722 42.2545 53.3276 42.3161 53.4026C42.3778 53.4776 42.4162 53.569 42.4268 53.6654C42.4374 53.7619 42.4197 53.8594 42.3758 53.946C42.332 54.0326 42.2639 54.1046 42.1798 54.1531L41.7498 54.4011C41.6701 54.4477 41.5791 54.4714 41.4868 54.4694C41.3945 54.4675 41.3046 54.4401 41.2269 54.3902C41.1493 54.3403 41.0869 54.2698 41.0468 54.1867C41.0068 54.1035 40.9905 54.0109 40.9998 53.9191L41.0308 53.6191L39.6608 54.4101C39.5614 54.4669 39.4455 54.488 39.3325 54.4697C39.2194 54.4513 39.1161 54.3948 39.0398 54.3094C38.9635 54.2241 38.9187 54.1151 38.9131 54.0007C38.9074 53.8864 38.9412 53.7735 39.0088 53.6811L39.4478 53.0861L37.1478 54.4151C37.0459 54.473 36.927 54.4933 36.8118 54.4724C36.6965 54.4516 36.5922 54.3909 36.5171 54.301C36.4419 54.2112 36.4008 54.0977 36.4007 53.9806C36.4007 53.8635 36.4417 53.75 36.5168 53.6601L38.4788 51.3381L33.1388 54.4211C33.0346 54.4813 32.9123 54.5019 32.7941 54.4792C32.676 54.4564 32.57 54.3919 32.4956 54.2973C32.4212 54.2028 32.3834 54.0846 32.3892 53.9644C32.3949 53.8442 32.4438 53.7301 32.5268 53.6431L34.8668 51.1971L29.2728 54.4271C29.1664 54.4849 29.0427 54.5021 28.9246 54.4756C28.8064 54.4491 28.702 54.3806 28.6305 54.2829C28.559 54.1852 28.5255 54.0648 28.536 53.9442C28.5465 53.8236 28.6005 53.7109 28.6878 53.6271L30.7058 51.7991L26.1388 54.4351C26.0312 54.4968 25.9045 54.5163 25.7833 54.4898C25.6622 54.4633 25.5552 54.3927 25.4831 54.2917C25.4111 54.1908 25.3791 54.0666 25.3935 53.9434C25.4078 53.8202 25.4675 53.7068 25.5608 53.6251L27.3778 52.0421L23.2248 54.4421C23.12 54.5033 22.9965 54.5243 22.8774 54.5011C22.7583 54.478 22.6516 54.4123 22.5773 54.3164C22.503 54.2204 22.4662 54.1007 22.4736 53.9796C22.4811 53.8585 22.5323 53.7442 22.6178 53.6581L24.9328 51.3001L19.4888 54.4421C19.4126 54.4852 19.3263 54.5073 19.2388 54.5061Z" fill="#F7D97C"/>
<path d="M16.4707 59.4669C16.3753 59.4669 16.2819 59.4397 16.2015 59.3884C16.121 59.3371 16.057 59.2639 16.0168 59.1774C15.9767 59.0909 15.9621 58.9947 15.9748 58.9001C15.9875 58.8056 16.0271 58.7167 16.0887 58.6439L16.3687 58.3129L14.5077 59.3869C14.4025 59.4518 14.2771 59.4754 14.1556 59.4533C14.034 59.4312 13.925 59.3648 13.8494 59.2671C13.7739 59.1693 13.7372 59.047 13.7465 58.9238C13.7558 58.8006 13.8104 58.6852 13.8997 58.5999L16.3727 56.0649L13.2997 57.8439C13.1902 57.9057 13.0615 57.9241 12.9391 57.8953C12.8168 57.8665 12.7098 57.7926 12.6394 57.6885C12.569 57.5843 12.5405 57.4574 12.5594 57.3332C12.5784 57.2089 12.6434 57.0963 12.7417 57.0179L13.7247 56.2489L13.6747 56.2769C13.5674 56.338 13.4413 56.3573 13.3207 56.331C13.2001 56.3048 13.0934 56.2348 13.0213 56.1346C12.9492 56.0344 12.9167 55.9111 12.93 55.7884C12.9434 55.6657 13.0017 55.5522 13.0937 55.4699L16.1857 52.7419L14.2857 53.8419C14.1766 53.9038 14.0482 53.9225 13.926 53.8942C13.8037 53.8659 13.6966 53.7927 13.6259 53.6891C13.5551 53.5854 13.5259 53.459 13.544 53.3349C13.5621 53.2107 13.6263 53.098 13.7237 53.0189L15.1997 51.8329L14.7127 52.1139C14.604 52.1757 14.4762 52.1946 14.3543 52.1668C14.2325 52.1391 14.1254 52.0667 14.0543 51.9639C13.9831 51.8612 13.953 51.7355 13.97 51.6116C13.9869 51.4878 14.0496 51.3748 14.1457 51.2949L16.1087 49.6869L15.1857 50.2189C15.078 50.2816 14.9509 50.3018 14.8291 50.2757C14.7073 50.2496 14.5997 50.1789 14.5273 50.0776C14.4548 49.9763 14.4228 49.8515 14.4375 49.7279C14.4522 49.6042 14.5125 49.4904 14.6067 49.4089L17.5587 46.8319L15.7747 47.8619C15.6689 47.9256 15.5433 47.9479 15.4221 47.9245C15.3008 47.9011 15.1925 47.8337 15.118 47.7352C15.0436 47.6368 15.0081 47.5142 15.0186 47.3912C15.029 47.2682 15.0846 47.1534 15.1747 47.0689L17.8577 44.4819L16.4067 45.3199C16.3144 45.3724 16.2078 45.3942 16.1023 45.3821C15.9968 45.37 15.8979 45.3246 15.8199 45.2526C15.7419 45.1805 15.6889 45.0855 15.6685 44.9812C15.6482 44.877 15.6615 44.769 15.7067 44.6729L16.5887 42.8179C16.5246 42.776 16.4715 42.7194 16.4337 42.6529C16.3677 42.5381 16.3499 42.4019 16.3842 42.2741C16.4185 42.1462 16.5021 42.0372 16.6167 41.9709L17.2687 41.5939C17.361 41.5413 17.4676 41.5195 17.5731 41.5316C17.6786 41.5438 17.7775 41.5891 17.8555 41.6612C17.9334 41.7333 17.9864 41.8283 18.0068 41.9325C18.0272 42.0368 18.0138 42.1448 17.9687 42.2409L17.2987 43.6499L20.8987 41.5719C21.0044 41.5082 21.13 41.4859 21.2513 41.5093C21.3725 41.5327 21.4808 41.6001 21.5553 41.6986C21.6298 41.797 21.6652 41.9196 21.6548 42.0426C21.6443 42.1656 21.5887 42.2804 21.4987 42.3649L18.8137 44.9529L21.5117 43.3999C21.6193 43.3372 21.7465 43.3169 21.8682 43.3431C21.99 43.3692 22.0977 43.4399 22.1701 43.5412C22.2425 43.6425 22.2745 43.7672 22.2598 43.8909C22.2451 44.0146 22.1848 44.1283 22.0907 44.2099L19.1397 46.7829L20.9217 45.7549C21.0303 45.6941 21.1576 45.676 21.2789 45.7041C21.4001 45.7322 21.5065 45.8045 21.5772 45.9069C21.648 46.0093 21.678 46.1344 21.6615 46.2577C21.6449 46.3811 21.5829 46.4938 21.4877 46.5739L19.5247 48.1829L20.4477 47.6499C20.557 47.585 20.6869 47.5642 20.811 47.5917C20.935 47.6191 21.044 47.6928 21.1157 47.7978C21.1874 47.9027 21.2165 48.031 21.197 48.1566C21.1774 48.2822 21.1108 48.3956 21.0107 48.4739L19.5287 49.6569L20.0167 49.3759C20.1241 49.3136 20.2508 49.2935 20.3722 49.3195C20.4936 49.3455 20.6009 49.4158 20.6734 49.5165C20.7459 49.6173 20.7783 49.7415 20.7643 49.8648C20.7503 49.9882 20.6909 50.1019 20.5977 50.1839L17.5057 52.9109L19.4057 51.8109C19.5153 51.7474 19.6449 51.7279 19.7684 51.7563C19.8918 51.7847 19.9999 51.8589 20.0707 51.9639C20.1416 52.0689 20.1699 52.1969 20.15 52.322C20.1302 52.4471 20.0636 52.56 19.9637 52.6379L18.9787 53.4079L19.0117 53.3899C19.1162 53.3303 19.2388 53.3104 19.3568 53.3339C19.4748 53.3574 19.5805 53.4226 19.6542 53.5177C19.728 53.6128 19.7651 53.7313 19.7585 53.8514C19.752 53.9716 19.7023 54.0854 19.6187 54.1719L17.1457 56.7099L18.3577 56.0099C18.4596 55.9508 18.5792 55.9297 18.6952 55.9501C18.8113 55.9706 18.9163 56.0314 18.9919 56.1218C19.0675 56.2123 19.1087 56.3264 19.1083 56.4443C19.1079 56.5621 19.0659 56.676 18.9897 56.7659L18.3217 57.5539C18.4067 57.5907 18.4798 57.6505 18.5329 57.7264C18.586 57.8024 18.6169 57.8916 18.6221 57.9842C18.6274 58.0767 18.6069 58.1689 18.5629 58.2504C18.5188 58.3319 18.453 58.3996 18.3727 58.4459L16.7207 59.3989C16.6448 59.4431 16.5585 59.4666 16.4707 59.4669Z" fill="#FCB01A"/>
<path d="M44.9473 59.4701C44.8194 59.4703 44.6964 59.4208 44.6043 59.3321C44.5262 59.2577 44.4743 59.16 44.4562 59.0537C44.4382 58.9474 44.4551 58.8381 44.5043 58.7421L45.3543 57.0761L42.3873 58.7881C42.2832 58.8483 42.1609 58.8689 42.0429 58.8463C41.9248 58.8237 41.8189 58.7593 41.7444 58.6649C41.67 58.5706 41.632 58.4525 41.6375 58.3324C41.643 58.2124 41.6915 58.0983 41.7743 58.0111L43.4003 56.3001L41.7393 57.2591C41.6353 57.3192 41.5132 57.34 41.3952 57.3175C41.2772 57.295 41.1713 57.2307 41.0967 57.1366C41.0222 57.0424 40.9841 56.9245 40.9893 56.8045C40.9946 56.6845 41.0428 56.5704 41.1253 56.4831L43.0003 54.4901L41.2903 55.4781C41.186 55.5383 41.0635 55.5589 40.9453 55.536C40.8271 55.5132 40.7211 55.4484 40.6468 55.3537C40.5724 55.259 40.5348 55.1406 40.5408 55.0203C40.5468 54.9001 40.5959 54.786 40.6793 54.6991L42.4863 52.8111L40.8583 53.7501C40.7532 53.8085 40.6307 53.8271 40.5131 53.8025C40.3954 53.7779 40.2906 53.7117 40.2178 53.6162C40.1449 53.5206 40.1089 53.402 40.1163 53.2821C40.1238 53.1622 40.1742 53.0489 40.2583 52.9631L41.8163 51.4091L40.4693 52.1881C40.3655 52.2482 40.2436 52.269 40.1258 52.2468C40.0079 52.2245 39.902 52.1607 39.8274 52.0668C39.7527 51.973 39.7142 51.8555 39.719 51.7356C39.7237 51.6158 39.7714 51.5017 39.8533 51.4141L41.7893 49.3311L40.0123 50.3571C39.9074 50.4176 39.7841 50.4379 39.6653 50.4144C39.5466 50.3909 39.4404 50.325 39.3665 50.2291C39.2926 50.1332 39.256 50.0138 39.2635 49.893C39.271 49.7721 39.3221 49.6581 39.4073 49.5721L41.0253 47.9431L39.6123 48.7591C39.5058 48.8201 39.3806 48.8397 39.2605 48.8144C39.1405 48.7891 39.0339 48.7204 38.9612 48.6216C38.8884 48.5228 38.8545 48.4007 38.866 48.2785C38.8774 48.1564 38.9334 48.0427 39.0233 47.9591L40.0343 47.0291L39.2873 47.4601C39.1807 47.5229 39.0547 47.5439 38.9336 47.5193C38.8124 47.4946 38.7047 47.4259 38.6312 47.3264C38.5578 47.227 38.5238 47.1038 38.5358 46.9808C38.5478 46.8577 38.6049 46.7435 38.6963 46.6601L39.8143 45.6161L38.9513 46.1161C38.8506 46.1735 38.7331 46.1941 38.6188 46.1745C38.5046 46.1548 38.4008 46.0961 38.3251 46.0083C38.2494 45.9206 38.2065 45.8092 38.2038 45.6934C38.2011 45.5775 38.2387 45.4643 38.3103 45.3731L39.5873 43.7651L38.5183 44.3821C38.4373 44.429 38.3448 44.4522 38.2513 44.4491C38.1578 44.4461 38.067 44.4168 37.9893 44.3647C37.9116 44.3126 37.8501 44.2398 37.8117 44.1545C37.7733 44.0692 37.7597 43.9748 37.7723 43.8821L37.9213 42.8091C37.8538 42.7936 37.7902 42.7644 37.7344 42.7233C37.6787 42.6822 37.632 42.63 37.5973 42.5701C37.531 42.4552 37.513 42.3188 37.5473 42.1907C37.5816 42.0626 37.6654 41.9534 37.7803 41.8871L38.2803 41.5971C38.3613 41.5503 38.4538 41.5272 38.5473 41.5303C38.6409 41.5335 38.7316 41.5629 38.8093 41.6151C38.887 41.6674 38.9485 41.7405 38.9867 41.8261C39.0249 41.9117 39.0382 42.0063 39.0253 42.0991L38.9003 43.0001L41.3603 41.5801C41.461 41.5221 41.5787 41.501 41.6933 41.5205C41.8078 41.5399 41.9121 41.5986 41.988 41.6865C42.064 41.7744 42.107 41.8861 42.1096 42.0022C42.1122 42.1184 42.0742 42.2319 42.0023 42.3231L40.7253 43.9321L43.1073 42.5571C43.2138 42.4943 43.3398 42.4732 43.4609 42.4979C43.5821 42.5226 43.6898 42.5913 43.7633 42.6907C43.8368 42.7902 43.8708 42.9133 43.8588 43.0364C43.8467 43.1595 43.7896 43.2737 43.6983 43.3571L42.5843 44.4001L43.4473 43.9001C43.5537 43.8391 43.6789 43.8194 43.799 43.8448C43.9191 43.8701 44.0256 43.9387 44.0984 44.0375C44.1711 44.1364 44.205 44.2585 44.1935 44.3806C44.1821 44.5028 44.1261 44.6165 44.0363 44.7001L43.0253 45.6301L43.7723 45.1991C43.8771 45.1386 44.0004 45.1183 44.1192 45.1418C44.2379 45.1653 44.3441 45.2311 44.418 45.327C44.4919 45.4229 44.5285 45.5424 44.521 45.6632C44.5135 45.7841 44.4625 45.8981 44.3773 45.9841L42.7613 47.6111L44.1723 46.7971C44.2759 46.7377 44.3974 46.7173 44.5147 46.7397C44.6321 46.7621 44.7375 46.8258 44.812 46.9193C44.8864 47.0127 44.925 47.1297 44.9206 47.2491C44.9163 47.3684 44.8693 47.4823 44.7883 47.5701L42.8513 49.6531L44.6303 48.6271C44.7353 48.5687 44.8578 48.5501 44.9755 48.5747C45.0931 48.5993 45.1979 48.6654 45.2708 48.761C45.3436 48.8565 45.3796 48.9751 45.3722 49.0951C45.3647 49.215 45.3144 49.3283 45.2303 49.4141L43.6713 50.9681L45.0193 50.1901C45.1235 50.1299 45.246 50.1093 45.3642 50.1321C45.4825 50.155 45.5885 50.2197 45.6628 50.3145C45.7371 50.4092 45.7747 50.5276 45.7687 50.6478C45.7628 50.7681 45.7136 50.8822 45.6303 50.9691L43.8223 52.8571L45.4503 51.9181C45.5541 51.8587 45.6758 51.8384 45.7933 51.8611C45.9108 51.8837 46.0162 51.9478 46.0905 52.0415C46.1648 52.1353 46.203 52.2526 46.1982 52.3722C46.1934 52.4917 46.1459 52.6056 46.0643 52.6931L44.1863 54.6851L45.9003 53.7001C46.0043 53.6399 46.1266 53.6192 46.2446 53.6419C46.3627 53.6645 46.4686 53.7289 46.5431 53.8232C46.6176 53.9176 46.6555 54.0356 46.65 54.1557C46.6446 54.2758 46.596 54.3899 46.5133 54.4771L44.8853 56.1891L46.3163 55.3631C46.4097 55.3073 46.5188 55.2835 46.627 55.2953C46.7351 55.3071 46.8365 55.3539 46.9157 55.4285C46.9949 55.5032 47.0476 55.6016 47.0657 55.7089C47.0838 55.8162 47.0665 55.9265 47.0163 56.0231L46.1663 57.6891L46.7053 57.3791C46.7622 57.3429 46.8258 57.3186 46.8923 57.3077C46.9589 57.2967 47.027 57.2994 47.0925 57.3154C47.158 57.3314 47.2195 57.3606 47.2735 57.401C47.3274 57.4415 47.3726 57.4924 47.4064 57.5508C47.4401 57.6092 47.4617 57.6738 47.4698 57.7408C47.478 57.8077 47.4725 57.8756 47.4537 57.9404C47.4349 58.0051 47.4032 58.0654 47.3605 58.1176C47.3178 58.1698 47.265 58.2128 47.2053 58.2441L45.2053 59.3991C45.1273 59.4458 45.0381 59.4703 44.9473 59.4701Z" fill="#FCB01A"/>
<path d="M30.0601 6.46989C29.9551 6.46989 29.8529 6.43687 29.7677 6.37551C29.6826 6.31415 29.6189 6.22756 29.5857 6.128C29.5526 6.02845 29.5515 5.92097 29.5828 5.82081C29.6141 5.72064 29.6761 5.63285 29.7601 5.56989L30.2091 5.22489L28.1681 6.39989C28.0616 6.46086 27.9364 6.48055 27.8164 6.4552C27.6963 6.42986 27.5897 6.36125 27.517 6.26243C27.4442 6.16362 27.4104 6.0415 27.4218 5.91933C27.4333 5.79716 27.4892 5.68346 27.5791 5.59989L29.6231 3.71889L24.9771 6.39989C24.8676 6.46294 24.7383 6.4822 24.6152 6.45381C24.4921 6.42541 24.3843 6.35147 24.3135 6.24683C24.2427 6.1422 24.2141 6.01464 24.2335 5.8898C24.2529 5.76496 24.3189 5.65209 24.4181 5.57389L25.1891 4.97389L22.7081 6.39989C22.6015 6.46468 22.4746 6.48732 22.3523 6.46337C22.2299 6.43942 22.1209 6.3706 22.0466 6.27043C21.9724 6.17025 21.9382 6.04594 21.9509 5.92189C21.9635 5.79783 22.0221 5.68299 22.1151 5.59989L24.2281 3.61689L19.4101 6.39989C19.3018 6.46094 19.1747 6.47947 19.0535 6.45189C18.9323 6.42431 18.8258 6.35258 18.7546 6.25069C18.6834 6.1488 18.6527 6.02405 18.6686 5.90078C18.6844 5.7775 18.7455 5.66453 18.8401 5.58389L20.3001 4.36789L16.7751 6.39989C16.6686 6.46002 16.5438 6.47906 16.4243 6.4534C16.3047 6.42774 16.1987 6.35917 16.1263 6.26065C16.0539 6.16213 16.0201 6.04049 16.0313 5.91874C16.0425 5.79698 16.0979 5.68355 16.1871 5.59989L18.2061 3.75389L13.6191 6.39989C13.5156 6.45998 13.3941 6.48099 13.2764 6.4591C13.1588 6.43721 13.0529 6.37386 12.978 6.28057C12.9031 6.18727 12.8642 6.07021 12.8682 5.95064C12.8723 5.83107 12.9191 5.71691 13.0001 5.62889L15.3261 3.12889L9.65308 6.39989C9.54685 6.45489 9.42442 6.46999 9.308 6.44243C9.19159 6.41487 9.08892 6.34649 9.01862 6.24969C8.94832 6.1529 8.91506 6.0341 8.92487 5.91488C8.93468 5.79565 8.98691 5.68389 9.07208 5.59989L10.9321 3.95589L6.68608 6.39989C6.57624 6.46294 6.44656 6.48196 6.32324 6.4531C6.19992 6.42424 6.09214 6.34965 6.02168 6.24441C5.95123 6.13916 5.92333 6.0111 5.94364 5.88609C5.96394 5.76107 6.03093 5.64842 6.13108 5.57089L6.56008 5.24089L4.55208 6.39989C4.44718 6.45753 4.32507 6.47562 4.20796 6.45088C4.09085 6.42615 3.9865 6.36021 3.91387 6.26507C3.84124 6.16992 3.80515 6.05188 3.81216 5.93239C3.81918 5.8129 3.86882 5.69988 3.95208 5.61389L6.20008 3.36389L2.07908 5.74389C1.97534 5.80331 1.85374 5.8236 1.73633 5.80107C1.61892 5.77853 1.51347 5.71468 1.43909 5.62108C1.36472 5.52747 1.32634 5.41032 1.33093 5.29085C1.33551 5.17139 1.38275 5.05752 1.46408 4.96989L3.17108 3.14489L1.30008 4.22289C1.19861 4.28156 1.07974 4.30272 0.964257 4.28266C0.848769 4.26261 0.743999 4.20262 0.668247 4.11317C0.592494 4.02372 0.550577 3.9105 0.549815 3.79328C0.549054 3.67607 0.589498 3.56231 0.664082 3.47189L1.37408 2.60989C1.27274 2.59285 1.17911 2.545 1.10593 2.47286C1.03275 2.40071 0.98358 2.30776 0.96511 2.20667C0.94664 2.10558 0.959768 2.00125 1.00271 1.90789C1.04565 1.81452 1.11631 1.73666 1.20508 1.68489L3.06608 0.611889C3.16756 0.553216 3.28642 0.532059 3.40191 0.552114C3.51739 0.572169 3.62216 0.632161 3.69792 0.721611C3.77367 0.81106 3.81559 0.924281 3.81635 1.04149C3.81711 1.15871 3.77667 1.27246 3.70208 1.36289L3.20208 1.97489L5.58408 0.599889C5.68782 0.540465 5.80942 0.52018 5.92683 0.542712C6.04424 0.565243 6.1497 0.629098 6.22407 0.722702C6.29845 0.816305 6.33682 0.933459 6.33223 1.05293C6.32765 1.17239 6.28041 1.28626 6.19908 1.37389L4.49208 3.19989L8.99508 0.599889C9.09999 0.542247 9.22209 0.524153 9.3392 0.548892C9.45632 0.573632 9.56067 0.639565 9.6333 0.734709C9.70593 0.829854 9.74201 0.947897 9.735 1.06739C9.72799 1.18688 9.67834 1.29989 9.59508 1.38589L7.34608 3.63489L12.6071 0.599889C12.7169 0.536837 12.8466 0.517821 12.9699 0.54668C13.0932 0.575539 13.201 0.650123 13.2715 0.755368C13.3419 0.860613 13.3698 0.988675 13.3495 1.11369C13.3292 1.2387 13.2622 1.35135 13.1621 1.42889L12.7331 1.75889L14.7411 0.599889C14.8483 0.538762 14.9744 0.519474 15.095 0.54574C15.2157 0.572005 15.3223 0.641966 15.3944 0.742153C15.4666 0.84234 15.4991 0.965669 15.4857 1.08839C15.4724 1.21112 15.4141 1.32457 15.3221 1.40689L13.4621 3.04989L17.7101 0.599889C17.8137 0.540473 17.9352 0.520128 18.0526 0.542537C18.1699 0.564946 18.2753 0.628628 18.3498 0.722055C18.4242 0.815481 18.4628 0.932476 18.4584 1.05186C18.4541 1.17124 18.4071 1.28513 18.3261 1.37289L16.0001 3.87389L21.6761 0.599889C21.7825 0.539757 21.9074 0.52072 22.0269 0.546376C22.1464 0.572033 22.2524 0.640606 22.3249 0.739126C22.3973 0.837647 22.4311 0.959287 22.4199 1.08104C22.4087 1.2028 22.3533 1.31623 22.2641 1.39989L20.2451 3.24489L24.8321 0.599889C24.9403 0.538842 25.0675 0.520303 25.1886 0.547888C25.3098 0.575472 25.4164 0.647202 25.4876 0.749091C25.5587 0.85098 25.5894 0.975725 25.5736 1.099C25.5578 1.22228 25.4967 1.33525 25.4021 1.41589L23.9431 2.63189L27.4671 0.599889C27.5736 0.535097 27.7005 0.512456 27.8229 0.536408C27.9453 0.560359 28.0543 0.629174 28.1286 0.729352C28.2028 0.82953 28.237 0.953839 28.2243 1.07789C28.2116 1.20195 28.1531 1.31679 28.0601 1.39989L25.9471 3.37789L30.7651 0.599889C30.8745 0.538052 31.0033 0.519709 31.1256 0.548513C31.248 0.577317 31.355 0.651154 31.4254 0.755318C31.4957 0.859483 31.5243 0.986331 31.5053 1.1106C31.4864 1.23487 31.4213 1.34744 31.3231 1.42589L30.5521 2.03089L33.0331 0.599889C33.1396 0.538915 33.2648 0.519228 33.3848 0.544574C33.5049 0.569921 33.6114 0.638532 33.6842 0.737346C33.7569 0.83616 33.7908 0.958276 33.7794 1.08045C33.7679 1.20262 33.7119 1.31631 33.6221 1.39989L31.5781 3.27889L36.2251 0.599889C36.3349 0.538096 36.464 0.520034 36.5865 0.549314C36.709 0.578594 36.816 0.653058 36.886 0.757812C36.956 0.862566 36.9839 0.989887 36.9641 1.11431C36.9443 1.23873 36.8782 1.35108 36.7791 1.42889L36.3301 1.77389L38.3661 0.599889C38.4726 0.535097 38.5995 0.512456 38.7219 0.536408C38.8443 0.560359 38.9533 0.629174 39.0276 0.729352C39.1018 0.82953 39.136 0.953839 39.1233 1.07789C39.1106 1.20195 39.0521 1.31679 38.9591 1.39989L36.8411 3.38889L41.6761 0.599889C41.7843 0.538842 41.9115 0.520303 42.0326 0.547888C42.1538 0.575472 42.2604 0.647202 42.3316 0.749091C42.4027 0.85098 42.4334 0.975725 42.4176 1.099C42.4018 1.22228 42.3407 1.33525 42.2461 1.41589L40.7851 2.63289L44.3121 0.599889C44.4192 0.538929 44.5451 0.519695 44.6656 0.54588C44.786 0.572064 44.8926 0.641823 44.9647 0.74176C45.0369 0.841697 45.0696 0.96477 45.0565 1.08735C45.0435 1.20992 44.9857 1.32336 44.8941 1.40589L43.0081 3.07889L47.3071 0.599889C47.4156 0.538341 47.5432 0.519577 47.6648 0.547279C47.7864 0.574982 47.8933 0.64715 47.9645 0.749615C48.0356 0.852081 48.0659 0.977441 48.0494 1.10109C48.0328 1.22473 47.9707 1.33773 47.8751 1.41789L46.5321 2.52189L49.8661 0.599889C49.972 0.535089 50.0982 0.511998 50.2202 0.535109C50.3421 0.55822 50.4511 0.625879 50.526 0.724924C50.6008 0.823968 50.6362 0.947313 50.6251 1.07096C50.614 1.19461 50.5573 1.30972 50.4661 1.39389L48.3001 3.45789L53.2561 0.599889C53.3597 0.540473 53.4812 0.520128 53.5986 0.542537C53.7159 0.564946 53.8213 0.628628 53.8958 0.722055C53.9702 0.815481 54.0088 0.932476 54.0044 1.05186C54.0001 1.17124 53.9531 1.28513 53.8721 1.37289L51.5461 3.87289L57.0101 0.717889C57.1181 0.656317 57.2453 0.637221 57.3666 0.664329C57.488 0.691437 57.5949 0.762804 57.6665 0.864497C57.7381 0.96619 57.7692 1.09091 57.7538 1.21431C57.7384 1.33772 57.6775 1.45094 57.5831 1.53189L56.1441 2.75089L58.2001 1.56189C58.3065 1.5041 58.4302 1.48686 58.5483 1.51338C58.6664 1.5399 58.7709 1.60838 58.8424 1.7061C58.9138 1.80382 58.9474 1.92415 58.9369 2.04475C58.9263 2.16536 58.8724 2.27804 58.7851 2.36189L57.9011 3.16189L58.6871 2.70889C58.788 2.65105 58.9059 2.63019 59.0205 2.6499C59.1351 2.6696 59.2392 2.72864 59.315 2.81685C59.3908 2.90506 59.4335 3.01693 59.4357 3.1332C59.4379 3.24947 59.3995 3.36287 59.3271 3.45389L58.5801 4.38589C58.6857 4.39538 58.7856 4.43822 58.8653 4.50821C58.945 4.5782 59.0004 4.67172 59.0234 4.77525C59.0465 4.87878 59.036 4.98696 58.9935 5.08414C58.951 5.18133 58.8787 5.26249 58.7871 5.31589L56.9341 6.38789C56.8332 6.44572 56.7153 6.46658 56.6007 6.44688C56.4861 6.42717 56.3819 6.36813 56.3062 6.27992C56.2304 6.19171 56.1877 6.07985 56.1855 5.96358C56.1833 5.84731 56.2217 5.73391 56.2941 5.64289L56.8851 4.90489L54.2911 6.39989C54.1847 6.45768 54.061 6.47492 53.9429 6.44839C53.8247 6.42187 53.7203 6.3534 53.6488 6.25568C53.5773 6.15795 53.5438 6.03763 53.5543 5.91702C53.5648 5.79642 53.6188 5.68374 53.7061 5.59989L54.5891 4.79989L51.8181 6.39989C51.71 6.46146 51.5829 6.48056 51.4615 6.45345C51.3402 6.42634 51.2333 6.35497 51.1617 6.25328C51.0901 6.15159 51.059 6.02687 51.0744 5.90346C51.0898 5.78006 51.1507 5.66684 51.2451 5.58589L52.6861 4.36589L49.1621 6.39989C49.0584 6.4593 48.937 6.47965 48.8196 6.45724C48.7023 6.43483 48.5968 6.37115 48.5224 6.27772C48.4479 6.1843 48.4094 6.0673 48.4137 5.94792C48.4181 5.82853 48.465 5.71465 48.5461 5.62689L50.8721 3.12689L45.2001 6.39989C45.0943 6.46022 44.9701 6.47984 44.8508 6.45506C44.7315 6.43029 44.6254 6.36283 44.5523 6.26535C44.4793 6.16787 44.4443 6.04708 44.4541 5.92565C44.4638 5.80422 44.5175 5.69052 44.6051 5.60589L46.7661 3.53989L41.8101 6.39989C41.7015 6.46251 41.5735 6.4821 41.4512 6.45477C41.3289 6.42744 41.2213 6.35519 41.1497 6.25232C41.0782 6.14946 41.0479 6.02347 41.0648 5.89931C41.0817 5.77515 41.1446 5.66187 41.2411 5.58189L42.5841 4.47589L39.2501 6.39989C39.1429 6.46085 39.0171 6.48008 38.8966 6.4539C38.7762 6.42771 38.6696 6.35795 38.5975 6.25802C38.5253 6.15808 38.4926 6.03501 38.5056 5.91243C38.5187 5.78985 38.5765 5.67641 38.6681 5.59389L40.5531 3.91989L36.2531 6.39989C36.1448 6.46094 36.0177 6.47947 35.8965 6.45189C35.7753 6.42431 35.6688 6.35258 35.5976 6.25069C35.5264 6.1488 35.4958 6.02405 35.5116 5.90078C35.5274 5.7775 35.5885 5.66453 35.6831 5.58389L37.1431 4.36489L33.6201 6.39989C33.5135 6.46468 33.3866 6.48732 33.2643 6.46337C33.1419 6.43942 33.0329 6.3706 32.9586 6.27043C32.8844 6.17025 32.8502 6.04594 32.8629 5.92189C32.8755 5.79783 32.9341 5.68299 33.0271 5.59989L35.1461 3.59989L30.3101 6.39989C30.2344 6.44483 30.1481 6.46897 30.0601 6.46989Z" fill="#FCB01A"/>
<path d="M16.783 43.47C16.6781 43.47 16.5758 43.437 16.4907 43.3756C16.4055 43.3143 16.3419 43.2277 16.3087 43.1281C16.2755 43.0286 16.2745 42.9211 16.3058 42.8209C16.3371 42.7208 16.3991 42.633 16.483 42.57L16.717 42.392L14.967 43.4C14.8589 43.4608 14.732 43.4793 14.611 43.4518C14.49 43.4242 14.3836 43.3527 14.3124 43.2511C14.2412 43.1495 14.2104 43.0251 14.2258 42.902C14.2413 42.7789 14.3019 42.6659 14.396 42.585L15.896 41.331L12.307 43.4C12.2008 43.4557 12.078 43.4713 11.9612 43.444C11.8444 43.4167 11.7413 43.3483 11.6707 43.2513C11.6001 43.1542 11.5668 43.0351 11.5767 42.9155C11.5867 42.796 11.6393 42.684 11.725 42.6L13.625 40.909L9.30002 43.4C9.19628 43.4594 9.07468 43.4797 8.95727 43.4572C8.83986 43.4347 8.73441 43.3708 8.66003 43.2772C8.58566 43.1836 8.54729 43.0665 8.55187 42.947C8.55645 42.8275 8.60369 42.7137 8.68502 42.626L11.008 40.145L5.36602 43.4C5.26073 43.46 5.13726 43.4796 5.01855 43.4554C4.89985 43.4311 4.79399 43.3646 4.72065 43.2682C4.64731 43.1717 4.61148 43.0519 4.61983 42.9311C4.62817 42.8102 4.68012 42.6965 4.76602 42.611L6.98902 40.427L1.93702 43.345C1.83317 43.4052 1.71115 43.4259 1.59324 43.4036C1.47534 43.3812 1.36942 43.3171 1.29482 43.2231C1.22022 43.1291 1.18192 43.0114 1.18691 42.8915C1.19191 42.7716 1.23986 42.6575 1.32202 42.57L3.59202 40.144L1.28002 41.478C1.17737 41.5375 1.05691 41.5586 0.940166 41.5374C0.823422 41.5163 0.718002 41.4543 0.642748 41.3626C0.567493 41.2708 0.527307 41.1554 0.529373 41.0367C0.531438 40.9181 0.57562 40.8041 0.654022 40.715L1.52302 39.728C1.42224 39.7098 1.3295 39.661 1.25732 39.5884C1.18515 39.5157 1.13703 39.4226 1.11946 39.3218C1.1019 39.2209 1.11575 39.117 1.15913 39.0242C1.20251 38.9315 1.27333 38.8542 1.36202 38.803L3.41102 37.62C3.51367 37.5605 3.63413 37.5395 3.75088 37.5606C3.86762 37.5818 3.97304 37.6438 4.0483 37.7355C4.12355 37.8272 4.16374 37.9427 4.16167 38.0613C4.15961 38.1799 4.11542 38.294 4.03702 38.383L3.41302 39.092L6.00002 37.6C6.10376 37.5406 6.22536 37.5203 6.34277 37.5428C6.46019 37.5654 6.56564 37.6292 6.64001 37.7228C6.71439 37.8164 6.75276 37.9336 6.74818 38.0531C6.74359 38.1725 6.69635 38.2864 6.61502 38.374L4.34802 40.8L9.89402 37.6C9.99931 37.5401 10.1228 37.5204 10.2415 37.5447C10.3602 37.5689 10.4661 37.6354 10.5394 37.7319C10.6127 37.8283 10.6486 37.9481 10.6402 38.069C10.6319 38.1899 10.5799 38.3036 10.494 38.389L8.27102 40.571L13.423 37.6C13.5268 37.5406 13.6484 37.5203 13.7658 37.5428C13.8832 37.5654 13.9886 37.6292 14.063 37.7228C14.1374 37.8164 14.1758 37.9336 14.1712 38.0531C14.1666 38.1725 14.1194 38.2864 14.038 38.374L11.715 40.855L17.354 37.6C17.4603 37.5437 17.5834 37.5275 17.7006 37.5546C17.8179 37.5816 17.9214 37.6501 17.9923 37.7473C18.0632 37.8445 18.0966 37.9641 18.0864 38.084C18.0763 38.2039 18.0232 38.3161 17.937 38.4L16.037 40.091L20.361 37.591C20.4692 37.5292 20.5965 37.51 20.7181 37.5372C20.8397 37.5644 20.9468 37.6359 21.0184 37.7379C21.0899 37.8399 21.1208 37.9649 21.1051 38.0885C21.0893 38.2121 21.0279 38.3253 20.933 38.406L19.433 39.659L23.022 37.6C23.132 37.5378 23.2614 37.5195 23.3842 37.5488C23.5071 37.5781 23.6143 37.6528 23.6844 37.758C23.7544 37.8631 23.7821 37.9908 23.7618 38.1155C23.7415 38.2401 23.6748 38.3525 23.575 38.43L23.339 38.609L25.09 37.6C25.1966 37.5363 25.323 37.5144 25.4448 37.5388C25.5665 37.5631 25.6748 37.6318 25.7487 37.7316C25.8225 37.8314 25.8566 37.9552 25.8443 38.0787C25.832 38.2022 25.7741 38.3168 25.682 38.4L23.587 40.357L28.359 37.6C28.4655 37.5382 28.5911 37.5178 28.7117 37.5428C28.8323 37.5678 28.9394 37.6365 29.0125 37.7356C29.0856 37.8347 29.1196 37.9574 29.1079 38.08C29.0961 38.2026 29.0396 38.3165 28.949 38.4L26.888 40.308L31.577 37.6C31.685 37.5387 31.8118 37.5197 31.933 37.5467C32.0542 37.5738 32.1609 37.6449 32.2326 37.7463C32.3042 37.8477 32.3355 37.9722 32.3204 38.0954C32.3053 38.2186 32.245 38.3318 32.151 38.413L30.534 39.788L34.326 37.6C34.4298 37.5406 34.5514 37.5203 34.6688 37.5428C34.7862 37.5654 34.8916 37.6292 34.966 37.7228C35.0404 37.8164 35.0788 37.9336 35.0742 38.0531C35.0696 38.1725 35.0224 38.2864 34.941 38.374L32.617 40.861L38.269 37.6C38.3738 37.5431 38.4955 37.5255 38.6121 37.5503C38.7287 37.5752 38.8326 37.641 38.905 37.7357C38.9774 37.8305 39.0136 37.948 39.007 38.067C39.0004 38.1861 38.9515 38.2989 38.869 38.385L36.604 40.664L41.914 37.6C42.0222 37.5382 42.1495 37.519 42.2711 37.5462C42.3927 37.5734 42.4998 37.6449 42.5714 37.7469C42.6429 37.8489 42.6739 37.9739 42.6581 38.0975C42.6423 38.2211 42.5809 38.3343 42.486 38.415L40.942 39.715L44.612 37.6C44.7216 37.5378 44.8506 37.5193 44.9733 37.5481C45.096 37.5769 45.2032 37.651 45.2736 37.7555C45.344 37.86 45.3723 37.9873 45.3529 38.1118C45.3335 38.2363 45.2679 38.3489 45.169 38.427L44.552 38.907L46.817 37.6C46.9263 37.5377 47.0549 37.5189 47.1774 37.5472C47.2999 37.5756 47.4073 37.649 47.478 37.753C47.5488 37.8569 47.5778 37.9837 47.5593 38.1081C47.5407 38.2324 47.476 38.3452 47.378 38.424L46.478 39.136L49.142 37.6C49.2511 37.5392 49.379 37.5213 49.5005 37.55C49.6221 37.5787 49.7285 37.6518 49.7988 37.755C49.8692 37.8582 49.8984 37.984 49.8806 38.1076C49.8629 38.2312 49.7995 38.3438 49.703 38.423L48.723 39.206L51.505 37.6C51.6116 37.5363 51.738 37.5144 51.8598 37.5388C51.9815 37.5631 52.0899 37.6318 52.1637 37.7316C52.2376 37.8314 52.2716 37.9552 52.2593 38.0787C52.247 38.2022 52.1891 38.3168 52.097 38.4L50 40.359L54.782 37.6C54.8886 37.5341 55.016 37.5106 55.139 37.5342C55.2621 37.5577 55.3718 37.6266 55.4465 37.7272C55.5212 37.8278 55.5554 37.9527 55.5423 38.0773C55.5293 38.2019 55.4699 38.3171 55.376 38.4L53.237 40.427L57.332 38.064C57.434 38.0056 57.5533 37.9849 57.6689 38.0056C57.7846 38.0264 57.8893 38.0872 57.9646 38.1774C58.0399 38.2676 58.081 38.3815 58.0807 38.499C58.0804 38.6165 58.0388 38.7302 57.963 38.82L56.026 41.095L58.562 39.632C58.6634 39.5739 58.7819 39.5531 58.897 39.5733C59.0121 39.5934 59.1165 39.6533 59.1921 39.7424C59.2677 39.8315 59.3096 39.9443 59.3107 40.0611C59.3118 40.178 59.2719 40.2915 59.198 40.382L58.554 41.166L58.72 41.066C58.8348 41.0008 58.9707 40.9836 59.0982 41.0182C59.2256 41.0527 59.3342 41.1363 59.4002 41.2507C59.4662 41.365 59.4843 41.5008 59.4506 41.6285C59.4168 41.7561 59.3339 41.8652 59.22 41.932L56.669 43.4C56.5676 43.4587 56.4489 43.48 56.3334 43.4601C56.218 43.4402 56.1132 43.3803 56.0373 43.291C55.9615 43.2017 55.9194 43.0886 55.9184 42.9715C55.9175 42.8543 55.9577 42.7406 56.032 42.65L56.677 41.866L54.019 43.4C53.9171 43.4585 53.7978 43.4791 53.6821 43.4584C53.5665 43.4377 53.4618 43.3769 53.3865 43.2866C53.3112 43.1964 53.2701 43.0826 53.2704 42.9651C53.2706 42.8475 53.3123 42.7339 53.388 42.644L55.324 40.369L50.072 43.4C49.9655 43.4648 49.8386 43.4875 49.7162 43.4635C49.5938 43.4396 49.4848 43.3707 49.4106 43.2706C49.3363 43.1704 49.3022 43.0461 49.3148 42.922C49.3275 42.798 49.3861 42.6831 49.479 42.6L51.616 40.573L46.727 43.4C46.6205 43.4638 46.494 43.4856 46.3723 43.4613C46.2506 43.437 46.1422 43.3682 46.0684 43.2684C45.9945 43.1686 45.9604 43.0449 45.9727 42.9213C45.9851 42.7978 46.0429 42.6833 46.135 42.6L48.235 40.637L43.449 43.4C43.34 43.4609 43.2121 43.4787 43.0905 43.45C42.969 43.4214 42.8626 43.3482 42.7922 43.245C42.7219 43.1418 42.6927 43.0161 42.7104 42.8924C42.7282 42.7688 42.7915 42.6563 42.888 42.577L43.868 41.794L41.086 43.4C40.9768 43.4623 40.8481 43.4812 40.7256 43.4528C40.6031 43.4245 40.4958 43.351 40.425 43.2471C40.3543 43.1431 40.3253 43.0164 40.3438 42.892C40.3623 42.7676 40.427 42.6548 40.525 42.576L41.425 41.862L38.761 43.4C38.6515 43.4622 38.5224 43.4808 38.3998 43.4519C38.2771 43.4231 38.1698 43.349 38.0995 43.2445C38.0291 43.14 38.0007 43.0128 38.0201 42.8883C38.0395 42.7638 38.1052 42.6512 38.204 42.573L38.821 42.093L36.556 43.4C36.4478 43.4629 36.32 43.4829 36.1978 43.4561C36.0755 43.4293 35.9678 43.3577 35.8958 43.2553C35.8238 43.1529 35.7929 43.0273 35.809 42.9032C35.8252 42.7791 35.8872 42.6656 35.983 42.585L37.527 41.285L33.861 43.4C33.7563 43.457 33.6346 43.4746 33.518 43.4497C33.4013 43.4248 33.2974 43.3591 33.225 43.2643C33.1526 43.1696 33.1164 43.0521 33.123 42.933C33.1296 42.814 33.1786 42.7012 33.261 42.615L35.525 40.336L30.212 43.4C30.1083 43.4594 29.9867 43.4797 29.8693 43.4572C29.7519 43.4347 29.6464 43.3708 29.572 43.2772C29.4977 43.1836 29.4593 43.0665 29.4639 42.947C29.4685 42.8275 29.5157 42.7137 29.597 42.626L31.921 40.139L26.27 43.4C26.1621 43.4624 26.0347 43.4822 25.9129 43.4555C25.7911 43.4288 25.6837 43.3576 25.6117 43.2558C25.5397 43.154 25.5084 43.029 25.5238 42.9053C25.5392 42.7815 25.6003 42.668 25.695 42.587L27.311 41.213L23.521 43.4C23.4145 43.461 23.2894 43.4807 23.1693 43.4553C23.0492 43.43 22.9427 43.3614 22.8699 43.2626C22.7972 43.1638 22.7633 43.0416 22.7748 42.9195C22.7862 42.7973 22.8422 42.6836 22.932 42.6L24.993 40.7L20.3 43.4C20.1935 43.4638 20.067 43.4856 19.9453 43.4613C19.8235 43.437 19.7152 43.3682 19.6413 43.2684C19.5675 43.1686 19.5334 43.0449 19.5457 42.9213C19.5581 42.7978 19.6159 42.6833 19.708 42.6L21.808 40.642L17.033 43.4C16.9574 43.4453 16.8711 43.4694 16.783 43.47Z" fill="#FCB01A"/>
<path d="M24.3856 27.4709C24.2972 27.471 24.2104 27.4478 24.134 27.4035C24.0576 27.3592 23.9942 27.2955 23.9504 27.2188C23.9066 27.142 23.8839 27.0551 23.8847 26.9668C23.8854 26.8784 23.9095 26.7919 23.9546 26.7159L24.5896 25.6449L22.3596 26.9319C22.2536 26.9923 22.1293 27.0119 22.0099 26.987C21.8905 26.9622 21.7843 26.8945 21.7113 26.7968C21.6383 26.6991 21.6035 26.5781 21.6135 26.4566C21.6235 26.335 21.6776 26.2213 21.7656 26.1369L22.5806 25.3629L20.9136 26.3249C20.8056 26.3862 20.6787 26.4052 20.5576 26.3782C20.4364 26.3511 20.3296 26.28 20.258 26.1786C20.1864 26.0772 20.1551 25.9527 20.1702 25.8295C20.1853 25.7063 20.2456 25.5931 20.3396 25.5119L21.4816 24.5389L20.3096 25.2159C20.2038 25.2796 20.0782 25.3019 19.957 25.2785C19.8357 25.2551 19.7274 25.1877 19.6529 25.0892C19.5784 24.9907 19.543 24.8682 19.5535 24.7452C19.5639 24.6222 19.6195 24.5074 19.7096 24.4229L22.6616 21.5849L20.2796 22.9619C20.1736 23.0223 20.0493 23.0419 19.9299 23.017C19.8105 22.9922 19.7043 22.9245 19.6313 22.8268C19.5583 22.7291 19.5235 22.6081 19.5335 22.4866C19.5435 22.365 19.5976 22.2513 19.6856 22.1669L22.4526 19.5319L20.2796 20.7859C20.1802 20.8427 20.0643 20.8638 19.9512 20.8455C19.8382 20.8271 19.7349 20.7706 19.6586 20.6852C19.5822 20.5999 19.5375 20.4909 19.5319 20.3765C19.5262 20.2622 19.56 20.1493 19.6276 20.0569L20.3746 19.0439C20.26 19.0584 20.144 19.0329 20.0461 18.9715C19.9483 18.9102 19.8747 18.8169 19.8378 18.7075C19.8009 18.5981 19.8031 18.4793 19.8439 18.3712C19.8846 18.2632 19.9616 18.1726 20.0616 18.1149L21.8886 17.0619C21.9879 17.005 22.1038 16.984 22.2169 17.0023C22.3299 17.0206 22.4332 17.0772 22.5096 17.1625C22.5859 17.2479 22.6306 17.3569 22.6363 17.4712C22.6419 17.5856 22.6081 17.6984 22.5406 17.7909L21.8536 18.7239L25.5846 16.5689C25.6911 16.5018 25.819 16.4773 25.9428 16.5004C26.0666 16.5236 26.1771 16.5925 26.2522 16.6936C26.3274 16.7946 26.3617 16.9203 26.3482 17.0455C26.3347 17.1706 26.2745 17.2861 26.1796 17.3689L23.4126 19.9999L25.7266 18.6639C25.8323 18.6002 25.9579 18.5779 26.0792 18.6013C26.2004 18.6247 26.3087 18.6921 26.3832 18.7905C26.4577 18.889 26.4931 19.0116 26.4827 19.1346C26.4722 19.2576 26.4166 19.3724 26.3266 19.4569L23.3696 22.2999L25.7326 20.9359C25.8405 20.8735 25.9679 20.8538 26.0897 20.8804C26.2114 20.9071 26.3189 20.9783 26.3909 21.0801C26.4628 21.1819 26.4942 21.3069 26.4788 21.4306C26.4634 21.5544 26.4023 21.6679 26.3076 21.7489L25.1686 22.7189L25.7366 22.3909C25.8426 22.3113 25.976 22.2772 26.1073 22.2959C26.2385 22.3147 26.357 22.3848 26.4366 22.4909C26.5161 22.597 26.5503 22.7303 26.5315 22.8616C26.5128 22.9929 26.4426 23.1113 26.3366 23.1909L25.5206 23.9659L25.7466 23.8349C25.8423 23.7794 25.9537 23.7573 26.0634 23.772C26.173 23.7866 26.2747 23.8372 26.3526 23.9159C26.4305 23.9945 26.4801 24.0967 26.4937 24.2066C26.5073 24.3164 26.484 24.4277 26.4276 24.5229L25.7906 25.5969C25.9072 25.5434 26.0399 25.5368 26.1612 25.5784C26.2826 25.6201 26.3833 25.7068 26.4425 25.8206C26.5017 25.9344 26.5149 26.0666 26.4794 26.1899C26.4438 26.3132 26.3623 26.4181 26.2516 26.4829L24.6406 27.4129C24.5624 27.455 24.4742 27.475 24.3856 27.4709Z" fill="#B4BFD1"/>
<path d="M29.0198 18.49C28.9238 18.4901 28.8298 18.4626 28.7491 18.4107C28.6683 18.3589 28.6042 18.2849 28.5643 18.1976C28.5245 18.1103 28.5106 18.0134 28.5243 17.9184C28.538 17.8234 28.5788 17.7344 28.6418 17.662L30.6018 15.406L27.2648 17.332C27.1572 17.3937 27.0305 17.4131 26.9093 17.3867C26.7881 17.3602 26.6811 17.2896 26.6091 17.1886C26.5371 17.0877 26.5051 16.9635 26.5195 16.8403C26.5338 16.7171 26.5934 16.6037 26.6868 16.522L28.2568 15.156L26.2998 16.286C26.1927 16.3477 26.0666 16.3676 25.9458 16.3418C25.8249 16.316 25.7179 16.2464 25.6454 16.1464C25.5728 16.0464 25.5398 15.923 25.5528 15.8002C25.5658 15.6773 25.6239 15.5636 25.7158 15.481L27.6158 13.781L24.6958 15.467C24.5893 15.5288 24.4637 15.5492 24.3431 15.5242C24.2225 15.4991 24.1154 15.4305 24.0423 15.3314C23.9692 15.2322 23.9352 15.1096 23.9469 14.987C23.9587 14.8644 24.0152 14.7504 24.1058 14.667L26.1808 12.731L23.6898 14.169C23.5859 14.2284 23.4642 14.2486 23.3467 14.226C23.2293 14.2033 23.1238 14.1393 23.0495 14.0455C22.9752 13.9517 22.937 13.8344 22.9418 13.7149C22.9466 13.5953 22.9942 13.4815 23.0758 13.394L24.2368 12.158L23.3008 12.698C23.2065 12.7529 23.0968 12.7756 22.9885 12.7624C22.8802 12.7492 22.7791 12.7009 22.7008 12.625C22.6216 12.549 22.5696 12.4491 22.5528 12.3407C22.536 12.2323 22.5553 12.1213 22.6078 12.025L23.0528 11.195C22.9459 11.188 22.8441 11.1468 22.7623 11.0776C22.6806 11.0084 22.6232 10.9148 22.5987 10.8105C22.5742 10.7063 22.5838 10.5969 22.6261 10.4985C22.6684 10.4001 22.7412 10.3179 22.8338 10.264L23.9948 9.59396C24.089 9.53898 24.1987 9.51636 24.3071 9.52954C24.4154 9.54272 24.5164 9.59098 24.5948 9.66696C24.674 9.74291 24.726 9.8428 24.7428 9.95123C24.7596 10.0597 24.7403 10.1706 24.6878 10.267L24.3178 10.956L26.6698 9.59996C26.7736 9.54053 26.8953 9.5203 27.0128 9.54296C27.1303 9.56561 27.2358 9.62964 27.3101 9.72342C27.3844 9.8172 27.4226 9.93452 27.4177 10.0541C27.4129 10.1736 27.3654 10.2875 27.2838 10.375L26.1228 11.61L29.4788 9.67296C29.5853 9.61019 29.7113 9.5891 29.8325 9.61379C29.9536 9.63847 30.0613 9.70718 30.1348 9.80663C30.2083 9.90608 30.2423 10.0292 30.2303 10.1523C30.2183 10.2753 30.1611 10.3896 30.0698 10.473L27.9998 12.4L31.2818 10.506C31.3881 10.4489 31.5115 10.4322 31.6292 10.459C31.7469 10.4858 31.8509 10.5543 31.922 10.6517C31.9932 10.7492 32.0267 10.8691 32.0164 10.9894C32.006 11.1096 31.9525 11.2221 31.8658 11.306L29.9658 13.006L32.2458 11.689C32.3534 11.6273 32.4801 11.6078 32.6012 11.6343C32.7224 11.6608 32.8294 11.7313 32.9015 11.8323C32.9735 11.9333 33.0054 12.0574 32.9911 12.1806C32.9767 12.3038 32.9171 12.4173 32.8238 12.499L31.2518 13.867L32.6858 13.04C32.7882 12.9811 32.9082 12.9604 33.0245 12.9815C33.1407 13.0026 33.2457 13.0643 33.3209 13.1555C33.396 13.2467 33.4364 13.3616 33.435 13.4797C33.4335 13.5979 33.3902 13.7117 33.3128 13.801L31.3548 16.055L32.7328 15.26C32.8261 15.2044 32.935 15.1808 33.043 15.1926C33.1509 15.2045 33.2521 15.2511 33.3312 15.3256C33.4103 15.4 33.463 15.4982 33.4813 15.6053C33.4996 15.7123 33.4826 15.8224 33.4328 15.919L32.9888 16.792C33.0781 16.7924 33.1658 16.8156 33.2436 16.8594C33.3215 16.9031 33.3869 16.9659 33.4338 17.042C33.4666 17.0989 33.4878 17.1617 33.4963 17.2269C33.5048 17.292 33.5004 17.3582 33.4833 17.4216C33.4662 17.485 33.4368 17.5445 33.3967 17.5965C33.3567 17.6486 33.3067 17.6922 33.2498 17.725L32.0798 18.4C31.9864 18.4558 31.8773 18.4796 31.7691 18.4678C31.6609 18.456 31.5595 18.4092 31.4803 18.3345C31.4011 18.2599 31.3485 18.1614 31.3303 18.0541C31.3122 17.9468 31.3295 17.8365 31.3798 17.74L31.7708 16.969L29.2708 18.414C29.1955 18.4614 29.1088 18.4877 29.0198 18.49Z" fill="#FCB01A"/>
<path d="M25.29 34.4699C25.1857 34.47 25.084 34.4374 24.9991 34.3769C24.9142 34.3163 24.8504 34.2307 24.8166 34.1321C24.7827 34.0335 24.7806 33.9267 24.8104 33.8268C24.8403 33.7269 24.9006 33.6388 24.983 33.5749L26.883 32.0999L23.5 34.0509C23.3897 34.1131 23.2598 34.1312 23.1367 34.1015C23.0136 34.0718 22.9063 33.9964 22.8366 33.8906C22.7669 33.7849 22.74 33.6566 22.7612 33.5317C22.7824 33.4068 22.8502 33.2947 22.951 33.2179L25.833 31.0679L23.28 32.5439C23.1786 32.602 23.0601 32.6228 22.945 32.6026C22.8299 32.5825 22.7255 32.5226 22.6499 32.4335C22.5743 32.3444 22.5324 32.2316 22.5313 32.1148C22.5302 31.9979 22.5701 31.8844 22.644 31.7939L24.2 29.8999C24.0852 29.9651 23.9493 29.9823 23.8218 29.9477C23.6944 29.9131 23.5859 29.8296 23.5198 29.7152C23.4538 29.6009 23.4357 29.4651 23.4695 29.3374C23.5032 29.2098 23.5861 29.1006 23.7 29.0339L26.076 27.6619C26.1774 27.6031 26.2961 27.5819 26.4116 27.6018C26.527 27.6217 26.6318 27.6815 26.7077 27.7708C26.7835 27.8601 26.8256 27.9732 26.8266 28.0904C26.8275 28.2075 26.7873 28.3213 26.713 28.4119L25.159 30.3069L32.722 25.9399C32.8323 25.8776 32.9621 25.8595 33.0852 25.8892C33.2083 25.919 33.3156 25.9943 33.3853 26.1001C33.455 26.2059 33.482 26.3341 33.4608 26.459C33.4395 26.5839 33.3717 26.6961 33.271 26.7729L30.386 28.9259L32.722 27.5769C32.8315 27.5158 32.96 27.4981 33.0819 27.5274C33.2039 27.5566 33.3104 27.6306 33.3804 27.7346C33.4503 27.8387 33.4786 27.9653 33.4597 28.0892C33.4407 28.2132 33.3758 28.3255 33.278 28.4039L31.378 29.8799L32.72 29.0999C32.8289 29.0382 32.9571 29.0197 33.079 29.048C33.201 29.0763 33.3079 29.1493 33.3786 29.2525C33.4494 29.3558 33.4788 29.4819 33.4611 29.6058C33.4434 29.7298 33.3798 29.8425 33.283 29.9219L32.73 30.3669C32.8377 30.3337 32.9535 30.3378 33.0585 30.3787C33.1636 30.4195 33.2517 30.4947 33.3087 30.592C33.3657 30.6892 33.3881 30.8029 33.3724 30.9145C33.3566 31.0261 33.3036 31.1292 33.222 31.2069L32.294 32.0929C32.3713 32.1358 32.4359 32.1984 32.4812 32.2744C32.5264 32.3504 32.5507 32.4371 32.5515 32.5255C32.5523 32.614 32.5296 32.7011 32.4858 32.7779C32.442 32.8547 32.3785 32.9186 32.302 32.9629L29.927 34.3349C29.8211 34.3997 29.6949 34.4228 29.5729 34.3996C29.4509 34.3765 29.3419 34.3089 29.2671 34.2098C29.1922 34.1108 29.1569 33.9874 29.168 33.8638C29.179 33.7401 29.2357 33.625 29.327 33.5409L29.516 33.3599L27.716 34.3979C27.607 34.4606 27.4783 34.48 27.3557 34.4521C27.233 34.4242 27.1254 34.3511 27.0542 34.2474C26.983 34.1437 26.9536 34.017 26.9717 33.8925C26.9898 33.7681 27.0542 33.655 27.152 33.5759L27.64 33.1839L25.54 34.3999C25.4644 34.4451 25.3781 34.4693 25.29 34.4699Z" fill="#FCB01A"/>
<path d="M27.03 28.2109C26.9521 28.2107 26.8753 28.1924 26.8058 28.1573C26.7362 28.1223 26.6758 28.0714 26.6294 28.0089C26.5829 27.9463 26.5517 27.8738 26.5383 27.797C26.5249 27.7203 26.5296 27.6415 26.552 27.5669L26.793 26.7589C26.7147 26.7166 26.6491 26.6543 26.6029 26.5782C26.5567 26.5022 26.5317 26.4151 26.5303 26.3262C26.529 26.2372 26.5514 26.1495 26.5953 26.0721C26.6392 25.9947 26.703 25.9304 26.78 25.8859L27.28 25.5949C27.3667 25.5449 27.4664 25.522 27.5662 25.5293C27.666 25.5365 27.7613 25.5736 27.8399 25.6356C27.9184 25.6977 27.9765 25.7819 28.0066 25.8773C28.0368 25.9727 28.0376 26.075 28.009 26.1709L27.866 26.6479L29.714 25.5819C29.8283 25.5221 29.9612 25.5088 30.0851 25.5447C30.209 25.5806 30.3141 25.663 30.3787 25.7747C30.4432 25.8863 30.4621 26.0186 30.4314 26.1439C30.4008 26.2691 30.3229 26.3777 30.214 26.4469L27.276 28.1469C27.2008 28.1887 27.1161 28.2107 27.03 28.2109Z" fill="#FCB01A"/>
<path d="M27.2944 28.4701C27.1884 28.4705 27.085 28.4373 26.9991 28.3752C26.9133 28.313 26.8493 28.2252 26.8166 28.1244C26.7839 28.0236 26.7841 27.915 26.8171 27.8142C26.8501 27.7135 26.9143 27.6259 27.0004 27.5641L34.5004 22.1581L24.4474 27.9651C24.335 28.029 24.2022 28.0469 24.0769 28.015C23.9516 27.9832 23.8436 27.904 23.7754 27.7941C23.7072 27.6843 23.6842 27.5523 23.7112 27.4259C23.7383 27.2994 23.8132 27.1884 23.9204 27.1161L27.5444 24.7001L24.2804 26.5871C24.1687 26.6501 24.037 26.6679 23.9126 26.6366C23.7882 26.6053 23.6806 26.5274 23.612 26.419C23.5434 26.3106 23.5191 26.18 23.5441 26.0542C23.5692 25.9284 23.6416 25.817 23.7464 25.7431L27.9344 22.8541L24.2804 24.9631C24.1696 25.0261 24.0389 25.0444 23.915 25.0143C23.7911 24.9841 23.6834 24.9078 23.6139 24.8009C23.5445 24.694 23.5184 24.5646 23.5412 24.4392C23.564 24.3137 23.6338 24.2017 23.7364 24.1261L27.7134 21.2331L24.2804 23.2151C24.2269 23.2531 24.1664 23.2803 24.1024 23.295C24.0384 23.3097 23.9721 23.3117 23.9073 23.3008C23.8425 23.2899 23.7806 23.2663 23.7249 23.2314C23.6692 23.1966 23.621 23.1511 23.5829 23.0976C23.5448 23.044 23.5176 22.9836 23.5029 22.9195C23.4882 22.8555 23.4863 22.7892 23.4972 22.7245C23.5081 22.6597 23.5317 22.5977 23.5665 22.5421C23.6014 22.4864 23.6469 22.4381 23.7004 22.4001L27.5284 19.0901L24.2804 20.9701C24.1739 21.0338 24.0474 21.0556 23.9257 21.0313C23.8039 21.007 23.6956 20.9382 23.6217 20.8384C23.5479 20.7386 23.5138 20.6149 23.5261 20.4914C23.5384 20.3678 23.5963 20.2533 23.6884 20.1701L25.3264 18.6371L24.2804 19.2371C24.1892 19.2896 24.0838 19.312 23.9791 19.3012C23.8745 19.2903 23.7759 19.2467 23.6975 19.1766C23.619 19.1065 23.5647 19.0134 23.5423 18.9106C23.5198 18.8078 23.5303 18.7005 23.5724 18.6041L24.1934 17.1831C24.077 17.2088 23.9553 17.1921 23.8501 17.136C23.745 17.0798 23.6633 16.988 23.6199 16.877C23.5765 16.766 23.5741 16.6432 23.6133 16.5306C23.6524 16.418 23.7305 16.3232 23.8334 16.2631L25.0004 15.6001C25.0916 15.5475 25.197 15.5251 25.3016 15.5359C25.4063 15.5468 25.5049 15.5904 25.5833 15.6605C25.6617 15.7307 25.7161 15.8237 25.7385 15.9265C25.761 16.0293 25.7504 16.1366 25.7084 16.2331L25.1004 17.6151L28.6004 15.5981C28.7069 15.5343 28.8334 15.5125 28.9551 15.5368C29.0769 15.5611 29.1852 15.6299 29.2591 15.7297C29.3329 15.8295 29.367 15.9532 29.3547 16.0767C29.3423 16.2003 29.2845 16.3148 29.1924 16.3981L27.5474 17.9301L31.5874 15.5981C31.695 15.5373 31.8212 15.5185 31.9418 15.5454C32.0624 15.5722 32.1688 15.6427 32.2405 15.7433C32.3122 15.844 32.344 15.9676 32.33 16.0903C32.3159 16.213 32.257 16.3262 32.1644 16.4081L28.3384 19.7181L35.4384 15.6181C35.5492 15.555 35.6799 15.5367 35.8038 15.5668C35.9277 15.597 36.0354 15.6733 36.1048 15.7802C36.1743 15.8871 36.2003 16.0165 36.1776 16.1419C36.1548 16.2674 36.085 16.3794 35.9824 16.4551L32.0004 19.3511L38.2124 15.7641C38.3239 15.7032 38.4543 15.687 38.5773 15.7188C38.7002 15.7506 38.8065 15.828 38.8744 15.9353C38.9424 16.0426 38.967 16.1717 38.9432 16.2965C38.9194 16.4213 38.849 16.5323 38.7464 16.6071L34.5574 19.5001L40.6004 16.0111C40.7125 15.9498 40.8438 15.9339 40.9673 15.9664C41.0909 15.9989 41.1972 16.0775 41.2647 16.186C41.3321 16.2945 41.3554 16.4247 41.3299 16.5498C41.3044 16.675 41.2319 16.7856 41.1274 16.8591L37.5054 19.2711L42.5954 16.3331C42.7063 16.2709 42.8367 16.2533 42.9601 16.2839C43.0835 16.3145 43.1907 16.3909 43.2597 16.4977C43.3288 16.6044 43.3545 16.7335 43.3318 16.8586C43.3091 16.9837 43.2396 17.0954 43.1374 17.1711L35.6304 22.5801L44.1614 17.6551C44.2723 17.5929 44.4027 17.5753 44.5261 17.6059C44.6495 17.6365 44.7567 17.7129 44.8257 17.8197C44.8948 17.9264 44.9205 18.0555 44.8978 18.1806C44.8751 18.3057 44.8056 18.4174 44.7034 18.4931L39.0154 22.5931L44.8014 19.2531C44.9107 19.1916 45.0391 19.1734 45.1612 19.2022C45.2833 19.2309 45.3901 19.3045 45.4605 19.4084C45.5308 19.5122 45.5596 19.6387 45.541 19.7627C45.5225 19.8868 45.458 19.9993 45.3604 20.0781L40.3134 24.0551L45.5204 21.0491C45.6287 20.9887 45.7556 20.9709 45.8764 20.9988C45.9972 21.0268 46.1033 21.0987 46.1741 21.2005C46.2449 21.3023 46.2753 21.4268 46.2595 21.5498C46.2436 21.6728 46.1827 21.7855 46.0884 21.8661L43.0004 24.4261L45.0594 23.2371C45.161 23.1791 45.2798 23.1586 45.395 23.1792C45.5102 23.1997 45.6145 23.2601 45.6898 23.3496C45.7651 23.4392 45.8066 23.5524 45.8071 23.6694C45.8076 23.7864 45.767 23.8999 45.6924 23.9901L44.3194 25.6321C44.4094 25.6311 44.498 25.6537 44.5766 25.6976C44.6552 25.7414 44.7209 25.805 44.7674 25.8821C44.8334 25.9968 44.8512 26.133 44.8169 26.2609C44.7826 26.3887 44.699 26.4978 44.5844 26.5641L42.4844 27.7751C42.3827 27.833 42.264 27.8535 42.1488 27.8329C42.0336 27.8124 41.9292 27.752 41.8539 27.6625C41.7786 27.5729 41.7371 27.4597 41.7367 27.3427C41.7362 27.2257 41.7768 27.1122 41.8514 27.0221L43.1114 25.5141L38.3504 28.2651C38.2419 28.3277 38.1138 28.3473 37.9915 28.3199C37.8692 28.2926 37.7616 28.2204 37.69 28.1175C37.6185 28.0146 37.5882 27.8886 37.6051 27.7645C37.622 27.6403 37.6849 27.527 37.7814 27.4471L40.8704 24.8901L34.8004 28.4001C34.691 28.4627 34.5621 28.4818 34.4393 28.4534C34.3165 28.425 34.2089 28.3513 34.1381 28.247C34.0673 28.1428 34.0386 28.0156 34.0575 27.891C34.0765 27.7664 34.1418 27.6536 34.2404 27.5751L39.2904 23.5971L30.9544 28.4001C30.8435 28.4622 30.7131 28.4798 30.5897 28.4492C30.4662 28.4186 30.3591 28.3422 30.2901 28.2354C30.221 28.1287 30.1952 27.9996 30.218 27.8745C30.2407 27.7495 30.3102 27.6377 30.4124 27.5621L36.1004 23.4621L27.5444 28.4001C27.4688 28.4453 27.3825 28.4695 27.2944 28.4701Z" fill="#CED3DB"/>
<path d="M46.2417 26.8389C46.1415 26.8388 46.0436 26.8085 45.9608 26.752C45.878 26.6956 45.814 26.6155 45.7773 26.5223C45.7405 26.429 45.7326 26.3269 45.7546 26.2291C45.7766 26.1313 45.8275 26.0424 45.9007 25.9739L47.4217 24.5539L44.2797 26.3669C44.1733 26.424 44.05 26.4406 43.9323 26.4139C43.8146 26.3871 43.7106 26.3186 43.6394 26.2211C43.5683 26.1237 43.5348 26.0037 43.5451 25.8835C43.5555 25.7633 43.6089 25.6508 43.6957 25.5669L46.4437 23.0999L44.2797 24.3499C44.1724 24.412 44.0459 24.432 43.9247 24.4061C43.8035 24.3801 43.6963 24.3101 43.6238 24.2096C43.5513 24.1091 43.5187 23.9852 43.5323 23.862C43.546 23.7388 43.6049 23.6251 43.6977 23.5429L45.3137 22.1059L44.2797 22.7059C44.1759 22.7653 44.0544 22.7856 43.9369 22.7631C43.8195 22.7406 43.7141 22.6767 43.6397 22.5831C43.5653 22.4895 43.527 22.3723 43.5315 22.2529C43.5361 22.1334 43.5834 22.0195 43.6647 21.9319L45.0937 20.3999L44.2797 20.8699C44.181 20.9265 44.066 20.9478 43.9537 20.9302C43.8413 20.9126 43.7383 20.8572 43.6616 20.7732C43.5849 20.6892 43.5392 20.5816 43.5319 20.4681C43.5247 20.3546 43.5563 20.242 43.6217 20.1489L44.3217 19.1579L44.2817 19.1809C44.1981 19.2291 44.1023 19.2521 44.0059 19.247C43.9095 19.242 43.8166 19.2091 43.7384 19.1525C43.6603 19.0958 43.6002 19.0177 43.5655 18.9276C43.5308 18.8376 43.5228 18.7394 43.5427 18.6449L43.7427 17.7119C43.6859 17.6708 43.6382 17.6184 43.6027 17.5579C43.5696 17.5011 43.5481 17.4384 43.5393 17.3733C43.5305 17.3081 43.5346 17.2419 43.5514 17.1784C43.5682 17.1149 43.5974 17.0553 43.6372 17.003C43.6771 16.9508 43.7269 16.9069 43.7837 16.8739L44.1307 16.6739C44.2143 16.6254 44.3103 16.6022 44.4068 16.6071C44.5034 16.612 44.5965 16.6448 44.6748 16.7015C44.7531 16.7582 44.8133 16.8365 44.8481 16.9267C44.8828 17.0169 44.8907 17.1153 44.8707 17.2099L44.7557 17.7559L45.7927 17.1559C45.8913 17.0993 46.0064 17.0781 46.1187 17.0956C46.2311 17.1132 46.3341 17.1686 46.4108 17.2526C46.4874 17.3366 46.5332 17.4442 46.5404 17.5577C46.5477 17.6712 46.516 17.7838 46.4507 17.8769L45.7507 18.8679L47.5117 17.8519C47.6154 17.7925 47.737 17.7722 47.8544 17.7947C47.9719 17.8173 48.0773 17.8811 48.1517 17.9747C48.2261 18.0683 48.2644 18.1855 48.2598 18.3049C48.2553 18.4244 48.208 18.5383 48.1267 18.6259L46.6957 20.1539L49.0667 18.7859C49.174 18.7238 49.3005 18.7038 49.4217 18.7298C49.5429 18.7557 49.6501 18.8257 49.7226 18.9262C49.7951 19.0268 49.8277 19.1506 49.814 19.2738C49.8004 19.397 49.7414 19.5107 49.6487 19.5929L48.0337 21.0279L50.1167 19.8279C50.223 19.7708 50.3464 19.7542 50.4641 19.781C50.5818 19.8078 50.6858 19.8762 50.7569 19.9737C50.8281 20.0712 50.8616 20.1911 50.8513 20.3113C50.8409 20.4316 50.7874 20.544 50.7007 20.6279L47.9497 23.0939L50.7147 21.4939C50.8212 21.4311 50.9472 21.41 51.0684 21.4347C51.1895 21.4594 51.2972 21.5281 51.3707 21.6276C51.4442 21.727 51.4782 21.8502 51.4662 21.9732C51.4542 22.0963 51.397 22.2105 51.3057 22.2939L49.7797 23.7199C49.8963 23.6567 50.0332 23.6423 50.1603 23.68C50.2875 23.7177 50.3944 23.8043 50.4577 23.9209C50.5209 24.0375 50.5353 24.1744 50.4976 24.3015C50.4599 24.4287 50.3733 24.5357 50.2567 24.5989L46.4917 26.7709C46.416 26.8156 46.3296 26.8391 46.2417 26.8389Z" fill="#FCB01A"/>
<path d="M36.1465 24.2709C36.0485 24.2709 35.9527 24.2421 35.8709 24.1881C35.7891 24.1341 35.725 24.0573 35.6866 23.9672C35.6481 23.877 35.637 23.7776 35.6546 23.6812C35.6721 23.5848 35.7177 23.4957 35.7855 23.4249L35.9255 23.2789L35.5855 23.4789C35.4905 23.5336 35.3802 23.5556 35.2715 23.5415C35.1628 23.5274 35.0618 23.4779 34.9839 23.4008C34.9061 23.3236 34.8558 23.223 34.8407 23.1144C34.8256 23.0059 34.8466 22.8954 34.9005 22.7999L35.6905 21.3479L35.5695 21.4169C35.4552 21.4767 35.3223 21.49 35.1984 21.4541C35.0746 21.4181 34.9694 21.3358 34.9048 21.2241C34.8403 21.1124 34.8214 20.9802 34.8521 20.8549C34.8828 20.7297 34.9607 20.6211 35.0695 20.5519L36.7275 19.5959C36.8218 19.5418 36.9311 19.5199 37.039 19.5335C37.1469 19.5471 37.2474 19.5955 37.3253 19.6713C37.4032 19.7472 37.4542 19.8464 37.4707 19.9538C37.4871 20.0613 37.4681 20.1712 37.4165 20.2669L36.6275 21.7179L38.4935 20.6409C38.5978 20.5807 38.7202 20.5601 38.8385 20.583C38.9567 20.6058 39.0627 20.6706 39.137 20.7653C39.2113 20.86 39.2489 20.9784 39.243 21.0987C39.237 21.2189 39.1878 21.333 39.1045 21.4199L38.8825 21.6489C38.9825 21.6344 39.0846 21.6498 39.1759 21.6932C39.2672 21.7367 39.3436 21.8061 39.3955 21.8929C39.4618 22.0078 39.4798 22.1442 39.4454 22.2723C39.4111 22.4004 39.3273 22.5096 39.2125 22.5759L36.4005 24.1999C36.3238 24.2462 36.236 24.2707 36.1465 24.2709Z" fill="#FCB01A"/>
<path d="M3.27616 37.7929C0.891162 37.8429 -1.26084 42.1849 1.40116 43.3249C6.17916 43.4929 11.0162 43.3249 15.8132 43.3839C15.0732 48.4189 11.9572 53.8839 12.6912 58.8049C16.7482 60.6729 19.5252 58.6369 19.9192 54.2739H40.0352C40.6142 56.4599 40.7572 59.6649 43.8012 59.2739C45.2012 59.2739 48.0012 59.2739 47.7012 57.1659C46.6012 52.5659 45.3912 47.9799 44.2652 43.3829C47.8372 42.4659 59.5152 45.7269 59.7262 41.0649C59.6892 38.8179 58.3672 38.0079 56.7262 37.7289V6.39992C60.2352 6.21792 60.8332 0.988924 57.1132 0.578924C52.6702 0.499924 48.2122 0.583924 43.7642 0.552924C30.4642 0.569924 17.1642 0.528924 3.87116 0.552924C-0.136837 0.384924 -1.19184 6.32192 3.27116 6.42392L3.27616 37.7929ZM17.8402 56.8609C17.6182 57.7489 17.3972 58.6319 16.2932 58.6319C10.4422 60.1539 17.3512 46.4389 17.2042 43.3839H21.2042L17.8402 56.8609ZM37.3222 43.3839C37.7642 45.1519 38.2008 46.9216 38.6322 48.6929H21.2712C21.7138 46.9229 22.1565 45.1533 22.5992 43.3839H37.3222ZM22.3902 53.7259H20.0512C20.3942 52.2439 20.7452 50.7759 21.1182 49.3069H38.7832C39.1462 50.7819 39.5252 52.2529 39.8962 53.7259H22.3902ZM46.1002 56.9139C46.2128 57.1663 46.2665 57.441 46.2572 57.7172C46.2478 57.9934 46.1757 58.2638 46.0462 58.5079C46.0572 58.4799 45.9802 58.7789 46.0522 58.7249C45.0632 58.7189 43.7882 58.9539 42.9342 58.2659C40.8552 53.6659 40.3742 48.2589 38.8692 43.3839H42.7182C43.8455 47.8939 44.9728 52.4039 46.1002 56.9139ZM58.2762 41.4529C58.2082 42.0649 58.5762 42.9059 57.6602 42.6159C39.3342 42.6579 21.0072 42.5419 2.68116 42.6159C0.629162 42.3069 1.87616 38.3389 3.71716 38.3839C9.27516 38.3839 14.8358 38.3839 20.3992 38.3839H50.4462C53.2282 38.6139 58.3392 37.1659 58.2762 41.4529ZM52.7762 37.6159C36.7382 37.6159 20.7672 37.6299 4.72316 37.5999V6.44692C21.5742 6.43192 38.4232 6.47392 55.2752 6.44692V37.5999C54.4152 37.5769 53.5432 37.6159 52.7762 37.6159ZM1.86716 4.12492C0.939162 0.468925 5.61316 1.59992 7.77316 1.44692H36.5132C43.0812 1.50192 49.6612 1.35492 56.2222 1.44692C58.4922 1.59592 59.1612 5.34692 56.6222 5.55392H8.61616C6.40616 5.17692 3.07716 6.64692 1.86716 4.12492Z" fill="#262626"/>
<path d="M50.1193 19.0181C45.4343 15.7091 39.2573 15.8981 33.7373 15.6181C34.9433 9.2181 27.1923 8.4181 22.8123 9.9661C21.3913 11.7911 22.6673 14.9171 24.5013 15.8661C24.2312 15.9154 23.98 16.0383 23.7753 16.2213C23.5706 16.4043 23.4204 16.6402 23.3413 16.9031C21.8943 17.3031 19.8133 17.4461 19.3673 19.1751C17.6055 18.6456 15.7307 18.6202 13.9553 19.1018C12.1799 19.5835 10.5749 20.5529 9.32227 21.9001C10.5803 25.2001 16.2223 26.0131 19.3043 24.6001C19.2683 26.7101 21.7443 26.8381 23.3043 27.2621C23.3369 27.5415 23.4687 27.7999 23.6757 27.9904C23.8827 28.1809 24.1511 28.2907 24.4323 28.3001C22.3563 29.2831 20.7493 34.5001 24.1323 34.5191C28.5953 34.9941 34.7323 34.2831 33.7323 28.2991C38.5923 28.4001 56.7003 27.0601 50.1193 19.0181ZM23.8673 10.5321C27.6523 10.2321 33.2213 10.1971 32.2673 15.6041C30.7123 15.6041 29.1593 15.6231 27.6203 15.6561C25.0813 15.4941 22.9923 13.0721 23.8673 10.5321ZM11.8433 22.9771C7.86927 20.5331 17.6753 17.9251 19.2763 20.3771C19.2763 21.5638 19.2763 22.7504 19.2763 23.9371C17.0923 25.6001 13.8343 24.3621 11.8433 22.9771ZM20.7653 24.6481C20.9953 22.0861 19.3853 17.5211 23.2533 17.4561C23.2923 20.4481 23.2803 23.3941 23.2683 26.3821C22.2283 26.1631 20.9753 25.8751 20.7653 24.6481ZM24.7243 26.7731C24.5652 23.2819 24.6217 19.7843 24.8933 16.3001C25.7473 16.1111 26.7113 16.9161 27.5093 16.3001C29.1159 16.3001 30.7229 16.2981 32.3303 16.2941C32.5403 16.6341 33.2103 16.5851 33.5413 16.3041C36.8104 16.2415 40.0761 16.5485 43.2763 17.2191V26.9781C40.105 27.5516 36.8826 27.7929 33.6613 27.6981C33.4463 27.3791 32.7963 27.4291 32.4613 27.6981H27.6613C26.7593 26.9331 25.0213 28.5761 24.7243 26.7731ZM31.9823 31.5111C30.6183 34.5341 26.7283 33.2191 24.1093 33.4821C22.6293 31.2141 24.9903 28.3821 27.4963 28.3011H32.2713C32.397 29.3796 32.2986 30.4724 31.9823 31.5111ZM47.0383 25.8001C46.2876 26.1286 45.5143 26.4027 44.7243 26.6201V17.6111C49.5003 18.4001 52.9563 23.4641 47.0383 25.8001Z" fill="#262626"/>
<path d="M37.5 24.4999C40 24.1419 40.58 20.4369 38.079 19.5999C33.789 18.1089 32.826 25.3209 37.5 24.4999ZM35.74 21.8429C35.899 19.6789 38.718 20.6319 38.216 22.4819C38.1742 22.6904 38.0762 22.8835 37.9326 23.0404C37.7891 23.1974 37.6054 23.3121 37.4015 23.3723C37.1975 23.4325 36.981 23.4359 36.7752 23.3821C36.5695 23.3282 36.3824 23.2193 36.234 23.0669C36.0697 22.9095 35.9407 22.719 35.8555 22.508C35.7704 22.297 35.731 22.0703 35.74 21.8429Z" fill="#262626"/>
</g>
<defs>
<clipPath id="clip0_565_2802">
<rect width="60" height="60" fill="white"/>
</clipPath>
</defs>
</svg>
