<svg width="533" height="495" viewBox="0 0 533 495" fill="none" xmlns="http://www.w3.org/2000/svg">
<path d="M533 265.7H0V629.7H533V265.7Z" fill="#F7D97C"/>
<path d="M117.207 265.68H0V629.472H117.207V265.68Z" fill="#FCB01A"/>
<path d="M372.75 247.423C372.75 247.835 371.92 265.569 371.92 265.569L399.919 265.706L388.141 254.709L384.743 246.873L372.75 247.423Z" fill="#1B1B43"/>
<path d="M387.365 254.066L382.691 258.739L384.247 260.295L388.92 255.621L387.365 254.066Z" fill="white"/>
<path d="M384.61 122.283C396.316 154.28 394.326 202.746 388.827 249.672H370.863C369.34 199.413 364.506 152.531 352.898 112.572L384.61 122.288V122.283Z" fill="#1B1B43"/>
<path d="M327.106 244.124C327.106 244.536 322.982 265.569 322.982 265.569L297 265.706L308.547 254.159L314.184 242.749L327.106 244.124Z" fill="#1B1B43"/>
<path d="M309.472 253.425L307.875 254.938L312.825 260.163L314.422 258.65L309.472 253.425Z" fill="white"/>
<path d="M309.278 247.104C321.376 203.482 330.476 155.374 337.503 115.502L369.396 116.234C362.847 164.601 347.978 207.535 329.074 247.835L309.278 247.104Z" fill="#1B1B43"/>
<path d="M430.206 38.8835L429.997 31.9441C428.26 30.19 426.775 27.0502 425.461 23.0086L438.042 20.0503C439.62 23.0911 439.763 26.8577 439.351 30.9103L441.341 42.4577L430.206 38.8835Z" fill="#FFBC96"/>
<path d="M441.659 60.0426C438.998 72.4697 432.817 83.9731 414.122 79.0242L407.853 77.3086L389.377 72.2498L387.706 68.1587L378.468 45.4819C394.612 49.419 409.811 53.818 422.37 59.6027L428.968 37.7837L443.815 41.6328C444.959 42.0067 442.077 58.063 441.659 60.0426Z" fill="#FCB01A"/>
<path d="M407.853 77.3083L389.378 72.2494L387.706 68.1584L388.454 65.1011C396.504 66.1348 402.883 70.3359 407.853 77.3083Z" fill="#1B1B43"/>
<path d="M476.808 16.1627L439.153 23.1791L431.323 24.6308L428.771 25.1147L426.374 25.5546L411.615 28.3039L393.228 31.7352L392.26 26.7863L409.856 21.0016L473.333 0.128418L476.808 16.1627Z" fill="#FCB01A"/>
<path d="M430.205 38.1249L440.136 35.1006L441.098 40.9128L430.205 38.1249Z" fill="#1B1B43"/>
<path d="M431.581 25.5492C431.944 27.2318 431.691 28.3426 430.3 28.3426C428.909 28.3426 429.277 27.1274 428.881 25.4558C428.425 23.5312 427.259 22.019 428.65 22.019C430.042 22.019 431.125 23.4377 431.581 25.5492Z" fill="#FFBC96"/>
<path d="M319.268 110.735C319.818 112.643 320.626 114.518 321.644 116.223C322.567 117.768 323.893 119.269 325.366 120.303C326.087 120.809 326.999 121.342 327.918 121.232C328.968 121.111 329.529 120.21 330.629 120.083C332.185 119.902 333.559 118.159 333.559 118.159L334.428 117.251C335.171 116.476 335.374 115.343 334.989 114.337C333.416 110.262 330.623 106.639 325.311 104.868L319.263 110.735H319.268Z" fill="#FFBC96"/>
<path d="M396.525 128.788L381.678 127.413L378.467 45.4819L388.826 68.3017L396.525 128.788Z" fill="#1B1B43"/>
<path d="M378.469 45.4819C383.753 71.6174 384.908 97.071 384.611 122.283C373.355 124.031 361.819 123.569 349.969 120.633L358.789 44.5581L367.928 46.95L378.469 45.4819Z" fill="white"/>
<path d="M376.385 90.7522L381.375 90.4227L381.565 91.401C382.022 93.7549 379.915 95.4686 377.378 95.4243C375.35 95.3889 373.472 94.8258 373.133 93.0797C372.86 91.6745 373.642 90.9318 376.385 90.7522Z" fill="#DB9A1B"/>
<path d="M385.869 86.9558L385.542 85.2719C384.671 80.791 380.483 78.9024 375.118 78.8087C367.511 78.6759 365.892 82.4693 366.264 85.4657L371.237 85.2468C372.756 85.2733 370.747 82.6678 375.632 82.7531C378.294 82.7995 380.12 83.9674 380.57 86.2827L380.747 87.1943L375.188 87.4001C366.783 87.7084 366.695 91.1503 367.101 93.2388C367.965 97.6827 372.442 99.2735 375.864 99.3333C378.4 99.3775 381.649 98.9275 384.48 96.7419C386.355 95.0005 387.01 93.1092 386.499 90.2211C387.2 90.1979 387.89 90.1789 388.509 90.1676C388.508 90.367 388.502 90.5648 388.491 90.7611C388.491 90.7788 388.49 90.798 388.488 90.8157C388.127 96.8705 382.96 101.304 375.726 101.177C367.324 101.031 359.323 94.7901 357.855 87.2394C356.388 79.6887 362.008 73.6843 370.41 73.831C378.812 73.9776 386.156 79.7208 388.063 86.8537L388.044 86.8534L385.869 86.9558Z" fill="#DB9A1B"/>
<path d="M381.375 90.4227L381.565 91.401C382.022 93.7549 379.915 95.4686 377.378 95.4243C375.35 95.3889 373.472 94.8258 373.133 93.0797C372.86 91.6745 373.642 90.9318 376.385 90.7522L381.375 90.4227Z" fill="#DB9A1B"/>
<path fill-rule="evenodd" clip-rule="evenodd" d="M385 130L396.054 128.298L388.356 67.8119L380 50.5C380 50.5 383.025 74.8314 384 90.5C384.959 105.901 385 130 385 130Z" fill="#1B1B43"/>
<path d="M378.467 45.4819C395.431 64.733 399.836 95.6799 400.919 130.162L394.502 136.942C393.221 109.999 389.553 72.9756 378.462 45.4819H378.467Z" fill="#FCB01A"/>
<path d="M358.788 44.5532C370.126 77.8756 363.868 107.976 353.448 137.311L327.423 131.444C333.928 111.396 339.042 91.6389 338.97 72.9762L358.788 44.5532Z" fill="#FCB01A"/>
<path d="M358.788 44.5532L342.627 48.2704C336.958 49.5736 331.646 52.103 327.06 55.6772L305.093 73.6745C299.445 78.299 298.456 86.5581 302.855 92.3867L318.63 113.298L328.209 105.144L320.099 86.8605L338.976 72.9762L358.793 44.5532H358.788Z" fill="#FCB01A"/>
<path d="M338.971 72.9756L345.019 67.5703C345.959 72.5852 343.188 82.0485 338.239 85.8097L338.971 72.9811V72.9756Z" fill="#1B1B43"/>
<path d="M346.785 129.145L345.822 128.617C354.12 113.496 361.224 88.471 358.425 66.597L352.069 58.3709L357.733 47.6099L358.706 48.1212L353.372 58.2554L359.481 66.1571L359.503 66.3056C362.384 88.46 355.198 113.831 346.79 129.145H346.785Z" fill="#1B1B43"/>
<path d="M362.385 39.8449L362.291 44.1504L358.783 44.5518C365.646 49.9681 372.266 50.8919 378.463 45.4811L374.889 45.1127L374.521 37.0021L361.873 35.9463L362.379 39.8394L362.385 39.8449Z" fill="#FFBC96"/>
<path d="M365.732 38.7451C367.498 42.5832 370.725 45.6625 374.899 45.1621L374.706 40.2958L365.738 38.7506L365.732 38.7451Z" fill="#1B1B43"/>
<path d="M377.418 30.5906C378.517 35.9079 379.111 41.907 375.037 42.2755C371.369 42.6054 362.895 40.5324 363.033 32.3557C363.104 28.1932 366.03 25.1029 369.697 24.817C375.037 24.4046 376.576 26.5161 377.418 30.5906Z" fill="#FFBC96"/>
<path d="M379.842 32.4217C380.518 33.3675 379.061 34.8027 377.687 35.1711C376.686 35.4405 375.806 33.9064 375.806 32.7407C375.806 31.5749 375.729 29.8098 376.768 29.8538C377.824 29.8978 378.924 31.135 379.837 32.4217H379.842Z" fill="#FFBC96"/>
<path d="M366.877 35.3524C364.32 35.6658 362.868 37.211 362.384 39.8449C356.517 35.2259 354.625 30.486 360.735 25.5042C360.735 25.5042 362.065 15.6999 372.832 19.2246C376.087 20.4618 377.462 21.974 381.536 20.7808C379.568 28.8914 374.454 29.6997 368.433 27.6981C367.036 29.2213 366.8 30.9699 367.377 32.878L366.871 35.3524H366.877Z" fill="#1B1B43"/>
<path d="M368.207 35.3087C367.41 36.106 365.958 35.9465 364.968 34.9513C363.973 33.956 363.814 32.5098 364.611 31.7125C365.408 30.9152 366.86 31.0747 367.85 32.0699C368.845 33.0652 369.004 34.5114 368.207 35.3087Z" fill="#FFBC96"/>
<path d="M478.484 7.28724C479.491 11.6972 478.869 15.6014 477.093 16.0083C475.317 16.4152 473.057 13.1654 472.051 8.75543C471.045 4.34544 471.666 0.441309 473.442 0.0344026C475.218 -0.372504 477.478 2.87725 478.484 7.28724Z" fill="#1B1B43"/>
<path d="M411.613 28.3038L393.226 31.735L392.258 26.7861L409.854 21.0015L411.613 28.3038Z" fill="#1B1B43"/>
</svg>
