<svg width="60" height="60" viewBox="0 0 60 60" fill="none" xmlns="http://www.w3.org/2000/svg">
<g clip-path="url(#clip0_565_2863)">
<path d="M45.4826 19.4919C45.3729 19.4916 45.2663 19.4551 45.1794 19.3881C45.0924 19.3212 45.0299 19.2275 45.0014 19.1215C44.973 19.0155 44.9802 18.9031 45.022 18.8016C45.0638 18.7001 45.1378 18.6152 45.2326 18.5599L48.7196 16.5469C48.8339 16.4872 48.9669 16.4739 49.0907 16.5098C49.2146 16.5457 49.3197 16.6281 49.3843 16.7398C49.4488 16.8514 49.4677 16.9837 49.437 17.1089C49.4064 17.2342 49.3285 17.3428 49.2196 17.4119L45.7326 19.4249C45.6567 19.4691 45.5704 19.4922 45.4826 19.4919Z" fill="#FCB01A"/>
<path d="M43.1171 23.0601C43.0262 23.0601 42.937 23.0354 42.859 22.9886C42.7811 22.9417 42.7175 22.8746 42.6749 22.7942C42.6323 22.7139 42.6124 22.6235 42.6174 22.5327C42.6224 22.4419 42.652 22.3542 42.7031 22.2791L43.3411 21.3361L42.2141 21.9861C42.1052 22.0497 41.9762 22.0698 41.8531 22.0423C41.73 22.0149 41.6218 21.9419 41.5502 21.8381C41.4786 21.7343 41.4489 21.6072 41.4671 21.4824C41.4852 21.3576 41.5499 21.2442 41.6481 21.1651L43.7481 19.4651L41.0831 21.0001C40.9721 21.0637 40.841 21.0825 40.7166 21.0524C40.5923 21.0223 40.4842 20.9457 40.4146 20.8383C40.345 20.7309 40.3193 20.601 40.3426 20.4752C40.3659 20.3494 40.4366 20.2373 40.5401 20.1621L40.7401 20.0201L40.2731 20.2901C40.1634 20.3527 40.034 20.3714 39.911 20.3426C39.7881 20.3137 39.6806 20.2394 39.6101 20.1345C39.5397 20.0297 39.5116 19.902 39.5314 19.7773C39.5513 19.6525 39.6176 19.5399 39.7171 19.4621L42.7591 17.1141L38.7921 19.4001C38.6809 19.4611 38.5506 19.4777 38.4276 19.4462C38.3047 19.4148 38.1982 19.3378 38.13 19.2309C38.0617 19.1239 38.0366 18.995 38.0598 18.8703C38.0831 18.7455 38.1529 18.6343 38.2551 18.5591L39.3051 17.8231L36.5721 19.4001C36.4604 19.4607 36.3297 19.4766 36.2068 19.4444C36.0838 19.4122 35.9777 19.3344 35.9101 19.2267C35.8424 19.1191 35.8183 18.9897 35.8427 18.865C35.867 18.7402 35.9379 18.6294 36.0411 18.5551L37.5341 17.5381L34.3081 19.4001C34.1965 19.4641 34.0645 19.4827 33.9395 19.4519C33.8146 19.421 33.7063 19.3433 33.6373 19.2347C33.5682 19.1261 33.5437 18.995 33.5688 18.8688C33.5939 18.7426 33.6667 18.6309 33.7721 18.5571L38.7431 15.1101L31.3121 19.4001C31.2 19.4598 31.0695 19.4748 30.9468 19.4418C30.8242 19.4088 30.7187 19.3304 30.6518 19.2225C30.5848 19.1146 30.5615 18.9852 30.5864 18.8607C30.6114 18.7362 30.6827 18.6259 30.7861 18.5521L35.4181 15.4751L29.7791 18.7291C29.667 18.7903 29.5357 18.8062 29.4121 18.7737C29.2886 18.7412 29.1822 18.6626 29.1148 18.5541C29.0474 18.4456 29.024 18.3154 29.0496 18.1903C29.0751 18.0651 29.1476 17.9545 29.2521 17.8811L35.3001 13.8541L29.2801 17.3251C29.168 17.3871 29.0365 17.4038 28.9125 17.3717C28.7885 17.3396 28.6816 17.2612 28.6137 17.1525C28.5459 17.0439 28.5223 16.9134 28.5479 16.7879C28.5734 16.6624 28.6462 16.5515 28.7511 16.4781L33.9281 13.0131L29.2791 15.7001C29.1678 15.7626 29.0368 15.7802 28.9129 15.7492C28.7891 15.7183 28.6818 15.6411 28.613 15.5336C28.5442 15.426 28.5191 15.2963 28.543 15.1709C28.5668 15.0454 28.6377 14.9339 28.7411 14.8591L34.3001 10.9261L29.6411 13.6151C29.5305 13.6784 29.3999 13.6971 29.276 13.6674C29.152 13.6377 29.0441 13.5618 28.9743 13.4552C28.9045 13.3486 28.878 13.2193 28.9002 13.0939C28.9225 12.9684 28.9918 12.8561 29.0941 12.7801L33.0001 9.90005L30.0471 11.6001C29.9388 11.6621 29.8112 11.6814 29.6894 11.6542C29.5676 11.627 29.4604 11.5552 29.3888 11.4529C29.3172 11.3506 29.2865 11.2253 29.3027 11.1015C29.3188 10.9778 29.3807 10.8645 29.4761 10.7841L32.4101 8.32505L30.4791 9.43905C30.3709 9.49987 30.2441 9.51831 30.1231 9.49079C30.0021 9.46327 29.8957 9.39176 29.8245 9.29015C29.7533 9.18853 29.7224 9.06409 29.7379 8.94098C29.7533 8.81788 29.814 8.70492 29.9081 8.62405L30.5301 8.10005C30.4046 8.09782 30.2832 8.05502 30.1841 7.97805C30.1055 7.91037 30.0499 7.81991 30.025 7.71922C30.0001 7.61852 30.0071 7.51257 30.0451 7.41605L30.6921 5.77705C30.6233 5.73396 30.5663 5.67452 30.5261 5.60405C30.4601 5.4893 30.4423 5.35307 30.4766 5.22523C30.5109 5.09738 30.5945 4.98835 30.7091 4.92205L31.2741 4.59605C31.3639 4.54431 31.4675 4.52176 31.5707 4.53152C31.6739 4.54127 31.7715 4.58285 31.85 4.65049C31.9285 4.71814 31.9841 4.80852 32.009 4.90912C32.0339 5.00972 32.027 5.11558 31.9891 5.21205L31.5001 6.45205L34.7151 4.60005C34.8232 4.53923 34.9501 4.52079 35.0711 4.54831C35.1921 4.57583 35.2985 4.64735 35.3697 4.74896C35.4409 4.85057 35.4717 4.97502 35.4563 5.09812C35.4408 5.22122 35.3802 5.33418 35.2861 5.41505L34.9181 5.72505L36.8671 4.60005C36.9752 4.53923 37.1021 4.52079 37.2231 4.54831C37.3441 4.57583 37.4505 4.64735 37.5217 4.74896C37.5929 4.85057 37.6237 4.97502 37.6083 5.09812C37.5928 5.22122 37.5322 5.33418 37.4381 5.41505L34.5051 7.87405L40.1801 4.60005C40.2907 4.53671 40.4213 4.51798 40.5452 4.54769C40.6691 4.57741 40.777 4.65332 40.8469 4.75992C40.9167 4.86653 40.9432 4.99577 40.9209 5.12125C40.8987 5.24673 40.8293 5.35898 40.7271 5.43505L36.8271 8.31805L43.2651 4.60005C43.3762 4.53949 43.5061 4.52328 43.6286 4.5547C43.7512 4.58612 43.8572 4.66283 43.9255 4.76937C43.9937 4.8759 44.019 5.00435 43.9963 5.12881C43.9736 5.25326 43.9046 5.36449 43.8031 5.44005L38.2421 9.36705L46.5001 4.60005C46.6123 4.53715 46.7444 4.51992 46.869 4.55192C46.9936 4.58393 47.101 4.66272 47.169 4.77192C47.237 4.88111 47.2603 5.01231 47.2341 5.13823C47.2078 5.26415 47.134 5.37512 47.0281 5.44805L41.8511 8.91305L48.2001 5.24705C48.3125 5.18313 48.4452 5.16522 48.5705 5.19709C48.6958 5.22896 48.8039 5.30812 48.8721 5.41797C48.9403 5.52782 48.9633 5.6598 48.9362 5.78623C48.9092 5.91266 48.8342 6.0237 48.7271 6.09605L42.6871 10.1241L48.7201 6.64305C48.8321 6.58327 48.9627 6.56835 49.0853 6.60133C49.208 6.6343 49.3134 6.7127 49.3804 6.82062C49.4473 6.92853 49.4707 7.05787 49.4457 7.18238C49.4208 7.30689 49.3494 7.41725 49.2461 7.49105L44.6091 10.5721L48.7201 8.20005C48.8319 8.13501 48.9645 8.1158 49.0901 8.14647C49.2158 8.17713 49.3246 8.25529 49.3939 8.36451C49.4631 8.47374 49.4873 8.60555 49.4614 8.73226C49.4356 8.85897 49.3616 8.97072 49.2551 9.04405L44.2871 12.4871L48.7201 9.92805C48.8318 9.86737 48.9624 9.85151 49.0854 9.88371C49.2084 9.9159 49.3145 9.99374 49.3821 10.1014C49.4498 10.209 49.4739 10.3384 49.4495 10.4631C49.4252 10.5879 49.3542 10.6987 49.2511 10.7731L47.7571 11.7911L48.7201 11.2351C48.8315 11.1718 48.963 11.1538 49.0874 11.1847C49.2117 11.2156 49.3195 11.293 49.3884 11.4011C49.4573 11.5091 49.4821 11.6395 49.4576 11.7653C49.4332 11.8911 49.3614 12.0027 49.2571 12.0771L48.2091 12.8121L48.7201 12.5171C48.8297 12.4556 48.9585 12.4378 49.0808 12.467C49.203 12.4963 49.3097 12.5705 49.3797 12.6749C49.4497 12.7793 49.4778 12.9063 49.4584 13.0304C49.439 13.1546 49.3736 13.2669 49.2751 13.3451L46.2331 15.6921L48.7201 14.2581C48.831 14.1944 48.9622 14.1756 49.0866 14.2057C49.2109 14.2358 49.319 14.3124 49.3886 14.4198C49.4581 14.5272 49.4839 14.6571 49.4606 14.7829C49.4372 14.9087 49.3665 15.0208 49.2631 15.0961L48.8681 15.3801C48.9781 15.3566 49.0928 15.371 49.1937 15.4209C49.2945 15.4707 49.3756 15.5532 49.4239 15.6548C49.4721 15.7564 49.4846 15.8714 49.4594 15.981C49.4343 16.0907 49.3728 16.1886 49.2851 16.2591L45.3271 19.4691L45.3361 19.4781C45.4132 19.5609 45.4599 19.6674 45.4686 19.7802C45.4773 19.893 45.4475 20.0054 45.3841 20.0991L44.7461 21.0421C44.8623 20.9839 44.9967 20.9733 45.1206 21.0126C45.2445 21.0518 45.3483 21.1377 45.4099 21.2521C45.4715 21.3666 45.4862 21.5005 45.4508 21.6256C45.4153 21.7506 45.3326 21.857 45.2201 21.9221L43.3671 22.9921C43.2914 23.0367 43.205 23.0602 43.1171 23.0601Z" fill="#FCB01A"/>
<path d="M21.4814 15.4751C21.3714 15.4751 21.2644 15.4387 21.1771 15.3717C21.0897 15.3047 21.027 15.2108 20.9985 15.1045C20.97 14.9982 20.9774 14.8854 21.0195 14.7837C21.0616 14.6821 21.1361 14.5971 21.2314 14.5421L30.7204 9.06307C30.8293 9.00064 30.9577 8.98144 31.0801 9.00929C31.2024 9.03713 31.3099 9.10998 31.381 9.21337C31.4522 9.31676 31.4818 9.44313 31.4641 9.56738C31.4464 9.69163 31.3826 9.80467 31.2854 9.88407L29.4204 11.4001L30.7204 10.6501C30.8278 10.5878 30.9545 10.5677 31.0759 10.5937C31.1973 10.6197 31.3047 10.6899 31.3771 10.7907C31.4496 10.8915 31.482 11.0157 31.468 11.139C31.454 11.2624 31.3946 11.3761 31.3014 11.4581L30.6614 12.0211L30.7204 11.9871C30.8206 11.9292 30.9377 11.9079 31.0518 11.9267C31.1659 11.9455 31.2699 12.0033 31.3462 12.0902C31.4225 12.1771 31.4663 12.2878 31.4702 12.4033C31.474 12.5189 31.4377 12.6323 31.3674 12.7241L30.7674 13.5161C30.8406 13.5274 30.9103 13.5551 30.9713 13.5972C31.0322 13.6393 31.0829 13.6946 31.1194 13.7591C31.1855 13.8737 31.2034 14.0098 31.1693 14.1377C31.1352 14.2655 31.0518 14.3746 30.9374 14.4411L29.2794 15.3981C29.1794 15.456 29.0623 15.4774 28.9483 15.4588C28.8342 15.4401 28.7301 15.3825 28.6537 15.2957C28.5773 15.209 28.5333 15.0984 28.5293 14.9829C28.5252 14.8673 28.5613 14.754 28.6314 14.6621L29.0604 14.1031L26.8004 15.4001C26.6932 15.4603 26.5675 15.4789 26.4475 15.4523C26.3274 15.4257 26.2213 15.3558 26.1495 15.2559C26.0778 15.1561 26.0453 15.0333 26.0584 14.911C26.0715 14.7887 26.1291 14.6755 26.2204 14.5931L26.8564 14.0331L24.4824 15.4031C24.3737 15.4652 24.2456 15.4842 24.1234 15.4564C24.0013 15.4286 23.8941 15.356 23.823 15.2529C23.7518 15.1499 23.7219 15.0238 23.7392 14.8998C23.7566 14.7758 23.8198 14.6627 23.9164 14.5831L25.7844 13.0641L21.7294 15.4051C21.6543 15.4497 21.5688 15.4738 21.4814 15.4751Z" fill="#F7D97C"/>
<path d="M15.578 19.344C15.4708 19.3441 15.3665 19.3097 15.2803 19.2459C15.1942 19.1821 15.1308 19.0924 15.0996 18.9899C15.0683 18.8874 15.0708 18.7775 15.1067 18.6765C15.1426 18.5756 15.21 18.4888 15.299 18.429L18.252 16.449L15.278 18.166C15.1655 18.2329 15.0313 18.2529 14.9042 18.2219C14.777 18.1909 14.6671 18.1113 14.598 18.0002C14.5289 17.8891 14.5061 17.7553 14.5345 17.6276C14.563 17.4999 14.6403 17.3884 14.75 17.317L17.984 15.157L15.264 16.728C15.1512 16.7956 15.0163 16.816 14.8886 16.7848C14.7609 16.7537 14.6506 16.6735 14.5815 16.5616C14.5125 16.4497 14.4903 16.3151 14.5198 16.187C14.5493 16.0589 14.628 15.9475 14.739 15.877L16.292 14.856L15.25 15.456C15.1388 15.5179 15.0083 15.5351 14.8849 15.5042C14.7615 15.4732 14.6546 15.3963 14.5859 15.2892C14.5172 15.1822 14.4919 15.0529 14.5151 14.9279C14.5383 14.8028 14.6084 14.6913 14.711 14.616L22.068 9.38403L12.195 15.084C12.0825 15.1509 11.9483 15.1709 11.8212 15.1399C11.694 15.1089 11.5841 15.0293 11.515 14.9182C11.4459 14.8071 11.4231 14.6733 11.4515 14.5456C11.48 14.4179 11.5573 14.3064 11.667 14.235L17.594 10.283L11.341 13.893C11.2276 13.9619 11.0915 13.9828 10.9627 13.9513C10.8338 13.9198 10.7228 13.8384 10.654 13.725C10.5851 13.6117 10.5642 13.4756 10.5957 13.3467C10.6272 13.2179 10.7086 13.1069 10.822 13.038L11.177 12.812C11.0717 12.8445 10.9587 12.8413 10.8555 12.803C10.7522 12.7647 10.6645 12.6933 10.606 12.6C10.5372 12.4905 10.5136 12.3585 10.5401 12.2319C10.5665 12.1053 10.6411 11.9939 10.748 11.921L16.348 8.10303L11.28 11.026C11.169 11.0897 11.0378 11.1084 10.9135 11.0783C10.7891 11.0483 10.6811 10.9716 10.6115 10.8643C10.5419 10.7569 10.5161 10.6269 10.5395 10.5011C10.5628 10.3754 10.6335 10.2633 10.737 10.188L16.042 6.35503L11.28 9.10003C11.17 9.16224 11.0406 9.18053 10.9178 9.15123C10.7949 9.12194 10.6877 9.04722 10.6176 8.9421C10.5476 8.83698 10.5199 8.70926 10.5402 8.58458C10.5605 8.45991 10.6272 8.34753 10.727 8.27003L14.519 5.38203L11.28 7.25603C11.1729 7.31774 11.0468 7.33763 10.926 7.31186C10.8051 7.28608 10.6981 7.21648 10.6255 7.11646C10.553 7.01645 10.52 6.89311 10.533 6.77023C10.546 6.64735 10.6041 6.53365 10.696 6.45103L13.587 3.85103L11.28 5.18503C11.1723 5.24772 11.0452 5.26798 10.9234 5.24185C10.8016 5.21571 10.694 5.14507 10.6216 5.04374C10.5491 4.94241 10.5171 4.8177 10.5318 4.69401C10.5465 4.57033 10.6068 4.45658 10.701 4.37503L11.153 3.98103C11.0519 4.00653 10.9454 3.99978 10.8483 3.96175C10.7512 3.92372 10.6685 3.85629 10.6116 3.76891C10.5548 3.68153 10.5266 3.57856 10.5312 3.47441C10.5357 3.37025 10.5727 3.27013 10.637 3.18803L11.2 2.47603C11.1341 2.45974 11.0722 2.43036 11.0179 2.38964C10.9636 2.34893 10.9181 2.29771 10.884 2.23903C10.818 2.12428 10.8002 1.98805 10.8345 1.86021C10.8688 1.73236 10.9524 1.62334 11.067 1.55703L12.726 0.600033C12.8266 0.542568 12.944 0.521822 13.0582 0.541339C13.1724 0.560856 13.2763 0.619426 13.3521 0.707039C13.4279 0.794652 13.4709 0.90587 13.4738 1.02169C13.4767 1.13751 13.4393 1.25074 13.368 1.34203L13.038 1.76103L15.052 0.600033C15.1595 0.538543 15.2859 0.519127 15.4069 0.545546C15.5279 0.571964 15.6348 0.642336 15.7068 0.743035C15.7789 0.843734 15.8111 0.967595 15.797 1.09063C15.783 1.21367 15.7238 1.32713 15.631 1.40903L15.252 1.73903L17.227 0.600033C17.3333 0.542969 17.4567 0.526294 17.5744 0.553085C17.6921 0.579877 17.7961 0.648327 17.8672 0.745803C17.9384 0.84328 17.9719 0.963205 17.9615 1.08345C17.9512 1.20369 17.8977 1.31614 17.811 1.40003L14.919 4.00003L20.819 0.600033C20.9289 0.537828 21.0583 0.519537 21.1812 0.548834C21.304 0.578132 21.4113 0.652847 21.4813 0.757964C21.5513 0.863082 21.579 0.990812 21.5587 1.11549C21.5384 1.24016 21.4717 1.35254 21.372 1.43003L17.575 4.31503L24.017 0.600033C24.1279 0.53635 24.2591 0.517627 24.3834 0.547719C24.5078 0.57781 24.6159 0.654426 24.6855 0.761797C24.755 0.869168 24.7808 0.999124 24.7575 1.12492C24.7341 1.25071 24.6634 1.36277 24.56 1.43803L19.26 5.27003L27.345 0.600033C27.4568 0.537867 27.5881 0.520903 27.712 0.552633C27.8359 0.584362 27.943 0.66237 28.0111 0.770611C28.0793 0.878852 28.1033 1.00909 28.0784 1.13454C28.0534 1.25999 27.9814 1.37111 27.877 1.44503L22.288 5.25803L29.81 0.915033C29.9234 0.846209 30.0594 0.825244 30.1883 0.856751C30.3171 0.888257 30.4281 0.969653 30.497 1.08303C30.5658 1.19641 30.5868 1.33249 30.5553 1.46133C30.5237 1.59016 30.4424 1.70121 30.329 1.77003L30.202 1.85103L30.502 1.67603C30.6142 1.61313 30.7463 1.5959 30.8709 1.62791C30.9955 1.65991 31.1029 1.73871 31.1709 1.8479C31.2389 1.95709 31.2622 2.08829 31.2359 2.21421C31.2097 2.34014 31.1359 2.4511 31.03 2.52403L25.105 6.47703L30.72 3.23503C30.8312 3.1716 30.9625 3.15324 31.0868 3.18373C31.2112 3.21423 31.3191 3.29127 31.3883 3.39896C31.4575 3.50666 31.4828 3.6368 31.4589 3.76259C31.4351 3.88837 31.3639 4.0002 31.26 4.07503L23.9 9.30903L30.72 5.37203C30.8328 5.30449 30.9676 5.28408 31.0953 5.31524C31.2231 5.34639 31.3334 5.42659 31.4024 5.53847C31.4714 5.65036 31.4936 5.78493 31.4641 5.91305C31.4347 6.04117 31.3559 6.15254 31.245 6.22303L29.7 7.23703L30.719 6.64903C30.8315 6.58221 30.9657 6.56215 31.0928 6.59315C31.2199 6.62415 31.3298 6.70375 31.3989 6.81486C31.468 6.92597 31.4908 7.05974 31.4624 7.18746C31.434 7.31519 31.3567 7.42668 31.247 7.49803L28.012 9.66003L30.72 8.10003C30.832 8.03798 30.9636 8.02128 31.0876 8.05338C31.2115 8.08548 31.3185 8.16393 31.3863 8.27256C31.4542 8.38118 31.4777 8.5117 31.4522 8.63719C31.4266 8.76269 31.3539 8.87359 31.249 8.94703L18.956 17.182C18.9558 17.2696 18.9326 17.3556 18.8887 17.4315C18.8449 17.5073 18.7818 17.5702 18.706 17.614L15.827 19.276C15.7516 19.3206 15.6656 19.3441 15.578 19.344Z" fill="#F7D97C"/>
<path d="M38.6495 59.47C38.5602 59.4699 38.4725 59.4459 38.3956 59.4005C38.3187 59.3551 38.2553 59.2899 38.2121 59.2117C38.169 59.1335 38.1475 59.0452 38.15 58.9559C38.1526 58.8666 38.179 58.7796 38.2265 58.704L39.3695 56.882L35.5435 59.09C35.4464 59.1473 35.3326 59.1697 35.2211 59.1533C35.1095 59.1369 35.007 59.0828 34.9305 59C34.8533 58.9183 34.8059 58.813 34.7959 58.701C34.7859 58.5891 34.814 58.477 34.8755 58.383L36.0875 56.541L35.8645 56.669C35.7502 56.7288 35.6173 56.7421 35.4934 56.7061C35.3695 56.6702 35.2644 56.5878 35.1998 56.4762C35.1353 56.3645 35.1164 56.2322 35.1471 56.107C35.1778 55.9817 35.2556 55.8732 35.3645 55.804L37.4145 54.62C37.5119 54.5639 37.6254 54.5422 37.7366 54.5585C37.8478 54.5748 37.9503 54.6281 38.0275 54.7098C38.1047 54.7915 38.1521 54.8969 38.1621 55.0089C38.1721 55.1208 38.144 55.2329 38.0825 55.327L36.8705 57.169L40.6115 55.01C40.7083 54.9535 40.8213 54.9312 40.9323 54.9466C41.0433 54.962 41.1459 55.0143 41.2236 55.095C41.3014 55.1758 41.3497 55.2803 41.3609 55.3918C41.3722 55.5033 41.3456 55.6154 41.2855 55.71L40.1155 57.576C40.2319 57.5508 40.3534 57.568 40.4583 57.6244C40.5632 57.6809 40.6444 57.7729 40.6875 57.8839C40.7305 57.995 40.7325 58.1178 40.6931 58.2301C40.6537 58.3425 40.5755 58.4372 40.4725 58.497L38.9005 59.4C38.8247 59.4455 38.7379 59.4697 38.6495 59.47Z" fill="#F4C0A6"/>
<path d="M42.4863 59.4999C42.38 59.5 42.2765 59.4662 42.1907 59.4035C42.1049 59.3407 42.0413 59.2522 42.0092 59.1509C41.9771 59.0496 41.9782 58.9407 42.0122 58.84C42.0461 58.7393 42.1113 58.652 42.1983 58.5909L49.5983 53.3809L40.2803 58.7559C40.1767 58.816 40.055 58.837 39.9374 58.8149C39.8197 58.7929 39.7138 58.7294 39.639 58.6359C39.5641 58.5425 39.5253 58.4252 39.5296 58.3056C39.5339 58.1859 39.581 58.0718 39.6623 57.9839L41.4003 56.0999L40.2833 56.7439C40.1892 56.7981 40.0801 56.8201 39.9724 56.8068C39.8647 56.7935 39.7643 56.7455 39.6863 56.6701C39.6082 56.5947 39.5569 56.4959 39.5399 56.3887C39.523 56.2815 39.5413 56.1717 39.5923 56.0759L40.0593 55.1999C39.9518 55.194 39.849 55.1535 39.7664 55.0845C39.6837 55.0156 39.6255 54.9217 39.6005 54.817C39.5754 54.7123 39.5848 54.6023 39.6273 54.5034C39.6698 54.4044 39.7431 54.3218 39.8363 54.2679L41.0003 53.5999C41.0944 53.545 41.2039 53.5224 41.3121 53.5355C41.4203 53.5486 41.5212 53.5967 41.5995 53.6724C41.6779 53.7482 41.7293 53.8474 41.7461 53.9551C41.7628 54.0628 41.7439 54.173 41.6923 54.2689L41.2933 54.9999L43.7293 53.5999C43.8327 53.5398 43.9543 53.5188 44.0719 53.5407C44.1895 53.5626 44.2954 53.6259 44.3703 53.7192C44.4452 53.8125 44.4842 53.9296 44.4801 54.0492C44.4761 54.1687 44.4293 54.2829 44.3483 54.3709L42.6123 56.2579L58.7203 46.9579C58.8318 46.8928 58.9642 46.8733 59.0898 46.9036C59.2153 46.9339 59.3243 47.0116 59.3938 47.1204C59.4633 47.2293 59.4881 47.3608 59.4628 47.4874C59.4376 47.6141 59.3643 47.7261 59.2583 47.7999L51.8633 52.9999L58.7203 49.0419C58.8312 48.9772 58.9627 48.9577 59.0876 48.9873C59.2125 49.0169 59.3212 49.0934 59.3912 49.201C59.4613 49.3085 59.4873 49.4389 59.4638 49.5651C59.4404 49.6913 59.3693 49.8037 59.2653 49.8789L53.7743 53.8869L58.7203 51.0319C58.8292 50.9695 58.9575 50.9503 59.0799 50.9781C59.2023 51.006 59.3097 51.0788 59.3809 51.1822C59.452 51.2856 59.4817 51.412 59.464 51.5362C59.4463 51.6605 59.3825 51.7735 59.2853 51.8529L54.9253 55.3999L58.7253 53.2089C58.8318 53.143 58.9592 53.1195 59.0823 53.143C59.2053 53.1666 59.3151 53.2355 59.3897 53.3361C59.4644 53.4367 59.4986 53.5616 59.4856 53.6862C59.4725 53.8108 59.4132 53.926 59.3193 54.0089L56.7503 56.4549L58.7253 55.3159C58.8206 55.264 58.9301 55.2446 59.0375 55.2604C59.1448 55.2763 59.244 55.3266 59.3202 55.4039C59.3964 55.4811 59.4454 55.581 59.4599 55.6885C59.4743 55.796 59.4534 55.9053 59.4003 55.9999L58.4543 57.5699C58.57 57.5116 58.7038 57.5005 58.8275 57.5389C58.9512 57.5774 59.0551 57.6623 59.1175 57.7758C59.1798 57.8894 59.1957 58.0227 59.1617 58.1476C59.1277 58.2726 59.0465 58.3796 58.9353 58.4459L57.2763 59.4029C57.1804 59.4582 57.069 59.4802 56.9593 59.4654C56.8496 59.4505 56.748 59.3997 56.6703 59.3209C56.5926 59.2419 56.5434 59.1393 56.5303 59.0292C56.5173 58.9192 56.5412 58.8079 56.5983 58.7129L57.5433 57.1449L53.6143 59.4119C53.5077 59.4778 53.3803 59.5013 53.2573 59.4778C53.1342 59.4542 53.0245 59.3853 52.9498 59.2847C52.8751 59.1842 52.8409 59.0592 52.854 58.9346C52.867 58.81 52.9264 58.6948 53.0203 58.6119L55.5893 56.1659L49.9643 59.4129C49.8554 59.4765 49.7264 59.4966 49.6033 59.4692C49.4802 59.4418 49.372 59.3688 49.3004 59.265C49.2289 59.1611 49.1992 59.0341 49.2173 58.9092C49.2354 58.7844 49.3001 58.6711 49.3983 58.5919L53.7593 55.0539L46.1953 59.4199C46.0844 59.4846 45.9529 59.5041 45.828 59.4745C45.7031 59.4449 45.5944 59.3684 45.5243 59.2609C45.4543 59.1533 45.4283 59.0229 45.4517 58.8967C45.4752 58.7705 45.5463 58.6581 45.6503 58.5829L51.1373 54.5779L42.7373 59.4269C42.6617 59.4735 42.575 59.4987 42.4863 59.4999Z" fill="#CED3DB"/>
<path d="M46.03 53.3279C45.9238 53.3278 45.8204 53.2938 45.7348 53.231C45.6492 53.1682 45.5858 53.0797 45.5538 52.9784C45.5219 52.8772 45.523 52.7684 45.557 52.6677C45.591 52.5671 45.6562 52.48 45.743 52.4189L49.161 50.0189L46.28 51.6839C46.1677 51.749 46.0345 51.7679 45.9086 51.7365C45.7826 51.7052 45.6738 51.6261 45.6051 51.5159C45.5364 51.4058 45.5132 51.2733 45.5404 51.1464C45.5677 51.0195 45.6432 50.9081 45.751 50.8359L46.236 50.5099C46.1228 50.5509 45.9986 50.5497 45.8863 50.5064C45.7739 50.4632 45.6809 50.3809 45.6244 50.2746C45.5678 50.1683 45.5515 50.0452 45.5785 49.9279C45.6054 49.8106 45.6738 49.7069 45.771 49.6359L50.3 46.3119L46.623 48.4339C46.513 48.4989 46.3822 48.5194 46.2576 48.491C46.133 48.4627 46.024 48.3877 45.9529 48.2814C45.8819 48.1752 45.8542 48.0458 45.8756 47.9198C45.897 47.7938 45.9659 47.6807 46.068 47.6039L50.168 44.4569L47.44 46.0319C47.3357 46.0922 47.213 46.1127 47.0947 46.0897C46.9764 46.0668 46.8704 46.0018 46.7962 45.9069C46.7219 45.812 46.6845 45.6934 46.6907 45.5731C46.6969 45.4527 46.7464 45.3387 46.83 45.2519L48.036 44.0089C47.9693 43.9596 47.9159 43.8944 47.8806 43.8193C47.8454 43.7442 47.8293 43.6615 47.834 43.5787C47.8387 43.4959 47.8639 43.4155 47.9073 43.3448C47.9508 43.2742 48.0112 43.2154 48.083 43.1739L49.883 42.1359C49.9874 42.0764 50.1097 42.0564 50.2275 42.0796C50.3454 42.1029 50.451 42.1678 50.5249 42.2625C50.5988 42.3572 50.6362 42.4753 50.6302 42.5953C50.6241 42.7153 50.5751 42.8291 50.492 42.9159L50.049 43.3729L56.249 39.7939C56.3589 39.7308 56.4885 39.7118 56.6119 39.7407C56.7352 39.7696 56.843 39.8441 56.9134 39.9494C56.9839 40.0546 57.0118 40.1827 56.9915 40.3077C56.9712 40.4327 56.9042 40.5454 56.804 40.6229L52.704 43.7709L57.666 40.8999C57.7767 40.8359 57.9078 40.8168 58.0322 40.8465C58.1566 40.8762 58.2648 40.9524 58.3348 41.0594C58.4047 41.1665 58.4309 41.2963 58.4081 41.4221C58.3853 41.5479 58.3151 41.6602 58.212 41.7359L53.687 45.0599L58.238 42.4329C58.3501 42.369 58.4826 42.3509 58.6078 42.3825C58.7329 42.414 58.841 42.4927 58.9094 42.6021C58.9779 42.7115 59.0014 42.8431 58.9751 42.9694C58.9487 43.0958 58.8745 43.207 58.768 43.2799L58.388 43.5349L58.474 43.4859C58.5855 43.4227 58.7169 43.4046 58.8413 43.4355C58.9657 43.4664 59.0734 43.5439 59.1423 43.6519C59.2112 43.76 59.236 43.8903 59.2116 44.0161C59.1871 44.1419 59.1154 44.2535 59.011 44.3279L55.592 46.7279L58.658 44.9589C58.7149 44.9227 58.7786 44.8984 58.8451 44.8875C58.9117 44.8765 58.9797 44.8792 59.0452 44.8952C59.1107 44.9113 59.1723 44.9404 59.2262 44.9808C59.2802 45.0213 59.3254 45.0723 59.3591 45.1306C59.3929 45.189 59.4145 45.2536 59.4226 45.3206C59.4307 45.3875 59.4252 45.4554 59.4065 45.5202C59.3877 45.5849 59.356 45.6452 59.3133 45.6974C59.2706 45.7496 59.2178 45.7926 59.158 45.8239L46.28 53.2609C46.2042 53.3052 46.1178 53.3283 46.03 53.3279Z" fill="#CED3DB"/>
<path d="M49.6878 39.8699C49.5894 39.8697 49.4933 39.8405 49.4114 39.7859C49.3296 39.7313 49.2657 39.6538 49.2277 39.5631C49.1897 39.4724 49.1793 39.3724 49.1978 39.2758C49.2163 39.1792 49.2629 39.0902 49.3318 39.0199L51.6318 36.6839L49.2188 38.0759C49.1104 38.1383 48.9825 38.1577 48.8605 38.1304C48.7384 38.1032 48.631 38.0311 48.5595 37.9286C48.4879 37.826 48.4574 37.7003 48.4739 37.5764C48.4905 37.4524 48.5528 37.3392 48.6488 37.2589L50.2178 35.9589L46.7018 37.9879C46.5921 38.0505 46.4627 38.0693 46.3398 38.0405C46.2168 38.0116 46.1093 37.9373 46.0388 37.8324C45.9684 37.7275 45.9403 37.5999 45.9601 37.4752C45.98 37.3504 46.0463 37.2378 46.1458 37.1599L48.6078 35.2539L45.5598 37.0119C45.4504 37.0746 45.3214 37.0936 45.1986 37.0653C45.0759 37.0369 44.9683 36.9632 44.8975 36.8589C44.8267 36.7546 44.7979 36.6275 44.8169 36.5029C44.8359 36.3783 44.9012 36.2654 44.9998 36.1869L48.2928 33.5869L45.2868 35.3219C45.179 35.3831 45.0523 35.402 44.9313 35.375C44.8104 35.348 44.7037 35.2771 44.6321 35.1759C44.5605 35.0748 44.529 34.9507 44.5437 34.8276C44.5584 34.7045 44.6183 34.5913 44.7118 34.5099L48.6418 31.1429L43.8418 33.9139C43.7336 33.9748 43.6068 33.9932 43.4858 33.9657C43.3648 33.9382 43.2584 33.8666 43.1872 33.765C43.116 33.6634 43.0851 33.539 43.1006 33.4159C43.116 33.2928 43.1767 33.1798 43.2708 33.0989L47.4568 29.5789L44.2758 31.4149C44.1682 31.4766 44.0415 31.4961 43.9203 31.4696C43.7991 31.4431 43.6921 31.3725 43.6201 31.2716C43.5481 31.1706 43.5161 31.0465 43.5305 30.9233C43.5448 30.8001 43.6045 30.6866 43.6978 30.6049L45.4788 29.0599L43.8668 29.9889C43.7639 30.0477 43.6434 30.068 43.5269 30.0462C43.4104 30.0244 43.3054 29.962 43.2307 29.8699C43.1559 29.7779 43.1163 29.6624 43.1189 29.5438C43.1215 29.4253 43.1661 29.3116 43.2448 29.2229L44.3128 28.0339L44.0128 28.2079C43.9215 28.2605 43.8159 28.2829 43.711 28.2719C43.6062 28.2609 43.5076 28.217 43.4292 28.1466C43.3508 28.0762 43.2966 27.9828 43.2745 27.8798C43.2523 27.7768 43.2633 27.6694 43.3058 27.5729L43.6958 26.6909C43.658 26.6562 43.626 26.6157 43.6008 26.5709C43.5347 26.4563 43.5168 26.3202 43.5509 26.1923C43.585 26.0645 43.6684 25.9554 43.7828 25.8889L44.2828 25.5999C44.374 25.5476 44.4795 25.5253 44.5841 25.5363C44.6887 25.5474 44.7872 25.5911 44.8655 25.6613C44.9438 25.7316 44.998 25.8247 45.0203 25.9275C45.0426 26.0303 45.0319 26.1375 44.9898 26.2339L44.8398 26.5759L46.5398 25.5949C46.6427 25.5361 46.7632 25.5158 46.8797 25.5376C46.9962 25.5594 47.1012 25.6219 47.1759 25.7139C47.2506 25.8059 47.2902 25.9215 47.2876 26.04C47.2851 26.1585 47.2404 26.2723 47.1618 26.3609L46.0938 27.5499L49.4938 25.5889C49.6014 25.5272 49.7281 25.5078 49.8492 25.5342C49.9704 25.5607 50.0774 25.6313 50.1495 25.7323C50.2215 25.8332 50.2535 25.9574 50.2391 26.0806C50.2247 26.2038 50.1651 26.3172 50.0718 26.3989L48.2918 27.9449L51.8858 25.8699C51.9941 25.8079 52.1217 25.7885 52.2435 25.8158C52.3653 25.843 52.4725 25.9148 52.5441 26.0171C52.6156 26.1193 52.6464 26.2447 52.6302 26.3684C52.614 26.4922 52.5522 26.6055 52.4568 26.6859L48.2648 30.1999L52.8118 27.5749C52.9197 27.5126 53.0471 27.4928 53.1689 27.5195C53.2907 27.5462 53.3981 27.6174 53.4701 27.7192C53.5421 27.821 53.5734 27.946 53.558 28.0697C53.5426 28.1934 53.4815 28.3069 53.3868 28.3879L49.4578 31.7539L53.7408 29.2809C53.8502 29.217 53.9798 29.197 54.1033 29.2249C54.2269 29.2529 54.3353 29.3267 54.4065 29.4315C54.4778 29.5362 54.5066 29.6641 54.4872 29.7894C54.4677 29.9146 54.4014 30.0277 54.3018 30.1059L51.0018 32.7109L54.5018 30.6889C54.6116 30.6259 54.7413 30.6069 54.8646 30.6357C54.9879 30.6646 55.0957 30.7392 55.1662 30.8444C55.2366 30.9497 55.2645 31.0777 55.2442 31.2027C55.2239 31.3277 55.1569 31.4404 55.0568 31.5179L52.5968 33.4179L54.7968 32.1479C54.9053 32.0853 55.0334 32.0657 55.1557 32.0931C55.278 32.1204 55.3856 32.1926 55.4571 32.2955C55.5287 32.3984 55.559 32.5244 55.5421 32.6485C55.5252 32.7727 55.4622 32.886 55.3658 32.9659L53.7958 34.2659L54.3288 33.9589C54.4334 33.8993 54.5561 33.8794 54.6742 33.903C54.7924 33.9266 54.898 33.9921 54.9717 34.0873C55.0455 34.1826 55.0823 34.3013 55.0755 34.4215C55.0687 34.5418 55.0188 34.6556 54.9348 34.7419L52.6348 37.0759L54.1958 36.1759C54.2979 36.1176 54.4174 36.0971 54.5331 36.1181C54.6489 36.1391 54.7535 36.2002 54.8286 36.2908C54.9038 36.3813 54.9446 36.4954 54.9439 36.613C54.9431 36.7307 54.901 36.8443 54.8248 36.9339L53.9248 37.9759C53.9564 38.0075 53.9836 38.0431 54.0058 38.0819C54.0718 38.1967 54.0896 38.3329 54.0553 38.4608C54.0209 38.5886 53.9373 38.6976 53.8228 38.7639L52.6038 39.4639C52.5016 39.5223 52.3822 39.5428 52.2664 39.5218C52.1507 39.5008 52.046 39.4396 51.9709 39.3491C51.8958 39.2586 51.855 39.1445 51.8557 39.0268C51.8564 38.9092 51.8986 38.7956 51.9748 38.7059L52.1448 38.5059L49.9378 39.7999C49.8623 39.8454 49.7759 39.8695 49.6878 39.8699Z" fill="#F4C0A6"/>
<path d="M49.4697 44.078C49.3688 44.078 49.2703 44.0474 49.1871 43.9903C49.1039 43.9332 49.04 43.8523 49.0036 43.7582C48.9673 43.664 48.9602 43.5611 48.9835 43.4629C49.0067 43.3647 49.0591 43.2759 49.1337 43.208L52.3407 40.291L48.8547 42.3C48.756 42.357 48.6407 42.3786 48.528 42.361C48.4154 42.3435 48.312 42.288 48.2352 42.2038C48.1584 42.1195 48.1127 42.0115 48.1057 41.8977C48.0987 41.7839 48.1308 41.6711 48.1967 41.578L48.9307 40.544L48.7057 40.673C48.6488 40.7092 48.5852 40.7335 48.5187 40.7444C48.4521 40.7554 48.384 40.7527 48.3185 40.7367C48.253 40.7207 48.1915 40.6915 48.1375 40.6511C48.0836 40.6106 48.0384 40.5597 48.0046 40.5013C47.9709 40.4429 47.9493 40.3783 47.9411 40.3113C47.933 40.2444 47.9385 40.1765 47.9573 40.1117C47.9761 40.047 48.0078 39.9867 48.0505 39.9345C48.0932 39.8823 48.146 39.8393 48.2057 39.808L50.4057 38.536C50.5045 38.479 50.6198 38.4575 50.7325 38.475C50.8451 38.4925 50.9484 38.548 51.0252 38.6323C51.1021 38.7165 51.1477 38.8245 51.1547 38.9384C51.1617 39.0522 51.1296 39.165 51.0637 39.258L50.3347 40.3L55.8637 37.1C55.9701 37.0415 56.0942 37.0237 56.2128 37.0499C56.3314 37.0761 56.4364 37.1446 56.5081 37.2426C56.5799 37.3406 56.6135 37.4613 56.6028 37.5823C56.5921 37.7033 56.5377 37.8162 56.4497 37.9L53.2427 40.817L56.7127 38.817C56.8275 38.7518 56.9635 38.7345 57.0909 38.7691C57.2183 38.8037 57.3269 38.8873 57.3929 39.0017C57.4589 39.116 57.477 39.2518 57.4433 39.3795C57.4095 39.5071 57.3266 39.6162 57.2127 39.683L49.7197 44.011C49.6439 44.0554 49.5576 44.0785 49.4697 44.078Z" fill="#E6E9ED"/>
<path d="M21.3 59.4851C21.2031 59.4852 21.1083 59.4572 21.027 59.4044C20.9458 59.3517 20.8816 59.2764 20.8423 59.1879C20.803 59.0993 20.7902 59.0013 20.8056 58.9056C20.821 58.8099 20.8639 58.7208 20.929 58.6491L21.579 57.9341L20.118 58.7761C20.0147 58.8373 19.8925 58.8588 19.7744 58.8363C19.6564 58.8138 19.5506 58.749 19.477 58.6541C19.4016 58.5605 19.3624 58.4429 19.3667 58.3228C19.3709 58.2027 19.4182 58.0881 19.5 58.0001L20.177 57.2781L19.796 57.4981C19.7202 57.5419 19.6341 57.565 19.5465 57.5651C19.4589 57.5651 19.3728 57.5422 19.2969 57.4986C19.2209 57.4549 19.1578 57.3921 19.1138 57.3164C19.0697 57.2406 19.0464 57.1547 19.046 57.0671L19.04 55.7761C18.936 55.7634 18.8385 55.7183 18.7615 55.6472C18.6845 55.5761 18.6317 55.4826 18.6107 55.3799C18.5897 55.2772 18.6015 55.1705 18.6445 55.0749C18.6874 54.9793 18.7593 54.8996 18.85 54.8471L19.287 54.5951C19.3629 54.5513 19.4489 54.5282 19.5365 54.5281C19.6241 54.528 19.7102 54.5509 19.7861 54.5946C19.8621 54.6382 19.9252 54.701 19.9693 54.7768C20.0133 54.8525 20.0367 54.9385 20.037 55.0261V56.2011L22.597 54.7241C22.7008 54.6646 22.8224 54.6444 22.9398 54.6669C23.0572 54.6894 23.1626 54.7533 23.237 54.8469C23.3114 54.9405 23.3498 55.0576 23.3452 55.1771C23.3406 55.2966 23.2933 55.4104 23.212 55.4981L22.534 56.2211L23.843 55.4661C23.9461 55.4073 24.0668 55.3871 24.1834 55.4092C24.3001 55.4312 24.405 55.4941 24.4796 55.5864C24.5542 55.6788 24.5934 55.7946 24.5904 55.9133C24.5874 56.0319 24.5422 56.1456 24.463 56.2341L23.813 56.9501L24.525 56.5401C24.6185 56.4865 24.7267 56.4646 24.8336 56.4775C24.9406 56.4904 25.0405 56.5375 25.1184 56.6118C25.1964 56.6861 25.2484 56.7836 25.2665 56.8898C25.2846 56.9959 25.268 57.1051 25.219 57.2011L24.912 57.8011C25.0216 57.8019 25.1279 57.8387 25.2145 57.9058C25.3011 57.9729 25.3633 58.0666 25.3915 58.1725C25.4197 58.2784 25.4123 58.3906 25.3704 58.4919C25.3286 58.5932 25.2547 58.6779 25.16 58.7331L24 59.4001C23.9066 59.4536 23.7983 59.4756 23.6914 59.4626C23.5845 59.4497 23.4846 59.4026 23.4066 59.3283C23.3286 59.254 23.2767 59.1565 23.2586 59.0504C23.2404 58.9442 23.2571 58.835 23.306 58.7391L23.555 58.2541L21.544 59.4141C21.4704 59.4589 21.3862 59.4834 21.3 59.4851Z" fill="#F4C0A6"/>
<path d="M6.54304 59.4699C6.4381 59.4699 6.33582 59.4369 6.25069 59.3755C6.16555 59.3141 6.10189 59.2275 6.0687 59.128C6.03551 59.0284 6.03449 58.921 6.06578 58.8208C6.09707 58.7206 6.15909 58.6328 6.24304 58.5699L6.66304 58.2589L4.68004 59.3999C4.56993 59.4639 4.43951 59.4835 4.31542 59.4547C4.19134 59.4259 4.08294 59.3507 4.01236 59.2447C3.94179 59.1386 3.91435 59.0096 3.93567 58.884C3.95698 58.7584 4.02543 58.6457 4.12704 58.5689L7.37404 56.0999L2.20004 59.0909C2.08883 59.1543 1.95753 59.1727 1.83319 59.1422C1.70885 59.1117 1.60094 59.0346 1.53171 58.9269C1.46248 58.8193 1.43719 58.6891 1.46107 58.5633C1.48494 58.4375 1.55616 58.3257 1.66004 58.2509L5.05004 55.8389L1.36004 57.9699C1.24931 58.0338 1.11829 58.053 0.9939 58.0233C0.869513 57.9936 0.761224 57.9174 0.691299 57.8103C0.621373 57.7033 0.595127 57.5735 0.617958 57.4477C0.640788 57.3218 0.710959 57.2096 0.814041 57.1339L5.97504 53.3539L1.28004 56.0639C1.16849 56.124 1.03828 56.1395 0.915735 56.1073C0.793186 56.0751 0.68744 55.9975 0.619872 55.8903C0.552304 55.7831 0.527955 55.6543 0.551747 55.5298C0.57554 55.4054 0.645699 55.2946 0.748041 55.2199L2.36304 54.1129L1.28004 54.7379C1.16834 54.7986 1.03771 54.8144 0.91473 54.7822C0.79175 54.75 0.685652 54.6722 0.618013 54.5646C0.550374 54.4569 0.526274 54.3276 0.550614 54.2028C0.574954 54.078 0.645907 53.9672 0.749041 53.8929L1.58304 53.3239L1.28304 53.4989C1.17143 53.5629 1.03942 53.5815 0.914479 53.5507C0.789536 53.5199 0.681281 53.4421 0.612235 53.3335C0.543189 53.2249 0.51867 53.0939 0.543779 52.9677C0.568888 52.8414 0.641691 52.7298 0.747041 52.6559L2.64704 51.3339L1.28704 52.1189C1.17655 52.1832 1.04563 52.2027 0.92119 52.1735C0.796746 52.1442 0.688231 52.0684 0.617944 51.9616C0.547656 51.8549 0.520935 51.7252 0.543272 51.5993C0.565608 51.4735 0.635306 51.3609 0.738041 51.2849L4.59404 48.4129L1.28004 50.3209C1.17029 50.3848 1.04032 50.4046 0.916513 50.3762C0.792708 50.3478 0.684355 50.2733 0.613457 50.1679C0.542558 50.0626 0.514429 49.9341 0.534782 49.8087C0.555136 49.6834 0.622445 49.5704 0.723041 49.4929L4.16704 46.8219L1.28004 48.4879C1.16946 48.5512 1.03886 48.5699 0.914936 48.5402C0.791009 48.5105 0.683105 48.4346 0.613271 48.328C0.543437 48.2214 0.516944 48.0922 0.539205 47.9667C0.561465 47.8412 0.6308 47.729 0.733041 47.6529L1.44904 47.1249L1.28404 47.2199C1.17767 47.2777 1.05393 47.2949 0.935814 47.2684C0.817693 47.2419 0.713207 47.1734 0.641748 47.0757C0.570289 46.9779 0.536712 46.8576 0.547248 46.737C0.557785 46.6164 0.61172 46.5037 0.699041 46.4199L3.05604 44.2929L1.40004 45.2439C1.29363 45.3024 1.16956 45.3202 1.05098 45.294C0.932397 45.2678 0.827422 45.1992 0.755655 45.1013C0.683887 45.0033 0.650234 44.8825 0.660978 44.7616C0.671722 44.6406 0.72613 44.5277 0.814041 44.4439L1.61404 43.7179C1.51651 43.7618 1.40747 43.7732 1.30294 43.7506C1.19842 43.7279 1.10391 43.6723 1.03331 43.592C0.962705 43.5116 0.919723 43.4108 0.910675 43.3042C0.901628 43.1976 0.926991 43.091 0.983041 42.9999L2.19504 41.0099C2.14726 40.9714 2.10721 40.9243 2.07704 40.8709C2.01106 40.7561 1.99327 40.6199 2.02757 40.492C2.06188 40.3642 2.14548 40.2552 2.26004 40.1889L3.04404 39.7349C3.14022 39.6794 3.25214 39.6575 3.36214 39.6726C3.47214 39.6878 3.57397 39.7391 3.65156 39.8186C3.72915 39.898 3.7781 40.001 3.79068 40.1113C3.80326 40.2216 3.77876 40.333 3.72104 40.4279L2.85604 41.8479L5.16604 40.5149C5.27245 40.4563 5.39653 40.4385 5.51511 40.4648C5.63369 40.491 5.73866 40.5595 5.81043 40.6575C5.8822 40.7555 5.91585 40.8762 5.90511 40.9972C5.89436 41.1182 5.83995 41.2311 5.75204 41.3149L4.95904 42.0339L6.65104 41.0579C6.75742 41.0001 6.88115 40.9828 6.99927 41.0094C7.11739 41.0359 7.22188 41.1044 7.29333 41.2021C7.36479 41.2998 7.39837 41.4201 7.38783 41.5407C7.3773 41.6613 7.32336 41.774 7.23604 41.8579L4.87904 43.9899L8.67104 41.7999C8.78162 41.7365 8.91222 41.7178 9.03615 41.7475C9.16007 41.7772 9.26798 41.8531 9.33781 41.9597C9.40765 42.0664 9.43414 42.1956 9.41188 42.3211C9.38962 42.4466 9.32028 42.5588 9.21804 42.6349L8.50204 43.1629L10.012 42.2919C10.1217 42.2293 10.2511 42.2105 10.3741 42.2393C10.4971 42.2682 10.6046 42.3425 10.675 42.4474C10.7454 42.5523 10.7735 42.6799 10.7537 42.8047C10.7338 42.9294 10.6675 43.042 10.568 43.1199L7.12204 45.7999L11.492 43.2769C11.6025 43.2126 11.7334 43.1931 11.8579 43.2223C11.9823 43.2515 12.0909 43.3273 12.1611 43.4341C12.2314 43.5409 12.2581 43.6705 12.2358 43.7964C12.2135 43.9223 12.1438 44.0348 12.041 44.1109L8.19004 46.9759L12.29 44.6059C12.4017 44.5418 12.5337 44.5233 12.6586 44.5541C12.7835 44.5849 12.8918 44.6627 12.9608 44.7713C13.0299 44.8799 13.0544 45.0109 13.0293 45.1371C13.0042 45.2633 12.9314 45.375 12.826 45.4489L10.926 46.7709L12.792 45.6999C12.904 45.6369 13.0359 45.6195 13.1603 45.6511C13.2848 45.6828 13.3923 45.7611 13.4606 45.8699C13.5289 45.9787 13.5527 46.1095 13.5271 46.2354C13.5015 46.3613 13.4284 46.4724 13.323 46.5459L12.481 47.1189L13.152 46.7319C13.2638 46.6697 13.3952 46.6527 13.5191 46.6845C13.643 46.7162 13.75 46.7942 13.8182 46.9025C13.8863 47.0107 13.9104 47.1409 13.8854 47.2664C13.8605 47.3918 13.7884 47.503 13.684 47.5769L12.069 48.6829L13.444 47.8899C13.5548 47.8259 13.6858 47.8068 13.8102 47.8365C13.9346 47.8661 14.0429 47.9423 14.1128 48.0494C14.1827 48.1565 14.209 48.2863 14.1861 48.4121C14.1633 48.5379 14.0931 48.6502 13.99 48.7259L8.83304 52.4999L13.69 49.6999C13.8012 49.6364 13.9326 49.6181 14.0569 49.6486C14.1812 49.6791 14.2891 49.7561 14.3584 49.8638C14.4276 49.9715 14.4529 50.1016 14.429 50.2274C14.4051 50.3532 14.3339 50.465 14.23 50.5399L10.836 52.9549L13.72 51.2899C13.8302 51.2258 13.9606 51.2062 14.0847 51.235C14.2087 51.2639 14.3171 51.339 14.3877 51.4451C14.4583 51.5511 14.4857 51.6801 14.4644 51.8057C14.4431 51.9313 14.3747 52.044 14.273 52.1209L11.027 54.5879L13.72 53.0329C13.8305 52.9701 13.9607 52.9517 14.0842 52.9814C14.2077 53.0112 14.3153 53.0868 14.385 53.193C14.4548 53.2991 14.4815 53.4279 14.4598 53.5531C14.4381 53.6782 14.3695 53.7904 14.268 53.8669L13.845 54.1809L14.845 53.6019C14.9507 53.5392 15.0757 53.5177 15.1963 53.5413C15.3168 53.5649 15.4244 53.6321 15.4986 53.73C15.5728 53.8279 15.6083 53.9497 15.5984 54.0722C15.5886 54.1946 15.534 54.3091 15.445 54.3939L13.255 56.5139L18.3 53.5999C18.4101 53.5385 18.5392 53.5209 18.6616 53.5506C18.7841 53.5803 18.8908 53.6552 18.9604 53.7602C19.03 53.8652 19.0575 53.9926 19.0372 54.117C19.0169 54.2413 18.9504 54.3534 18.851 54.4309L18.714 54.5309L19.557 54.0449C19.6617 53.9845 19.7847 53.9641 19.9033 53.9874C20.0219 54.0107 20.128 54.0762 20.202 54.1717C20.276 54.2672 20.313 54.3862 20.306 54.5069C20.299 54.6275 20.2486 54.7416 20.164 54.8279L18.33 56.6999L19.73 55.8929C19.8344 55.8326 19.957 55.8121 20.0753 55.8351C20.1936 55.858 20.2997 55.9229 20.3739 56.0179C20.4481 56.1128 20.4856 56.2314 20.4794 56.3517C20.4732 56.4721 20.4237 56.5861 20.34 56.6729L20.029 56.9949C20.1044 57.0011 20.1774 57.0243 20.2426 57.0627C20.3077 57.1012 20.3632 57.154 20.405 57.217C20.4468 57.2801 20.4737 57.3518 20.4838 57.4268C20.4938 57.5018 20.4867 57.578 20.463 57.6499L20.263 58.2629C20.3334 58.3058 20.3916 58.3661 20.432 58.4379C20.4983 58.5527 20.5163 58.6892 20.482 58.8173C20.4477 58.9454 20.3639 59.0546 20.249 59.1209L19.749 59.4079C19.6613 59.4586 19.5601 59.4815 19.4591 59.4735C19.358 59.4655 19.2617 59.4269 19.1831 59.3629C19.1044 59.2989 19.0471 59.2125 19.0187 59.1151C18.9903 59.0178 18.9922 58.9141 19.024 58.8179L19.102 58.5819L17.671 59.4069C17.5667 59.4671 17.4441 59.4877 17.3258 59.4647C17.2075 59.4417 17.1014 59.3768 17.0272 59.2819C16.9529 59.187 16.9155 59.0684 16.9217 58.9481C16.9279 58.8277 16.9774 58.7136 17.061 58.6269L17.151 58.5349L15.64 59.3999C15.5354 59.4595 15.4127 59.4794 15.2946 59.4558C15.1765 59.4322 15.0708 59.3667 14.9971 59.2715C14.9234 59.1762 14.8865 59.0575 14.8933 58.9373C14.9001 58.817 14.9501 58.7032 15.034 58.6169L16.87 56.7509L12.28 59.3999C12.17 59.4613 12.0409 59.4789 11.9184 59.4492C11.796 59.4194 11.6893 59.3446 11.6197 59.2396C11.55 59.1346 11.5226 59.0071 11.5429 58.8828C11.5632 58.7584 11.6297 58.6463 11.729 58.5689L11.863 58.4689L10.246 59.4019C10.1405 59.4629 10.0163 59.4833 9.89675 59.4592C9.77723 59.4351 9.67064 59.3681 9.59704 59.2709C9.52334 59.1735 9.48784 59.0525 9.49724 58.9307C9.50663 58.8089 9.56028 58.6948 9.64804 58.6099L11.84 56.4889L6.79304 59.3999C6.71733 59.4448 6.63108 59.469 6.54304 59.4699Z" fill="#CED3DB"/>
<path d="M12.9001 38.179C12.8051 38.1792 12.712 38.1523 12.6318 38.1015C12.5515 38.0507 12.4874 37.9781 12.4469 37.8921C12.4064 37.8062 12.3912 37.7105 12.4031 37.6163C12.415 37.522 12.4535 37.4331 12.5141 37.36L12.8051 37L11.7311 37.62C11.6742 37.6561 11.6106 37.6804 11.544 37.6914C11.4775 37.7023 11.4094 37.6997 11.3439 37.6836C11.2784 37.6676 11.2169 37.6385 11.1629 37.598C11.109 37.5576 11.0638 37.5066 11.03 37.4482C10.9963 37.3898 10.9747 37.3252 10.9665 37.2583C10.9584 37.1914 10.9639 37.1235 10.9827 37.0587C11.0015 36.9939 11.0332 36.9336 11.0759 36.8814C11.1186 36.8292 11.1714 36.7862 11.2311 36.755L14.7091 34.747C14.8106 34.6889 14.9292 34.6682 15.0443 34.6885C15.1595 34.7088 15.2638 34.7688 15.3393 34.8581C15.4148 34.9473 15.4566 35.0602 15.4575 35.1771C15.4584 35.2941 15.4183 35.4076 15.3441 35.498L14.7711 36.191C14.8653 36.2181 14.9494 36.2724 15.013 36.347C15.0765 36.4216 15.1168 36.5132 15.1287 36.6105C15.1407 36.7077 15.1237 36.8064 15.0801 36.8941C15.0364 36.9819 14.9679 37.0548 14.8831 37.104L13.1461 38.104C13.0723 38.1505 12.9874 38.1764 12.9001 38.179Z" fill="#F4C0A6"/>
<path d="M9.89981 39.8C9.8099 39.7999 9.72168 39.7755 9.64443 39.7295C9.56719 39.6835 9.50379 39.6175 9.4609 39.5385C9.41801 39.4594 9.39723 39.3703 9.40073 39.2805C9.40423 39.1906 9.4319 39.1034 9.48081 39.028L9.56381 38.9L8.45081 39.542C8.34171 39.6039 8.21331 39.6226 8.09109 39.5943C7.96887 39.566 7.86176 39.4927 7.79101 39.3891C7.72026 39.2855 7.69105 39.1591 7.70916 39.035C7.72728 38.9108 7.7914 38.798 7.88881 38.719L10.9828 36.245L6.64681 38.745C6.53754 38.8085 6.40829 38.8282 6.28503 38.8003C6.16178 38.7724 6.05367 38.6988 5.98246 38.5944C5.91126 38.49 5.88222 38.3625 5.90121 38.2376C5.9202 38.1126 5.9858 37.9995 6.08481 37.921L10.6148 34.314L5.79381 37.1C5.68275 37.1627 5.55191 37.1807 5.42806 37.1501C5.30421 37.1196 5.19672 37.0428 5.12759 36.9356C5.05846 36.8284 5.03292 36.6988 5.0562 36.5734C5.07948 36.448 5.14981 36.3362 5.25281 36.261L7.79981 34.442L5.78081 35.6C5.66988 35.66 5.54034 35.676 5.41816 35.6446C5.29597 35.6131 5.19018 35.5367 5.122 35.4306C5.05381 35.3244 5.02826 35.1964 5.05048 35.0722C5.0727 34.9481 5.14105 34.8369 5.24181 34.761L7.22481 33.352L5.55181 34.317C5.44249 34.3785 5.31406 34.3966 5.19198 34.3678C5.06991 34.3391 4.9631 34.2655 4.89275 34.1616C4.82239 34.0578 4.79363 33.9313 4.81216 33.8073C4.8307 33.6832 4.89517 33.5707 4.99281 33.492L9.54181 29.91L5.04181 32.51C4.9354 32.5685 4.81132 32.5863 4.69274 32.5601C4.57416 32.5338 4.46919 32.4653 4.39742 32.3674C4.32565 32.2694 4.292 32.1486 4.30274 32.0277C4.31349 31.9067 4.36789 31.7938 4.45581 31.71L7.66981 28.805L6.69281 29.368C6.59396 29.4249 6.47863 29.4463 6.36595 29.4286C6.25327 29.411 6.15001 29.3553 6.0733 29.2709C5.9966 29.1865 5.95106 29.0784 5.94424 28.9645C5.93742 28.8507 5.96973 28.7379 6.03581 28.645L7.38881 26.75C7.37681 26.734 7.36681 26.718 7.35581 26.7C7.32302 26.643 7.30177 26.5802 7.29327 26.5151C7.28477 26.4499 7.2892 26.3838 7.30628 26.3203C7.32337 26.2569 7.35279 26.1975 7.39286 26.1454C7.43293 26.0934 7.48286 26.0497 7.53981 26.017L8.27081 25.595C8.36975 25.5376 8.48536 25.5159 8.59836 25.5335C8.71135 25.5511 8.81491 25.6069 8.89175 25.6916C8.9686 25.7763 9.0141 25.8847 9.02066 25.9989C9.02722 26.1131 8.99445 26.226 8.92781 26.319L8.19181 27.346L11.2448 25.584C11.3512 25.5262 11.4749 25.5089 11.593 25.5355C11.7112 25.562 11.8156 25.6305 11.8871 25.7282C11.9586 25.8259 11.9921 25.9462 11.9816 26.0668C11.9711 26.1874 11.9171 26.3001 11.8298 26.384L8.61581 29.294L15.0658 25.57C15.1753 25.5056 15.3053 25.4853 15.4292 25.5132C15.5531 25.5412 15.6618 25.6152 15.7331 25.7204C15.8044 25.8256 15.833 25.9539 15.813 26.0794C15.7931 26.2049 15.7262 26.3181 15.6258 26.396L11.0778 29.977L15.9418 27.169C16.053 27.1055 16.1843 27.0872 16.3087 27.1177C16.433 27.1482 16.5409 27.2252 16.6101 27.3329C16.6794 27.4406 16.7047 27.5707 16.6808 27.6965C16.6569 27.8223 16.5857 27.9341 16.4818 28.009L14.4998 29.416L16.1588 28.459C16.2699 28.3962 16.4007 28.3783 16.5246 28.4088C16.6484 28.4394 16.7559 28.5161 16.825 28.6233C16.8942 28.7305 16.9197 28.8601 16.8964 28.9855C16.8731 29.1109 16.8028 29.2227 16.6998 29.298L14.1548 31.12L15.9148 30.104C16.0242 30.04 16.1538 30.02 16.2774 30.048C16.401 30.0759 16.5093 30.1497 16.5806 30.2545C16.6518 30.3593 16.6806 30.4872 16.6612 30.6124C16.6417 30.7376 16.5755 30.8507 16.4758 30.929L11.9478 34.534L16.2158 32.07C16.3251 32.0065 16.4543 31.9867 16.5776 32.0146C16.7008 32.0425 16.8089 32.1161 16.8802 32.2205C16.9514 32.3249 16.9804 32.4524 16.9614 32.5774C16.9424 32.7023 16.8768 32.8154 16.7778 32.894L11.4998 37.116C11.5664 37.1979 11.6054 37.2988 11.6112 37.4043C11.6169 37.5097 11.5891 37.6143 11.5318 37.703L10.9508 38.603C10.9684 38.6239 10.9841 38.6463 10.9978 38.67C11.0641 38.7848 11.0821 38.9213 11.0478 39.0494C11.0134 39.1774 10.9296 39.2867 10.8148 39.353L10.1518 39.735C10.0752 39.7789 9.98813 39.8014 9.89981 39.8Z" fill="#F4C0A6"/>
<path d="M14.167 27.4701C14.0568 27.4703 13.9497 27.4341 13.8622 27.3672C13.7747 27.3003 13.7118 27.2063 13.6832 27.1C13.6546 26.9936 13.6619 26.8808 13.704 26.779C13.7461 26.6772 13.8206 26.5922 13.916 26.5371L17.716 24.3371C17.7729 24.3009 17.8365 24.2766 17.9031 24.2657C17.9696 24.2547 18.0377 24.2573 18.1032 24.2734C18.1687 24.2894 18.2303 24.3186 18.2842 24.359C18.3382 24.3995 18.3834 24.4504 18.4171 24.5088C18.4509 24.5672 18.4725 24.6318 18.4806 24.6987C18.4887 24.7657 18.4832 24.8336 18.4644 24.8983C18.4456 24.9631 18.4139 25.0234 18.3713 25.0756C18.3286 25.1278 18.2757 25.1708 18.216 25.2021L14.416 27.4021C14.3405 27.4464 14.2546 27.4699 14.167 27.4701Z" fill="#A3584A"/>
<path d="M10.9348 30.481C10.8321 30.481 10.7319 30.4493 10.6478 30.3903C10.5637 30.3313 10.4998 30.2478 10.4649 30.1512C10.4299 30.0546 10.4255 29.9496 10.4524 29.8504C10.4792 29.7513 10.5359 29.6628 10.6148 29.597L13.1358 27.497L9.82879 29.41C9.77188 29.4462 9.70824 29.4705 9.6417 29.4814C9.57516 29.4924 9.50709 29.4897 9.44159 29.4737C9.37609 29.4576 9.31452 29.4285 9.26057 29.3881C9.20662 29.3476 9.16141 29.2967 9.12766 29.2383C9.09392 29.1799 9.07233 29.1153 9.0642 29.0483C9.05606 28.9814 9.06156 28.9135 9.08035 28.8487C9.09914 28.784 9.13083 28.7237 9.17353 28.6715C9.21622 28.6193 9.26903 28.5763 9.32879 28.545L17.7198 23.7C17.8284 23.6362 17.957 23.6157 18.08 23.6427C18.203 23.6696 18.3113 23.7419 18.3833 23.8452C18.4553 23.9486 18.4856 24.0752 18.4683 24.1999C18.451 24.3247 18.3872 24.4382 18.2898 24.518L13.1248 28.812C13.1661 28.9229 13.1668 29.0448 13.1267 29.1561C13.0866 29.2675 13.0083 29.361 12.9058 29.42L11.1848 30.414C11.1089 30.4582 11.0226 30.4813 10.9348 30.481Z" fill="#A3584A"/>
<path d="M7.40805 32.4731C7.32805 32.473 7.24923 32.4538 7.17821 32.417C7.10719 32.3802 7.04604 32.3268 6.9999 32.2615C6.95376 32.1962 6.92396 32.1207 6.91303 32.0414C6.90209 31.9622 6.91033 31.8815 6.93705 31.8061L7.31105 30.7471L4.93005 32.1211C4.81993 32.1851 4.68951 32.2048 4.56543 32.1759C4.44134 32.1471 4.33294 32.072 4.26237 31.9659C4.19179 31.8598 4.16436 31.7308 4.18567 31.6052C4.20698 31.4796 4.27543 31.3669 4.37705 31.2901L9.65105 27.2901L4.46905 30.2761C4.35817 30.3408 4.22667 30.3603 4.10177 30.3307C3.97686 30.3011 3.86814 30.2246 3.79809 30.117C3.72805 30.0095 3.70206 29.8791 3.72551 29.7529C3.74896 29.6267 3.82004 29.5143 3.92405 29.4391L5.95005 27.9611L4.30005 28.9141C4.19142 28.9759 4.06357 28.9948 3.94171 28.967C3.81984 28.9393 3.71278 28.8669 3.64164 28.7641C3.5705 28.6614 3.54042 28.5357 3.55734 28.4118C3.57426 28.288 3.63694 28.175 3.73305 28.0951L6.68005 25.6831L4.43205 26.9831C4.32749 27.0427 4.20494 27.0626 4.08691 27.0391C3.96887 27.0156 3.86326 26.9504 3.78947 26.8553C3.71567 26.7602 3.67864 26.6417 3.68518 26.5215C3.69171 26.4014 3.74138 26.2876 3.82505 26.2011L5.59005 24.4011C5.49024 24.4165 5.38809 24.4014 5.29706 24.3577C5.20602 24.3139 5.13036 24.2437 5.08005 24.1561C5.01406 24.0413 4.99627 23.9051 5.03058 23.7773C5.06488 23.6494 5.14848 23.5404 5.26305 23.4741L8.16904 21.7961C8.2736 21.7365 8.39615 21.7166 8.51418 21.7401C8.63222 21.7636 8.73783 21.8288 8.81163 21.9239C8.88542 22.019 8.92245 22.1375 8.91591 22.2576C8.90938 22.3778 8.85972 22.4916 8.77605 22.5781L7.10005 24.2861L11.5 21.7461C11.6086 21.6853 11.736 21.6672 11.8572 21.6953C11.9785 21.7234 12.0849 21.7957 12.1556 21.8981C12.2264 22.0005 12.2564 22.1256 12.2398 22.2489C12.2233 22.3723 12.1613 22.485 12.066 22.5651L9.11605 24.9791L13.552 22.4181C13.6629 22.3534 13.7944 22.3338 13.9193 22.3634C14.0442 22.3931 14.153 22.4696 14.223 22.5771C14.293 22.6847 14.319 22.8151 14.2956 22.9413C14.2721 23.0675 14.201 23.1798 14.097 23.2551L12.072 24.7321L16.017 22.4551C16.1271 22.3924 16.2569 22.3739 16.3801 22.4032C16.5033 22.4325 16.6108 22.5075 16.6809 22.613C16.751 22.7185 16.7784 22.8466 16.7576 22.9716C16.7369 23.0965 16.6695 23.2089 16.569 23.2861L8.62205 29.3221C8.676 29.3886 8.71197 29.4678 8.7265 29.5522C8.74104 29.6366 8.73365 29.7234 8.70505 29.8041L8.24705 31.1041C8.33964 31.1332 8.42177 31.1886 8.48339 31.2636C8.54501 31.3386 8.58347 31.43 8.59407 31.5264C8.60468 31.6229 8.58696 31.7204 8.5431 31.807C8.49923 31.8936 8.43111 31.9656 8.34705 32.0141L7.65805 32.4141C7.58127 32.4552 7.49509 32.4755 7.40805 32.4731Z" fill="#A3584A"/>
<path d="M53.3671 32.471C53.2719 32.4711 53.1786 32.4441 53.0983 32.393C53.0179 32.342 52.9538 32.2691 52.9135 32.1829C52.8732 32.0966 52.8583 32.0007 52.8706 31.9063C52.8829 31.8119 52.922 31.723 52.9831 31.65L53.7351 30.75L52.2291 31.619C52.1227 31.6761 51.9993 31.6928 51.8817 31.666C51.764 31.6392 51.66 31.5707 51.5888 31.4732C51.5177 31.3758 51.4842 31.2558 51.4945 31.1356C51.5048 31.0154 51.5583 30.9029 51.6451 30.819L52.1001 30.4C51.9915 30.4428 51.8714 30.4463 51.7605 30.4098C51.6497 30.3733 51.555 30.2992 51.4931 30.2003C51.4311 30.1014 51.4057 29.984 51.4212 29.8683C51.4367 29.7527 51.4922 29.6461 51.5781 29.567L52.0781 29.106L51.3471 29.527C51.2394 29.588 51.1129 29.6068 50.9921 29.5799C50.8714 29.553 50.7648 29.4823 50.6932 29.3814C50.6215 29.2805 50.5899 29.1566 50.6042 29.0337C50.6186 28.9108 50.6781 28.7976 50.7711 28.716L51.0771 28.452L48.2471 30.086C48.139 30.1476 48.0119 30.1667 47.8905 30.1396C47.7692 30.1125 47.6622 30.0411 47.5907 29.9394C47.5191 29.8377 47.488 29.713 47.5034 29.5896C47.5188 29.4662 47.5797 29.353 47.6741 29.272L50.0271 27.28L47.3481 28.83C47.2397 28.8924 47.1118 28.9118 46.9898 28.8845C46.8677 28.8572 46.7603 28.7852 46.6888 28.6826C46.6172 28.5801 46.5867 28.4544 46.6032 28.3305C46.6198 28.2065 46.6821 28.0932 46.7781 28.013L48.6781 26.43L46.7781 27.523C46.6739 27.5825 46.5519 27.6026 46.4342 27.5796C46.3165 27.5565 46.2109 27.492 46.1369 27.3977C46.0628 27.3033 46.0251 27.1855 46.0306 27.0657C46.0362 26.9459 46.0846 26.8321 46.1671 26.745L48.4671 24.333L43.3801 27.271C43.2735 27.3369 43.1461 27.3604 43.0231 27.3369C42.9 27.3133 42.7903 27.2444 42.7156 27.1439C42.6409 27.0433 42.6067 26.9183 42.6198 26.7937C42.6328 26.6691 42.6922 26.5539 42.7861 26.471L44.6701 24.688L41.5541 26.5C41.4488 26.56 41.3253 26.5796 41.2066 26.5554C41.0879 26.5311 40.982 26.4646 40.9087 26.3682C40.8354 26.2717 40.7995 26.1519 40.8079 26.0311C40.8162 25.9102 40.8682 25.7965 40.9541 25.711L41.3401 25.331C41.2233 25.3821 41.0915 25.3867 40.9714 25.3438C40.8514 25.3009 40.7523 25.2138 40.6944 25.1003C40.6364 24.9869 40.624 24.8555 40.6596 24.7331C40.6952 24.6108 40.7762 24.5066 40.8861 24.442L44.2301 22.512C44.3354 22.4521 44.4588 22.4324 44.5775 22.4567C44.6962 22.4809 44.8021 22.5474 44.8754 22.6439C44.9488 22.7403 44.9846 22.8601 44.9763 22.981C44.9679 23.1018 44.916 23.2156 44.8301 23.301L44.4521 23.673L47.8661 21.7C47.9726 21.6341 48.1 21.6106 48.2231 21.6342C48.3461 21.6577 48.4558 21.7266 48.5305 21.8272C48.6052 21.9278 48.6394 22.0527 48.6264 22.1773C48.6133 22.3019 48.554 22.4171 48.4601 22.5L46.5761 24.282L51.0061 21.725C51.1102 21.6655 51.2323 21.6455 51.35 21.6685C51.4677 21.6915 51.5732 21.756 51.6473 21.8504C51.7214 21.9447 51.7591 22.0625 51.7535 22.1823C51.748 22.3021 51.6995 22.4159 51.6171 22.503L49.3171 24.914L53.2601 22.638C53.3684 22.5767 53.4958 22.5581 53.6172 22.5857C53.7386 22.6134 53.8453 22.6853 53.9165 22.7875C53.9876 22.8897 54.0181 23.0147 54.002 23.1382C53.9858 23.2616 53.9241 23.3746 53.8291 23.455L51.9211 25.042L54.3741 23.627C54.4823 23.5641 54.6101 23.5441 54.7323 23.5709C54.8546 23.5977 54.9623 23.6694 55.0343 23.7718C55.1063 23.8741 55.1372 23.9998 55.1211 24.1239C55.1049 24.248 55.0428 24.3615 54.9471 24.442L52.5961 26.431L55.1961 24.931C55.3038 24.8701 55.4302 24.8512 55.551 24.8781C55.6718 24.9051 55.7783 24.9758 55.8499 25.0767C55.9216 25.1775 55.9533 25.3014 55.9389 25.4243C55.9245 25.5472 55.8651 25.6604 55.7721 25.742L55.4631 26.008L55.5421 25.963C55.6485 25.9029 55.7733 25.8838 55.8929 25.9095C56.0124 25.9352 56.1184 26.0037 56.1908 26.1023C56.2633 26.2008 56.2971 26.3224 56.2859 26.4442C56.2747 26.5659 56.2192 26.6794 56.1301 26.763L55.6301 27.221L55.7101 27.175C55.8164 27.1172 55.9402 27.1 56.0583 27.1265C56.1764 27.153 56.2809 27.2215 56.3524 27.3192C56.4238 27.417 56.4574 27.5373 56.4469 27.6579C56.4363 27.7785 56.3824 27.8912 56.2951 27.975L55.7951 28.426C55.8972 28.3993 56.0051 28.4055 56.1034 28.4438C56.2018 28.4821 56.2855 28.5506 56.3425 28.6394C56.3996 28.7282 56.4271 28.8328 56.4211 28.9381C56.415 29.0435 56.3758 29.1443 56.3091 29.226L55.5091 30.187C55.6252 30.164 55.7457 30.183 55.8492 30.2405C55.9526 30.298 56.0323 30.3903 56.0741 30.5011C56.1159 30.6119 56.117 30.7338 56.0772 30.8453C56.0375 30.9568 55.9595 31.0506 55.8571 31.11L53.6171 32.4C53.5416 32.4458 53.4553 32.4703 53.3671 32.471Z" fill="#195272"/>
<path d="M9.32025 43.6071C9.22429 43.6072 9.13031 43.5797 9.04955 43.5279C8.96878 43.476 8.90465 43.4021 8.86479 43.3148C8.82494 43.2275 8.81105 43.1305 8.82478 43.0355C8.83852 42.9406 8.8793 42.8515 8.94226 42.7791L9.22026 42.4601L8.33425 42.9711C8.23327 43.0289 8.11531 43.0496 8.00067 43.0298C7.88604 43.0099 7.78191 42.9507 7.70623 42.8624C7.63054 42.774 7.58804 42.662 7.58604 42.5457C7.58403 42.4294 7.62266 42.316 7.69525 42.2251L8.48226 41.2471L6.75425 42.2471C6.65506 42.3036 6.5395 42.3245 6.4268 42.3063C6.3141 42.288 6.21103 42.2317 6.13474 42.1468C6.05845 42.0619 6.01352 41.9534 6.00743 41.8394C6.00134 41.7254 6.03445 41.6127 6.10125 41.5201L6.95525 40.3531L5.03925 41.4561C4.93521 41.5156 4.81327 41.5357 4.69564 41.5128C4.57801 41.4899 4.47251 41.4255 4.39836 41.3314C4.32421 41.2372 4.28634 41.1196 4.29164 40.9999C4.29694 40.8802 4.34507 40.7663 4.42725 40.6791L4.72725 40.3671L3.81725 40.8931C3.71341 40.9532 3.59142 40.9739 3.47357 40.9515C3.35571 40.9291 3.24983 40.8651 3.17525 40.7711C3.10066 40.6771 3.06234 40.5595 3.0673 40.4396C3.07225 40.3197 3.12015 40.2056 3.20225 40.1181L3.52225 39.7761L3.18225 39.9761C3.08183 40.0343 2.96429 40.0557 2.84979 40.0367C2.7353 40.0177 2.63098 39.9595 2.55472 39.872C2.47846 39.7845 2.43502 39.6732 2.43183 39.5572C2.42864 39.4412 2.46591 39.3277 2.53725 39.2361L3.46125 38.0481C3.40659 37.9941 3.3651 37.9283 3.34001 37.8557C3.31491 37.783 3.30689 37.7056 3.31657 37.6294C3.32624 37.5532 3.35334 37.4802 3.39578 37.4162C3.43821 37.3521 3.49484 37.2987 3.56125 37.2601L4.56125 36.6811C4.66168 36.6229 4.77922 36.6015 4.89371 36.6205C5.00821 36.6395 5.11253 36.6977 5.18879 36.7852C5.26504 36.8727 5.30849 36.984 5.31168 37.1C5.31487 37.2161 5.27759 37.3296 5.20625 37.4211L4.88525 37.8351L5.92425 37.2351C6.02811 37.175 6.15013 37.1542 6.26803 37.1766C6.38594 37.199 6.49186 37.263 6.56646 37.357C6.64106 37.451 6.67936 37.5687 6.67436 37.6886C6.66937 37.8085 6.62141 37.9226 6.53925 38.0101L6.21925 38.3521L7.21925 37.7731C7.3233 37.7136 7.44524 37.6935 7.56287 37.7164C7.6805 37.7393 7.786 37.8037 7.86015 37.8978C7.9343 37.992 7.97217 38.1096 7.96687 38.2293C7.96156 38.3491 7.91344 38.4629 7.83125 38.5501L7.53125 38.8611L8.51026 38.3001C8.60945 38.2436 8.72501 38.2227 8.83771 38.241C8.95041 38.2592 9.05348 38.3155 9.12977 38.4004C9.20606 38.4854 9.25099 38.5939 9.25708 38.7079C9.26317 38.8219 9.23006 38.9345 9.16326 39.0271L8.31026 40.1921L10.3103 39.0401C10.4112 38.9823 10.5292 38.9616 10.6438 38.9814C10.7585 39.0013 10.8626 39.0605 10.9383 39.1488C11.014 39.2372 11.0565 39.3492 11.0585 39.4655C11.0605 39.5818 11.0219 39.6952 10.9493 39.7861L10.1603 40.7661L11.3093 40.1031C11.4116 40.0448 11.5312 40.0245 11.6471 40.0458C11.7629 40.067 11.8675 40.1285 11.9425 40.2194C12.0174 40.3102 12.0579 40.4246 12.0567 40.5424C12.0556 40.6601 12.0129 40.7737 11.9363 40.8631L11.4563 41.4161C11.5602 41.4291 11.6573 41.4745 11.7341 41.5457C11.8109 41.6169 11.8633 41.7104 11.8841 41.8131C11.9049 41.9157 11.8929 42.0222 11.8499 42.1177C11.8068 42.2132 11.7349 42.2927 11.6443 42.3451L9.57426 43.5451C9.49675 43.5884 9.40897 43.6098 9.32025 43.6071Z" fill="#E6E9ED"/>
<path d="M18.724 24.3509C19.006 22.1569 17.01 22.1799 15.424 22.6239C2.61601 19.1999 2.33401 26.4279 4.79401 36.5289C3.22601 36.4409 2.20701 38.7769 2.22501 40.1129C-0.111991 41.6939 -1.50799 60.0559 2.59201 59.4029C8.36201 59.5139 14.183 59.2409 19.928 59.5029C21.736 59.2489 24.261 60.2489 25.535 58.6029C26.567 55.7099 23.075 54.0149 20.617 54.4919C19.605 52.6619 16.495 53.9369 14.724 53.5919C14.724 49.8729 14.641 45.8239 12.032 42.8759C12.164 41.5849 12.922 39.5309 11.225 39.0509C11.3623 38.6769 11.4997 38.3033 11.637 37.9299C12.1639 38.0957 12.7248 38.1218 13.2649 38.0058C13.8049 37.8897 14.3056 37.6355 14.7179 37.2679C15.1302 36.9003 15.4401 36.432 15.6171 35.9088C15.7942 35.3856 15.8324 34.8253 15.728 34.2829C17.764 34.0609 17.299 32.1459 16.728 30.8199C17.0015 30.2417 17.1527 29.6132 17.1724 28.9738C17.192 28.3344 17.0795 27.6979 16.842 27.1039C17.4274 26.9364 17.9359 26.5695 18.2795 26.0669C18.6232 25.5642 18.7804 24.9572 18.724 24.3509ZM3.66701 39.4059C3.88901 38.7909 4.33101 38.2549 4.55401 37.6379C7.17301 39.2279 12.044 38.8919 10.565 42.9589C10.57 42.9279 10.565 42.9649 10.552 43.0029C8.28201 41.9819 6.01901 40.9389 3.76001 39.8929C3.73601 39.8709 3.53601 39.5579 3.66701 39.4059ZM21.819 55.4999C22.1359 55.5076 22.4485 55.5755 22.74 55.6999C23.689 56.1289 24.628 57.4619 24.131 58.4869C22.996 58.5139 21.86 58.4869 20.724 58.4959C20.724 57.4959 20.724 56.5009 20.724 55.5019L21.819 55.4999ZM18.66 54.4109C19.941 55.1109 19.019 57.3489 19.276 58.5889C6.08301 59.2059 6.24001 58.7289 5.72501 45.8049C3.08301 44.6269 4.88901 49.8309 4.66501 51.2629C4.98301 53.7779 4.44501 57.0429 6.92701 58.5889C5.14501 58.3889 1.93301 59.4349 1.72701 56.7889C2.02501 51.5599 0.690009 45.7999 2.95601 40.9079C5.66801 41.7489 8.29901 44.2579 11.134 43.9899C13.158 46.7079 13.27 50.2529 13.275 53.5459C9.53301 53.9969 12.375 47.8099 9.97501 47.5869C8.66201 48.1139 9.82801 50.1809 9.66601 51.3039C9.58301 56.2249 15.65 53.8599 18.66 54.4109ZM15.631 33.6479C13.549 33.3219 14.677 35.5479 14.031 36.6549C13.016 38.3549 11.76 36.4879 11.058 35.5999C9.67701 35.2929 9.68001 36.4999 10.535 37.2389C10.3717 37.6789 10.21 38.1193 10.05 38.5599L6.16301 36.9549C6.29665 35.4014 6.11536 33.8368 5.63001 32.3549C6.61701 32.1819 8.44801 32.8199 8.98501 31.8089C8.68837 31.1691 8.64129 30.4416 8.85301 29.7689C9.16101 28.9359 10.028 29.6629 10.186 30.1969C11.845 30.8499 13.856 29.1549 13.828 27.3909C13.8363 27.3795 13.8436 27.3675 13.85 27.3549C14.344 27.3619 14.839 27.3549 15.332 27.3549C15.823 28.6214 15.8133 30.0273 15.305 31.2869C15.378 32.0739 16.134 32.8439 15.687 33.6429C15.69 33.6309 16 33.6429 15.631 33.6479ZM17.245 25.4699C17.236 26.0429 16.433 26.6169 16.11 26.6409C12.078 26.4869 13.173 26.8929 11.51 29.5819C10.184 27.4769 6.47801 29.2559 7.37801 31.6479H5.44301C2.74801 25.3059 7.57901 20.1569 13.919 23.3179C15.987 23.4999 17.887 22.2219 17.245 25.4699Z" fill="#262626"/>
<path d="M55.0996 37.4919C55.1162 37.4966 55.1336 37.4979 55.1508 37.4959C55.168 37.4938 55.1846 37.4884 55.1996 37.4799L55.1816 37.4629C55.1526 37.4729 55.1286 37.4829 55.0996 37.4919Z" fill="#262626"/>
<path d="M57.771 39.849C57.787 38.649 56.849 36.249 55.271 36.714C56.915 27.474 58.671 19.402 45.597 22.214C45.7611 21.2882 45.8061 20.3452 45.731 19.408C52.112 19.908 49.061 11.608 49.731 7.72198C50.547 1.87398 35.681 5.59898 31.731 4.61098C32.594 0.728981 27.782 -0.026019 24.865 0.367981C20.535 1.16098 13.1 -1.22102 10.4 2.47998C10.076 6.07998 10.293 9.83898 10.291 13.463C10.586 15.463 12.723 15.3 14.272 15.278C13.28 22.467 18.672 18.012 21.258 15.278C23.59 15.298 25.945 15.385 28.271 15.278C27.105 21.396 34.85 18.978 38.462 19.4C39.897 20.65 41.352 22.014 42.875 23.175C39.606 24.215 39.454 27.15 43.211 27.33C42.7157 28.6004 42.7229 30.0117 43.231 31.277C42.615 32.507 42.288 34.466 44.273 34.303C43.789 36.743 45.703 38.858 48.183 37.759C48.377 38.2843 48.5703 38.81 48.763 39.336C47.063 39.886 47.87 41.875 48.008 43.176C45.415 46.076 45.281 50.016 45.274 53.7C43.503 53.924 40.782 52.993 39.546 54.572C37.179 54.265 34.172 55.452 34.275 58.228C35.228 60.972 50.506 58.551 54.251 59.299C56.135 59.299 59.389 59.627 59.707 57.055C59.207 51.513 61.325 44.574 57.771 39.849ZM26.27 14.722C24.4175 14.3905 22.5274 14.3232 20.656 14.522C18.544 15.044 18.07 16.653 16.172 18.734C15.341 17.612 15.839 16.128 15.724 14.806C14.309 14.53 12.047 15.206 11.743 13.076C12.256 9.96498 10.343 3.08998 12.843 1.27598C16.425 2.02498 29.766 -0.694019 30.28 3.19298C29.798 6.81998 31.321 11.506 29.546 14.636C28.4605 14.7856 27.3618 14.8144 26.27 14.722ZM38.6 19.388C38.694 19.433 38.7 19.383 38.6 19.388V19.388ZM40.02 19.026C36.893 17.169 28.655 21.385 29.714 15.084C33.428 13.744 31.114 8.42698 31.722 5.38998C35.122 6.16698 47.866 3.43898 48.274 7.21398C47.565 10.385 50.622 19.789 45.286 18.614C41.888 19.888 47.857 26.316 40.022 19.026H40.02ZM55.4 37.678C55.664 38.478 56.568 39.337 56.291 40.178C54.091 41.173 51.915 42.187 49.724 43.192C49.2049 42.1747 49.0433 41.0123 49.265 39.892C51.21 39.092 53.153 38.274 55.102 37.492C55.0963 37.4894 55.0914 37.4852 55.088 37.48C55.11 37.465 55.135 37.452 55.155 37.436L55.184 37.463C55.2559 37.4414 55.3235 37.4075 55.384 37.363C55.3294 37.4102 55.268 37.4489 55.202 37.478C55.2763 37.5358 55.3429 37.603 55.4 37.678ZM41.769 24.94C47.351 19.74 58.308 22.686 54.659 31.693H52.513C53.662 29.132 50.58 27.672 48.813 29.493C46.77 27.845 48.613 26.162 44.642 26.693C43.656 26.427 41.529 26.439 41.769 24.94ZM47 37.278C45.235 36.814 46.141 34.509 45.468 33.693C43.668 33.993 44.174 32.087 44.653 31.071C44.491 29.853 43.976 28.56 44.566 27.307C47.232 26.733 45.628 30.422 48.624 30.307C48.93 30.321 49.668 30.219 49.807 29.877C49.946 29.535 50.09 29.232 50.48 29.409C53.037 31.746 48.335 32.636 54.486 32.309C53.9016 33.8868 53.6792 35.5757 53.835 37.251C52.607 37.7603 51.3786 38.268 50.15 38.774C49.9226 38.1533 49.6943 37.5323 49.465 36.911C50.4 35.92 50.294 35.229 48.888 35.944C48.335 36.5 48.029 37.8 47 37.278ZM36.5 58.578C35 58.526 36 56.222 36.707 55.8C37.446 55.217 38.438 55.494 39.307 55.432C39.241 56.463 39.293 57.539 39.278 58.578H36.5ZM58.28 48.797C57.504 54.969 61.349 59.97 52.413 58.706C56.3 56.735 54.88 51.557 55.562 47.994C55.717 46.816 56.03 44.584 54.285 46.115C53.828 59.272 53.845 59.237 40.728 58.706C40.6727 57.2834 40.7038 55.8588 40.821 54.44L40.54 54.3C43.608 53.814 50.04 55.993 50.308 51.23C50.285 49.978 51.474 46.404 49.196 48.195C48.76 49.964 49.477 52.486 47.883 53.71C48.032 53.684 47.792 53.739 47.875 53.71C47.545 53.701 47.122 53.703 46.725 53.71C46.725 50.39 46.737 46.71 48.686 43.893C51.517 43.871 54.059 41.659 56.726 40.753C58.427 42.918 58.276 46.171 58.276 48.792L58.28 48.797Z" fill="#262626"/>
<path d="M47.879 53.711L47.883 53.709L47.875 53.711H47.879Z" fill="#262626"/>
<path d="M26.0549 5.43307C24.7699 5.77207 13.0109 4.45107 15.9449 6.56607C17.2299 6.22807 28.9889 7.54907 26.0549 5.43307Z" fill="#262626"/>
<path d="M22.0644 9.46995C19.9744 9.84695 16.8314 8.64995 15.2644 10.0549C14.9804 11.0639 25.6164 10.7129 22.0644 9.46995Z" fill="#262626"/>
<path d="M44.3064 9.6799C41.0554 9.9549 37.4004 9.1089 34.3394 10.0359C34.0334 10.6219 46.8004 10.5859 44.3064 9.6799Z" fill="#262626"/>
<path d="M41.2818 13.588C39.0448 13.855 36.3268 13.015 34.3248 13.988C33.6848 14.851 43.9138 14.629 41.2818 13.588Z" fill="#262626"/>
</g>
<defs>
<clipPath id="clip0_565_2863">
<rect width="60" height="60" fill="white"/>
</clipPath>
</defs>
</svg>
