<svg width="60" height="60" viewBox="0 0 60 60" fill="none" xmlns="http://www.w3.org/2000/svg">
<path d="M26.4311 59.4701C26.327 59.4703 26.2255 59.438 26.1407 59.3778C26.0559 59.3176 25.992 59.2324 25.9578 59.1341C25.9237 59.0358 25.9211 58.9293 25.9504 58.8295C25.9796 58.7297 26.0393 58.6414 26.1211 58.5771L30.8021 54.8771L24.3321 58.6121C24.2208 58.6774 24.0886 58.6972 23.9631 58.6673C23.8376 58.6374 23.7285 58.5601 23.6586 58.4516C23.5888 58.3432 23.5636 58.2119 23.5882 58.0853C23.6129 57.9586 23.6856 57.8464 23.7911 57.7721L25.4121 56.6151L23.4851 57.7271C23.3767 57.7884 23.2493 57.8071 23.1279 57.7794C23.0065 57.7518 22.8998 57.6798 22.8287 57.5776C22.7575 57.4755 22.727 57.3504 22.7432 57.227C22.7594 57.1035 22.821 56.9905 22.9161 56.9101L25.9521 54.3901L22.7001 56.2671C22.5966 56.3265 22.4754 56.347 22.3582 56.3248C22.2409 56.3027 22.1355 56.2393 22.0609 56.1463C21.9863 56.0532 21.9474 55.9365 21.9513 55.8173C21.9552 55.6981 22.0016 55.5841 22.0821 55.4961L24.3001 53.0841L21.8221 54.5141C21.718 54.5743 21.5958 54.595 21.4777 54.5724C21.3596 54.5497 21.2537 54.4853 21.1792 54.391C21.1048 54.2966 21.0668 54.1786 21.0723 54.0585C21.0778 53.9384 21.1263 53.8243 21.2091 53.7371L21.7421 53.1751L21.2821 53.4391C21.1971 53.4878 21.0997 53.5105 21.0019 53.5044C20.9042 53.4982 20.8104 53.4634 20.7322 53.4044C20.654 53.3454 20.5949 53.2647 20.5621 53.1724C20.5294 53.0801 20.5245 52.9802 20.5481 52.8851L20.8271 51.7751C20.7298 51.7332 20.649 51.6604 20.5971 51.5681C20.531 51.4535 20.5131 51.3174 20.5472 51.1895C20.5813 51.0617 20.6647 50.9526 20.7791 50.8861L21.2791 50.5971C21.3641 50.5481 21.4616 50.5252 21.5596 50.5312C21.6575 50.5372 21.7515 50.5719 21.8299 50.6309C21.9082 50.69 21.9675 50.7708 22.0002 50.8633C22.033 50.9558 22.0378 51.0559 22.0141 51.1511L21.8051 51.9821L24.2151 50.5921C24.319 50.5327 24.4408 50.5125 24.5584 50.5353C24.676 50.558 24.7814 50.6223 24.8557 50.7162C24.9299 50.8102 24.9679 50.9277 24.9629 51.0473C24.9578 51.1669 24.91 51.2808 24.8281 51.3681L24.2941 51.9321L26.6231 50.5881C26.7264 50.5294 26.8473 50.5094 26.964 50.5317C27.0808 50.554 27.1858 50.6171 27.2601 50.7098C27.3345 50.8025 27.3735 50.9187 27.37 51.0375C27.3665 51.1563 27.3208 51.27 27.2411 51.3581L25.0261 53.7711L30.5511 50.5811C30.6595 50.5198 30.7868 50.5012 30.9082 50.5288C31.0296 50.5565 31.1363 50.6284 31.2075 50.7306C31.2787 50.8328 31.3091 50.9578 31.293 51.0813C31.2768 51.2047 31.2151 51.3177 31.1201 51.3981L28.0861 53.9181L33.8761 50.5751C33.9874 50.5098 34.1196 50.4901 34.2451 50.52C34.3706 50.5499 34.4797 50.6271 34.5495 50.7356C34.6194 50.8441 34.6446 50.9754 34.6199 51.102C34.5952 51.2286 34.5226 51.3408 34.4171 51.4151L32.8001 52.5711L36.2661 50.5711C36.3754 50.5096 36.5038 50.4915 36.6259 50.5202C36.748 50.549 36.8548 50.6226 36.9251 50.7264C36.9955 50.8303 37.0243 50.9568 37.0057 51.0808C36.9872 51.2048 36.9227 51.3174 36.8251 51.3961L32.1401 55.1001L38.7211 51.3001C38.8295 51.2396 38.9567 51.2216 39.0777 51.2496C39.1987 51.2777 39.3049 51.3498 39.3757 51.4519C39.4465 51.554 39.4767 51.6788 39.4605 51.8019C39.4443 51.9251 39.3828 52.0378 39.2881 52.1181L35.1651 55.5111L38.0881 53.8231C38.1963 53.7613 38.3236 53.7421 38.4452 53.7693C38.5668 53.7964 38.6738 53.868 38.7454 53.97C38.817 54.072 38.8479 54.197 38.8321 54.3206C38.8163 54.4442 38.755 54.5574 38.6601 54.6381L37.2111 55.8601C37.3101 55.8473 37.4107 55.8636 37.5006 55.9071C37.5905 55.9507 37.6657 56.0195 37.7171 56.1051C37.7834 56.22 37.8013 56.3564 37.767 56.4845C37.7327 56.6126 37.6489 56.7218 37.5341 56.7881L33.0061 59.4001C32.8981 59.4607 32.7714 59.4791 32.6506 59.4516C32.5298 59.4242 32.4236 59.3529 32.3523 59.2515C32.2811 59.1502 32.2501 59.026 32.2652 58.9031C32.2803 58.7802 32.3405 58.6672 32.4341 58.5861L33.7341 57.4861L30.4201 59.4001C30.3116 59.4607 30.1845 59.4787 30.0635 59.4506C29.9425 59.4226 29.8362 59.3505 29.7655 59.2484C29.6947 59.1463 29.6645 59.0215 29.6807 58.8983C29.6969 58.7752 29.7583 58.6624 29.8531 58.5821L33.9781 55.1881L26.6781 59.4001C26.6034 59.4449 26.5181 59.469 26.4311 59.4701Z" fill="#FCB01A"/>
<path d="M22.8151 50.5C22.7064 50.4999 22.6007 50.4644 22.514 50.3988C22.4273 50.3333 22.3643 50.2412 22.3345 50.1367C22.3048 50.0321 22.31 49.9207 22.3492 49.8194C22.3885 49.718 22.4597 49.6322 22.5521 49.575L22.6421 49.52L22.2111 49.768C22.0984 49.832 21.9653 49.8498 21.8398 49.8176C21.7143 49.7854 21.6062 49.7058 21.5382 49.5954C21.4703 49.4851 21.4478 49.3527 21.4756 49.2261C21.5034 49.0996 21.5792 48.9887 21.6871 48.917L35.3001 39.9929L21.0401 48.2259C20.9268 48.295 20.7908 48.3163 20.6619 48.2851C20.5329 48.2539 20.4217 48.1727 20.3526 48.0594C20.2835 47.9462 20.2622 47.8101 20.2934 47.6812C20.3247 47.5523 20.4058 47.441 20.5191 47.3719L33.4001 39.0889L19.5221 47.0999C19.4088 47.1634 19.2753 47.1803 19.1497 47.1471C19.0242 47.1139 18.9165 47.0331 18.8495 46.9219C18.7824 46.8107 18.7613 46.6777 18.7905 46.5512C18.8197 46.4247 18.8971 46.3145 19.0061 46.2439L28.9321 40.0029L19.0061 45.7329C18.8933 45.795 18.7609 45.8111 18.6365 45.778C18.5121 45.7449 18.4052 45.665 18.3382 45.5551C18.2712 45.4452 18.2492 45.3136 18.2767 45.1879C18.3043 45.0621 18.3793 44.9518 18.4861 44.8799L32.8651 35.6999L18.5241 43.9799C18.4103 44.0481 18.2741 44.0683 18.1455 44.036C18.0168 44.0038 17.9062 43.9217 17.8381 43.8079C17.7699 43.6942 17.7498 43.558 17.782 43.4293C17.8143 43.3007 17.8963 43.1901 18.0101 43.1219L26.0661 38.0999L18.0241 42.7429C17.911 42.8051 17.7783 42.8212 17.6536 42.7878C17.529 42.7543 17.4221 42.674 17.3553 42.5635C17.2885 42.4531 17.267 42.3211 17.2953 42.1952C17.3236 42.0693 17.3995 41.9592 17.5071 41.8879L30.8701 33.4339L17.2271 41.3109C17.1137 41.3798 16.9776 41.4007 16.8488 41.3692C16.72 41.3377 16.6089 41.2563 16.5401 41.1429C16.4713 41.0296 16.4503 40.8935 16.4818 40.7647C16.5133 40.6358 16.5947 40.5248 16.7081 40.4559L31.8181 30.8389L16.1491 39.8849C16.0353 39.9531 15.8991 39.9733 15.7705 39.941C15.6418 39.9088 15.5312 39.8267 15.4631 39.7129C15.3949 39.5992 15.3748 39.463 15.407 39.3343C15.4393 39.2057 15.5213 39.0951 15.6351 39.0269L25.3671 32.9709L15.1591 38.8639C15.0459 38.9252 14.9135 38.9406 14.7893 38.9067C14.6652 38.8728 14.5588 38.7924 14.4925 38.6821C14.4261 38.5718 14.4049 38.4402 14.4331 38.3146C14.4613 38.189 14.5369 38.0792 14.6441 38.0079L27.9441 29.6469L14.0061 37.6999C13.8933 37.762 13.7609 37.7781 13.6365 37.745C13.5121 37.7119 13.4052 37.632 13.3382 37.5221C13.2712 37.4122 13.2492 37.2806 13.2767 37.1549C13.3043 37.0291 13.3793 36.9188 13.4861 36.8469L31.5731 25.2549L12.7001 36.1509C12.5866 36.2125 12.4538 36.2277 12.3294 36.1936C12.2049 36.1594 12.0985 36.0784 12.0324 35.9676C11.9663 35.8568 11.9455 35.7247 11.9746 35.599C12.0036 35.4732 12.0801 35.3636 12.1881 35.2929L20.8771 29.9229L11.9371 35.0839C11.8238 35.1474 11.6903 35.1643 11.5647 35.1311C11.4392 35.0979 11.3315 35.0171 11.2645 34.9059C11.1974 34.7947 11.1763 34.6617 11.2055 34.5352C11.2347 34.4087 11.3121 34.2985 11.4211 34.2279L25.6321 25.2999L11.0841 33.6999C10.9704 33.7628 10.8368 33.7789 10.7114 33.745C10.5861 33.711 10.4788 33.6296 10.4124 33.518C10.346 33.4064 10.3257 33.2733 10.3557 33.1469C10.3856 33.0206 10.4636 32.9108 10.5731 32.8409L13.8051 30.8649L10.5651 32.7349C10.4522 32.7961 10.3201 32.8115 10.1962 32.778C10.0722 32.7444 9.96594 32.6644 9.89935 32.5547C9.83276 32.4449 9.81095 32.3137 9.83846 32.1883C9.86596 32.0628 9.94066 31.9528 10.0471 31.8809L27.3631 20.8469L9.77908 30.9999C9.66576 31.0597 9.53384 31.0736 9.41053 31.0389C9.28722 31.0042 9.18193 30.9235 9.11639 30.8135C9.05084 30.7034 9.03003 30.5724 9.05826 30.4474C9.08649 30.3225 9.16159 30.2131 9.26808 30.1419L15.0411 26.5919L9.36508 29.8669C9.252 29.9291 9.11925 29.9452 8.99461 29.9117C8.86996 29.8783 8.76307 29.798 8.69629 29.6875C8.62952 29.5771 8.60802 29.4451 8.63631 29.3192C8.66461 29.1933 8.74048 29.0832 8.84808 29.0119L23.7171 19.5999L8.88608 28.1669C8.77243 28.2298 8.63878 28.2459 8.51342 28.212C8.38807 28.178 8.28084 28.0966 8.21444 27.985C8.14805 27.8734 8.12768 27.7403 8.15767 27.6139C8.18765 27.4876 8.26562 27.3778 8.37508 27.3079L10.3451 26.1079L8.65208 27.0839C8.53903 27.1436 8.40744 27.1576 8.28433 27.1233C8.16123 27.0889 8.05597 27.0087 7.99017 26.8991C7.92437 26.7895 7.90304 26.6589 7.93055 26.5341C7.95805 26.4093 8.03232 26.2997 8.13808 26.2279L17.8181 20.1859L8.42608 25.5999C8.31287 25.6646 8.17886 25.6826 8.05262 25.6499C7.92639 25.6172 7.81792 25.5364 7.75036 25.4249C7.68279 25.3134 7.66146 25.1799 7.69093 25.0529C7.72039 24.9258 7.79832 24.8153 7.90808 24.7449L20.7351 16.6079L8.30008 23.7929C8.18716 23.8572 8.05364 23.875 7.92782 23.8426C7.802 23.8101 7.69376 23.7299 7.62603 23.619C7.5583 23.5081 7.5364 23.3752 7.56497 23.2485C7.59354 23.1217 7.67033 23.0111 7.77908 22.9399L21.9871 13.7789L8.33508 21.6599C8.22216 21.7242 8.08864 21.742 7.96282 21.7096C7.837 21.6771 7.72876 21.5969 7.66103 21.486C7.5933 21.3751 7.5714 21.2422 7.59997 21.1155C7.62854 20.9887 7.70533 20.8781 7.81408 20.8069L19.6001 13.2279L8.57308 19.5999C8.46051 19.6652 8.32693 19.684 8.20072 19.6524C8.0745 19.6207 7.96559 19.5412 7.89711 19.4305C7.82864 19.3199 7.806 19.1869 7.834 19.0598C7.86201 18.9327 7.93845 18.8216 8.04708 18.7499L20.9891 10.1809L9.17908 16.9939C9.06646 17.0551 8.93466 17.0706 8.81089 17.0374C8.68713 17.0042 8.58085 16.9247 8.514 16.8154C8.44714 16.706 8.42482 16.5752 8.45163 16.4499C8.47844 16.3246 8.55235 16.2143 8.65808 16.1419L15.2131 11.9189L9.88608 14.9939C9.77323 15.0596 9.63919 15.0785 9.5126 15.0466C9.38601 15.0147 9.27691 14.9345 9.20861 14.8233C9.14031 14.712 9.11824 14.5785 9.14711 14.4512C9.17597 14.3238 9.25349 14.2129 9.36308 14.1419L14.0141 11.1259L10.8581 12.9469C10.7461 13.009 10.6145 13.0257 10.4905 12.9936C10.3665 12.9615 10.2596 12.883 10.1917 12.7744C10.1239 12.6658 10.1003 12.5353 10.1259 12.4098C10.1514 12.2843 10.2242 12.1734 10.3291 12.0999L15.2001 8.82094L12.4801 10.3919C12.3703 10.4537 12.2412 10.4718 12.1187 10.4425C11.9961 10.4132 11.8892 10.3388 11.8191 10.234C11.7491 10.1293 11.7213 10.0019 11.7411 9.87752C11.7609 9.7531 11.827 9.64075 11.9261 9.56294L16.1461 6.32894C16.0702 6.31943 15.9976 6.29232 15.9341 6.24978C15.8705 6.20725 15.8178 6.15046 15.7801 6.08394C15.7138 5.9691 15.6958 5.83263 15.7301 5.70454C15.7645 5.57646 15.8482 5.46725 15.9631 5.40094L21.6521 2.11594C21.7619 2.05415 21.891 2.03609 22.0135 2.06537C22.136 2.09465 22.243 2.16911 22.313 2.27387C22.383 2.37862 22.4109 2.50594 22.3911 2.63036C22.3713 2.75479 22.3052 2.86714 22.2061 2.94494L18.6221 5.68794L27.1881 0.741942C27.3005 0.67166 27.4363 0.648927 27.5655 0.678746C27.6947 0.708564 27.8068 0.788491 27.8771 0.900942C27.9474 1.01339 27.9701 1.14916 27.9403 1.27837C27.9105 1.40758 27.8305 1.51966 27.7181 1.58994L22.8481 4.87094L30.2291 0.608942C30.3422 0.539588 30.4782 0.518009 30.6073 0.548953C30.7363 0.579896 30.8477 0.660827 30.9171 0.773942C30.9864 0.887057 31.008 1.02309 30.9771 1.15211C30.9461 1.28114 30.8652 1.39259 30.7521 1.46194L26.1001 4.47894L32.5141 0.778942C32.6269 0.7169 32.7593 0.700763 32.8837 0.733893C33.0081 0.767024 33.115 0.846866 33.182 0.956796C33.249 1.06673 33.271 1.19827 33.2435 1.32403C33.2159 1.4498 33.1409 1.56009 33.0341 1.63194L26.4781 5.85294L34.6211 1.15294C34.7337 1.08767 34.8672 1.06886 34.9935 1.1005C35.1197 1.13214 35.2286 1.21174 35.2971 1.32239C35.3655 1.43304 35.3882 1.56602 35.3602 1.6931C35.3322 1.82017 35.2557 1.93132 35.1471 2.00294L22.2001 10.5709L37.2001 1.91294C37.2562 1.87873 37.3184 1.8559 37.3833 1.84576C37.4482 1.83561 37.5145 1.83835 37.5783 1.85381C37.6422 1.86927 37.7023 1.89715 37.7554 1.93587C37.8085 1.97458 37.8534 2.02337 37.8876 2.07944C37.9218 2.13552 37.9446 2.19778 37.9548 2.26268C37.9649 2.32757 37.9622 2.39384 37.9467 2.45768C37.9313 2.52152 37.9034 2.58169 37.8647 2.63475C37.826 2.68781 37.7772 2.73273 37.7211 2.76694L25.9391 10.3419L39.1391 2.72494C39.2516 2.66533 39.3827 2.6509 39.5055 2.68461C39.6283 2.71831 39.7336 2.7976 39.7999 2.9063C39.8663 3.015 39.8886 3.14491 39.8625 3.26954C39.8363 3.39417 39.7636 3.50411 39.6591 3.57694L25.4491 12.7359L41.0291 3.73594C41.1423 3.67124 41.2763 3.65333 41.4025 3.68603C41.5288 3.71872 41.6372 3.79944 41.7048 3.91097C41.7724 4.0225 41.7937 4.15601 41.7642 4.28303C41.7348 4.41006 41.6569 4.52055 41.5471 4.59094L28.7181 12.7329L42.5551 4.74494C42.6685 4.68251 42.8016 4.66646 42.9266 4.70018C43.0515 4.73389 43.1585 4.81475 43.2251 4.92573C43.2917 5.03672 43.3126 5.1692 43.2835 5.29531C43.2544 5.42142 43.1776 5.53133 43.0691 5.60194L33.3891 11.6439L43.7471 5.66294C43.8607 5.6001 43.9944 5.58395 44.1198 5.61791C44.2451 5.65187 44.3523 5.73327 44.4187 5.84489C44.4851 5.95651 44.5055 6.08958 44.4755 6.21595C44.4455 6.34231 44.3675 6.45205 44.2581 6.52194L42.2881 7.72794L44.5931 6.39994C44.7066 6.33138 44.8427 6.31073 44.9714 6.34251C45.1002 6.3743 45.211 6.45593 45.2796 6.56944C45.3481 6.68296 45.3688 6.81905 45.337 6.9478C45.3052 7.07654 45.2236 7.18738 45.1101 7.25594L30.2331 16.6649L45.8521 7.64794C45.9657 7.5851 46.0994 7.56895 46.2248 7.60291C46.3501 7.63687 46.4573 7.71827 46.5237 7.82989C46.5901 7.94151 46.6105 8.07458 46.5805 8.20095C46.5505 8.32731 46.4725 8.43705 46.3631 8.50694L40.6171 12.0399L46.6541 8.55494C46.7671 8.49178 46.9002 8.4749 47.0254 8.50787C47.1506 8.54084 47.2581 8.62109 47.3253 8.73172C47.3926 8.84235 47.4143 8.97474 47.3859 9.10105C47.3575 9.22736 47.2812 9.33773 47.1731 9.40894L29.8561 20.4439L47.8191 10.0729C47.9331 10.0052 48.0694 9.9855 48.198 10.0182C48.3265 10.0509 48.4368 10.1334 48.5046 10.2474C48.5724 10.3615 48.592 10.4978 48.5593 10.6263C48.5266 10.7549 48.4441 10.8652 48.3301 10.9329L45.0851 12.9169L48.4271 10.9869C48.5406 10.9215 48.6753 10.9032 48.8022 10.9361C48.929 10.9689 49.0379 11.0502 49.1054 11.1626C49.1729 11.2749 49.1936 11.4092 49.1631 11.5366C49.1325 11.6641 49.0532 11.7744 48.9421 11.8439L34.7251 20.7719L49.2401 12.3929C49.3537 12.329 49.4878 12.3119 49.6138 12.3453C49.7398 12.3787 49.8477 12.4601 49.9146 12.572C49.9816 12.6839 50.0021 12.8175 49.9719 12.9443C49.9417 13.0711 49.8632 13.1812 49.7531 13.2509L41.0651 18.6199L49.8191 13.5659C49.9322 13.4996 50.0669 13.4804 50.1941 13.5125C50.3213 13.5445 50.4307 13.6253 50.499 13.7373C50.5672 13.8493 50.5886 13.9836 50.5587 14.1113C50.5288 14.239 50.4499 14.3499 50.3391 14.4199L32.2491 26.0099L50.5631 15.4369C50.6764 15.3735 50.8099 15.3566 50.9355 15.3898C51.061 15.423 51.1687 15.5038 51.2357 15.615C51.3027 15.7262 51.3239 15.8592 51.2947 15.9857C51.2654 16.1122 51.1881 16.2224 51.0791 16.2929L37.7931 24.6419L51.0411 16.9929C51.1549 16.9247 51.2911 16.9044 51.4199 16.9365C51.5486 16.9687 51.6593 17.0507 51.7276 17.1644C51.7959 17.2782 51.8162 17.4145 51.784 17.5432C51.7519 17.672 51.6699 17.7827 51.5561 17.8509L41.8151 23.9119L51.3551 18.4039C51.4112 18.3699 51.4735 18.3472 51.5384 18.3372C51.6033 18.3272 51.6696 18.3301 51.7334 18.3457C51.7972 18.3613 51.8573 18.3893 51.9102 18.4281C51.9632 18.4669 52.008 18.5158 52.0421 18.5719C52.0762 18.6281 52.0989 18.6904 52.1089 18.7553C52.1189 18.8202 52.116 18.8864 52.1004 18.9502C52.0848 19.014 52.0568 19.0741 52.0179 19.1271C51.9791 19.1801 51.9302 19.2249 51.8741 19.2589L36.7561 28.8809L51.6221 20.2999C51.7353 20.2352 51.8693 20.2173 51.9955 20.25C52.1218 20.2827 52.2303 20.3634 52.2978 20.475C52.3654 20.5865 52.3867 20.72 52.3572 20.847C52.3278 20.9741 52.2499 21.0846 52.1401 21.1549L38.7761 29.6129L51.7131 22.1449C51.8266 22.0795 51.9613 22.0612 52.0882 22.0941C52.215 22.1269 52.3239 22.2082 52.3914 22.3206C52.4589 22.4329 52.4796 22.5672 52.4491 22.6946C52.4185 22.8221 52.3392 22.9324 52.2281 23.0019L44.1871 28.0019L51.6651 23.6839C51.7782 23.6176 51.9129 23.5984 52.0401 23.6305C52.1673 23.6625 52.2767 23.7433 52.345 23.8553C52.4132 23.9673 52.4346 24.1016 52.4047 24.2293C52.3748 24.357 52.2959 24.4679 52.1851 24.5379L37.8001 33.7289L51.4001 25.8769C51.5132 25.8148 51.6459 25.7987 51.7706 25.8321C51.8952 25.8656 52.0021 25.9459 52.0689 26.0564C52.1357 26.1668 52.1572 26.2988 52.1289 26.4247C52.1006 26.5506 52.0247 26.6607 51.9171 26.7319L42.0001 32.9719L50.9901 27.7799C51.1033 27.7109 51.2394 27.6896 51.3683 27.7208C51.4973 27.752 51.6085 27.8332 51.6776 27.9464C51.7467 28.0597 51.768 28.1957 51.7367 28.3247C51.7055 28.4536 51.6243 28.5649 51.5111 28.6339L38.6271 36.9179L50.1571 30.2619C50.2696 30.199 50.402 30.182 50.5267 30.2143C50.6514 30.2467 50.7589 30.3259 50.8266 30.4356C50.8943 30.5452 50.9171 30.6768 50.8901 30.8028C50.8632 30.9288 50.7887 31.0395 50.6821 31.1119L37.0681 40.0309L48.6001 33.3759C48.7133 33.3155 48.8455 33.3009 48.9692 33.3352C49.0929 33.3694 49.1987 33.45 49.2647 33.5602C49.3306 33.6703 49.3516 33.8016 49.3234 33.9269C49.2952 34.0521 49.2199 34.1617 49.1131 34.2329L47.5261 35.2199C47.615 35.2168 47.7031 35.2371 47.7816 35.2789C47.8601 35.3207 47.9261 35.3824 47.9731 35.4579C48.0413 35.5691 48.0634 35.7025 48.0346 35.8298C48.0059 35.957 47.9285 36.068 47.8191 36.1389L41.6191 40.1749L44.1441 38.7179C44.2566 38.656 44.3887 38.6397 44.5129 38.6725C44.6372 38.7053 44.744 38.7847 44.8113 38.8941C44.8786 39.0036 44.9011 39.1347 44.8743 39.2604C44.8474 39.386 44.7732 39.4965 44.6671 39.5689L42.7191 40.8409C42.8298 40.8288 42.9414 40.8539 43.0362 40.9124C43.1311 40.9708 43.2036 41.0593 43.2424 41.1637C43.2813 41.2681 43.2841 41.3825 43.2505 41.4887C43.217 41.5949 43.1489 41.6868 43.0571 41.7499L41.1251 43.0739L41.6051 42.7979C41.7142 42.736 41.8426 42.7173 41.9648 42.7456C42.087 42.774 42.1941 42.8472 42.2649 42.9508C42.3356 43.0544 42.3648 43.1808 42.3467 43.3049C42.3286 43.4291 42.2645 43.5419 42.1671 43.6209L38.9001 46.2299L40.9661 45.0379C41.0711 44.9796 41.1937 44.961 41.3113 44.9856C41.4289 45.0102 41.5337 45.0763 41.6066 45.1718C41.6795 45.2674 41.7155 45.386 41.708 45.5059C41.7006 45.6259 41.6502 45.7391 41.5661 45.8249L38.4781 48.894C38.4841 48.903 38.4911 48.9139 38.4971 48.9249C38.5632 49.0396 38.5811 49.1757 38.547 49.3036C38.5129 49.4314 38.4295 49.5405 38.3151 49.6069L36.9331 50.407C36.8281 50.4653 36.7055 50.4839 36.5879 50.4593C36.4703 50.4347 36.3654 50.3686 36.2926 50.2731C36.2197 50.1775 36.1837 50.0589 36.1912 49.939C36.1986 49.819 36.249 49.7058 36.3331 49.6199L38.1331 47.8279L33.6531 50.41C33.544 50.4719 33.4156 50.4906 33.2934 50.4623C33.1712 50.4339 33.064 50.3607 32.9933 50.2571C32.9225 50.1535 32.8933 50.0271 32.9114 49.903C32.9296 49.7788 32.9937 49.666 33.0911 49.587L36.3541 46.9799L30.4001 50.416C30.2883 50.4781 30.1569 50.4951 30.033 50.4634C29.9091 50.4316 29.8021 50.3536 29.7339 50.2454C29.6658 50.1371 29.6417 50.0069 29.6667 49.8814C29.6916 49.756 29.7637 49.6449 29.8681 49.5709L31.8051 48.2429L28.0361 50.4199C27.9232 50.4856 27.7892 50.5045 27.6626 50.4726C27.536 50.4407 27.4269 50.3605 27.3586 50.2493C27.2903 50.138 27.2682 50.0045 27.2971 49.8772C27.326 49.7499 27.4035 49.6389 27.5131 49.568L28.8131 48.721L25.8621 50.421C25.7494 50.4839 25.6166 50.5009 25.4917 50.4682C25.3668 50.4355 25.2593 50.3558 25.1919 50.2457C25.1244 50.1356 25.1022 50.0036 25.1298 49.8775C25.1574 49.7513 25.2328 49.6408 25.3401 49.569L31.5461 45.5299L23.0661 50.43C22.9902 50.4753 22.9035 50.4995 22.8151 50.5Z" fill="#FCB01A"/>
<path d="M26.3126 53.47C26.2076 53.47 26.1053 53.437 26.0202 53.3756C25.9351 53.3143 25.8714 53.2277 25.8382 53.1281C25.805 53.0286 25.804 52.9211 25.8353 52.8209C25.8666 52.7208 25.9286 52.633 26.0126 52.57L26.5616 52.145L24.3846 53.4C24.2764 53.4618 24.149 53.481 24.0275 53.4538C23.9059 53.4267 23.7988 53.3551 23.7272 53.2531C23.6557 53.1511 23.6247 53.0261 23.6405 52.9025C23.6563 52.779 23.7177 52.6657 23.8126 52.585L25.3216 51.318L21.7156 53.4C21.6077 53.4604 21.4812 53.4787 21.3606 53.4513C21.24 53.4239 21.1339 53.3528 21.0626 53.2518C20.9914 53.1507 20.9602 53.0268 20.9749 52.904C20.9897 52.7813 21.0494 52.6683 21.1426 52.587L22.7426 51.227L19.5366 53.077C19.4291 53.1376 19.303 53.1563 19.1826 53.1295C19.0622 53.1028 18.9559 53.0325 18.8842 52.9321C18.8125 52.8317 18.7804 52.7084 18.7942 52.5858C18.8079 52.4632 18.8664 52.35 18.9586 52.268L20.3526 51.055L18.5656 52.086C18.4576 52.1484 18.3302 52.1681 18.2085 52.1414C18.0867 52.1148 17.9793 52.0435 17.9073 51.9417C17.8353 51.84 17.8039 51.715 17.8193 51.5912C17.8347 51.4675 17.8958 51.354 17.9906 51.273L18.1796 51.112C18.0756 51.1424 17.9646 51.1383 17.8632 51.1002C17.7618 51.0621 17.6756 50.9921 17.6174 50.9008C17.5592 50.8094 17.5322 50.7017 17.5405 50.5937C17.5489 50.4857 17.592 50.3833 17.6636 50.302L18.2926 49.587C18.2035 49.5547 18.1254 49.4978 18.0675 49.4229C18.0095 49.348 17.974 49.2582 17.9651 49.1639C17.9562 49.0696 17.9742 48.9747 18.0172 48.8903C18.0601 48.8059 18.1261 48.7354 18.2076 48.687L20.0646 47.614C20.1672 47.5545 20.2877 47.5335 20.4044 47.5546C20.5212 47.5758 20.6266 47.6377 20.7018 47.7295C20.7771 47.8212 20.8173 47.9367 20.8152 48.0553C20.8131 48.1739 20.769 48.288 20.6906 48.377L20.4216 48.684L22.2996 47.6C22.4074 47.5389 22.534 47.52 22.655 47.5469C22.776 47.5739 22.8826 47.6448 22.9542 47.746C23.0259 47.8471 23.0574 47.9713 23.0426 48.0943C23.0279 48.2174 22.968 48.3306 22.8746 48.412L22.7446 48.523L24.3446 47.6C24.452 47.5394 24.5781 47.5207 24.6985 47.5475C24.8189 47.5742 24.9252 47.6446 24.9969 47.7449C25.0686 47.8453 25.1007 47.9686 25.087 48.0912C25.0732 48.2138 25.0147 48.327 24.9226 48.409L23.5226 49.623L27.0346 47.6C27.1425 47.5396 27.2689 47.5213 27.3895 47.5487C27.5101 47.5761 27.6162 47.6472 27.6875 47.7483C27.7587 47.8493 27.79 47.9732 27.7752 48.096C27.7604 48.2188 27.7007 48.3317 27.6076 48.413L26.0076 49.772L29.7706 47.6C29.8787 47.5382 30.0061 47.519 30.1277 47.5462C30.2493 47.5733 30.3563 47.6449 30.4279 47.7469C30.4995 47.8489 30.5304 47.9739 30.5146 48.0975C30.4988 48.2211 30.4375 48.3343 30.3426 48.415L28.8326 49.683L32.4406 47.6C32.5503 47.5374 32.6796 47.5186 32.8026 47.5475C32.9256 47.5763 33.0331 47.6507 33.1035 47.7555C33.1739 47.8604 33.202 47.988 33.1822 48.1128C33.1624 48.2375 33.096 48.3502 32.9966 48.428L32.4476 48.853L34.6196 47.6C34.7256 47.5204 34.859 47.4863 34.9903 47.505C35.1215 47.5238 35.24 47.5939 35.3196 47.7C35.3991 47.8061 35.4333 47.9394 35.4145 48.0707C35.3958 48.202 35.3256 48.3204 35.2196 48.4L33.0676 50.449L37.9906 47.6C38.098 47.5394 38.2241 47.5207 38.3445 47.5475C38.4649 47.5742 38.5712 47.6446 38.6429 47.7449C38.7146 47.8453 38.7467 47.9686 38.733 48.0912C38.7192 48.2138 38.6607 48.327 38.5686 48.409L36.8046 49.943L40.3866 47.876C40.493 47.815 40.6182 47.7953 40.7383 47.8207C40.8584 47.846 40.9649 47.9146 41.0377 48.0135C41.1104 48.1123 41.1443 48.2344 41.1328 48.3566C41.1214 48.4787 41.0654 48.5924 40.9756 48.676L39.2256 50.29L41.4696 48.995C41.5711 48.937 41.6898 48.9164 41.805 48.9368C41.9201 48.9573 42.0245 49.0174 42.0999 49.1069C42.1753 49.1963 42.2169 49.3093 42.2176 49.4263C42.2183 49.5432 42.1779 49.6567 42.1036 49.747L40.9456 51.147L41.6176 50.759C41.6745 50.7228 41.7381 50.6985 41.8046 50.6876C41.8712 50.6766 41.9393 50.6793 42.0048 50.6953C42.0702 50.7114 42.1318 50.7405 42.1858 50.7809C42.2397 50.8214 42.2849 50.8724 42.3187 50.9307C42.3524 50.9891 42.374 51.0537 42.3822 51.1207C42.3903 51.1876 42.3848 51.2555 42.366 51.3203C42.3472 51.385 42.3155 51.4453 42.2728 51.4975C42.2301 51.5497 42.1773 51.5927 42.1176 51.624L39.0246 53.4C38.923 53.458 38.8043 53.4786 38.6892 53.4582C38.574 53.4377 38.4696 53.3776 38.3942 53.2882C38.3189 53.1987 38.2772 53.0857 38.2765 52.9687C38.2759 52.8518 38.3162 52.7383 38.3906 52.648L39.5486 51.254L35.8296 53.4C35.7231 53.461 35.5979 53.4807 35.4778 53.4553C35.3578 53.43 35.2512 53.3614 35.1785 53.2625C35.1057 53.1637 35.0718 53.0416 35.0833 52.9194C35.0947 52.7973 35.1507 52.6836 35.2406 52.6L36.9906 50.985L32.8086 53.4C32.7011 53.4615 32.5746 53.4809 32.4536 53.4545C32.3326 53.4281 32.2258 53.3577 32.1537 53.257C32.0816 53.1563 32.0495 53.0324 32.0635 52.9094C32.0775 52.7864 32.1367 52.6729 32.2296 52.591L33.9946 51.057L29.9346 53.4C29.828 53.4671 29.7001 53.4916 29.5763 53.4684C29.4525 53.4453 29.342 53.3764 29.2669 53.2753C29.1917 53.1743 29.1575 53.0486 29.1709 52.9234C29.1844 52.7982 29.2446 52.6827 29.3396 52.6L31.4906 50.551L26.5626 53.4C26.487 53.4453 26.4006 53.4694 26.3126 53.47Z" fill="#F7D97C"/>
<path d="M37.6315 34.12C37.5395 34.1201 37.4493 34.0947 37.3707 34.0467C37.2922 33.9987 37.2284 33.93 37.1865 33.8481C37.1445 33.7662 37.1259 33.6744 37.1328 33.5826C37.1397 33.4908 37.1718 33.4027 37.2255 33.328L38.4845 31.575L35.3245 33.4C35.2103 33.4598 35.0773 33.4731 34.9535 33.4372C34.8296 33.4013 34.7244 33.3189 34.6599 33.2072C34.5954 33.0956 34.5764 32.9633 34.6071 32.838C34.6378 32.7128 34.7157 32.6042 34.8245 32.535L39.9955 29.55C40.0945 29.4932 40.2099 29.472 40.3225 29.4898C40.4352 29.5076 40.5384 29.5634 40.615 29.6479C40.6916 29.7325 40.737 29.8407 40.7437 29.9545C40.7503 30.0684 40.7178 30.1812 40.6515 30.274L39.3935 32.026L40.6135 31.326C40.7283 31.2608 40.8642 31.2436 40.9917 31.2782C41.1191 31.3128 41.2277 31.3963 41.2937 31.5107C41.3597 31.625 41.3778 31.7609 41.3441 31.8885C41.3103 32.0161 41.2274 32.1253 41.1135 32.192L37.8815 34.059C37.8051 34.1013 37.7188 34.1224 37.6315 34.12Z" fill="#F7D97C"/>
<path d="M35.5567 25.9151C35.4574 25.9151 35.3603 25.8855 35.2779 25.8302C35.1955 25.7748 35.1314 25.6961 35.0939 25.6042C35.0563 25.5123 35.047 25.4112 35.0671 25.314C35.0872 25.2167 35.1358 25.1277 35.2067 25.0581L37.8777 22.4501L36.3077 23.3561C36.2011 23.4189 36.0751 23.44 35.954 23.4153C35.8328 23.3906 35.7251 23.3219 35.6516 23.2225C35.5782 23.123 35.5442 22.9999 35.5562 22.8768C35.5682 22.7538 35.6254 22.6395 35.7167 22.5561L36.7507 21.5901L36.1217 21.9531C36.0166 22.0115 35.8941 22.0301 35.7765 22.0055C35.6588 21.9809 35.554 21.9148 35.4811 21.8192C35.4083 21.7237 35.3723 21.6051 35.3797 21.4851C35.3872 21.3652 35.4376 21.252 35.5217 21.1661L36.8567 19.8381L35.5927 20.5671C35.4862 20.6273 35.3614 20.6463 35.2418 20.6207C35.1223 20.595 35.0163 20.5264 34.9439 20.4279C34.8715 20.3294 34.8377 20.2077 34.8489 20.086C34.8601 19.9642 34.9155 19.8508 35.0047 19.7671L37.0327 17.9071L34.6567 19.2781C34.5504 19.3345 34.4273 19.3506 34.31 19.3236C34.1928 19.2965 34.0892 19.2281 34.0184 19.1309C33.9475 19.0336 33.9141 18.9141 33.9242 18.7942C33.9344 18.6743 33.9875 18.5621 34.0737 18.4781L36.3627 16.4311L33.2927 18.2001C33.1831 18.2623 33.0541 18.2809 32.9314 18.2521C32.8087 18.2232 32.7015 18.1492 32.6311 18.0446C32.5607 17.9401 32.5324 17.8129 32.5518 17.6884C32.5711 17.5639 32.6368 17.4513 32.7357 17.3731L33.4027 16.8551L32.0377 17.6431C31.9336 17.7033 31.8113 17.724 31.6933 17.7014C31.5752 17.6787 31.4693 17.6144 31.3948 17.52C31.3204 17.4256 31.2824 17.3076 31.2879 17.1875C31.2934 17.0674 31.3419 16.9533 31.4247 16.8661L33.0007 15.2051L29.0277 17.5001C28.9134 17.5599 28.7804 17.5732 28.6566 17.5373C28.5327 17.5014 28.4276 17.419 28.363 17.3073C28.2985 17.1957 28.2796 17.0634 28.3103 16.9381C28.3409 16.8129 28.4188 16.7043 28.5277 16.6351L35.4747 12.6251C35.5786 12.5657 35.7004 12.5455 35.818 12.5683C35.9355 12.5911 36.041 12.6553 36.1152 12.7492C36.1895 12.8432 36.2275 12.9607 36.2224 13.0803C36.2174 13.1999 36.1696 13.3138 36.0877 13.4011L34.5157 15.0621L39.2327 12.3381C39.3422 12.2759 39.4713 12.2574 39.5939 12.2862C39.7166 12.315 39.8238 12.3891 39.8942 12.4936C39.9646 12.5981 39.993 12.7254 39.9736 12.8499C39.9542 12.9744 39.8885 13.087 39.7897 13.1651L39.1247 13.6821L40.0457 13.1501C40.1528 13.0883 40.2791 13.0683 40.4001 13.0942C40.5212 13.12 40.6283 13.1898 40.7008 13.2901C40.7734 13.3904 40.8061 13.514 40.7928 13.637C40.7795 13.76 40.721 13.8737 40.6287 13.9561L38.3397 16.0001L40.4807 14.7641C40.5871 14.704 40.7119 14.685 40.8315 14.7106C40.951 14.7363 41.057 14.8049 41.1294 14.9034C41.2019 15.0019 41.2357 15.1235 41.2245 15.2453C41.2133 15.367 41.1578 15.4805 41.0687 15.5641L39.0407 17.4241L39.6817 17.0551C39.7868 16.9944 39.9104 16.9741 40.0295 16.9978C40.1485 17.0215 40.2549 17.0878 40.3287 17.1841C40.4023 17.2806 40.4383 17.4005 40.43 17.5216C40.4218 17.6427 40.3697 17.7566 40.2837 17.8421L38.9477 19.1711L40.0477 18.5341C40.1542 18.4714 40.2802 18.4503 40.4013 18.475C40.5225 18.4996 40.6302 18.5683 40.7037 18.6678C40.7772 18.7673 40.8112 18.8904 40.7992 19.0135C40.7872 19.1365 40.73 19.2508 40.6387 19.3341L39.6057 20.2971L40.8247 19.5971C40.9301 19.5363 41.054 19.5161 41.1733 19.5401C41.2926 19.5642 41.399 19.6309 41.4726 19.7279C41.5462 19.8248 41.582 19.9452 41.5731 20.0666C41.5643 20.1879 41.5115 20.3019 41.4247 20.3871L38.7557 22.9901L43.0067 20.5361C43.1209 20.4764 43.2539 20.463 43.3777 20.499C43.5016 20.5349 43.6068 20.6173 43.6713 20.729C43.7358 20.8406 43.7547 20.9729 43.7241 21.0981C43.6934 21.2234 43.6155 21.332 43.5067 21.4011L35.8067 25.8481C35.7309 25.8925 35.6445 25.9157 35.5567 25.9151Z" fill="#F7D97C"/>
<path d="M27.2009 12.2191C27.1091 12.219 27.0191 12.1937 26.9407 12.1459C26.8624 12.0981 26.7987 12.0297 26.7567 11.9481C26.7147 11.8665 26.6959 11.7749 26.7024 11.6834C26.709 11.5918 26.7406 11.5038 26.7939 11.4291L27.7199 10.1291C27.6483 10.0858 27.589 10.0249 27.5479 9.95207C27.4815 9.83736 27.4634 9.70097 27.4975 9.5729C27.5316 9.44483 27.6152 9.33555 27.7299 9.26907L28.8499 8.62307C28.9487 8.56617 29.064 8.54477 29.1767 8.56242C29.2894 8.58008 29.3927 8.63573 29.4694 8.72014C29.5461 8.80455 29.5916 8.91265 29.5984 9.0265C29.6053 9.14035 29.5729 9.25311 29.5069 9.34607L28.9469 10.1301L31.3469 8.74307C31.4611 8.6833 31.5941 8.66998 31.7179 8.70592C31.8418 8.74185 31.947 8.82424 32.0115 8.93589C32.076 9.04754 32.0949 9.17981 32.0643 9.30507C32.0336 9.43033 31.9557 9.53889 31.8469 9.60807L27.4469 12.1471C27.3727 12.1925 27.2878 12.2173 27.2009 12.2191Z" fill="#F7D97C"/>
<path d="M30.3894 37.4401C30.2845 37.4401 30.1822 37.4071 30.0971 37.3457C30.0119 37.2844 29.9483 37.1978 29.9151 37.0982C29.8819 36.9987 29.8809 36.8912 29.9122 36.791C29.9435 36.6909 30.0055 36.6031 30.0894 36.5401L33.0244 34.3491L28.3824 37.0281C28.2726 37.0912 28.1429 37.1102 28.0196 37.0813C27.8963 37.0525 27.7885 36.9779 27.718 36.8726C27.6476 36.7674 27.6197 36.6393 27.64 36.5143C27.6603 36.3893 27.7273 36.2767 27.8274 36.1991L33.8364 31.5821L27.7204 35.1121C27.6079 35.1741 27.4758 35.1904 27.3516 35.1576C27.2274 35.1248 27.1205 35.0454 27.0532 34.936C26.986 34.8265 26.9634 34.6953 26.9903 34.5697C27.0171 34.444 27.0913 34.3335 27.1974 34.2611L27.9974 33.7421L27.0604 34.2831C26.9485 34.3461 26.8166 34.3635 26.6921 34.3319C26.5677 34.3002 26.4601 34.2219 26.3919 34.1131C26.3236 34.0043 26.2998 33.8735 26.3254 33.7476C26.351 33.6217 26.4241 33.5106 26.5294 33.4371L32.0004 29.7331L25.5264 33.4711C25.4258 33.5286 25.3084 33.5493 25.1942 33.5298C25.08 33.5103 24.9761 33.4517 24.9003 33.3641C24.8245 33.2765 24.7815 33.1653 24.7786 33.0495C24.7757 32.9336 24.8131 32.8204 24.8844 32.7291L26.5514 30.6131L20.9514 33.8481C20.8443 33.9091 20.7184 33.9283 20.598 33.9021C20.4775 33.8759 20.371 33.8062 20.2988 33.7063C20.2266 33.6063 20.1939 33.4832 20.207 33.3607C20.22 33.2381 20.2779 33.1246 20.3694 33.0421L22.7164 30.9511L19.7604 32.6571C19.6517 32.7192 19.5236 32.7383 19.4015 32.7105C19.2793 32.6827 19.1721 32.6101 19.101 32.507C19.0298 32.4039 18.9999 32.2779 19.0173 32.1538C19.0346 32.0298 19.0978 31.9168 19.1944 31.8371L20.5154 30.7601L19.4314 31.3861C19.3242 31.4482 19.1976 31.4682 19.0764 31.4423C18.9553 31.4163 18.848 31.3463 18.7755 31.2458C18.703 31.1453 18.6704 31.0214 18.6841 30.8982C18.6977 30.775 18.7567 30.6613 18.8494 30.5791L20.7494 28.8921L20.3174 29.1411C20.2121 29.2011 20.0887 29.2207 19.97 29.1965C19.8513 29.1722 19.7454 29.1057 19.6721 29.0093C19.5987 28.9128 19.5629 28.793 19.5712 28.6722C19.5796 28.5513 19.6315 28.4376 19.7174 28.3521L21.0284 27.0631L20.0354 27.6361C19.9309 27.6957 19.8083 27.7156 19.6903 27.6921C19.5723 27.6687 19.4666 27.6034 19.3929 27.5083C19.3191 27.4133 19.282 27.2948 19.2886 27.1746C19.2951 27.0544 19.3448 26.9406 19.4284 26.8541L21.0454 25.2001L19.0824 26.3331C18.9752 26.3943 18.8491 26.4135 18.7285 26.3873C18.6079 26.361 18.5012 26.291 18.4291 26.1909C18.357 26.0907 18.3244 25.9673 18.3378 25.8446C18.3512 25.7219 18.4094 25.6084 18.5014 25.5261L20.2014 24.0181L17.4884 25.5831C17.3772 25.6466 17.2459 25.6649 17.1216 25.6344C16.9972 25.6039 16.8893 25.5269 16.8201 25.4192C16.7509 25.3115 16.7256 25.1814 16.7495 25.0556C16.7733 24.9298 16.8446 24.818 16.9484 24.7431L25.5484 18.6371L16.3104 23.9661C16.1983 24.03 16.0658 24.0481 15.9407 24.0166C15.8156 23.985 15.7075 23.9063 15.639 23.7969C15.5706 23.6875 15.547 23.5559 15.5734 23.4296C15.5998 23.3033 15.6739 23.192 15.7804 23.1191L21.0004 19.6001L16.3104 22.3001C16.2546 22.3347 16.1925 22.358 16.1277 22.3686C16.0629 22.3792 15.9967 22.377 15.9327 22.362C15.8688 22.347 15.8084 22.3195 15.7551 22.2812C15.7018 22.2429 15.6565 22.1944 15.6219 22.1386C15.5873 22.0828 15.5641 22.0207 15.5534 21.9559C15.5428 21.8911 15.5451 21.8249 15.5601 21.7609C15.5751 21.697 15.6025 21.6366 15.6408 21.5833C15.6792 21.53 15.7276 21.4847 15.7834 21.4501L19.9054 18.7221C19.805 18.7091 19.7109 18.666 19.6356 18.5984C19.5603 18.5308 19.5072 18.4419 19.4835 18.3435C19.4597 18.2451 19.4664 18.1418 19.5027 18.0473C19.5389 17.9527 19.603 17.8714 19.6864 17.8141L21.9124 16.2681L20.2464 17.2301C20.147 17.2843 20.0322 17.3032 19.9207 17.2837C19.8092 17.2641 19.7076 17.2073 19.6325 17.1225C19.5575 17.0378 19.5135 16.93 19.5076 16.8169C19.5018 16.7039 19.5345 16.5922 19.6004 16.5001L21.1584 14.4371L19.4154 15.4421C19.3123 15.5009 19.1916 15.521 19.075 15.499C18.9584 15.4769 18.8534 15.4141 18.7788 15.3218C18.7043 15.2294 18.665 15.1136 18.6681 14.9949C18.6711 14.8762 18.7162 14.7625 18.7954 14.6741L20.0364 13.3041C19.9941 13.268 19.9586 13.2247 19.9314 13.1761C19.865 13.0614 19.8469 12.925 19.8811 12.7969C19.9152 12.6689 19.9988 12.5596 20.1134 12.4931L21.5614 11.6571C21.6641 11.5965 21.7853 11.575 21.9025 11.5967C22.0198 11.6184 22.1252 11.6818 22.1994 11.7751C22.2747 11.8679 22.3143 11.9845 22.311 12.104C22.3077 12.2234 22.2617 12.3377 22.1814 12.4261L21.6814 12.9821L22.7964 12.3391C22.8963 12.2816 23.013 12.2604 23.1267 12.279C23.2404 12.2976 23.3442 12.3549 23.4206 12.4412C23.4969 12.5275 23.5411 12.6376 23.5456 12.7527C23.5501 12.8679 23.5147 12.9811 23.4454 13.0731L21.8804 15.1361L31.8064 9.40012C31.9182 9.33508 32.0508 9.31587 32.1765 9.34654C32.3021 9.3772 32.411 9.45536 32.4802 9.56458C32.5495 9.67381 32.5737 9.80562 32.5478 9.93233C32.5219 10.059 32.448 10.1708 32.3414 10.2441L30.1154 11.7891L32.1504 10.6141C32.2632 10.5442 32.399 10.522 32.5281 10.5523C32.6573 10.5826 32.7691 10.6629 32.8389 10.7756C32.9088 10.8883 32.9311 11.0242 32.9008 11.1533C32.8705 11.2824 32.7901 11.3942 32.6774 11.4641L29.9524 13.2641L32.8284 11.6041C32.9405 11.5421 33.072 11.5254 33.196 11.5575C33.32 11.5896 33.4269 11.668 33.4948 11.7766C33.5626 11.8853 33.5862 12.0158 33.5606 12.1413C33.5351 12.2668 33.4624 12.3777 33.3574 12.4511L28.1404 15.9811L34.2404 12.4581C34.3516 12.3947 34.4829 12.3763 34.6073 12.4068C34.7316 12.4373 34.8395 12.5144 34.9088 12.6221C34.978 12.7297 35.0033 12.8599 34.9794 12.9857C34.9555 13.1115 34.8843 13.2233 34.7804 13.2981L24.4464 20.6421C24.53 20.6777 24.6021 20.7359 24.6544 20.8101C24.7267 20.9106 24.7592 21.0343 24.7455 21.1574C24.7318 21.2804 24.673 21.394 24.5804 21.4761L22.8804 22.9851L23.6984 22.5141C23.803 22.4538 23.9259 22.4333 24.0444 22.4565C24.1628 22.4797 24.2689 22.545 24.343 22.6403C24.4171 22.7356 24.4542 22.8545 24.4475 22.9751C24.4408 23.0956 24.3907 23.2096 24.3064 23.2961L22.6874 24.9531L23.9344 24.2331C24.0397 24.1732 24.1632 24.1535 24.2819 24.1778C24.4006 24.202 24.5065 24.2685 24.5798 24.365C24.6531 24.4614 24.689 24.5812 24.6806 24.7021C24.6723 24.823 24.6203 24.9367 24.5344 25.0221L23.2234 26.3111L24.5004 25.5741C24.6077 25.5121 24.7342 25.492 24.8554 25.518C24.9766 25.5439 25.0839 25.6139 25.1564 25.7144C25.2289 25.815 25.2614 25.9388 25.2478 26.062C25.2341 26.1852 25.1752 26.2989 25.0824 26.3811L23.1824 28.0661L25.4004 26.7831C25.5093 26.7195 25.6383 26.6994 25.7614 26.7268C25.8845 26.7543 25.9927 26.8272 26.0643 26.9311C26.1359 27.0349 26.1656 27.162 26.1474 27.2868C26.1293 27.4116 26.0646 27.525 25.9664 27.6041L24.6454 28.6811L26.4454 27.6431C26.5517 27.5875 26.6745 27.5718 26.7913 27.5992C26.9081 27.6265 27.0112 27.6949 27.0818 27.7919C27.1524 27.8889 27.1857 28.0081 27.1757 28.1276C27.1657 28.2472 27.1131 28.3592 27.0274 28.4431L24.6824 30.5331L28.3054 28.4411C28.406 28.3837 28.5235 28.3629 28.6377 28.3824C28.7519 28.4019 28.8557 28.4605 28.9315 28.5481C29.0074 28.6357 29.0504 28.747 29.0533 28.8628C29.0562 28.9786 29.0188 29.0918 28.9474 29.1831L27.2814 31.3001L43.6904 21.8311C43.8027 21.7646 43.9364 21.7446 44.0632 21.7754C44.1899 21.8061 44.2997 21.8852 44.3689 21.9957C44.4382 22.1062 44.4616 22.2394 44.434 22.3669C44.4065 22.4944 44.3302 22.6061 44.2214 22.6781L38.7424 26.3781L43.6904 23.5211C43.8033 23.4555 43.9373 23.4366 44.0639 23.4685C44.1905 23.5004 44.2996 23.5805 44.3679 23.6918C44.4362 23.803 44.4583 23.9366 44.4294 24.0639C44.4005 24.1912 44.323 24.3022 44.2134 24.3731L40.3474 26.9001C40.4284 26.9338 40.4991 26.9881 40.5524 27.0577C40.6057 27.1273 40.6398 27.2096 40.6513 27.2966C40.6627 27.3835 40.6511 27.4719 40.6176 27.5529C40.5841 27.6339 40.5299 27.7047 40.4604 27.7581L34.4504 32.3761L39.8804 29.2421C39.9907 29.1798 40.1206 29.1617 40.2437 29.1915C40.3668 29.2212 40.4741 29.2966 40.5438 29.4024C40.6135 29.5081 40.6404 29.6364 40.6192 29.7613C40.598 29.8862 40.5302 29.9983 40.4294 30.0751L32.6004 35.9121C32.6075 36.0061 32.5879 36.1002 32.5439 36.1836C32.4998 36.2669 32.4331 36.3361 32.3514 36.3831L30.6364 37.3731C30.5615 37.4169 30.4762 37.44 30.3894 37.4401Z" fill="#F7D97C"/>
<path d="M42.1001 44.7519C43.2131 39.3709 48.7551 36.7649 50.6711 31.7599C57.2061 18.6129 47.4001 2.23395 33.0351 0.744945C16.4861 -1.81105 1.71513 16.2309 9.17113 31.7049C10.7571 36.0539 14.8981 38.533 17.0151 42.492C17.8671 44.249 17.6531 46.757 19.5151 47.817C18.8211 47.985 18.2154 48.4077 17.8183 49.0012C17.4212 49.5947 17.2615 50.3158 17.371 51.0215C17.4805 51.7272 17.851 52.366 18.4093 52.8113C18.9676 53.2567 19.6728 53.476 20.3851 53.426C21.6851 56.306 23.1011 59.784 26.8681 59.364C32.2131 59.721 37.9861 59.764 39.4611 53.432C42.7561 53.268 44.2181 48.519 40.4541 47.6549C40.9061 47.3032 41.2841 46.8657 41.5666 46.3676C41.8491 45.8694 42.0304 45.3204 42.1001 44.7519ZM36.5001 56.652C35.0121 59.941 30.7441 58.24 27.9001 58.633C24.5001 59.25 23.1861 55.983 22.0351 53.442H38.1091C37.5761 54.516 37.0511 55.591 36.5051 56.655L36.5001 56.652ZM39.6201 52.552C35.9921 51.552 16.4921 55.342 18.9681 49.358C19.4801 48.396 20.4841 48.387 21.4431 48.422C27.1651 48.574 32.7811 48.364 38.4951 48.443C41.1221 47.758 42.5341 52.162 39.6251 52.555L39.6201 52.552ZM38.6021 47.5379C34.0161 46.562 20.6911 50.126 19.4301 45.007C16.0301 35.7869 6.33813 31.0689 9.00013 19.2059C18.0171 -17.4941 69.5911 10.0249 44.8001 38.08C41.1161 40.4 41.5921 46.3 38.6071 47.541L38.6021 47.5379Z" fill="#262626"/>
<path d="M44.713 21.7169C44.664 20.8169 43.998 20.5969 43.248 20.3989C37.898 18.4599 43.212 15.2679 40.989 13.2309C38.657 9.65791 36.547 13.8389 33.955 11.8749C32.337 9.37491 32.979 7.98391 29.155 8.57491C26.855 8.46291 27.345 10.8409 26.09 12.0559C24.097 13.6559 22.339 10.4899 20.338 12.1559C19.649 12.7279 18.068 13.9789 18.302 15.0129C22.02 21.1389 14.453 18.9129 15.276 23.6809C14.923 25.7359 17.107 25.4429 18.276 26.3639C20.504 28.2869 18.195 30.1449 18.419 32.1029C19.5 33.6129 21.28 35.3259 23.079 33.7549C27.728 31.9749 25.795 38.3899 29.843 37.4269C33.632 38.3419 32.769 31.6479 36.783 33.8799C38.176 34.9949 39.705 34.0949 40.655 32.8569C41.087 32.4259 41.693 31.9759 41.717 31.3139C38.044 23.9629 45.876 27.7609 44.713 21.7169ZM43.275 24.2449C43.147 24.8749 42.793 24.7779 42.303 24.9189C35.887 27.5999 42.372 30.9339 38.974 33.1099C38.474 33.6099 38.535 33.5099 37.934 33.1609C37.3507 32.8269 36.6987 32.6306 36.0279 32.587C35.3572 32.5433 34.6853 32.6536 34.0636 32.9092C33.4419 33.1649 32.8869 33.5592 32.4408 34.0621C31.9948 34.565 31.6696 35.1632 31.49 35.8109C31.49 35.8109 31.379 36.5969 31.403 36.5759C28.319 36.9579 28.926 35.9239 27.633 33.7849C26.072 32.1119 23.467 32.3399 21.748 33.5689C19.642 31.8359 19.469 31.4189 20.706 28.9209C21.296 24.8009 16.831 25.7359 16.725 23.3969C16.725 22.9299 16.491 21.6329 16.925 21.2619C19.968 20.9839 21.903 17.4309 19.87 14.9129C19.63 14.3049 19.878 14.0339 20.263 13.6479C21.637 11.5969 21.991 13.2869 23.742 13.4099C26.089 13.6909 28.632 11.8949 28.593 9.42391C29.258 9.30779 29.938 9.30779 30.603 9.42391C32.031 10.2019 31.741 12.7999 33.818 13.1499C34.5604 13.3909 35.3495 13.4513 36.12 13.3263C36.8904 13.2013 37.6199 12.8943 38.248 12.4309C41.348 14.8969 39.728 14.7129 39.261 17.7719C39.462 21.8729 44.211 19.8079 43.275 24.2449Z" fill="#262626"/>
<path d="M34.3334 17.9189C24.6724 11.1049 17.7334 28.7359 29.9394 29.5389C35.9134 29.7179 39.2144 21.6709 34.3334 17.9189ZM35.1844 24.0409C34.4474 29.4029 26.6624 29.8819 25.0684 24.8049C22.3874 15.9999 36.3104 15.0449 35.1844 24.0409Z" fill="#262626"/>
</svg>
