<svg width="60" height="60" viewBox="0 0 60 60" fill="none" xmlns="http://www.w3.org/2000/svg">
<g clip-path="url(#clip0_565_2821)">
<path d="M22.4716 38.4701C22.3631 38.4704 22.2574 38.4354 22.1705 38.3703C22.0836 38.3053 22.0203 38.2137 21.99 38.1095C21.9597 38.0053 21.9642 37.8941 22.0027 37.7926C22.0413 37.6911 22.1118 37.605 22.2036 37.5471L33.4466 30.4301L19.6376 38.4001C19.5244 38.4614 19.392 38.4767 19.2678 38.4428C19.1437 38.409 19.0373 38.3285 18.971 38.2182C18.9046 38.1079 18.8834 37.9763 18.9116 37.8508C18.9398 37.7252 19.0154 37.6154 19.1226 37.5441L28.3126 31.8131L16.8996 38.4001C16.7863 38.4606 16.6542 38.4752 16.5305 38.4409C16.4067 38.4066 16.301 38.326 16.235 38.2159C16.1691 38.1057 16.148 37.9744 16.1763 37.8492C16.2045 37.7239 16.2798 37.6143 16.3866 37.5431L26.9366 31.0001L14.1156 38.4001C14.0026 38.4605 13.8708 38.4752 13.7473 38.4412C13.6238 38.4072 13.518 38.3272 13.4518 38.2175C13.3856 38.1078 13.3641 37.9769 13.3916 37.8518C13.4191 37.7267 13.4935 37.6169 13.5996 37.5451L31.2436 26.4451L10.9136 38.1851C10.7998 38.2534 10.6636 38.2737 10.5348 38.2415C10.4061 38.2094 10.2954 38.1274 10.2271 38.0136C10.1588 37.8998 10.1385 37.7636 10.1707 37.6348C10.2028 37.5061 10.2848 37.3954 10.3986 37.3271L27.9566 26.3841L8.64758 37.5311C8.53434 37.5916 8.40217 37.6062 8.27845 37.5719C8.15474 37.5376 8.04895 37.457 7.98301 37.3469C7.91707 37.2367 7.89603 37.1054 7.92425 36.9802C7.95247 36.8549 8.02778 36.7453 8.13459 36.6741L25.4106 25.9571L6.87559 36.6581C6.76222 36.7205 6.62906 36.7366 6.50411 36.7029C6.37916 36.6691 6.27215 36.5883 6.20558 36.4773C6.13901 36.3663 6.11807 36.2338 6.14717 36.1077C6.17626 35.9816 6.25312 35.8717 6.36158 35.8011L25.0186 24.2011L5.34158 35.5661C5.22798 35.626 5.09569 35.6399 4.97213 35.6049C4.84856 35.5699 4.74321 35.4887 4.67789 35.3781C4.61257 35.2675 4.59231 35.1361 4.62129 35.011C4.65028 34.8858 4.7263 34.7767 4.83358 34.7061L5.40358 34.3611L4.56158 34.8481C4.44794 34.9165 4.31177 34.937 4.18302 34.905C4.05428 34.8731 3.94351 34.7912 3.87508 34.6776C3.80666 34.564 3.78618 34.4278 3.81816 34.299C3.85013 34.1703 3.93194 34.0595 4.04558 33.9911L25.8276 20.3001L3.27958 33.3201C3.16661 33.3805 3.03478 33.3952 2.91127 33.3612C2.78776 33.3272 2.68201 33.2471 2.61582 33.1375C2.54964 33.0278 2.52807 32.8969 2.55556 32.7718C2.58305 32.6467 2.65751 32.5369 2.76358 32.4651L23.9596 19.1001L2.29058 31.6111C2.17742 31.6724 2.04498 31.6877 1.92082 31.6538C1.79666 31.62 1.69034 31.5395 1.62399 31.4292C1.55765 31.3189 1.53638 31.1873 1.56461 31.0618C1.59285 30.9362 1.66841 30.8264 1.77558 30.7551L17.9636 20.6341L1.69958 30.0251C1.58618 30.0841 1.45448 30.0974 1.33155 30.0623C1.20863 30.0273 1.10381 29.9464 1.03864 29.8364C0.973471 29.7265 0.952904 29.5957 0.981164 29.471C1.00942 29.3463 1.08436 29.2372 1.19058 29.1661L5.52958 26.5211L1.43958 28.8791C1.32637 28.9438 1.19236 28.9617 1.06612 28.929C0.93989 28.8963 0.831425 28.8156 0.763856 28.7041C0.696287 28.5925 0.674962 28.459 0.704427 28.332C0.733893 28.205 0.811817 28.0945 0.921584 28.0241L20.2776 15.7141L1.29358 26.6741C1.18028 26.7396 1.04582 26.7581 0.919058 26.7255C0.792297 26.693 0.683342 26.6121 0.615584 26.5001C0.547594 26.3881 0.526266 26.2539 0.556187 26.1264C0.586108 25.9989 0.664888 25.8882 0.775584 25.8181L17.7156 15.0891L1.61558 24.3821C1.50154 24.4499 1.36525 24.4695 1.23669 24.4368C1.10814 24.4041 0.997847 24.3216 0.930084 24.2076C0.862321 24.0936 0.842638 23.9573 0.875363 23.8287C0.908088 23.7002 0.990541 23.5899 1.10458 23.5221L1.99058 22.9821C1.8744 23.02 1.74837 23.014 1.63629 22.9653C1.52421 22.9166 1.43384 22.8286 1.38227 22.7178C1.33069 22.607 1.32147 22.4811 1.35635 22.364C1.39123 22.2469 1.4678 22.1466 1.57158 22.0821L17.2816 11.9701L4.41358 19.4001C4.30104 19.4621 4.16895 19.4784 4.04473 19.4456C3.9205 19.4128 3.81367 19.3334 3.7464 19.2239C3.67912 19.1145 3.65657 18.9833 3.68342 18.8577C3.71026 18.732 3.78445 18.6215 3.89058 18.5491L15.8576 10.7411L7.32759 15.6661C7.21613 15.7293 7.08466 15.7474 6.9603 15.7165C6.83595 15.6856 6.7282 15.6081 6.65929 15.5001C6.59039 15.392 6.5656 15.2617 6.59003 15.1359C6.61446 15.0101 6.68625 14.8985 6.79059 14.8241L13.7856 9.9241L7.33758 13.6521C7.22572 13.7134 7.09464 13.7297 6.97119 13.6975C6.84774 13.6653 6.74124 13.5872 6.67352 13.4791C6.60579 13.371 6.58194 13.2411 6.60687 13.116C6.63179 12.9909 6.7036 12.88 6.80759 12.8061L10.0396 10.6141L7.62758 12.0071C7.51656 12.0726 7.38452 12.0927 7.25903 12.0632C7.13353 12.0337 7.02429 11.9569 6.95409 11.8487C6.8839 11.7406 6.85818 11.6095 6.88231 11.4829C6.90644 11.3563 6.97855 11.2438 7.08359 11.1691L11.1906 8.1921L8.49059 9.7531C8.38239 9.81597 8.25454 9.83598 8.13231 9.80919C8.01007 9.78239 7.90233 9.71073 7.83035 9.60836C7.75838 9.50599 7.72741 9.38035 7.74356 9.25626C7.75971 9.13216 7.82181 9.01864 7.91759 8.9381L10.7996 6.4941C10.6926 6.4873 10.5907 6.4463 10.5088 6.37716C10.4269 6.30802 10.3694 6.2144 10.3447 6.11009C10.3201 6.00578 10.3296 5.89632 10.3719 5.79783C10.4142 5.69935 10.487 5.61706 10.5796 5.5631L14.7556 3.1501C14.8638 3.08723 14.9916 3.06721 15.1139 3.09401C15.2361 3.12081 15.3438 3.19247 15.4158 3.29484C15.4878 3.39721 15.5188 3.52285 15.5026 3.64694C15.4865 3.77103 15.4244 3.88456 15.3286 3.9651L12.7996 6.1101L19.0396 2.5101C19.1506 2.44458 19.2827 2.42448 19.4081 2.45399C19.5336 2.4835 19.6429 2.56033 19.7131 2.66846C19.7833 2.77659 19.809 2.90766 19.7849 3.03429C19.7607 3.16093 19.6886 3.27335 19.5836 3.3481L15.4766 6.3211L21.5486 2.8151C21.6607 2.7512 21.7932 2.73313 21.9183 2.76466C22.0435 2.79619 22.1516 2.87488 22.22 2.98428C22.2885 3.09368 22.312 3.2253 22.2856 3.35163C22.2593 3.47796 22.1851 3.5892 22.0786 3.6621L18.8486 5.8521L23.2236 3.3261C23.335 3.26287 23.4665 3.24484 23.5909 3.27573C23.7152 3.30663 23.823 3.38409 23.8919 3.49212C23.9608 3.60016 23.9856 3.73053 23.9611 3.85631C23.9367 3.9821 23.8649 4.09371 23.7606 4.1681L16.7666 9.0681L31.2606 0.700097C31.3734 0.63447 31.5075 0.615583 31.6341 0.647472C31.7607 0.67936 31.8698 0.759494 31.9381 0.870751C32.0064 0.982009 32.0284 1.11556 31.9996 1.24288C31.9707 1.37019 31.8932 1.48117 31.7836 1.5521L19.7996 9.3661L34.6926 0.768097C34.8055 0.703816 34.939 0.686022 35.0648 0.718484C35.1907 0.750947 35.2989 0.831115 35.3666 0.942006C35.4344 1.0529 35.4563 1.1858 35.4277 1.31256C35.3991 1.43932 35.3223 1.54998 35.2136 1.6211L19.5086 11.7301L37.2166 1.5071C37.3302 1.44426 37.4639 1.42811 37.5893 1.46207C37.7146 1.49603 37.8218 1.57743 37.8882 1.68905C37.9546 1.80066 37.975 1.93373 37.945 2.0601C37.915 2.18646 37.8371 2.29621 37.7276 2.3661L37.3006 2.6261L38.3126 2.0421C38.4258 1.9774 38.5598 1.95948 38.6861 1.99218C38.8123 2.02488 38.9207 2.1056 38.9883 2.21712C39.0559 2.32865 39.0772 2.46216 39.0477 2.58919C39.0183 2.71622 38.9404 2.8267 38.8306 2.8971L21.8916 13.6271L39.9706 3.1891C40.0838 3.1244 40.2178 3.10648 40.344 3.13918C40.4703 3.17188 40.5788 3.2526 40.6463 3.36412C40.7139 3.47565 40.7352 3.60916 40.7057 3.73619C40.6763 3.86322 40.5984 3.97371 40.4886 4.0441L21.1286 16.3571L41.4116 4.6471C41.5255 4.58219 41.6604 4.56461 41.7871 4.59816C41.9138 4.63172 42.0223 4.71371 42.0892 4.82648C42.1561 4.93925 42.176 5.07377 42.1446 5.20108C42.1133 5.32838 42.0332 5.43828 41.9216 5.5071L37.5656 8.1621L42.0916 5.5501C42.2046 5.49047 42.3362 5.4764 42.4593 5.51078C42.5824 5.54516 42.6877 5.62538 42.7535 5.73496C42.8193 5.84454 42.8406 5.97515 42.8131 6.09997C42.7856 6.22479 42.7114 6.33433 42.6056 6.4061L26.4156 16.5291L45.7076 5.3921C45.8207 5.32991 45.9534 5.31386 46.0781 5.34729C46.2027 5.38073 46.3096 5.46107 46.3764 5.5715C46.4432 5.68194 46.4647 5.81391 46.4364 5.93983C46.4081 6.06574 46.3322 6.17584 46.2246 6.2471L25.0336 19.6061L48.4376 6.1001C48.5509 6.03662 48.6844 6.01971 48.81 6.05294C48.9355 6.08618 49.0432 6.16695 49.1102 6.27816C49.1772 6.38938 49.1984 6.52231 49.1692 6.64884C49.1399 6.77537 49.0626 6.88556 48.9536 6.9561L27.1786 20.6351L50.3866 7.2351C50.5013 7.16707 50.6383 7.14739 50.7675 7.1804C50.8968 7.21341 51.0076 7.29639 51.0756 7.4111C51.1436 7.5258 51.1633 7.66284 51.1303 7.79205C51.0973 7.92126 51.0143 8.03207 50.8996 8.1001L50.3386 8.4391L51.1996 7.9391C51.3134 7.87094 51.4496 7.85077 51.5782 7.88302C51.7069 7.91528 51.8174 7.99732 51.8856 8.1111C51.9538 8.22488 51.9739 8.36107 51.9417 8.48972C51.9094 8.61837 51.8274 8.72894 51.7136 8.7971L33.0546 20.3891L52.3046 9.2751C52.4182 9.21111 52.5523 9.19401 52.6783 9.22746C52.8043 9.2609 52.9122 9.34224 52.9792 9.45414C53.0461 9.56604 53.0666 9.69964 53.0364 9.82647C53.0062 9.9533 52.9277 10.0633 52.8176 10.1331L35.5256 20.8591L53.0876 10.7211C53.2011 10.6556 53.3358 10.6374 53.4627 10.6702C53.5895 10.703 53.6984 10.7844 53.7659 10.8967C53.8334 11.009 53.8541 11.1434 53.8236 11.2708C53.793 11.3982 53.7137 11.5086 53.6026 11.5781L36.0566 22.5141L53.5856 12.3941C53.6987 12.3319 53.8314 12.3159 53.9561 12.3493C54.0807 12.3827 54.1876 12.4631 54.2544 12.5735C54.3212 12.6839 54.3427 12.8159 54.3144 12.9418C54.2861 13.0677 54.2102 13.1778 54.1026 13.2491L36.4476 24.3551L53.6936 14.4001C53.8074 14.3319 53.9436 14.3118 54.0722 14.344C54.2009 14.3763 54.3114 14.4583 54.3796 14.5721C54.4478 14.6859 54.4679 14.8221 54.4357 14.9507C54.4034 15.0794 54.3214 15.1899 54.2076 15.2581L43.6676 21.8001L53.3676 16.2001C53.4811 16.1346 53.6158 16.1164 53.7427 16.1492C53.8695 16.182 53.9784 16.2634 54.0459 16.3757C54.1134 16.488 54.1341 16.6224 54.1036 16.7498C54.073 16.8772 53.9937 16.9876 53.8826 17.0571L44.6946 22.7851L54.1826 17.3001C54.2957 17.2379 54.4284 17.2219 54.5531 17.2553C54.6777 17.2887 54.7846 17.3691 54.8514 17.4795C54.9182 17.5899 54.9397 17.7219 54.9114 17.8478C54.8831 17.9737 54.8072 18.0838 54.6996 18.1551L43.4446 25.2841L55.4176 18.3721C55.4737 18.338 55.536 18.3153 55.6009 18.3053C55.6658 18.2953 55.7321 18.2982 55.7959 18.3138C55.8597 18.3294 55.9198 18.3574 55.9727 18.3963C56.0257 18.4351 56.0705 18.484 56.1046 18.5401C56.1387 18.5962 56.1614 18.6585 56.1714 18.7234C56.1814 18.7884 56.1785 18.8546 56.1629 18.9184C56.1473 18.9822 56.1193 19.0423 56.0804 19.0953C56.0416 19.1482 55.9927 19.193 55.9366 19.2271L45.4556 25.8941L56.4496 19.5461C56.5622 19.4821 56.6954 19.4643 56.8209 19.4964C56.9464 19.5286 57.0545 19.6083 57.1225 19.7186C57.1904 19.8289 57.2129 19.9614 57.1851 20.0879C57.1573 20.2145 57.0815 20.3253 56.9736 20.3971L44.6206 28.4681L57.4306 21.0681C57.543 21.0042 57.6757 20.9863 57.801 21.0181C57.9263 21.05 58.0344 21.1292 58.1026 21.239C58.1708 21.3489 58.1938 21.4809 58.1667 21.6073C58.1397 21.7337 58.0647 21.8448 57.9576 21.9171L46.0776 29.8491L58.1946 22.8491C58.307 22.7788 58.4428 22.7561 58.572 22.7859C58.7012 22.8157 58.8133 22.8956 58.8836 23.0081C58.9539 23.1206 58.9766 23.2563 58.9468 23.3855C58.917 23.5147 58.837 23.6268 58.7246 23.6971L48.9826 30.2511L58.6116 24.7001C58.7242 24.6361 58.8574 24.6183 58.9829 24.6504C59.1084 24.6826 59.2165 24.7623 59.2845 24.8726C59.3524 24.9829 59.3749 25.1154 59.3471 25.2419C59.3193 25.3685 59.2435 25.4793 59.1356 25.5511L54.4536 28.6151L58.7186 26.1541C58.8303 26.091 58.962 26.0733 59.0864 26.1046C59.2108 26.1359 59.3184 26.2138 59.387 26.3222C59.4555 26.4306 59.4798 26.5612 59.4548 26.687C59.4298 26.8128 59.3574 26.9242 59.2526 26.9981L52.8766 31.4081L58.5356 28.1421C58.6469 28.0796 58.7779 28.062 58.9017 28.0929C59.0256 28.1239 59.1329 28.201 59.2017 28.3086C59.2705 28.4161 59.2955 28.5459 59.2717 28.6713C59.2479 28.7967 59.177 28.9083 59.0736 28.9831L54.8166 31.9831L57.9566 30.1711C58.0659 30.1084 58.1949 30.0894 58.3177 30.1178C58.4405 30.1462 58.5481 30.2199 58.6189 30.3241C58.6896 30.4284 58.7184 30.5556 58.6995 30.6802C58.6805 30.8048 58.6152 30.9176 58.5166 30.9961L54.8466 33.8851L56.2666 33.0661C56.3809 33.0063 56.5138 32.993 56.6377 33.0289C56.7615 33.0649 56.8667 33.1473 56.9312 33.2589C56.9958 33.3706 57.0147 33.5028 56.984 33.6281C56.9533 33.7534 56.8754 33.8619 56.7666 33.9311L49.3106 38.2311C49.2012 38.2938 49.0723 38.3128 48.9495 38.2844C48.8267 38.2561 48.7191 38.1824 48.6483 38.0781C48.5775 37.9738 48.5488 37.8466 48.5677 37.722C48.5867 37.5974 48.652 37.4846 48.7506 37.4061L52.4206 34.5181L45.6906 38.4001C45.5793 38.4626 45.4483 38.4802 45.3245 38.4493C45.2006 38.4183 45.0933 38.3412 45.0245 38.2336C44.9557 38.1261 44.9307 37.9963 44.9545 37.8709C44.9783 37.7455 45.0492 37.6339 45.1526 37.5591L49.4086 34.5591L42.7606 38.4001C42.6491 38.461 42.5187 38.4771 42.3957 38.4453C42.2728 38.4135 42.1665 38.3361 42.0986 38.2288C42.0306 38.1215 42.006 37.9924 42.0298 37.8677C42.0536 37.7429 42.1239 37.6319 42.2266 37.5571L48.6046 33.1441L39.4996 38.4001C39.3873 38.4598 39.2565 38.4744 39.1338 38.4411C39.0111 38.4077 38.9057 38.3289 38.8391 38.2206C38.7724 38.1123 38.7496 37.9827 38.7751 37.8581C38.8007 37.7336 38.8727 37.6234 38.9766 37.5501L43.6506 34.4891L36.8756 38.4001C36.7636 38.4622 36.632 38.4788 36.508 38.4467C36.384 38.4146 36.2771 38.3362 36.2092 38.2276C36.1414 38.1189 36.1178 37.9884 36.1434 37.8629C36.1689 37.7374 36.2417 37.6265 36.3466 37.5531L46.0836 31.0001L33.2686 38.4001C33.1564 38.463 33.0243 38.4802 32.8997 38.4482C32.7751 38.4162 32.6676 38.3374 32.5996 38.2282C32.5317 38.119 32.5084 37.9878 32.5346 37.8619C32.5609 37.736 32.6346 37.625 32.7406 37.5521L44.6256 29.6171L29.4116 38.4001C29.299 38.4621 29.167 38.4784 29.0427 38.4456C28.9185 38.4128 28.8117 38.3334 28.7444 38.2239C28.6771 38.1145 28.6546 37.9833 28.6814 37.8577C28.7083 37.732 28.7825 37.6215 28.8886 37.5491L41.2396 29.4791L25.7876 38.4001C25.6747 38.4613 25.5426 38.4767 25.4187 38.4431C25.2947 38.4096 25.1884 38.3296 25.1219 38.2198C25.0553 38.11 25.0335 37.9788 25.061 37.8534C25.0885 37.728 25.1632 37.6179 25.2696 37.5461L35.7556 30.8761L22.7216 38.4001C22.6459 38.445 22.5596 38.4692 22.4716 38.4701Z" fill="#F7D97C"/>
<path d="M35.0596 20.1521C34.9667 20.1521 34.8757 20.1262 34.7967 20.0774C34.7177 20.0286 34.6539 19.9587 34.6124 19.8757C34.5708 19.7926 34.5533 19.6996 34.5616 19.6072C34.5699 19.5147 34.6039 19.4264 34.6596 19.3521L35.2886 18.5061C35.1835 18.4953 35.0845 18.4516 35.0058 18.3811C34.9271 18.3107 34.8727 18.2171 34.8505 18.1138C34.8283 18.0105 34.8394 17.9028 34.8821 17.8062C34.9249 17.7096 34.9972 17.6291 35.0886 17.5761L36.7346 16.6261C36.8341 16.5688 36.9502 16.5474 37.0636 16.5657C37.177 16.5839 37.2806 16.6406 37.3571 16.7263C37.4335 16.8119 37.4782 16.9212 37.4836 17.0359C37.489 17.1506 37.4547 17.2637 37.3866 17.3561L36.9006 18.0101L38.1846 17.2691C38.2994 17.2038 38.4353 17.1866 38.5627 17.2212C38.6901 17.2558 38.7987 17.3394 38.8647 17.4537C38.9307 17.5681 38.9488 17.7039 38.9151 17.8315C38.8813 17.9592 38.7985 18.0683 38.6846 18.1351L35.3096 20.0851C35.2337 20.1294 35.1474 20.1525 35.0596 20.1521Z" fill="#FCB01A"/>
<path d="M35.0455 27.5911C34.944 27.5911 34.845 27.5603 34.7615 27.5027C34.678 27.4451 34.614 27.3635 34.5779 27.2687C34.5419 27.1738 34.5356 27.0703 34.5598 26.9718C34.584 26.8733 34.6376 26.7844 34.7135 26.7171L35.0895 26.3831C35.0025 26.3945 34.914 26.3826 34.8332 26.3485C34.7523 26.3144 34.682 26.2594 34.6295 26.1891C34.5558 26.092 34.5201 25.9714 34.5292 25.8498C34.5382 25.7283 34.5913 25.6142 34.6785 25.5291L35.7665 24.4631L35.2555 24.7581C35.1512 24.8176 35.0291 24.8376 34.9113 24.8145C34.7935 24.7914 34.688 24.7266 34.614 24.6321C34.5399 24.5376 34.5024 24.4196 34.5082 24.2997C34.514 24.1799 34.5627 24.066 34.6455 23.9791L36.1455 22.4151L32.7405 24.3801C32.6304 24.4442 32.5 24.4638 32.3759 24.4349C32.2518 24.4061 32.1434 24.331 32.0728 24.2249C32.0022 24.1189 31.9748 23.9899 31.9961 23.8643C32.0174 23.7387 32.0859 23.6259 32.1875 23.5491L32.3165 23.4491L30.6975 24.3841C30.5917 24.4444 30.4675 24.4641 30.3482 24.4393C30.2289 24.4145 30.1228 24.347 30.0497 24.2496C29.9767 24.1521 29.9417 24.0313 29.9515 23.9099C29.9612 23.7884 30.0149 23.6747 30.1025 23.5901L31.2235 22.5191L27.9775 24.4001C27.8691 24.4644 27.7405 24.4855 27.6173 24.4591C27.4941 24.4326 27.3854 24.3607 27.313 24.2575C27.2406 24.1544 27.2098 24.0277 27.2267 23.9029C27.2437 23.778 27.3072 23.6642 27.4045 23.5841L27.7445 23.2991L25.8265 24.4001C25.7122 24.4599 25.5793 24.4732 25.4554 24.4373C25.3316 24.4013 25.2264 24.3189 25.1618 24.2073C25.0973 24.0956 25.0784 23.9634 25.1091 23.8381C25.1398 23.7128 25.2177 23.6043 25.3265 23.5351L32.1425 19.6001C32.2507 19.5383 32.378 19.5191 32.4996 19.5463C32.6212 19.5734 32.7282 19.645 32.7998 19.747C32.8714 19.849 32.9023 19.974 32.8865 20.0976C32.8707 20.2212 32.8094 20.3344 32.7145 20.4151L32.3765 20.6991L34.3285 19.5721C34.4344 19.5073 34.5606 19.4842 34.6826 19.5073C34.8045 19.5304 34.9135 19.5981 34.9884 19.6971C35.0632 19.7962 35.0986 19.9195 35.0875 20.0432C35.0764 20.1668 35.0197 20.2819 34.9285 20.3661L33.7995 21.4391L38.6865 18.6181C38.7966 18.554 38.927 18.5344 39.0511 18.5633C39.1752 18.5921 39.2836 18.6672 39.3542 18.7733C39.4247 18.8793 39.4522 19.0083 39.4309 19.1339C39.4096 19.2595 39.3411 19.3723 39.2395 19.4491L38.8705 19.7291C38.9731 19.7156 39.0774 19.7342 39.1689 19.7825C39.2605 19.8307 39.3348 19.9062 39.3817 19.9985C39.4285 20.0907 39.4456 20.1953 39.4305 20.2977C39.4154 20.4001 39.369 20.4953 39.2975 20.5701L37.7975 22.1341L38.6865 21.6211C38.7919 21.5603 38.9159 21.54 39.0352 21.5641C39.1544 21.5882 39.2609 21.6549 39.3345 21.7518C39.4081 21.8487 39.4438 21.9692 39.435 22.0905C39.4261 22.2119 39.3733 22.3259 39.2865 22.4111L38.1995 23.4791L38.6895 23.1961C38.7968 23.134 38.9233 23.114 39.0445 23.14C39.1657 23.1659 39.2729 23.2359 39.3454 23.3364C39.4179 23.4369 39.4505 23.5608 39.4368 23.684C39.4232 23.8072 39.3643 23.9209 39.2715 24.0031L38.8865 24.3461C38.9825 24.3373 39.0791 24.3558 39.1651 24.3995C39.2511 24.4432 39.323 24.5103 39.3725 24.5931C39.4385 24.7079 39.4563 24.8441 39.422 24.9719C39.3877 25.0998 39.3041 25.2088 39.1895 25.2751L35.2995 27.5231C35.2225 27.5683 35.1348 27.5919 35.0455 27.5911Z" fill="#FCB01A"/>
<path d="M35.0555 36.2431C34.9548 36.2432 34.8564 36.2129 34.7732 36.1561C34.69 36.0994 34.6259 36.0188 34.5892 35.925C34.5526 35.8312 34.5451 35.7285 34.5679 35.6304C34.5906 35.5322 34.6424 35.4433 34.7165 35.3751L35.2875 34.8491C35.1849 34.9079 35.0647 34.9285 34.9483 34.9071C34.832 34.8857 34.727 34.8237 34.652 34.7322C34.577 34.6406 34.5369 34.5255 34.5389 34.4072C34.5408 34.2889 34.5846 34.1751 34.6625 34.0861L36.5575 31.9331L35.2575 32.6831C35.1543 32.7432 35.0331 32.7644 34.9157 32.7429C34.7982 32.7213 34.6924 32.6585 34.6172 32.5657C34.5421 32.473 34.5026 32.3564 34.506 32.237C34.5093 32.1177 34.5553 32.0035 34.6355 31.9151L36.4605 29.8891L32.1395 32.3821C32.0301 32.4447 31.9012 32.4638 31.7784 32.4354C31.6556 32.407 31.548 32.3333 31.4772 32.2291C31.4064 32.1248 31.3777 31.9976 31.3966 31.873C31.4156 31.7484 31.4809 31.6356 31.5795 31.5571L33.1625 30.3111L29.5625 32.3901C29.462 32.448 29.3445 32.4692 29.2302 32.4501C29.1158 32.4309 29.0116 32.3726 28.9355 32.2851C28.8591 32.1977 28.8156 32.0864 28.8123 31.9703C28.809 31.8543 28.8462 31.7407 28.9175 31.6491L30.3825 29.7721L25.8265 32.4001C25.7122 32.4599 25.5793 32.4732 25.4554 32.4372C25.3316 32.4013 25.2264 32.3189 25.1618 32.2073C25.0973 32.0956 25.0784 31.9633 25.1091 31.8381C25.1398 31.7128 25.2177 31.6043 25.3265 31.5351L32.0995 27.6231C32.1999 27.5649 32.3175 27.5435 32.432 27.5625C32.5464 27.5815 32.6508 27.6397 32.727 27.7272C32.8033 27.8147 32.8467 27.926 32.8499 28.042C32.8531 28.158 32.8158 28.2715 32.7445 28.3631L31.2835 30.2401L38.6895 25.9651C38.7988 25.9024 38.9278 25.8834 39.0506 25.9118C39.1734 25.9401 39.281 26.0138 39.3517 26.1181C39.4225 26.2224 39.4513 26.3496 39.4324 26.4741C39.4134 26.5987 39.3481 26.7116 39.2495 26.7901L37.6655 28.0371L38.6895 27.4461C38.7926 27.386 38.9139 27.3648 39.0313 27.3863C39.1488 27.4078 39.2546 27.4707 39.3297 27.5634C39.4049 27.6562 39.4443 27.7728 39.441 27.8921C39.4376 28.0115 39.3917 28.1257 39.3115 28.2141L37.4855 30.2411L38.6855 29.5471C38.7881 29.4882 38.9083 29.4677 39.0247 29.4891C39.141 29.5105 39.246 29.5725 39.321 29.664C39.396 29.7555 39.436 29.8707 39.4341 29.989C39.4322 30.1073 39.3884 30.221 39.3105 30.3101L37.4175 32.4631L38.6855 31.7301C38.792 31.6691 38.9172 31.6494 39.0372 31.6748C39.1573 31.7001 39.2638 31.7687 39.3366 31.8675C39.4093 31.9664 39.4432 32.0885 39.4318 32.2106C39.4203 32.3328 39.3643 32.4465 39.2745 32.5301L38.7005 33.0591C38.816 32.9994 38.9502 32.9871 39.0747 33.0248C39.1991 33.0624 39.304 33.1471 39.3671 33.2608C39.4302 33.3744 39.4465 33.5082 39.4126 33.6337C39.3787 33.7592 39.2972 33.8666 39.1855 33.9331L35.3015 36.1751C35.227 36.2191 35.1421 36.2426 35.0555 36.2431Z" fill="#FCB01A"/>
<path d="M35.0385 43.1061C34.939 43.1061 34.8419 43.0764 34.7594 43.0209C34.6769 42.9654 34.6128 42.8866 34.5754 42.7945C34.5379 42.7024 34.5287 42.6012 34.5491 42.5039C34.5694 42.4066 34.6183 42.3175 34.6895 42.2481L35.7225 41.2481L35.2665 41.5111C35.1599 41.5739 35.0339 41.595 34.9128 41.5703C34.7916 41.5456 34.6839 41.4769 34.6104 41.3774C34.537 41.278 34.503 41.1548 34.515 41.0318C34.527 40.9087 34.5842 40.7945 34.6755 40.7111L35.3655 40.0691L34.8305 40.3781C34.7257 40.435 34.604 40.4527 34.4874 40.4278C34.3708 40.4029 34.2669 40.3372 34.1945 40.2424C34.1221 40.1477 34.0859 40.0302 34.0925 39.9111C34.0991 39.7921 34.148 39.6793 34.2305 39.5931L35.9475 37.8641L31.5745 40.3881C31.4646 40.4491 31.3357 40.4665 31.2136 40.4368C31.0915 40.4071 30.985 40.3325 30.9154 40.2279C30.8458 40.1232 30.8182 39.9962 30.838 39.8721C30.8579 39.7479 30.9237 39.6359 31.0225 39.5581L32.3835 38.5211L29.1375 40.3951C29.0346 40.4546 28.914 40.4755 28.7971 40.4541C28.6803 40.4327 28.5749 40.3703 28.4998 40.2783C28.4247 40.1862 28.3848 40.0704 28.3873 39.9517C28.3898 39.8329 28.4346 39.7189 28.5135 39.6301L29.9275 38.0401L25.8275 40.4041C25.7132 40.4639 25.5802 40.4772 25.4564 40.4413C25.3325 40.4053 25.2274 40.3229 25.1628 40.2113C25.0983 40.0996 25.0794 39.9674 25.1101 39.8421C25.1407 39.7169 25.2186 39.6083 25.3275 39.5391L32.0995 35.6231C32.2023 35.563 32.3233 35.5416 32.4405 35.5627C32.5578 35.5838 32.6636 35.6462 32.739 35.7384C32.8144 35.8307 32.8543 35.9468 32.8517 36.066C32.849 36.1851 32.8039 36.2993 32.7245 36.3881L31.3095 37.9781L38.6895 33.7201C38.7994 33.6579 38.9288 33.6396 39.0517 33.6689C39.1745 33.6982 39.2818 33.7729 39.3518 33.878C39.4218 33.9832 39.4495 34.1109 39.4292 34.2356C39.4089 34.3602 39.3422 34.4726 39.2425 34.5501L37.8805 35.5871L38.6895 35.1201C38.7944 35.0596 38.9176 35.0393 39.0364 35.0628C39.1551 35.0863 39.2613 35.1522 39.3352 35.2481C39.4091 35.3439 39.4457 35.4634 39.4382 35.5842C39.4307 35.7051 39.3797 35.8191 39.2945 35.9051L37.5765 37.6341L38.6895 36.9921C38.796 36.9293 38.922 36.9082 39.0432 36.9329C39.1643 36.9576 39.272 37.0263 39.3455 37.1258C39.419 37.2252 39.453 37.3484 39.441 37.4714C39.429 37.5945 39.3718 37.7087 39.2805 37.7921L38.5895 38.4351L38.6895 38.3771C38.795 38.3154 38.9195 38.2945 39.0394 38.3184C39.1593 38.3422 39.2663 38.4092 39.3402 38.5066C39.414 38.604 39.4497 38.7251 39.4403 38.847C39.431 38.9689 39.3773 39.0831 39.2895 39.1681L38.2575 40.1681L38.6905 39.9181C38.7474 39.8819 38.811 39.8576 38.8776 39.8467C38.9441 39.8358 39.0122 39.8384 39.0777 39.8544C39.1432 39.8705 39.2047 39.8996 39.2587 39.9401C39.3126 39.9805 39.3578 40.0315 39.3916 40.0898C39.4253 40.1482 39.4469 40.2128 39.4551 40.2798C39.4632 40.3467 39.4577 40.4146 39.4389 40.4794C39.4201 40.5441 39.3884 40.6044 39.3457 40.6566C39.303 40.7088 39.2502 40.7519 39.1905 40.7831L35.2905 43.0351C35.2145 43.0812 35.1274 43.1058 35.0385 43.1061Z" fill="#FCB01A"/>
<path d="M35.0435 51.4661C34.947 51.4661 34.8526 51.4382 34.7716 51.3857C34.6907 51.3333 34.6266 51.2585 34.5871 51.1704C34.5477 51.0824 34.5346 50.9848 34.5494 50.8894C34.5642 50.7941 34.6063 50.7051 34.6705 50.6331L36.4865 48.6001L35.2635 49.3061C35.1588 49.3672 35.0355 49.3883 34.9165 49.3652C34.7974 49.3422 34.6908 49.2767 34.6165 49.181C34.5421 49.0852 34.5051 48.9657 34.5123 48.8447C34.5194 48.7237 34.5704 48.6094 34.6555 48.5231L36.0215 47.1301L33.8645 48.3751C33.7572 48.4372 33.6307 48.4572 33.5095 48.4313C33.3883 48.4053 33.2811 48.3353 33.2086 48.2348C33.1361 48.1343 33.1035 48.0104 33.1172 47.8872C33.1308 47.764 33.1898 47.6503 33.2825 47.5681L34.9055 46.1311L30.9995 48.3861C30.8889 48.4494 30.7583 48.4682 30.6344 48.4385C30.5105 48.4087 30.4026 48.3328 30.3327 48.2262C30.2629 48.1196 30.2364 47.9904 30.2587 47.8649C30.2809 47.7394 30.3503 47.6272 30.4525 47.5511L31.4965 46.7791L28.7025 48.3931C28.5975 48.4515 28.4749 48.4701 28.3573 48.4455C28.2397 48.4209 28.1349 48.3548 28.062 48.2592C27.9891 48.1636 27.9531 48.045 27.9606 47.9251C27.968 47.8052 28.0184 47.6919 28.1025 47.6061L29.3255 46.3811L25.8255 48.4001C25.7112 48.4599 25.5783 48.4732 25.4544 48.4373C25.3306 48.4013 25.2254 48.3189 25.1609 48.2073C25.0963 48.0956 25.0774 47.9634 25.1081 47.8381C25.1388 47.7128 25.2167 47.6043 25.3255 47.5351L32.0995 43.6231C32.2044 43.5655 32.3265 43.5474 32.4436 43.5721C32.5607 43.5968 32.6651 43.6628 32.7377 43.7579C32.8104 43.8531 32.8464 43.9711 32.8394 44.0906C32.8324 44.2101 32.7828 44.3231 32.6995 44.4091L31.4775 45.6331L38.6775 41.4741C38.7881 41.4108 38.9187 41.392 39.0426 41.4217C39.1665 41.4515 39.2744 41.5274 39.3443 41.634C39.4141 41.7406 39.4406 41.8698 39.4184 41.9953C39.3961 42.1208 39.3268 42.233 39.2245 42.3091L38.1805 43.0801L38.6805 42.7931C38.7878 42.731 38.9143 42.711 39.0355 42.7369C39.1567 42.7629 39.2639 42.8329 39.3364 42.9334C39.4089 43.0339 39.4415 43.1578 39.4279 43.281C39.4142 43.4042 39.3553 43.5179 39.2625 43.6001L37.6385 45.0391L38.6805 44.4391C38.7851 44.3788 38.908 44.3583 39.0264 44.3815C39.1449 44.4047 39.251 44.47 39.3251 44.5653C39.3992 44.6606 39.4363 44.7795 39.4296 44.9C39.4229 45.0206 39.3728 45.1346 39.2885 45.2211L37.9215 46.6141L38.6805 46.1771C38.7833 46.1183 38.9037 46.0979 39.0202 46.1196C39.1366 46.1412 39.2416 46.2035 39.3164 46.2954C39.3912 46.3873 39.431 46.5027 39.4286 46.6211C39.4263 46.7396 39.3819 46.8533 39.3035 46.9421L37.4995 48.9731L38.6925 48.2841C38.7494 48.2479 38.8131 48.2236 38.8796 48.2127C38.9461 48.2017 39.0142 48.2044 39.0797 48.2204C39.1452 48.2365 39.2068 48.2656 39.2607 48.306C39.3147 48.3465 39.3599 48.3975 39.3936 48.4558C39.4274 48.5142 39.449 48.5788 39.4571 48.6458C39.4652 48.7127 39.4597 48.7806 39.441 48.8454C39.4222 48.9101 39.3905 48.9704 39.3478 49.0226C39.3051 49.0748 39.2523 49.1178 39.1925 49.1491L35.2925 51.3981C35.2171 51.4426 35.1311 51.4661 35.0435 51.4661Z" fill="#FCB01A"/>
<path d="M36.5653 59.3851C36.4714 59.385 36.3794 59.3585 36.2998 59.3086C36.2203 59.2587 36.1564 59.1874 36.1155 59.1029C36.0746 59.0184 36.0583 58.924 36.0685 58.8307C36.0788 58.7373 36.1151 58.6487 36.1733 58.5751L36.9313 57.6151L35.5733 58.3981C35.4682 58.4564 35.3457 58.475 35.2281 58.4504C35.1105 58.4259 35.0056 58.3597 34.9328 58.2642C34.8599 58.1686 34.8239 58.05 34.8314 57.9301C34.8388 57.8101 34.8892 57.6969 34.9733 57.6111L35.8823 56.7051L35.2893 57.0471C35.1862 57.1065 35.0654 57.1273 34.9484 57.1056C34.8315 57.0839 34.726 57.0213 34.6511 56.9289C34.5762 56.8365 34.5367 56.7204 34.5396 56.6015C34.5426 56.4826 34.5878 56.3686 34.6673 56.2801L36.4673 54.2711L32.8023 56.3871C32.693 56.4519 32.5631 56.4728 32.439 56.4453C32.3149 56.4178 32.2059 56.3441 32.1342 56.2392C32.0625 56.1342 32.0335 56.0059 32.053 55.8803C32.0725 55.7548 32.1391 55.6413 32.2393 55.5631L33.4453 54.6001L30.3233 56.4001C30.2151 56.4619 30.0878 56.4811 29.9662 56.4539C29.8446 56.4267 29.7375 56.3552 29.666 56.2532C29.5944 56.1512 29.5635 56.0262 29.5792 55.9026C29.595 55.779 29.6564 55.6658 29.7513 55.5851L30.1013 55.2851L28.1563 56.4081C28.0499 56.4651 27.9265 56.4818 27.8089 56.455C27.6912 56.4282 27.5872 56.3598 27.516 56.2623C27.4449 56.1648 27.4114 56.0449 27.4217 55.9247C27.432 55.8044 27.4855 55.692 27.5723 55.6081L28.4013 54.8641L25.6993 56.4301C25.5845 56.4953 25.4486 56.5125 25.3211 56.4779C25.1937 56.4434 25.0852 56.3598 25.0191 56.2454C24.9531 56.1311 24.935 55.9953 24.9688 55.8676C25.0025 55.74 25.0854 55.6308 25.1993 55.5641L32.0563 51.6051C32.1626 51.548 32.286 51.5313 32.4037 51.5581C32.5214 51.5849 32.6254 51.6534 32.6965 51.7508C32.7677 51.8483 32.8012 51.9682 32.7909 52.0885C32.7805 52.2087 32.727 52.3212 32.6403 52.4051L31.8113 53.1491L34.4993 51.6001C34.6074 51.5383 34.7348 51.5191 34.8564 51.5462C34.978 51.5734 35.085 51.645 35.1566 51.747C35.2282 51.8489 35.2591 51.974 35.2433 52.0975C35.2275 52.2211 35.1662 52.3344 35.0713 52.4151L34.7213 52.7151L38.6853 50.4261C38.7944 50.3629 38.9234 50.3434 39.0463 50.3713C39.1693 50.3992 39.2771 50.4725 39.3483 50.5766C39.4195 50.6806 39.4487 50.8077 39.4302 50.9324C39.4116 51.0571 39.3467 51.1702 39.2483 51.2491L38.0403 52.2141L38.6853 51.8421C38.7883 51.7826 38.9092 51.7619 39.0261 51.7836C39.1431 51.8052 39.2485 51.8679 39.3234 51.9603C39.3984 52.0527 39.4379 52.1687 39.4349 52.2876C39.432 52.4066 39.3867 52.5205 39.3073 52.6091L37.5073 54.6171L38.6883 53.9361C38.7933 53.8777 38.9159 53.8591 39.0335 53.8837C39.1511 53.9083 39.2559 53.9744 39.3288 54.07C39.4016 54.1655 39.4376 54.2841 39.4302 54.4041C39.4228 54.524 39.3724 54.6372 39.2883 54.7231L38.3793 55.6291L38.6853 55.4521C38.786 55.3935 38.904 55.372 39.0189 55.3912C39.1338 55.4104 39.2384 55.4691 39.3146 55.5572C39.3909 55.6452 39.4339 55.7572 39.4364 55.8737C39.4389 55.9901 39.4007 56.1038 39.3283 56.1951L38.5703 57.1541L38.5983 57.1391C38.7125 57.0793 38.8455 57.066 38.9694 57.1019C39.0932 57.1378 39.1984 57.2202 39.2629 57.3319C39.3275 57.4435 39.3464 57.5758 39.3157 57.7011C39.285 57.8263 39.2071 57.9349 39.0983 58.0041L36.8113 59.3241C36.736 59.3656 36.6512 59.3867 36.5653 59.3851Z" fill="#FCB01A"/>
<path d="M22.0146 59.1631C21.9096 59.1631 21.8073 59.1301 21.7222 59.0687C21.6371 59.0073 21.5734 58.9207 21.5402 58.8212C21.507 58.7216 21.506 58.6142 21.5373 58.514C21.5686 58.4138 21.6306 58.326 21.7146 58.2631L24.0886 56.4631L21.3996 58.0141C21.2924 58.076 21.1661 58.0959 21.0451 58.07C20.924 58.0442 20.8169 57.9744 20.7444 57.8741C20.6719 57.7738 20.6391 57.6502 20.6524 57.5272C20.6658 57.4042 20.7242 57.2905 20.8166 57.2081L23.3926 54.9081L21.3076 56.1081C21.2029 56.1684 21.0799 56.1889 20.9613 56.1656C20.8427 56.1423 20.7366 56.0768 20.6626 55.9813C20.5885 55.8858 20.5516 55.7667 20.5586 55.6461C20.5656 55.5254 20.616 55.4114 20.7006 55.3251L22.0676 53.9331L21.3076 54.3711C21.2044 54.4244 21.0858 54.4402 20.9723 54.4156C20.8587 54.3911 20.7573 54.3277 20.6853 54.2365C20.6134 54.1453 20.5755 54.0319 20.5781 53.9157C20.5807 53.7996 20.6236 53.688 20.6996 53.6001L22.2806 51.9191L21.3146 52.4771C21.2088 52.5408 21.0832 52.563 20.9619 52.5397C20.8407 52.5163 20.7324 52.4489 20.6579 52.3504C20.5834 52.2519 20.548 52.1294 20.5585 52.0064C20.5689 51.8834 20.6245 51.7685 20.7146 51.6841L21.6596 50.7721L21.3116 50.9721C21.2037 51.0364 21.0755 51.0577 20.9526 51.0319C20.8297 51.006 20.7211 50.9348 20.6482 50.8325C20.5754 50.7302 20.5437 50.6042 20.5596 50.4796C20.5754 50.355 20.6375 50.241 20.7336 50.1601L24.2336 47.1391L21.3096 48.8241C21.202 48.8865 21.0751 48.9067 20.9535 48.8806C20.832 48.8546 20.7244 48.7841 20.652 48.6831C20.5795 48.582 20.5474 48.4576 20.5617 48.3341C20.576 48.2106 20.6359 48.0968 20.7296 48.0151L21.8226 47.0621L21.3096 47.3621C21.2037 47.4224 21.0795 47.442 20.9602 47.4172C20.841 47.3925 20.7349 47.325 20.6618 47.2275C20.5888 47.1301 20.5538 47.0093 20.5635 46.8878C20.5732 46.7664 20.6269 46.6527 20.7146 46.5681L21.6196 45.7041L21.3096 45.8831C21.2065 45.9432 21.0853 45.9645 20.968 45.9431C20.8506 45.9217 20.7448 45.859 20.6695 45.7664C20.5943 45.6738 20.5547 45.5574 20.5578 45.4381C20.5609 45.3188 20.6066 45.2046 20.6866 45.1161L22.4866 43.1091L21.3086 43.7891C21.198 43.8524 21.0674 43.8711 20.9434 43.8414C20.8195 43.8117 20.7116 43.7358 20.6418 43.6292C20.5719 43.5226 20.5455 43.3934 20.5677 43.2679C20.59 43.1424 20.6593 43.0301 20.7616 42.9541L23.4866 40.9421L21.3096 42.1941C21.2033 42.2497 21.0805 42.2654 20.9637 42.238C20.8469 42.2107 20.7438 42.1423 20.6732 42.0453C20.6026 41.9483 20.5693 41.8291 20.5793 41.7096C20.5892 41.59 20.6419 41.478 20.7276 41.3941L23.4786 38.9441L21.3096 40.1911C21.2017 40.2532 21.0746 40.2729 20.953 40.2462C20.8314 40.2196 20.7242 40.1486 20.6522 40.0471C20.5802 39.9456 20.5486 39.8209 20.5637 39.6973C20.5787 39.5738 20.6393 39.4603 20.7336 39.3791L21.1116 39.0561C21.0275 39.0649 20.9427 39.0523 20.8648 39.0194C20.787 38.9865 20.7188 38.9345 20.6666 38.8681C20.5924 38.7737 20.5546 38.6559 20.5601 38.536C20.5656 38.4161 20.614 38.3022 20.6966 38.2151L22.2376 36.5901L21.3096 37.1261C21.2032 37.1839 21.0794 37.2011 20.9613 37.1746C20.8432 37.1481 20.7387 37.0796 20.6673 36.9819C20.5958 36.8841 20.5622 36.7638 20.5728 36.6432C20.5833 36.5226 20.6372 36.4099 20.7246 36.3261L21.1806 35.9141C21.068 35.9422 20.9492 35.9304 20.8444 35.8805C20.7397 35.8307 20.6555 35.746 20.6063 35.6409C20.5572 35.5359 20.5461 35.417 20.5749 35.3046C20.6038 35.1923 20.6708 35.0934 20.7646 35.0251L23.3746 33.1141L21.3096 34.3001C21.1999 34.3636 21.0703 34.3831 20.9469 34.3547C20.8234 34.3262 20.7154 34.252 20.6445 34.147C20.5737 34.042 20.5453 33.9141 20.5652 33.789C20.585 33.6639 20.6517 33.551 20.7516 33.4731L22.5336 32.0821L21.3096 32.7891C21.2009 32.8509 21.0731 32.8698 20.9512 32.842C20.8293 32.8143 20.7223 32.7419 20.6511 32.6391C20.58 32.5364 20.5499 32.4107 20.5668 32.2868C20.5838 32.163 20.6464 32.05 20.7426 31.9701L21.2506 31.5541C21.1445 31.5984 21.0264 31.6047 20.9161 31.5721C20.8059 31.5395 20.7102 31.4699 20.6453 31.3751C20.5804 31.2802 20.5501 31.1658 20.5596 31.0513C20.5692 30.9367 20.6179 30.8289 20.6976 30.7461L22.2116 29.1621L21.3116 29.6831C21.205 29.7479 21.0781 29.7705 20.9557 29.7466C20.8333 29.7226 20.7243 29.6538 20.6501 29.5536C20.5758 29.4534 20.5417 29.3291 20.5543 29.2051C20.567 29.081 20.6256 28.9662 20.7186 28.8831L21.5116 28.1341L21.3116 28.2491C21.2051 28.3092 21.0803 28.3282 20.9607 28.3026C20.8412 28.2769 20.7352 28.2084 20.6628 28.1098C20.5904 28.0113 20.5566 27.8897 20.5678 27.7679C20.579 27.6462 20.6344 27.5327 20.7236 27.4491L21.2546 26.9621C21.1417 27.0102 21.0151 27.0152 20.8989 26.976C20.7826 26.9369 20.6848 26.8564 20.624 26.7498C20.5633 26.6432 20.5438 26.518 20.5694 26.398C20.5949 26.2781 20.6637 26.1717 20.7626 26.0991L22.5716 24.7521L21.3116 25.4791C21.2064 25.5382 21.0834 25.5573 20.9652 25.5329C20.8471 25.5085 20.7417 25.4422 20.6687 25.3462C20.5956 25.2502 20.5597 25.131 20.5675 25.0106C20.5754 24.8902 20.6266 24.7767 20.7116 24.6911L22.9996 22.4311L21.3096 23.4061C21.2031 23.4646 21.0791 23.4824 20.9605 23.4562C20.8419 23.4299 20.7369 23.3614 20.6652 23.2635C20.5934 23.1655 20.5597 23.0447 20.5705 22.9238C20.5812 22.8028 20.6356 22.6899 20.7236 22.6061L21.2166 22.1571C21.1076 22.1928 20.9896 22.19 20.8824 22.1491C20.7752 22.1082 20.6854 22.0316 20.628 21.9323C20.5705 21.833 20.549 21.717 20.5669 21.6037C20.5849 21.4904 20.6412 21.3867 20.7266 21.3101L21.0796 20.9941C20.9982 20.9981 20.9171 20.982 20.8434 20.9471C20.7698 20.9122 20.7059 20.8596 20.6576 20.7941C20.5843 20.6956 20.5498 20.5736 20.5607 20.4513C20.5716 20.3291 20.627 20.2151 20.7166 20.1311L21.0276 19.8381C20.9351 19.8322 20.846 19.8008 20.7704 19.7472C20.6948 19.6937 20.6355 19.6202 20.5992 19.535C20.5629 19.4497 20.551 19.356 20.5648 19.2644C20.5787 19.1728 20.6177 19.0868 20.6776 19.0161L21.1376 18.4731C21.0529 18.4359 20.9802 18.376 20.9275 18.3001C20.8748 18.2241 20.8442 18.135 20.8391 18.0426C20.8341 17.9503 20.8547 17.8584 20.8987 17.7771C20.9427 17.6958 21.0085 17.6283 21.0886 17.5821L22.7356 16.6311C22.8375 16.572 22.9571 16.5509 23.0731 16.5713C23.1891 16.5918 23.2942 16.6526 23.3698 16.743C23.4454 16.8334 23.4866 16.9476 23.4862 17.0655C23.4858 17.1833 23.4438 17.2972 23.3676 17.3871L23.2986 17.4681L23.9766 17.0771C24.0831 17.0133 24.2095 16.9915 24.3313 17.0158C24.453 17.0401 24.5614 17.1089 24.6352 17.2087C24.7091 17.3085 24.7432 17.4322 24.7308 17.5557C24.7185 17.6793 24.6607 17.7938 24.5686 17.8771L24.5186 17.9251L24.5636 17.8991C24.6699 17.8427 24.7929 17.8266 24.9102 17.8536C25.0274 17.8807 25.131 17.9491 25.2018 18.0464C25.2727 18.1436 25.3061 18.2631 25.296 18.383C25.2858 18.5029 25.2328 18.6151 25.1466 18.6991L24.8846 18.9341C24.9756 18.9206 25.0686 18.9321 25.1537 18.9673C25.2387 19.0025 25.3127 19.0602 25.3676 19.1341C25.4403 19.2338 25.4736 19.3568 25.461 19.4796C25.4485 19.6024 25.391 19.7162 25.2996 19.7991L24.8426 20.2141L25.8616 19.6261C25.9667 19.5669 26.0897 19.5478 26.2079 19.5722C26.326 19.5967 26.4314 19.663 26.5044 19.759C26.5775 19.855 26.6135 19.9742 26.6056 20.0946C26.5977 20.2149 26.5465 20.3284 26.4616 20.4141L24.1696 22.6811L29.4796 19.6151C29.59 19.5508 29.721 19.5313 29.8454 19.5605C29.9698 19.5897 30.0784 19.6655 30.1486 19.7723C30.2189 19.8791 30.2457 20.0087 30.2233 20.1346C30.201 20.2605 30.1313 20.373 30.0286 20.4491L25.3286 23.9491L25.3446 23.9701C25.4172 24.0695 25.4507 24.1922 25.4385 24.3147C25.4263 24.4372 25.3694 24.5509 25.2786 24.6341L24.7516 25.1181C24.8592 25.0691 24.9808 25.0599 25.0946 25.0921C25.2084 25.1243 25.3072 25.1958 25.3733 25.2939C25.4393 25.392 25.4685 25.5103 25.4556 25.6279C25.4426 25.7455 25.3884 25.8547 25.3026 25.9361L24.5106 26.6841L24.7306 26.5571C24.8347 26.4969 24.9571 26.4763 25.0752 26.499C25.1934 26.5217 25.2993 26.5863 25.3737 26.6808C25.4481 26.7754 25.4859 26.8936 25.4802 27.0138C25.4744 27.1339 25.4256 27.248 25.3426 27.3351L23.8296 28.9181L26.0626 27.6291C26.1712 27.5673 26.299 27.5484 26.4209 27.5761C26.5428 27.6039 26.6498 27.6763 26.721 27.779C26.7921 27.8818 26.8222 28.0075 26.8053 28.1313C26.7883 28.2551 26.7257 28.3682 26.6296 28.4481L26.1416 28.8481L28.2536 27.6291C28.3631 27.5669 28.4922 27.5483 28.6148 27.5771C28.7375 27.606 28.8447 27.6801 28.9151 27.7846C28.9855 27.8891 29.0138 28.0163 28.9945 28.1408C28.9751 28.2653 28.9094 28.3779 28.8106 28.4561L27.0286 29.8461L30.8696 27.6291C30.9802 27.5666 31.1105 27.5486 31.234 27.5788C31.3574 27.609 31.4648 27.685 31.5342 27.7915C31.6036 27.8979 31.6298 28.0268 31.6076 28.1519C31.5854 28.277 31.5164 28.389 31.4146 28.4651L25.3656 32.8931C25.4341 32.9929 25.4641 33.1143 25.4499 33.2345C25.4358 33.3548 25.3784 33.4659 25.2886 33.5471L24.8396 33.9521C24.9344 33.9268 25.0346 33.9296 25.1278 33.9604C25.2211 33.9911 25.3033 34.0483 25.3646 34.1251C25.4388 34.2194 25.4766 34.3373 25.471 34.4572C25.4655 34.577 25.4171 34.6909 25.3346 34.7781L23.7996 36.4001L25.1386 35.6281C25.2464 35.5669 25.373 35.548 25.494 35.575C25.615 35.602 25.7216 35.6729 25.7932 35.7741C25.8649 35.8752 25.8964 35.9993 25.8816 36.1224C25.8669 36.2455 25.807 36.3587 25.7136 36.4401L25.5136 36.6111L27.2136 35.6281C27.3207 35.5671 27.4466 35.5479 27.567 35.5741C27.6875 35.6002 27.794 35.67 27.8662 35.7699C27.9383 35.8699 27.971 35.993 27.958 36.1155C27.945 36.2381 27.8871 36.3515 27.7956 36.4341L25.0436 38.8841L30.6836 35.6281C30.7941 35.5661 30.924 35.5485 31.0471 35.5786C31.1701 35.6088 31.2771 35.6846 31.3465 35.7906C31.4158 35.8967 31.4423 36.0251 31.4206 36.1499C31.3989 36.2747 31.3306 36.3867 31.2296 36.4631L25.3546 40.8001C25.4244 40.8926 25.4599 41.0066 25.4549 41.1224C25.45 41.2382 25.405 41.3488 25.3276 41.4351L23.5276 43.4411L24.7366 42.7411C24.8424 42.6763 24.9686 42.6532 25.0906 42.6763C25.2126 42.6994 25.3216 42.7671 25.3965 42.8661C25.4713 42.9652 25.5066 43.0885 25.4955 43.2121C25.4845 43.3358 25.4278 43.4509 25.3366 43.5351L24.4316 44.3991L25.7766 43.6231C25.8842 43.5593 26.0118 43.5382 26.1343 43.564C26.2567 43.5897 26.365 43.6605 26.4379 43.7622C26.5107 43.8639 26.5428 43.9892 26.5277 44.1134C26.5127 44.2377 26.4516 44.3517 26.3566 44.4331L25.2646 45.3861L28.3166 43.6231C28.4243 43.5602 28.5517 43.5398 28.6737 43.566C28.7957 43.5922 28.9034 43.663 28.9759 43.7647C29.0483 43.8663 29.0801 43.9913 29.065 44.1151C29.05 44.239 28.9892 44.3528 28.8946 44.4341L24.9996 47.8001C25.094 47.8105 25.1835 47.8476 25.2575 47.9071C25.3316 47.9665 25.3872 48.0459 25.4179 48.1358C25.4485 48.2257 25.4529 48.3225 25.4305 48.4148C25.4082 48.5071 25.36 48.5912 25.2916 48.6571L24.3456 49.5701L24.7176 49.3561C24.8214 49.2966 24.9431 49.2764 25.0606 49.2991C25.1781 49.3217 25.2835 49.3857 25.3578 49.4795C25.4321 49.5733 25.4703 49.6906 25.4655 49.8102C25.4607 49.9297 25.4132 50.0436 25.3316 50.1311L23.7496 51.8101L24.7436 51.2351C24.8483 51.1739 24.9718 51.1529 25.0909 51.176C25.2101 51.1991 25.3167 51.2648 25.391 51.3608C25.4653 51.4567 25.5022 51.5764 25.4947 51.6975C25.4873 51.8187 25.436 51.9329 25.3506 52.0191L23.9826 53.4111L27.0826 51.6201C27.1897 51.5582 27.316 51.5382 27.437 51.5641C27.5581 51.5899 27.6652 51.6598 27.7377 51.76C27.8102 51.8603 27.843 51.9839 27.8297 52.1069C27.8163 52.2299 27.7579 52.3437 27.6656 52.4261L25.0906 54.7261L30.4906 51.6081C30.6006 51.5454 30.7304 51.5269 30.8536 51.5562C30.9768 51.5855 31.0843 51.6605 31.1544 51.766C31.2245 51.8715 31.2519 51.9996 31.2311 52.1246C31.2104 52.2495 31.143 52.3619 31.0426 52.4391L25.3766 56.7391C25.4378 56.8536 25.4521 56.9874 25.4165 57.1122C25.3808 57.2371 25.298 57.3432 25.1856 57.4081L22.2646 59.1001C22.1883 59.1428 22.102 59.1646 22.0146 59.1631Z" fill="#FCB01A"/>
<path d="M39.7242 38.4169C54.2332 41.1169 67.7242 28.3659 54.3532 16.5909C56.4792 9.79091 49.4532 3.97691 42.9532 5.60591C38.8602 -0.358093 30.1902 -0.876094 24.9002 3.75291C16.3592 -0.574093 4.4622 6.62891 6.50021 16.5929C-8.2078 27.8529 5.0162 41.2999 20.2762 38.4099C20.5822 44.9939 19.6642 51.8789 20.6292 58.3259C22.1542 60.5339 26.0402 59.0059 25.7132 56.3859H34.2772C33.8072 59.1409 37.1662 60.3359 38.9902 58.5129C40.8862 52.3249 39.1622 44.9849 39.7242 38.4169ZM12.3872 37.5579C1.52721 37.1279 -2.3478 21.6849 7.71021 16.8329C7.77621 12.8969 8.06421 8.37591 11.8352 5.70491C16.6422 1.64491 20.7002 4.14291 25.4912 4.49991C26.6138 3.40248 27.9672 2.56944 29.4527 2.06156C30.9382 1.55367 32.5183 1.38374 34.0778 1.56416C35.6373 1.74459 37.1368 2.27081 38.4671 3.10445C39.7974 3.9381 40.9248 5.05814 41.7672 6.38291C48.7552 4.89991 54.7392 10.3479 52.9232 17.4099C59.9902 21.4349 59.9452 32.4339 52.6562 36.2029C48.6472 38.3269 44.0662 37.3819 39.7242 37.5899C39.4182 31.0059 40.3362 24.1209 39.3712 17.6739C37.8462 15.4659 33.9602 16.9939 34.2872 19.6139H25.7232C26.1932 16.8589 22.8342 15.6639 21.0102 17.4869C19.1102 23.6869 20.8382 31.0279 20.2762 37.6019C17.6512 37.6319 15.0002 37.7489 12.3872 37.5579ZM38.2762 21.6709C37.3502 24.2629 40.7172 65.8709 35.7902 57.2849C35.4902 56.7569 36.1752 55.5419 35.2472 55.6139C31.7862 56.0719 27.2182 54.6809 24.2752 56.1929C24.7242 57.8129 23.0432 59.5749 21.9432 57.6719C21.3232 44.9329 21.9292 31.9939 21.7242 19.1899C21.4622 17.2739 23.7242 16.8899 24.2122 18.7159C24.4822 19.2099 23.8822 20.4239 24.7122 20.3859C28.1872 19.9269 32.7692 21.3189 35.7262 19.8069C35.9272 15.0099 39.1332 18.3999 38.2762 21.6709Z" fill="#262626"/>
<path d="M35.285 47.6001C31.819 48.0601 27.202 46.6531 24.275 48.1911C24.556 49.4031 23.659 51.8071 24.714 52.3961C28.277 52.0871 32.341 53.0281 35.673 52.0071C35.527 50.7631 36.306 48.2421 35.285 47.6001ZM26.524 51.6001H25.724V48.4001H34.276V51.6001H26.524Z" fill="#262626"/>
<path d="M35.2687 39.541C31.7687 39.962 27.3137 38.678 24.2687 40.075C24.5577 41.361 23.6337 43.73 24.7277 44.459C28.1887 44.031 32.7577 45.332 35.7277 43.925C35.4397 42.639 36.3637 40.27 35.2687 39.541ZM26.5077 43.541H25.7277V40.459H34.2717V43.541H26.5077Z" fill="#262626"/>
<path d="M35.2687 31.541C31.7687 31.963 27.3147 30.679 24.2687 32.075C24.5577 33.361 23.6337 35.73 24.7277 36.459C28.1887 36.031 32.7577 37.332 35.7277 35.925C35.4397 34.639 36.3637 32.27 35.2687 31.541ZM26.5077 35.541H25.7277V32.459H34.2717V35.541H26.5077Z" fill="#262626"/>
<path d="M24.7075 28.3691C28.2755 28.0691 32.3165 28.9811 35.6685 27.9921C35.5345 26.7731 36.2975 24.2301 35.2945 23.6301C31.8065 24.0701 27.2735 22.7301 24.2755 24.1931C24.5545 25.3901 23.6655 27.8141 24.7075 28.3691ZM33.4685 24.3691H34.2765V27.6311H25.7245V24.3691H33.4685Z" fill="#262626"/>
</g>
<defs>
<clipPath id="clip0_565_2821">
<rect width="60" height="60" fill="white"/>
</clipPath>
</defs>
</svg>
