<svg width="24" height="24" viewBox="0 0 24 24" fill="none" xmlns="http://www.w3.org/2000/svg">
<path d="M11.9997 0.333252C5.56745 0.333252 0.333008 5.5677 0.333008 11.9999C0.333008 18.4321 5.56745 23.6666 11.9997 23.6666C18.4319 23.6666 23.6663 18.4321 23.6663 11.9999C23.6663 5.5677 18.4319 0.333252 11.9997 0.333252ZM11.9997 2.2777C17.3809 2.2777 21.7219 6.61867 21.7219 11.9999C21.7243 14.3274 20.8897 16.5781 19.3704 18.3413C17.8512 20.1046 15.7486 21.2627 13.4463 21.6045V14.8349H16.2152L16.6498 12.0223H13.4463V10.4862C13.4463 9.3195 13.8304 8.28214 14.9222 8.28214H16.677V5.82825C16.3688 5.78645 15.7165 5.69603 14.4837 5.69603C11.9093 5.69603 10.4004 7.0552 10.4004 10.1527V12.0223H7.75398V14.8349H10.4004V21.5802C8.12999 21.2065 6.06643 20.0378 4.5784 18.2828C3.09037 16.5278 2.27482 14.3008 2.27745 11.9999C2.27745 6.61867 6.61842 2.2777 11.9997 2.2777Z" fill="#1E1E1E"/>
</svg>
