<svg width="24" height="24" viewBox="0 0 24 24" fill="none" xmlns="http://www.w3.org/2000/svg">
<path d="M7.09967 0.333252H16.8997C20.633 0.333252 23.6663 3.36659 23.6663 7.09992V16.8999C23.6663 18.6946 22.9534 20.4157 21.6844 21.6847C20.4154 22.9537 18.6943 23.6666 16.8997 23.6666H7.09967C3.36634 23.6666 0.333008 20.6333 0.333008 16.8999V7.09992C0.333008 5.30529 1.04592 3.58416 2.31492 2.31516C3.58391 1.04617 5.30504 0.333252 7.09967 0.333252ZM6.86634 2.66659C5.75243 2.66659 4.68415 3.10908 3.89649 3.89674C3.10884 4.68439 2.66634 5.75268 2.66634 6.86658V17.1333C2.66634 19.4549 4.54467 21.3333 6.86634 21.3333H17.133C18.2469 21.3333 19.3152 20.8908 20.1029 20.1031C20.8905 19.3154 21.333 18.2472 21.333 17.1333V6.86658C21.333 4.54492 19.4547 2.66659 17.133 2.66659H6.86634ZM18.1247 4.41658C18.5114 4.41658 18.8824 4.57023 19.1559 4.84372C19.4294 5.11721 19.583 5.48814 19.583 5.87492C19.583 6.26169 19.4294 6.63263 19.1559 6.90612C18.8824 7.17961 18.5114 7.33325 18.1247 7.33325C17.7379 7.33325 17.367 7.17961 17.0935 6.90612C16.82 6.63263 16.6663 6.26169 16.6663 5.87492C16.6663 5.48814 16.82 5.11721 17.0935 4.84372C17.367 4.57023 17.7379 4.41658 18.1247 4.41658ZM11.9997 6.16658C13.5468 6.16658 15.0305 6.78117 16.1245 7.87513C17.2184 8.96909 17.833 10.4528 17.833 11.9999C17.833 13.547 17.2184 15.0307 16.1245 16.1247C15.0305 17.2187 13.5468 17.8333 11.9997 17.8333C10.4526 17.8333 8.96885 17.2187 7.87488 16.1247C6.78092 15.0307 6.16634 13.547 6.16634 11.9999C6.16634 10.4528 6.78092 8.96909 7.87488 7.87513C8.96885 6.78117 10.4526 6.16658 11.9997 6.16658ZM11.9997 8.49992C11.0714 8.49992 10.1812 8.86867 9.5248 9.52504C8.86842 10.1814 8.49967 11.0717 8.49967 11.9999C8.49967 12.9282 8.86842 13.8184 9.5248 14.4748C10.1812 15.1312 11.0714 15.4999 11.9997 15.4999C12.9279 15.4999 13.8182 15.1312 14.4745 14.4748C15.1309 13.8184 15.4997 12.9282 15.4997 11.9999C15.4997 11.0717 15.1309 10.1814 14.4745 9.52504C13.8182 8.86867 12.9279 8.49992 11.9997 8.49992Z" fill="#1E1E1E"/>
</svg>
