<svg width="22" height="22" viewBox="0 0 22 22" fill="none" xmlns="http://www.w3.org/2000/svg">
<path d="M20.1793 0.0625H1.8207C0.85 0.0625 0.0625 0.85 0.0625 1.8207V20.1793C0.0625 21.15 0.85 21.9375 1.8207 21.9375H20.1793C21.15 21.9375 21.9375 21.15 21.9375 20.1793V1.8207C21.9375 0.85 21.15 0.0625 20.1793 0.0625ZM20.1793 20.1875C7.93477 20.1848 1.8125 20.182 1.8125 20.1793C1.81523 7.93477 1.8207 1.8125 1.8207 1.8125C1.8207 1.8125 20.1875 1.81797 20.1875 1.8207C20.1848 14.0652 20.182 20.1875 20.1793 20.1875ZM3.30547 8.26289H6.55117V18.7027H3.30547V8.26289ZM4.92969 6.83555C5.96602 6.83555 6.81094 5.99336 6.81094 4.9543C6.81094 4.70725 6.76228 4.46262 6.66774 4.23437C6.57319 4.00613 6.43462 3.79874 6.25993 3.62405C6.08524 3.44936 5.87785 3.31079 5.64961 3.21625C5.42137 3.12171 5.17674 3.07305 4.92969 3.07305C4.68264 3.07305 4.43801 3.12171 4.20976 3.21625C3.98152 3.31079 3.77413 3.44936 3.59944 3.62405C3.42475 3.79874 3.28618 4.00613 3.19164 4.23437C3.0971 4.46262 3.04844 4.70725 3.04844 4.9543C3.0457 5.99336 3.88789 6.83555 4.92969 6.83555ZM11.8285 13.5375C11.8285 12.1758 12.0883 10.8578 13.7754 10.8578C15.4379 10.8578 15.4625 12.4137 15.4625 13.625V18.7027H18.7055V12.977C18.7055 10.166 18.0984 8.00312 14.8145 8.00312C13.2367 8.00312 12.1785 8.86992 11.7438 9.69023H11.7V8.26289H8.58555V18.7027H11.8285V13.5375Z" fill="#1E1E1E"/>
</svg>
